G75*
G70*
%OFA0B0*%
%FSLAX24Y24*%
%IPPOS*%
%LPD*%
%AMOC8*
5,1,8,0,0,1.08239X$1,22.5*
%
%ADD10R,0.0800X0.0260*%
%ADD11R,0.0591X0.0512*%
%ADD12R,0.0394X0.1811*%
%ADD13R,0.0630X0.1339*%
%ADD14C,0.0740*%
%ADD15OC8,0.0600*%
%ADD16C,0.0250*%
%ADD17C,0.0360*%
D10*
X015256Y001385D03*
X015256Y001885D03*
X015256Y002385D03*
X015256Y002885D03*
X015256Y003385D03*
X015256Y003885D03*
X015256Y004385D03*
X015256Y004885D03*
X015256Y005385D03*
X015256Y005885D03*
X015256Y006385D03*
X015256Y006885D03*
X019216Y006885D03*
X019216Y006385D03*
X019216Y005885D03*
X019216Y005385D03*
X019216Y004885D03*
X019216Y004385D03*
X019216Y003885D03*
X019216Y003385D03*
X019216Y002885D03*
X019216Y002385D03*
X019216Y001885D03*
X019216Y001385D03*
X028256Y001385D03*
X028256Y001885D03*
X028256Y002385D03*
X028256Y002885D03*
X028256Y003385D03*
X028256Y003885D03*
X028256Y004385D03*
X028256Y004885D03*
X028256Y005385D03*
X028256Y005885D03*
X028256Y006385D03*
X028256Y006885D03*
X032216Y006885D03*
X032216Y006385D03*
X032216Y005885D03*
X032216Y005385D03*
X032216Y004885D03*
X032216Y004385D03*
X032216Y003885D03*
X032216Y003385D03*
X032216Y002885D03*
X032216Y002385D03*
X032216Y001885D03*
X032216Y001385D03*
X037256Y001385D03*
X037256Y001885D03*
X037256Y002385D03*
X037256Y002885D03*
X037256Y003385D03*
X037256Y003885D03*
X037256Y004385D03*
X037256Y004885D03*
X037256Y005385D03*
X037256Y005885D03*
X037256Y006385D03*
X037256Y006885D03*
X041216Y006885D03*
X041216Y006385D03*
X041216Y005885D03*
X041216Y005385D03*
X041216Y004885D03*
X041216Y004385D03*
X041216Y003885D03*
X041216Y003385D03*
X041216Y002885D03*
X041216Y002385D03*
X041216Y001885D03*
X041216Y001385D03*
X048756Y001385D03*
X048756Y001885D03*
X048756Y002385D03*
X048756Y002885D03*
X048756Y003385D03*
X048756Y003885D03*
X048756Y004385D03*
X048756Y004885D03*
X048756Y005385D03*
X048756Y005885D03*
X048756Y006385D03*
X048756Y006885D03*
X052716Y006885D03*
X052716Y006385D03*
X052716Y005885D03*
X052716Y005385D03*
X052716Y004885D03*
X052716Y004385D03*
X052716Y003885D03*
X052716Y003385D03*
X052716Y002885D03*
X052716Y002385D03*
X052716Y001885D03*
X052716Y001385D03*
D11*
X046736Y001761D03*
X046736Y002509D03*
X035736Y002509D03*
X035736Y001761D03*
X026236Y001761D03*
X026236Y002509D03*
X013236Y004261D03*
X011236Y004261D03*
X009736Y004261D03*
X009736Y005009D03*
X011236Y005009D03*
X013236Y005009D03*
X042736Y004761D03*
X043736Y004761D03*
X045736Y004761D03*
X046736Y004761D03*
X046736Y005509D03*
X045736Y005509D03*
X043736Y005509D03*
X042736Y005509D03*
X042736Y007761D03*
X043736Y007761D03*
X045736Y007761D03*
X046736Y007761D03*
X046736Y008509D03*
X045736Y008509D03*
X043736Y008509D03*
X042736Y008509D03*
D12*
X006917Y003985D03*
X006129Y003985D03*
X005342Y003985D03*
X004555Y003985D03*
D13*
X003610Y001938D03*
X007862Y001938D03*
D14*
X042736Y003635D03*
X043736Y003635D03*
X044736Y003635D03*
X045736Y003635D03*
X046736Y003635D03*
X053956Y003745D03*
X056516Y003745D03*
X058456Y003745D03*
X061016Y003745D03*
X061016Y005525D03*
X058456Y005525D03*
X056516Y005525D03*
X053956Y005525D03*
X046736Y009635D03*
X045736Y009635D03*
X044736Y009635D03*
X043736Y009635D03*
X042736Y009635D03*
D15*
X013736Y002135D03*
X009736Y002135D03*
D16*
X013036Y002835D02*
X013736Y002135D01*
X013036Y002835D02*
X004636Y002835D01*
X004636Y003935D01*
X004555Y003985D01*
X005342Y003985D02*
X005436Y004035D01*
X005436Y005635D01*
X003036Y005635D01*
X002836Y005835D01*
X002836Y010035D01*
X022536Y010035D01*
X023136Y009435D01*
X022536Y009435D02*
X022336Y009635D01*
X006836Y009635D01*
X003236Y006035D01*
X005136Y006035D02*
X007936Y008835D01*
X017536Y008835D01*
X017936Y009035D02*
X017936Y008635D01*
X019936Y008635D01*
X018336Y009035D02*
X025136Y009035D01*
X026036Y008235D02*
X026986Y007285D01*
X027036Y007335D01*
X037936Y007335D01*
X038036Y007335D01*
X038736Y008035D01*
X040636Y008035D01*
X041036Y008435D01*
X042736Y008509D02*
X042736Y009635D01*
X043736Y009635D02*
X043736Y008509D01*
X044136Y007235D02*
X045136Y008235D01*
X045736Y008509D02*
X045736Y009635D01*
X048636Y009335D02*
X048936Y009035D01*
X052536Y009035D01*
X051736Y009435D02*
X058736Y009435D01*
X059436Y008735D01*
X059436Y002535D01*
X052836Y002535D01*
X052736Y002435D01*
X052716Y002385D01*
X052716Y002885D02*
X052636Y002935D01*
X050736Y002935D01*
X050136Y003535D01*
X050336Y003935D02*
X050936Y003335D01*
X051036Y003335D01*
X051736Y003435D02*
X052636Y003435D01*
X052716Y003385D01*
X053536Y003235D02*
X053636Y003135D01*
X058736Y003135D01*
X059036Y003435D01*
X059036Y005435D01*
X058536Y005435D01*
X058456Y005525D01*
X054836Y005535D02*
X054836Y004335D01*
X057936Y004335D01*
X058436Y003835D01*
X058456Y003745D01*
X054836Y003835D02*
X054036Y003835D01*
X053956Y003745D01*
X054836Y003835D02*
X054836Y004335D01*
X052716Y004385D02*
X052636Y004435D01*
X052236Y004435D01*
X051636Y005035D01*
X052716Y004885D02*
X052736Y004935D01*
X054336Y004935D01*
X054436Y005035D01*
X052716Y005385D02*
X052636Y005435D01*
X051636Y005435D01*
X051636Y006635D01*
X052236Y007235D01*
X057336Y007235D01*
X058836Y008735D01*
X059836Y009135D02*
X059836Y001735D01*
X052836Y001735D01*
X052736Y001835D01*
X052716Y001885D01*
X052536Y001535D02*
X052036Y001535D01*
X052536Y001535D02*
X052636Y001435D01*
X052716Y001385D01*
X049736Y002535D02*
X049236Y002035D01*
X048936Y002035D01*
X048836Y001935D01*
X048756Y001885D01*
X047736Y001835D02*
X047136Y001235D01*
X042236Y001235D01*
X041636Y001835D01*
X041236Y001835D01*
X041216Y001885D01*
X040736Y001435D02*
X040536Y001635D01*
X038336Y001635D01*
X038236Y001535D01*
X036536Y001735D02*
X036536Y001235D01*
X033236Y001235D01*
X032636Y001835D01*
X032236Y001835D01*
X032216Y001885D01*
X031736Y001435D02*
X031536Y001635D01*
X029336Y001635D01*
X029236Y001535D01*
X027536Y001835D02*
X026236Y001835D01*
X026236Y001761D01*
X026236Y002509D02*
X026236Y002535D01*
X027136Y003435D01*
X028936Y003135D02*
X028936Y005135D01*
X028836Y005135D01*
X028636Y005335D01*
X028336Y005335D01*
X028256Y005385D01*
X028236Y005335D01*
X027136Y005335D01*
X028936Y005635D02*
X030136Y004435D01*
X032136Y004435D01*
X032216Y004385D01*
X032136Y004835D02*
X031536Y004835D01*
X032136Y004835D02*
X032216Y004885D01*
X032136Y005335D02*
X029836Y005335D01*
X031536Y005735D02*
X032036Y005735D01*
X032136Y005835D01*
X032216Y005885D01*
X032236Y005935D01*
X032236Y006335D01*
X032216Y006385D01*
X031536Y006235D02*
X031436Y006235D01*
X031236Y006035D01*
X028436Y006035D01*
X028336Y005935D01*
X028256Y005885D01*
X028236Y005935D01*
X025936Y005935D01*
X024036Y007835D01*
X022936Y006535D02*
X021636Y007835D01*
X010836Y007835D01*
X010436Y007435D01*
X010036Y007235D02*
X010036Y008235D01*
X026036Y008235D01*
X026986Y007285D02*
X027836Y006435D01*
X028236Y006435D01*
X028256Y006385D01*
X028256Y006885D02*
X028336Y006935D01*
X030336Y006935D01*
X032136Y006935D01*
X032216Y006885D01*
X032236Y006835D01*
X032636Y006835D01*
X032636Y006935D01*
X037236Y006935D01*
X037256Y006885D01*
X037736Y006535D02*
X037936Y006735D01*
X037936Y007335D01*
X037636Y005935D02*
X039336Y007635D01*
X040936Y007635D01*
X041336Y008035D01*
X042736Y007761D02*
X042736Y007735D01*
X042636Y007635D01*
X042136Y007635D01*
X043236Y007235D02*
X043736Y007735D01*
X043736Y007761D01*
X045736Y007735D02*
X045736Y007761D01*
X045736Y007735D02*
X046136Y007335D01*
X046236Y007335D01*
X046736Y007735D02*
X047136Y007335D01*
X047236Y007335D01*
X047536Y007735D02*
X052736Y007735D01*
X052836Y007635D01*
X051336Y007335D02*
X049936Y005935D01*
X049936Y004335D01*
X050636Y004535D02*
X051736Y003435D01*
X052636Y003935D02*
X052716Y003885D01*
X052636Y003935D02*
X052036Y003935D01*
X051336Y004635D01*
X050336Y003935D02*
X049736Y003935D01*
X049736Y002535D01*
X047336Y003135D02*
X046736Y002535D01*
X046736Y002509D01*
X046636Y002535D01*
X046336Y002835D01*
X041936Y002835D01*
X041216Y002885D02*
X041136Y002935D01*
X039836Y002935D01*
X038836Y003935D01*
X041216Y003885D02*
X041236Y003935D01*
X041836Y003935D01*
X041836Y004735D01*
X042336Y005235D01*
X042536Y005235D01*
X042736Y005435D01*
X042736Y005509D01*
X041936Y005535D02*
X041836Y005435D01*
X041236Y005435D01*
X041216Y005385D01*
X040836Y004935D02*
X040536Y005235D01*
X039736Y005135D02*
X040636Y006035D01*
X040736Y006035D01*
X040536Y006235D01*
X040536Y006735D01*
X041036Y006735D01*
X041136Y006835D01*
X041216Y006885D01*
X042136Y006535D02*
X042436Y006835D01*
X044736Y006835D01*
X044736Y006935D01*
X044836Y006935D02*
X048736Y006935D01*
X048756Y006885D01*
X048836Y006835D01*
X049836Y006835D01*
X048736Y006435D02*
X048636Y006535D01*
X048036Y006535D01*
X048736Y006435D02*
X048756Y006385D01*
X048636Y006035D02*
X046736Y006035D01*
X046236Y006535D01*
X044936Y006535D01*
X044836Y006435D01*
X043936Y006435D01*
X043736Y006035D02*
X043436Y006335D01*
X042436Y006335D01*
X042036Y005935D01*
X041236Y005935D01*
X041216Y005885D01*
X041136Y005935D01*
X041036Y006035D01*
X040736Y006035D01*
X041216Y006385D02*
X041236Y006435D01*
X041336Y006535D01*
X042136Y006535D01*
X044736Y006835D02*
X044836Y006935D01*
X044136Y007235D02*
X043836Y007235D01*
X043236Y007235D02*
X040536Y007235D01*
X039336Y006035D01*
X039336Y004535D01*
X041036Y004535D01*
X041136Y004435D01*
X041216Y004385D01*
X042736Y004761D02*
X042736Y003635D01*
X041936Y003535D02*
X041836Y003435D01*
X041236Y003435D01*
X041216Y003385D01*
X040036Y003335D02*
X038036Y005335D01*
X037336Y005335D01*
X037256Y005385D01*
X037236Y005335D01*
X036636Y005335D01*
X036636Y002535D01*
X036136Y002035D01*
X035936Y002035D01*
X035736Y001835D01*
X035736Y001761D01*
X035636Y001835D01*
X035436Y002035D01*
X033036Y002035D01*
X033136Y002435D02*
X032236Y002435D01*
X032216Y002385D01*
X033136Y002435D02*
X034236Y003535D01*
X033436Y003635D02*
X032736Y002935D01*
X032236Y002935D01*
X032216Y002885D01*
X031136Y002035D02*
X030536Y002635D01*
X029436Y002635D01*
X028936Y003135D01*
X029836Y003035D02*
X030336Y003535D01*
X031036Y003535D01*
X032216Y003385D02*
X032236Y003435D01*
X032636Y003435D01*
X032936Y003735D01*
X032216Y003885D02*
X032136Y003935D01*
X030036Y003935D01*
X029436Y004535D01*
X027536Y004935D02*
X024936Y004935D01*
X023936Y005935D01*
X022536Y006335D02*
X021636Y005435D01*
X019236Y005435D01*
X019216Y005385D01*
X018836Y004935D02*
X018536Y005235D01*
X018836Y004935D02*
X019136Y004935D01*
X019216Y004885D01*
X019736Y004435D02*
X020336Y005035D01*
X019736Y004435D02*
X019236Y004435D01*
X019216Y004385D01*
X019236Y003935D02*
X019216Y003885D01*
X019236Y003935D02*
X022936Y003935D01*
X022936Y006535D01*
X019236Y006435D02*
X019216Y006385D01*
X019236Y006335D01*
X019236Y005935D01*
X019216Y005885D01*
X019136Y005835D01*
X019036Y005735D01*
X018336Y005735D01*
X017436Y007035D02*
X015936Y005535D01*
X015436Y005535D01*
X015336Y005435D01*
X015256Y005385D01*
X015236Y005335D01*
X014836Y005335D01*
X014036Y004535D01*
X013436Y004535D01*
X013236Y004335D01*
X013236Y004261D01*
X011836Y004735D02*
X011436Y004335D01*
X011336Y004335D01*
X011236Y004261D01*
X011236Y004335D01*
X010636Y004335D01*
X009736Y004335D01*
X009736Y004261D01*
X009636Y004235D01*
X007136Y004235D01*
X006936Y004035D01*
X006917Y003985D01*
X006136Y004035D02*
X006129Y003985D01*
X006136Y004035D02*
X006136Y004635D01*
X006636Y005135D01*
X009636Y005135D01*
X009736Y005035D01*
X009736Y005009D01*
X009836Y005035D01*
X010136Y005335D01*
X010336Y005335D01*
X011236Y005035D02*
X011236Y005009D01*
X011236Y005035D02*
X011886Y005685D01*
X011836Y005735D01*
X005436Y005735D01*
X005436Y005635D01*
X010436Y006135D02*
X010736Y006435D01*
X010736Y006535D01*
X010036Y007235D01*
X013036Y007435D02*
X017636Y007435D01*
X017936Y007135D01*
X017936Y003435D01*
X019136Y003435D01*
X019216Y003385D01*
X019136Y002935D02*
X017236Y002935D01*
X019136Y002935D02*
X019216Y002885D01*
X017836Y002435D02*
X017736Y002535D01*
X017836Y002435D02*
X019136Y002435D01*
X019216Y002385D01*
X019636Y001935D02*
X019936Y002235D01*
X019636Y001935D02*
X019236Y001935D01*
X019216Y001885D01*
X019036Y001535D02*
X018236Y001535D01*
X019036Y001535D02*
X019136Y001435D01*
X019216Y001385D01*
X031736Y001435D02*
X032136Y001435D01*
X032216Y001385D01*
X035736Y002509D02*
X035736Y005535D01*
X033936Y005535D01*
X032636Y006835D01*
X034936Y006535D02*
X035536Y005935D01*
X037236Y005935D01*
X037256Y005885D01*
X037336Y005935D01*
X037636Y005935D01*
X037336Y006435D02*
X037256Y006385D01*
X037336Y006435D02*
X037436Y006535D01*
X037736Y006535D01*
X043236Y005935D02*
X043336Y005935D01*
X043736Y005535D01*
X043736Y005509D01*
X044436Y005635D02*
X045636Y005635D01*
X045736Y005535D01*
X045736Y005509D01*
X046336Y005935D02*
X046736Y005535D01*
X046736Y005509D01*
X046336Y005935D02*
X046236Y005935D01*
X045236Y006135D02*
X045136Y006035D01*
X043736Y006035D01*
X047436Y004535D02*
X048236Y005335D01*
X048736Y005335D01*
X048756Y005385D01*
X048756Y005885D02*
X048736Y005935D01*
X048636Y006035D01*
X052036Y006235D02*
X052536Y006235D01*
X052636Y006335D01*
X052716Y006385D01*
X052736Y006435D01*
X052736Y006535D01*
X054936Y006535D01*
X052736Y006535D02*
X052736Y006835D01*
X052716Y006885D01*
X053636Y006035D02*
X053736Y006135D01*
X054236Y006135D01*
X054836Y005535D01*
X052836Y006035D02*
X052736Y005935D01*
X052716Y005885D01*
X052836Y006035D02*
X053636Y006035D01*
X046736Y004761D02*
X046736Y004535D01*
X046636Y004435D01*
X046636Y003635D01*
X046736Y003635D01*
X047036Y004235D02*
X047736Y003535D01*
X047736Y001835D01*
X046736Y001835D02*
X046736Y001761D01*
X046736Y001835D02*
X046636Y001935D01*
X045036Y001935D01*
X045136Y002435D02*
X041236Y002435D01*
X041216Y002385D01*
X040036Y002235D02*
X038536Y002235D01*
X037936Y002935D02*
X039236Y002935D01*
X037936Y003535D02*
X037936Y004735D01*
X040836Y004935D02*
X041136Y004935D01*
X041216Y004885D01*
X043736Y004761D02*
X043736Y003635D01*
X044336Y004235D02*
X046136Y004235D01*
X045636Y004635D02*
X045736Y004735D01*
X045736Y004761D01*
X045636Y004635D02*
X045136Y004635D01*
X032216Y005385D02*
X032136Y005335D01*
X019236Y006435D02*
X019236Y006835D01*
X019216Y006885D01*
X015936Y007035D02*
X015436Y007035D01*
X015336Y006935D01*
X015256Y006885D01*
X015136Y006535D02*
X010736Y006535D01*
X011886Y005685D02*
X012036Y005835D01*
X015236Y005835D01*
X015256Y005885D01*
X015256Y006385D02*
X015236Y006435D01*
X015136Y006535D01*
X013236Y005009D02*
X013236Y004935D01*
X013036Y004735D01*
X011836Y004735D01*
X017736Y009235D02*
X017936Y009035D01*
X017736Y009235D02*
X008436Y009235D01*
X046136Y009035D02*
X048136Y009035D01*
X046936Y008235D02*
X046736Y008435D01*
X046736Y008509D01*
X046936Y008235D02*
X047636Y008235D01*
X046736Y007761D02*
X046736Y007735D01*
X051536Y009635D02*
X051736Y009435D01*
X050436Y010035D02*
X050136Y009735D01*
X050436Y010035D02*
X058936Y010035D01*
X059836Y009135D01*
X048736Y001435D02*
X048636Y001535D01*
X048036Y001535D01*
X048736Y001435D02*
X048756Y001385D01*
X041216Y001385D02*
X041136Y001435D01*
X040736Y001435D01*
D17*
X040536Y001635D03*
X038236Y001535D03*
X036536Y001735D03*
X038536Y002235D03*
X040036Y002235D03*
X041936Y002835D03*
X040036Y003335D03*
X039236Y002935D03*
X037936Y002935D03*
X037936Y003535D03*
X038836Y003935D03*
X041936Y003535D03*
X044336Y004235D03*
X046136Y004235D03*
X047036Y004235D03*
X047436Y004535D03*
X045136Y004635D03*
X049936Y004335D03*
X050636Y004535D03*
X051336Y004635D03*
X051636Y005035D03*
X054436Y005035D03*
X052036Y006235D03*
X054936Y006535D03*
X051336Y007335D03*
X052836Y007635D03*
X049836Y006835D03*
X048036Y006535D03*
X045236Y006135D03*
X046236Y005935D03*
X044436Y005635D03*
X043236Y005935D03*
X041936Y005535D03*
X040536Y005235D03*
X039736Y005135D03*
X037936Y004735D03*
X032936Y003735D03*
X033436Y003635D03*
X034236Y003535D03*
X031036Y003535D03*
X029836Y003035D03*
X027136Y003435D03*
X029436Y004535D03*
X027536Y004935D03*
X027136Y005335D03*
X028936Y005635D03*
X029836Y005335D03*
X031536Y005735D03*
X031536Y006235D03*
X034936Y006535D03*
X030336Y006935D03*
X024036Y007835D03*
X019936Y008635D03*
X017536Y008835D03*
X018336Y009035D03*
X022536Y009435D03*
X023136Y009435D03*
X025136Y009035D03*
X017436Y007035D03*
X015936Y007035D03*
X013036Y007435D03*
X010436Y007435D03*
X010436Y006135D03*
X010336Y005335D03*
X005136Y006035D03*
X003236Y006035D03*
X010636Y004335D03*
X017236Y002935D03*
X017736Y002535D03*
X019936Y002235D03*
X018236Y001535D03*
X027536Y001835D03*
X029236Y001535D03*
X031536Y001635D03*
X031136Y002035D03*
X033036Y002035D03*
X045036Y001935D03*
X045136Y002435D03*
X047336Y003135D03*
X050136Y003535D03*
X051036Y003335D03*
X053536Y003235D03*
X052036Y001535D03*
X048036Y001535D03*
X031536Y004835D03*
X023936Y005935D03*
X022536Y006335D03*
X018336Y005735D03*
X018536Y005235D03*
X020336Y005035D03*
X041036Y008435D03*
X041336Y008035D03*
X042136Y007635D03*
X043836Y007235D03*
X044736Y006935D03*
X043936Y006435D03*
X046236Y007335D03*
X047236Y007335D03*
X047536Y007735D03*
X047636Y008235D03*
X045136Y008235D03*
X046136Y009035D03*
X048136Y009035D03*
X048636Y009335D03*
X050136Y009735D03*
X051536Y009635D03*
X052536Y009035D03*
X058836Y008735D03*
X008436Y009235D03*
M02*
