G75*
G70*
%OFA0B0*%
%FSLAX24Y24*%
%IPPOS*%
%LPD*%
%AMOC8*
5,1,8,0,0,1.08239X$1,22.5*
%
%ADD10C,0.0000*%
%ADD11R,0.0591X0.0591*%
%ADD12R,0.0591X0.0512*%
%ADD13C,0.0740*%
%ADD14R,0.0512X0.0591*%
%ADD15R,0.0512X0.0630*%
%ADD16OC8,0.0600*%
%ADD17C,0.0250*%
%ADD18C,0.0360*%
D10*
X000236Y000635D02*
X000236Y010635D01*
X062236Y010635D01*
X062236Y000635D01*
X000236Y000635D01*
X000586Y001635D02*
X000588Y001685D01*
X000594Y001735D01*
X000604Y001785D01*
X000617Y001833D01*
X000634Y001881D01*
X000655Y001927D01*
X000679Y001971D01*
X000707Y002013D01*
X000738Y002053D01*
X000772Y002090D01*
X000809Y002125D01*
X000848Y002156D01*
X000889Y002185D01*
X000933Y002210D01*
X000979Y002232D01*
X001026Y002250D01*
X001074Y002264D01*
X001123Y002275D01*
X001173Y002282D01*
X001223Y002285D01*
X001274Y002284D01*
X001324Y002279D01*
X001374Y002270D01*
X001422Y002258D01*
X001470Y002241D01*
X001516Y002221D01*
X001561Y002198D01*
X001604Y002171D01*
X001644Y002141D01*
X001682Y002108D01*
X001717Y002072D01*
X001750Y002033D01*
X001779Y001992D01*
X001805Y001949D01*
X001828Y001904D01*
X001847Y001857D01*
X001862Y001809D01*
X001874Y001760D01*
X001882Y001710D01*
X001886Y001660D01*
X001886Y001610D01*
X001882Y001560D01*
X001874Y001510D01*
X001862Y001461D01*
X001847Y001413D01*
X001828Y001366D01*
X001805Y001321D01*
X001779Y001278D01*
X001750Y001237D01*
X001717Y001198D01*
X001682Y001162D01*
X001644Y001129D01*
X001604Y001099D01*
X001561Y001072D01*
X001516Y001049D01*
X001470Y001029D01*
X001422Y001012D01*
X001374Y001000D01*
X001324Y000991D01*
X001274Y000986D01*
X001223Y000985D01*
X001173Y000988D01*
X001123Y000995D01*
X001074Y001006D01*
X001026Y001020D01*
X000979Y001038D01*
X000933Y001060D01*
X000889Y001085D01*
X000848Y001114D01*
X000809Y001145D01*
X000772Y001180D01*
X000738Y001217D01*
X000707Y001257D01*
X000679Y001299D01*
X000655Y001343D01*
X000634Y001389D01*
X000617Y001437D01*
X000604Y001485D01*
X000594Y001535D01*
X000588Y001585D01*
X000586Y001635D01*
X000586Y009635D02*
X000588Y009685D01*
X000594Y009735D01*
X000604Y009785D01*
X000617Y009833D01*
X000634Y009881D01*
X000655Y009927D01*
X000679Y009971D01*
X000707Y010013D01*
X000738Y010053D01*
X000772Y010090D01*
X000809Y010125D01*
X000848Y010156D01*
X000889Y010185D01*
X000933Y010210D01*
X000979Y010232D01*
X001026Y010250D01*
X001074Y010264D01*
X001123Y010275D01*
X001173Y010282D01*
X001223Y010285D01*
X001274Y010284D01*
X001324Y010279D01*
X001374Y010270D01*
X001422Y010258D01*
X001470Y010241D01*
X001516Y010221D01*
X001561Y010198D01*
X001604Y010171D01*
X001644Y010141D01*
X001682Y010108D01*
X001717Y010072D01*
X001750Y010033D01*
X001779Y009992D01*
X001805Y009949D01*
X001828Y009904D01*
X001847Y009857D01*
X001862Y009809D01*
X001874Y009760D01*
X001882Y009710D01*
X001886Y009660D01*
X001886Y009610D01*
X001882Y009560D01*
X001874Y009510D01*
X001862Y009461D01*
X001847Y009413D01*
X001828Y009366D01*
X001805Y009321D01*
X001779Y009278D01*
X001750Y009237D01*
X001717Y009198D01*
X001682Y009162D01*
X001644Y009129D01*
X001604Y009099D01*
X001561Y009072D01*
X001516Y009049D01*
X001470Y009029D01*
X001422Y009012D01*
X001374Y009000D01*
X001324Y008991D01*
X001274Y008986D01*
X001223Y008985D01*
X001173Y008988D01*
X001123Y008995D01*
X001074Y009006D01*
X001026Y009020D01*
X000979Y009038D01*
X000933Y009060D01*
X000889Y009085D01*
X000848Y009114D01*
X000809Y009145D01*
X000772Y009180D01*
X000738Y009217D01*
X000707Y009257D01*
X000679Y009299D01*
X000655Y009343D01*
X000634Y009389D01*
X000617Y009437D01*
X000604Y009485D01*
X000594Y009535D01*
X000588Y009585D01*
X000586Y009635D01*
X030586Y009635D02*
X030588Y009685D01*
X030594Y009735D01*
X030604Y009785D01*
X030617Y009833D01*
X030634Y009881D01*
X030655Y009927D01*
X030679Y009971D01*
X030707Y010013D01*
X030738Y010053D01*
X030772Y010090D01*
X030809Y010125D01*
X030848Y010156D01*
X030889Y010185D01*
X030933Y010210D01*
X030979Y010232D01*
X031026Y010250D01*
X031074Y010264D01*
X031123Y010275D01*
X031173Y010282D01*
X031223Y010285D01*
X031274Y010284D01*
X031324Y010279D01*
X031374Y010270D01*
X031422Y010258D01*
X031470Y010241D01*
X031516Y010221D01*
X031561Y010198D01*
X031604Y010171D01*
X031644Y010141D01*
X031682Y010108D01*
X031717Y010072D01*
X031750Y010033D01*
X031779Y009992D01*
X031805Y009949D01*
X031828Y009904D01*
X031847Y009857D01*
X031862Y009809D01*
X031874Y009760D01*
X031882Y009710D01*
X031886Y009660D01*
X031886Y009610D01*
X031882Y009560D01*
X031874Y009510D01*
X031862Y009461D01*
X031847Y009413D01*
X031828Y009366D01*
X031805Y009321D01*
X031779Y009278D01*
X031750Y009237D01*
X031717Y009198D01*
X031682Y009162D01*
X031644Y009129D01*
X031604Y009099D01*
X031561Y009072D01*
X031516Y009049D01*
X031470Y009029D01*
X031422Y009012D01*
X031374Y009000D01*
X031324Y008991D01*
X031274Y008986D01*
X031223Y008985D01*
X031173Y008988D01*
X031123Y008995D01*
X031074Y009006D01*
X031026Y009020D01*
X030979Y009038D01*
X030933Y009060D01*
X030889Y009085D01*
X030848Y009114D01*
X030809Y009145D01*
X030772Y009180D01*
X030738Y009217D01*
X030707Y009257D01*
X030679Y009299D01*
X030655Y009343D01*
X030634Y009389D01*
X030617Y009437D01*
X030604Y009485D01*
X030594Y009535D01*
X030588Y009585D01*
X030586Y009635D01*
X060586Y009635D02*
X060588Y009685D01*
X060594Y009735D01*
X060604Y009785D01*
X060617Y009833D01*
X060634Y009881D01*
X060655Y009927D01*
X060679Y009971D01*
X060707Y010013D01*
X060738Y010053D01*
X060772Y010090D01*
X060809Y010125D01*
X060848Y010156D01*
X060889Y010185D01*
X060933Y010210D01*
X060979Y010232D01*
X061026Y010250D01*
X061074Y010264D01*
X061123Y010275D01*
X061173Y010282D01*
X061223Y010285D01*
X061274Y010284D01*
X061324Y010279D01*
X061374Y010270D01*
X061422Y010258D01*
X061470Y010241D01*
X061516Y010221D01*
X061561Y010198D01*
X061604Y010171D01*
X061644Y010141D01*
X061682Y010108D01*
X061717Y010072D01*
X061750Y010033D01*
X061779Y009992D01*
X061805Y009949D01*
X061828Y009904D01*
X061847Y009857D01*
X061862Y009809D01*
X061874Y009760D01*
X061882Y009710D01*
X061886Y009660D01*
X061886Y009610D01*
X061882Y009560D01*
X061874Y009510D01*
X061862Y009461D01*
X061847Y009413D01*
X061828Y009366D01*
X061805Y009321D01*
X061779Y009278D01*
X061750Y009237D01*
X061717Y009198D01*
X061682Y009162D01*
X061644Y009129D01*
X061604Y009099D01*
X061561Y009072D01*
X061516Y009049D01*
X061470Y009029D01*
X061422Y009012D01*
X061374Y009000D01*
X061324Y008991D01*
X061274Y008986D01*
X061223Y008985D01*
X061173Y008988D01*
X061123Y008995D01*
X061074Y009006D01*
X061026Y009020D01*
X060979Y009038D01*
X060933Y009060D01*
X060889Y009085D01*
X060848Y009114D01*
X060809Y009145D01*
X060772Y009180D01*
X060738Y009217D01*
X060707Y009257D01*
X060679Y009299D01*
X060655Y009343D01*
X060634Y009389D01*
X060617Y009437D01*
X060604Y009485D01*
X060594Y009535D01*
X060588Y009585D01*
X060586Y009635D01*
X060586Y001635D02*
X060588Y001685D01*
X060594Y001735D01*
X060604Y001785D01*
X060617Y001833D01*
X060634Y001881D01*
X060655Y001927D01*
X060679Y001971D01*
X060707Y002013D01*
X060738Y002053D01*
X060772Y002090D01*
X060809Y002125D01*
X060848Y002156D01*
X060889Y002185D01*
X060933Y002210D01*
X060979Y002232D01*
X061026Y002250D01*
X061074Y002264D01*
X061123Y002275D01*
X061173Y002282D01*
X061223Y002285D01*
X061274Y002284D01*
X061324Y002279D01*
X061374Y002270D01*
X061422Y002258D01*
X061470Y002241D01*
X061516Y002221D01*
X061561Y002198D01*
X061604Y002171D01*
X061644Y002141D01*
X061682Y002108D01*
X061717Y002072D01*
X061750Y002033D01*
X061779Y001992D01*
X061805Y001949D01*
X061828Y001904D01*
X061847Y001857D01*
X061862Y001809D01*
X061874Y001760D01*
X061882Y001710D01*
X061886Y001660D01*
X061886Y001610D01*
X061882Y001560D01*
X061874Y001510D01*
X061862Y001461D01*
X061847Y001413D01*
X061828Y001366D01*
X061805Y001321D01*
X061779Y001278D01*
X061750Y001237D01*
X061717Y001198D01*
X061682Y001162D01*
X061644Y001129D01*
X061604Y001099D01*
X061561Y001072D01*
X061516Y001049D01*
X061470Y001029D01*
X061422Y001012D01*
X061374Y001000D01*
X061324Y000991D01*
X061274Y000986D01*
X061223Y000985D01*
X061173Y000988D01*
X061123Y000995D01*
X061074Y001006D01*
X061026Y001020D01*
X060979Y001038D01*
X060933Y001060D01*
X060889Y001085D01*
X060848Y001114D01*
X060809Y001145D01*
X060772Y001180D01*
X060738Y001217D01*
X060707Y001257D01*
X060679Y001299D01*
X060655Y001343D01*
X060634Y001389D01*
X060617Y001437D01*
X060604Y001485D01*
X060594Y001535D01*
X060588Y001585D01*
X060586Y001635D01*
D11*
X052236Y003946D03*
X050736Y003946D03*
X049236Y003946D03*
X049236Y005324D03*
X050736Y005324D03*
X052236Y005324D03*
X055236Y007446D03*
X059736Y007446D03*
X059736Y008824D03*
X055236Y008824D03*
X052236Y008446D03*
X050736Y008446D03*
X049236Y008446D03*
X049236Y009824D03*
X050736Y009824D03*
X052236Y009824D03*
X040106Y007324D03*
X037514Y007324D03*
X034923Y007324D03*
X032332Y007324D03*
X029740Y007324D03*
X027149Y007324D03*
X024558Y007324D03*
X021966Y007324D03*
X019375Y007324D03*
X016784Y007324D03*
X014192Y007324D03*
X011601Y007324D03*
X009010Y007324D03*
X006418Y007324D03*
X003827Y007324D03*
X001236Y007324D03*
X001236Y005946D03*
X003827Y005946D03*
X006418Y005946D03*
X009010Y005946D03*
X011601Y005946D03*
X014192Y005946D03*
X016784Y005946D03*
X019375Y005946D03*
X021966Y005946D03*
X024558Y005946D03*
X027149Y005946D03*
X029740Y005946D03*
X032332Y005946D03*
X034923Y005946D03*
X037514Y005946D03*
X040106Y005946D03*
D12*
X049236Y006761D03*
X050736Y006761D03*
X052236Y006761D03*
X052236Y007509D03*
X050736Y007509D03*
X049236Y007509D03*
X056736Y007761D03*
X058236Y007761D03*
X058236Y008509D03*
X056736Y008509D03*
X040106Y008761D03*
X037514Y008761D03*
X034923Y008761D03*
X033332Y008761D03*
X033332Y009509D03*
X034923Y009509D03*
X037514Y009509D03*
X040106Y009509D03*
X029240Y009509D03*
X027149Y009509D03*
X024558Y009509D03*
X021966Y009509D03*
X019375Y009509D03*
X016784Y009509D03*
X014192Y009509D03*
X011601Y009509D03*
X009010Y009509D03*
X006418Y009509D03*
X004827Y009509D03*
X003236Y009509D03*
X003236Y008761D03*
X004827Y008761D03*
X006418Y008761D03*
X009010Y008761D03*
X011601Y008761D03*
X014192Y008761D03*
X016784Y008761D03*
X019375Y008761D03*
X021966Y008761D03*
X024558Y008761D03*
X027149Y008761D03*
X029240Y008761D03*
X049236Y003009D03*
X052236Y003009D03*
X052236Y002261D03*
X049236Y002261D03*
D13*
X046736Y003635D03*
X045736Y003635D03*
X044736Y003635D03*
X043736Y003635D03*
X042736Y003635D03*
X053956Y003745D03*
X056516Y003745D03*
X058456Y003745D03*
X061016Y003745D03*
X061016Y005525D03*
X058456Y005525D03*
X056516Y005525D03*
X053956Y005525D03*
X046736Y009635D03*
X045736Y009635D03*
X044736Y009635D03*
X043736Y009635D03*
X042736Y009635D03*
D14*
X050362Y002635D03*
X051110Y002635D03*
X054862Y002135D03*
X055610Y002135D03*
X057362Y002135D03*
X058110Y002135D03*
D15*
X051129Y001635D03*
X050342Y001635D03*
X039629Y001635D03*
X038842Y001635D03*
X030629Y001635D03*
X029842Y001635D03*
X017629Y001635D03*
X016842Y001635D03*
D16*
X013736Y002135D03*
X009736Y002135D03*
D17*
X009736Y002235D01*
X010836Y003335D01*
X010836Y004335D01*
X010636Y004335D01*
X010836Y004335D02*
X010836Y009535D01*
X009036Y009535D01*
X009010Y009509D01*
X009036Y009635D01*
X008236Y009635D01*
X008136Y009535D01*
X006536Y009535D01*
X006418Y009509D01*
X006336Y009535D01*
X004936Y009535D01*
X004827Y009509D01*
X004736Y009535D01*
X003236Y009535D01*
X003236Y009509D01*
X003236Y008761D02*
X003236Y007335D01*
X001236Y007335D01*
X001236Y007324D01*
X003827Y007324D02*
X003836Y007335D01*
X004736Y008235D01*
X004736Y008735D01*
X004827Y008761D01*
X006418Y008761D02*
X006436Y008735D01*
X006436Y007335D01*
X006418Y007324D01*
X009010Y007324D02*
X009036Y007335D01*
X009036Y008735D01*
X009010Y008761D01*
X008436Y009235D02*
X008436Y008035D01*
X006436Y006035D01*
X006418Y005946D01*
X005136Y006035D02*
X003836Y006035D01*
X003827Y005946D01*
X003236Y006035D02*
X001236Y006035D01*
X001236Y005946D01*
X009010Y005946D02*
X009036Y006035D01*
X010436Y007435D01*
X011601Y007324D02*
X011636Y007335D01*
X011636Y008735D01*
X011601Y008761D01*
X014192Y008761D02*
X014236Y008735D01*
X014236Y007335D01*
X014192Y007324D01*
X013036Y007435D02*
X011636Y006035D01*
X011601Y005946D01*
X010436Y006135D02*
X010436Y005435D01*
X010336Y005335D01*
X014192Y005946D02*
X014236Y005935D01*
X017236Y002935D01*
X017736Y002535D02*
X017736Y005035D01*
X016836Y005935D01*
X016784Y005946D01*
X018136Y005535D02*
X018336Y005735D01*
X018136Y005535D02*
X018136Y001635D01*
X018236Y001535D01*
X027236Y001535D01*
X027336Y001435D01*
X029236Y001435D01*
X029236Y001535D01*
X029836Y001635D02*
X029842Y001635D01*
X029836Y001635D02*
X029836Y001935D01*
X029836Y002035D01*
X030236Y002435D01*
X030236Y005535D01*
X030336Y005635D01*
X030336Y006935D01*
X030336Y007135D01*
X030436Y007135D01*
X032436Y009135D01*
X032436Y009435D01*
X033236Y009435D01*
X033332Y009509D01*
X033336Y009535D01*
X034836Y009535D01*
X034923Y009509D01*
X035036Y009535D01*
X037436Y009535D01*
X037514Y009509D01*
X037636Y009535D01*
X038436Y009535D01*
X038436Y002235D01*
X038536Y002235D01*
X038436Y002235D02*
X038436Y002035D01*
X038836Y001635D01*
X038842Y001635D01*
X038236Y001535D02*
X038236Y001335D01*
X036336Y001335D01*
X036136Y001535D01*
X036136Y001635D01*
X031536Y001635D01*
X030629Y001635D01*
X030636Y001735D01*
X030636Y004835D01*
X031536Y005735D01*
X032332Y005946D02*
X032336Y005935D01*
X032936Y005335D01*
X032936Y003735D01*
X033436Y003635D02*
X033436Y004535D01*
X034836Y005935D01*
X034923Y005946D01*
X034936Y006535D02*
X032036Y006535D01*
X031736Y006235D01*
X031536Y006235D01*
X029740Y005946D02*
X029736Y005935D01*
X029436Y005635D01*
X029436Y004535D01*
X029036Y003435D02*
X027536Y004935D01*
X027136Y005135D02*
X027036Y005135D01*
X026636Y005535D01*
X026636Y007535D01*
X025136Y009035D01*
X024636Y008735D02*
X024558Y008761D01*
X024636Y008735D02*
X024636Y007335D01*
X024558Y007324D01*
X024036Y007835D02*
X024036Y008535D01*
X023136Y009435D01*
X022536Y009435D02*
X022536Y006335D01*
X022036Y005935D02*
X021966Y005946D01*
X022036Y005935D02*
X023936Y005935D01*
X024558Y005946D02*
X024636Y005935D01*
X026736Y003835D01*
X026736Y003235D01*
X026936Y003035D01*
X029836Y003035D01*
X029836Y003435D02*
X029036Y003435D01*
X029836Y003435D02*
X029836Y005335D01*
X028936Y005635D02*
X028936Y005935D01*
X027236Y005935D01*
X027149Y005946D01*
X027136Y005335D02*
X027136Y005135D01*
X027136Y003435D01*
X031036Y003535D02*
X031536Y004035D01*
X031536Y004835D01*
X037514Y005946D02*
X037536Y005935D01*
X037936Y005535D01*
X037936Y004735D01*
X039636Y005035D02*
X039736Y005135D01*
X039636Y005035D02*
X039636Y001735D01*
X039629Y001635D01*
X040536Y001635D01*
X040036Y002235D02*
X044736Y002235D01*
X044736Y003635D01*
X044736Y004835D01*
X044836Y004935D01*
X044836Y006735D01*
X044736Y006835D01*
X044736Y006935D01*
X044736Y009635D01*
X046736Y009635D02*
X046936Y009635D01*
X047736Y008835D01*
X047736Y008335D01*
X047636Y008235D01*
X049236Y008446D02*
X049236Y007509D01*
X047536Y007735D02*
X045236Y007735D01*
X045236Y006135D01*
X046136Y005835D02*
X046136Y004235D01*
X045736Y004035D02*
X045736Y003635D01*
X045736Y004035D02*
X045136Y004635D01*
X044336Y004235D02*
X043636Y004935D01*
X043636Y006135D01*
X043436Y006335D01*
X041936Y006335D01*
X041936Y005535D01*
X040636Y005335D02*
X040536Y005235D01*
X040636Y005335D02*
X040636Y006135D01*
X042136Y007635D01*
X042336Y008035D02*
X041336Y008035D01*
X042336Y008035D02*
X043936Y006435D01*
X044236Y006835D02*
X044436Y006635D01*
X044436Y005635D01*
X043236Y005935D02*
X041936Y004635D01*
X041936Y003535D01*
X040036Y003335D02*
X040036Y002835D01*
X041936Y002835D01*
X039236Y002935D02*
X039236Y005935D01*
X040036Y005935D01*
X040106Y005946D01*
X040236Y006535D02*
X038836Y006535D01*
X038836Y003935D01*
X037936Y003535D02*
X034236Y003535D01*
X036536Y002935D02*
X036536Y001735D01*
X033036Y002035D02*
X031136Y002035D01*
X029836Y001935D02*
X029036Y001935D01*
X028936Y001835D01*
X027536Y001835D01*
X019936Y002235D02*
X019936Y005435D01*
X019436Y005935D01*
X019375Y005946D01*
X018736Y005435D02*
X018536Y005235D01*
X018736Y005435D02*
X018736Y009435D01*
X018136Y009435D01*
X017536Y008835D01*
X016836Y008735D02*
X016784Y008761D01*
X016836Y008735D02*
X016836Y007335D01*
X016784Y007324D01*
X017436Y007035D02*
X018336Y007935D01*
X018336Y009035D01*
X019375Y008761D02*
X019436Y008735D01*
X019436Y007335D01*
X019375Y007324D01*
X021966Y007324D02*
X022036Y007335D01*
X022036Y008735D01*
X021966Y008761D01*
X020336Y008235D02*
X019936Y008635D01*
X020336Y008235D02*
X020336Y005035D01*
X015936Y007035D02*
X015936Y009535D01*
X014236Y009535D01*
X014192Y009509D01*
X014136Y009535D01*
X011636Y009535D01*
X011601Y009509D01*
X011536Y009535D01*
X010836Y009535D01*
X015936Y009535D02*
X016736Y009535D01*
X016784Y009509D01*
X016836Y009535D01*
X017736Y009535D01*
X018036Y009835D01*
X019436Y009835D01*
X019436Y009635D01*
X019375Y009509D01*
X019436Y009535D01*
X021936Y009535D01*
X021966Y009509D01*
X022036Y009535D01*
X022336Y009835D01*
X024436Y009835D01*
X024436Y009535D01*
X024558Y009509D01*
X024636Y009535D01*
X027136Y009535D01*
X027149Y009509D01*
X027236Y009535D01*
X029236Y009535D01*
X029240Y009509D01*
X029336Y009535D01*
X030336Y008535D01*
X030336Y007135D01*
X029740Y007324D02*
X029736Y007335D01*
X029336Y007735D01*
X029336Y008735D01*
X029240Y008761D01*
X027236Y008735D02*
X027149Y008761D01*
X027236Y008735D02*
X027236Y007335D01*
X027149Y007324D01*
X032332Y007324D02*
X032336Y007335D01*
X033236Y008235D01*
X033236Y008735D01*
X033332Y008761D01*
X034923Y008761D02*
X034936Y008735D01*
X034936Y007335D01*
X034923Y007324D01*
X037514Y007324D02*
X037536Y007335D01*
X037536Y008735D01*
X037514Y008761D01*
X040106Y008761D02*
X040136Y008735D01*
X040136Y007335D01*
X040106Y007324D01*
X040636Y006935D02*
X040236Y006535D01*
X040636Y006935D02*
X040636Y008835D01*
X042836Y008835D01*
X044236Y007435D01*
X044236Y006835D01*
X043836Y007235D02*
X043636Y007235D01*
X042436Y008435D01*
X041036Y008435D01*
X045136Y008235D02*
X045136Y009035D01*
X046136Y009035D01*
X048136Y009035D02*
X048136Y006635D01*
X048036Y006535D01*
X048236Y006135D02*
X048636Y006535D01*
X048636Y009335D01*
X049236Y009735D02*
X049236Y009824D01*
X049236Y009735D02*
X050136Y009735D01*
X050736Y009735D02*
X050736Y009824D01*
X050736Y009735D02*
X051536Y009735D01*
X051536Y009635D01*
X052236Y009735D02*
X052236Y009824D01*
X052236Y009735D02*
X051336Y008835D01*
X051336Y007335D01*
X050736Y007509D02*
X050736Y008446D01*
X052236Y008446D02*
X052236Y007509D01*
X052836Y007635D02*
X052836Y004935D01*
X053936Y003835D01*
X053956Y003745D01*
X053936Y003735D01*
X053936Y001635D01*
X052036Y001635D01*
X052036Y001535D01*
X052036Y001635D02*
X051129Y001635D01*
X050836Y002235D02*
X050336Y001735D01*
X050342Y001635D01*
X049836Y001635D01*
X049236Y002235D01*
X049236Y002261D01*
X049136Y002335D01*
X048636Y002335D01*
X048636Y006035D01*
X049136Y006535D01*
X049136Y006735D01*
X049236Y006761D01*
X049236Y006835D01*
X049836Y006835D01*
X050736Y006835D01*
X050736Y006761D01*
X050836Y006835D01*
X052236Y006835D01*
X052236Y006761D01*
X052036Y006735D01*
X052036Y006235D01*
X054936Y006535D02*
X057436Y006535D01*
X057436Y008535D01*
X056736Y008535D01*
X056736Y008509D01*
X057436Y008535D02*
X058236Y008535D01*
X058236Y008509D01*
X058836Y008735D02*
X059736Y008735D01*
X059736Y008824D01*
X055236Y008735D02*
X055236Y008824D01*
X055236Y008735D02*
X054536Y008035D01*
X054536Y005135D01*
X054436Y005035D01*
X054036Y004835D02*
X054036Y005435D01*
X053956Y005525D01*
X053936Y005635D01*
X053936Y007635D01*
X052536Y009035D01*
X056736Y007761D02*
X056736Y007535D01*
X055236Y007535D01*
X055236Y007446D01*
X058236Y007735D02*
X058236Y007761D01*
X058236Y007735D02*
X059736Y007735D01*
X059736Y007446D01*
X057436Y006535D02*
X057436Y002235D01*
X057362Y002135D01*
X055610Y002135D01*
X054862Y002135D02*
X054836Y002135D01*
X054536Y002435D01*
X054536Y004335D01*
X054036Y004835D01*
X052736Y004535D02*
X051936Y004535D01*
X051636Y004235D01*
X051636Y003935D01*
X051036Y003335D01*
X050136Y003535D02*
X050136Y004135D01*
X049936Y004335D01*
X050136Y005035D02*
X050636Y004535D01*
X051336Y004635D02*
X050736Y005235D01*
X050736Y005324D01*
X050136Y005235D02*
X050136Y005035D01*
X050136Y005235D02*
X049236Y005235D01*
X049236Y005324D01*
X047836Y004735D02*
X047636Y004935D01*
X047636Y006935D01*
X047236Y007335D01*
X047036Y006535D02*
X046236Y007335D01*
X047036Y006535D02*
X047036Y004235D01*
X047436Y004535D02*
X047436Y003235D01*
X047336Y003135D01*
X047836Y003035D02*
X047236Y002435D01*
X045136Y002435D01*
X044736Y002235D02*
X045036Y001935D01*
X048036Y001535D02*
X048236Y001735D01*
X048236Y006135D01*
X046236Y005935D02*
X046136Y005835D01*
X051636Y005235D02*
X051636Y005035D01*
X051636Y005235D02*
X052236Y005235D01*
X052236Y005324D01*
X052736Y004535D02*
X052736Y004335D01*
X053336Y003735D01*
X053336Y003435D01*
X053536Y003235D01*
X052236Y003009D02*
X052236Y003946D01*
X050736Y003935D02*
X050736Y003946D01*
X050736Y003935D02*
X050636Y003835D01*
X050636Y002835D01*
X050436Y002635D01*
X050362Y002635D01*
X050836Y002435D02*
X051036Y002635D01*
X051110Y002635D01*
X050836Y002435D02*
X050836Y002335D01*
X052236Y002335D01*
X052236Y002261D01*
X050836Y002235D02*
X050836Y002335D01*
X049236Y003009D02*
X049236Y003946D01*
X047836Y004735D02*
X047836Y003035D01*
X037936Y002935D02*
X036536Y002935D01*
X018236Y001535D02*
X017636Y001535D01*
X017629Y001635D01*
X017536Y001635D01*
X017336Y001835D01*
X017336Y002035D01*
X017136Y002235D01*
X013736Y002235D01*
X013736Y002135D01*
X014036Y001635D02*
X016842Y001635D01*
X014036Y001635D02*
X013936Y001535D01*
X009736Y001535D01*
X009736Y002135D01*
X040036Y009535D02*
X040106Y009509D01*
X040036Y009535D02*
X038436Y009535D01*
X058436Y005435D02*
X058456Y005525D01*
X058436Y005435D02*
X057836Y004835D01*
X057836Y002335D01*
X058036Y002135D01*
X058110Y002135D01*
D18*
X053536Y003235D03*
X051036Y003335D03*
X050136Y003535D03*
X047336Y003135D03*
X045136Y002435D03*
X045036Y001935D03*
X048036Y001535D03*
X052036Y001535D03*
X041936Y002835D03*
X040036Y003335D03*
X039236Y002935D03*
X037936Y002935D03*
X037936Y003535D03*
X038836Y003935D03*
X041936Y003535D03*
X044336Y004235D03*
X046136Y004235D03*
X047036Y004235D03*
X047436Y004535D03*
X045136Y004635D03*
X049936Y004335D03*
X050636Y004535D03*
X051336Y004635D03*
X051636Y005035D03*
X054436Y005035D03*
X052036Y006235D03*
X054936Y006535D03*
X051336Y007335D03*
X052836Y007635D03*
X049836Y006835D03*
X048036Y006535D03*
X045236Y006135D03*
X046236Y005935D03*
X044436Y005635D03*
X043236Y005935D03*
X041936Y005535D03*
X040536Y005235D03*
X039736Y005135D03*
X037936Y004735D03*
X032936Y003735D03*
X033436Y003635D03*
X034236Y003535D03*
X031036Y003535D03*
X029836Y003035D03*
X027136Y003435D03*
X029436Y004535D03*
X027536Y004935D03*
X027136Y005335D03*
X028936Y005635D03*
X029836Y005335D03*
X031536Y005735D03*
X031536Y006235D03*
X034936Y006535D03*
X030336Y006935D03*
X024036Y007835D03*
X019936Y008635D03*
X017536Y008835D03*
X018336Y009035D03*
X022536Y009435D03*
X023136Y009435D03*
X025136Y009035D03*
X017436Y007035D03*
X015936Y007035D03*
X013036Y007435D03*
X010436Y007435D03*
X010436Y006135D03*
X010336Y005335D03*
X005136Y006035D03*
X003236Y006035D03*
X010636Y004335D03*
X017236Y002935D03*
X017736Y002535D03*
X019936Y002235D03*
X018236Y001535D03*
X027536Y001835D03*
X029236Y001535D03*
X031536Y001635D03*
X031136Y002035D03*
X033036Y002035D03*
X036536Y001735D03*
X038236Y001535D03*
X040536Y001635D03*
X040036Y002235D03*
X038536Y002235D03*
X031536Y004835D03*
X023936Y005935D03*
X022536Y006335D03*
X018336Y005735D03*
X018536Y005235D03*
X020336Y005035D03*
X041036Y008435D03*
X041336Y008035D03*
X042136Y007635D03*
X043836Y007235D03*
X044736Y006935D03*
X043936Y006435D03*
X046236Y007335D03*
X047236Y007335D03*
X047536Y007735D03*
X047636Y008235D03*
X045136Y008235D03*
X046136Y009035D03*
X048136Y009035D03*
X048636Y009335D03*
X050136Y009735D03*
X051536Y009635D03*
X052536Y009035D03*
X058836Y008735D03*
X008436Y009235D03*
M02*
