%
M48
M72
T01C0.0200
T02C0.0256
T03C0.0400
T04C0.1300
%
T01
X17236Y2935
X17736Y2535
X19936Y2235
X18236Y1535
X27536Y1835
X29236Y1535
X31536Y1635
X31136Y2035
X33036Y2035
X36536Y1735
X38236Y1535
X40536Y1635
X40036Y2235
X38536Y2235
X41936Y2835
X40036Y3335
X39236Y2935
X37936Y2935
X37936Y3535
X38836Y3935
X41936Y3535
X44336Y4235
X46136Y4235
X47036Y4235
X47436Y4535
X45136Y4635
X49936Y4335
X50636Y4535
X51336Y4635
X51636Y5035
X54436Y5035
X52036Y6235
X54936Y6535
X51336Y7335
X52836Y7635
X49836Y6835
X48036Y6535
X45236Y6135
X46236Y5935
X44436Y5635
X43236Y5935
X41936Y5535
X40536Y5235
X39736Y5135
X37936Y4735
X32936Y3735
X33436Y3635
X34236Y3535
X31036Y3535
X29836Y3035
X27136Y3435
X29436Y4535
X27536Y4935
X27136Y5335
X28936Y5635
X29836Y5335
X31536Y5735
X31536Y6235
X34936Y6535
X30336Y6935
X24036Y7835
X19936Y8635
X17536Y8835
X18336Y9035
X22536Y9435
X23136Y9435
X25136Y9035
X17436Y7035
X15936Y7035
X13036Y7435
X10436Y7435
X10436Y6135
X10336Y5335
X5136Y6035
X3236Y6035
X10636Y4335
X18536Y5235
X20336Y5035
X18336Y5735
X22536Y6335
X23936Y5935
X31536Y4835
X43936Y6435
X44736Y6935
X43836Y7235
X42136Y7635
X41336Y8035
X41036Y8435
X45136Y8235
X47636Y8235
X47536Y7735
X47236Y7335
X46236Y7335
X46136Y9035
X48136Y9035
X48636Y9335
X50136Y9735
X51536Y9635
X52536Y9035
X58836Y8735
X50136Y3535
X51036Y3335
X53536Y3235
X47336Y3135
X45136Y2435
X45036Y1935
X48036Y1535
X52036Y1535
X8436Y9235
T02
X42736Y9635
X43736Y9635
X44736Y9635
X45736Y9635
X46736Y9635
X46736Y3635
X45736Y3635
X44736Y3635
X43736Y3635
X42736Y3635
T03
X53956Y3745
X56516Y3745
X58456Y3745
X61016Y3745
X61016Y5525
X58456Y5525
X56516Y5525
X53956Y5525
X13736Y2135
X9736Y2135
T04
X1236Y1635
X1236Y9635
X31236Y9635
X61236Y9635
X61236Y1635
M30
