G75*
G70*
%OFA0B0*%
%FSLAX24Y24*%
%IPPOS*%
%LPD*%
%AMOC8*
5,1,8,0,0,1.08239X$1,22.5*
%
%ADD10C,0.0060*%
%ADD11C,0.0020*%
%ADD12R,0.0050X0.0200*%
%ADD13C,0.0160*%
D10*
X009136Y001135D02*
X009136Y003135D01*
X009138Y003161D01*
X009143Y003187D01*
X009151Y003212D01*
X009163Y003235D01*
X009177Y003257D01*
X009195Y003276D01*
X009214Y003294D01*
X009236Y003308D01*
X009259Y003320D01*
X009284Y003328D01*
X009310Y003333D01*
X009336Y003335D01*
X014136Y003335D01*
X014162Y003333D01*
X014188Y003328D01*
X014213Y003320D01*
X014236Y003308D01*
X014258Y003294D01*
X014277Y003276D01*
X014295Y003257D01*
X014309Y003235D01*
X014321Y003212D01*
X014329Y003187D01*
X014334Y003161D01*
X014336Y003135D01*
X014336Y001135D01*
X014334Y001109D01*
X014329Y001083D01*
X014321Y001058D01*
X014309Y001035D01*
X014295Y001013D01*
X014277Y000994D01*
X014258Y000976D01*
X014236Y000962D01*
X014213Y000950D01*
X014188Y000942D01*
X014162Y000937D01*
X014136Y000935D01*
X009336Y000935D01*
X009310Y000937D01*
X009284Y000942D01*
X009259Y000950D01*
X009236Y000962D01*
X009214Y000976D01*
X009195Y000994D01*
X009177Y001013D01*
X009163Y001035D01*
X009151Y001058D01*
X009143Y001083D01*
X009138Y001109D01*
X009136Y001135D01*
X010236Y002135D02*
X010486Y002135D01*
X010836Y002135D02*
X013236Y002135D01*
X015766Y001235D02*
X015766Y007035D01*
X015768Y007058D01*
X015773Y007081D01*
X015782Y007103D01*
X015795Y007123D01*
X015810Y007141D01*
X015828Y007156D01*
X015848Y007169D01*
X015870Y007178D01*
X015893Y007183D01*
X015916Y007185D01*
X018556Y007185D01*
X018579Y007183D01*
X018602Y007178D01*
X018624Y007169D01*
X018644Y007156D01*
X018662Y007141D01*
X018677Y007123D01*
X018690Y007103D01*
X018699Y007081D01*
X018704Y007058D01*
X018706Y007035D01*
X018706Y001235D01*
X018704Y001212D01*
X018699Y001189D01*
X018690Y001167D01*
X018677Y001147D01*
X018662Y001129D01*
X018644Y001114D01*
X018624Y001101D01*
X018602Y001092D01*
X018579Y001087D01*
X018556Y001085D01*
X015916Y001085D01*
X015893Y001087D01*
X015870Y001092D01*
X015848Y001101D01*
X015828Y001114D01*
X015810Y001129D01*
X015795Y001147D01*
X015782Y001167D01*
X015773Y001189D01*
X015768Y001212D01*
X015766Y001235D01*
X028766Y001235D02*
X028766Y007035D01*
X028768Y007058D01*
X028773Y007081D01*
X028782Y007103D01*
X028795Y007123D01*
X028810Y007141D01*
X028828Y007156D01*
X028848Y007169D01*
X028870Y007178D01*
X028893Y007183D01*
X028916Y007185D01*
X031556Y007185D01*
X031579Y007183D01*
X031602Y007178D01*
X031624Y007169D01*
X031644Y007156D01*
X031662Y007141D01*
X031677Y007123D01*
X031690Y007103D01*
X031699Y007081D01*
X031704Y007058D01*
X031706Y007035D01*
X031706Y001235D01*
X031704Y001212D01*
X031699Y001189D01*
X031690Y001167D01*
X031677Y001147D01*
X031662Y001129D01*
X031644Y001114D01*
X031624Y001101D01*
X031602Y001092D01*
X031579Y001087D01*
X031556Y001085D01*
X028916Y001085D01*
X028893Y001087D01*
X028870Y001092D01*
X028848Y001101D01*
X028828Y001114D01*
X028810Y001129D01*
X028795Y001147D01*
X028782Y001167D01*
X028773Y001189D01*
X028768Y001212D01*
X028766Y001235D01*
X037766Y001235D02*
X037766Y007035D01*
X037768Y007058D01*
X037773Y007081D01*
X037782Y007103D01*
X037795Y007123D01*
X037810Y007141D01*
X037828Y007156D01*
X037848Y007169D01*
X037870Y007178D01*
X037893Y007183D01*
X037916Y007185D01*
X040556Y007185D01*
X040579Y007183D01*
X040602Y007178D01*
X040624Y007169D01*
X040644Y007156D01*
X040662Y007141D01*
X040677Y007123D01*
X040690Y007103D01*
X040699Y007081D01*
X040704Y007058D01*
X040706Y007035D01*
X040706Y001235D01*
X040704Y001212D01*
X040699Y001189D01*
X040690Y001167D01*
X040677Y001147D01*
X040662Y001129D01*
X040644Y001114D01*
X040624Y001101D01*
X040602Y001092D01*
X040579Y001087D01*
X040556Y001085D01*
X037916Y001085D01*
X037893Y001087D01*
X037870Y001092D01*
X037848Y001101D01*
X037828Y001114D01*
X037810Y001129D01*
X037795Y001147D01*
X037782Y001167D01*
X037773Y001189D01*
X037768Y001212D01*
X037766Y001235D01*
X049266Y001235D02*
X049266Y007035D01*
X049268Y007058D01*
X049273Y007081D01*
X049282Y007103D01*
X049295Y007123D01*
X049310Y007141D01*
X049328Y007156D01*
X049348Y007169D01*
X049370Y007178D01*
X049393Y007183D01*
X049416Y007185D01*
X052056Y007185D01*
X052079Y007183D01*
X052102Y007178D01*
X052124Y007169D01*
X052144Y007156D01*
X052162Y007141D01*
X052177Y007123D01*
X052190Y007103D01*
X052199Y007081D01*
X052204Y007058D01*
X052206Y007035D01*
X052206Y001235D01*
X052204Y001212D01*
X052199Y001189D01*
X052190Y001167D01*
X052177Y001147D01*
X052162Y001129D01*
X052144Y001114D01*
X052124Y001101D01*
X052102Y001092D01*
X052079Y001087D01*
X052056Y001085D01*
X049416Y001085D01*
X049393Y001087D01*
X049370Y001092D01*
X049348Y001101D01*
X049328Y001114D01*
X049310Y001129D01*
X049295Y001147D01*
X049282Y001167D01*
X049273Y001189D01*
X049268Y001212D01*
X049266Y001235D01*
X050236Y007185D02*
X050238Y007141D01*
X050244Y007098D01*
X050253Y007056D01*
X050266Y007014D01*
X050283Y006974D01*
X050303Y006935D01*
X050326Y006898D01*
X050353Y006864D01*
X050382Y006831D01*
X050415Y006802D01*
X050449Y006775D01*
X050486Y006752D01*
X050525Y006732D01*
X050565Y006715D01*
X050607Y006702D01*
X050649Y006693D01*
X050692Y006687D01*
X050736Y006685D01*
X050780Y006687D01*
X050823Y006693D01*
X050865Y006702D01*
X050907Y006715D01*
X050947Y006732D01*
X050986Y006752D01*
X051023Y006775D01*
X051057Y006802D01*
X051090Y006831D01*
X051119Y006864D01*
X051146Y006898D01*
X051169Y006935D01*
X051189Y006974D01*
X051206Y007014D01*
X051219Y007056D01*
X051228Y007098D01*
X051234Y007141D01*
X051236Y007185D01*
X039736Y007185D02*
X039734Y007141D01*
X039728Y007098D01*
X039719Y007056D01*
X039706Y007014D01*
X039689Y006974D01*
X039669Y006935D01*
X039646Y006898D01*
X039619Y006864D01*
X039590Y006831D01*
X039557Y006802D01*
X039523Y006775D01*
X039486Y006752D01*
X039447Y006732D01*
X039407Y006715D01*
X039365Y006702D01*
X039323Y006693D01*
X039280Y006687D01*
X039236Y006685D01*
X039192Y006687D01*
X039149Y006693D01*
X039107Y006702D01*
X039065Y006715D01*
X039025Y006732D01*
X038986Y006752D01*
X038949Y006775D01*
X038915Y006802D01*
X038882Y006831D01*
X038853Y006864D01*
X038826Y006898D01*
X038803Y006935D01*
X038783Y006974D01*
X038766Y007014D01*
X038753Y007056D01*
X038744Y007098D01*
X038738Y007141D01*
X038736Y007185D01*
X030736Y007185D02*
X030734Y007141D01*
X030728Y007098D01*
X030719Y007056D01*
X030706Y007014D01*
X030689Y006974D01*
X030669Y006935D01*
X030646Y006898D01*
X030619Y006864D01*
X030590Y006831D01*
X030557Y006802D01*
X030523Y006775D01*
X030486Y006752D01*
X030447Y006732D01*
X030407Y006715D01*
X030365Y006702D01*
X030323Y006693D01*
X030280Y006687D01*
X030236Y006685D01*
X030192Y006687D01*
X030149Y006693D01*
X030107Y006702D01*
X030065Y006715D01*
X030025Y006732D01*
X029986Y006752D01*
X029949Y006775D01*
X029915Y006802D01*
X029882Y006831D01*
X029853Y006864D01*
X029826Y006898D01*
X029803Y006935D01*
X029783Y006974D01*
X029766Y007014D01*
X029753Y007056D01*
X029744Y007098D01*
X029738Y007141D01*
X029736Y007185D01*
X017736Y007185D02*
X017734Y007141D01*
X017728Y007098D01*
X017719Y007056D01*
X017706Y007014D01*
X017689Y006974D01*
X017669Y006935D01*
X017646Y006898D01*
X017619Y006864D01*
X017590Y006831D01*
X017557Y006802D01*
X017523Y006775D01*
X017486Y006752D01*
X017447Y006732D01*
X017407Y006715D01*
X017365Y006702D01*
X017323Y006693D01*
X017280Y006687D01*
X017236Y006685D01*
X017192Y006687D01*
X017149Y006693D01*
X017107Y006702D01*
X017065Y006715D01*
X017025Y006732D01*
X016986Y006752D01*
X016949Y006775D01*
X016915Y006802D01*
X016882Y006831D01*
X016853Y006864D01*
X016826Y006898D01*
X016803Y006935D01*
X016783Y006974D01*
X016766Y007014D01*
X016753Y007056D01*
X016744Y007098D01*
X016738Y007141D01*
X016736Y007185D01*
D11*
X018566Y007185D02*
X018566Y001085D01*
X031566Y001085D02*
X031566Y007185D01*
X040566Y007185D02*
X040566Y001085D01*
X052066Y001085D02*
X052066Y007185D01*
D12*
X052231Y006885D03*
X052231Y006385D03*
X052231Y005885D03*
X052231Y005385D03*
X052231Y004885D03*
X052231Y004385D03*
X052231Y003885D03*
X052231Y003385D03*
X052231Y002885D03*
X052231Y002385D03*
X052231Y001885D03*
X052231Y001385D03*
X049241Y001385D03*
X049241Y001885D03*
X049241Y002385D03*
X049241Y002885D03*
X049241Y003385D03*
X049241Y003885D03*
X049241Y004385D03*
X049241Y004885D03*
X049241Y005385D03*
X049241Y005885D03*
X049241Y006385D03*
X049241Y006885D03*
X040731Y006885D03*
X040731Y006385D03*
X040731Y005885D03*
X040731Y005385D03*
X040731Y004885D03*
X040731Y004385D03*
X040731Y003885D03*
X040731Y003385D03*
X040731Y002885D03*
X040731Y002385D03*
X040731Y001885D03*
X040731Y001385D03*
X037741Y001385D03*
X037741Y001885D03*
X037741Y002385D03*
X037741Y002885D03*
X037741Y003385D03*
X037741Y003885D03*
X037741Y004385D03*
X037741Y004885D03*
X037741Y005385D03*
X037741Y005885D03*
X037741Y006385D03*
X037741Y006885D03*
X031731Y006885D03*
X028741Y006885D03*
X028741Y006385D03*
X028741Y005885D03*
X028741Y005385D03*
X031731Y005385D03*
X031731Y005885D03*
X031731Y006385D03*
X031731Y004885D03*
X031731Y004385D03*
X028741Y004385D03*
X028741Y004885D03*
X028741Y003885D03*
X028741Y003385D03*
X031731Y003385D03*
X031731Y003885D03*
X031731Y002885D03*
X031731Y002385D03*
X028741Y002385D03*
X028741Y002885D03*
X028741Y001885D03*
X028741Y001385D03*
X031731Y001385D03*
X031731Y001885D03*
X018731Y001885D03*
X018731Y001385D03*
X015741Y001385D03*
X015741Y001885D03*
X015741Y002385D03*
X015741Y002885D03*
X018731Y002885D03*
X018731Y002385D03*
X018731Y003385D03*
X018731Y003885D03*
X015741Y003885D03*
X015741Y003385D03*
X015741Y004385D03*
X015741Y004885D03*
X018731Y004885D03*
X018731Y004385D03*
X018731Y005385D03*
X018731Y005885D03*
X018731Y006385D03*
X015741Y006385D03*
X015741Y005885D03*
X015741Y005385D03*
X015741Y006885D03*
X018731Y006885D03*
D13*
X010836Y002635D02*
X010836Y002135D01*
X010836Y001635D01*
X010486Y001635D02*
X010486Y002135D01*
X010486Y002635D01*
M02*
