<?xml version="1.0" encoding="UTF-8" standalone="no"?>
<!-- Created with Inkscape (http://www.inkscape.org/) -->

<svg
   xmlns:dc="http://purl.org/dc/elements/1.1/"
   xmlns:cc="http://creativecommons.org/ns#"
   xmlns:rdf="http://www.w3.org/1999/02/22-rdf-syntax-ns#"
   xmlns:svg="http://www.w3.org/2000/svg"
   xmlns="http://www.w3.org/2000/svg"
   xmlns:sodipodi="http://sodipodi.sourceforge.net/DTD/sodipodi-0.dtd"
   xmlns:inkscape="http://www.inkscape.org/namespaces/inkscape"
   id="svg3672"
   version="1.1"
   inkscape:version="0.48.1 r9760"
   width="621.55835"
   height="97.777863"
   xml:space="preserve"
   sodipodi:docname="unicornlogo.svg"><metadata
     id="metadata3678"><rdf:RDF><cc:Work
         rdf:about=""><dc:format>image/svg+xml</dc:format><dc:type
           rdf:resource="http://purl.org/dc/dcmitype/StillImage" /><dc:title></dc:title></cc:Work></rdf:RDF></metadata><defs
     id="defs3676"><inkscape:perspective
       sodipodi:type="inkscape:persp3d"
       inkscape:vp_x="0 : 0.5 : 1"
       inkscape:vp_y="0 : 1000 : 0"
       inkscape:vp_z="1 : 0.5 : 1"
       inkscape:persp3d-origin="0.5 : 0.33333333 : 1"
       id="perspective3680" /></defs><sodipodi:namedview
     pagecolor="#ffffff"
     bordercolor="#666666"
     borderopacity="1"
     objecttolerance="10"
     gridtolerance="10"
     guidetolerance="10"
     inkscape:pageopacity="0"
     inkscape:pageshadow="2"
     inkscape:window-width="1278"
     inkscape:window-height="784"
     id="namedview3674"
     showgrid="false"
     inkscape:zoom="0.63421265"
     inkscape:cx="598.79569"
     inkscape:cy="-162.67663"
     inkscape:window-x="0"
     inkscape:window-y="14"
     inkscape:window-maximized="0"
     inkscape:current-layer="g3682"
     fit-margin-top="0"
     fit-margin-left="0"
     fit-margin-right="0"
     fit-margin-bottom="0" /><g
     id="g3682"
     inkscape:groupmode="layer"
     inkscape:label="ink_ext_XXXXXX"
     transform="matrix(1.25,0,0,-1.25,-194.10463,830.94139)"><path
       id="path3686-0"
       style="fill:#000000;fill-opacity:1;fill-rule:nonzero;stroke:none"
       d="m 493.24042,586.92055 c -0.139,0.225 -0.61,3.817 -1.045,7.983 -0.436,4.166 -1.236,9.273 -1.778,11.348 -2.517,9.636 -3.003,11.251 -4.381,14.559 -3.308,7.937 -9.12,13.385 -15.866,14.873 l -3.503,0.772 -151.006,0.356 c -130.85051,0.308 -151.04381,0.452 -151.28371,1.077 -0.1523,0.397 -0.064,0.934 0.1961,1.194 0.2602,0.26 6.9879,1.14 14.9504,1.955 51.5622,5.277 82.4752,8.324 106.7832,10.526 15.272,1.384 36.32301,3.293 46.77901,4.241 10.456,0.95 29.48,2.514 42.276,3.476 12.795,0.962 27.766,2.089 33.27,2.503 5.503,0.414 16.31,1.241 24.014,1.837 9.728,0.752 18.596,1.095 29.018,1.122 15.611,0.039 14.898,0.102 28.237,-2.482 5.186,-1.005 13.327,-4.82 20.324,-9.524 3.429,-2.305 4.79499,-3.656 7.94599,-7.863 2.474,-3.302 4.055,-5.956 4.518,-7.582 0.391,-1.376 1.079,-3.805 1.529,-5.399 0.641,-2.27 0.998,-2.845 1.652,-2.656 0.458,0.132 2.941,0.487 5.515,0.788 5.709,0.667 6.075,0.467 6.075,-3.314 0,-4.058 -2.035,-7.695 -6.458,-11.539 -2.343,-2.036 -4.565,-3.462 -6.486,-4.163 -5.979,-2.18 -10.57,-7.51 -10.57,-12.272 0,-1.153 -0.28199,-2.322 -0.62499,-2.598 -0.344,-0.275 -3.327,-1.909 -6.63,-3.63 -3.302,-1.722 -7.235,-3.775 -8.741,-4.564 -2.768,-1.45 -4.248,-1.772 -4.71,-1.024 z m 11.22,20.252 c 0.99,2.973 1.517,3.731 4.183,6.022 3.177,2.729 5.58099,4.407 9.17699,6.407 1.167,0.649 2.124,1.314 2.126,1.477 0.002,0.164 -1.148,1.269 -2.557,2.456 -1.408,1.187 -2.889,2.967 -3.291,3.956 -1.28699,3.164 -3.73799,8.766 -4.32999,9.896 -0.316,0.604 -2.489,2.717 -4.827,4.697 -4.043,3.423 -8.58,5.975 -13.259,7.461 -1.1,0.349 -2.227,0.813 -2.504,1.03 -0.276,0.217 -4.328,1.032 -9.005,1.811 l -8.503,1.416 -11.257,-0.132 c -6.531,-0.077 -19.362,-0.759 -30.567,-1.626 -10.621,-0.821 -20.291,-1.494 -21.488,-1.494 -1.23,0 -1.971,-0.184 -1.702,-0.423 0.261,-0.233 14.006,-0.685 30.545,-1.004 l 30.07,-0.58 3.701,-1.04 c 2.035,-0.572 4.885,-1.64 6.334,-2.373 1.448,-0.734 3.538,-1.797 4.643,-2.362 1.106,-0.566 3.691,-2.699 5.746,-4.74 l 3.736,-3.712 4.015,-8.023 c 4.027,-8.048 4.731,-10.283 6.829,-21.675 0.389,-2.113 0.787,-1.648 2.185,2.555 z m -24.377,-18.261 c -0.876,0.468 -3.398,1.921 -5.605,3.228 -2.207,1.307 -4.115,2.376 -4.242,2.376 -0.126,0 -1.426,0.788 -2.888,1.751 -1.463,0.963 -2.918,1.751 -3.235,1.751 -1.252,0 -1.629,1.554 -2.181,9.006 -0.316,4.265 -0.922,9.668 -1.348,12.007 -1.385,7.607 -1.845,7.966 -10.217,7.989 l -6.294,0.016 -2.923,-11.882 c -1.607,-6.535 -3.227,-12.389 -3.598,-13.008 l -0.676,-1.126 -6.931,0 c -5.111,0 -7.075,0.173 -7.477,0.657 -0.55,0.663 -0.021,3.006 5.367,23.764 1.093,4.212 2.264,7.992 2.601,8.398 0.523,0.63 3.088,0.718 17.421,0.595 l 16.809,-0.143 3.002,-2.087 c 5.691,-3.955 10.442,-12.035 12.978,-22.074 2.011,-7.959 3.295,-20.145 2.256,-21.398 -0.734,-0.884 -0.84,-0.878 -2.819,0.18 z m 50.39099,12.337 c -0.804,0.968 -0.44,2.914 1.222,6.549 0.694,1.516 1.261,3.066 1.261,3.442 0,0.813 5.72,5.929 9.256,8.278 5.301,3.521 6.754,5.551 6.754,9.433 0,1.461 0.276,2.694 0.677,3.027 0.767,0.636 19.105,2.764 19.851,2.303 0.267,-0.165 0.485,-1.397 0.485,-2.738 l -0.536,-2.439 -3.051,-3.16 c -1.973,-1.739 -4.911,-4.399 -6.528,-5.912 l -2.94,-2.752 -0.865,-3.428 -0.865,-3.428 -2.739,-1.116 c -1.506,-0.613 -3.526,-1.463 -4.489,-1.888 -1.445,-0.637 -14.438,-6.002 -16.305,-6.733 -0.3,-0.117 -0.835,0.136 -1.188,0.562 z m -371.0346,0.256 c -1.3625,0.551 -3.6296,3.269 -4.0183,4.816 -0.1684,0.672 -0.1848,1.724 -0.0363,2.338 1.755,7.259 5.9945,23.443 6.4191,24.506 l 0.5496,1.376 6.382,0 c 4.5117,0 6.5348,-0.184 6.9035,-0.629 0.5243,-0.631 0.002,-3.121 -3.1199,-14.881 -1.6476,-6.207 -1.6418,-7.649 0.0367,-8.969 l 1.318,-1.037 13.7434,0 2.8941,11.632 c 1.5918,6.398 3.1207,12.139 3.3973,12.758 l 0.5035,1.126 6.3629,0 c 4.48,0 6.515,-0.186 6.88,-0.626 0.365,-0.441 0.104,-2.32 -0.887,-6.379 -2.444,-10.003 -6.042,-23.711 -6.598,-25.14 l -0.536,-1.376 -19.577,0.032 c -10.7668,0.018 -20.0445,0.221 -20.6176,0.453 z m 46.3996,0.168 c -0.401,0.484 0.48,4.656 3.381,16.012 2.158,8.447 4.203,15.695 4.545,16.107 0.532,0.642 3.443,0.749 20.342,0.749 l 19.72101,0 1.53099,-1.126 c 1.851,-1.361 3.432,-4.288 3.432,-6.353 0,-0.834 -1.018,-5.176 -2.262,-9.651 -1.244,-4.475 -2.60399,-9.374 -3.02199,-10.888 -0.419,-1.513 -1.041,-3.314 -1.384,-4.002 l -0.623,-1.251 -6.288,-0.139 c -4.776,-0.106 -6.421,0.021 -6.843,0.53 -0.418,0.504 0.058,2.953 1.924,9.895 1.363,5.074 2.481,9.86 2.483,10.635 0.013,3.795 -2.252,4.845 -10.44501,4.845 l -5.979,0 -0.507,-2.126 c -0.278,-1.17 -1.332,-5.166 -2.341,-8.881 -1.009,-3.715 -2.243,-8.283 -2.741,-10.151 -0.499,-1.868 -1.179,-3.725 -1.513,-4.127 -0.828,-0.998 -12.591,-1.066 -13.411,-0.078 z m 52.53,0.003 c -0.403,0.486 0.427,4.468 3.208,15.384 2.064,8.101 3.997,15.348 4.296,16.105 l 0.544,1.376 6.382,0 c 4.496,0 6.535,-0.185 6.9,-0.626 0.365,-0.441 0.104,-2.32 -0.888,-6.379 -2.443,-10.003 -6.041,-23.711 -6.598,-25.14 l -0.536,-1.376 -6.382,0 c -4.651,0 -6.529,0.178 -6.926,0.656 z m 23.686,0.111 c -2.175,1.079 -3.752,3.647 -3.752,6.107 0,1.817 3.265,15.755 4.308,18.392 0.671,1.696 2.504,4.155 4.093,5.492 3.185,2.68 3.812,2.763 21.023,2.763 l 15.94801,0 0.794,-0.877 c 0.653,-0.722 0.705,-1.292 0.294,-3.219 -0.274,-1.288 -0.765,-2.561 -1.091,-2.829 -0.326,-0.268 -4.982,-0.58 -10.34801,-0.692 -11.907,-0.249 -13.184,-0.678 -16.114,-5.417 -1.336,-2.161 -2.548,-7.268 -2.185,-9.207 0.58,-3.091 1.475,-3.275 15.961,-3.275 9.85501,0 12.84401,-0.147 13.26401,-0.653 0.611,-0.737 -0.397,-5.369 -1.444,-6.629 -0.62208,-0.74993 -18.60121,-0.96453 -30.4981,-0.67043 -5.41066,0.13376 -9.56327,0.37274 -10.25291,0.71443 z m 48.88901,-0.096 c -1.071,0.389 -2.092,1.35 -2.935,2.764 -1.825,3.059 -1.592,4.775 2.638,19.449 1.076,3.732 4.128,7.588 7.321,9.25 l 2.623,1.365 17.66,0.011 c 19.308,0.012 19.493,-0.014 21.574,-2.936 0.572,-0.803 1.04,-2.166 1.04,-3.03 0,-2.69 -4.492,-19.662 -5.796,-21.898 -1.382,-2.369 -3.591,-4.153 -6.247,-5.045 -2.483,-0.835 -35.551,-0.773 -37.878,0.07 z m 26.987,7.417 c 4.055,1.215 6.954,5.996 7.752,12.786 l 0.308,2.614 -1.621,1.514 -1.622,1.514 -11.832,0 -3.031,-1.876 -3.031,-1.876 -0.959,-3.002 c -1.131,-3.537 -2.054,-7.366 -2.054,-8.515 0,-0.449 0.658,-1.476 1.463,-2.28 l 1.462,-1.462 5.609,0 c 3.085,0 6.485,0.262 7.556,0.583 z m 24.819,-7.058 c -2.005,1.059 -3.386,3.164 -3.386,5.163 0,2.247 3.591,16.01 4.981,19.09 1.458,3.231 4.471,6.265 7.478,7.533 1.388,0.585 4.813,0.693 18.512,0.586 l 16.808,-0.131 0.137,-1.752 c 0.075,-0.963 -0.262,-2.539 -0.75,-3.502 l -0.888,-1.751 -10.256,-0.27 -10.256,-0.271 -2.252,-1.056 c -3.886,-1.824 -4.891,-3.693 -7.504,-13.964 -1.279,-5.027 -2.618,-9.492 -2.976,-9.922 -0.99,-1.194 -7.222,-1.033 -9.648,0.247 z m 186.74699,15.447 c -1.552,2.9 -0.098,4.88 7.943,10.819 4.328,3.196 4.951,4.091 3.956,5.685 -1.213,1.942 0.147,2.433 9.79,3.535 9.565,1.093 10.313,1.001 10.313,-1.267 0,-1.651 -1.942,-3.738 -7.436,-7.991 -2.652,-2.053 -5.226,-4.298 -5.72,-4.989 -0.495,-0.691 -1.248,-1.256 -1.675,-1.256 -0.428,0 -1.486,-0.319 -2.354,-0.708 -1.903,-0.854 -13.322,-4.795 -13.894,-4.795 -0.222,0 -0.638,0.435 -0.923,0.967 z m 33.605,11.139 c -1.715,1.714 0.418,5.137 4.485,7.198 1.413,0.716 2.647,1.747 2.906,2.428 0.248,0.652 0.655,1.311 0.905,1.466 0.527,0.325 8.52697,1.539 26.79997,4.068 13.139,1.818 14.332,1.818 14.332,0 0,-1.368 -1.772,-2.034 -17.26,-6.484 -2.202,-0.632 -7.943,-2.323 -12.758,-3.757 -4.816,-1.434 -10.66897,-3.159 -13.00797,-3.833 -2.339,-0.674 -4.601,-1.329 -5.026,-1.457 -0.426,-0.127 -1.045,0.04 -1.376,0.371"
       inkscape:connector-curvature="0"
       sodipodi:nodetypes="ccscccscccccsccccccccccsccsccccccccccccccccccscsccccccccccsscscccccccscccccccccccscscsccccccccccccccccscccccsccscccccccccsccsscccccccsccscccccccsscccsccsccscccscccsccscccccccscsccscccccccccsccsccsccccccccccccscccssscscsccccccsccsc" /></g></svg>