%
M48
M72
T01C0.0200
T02C0.0320
T03C0.0394
T04C0.0400
T05C0.0440
T06C0.0730
T07C0.1260
T08C0.1300
%
T01
X2625Y9372
X9125Y17372
X12625Y15872
X14625Y11872
X17575Y13872
X18125Y14372
X20125Y16372
X21125Y17372
X21125Y18372
X21625Y18872
X20625Y19372
X20125Y18872
X18125Y18372
X21125Y13872
X20625Y12372
X19125Y11872
X19725Y9622
X24125Y17372
X24625Y17372
X24125Y18372
X25625Y19372
X23625Y20372
X25125Y22372
X10625Y27372
T02
X10625Y24872
X12125Y22372
X12125Y20372
X14625Y19372
X14125Y17872
X15125Y16872
X14125Y15872
X15125Y14872
X12625Y12372
X11625Y12372
X10625Y12872
X9625Y12872
X8625Y12872
X7625Y12872
X6625Y12872
X5625Y12872
X4625Y12872
X3625Y12872
X6125Y14372
X7125Y15872
X8125Y14372
X9125Y14372
X9125Y15872
X11125Y14372
X11625Y10372
X12625Y10372
X10625Y9872
X9625Y9872
X8625Y9872
X7625Y9872
X6625Y9872
X5625Y9872
X4625Y9872
X3625Y9872
X14625Y21372
X20625Y22872
X22625Y22872
X27125Y18372
X25625Y17372
X27125Y16372
X25625Y15372
X25525Y13372
X24525Y13372
X26525Y13372
X27525Y13372
X29125Y12872
X29125Y10872
X27525Y10372
X26525Y10372
X25525Y10372
X24525Y10372
X22875Y8722
X26875Y8722
X29125Y15422
X29125Y17322
X4625Y24872
T03
X24737Y7222
X24737Y6041
X25919Y6041
X25919Y7222
T04
X22925Y7072
X21925Y7072
X20225Y5272
X20225Y4272
X19225Y4272
X18225Y4272
X18225Y5272
X19225Y5272
X12306Y6931
X11215Y6931
X10125Y6931
X9034Y6931
X7944Y6931
X8491Y5813
X9582Y5813
X10668Y5813
X11759Y5813
X3125Y15372
X3125Y16372
X2125Y16372
X2125Y15372
X2125Y17372
X3125Y17372
X2125Y23872
X2125Y24872
X10625Y22372
X10625Y21372
X10625Y20372
X12475Y25222
X13475Y25222
X14475Y25222
X14475Y26222
X13475Y26222
X12475Y26222
T05
X8075Y26872
X4075Y26872
T06
X28125Y24972
X28125Y19772
T07
X25328Y4270
T08
X1625Y3872
X5204Y6372
X15046Y6372
X29625Y3872
X4725Y21372
X1625Y27872
X29625Y27872
M30
