G75*
G70*
%OFA0B0*%
%FSLAX24Y24*%
%IPPOS*%
%LPD*%
%AMOC8*
5,1,8,0,0,1.08239X$1,22.5*
%
%ADD10C,0.0520*%
%ADD11OC8,0.0630*%
%ADD12C,0.0660*%
%ADD13OC8,0.0520*%
%ADD14C,0.0520*%
%ADD15C,0.1000*%
%ADD16C,0.0600*%
%ADD17OC8,0.0600*%
%ADD18R,0.0600X0.0600*%
%ADD19C,0.0850*%
%ADD20OC8,0.0850*%
%ADD21R,0.0740X0.0740*%
%ADD22C,0.0740*%
%ADD23C,0.2000*%
%ADD24R,0.1095X0.1095*%
%ADD25C,0.0160*%
%ADD26C,0.0360*%
%ADD27C,0.0320*%
%ADD28C,0.0240*%
D10*
X029125Y015422D03*
X029125Y017322D03*
D11*
X027125Y016372D03*
X025625Y015372D03*
X025625Y017372D03*
X027125Y018372D03*
D12*
X008075Y026872D03*
X004075Y026872D03*
D13*
X012125Y022372D03*
X012125Y020372D03*
X014625Y019372D03*
X014125Y017872D03*
X015125Y016872D03*
X014125Y015872D03*
X015125Y014872D03*
X012625Y012372D03*
X011625Y012372D03*
X011625Y010372D03*
X012625Y010372D03*
X011125Y014372D03*
X009125Y014372D03*
X008125Y014372D03*
X009125Y015872D03*
X007125Y015872D03*
X006125Y014372D03*
X014625Y021372D03*
X020625Y022872D03*
X022625Y022872D03*
X029125Y012872D03*
X029125Y010872D03*
X026875Y008722D03*
X022875Y008722D03*
D14*
X024525Y010112D02*
X024525Y010632D01*
X025525Y010632D02*
X025525Y010112D01*
X026525Y010112D02*
X026525Y010632D01*
X027525Y010632D02*
X027525Y010112D01*
X027525Y013112D02*
X027525Y013632D01*
X026525Y013632D02*
X026525Y013112D01*
X025525Y013112D02*
X025525Y013632D01*
X024525Y013632D02*
X024525Y013112D01*
X010625Y013132D02*
X010625Y012612D01*
X009625Y012612D02*
X009625Y013132D01*
X008625Y013132D02*
X008625Y012612D01*
X007625Y012612D02*
X007625Y013132D01*
X006625Y013132D02*
X006625Y012612D01*
X005625Y012612D02*
X005625Y013132D01*
X004625Y013132D02*
X004625Y012612D01*
X003625Y012612D02*
X003625Y013132D01*
X003625Y010132D02*
X003625Y009612D01*
X004625Y009612D02*
X004625Y010132D01*
X005625Y010132D02*
X005625Y009612D01*
X006625Y009612D02*
X006625Y010132D01*
X007625Y010132D02*
X007625Y009612D01*
X008625Y009612D02*
X008625Y010132D01*
X009625Y010132D02*
X009625Y009612D01*
X010625Y009612D02*
X010625Y010132D01*
D15*
X024737Y007222D03*
X024737Y006041D03*
X025919Y006041D03*
X025919Y007222D03*
D16*
X022925Y007372D02*
X022925Y006772D01*
X021925Y006772D02*
X021925Y007372D01*
X010925Y020372D02*
X010325Y020372D01*
X010325Y021372D02*
X010925Y021372D01*
X010925Y022372D02*
X010325Y022372D01*
X002425Y023872D02*
X001825Y023872D01*
X001825Y024872D02*
X002425Y024872D01*
D17*
X002125Y017372D03*
X002125Y016372D03*
X002125Y015372D03*
X003125Y016372D03*
X003125Y017372D03*
X012475Y025222D03*
X013475Y025222D03*
X014475Y025222D03*
X014475Y026222D03*
X013475Y026222D03*
X012475Y026222D03*
X018225Y005272D03*
X018225Y004272D03*
X019225Y004272D03*
X020225Y004272D03*
X020225Y005272D03*
X019225Y005272D03*
D18*
X003125Y015372D03*
D19*
X010625Y024872D03*
D20*
X004625Y024872D03*
D21*
X012306Y006931D03*
D22*
X011215Y006931D03*
X010125Y006931D03*
X009034Y006931D03*
X007944Y006931D03*
X008491Y005813D03*
X009582Y005813D03*
X010668Y005813D03*
X011759Y005813D03*
D23*
X005204Y006372D03*
X015046Y006372D03*
D24*
X028125Y019772D03*
X028125Y024972D03*
D25*
X025125Y022372D02*
X023125Y022372D01*
X022625Y022872D01*
X023625Y020372D02*
X024625Y020372D01*
X025625Y019372D01*
X024125Y018372D02*
X027125Y018372D01*
X028175Y017322D01*
X029125Y017322D01*
X029125Y015422D02*
X027175Y017372D01*
X025625Y017372D01*
X024625Y017372D01*
X024125Y017372D02*
X024125Y016872D01*
X025625Y015372D01*
X026125Y015372D01*
X027125Y016372D01*
X025525Y013372D02*
X027025Y011872D01*
X028125Y011872D01*
X029125Y012872D01*
X029125Y010872D02*
X028625Y010872D01*
X028125Y010372D01*
X027525Y010372D01*
X027525Y006772D01*
X027125Y006372D01*
X026250Y006372D01*
X025919Y006041D01*
X025919Y007222D02*
X025919Y008872D01*
X026069Y008722D01*
X026875Y008722D01*
X025919Y008872D02*
X025919Y009579D01*
X025625Y009872D01*
X025625Y010272D01*
X025525Y010372D01*
X026525Y010372D02*
X026625Y010472D01*
X026625Y010872D01*
X026125Y011372D01*
X024332Y011372D01*
X023625Y010665D01*
X023625Y009872D01*
X024737Y008760D01*
X024737Y007222D01*
X024587Y007072D01*
X022925Y007072D01*
X021925Y007072D02*
X021925Y007772D01*
X022875Y008722D01*
X020625Y006372D02*
X020625Y012372D01*
X020125Y011872D02*
X020125Y012872D01*
X021125Y013872D01*
X020125Y011872D02*
X020225Y011772D01*
X020225Y005272D01*
X019725Y004472D02*
X019525Y004272D01*
X019225Y004272D01*
X018725Y004472D02*
X018725Y007772D01*
X014625Y011872D01*
X012625Y012372D02*
X012125Y012872D01*
X010625Y012872D01*
X009625Y012872D02*
X009125Y013372D01*
X009125Y014372D01*
X008625Y013872D02*
X007625Y012872D01*
X007125Y013372D02*
X006625Y012872D01*
X007125Y013372D02*
X007125Y015872D01*
X006625Y016872D02*
X009625Y016872D01*
X012625Y013872D01*
X017575Y013872D01*
X018125Y014372D02*
X016625Y014372D01*
X015625Y015372D01*
X012125Y015372D01*
X009625Y017872D01*
X005625Y017872D01*
X003125Y015372D01*
X003125Y014372D02*
X002625Y014372D01*
X002125Y014872D01*
X002125Y015372D01*
X002125Y016372D02*
X001832Y016372D01*
X001125Y015665D01*
X001125Y014990D01*
X002243Y013872D01*
X003625Y013872D01*
X006625Y016872D01*
X006125Y017372D02*
X009125Y017372D01*
X009125Y015872D02*
X009125Y015372D01*
X008625Y014872D01*
X008625Y013872D01*
X008625Y012872D02*
X010625Y010872D01*
X012125Y010872D01*
X012625Y010372D01*
X011625Y010372D02*
X011125Y010372D01*
X010625Y009872D01*
X010205Y008872D02*
X010125Y008872D01*
X011215Y007782D01*
X011215Y006931D01*
X010125Y006931D02*
X010125Y007872D01*
X009625Y008372D01*
X008625Y008372D01*
X007625Y009372D01*
X007625Y009872D01*
X008625Y009872D02*
X008625Y009372D01*
X009125Y008872D01*
X010125Y008872D01*
X007944Y006931D02*
X007066Y006931D01*
X006125Y007872D01*
X004125Y007872D01*
X002625Y009372D01*
X005625Y012872D02*
X006125Y013372D01*
X006125Y014372D01*
X003125Y014372D02*
X006125Y017372D01*
X005125Y018372D02*
X012125Y018372D01*
X014125Y016372D01*
X020125Y016372D01*
X021125Y017372D02*
X013625Y017372D01*
X012125Y018872D01*
X004625Y018872D01*
X003125Y017372D01*
X003125Y016372D02*
X005125Y018372D01*
X002125Y017372D02*
X002125Y021872D01*
X002625Y022372D01*
X002625Y023372D01*
X010625Y026222D02*
X010625Y027372D01*
X012475Y025222D02*
X012625Y025072D01*
X012625Y023872D01*
X013625Y022872D01*
X013625Y021372D01*
X015125Y022372D02*
X013475Y024022D01*
X013475Y025222D01*
X013475Y026222D02*
X014125Y026872D01*
X014625Y026872D01*
X015125Y026372D01*
X015125Y023872D01*
X015625Y023372D01*
X017625Y023372D01*
X021625Y019372D01*
X021625Y018872D01*
X021125Y018372D02*
X018125Y018372D01*
X020125Y018872D02*
X014125Y018872D01*
X014125Y017872D01*
X014125Y018872D02*
X014125Y019372D01*
X015125Y022372D02*
X017625Y022372D01*
X020625Y019372D01*
X014125Y015872D02*
X012625Y015872D01*
X019125Y011872D02*
X019225Y011772D01*
X019225Y005272D01*
X019725Y004472D02*
X019725Y009622D01*
X020625Y006372D02*
X021125Y005872D01*
X021125Y004872D01*
X020525Y004272D01*
X020225Y004272D01*
X018725Y004472D02*
X018525Y004272D01*
X018225Y004272D01*
X017832Y003372D02*
X022069Y003372D01*
X024737Y006041D01*
X018225Y005272D02*
X017525Y005272D01*
X017125Y004872D01*
X017125Y004080D01*
X017832Y003372D01*
D26*
X019725Y009622D03*
X019125Y011872D03*
X020625Y012372D03*
X021125Y013872D03*
X020125Y016372D03*
X021125Y017372D03*
X021125Y018372D03*
X021625Y018872D03*
X020625Y019372D03*
X020125Y018872D03*
X018125Y018372D03*
X018125Y014372D03*
X017575Y013872D03*
X014625Y011872D03*
X012625Y015872D03*
X009125Y017372D03*
X002625Y009372D03*
X010625Y027372D03*
X023625Y020372D03*
X025125Y022372D03*
X025625Y019372D03*
X024125Y018372D03*
X024125Y017372D03*
X024625Y017372D03*
D27*
X014625Y019372D02*
X014125Y019372D01*
X010125Y019372D01*
X009125Y020372D01*
X008507Y020372D01*
X005507Y023372D01*
X003625Y023372D01*
X004625Y024372D01*
X004625Y024872D01*
X004125Y025872D02*
X003125Y024872D01*
X002125Y024872D01*
X002125Y023872D02*
X002625Y023372D01*
X003625Y023372D01*
X004125Y025872D02*
X004075Y025922D01*
X004075Y026872D01*
X008075Y026872D02*
X008625Y026872D01*
X010625Y024872D01*
X010625Y022372D01*
X012125Y022372D01*
X010625Y021372D02*
X013625Y021372D01*
X014625Y021372D01*
X012125Y020372D02*
X010625Y020372D01*
X009125Y020372D01*
D28*
X004918Y024872D02*
X004625Y024872D01*
X004918Y024872D02*
X005625Y025580D01*
X005625Y026754D01*
X006743Y027772D01*
X008625Y027772D01*
X010125Y026222D01*
X010625Y026222D01*
X012475Y026222D01*
M02*
