G75*
G70*
%OFA0B0*%
%FSLAX24Y24*%
%IPPOS*%
%LPD*%
%AMOC8*
5,1,8,0,0,1.08239X$1,22.5*
%
%ADD10OC8,0.0680*%
%ADD11C,0.0595*%
%ADD12OC8,0.0600*%
%ADD13C,0.0930*%
%ADD14OC8,0.0930*%
%ADD15C,0.1380*%
%ADD16R,0.0476X0.0476*%
D10*
X017902Y001802D03*
X018902Y001802D03*
X019902Y001802D03*
X019902Y002802D03*
X018902Y002802D03*
X017902Y002802D03*
X019202Y022652D03*
X019202Y023652D03*
X020202Y023652D03*
X020202Y022652D03*
X021202Y022652D03*
X021202Y023652D03*
D11*
X013783Y023346D03*
X013783Y022558D03*
X013783Y021771D03*
X013783Y020983D03*
X013783Y020196D03*
X013783Y019409D03*
X013783Y018621D03*
X013783Y017834D03*
X013783Y017046D03*
X013783Y016259D03*
X005122Y016259D03*
X005122Y017046D03*
X005122Y017834D03*
X005122Y018621D03*
X005122Y019409D03*
X005122Y020196D03*
X005122Y020983D03*
X005122Y021771D03*
X005122Y022558D03*
X005122Y023346D03*
D12*
X007002Y023102D03*
X007002Y021102D03*
X002852Y022002D03*
X002852Y022902D03*
X002852Y023902D03*
X002852Y018002D03*
X008452Y011402D03*
X009452Y011402D03*
X011552Y011302D03*
X011552Y009802D03*
X011552Y008302D03*
X011552Y005652D03*
X009552Y005652D03*
X015552Y008302D03*
X015552Y009802D03*
X015552Y011302D03*
X015552Y012802D03*
X015552Y014252D03*
X015752Y016502D03*
X011552Y014252D03*
X011552Y012802D03*
X015752Y020502D03*
X015752Y022452D03*
X015752Y023452D03*
D13*
X007652Y003952D03*
D14*
X013652Y003952D03*
D15*
X001302Y001302D03*
X029302Y001302D03*
X029302Y025302D03*
X001302Y025302D03*
D16*
X017202Y022952D03*
M02*
