G75*
G70*
%OFA0B0*%
%FSLAX24Y24*%
%IPPOS*%
%LPD*%
%AMOC8*
5,1,8,0,0,1.08239X$1,22.5*
%
%ADD10C,0.0070*%
%ADD11C,0.0040*%
%ADD12C,0.0060*%
%ADD13C,0.0080*%
%ADD14C,0.0100*%
%ADD15R,0.0240X0.0340*%
%ADD16C,0.0120*%
%ADD17R,0.0340X0.0240*%
%ADD18R,0.0200X0.1000*%
%ADD19R,0.0300X0.0200*%
D10*
X001177Y003987D02*
X001836Y003987D01*
X001967Y004119D01*
X001967Y004383D01*
X001836Y004514D01*
X001177Y004514D01*
X001440Y004779D02*
X001440Y005175D01*
X001572Y005306D01*
X001967Y005306D01*
X001967Y005571D02*
X001967Y005835D01*
X001967Y005703D02*
X001440Y005703D01*
X001440Y005571D01*
X001177Y005703D02*
X001045Y005703D01*
X001572Y006099D02*
X001836Y006099D01*
X001967Y006231D01*
X001967Y006626D01*
X001836Y006891D02*
X001572Y006891D01*
X001440Y007023D01*
X001440Y007286D01*
X001572Y007418D01*
X001836Y007418D01*
X001967Y007286D01*
X001967Y007023D01*
X001836Y006891D01*
X001440Y006626D02*
X001440Y006231D01*
X001572Y006099D01*
X001440Y004779D02*
X001967Y004779D01*
X001967Y007683D02*
X001440Y007683D01*
X001440Y007946D02*
X001440Y008078D01*
X001440Y007946D02*
X001704Y007683D01*
X001967Y008343D02*
X001440Y008343D01*
X001440Y008738D01*
X001572Y008870D01*
X001967Y008870D01*
X001967Y009926D02*
X001440Y009926D01*
X001440Y010322D01*
X001572Y010453D01*
X001967Y010453D01*
X001836Y010718D02*
X001572Y010718D01*
X001440Y010850D01*
X001440Y011113D01*
X001572Y011245D01*
X001836Y011245D01*
X001967Y011113D01*
X001967Y010850D01*
X001836Y010718D01*
X001836Y011510D02*
X001572Y011510D01*
X001440Y011642D01*
X001440Y012037D01*
X001177Y012037D02*
X001967Y012037D01*
X001967Y011642D01*
X001836Y011510D01*
X001836Y012302D02*
X001572Y012302D01*
X001440Y012434D01*
X001440Y012697D01*
X001572Y012829D01*
X001704Y012829D01*
X001704Y012302D01*
X001836Y012302D02*
X001967Y012434D01*
X001967Y012697D01*
X001967Y013094D02*
X001967Y013621D01*
X001967Y013357D02*
X001177Y013357D01*
X001440Y013094D01*
X001440Y014677D02*
X001967Y014941D01*
X001440Y015204D01*
X001309Y015469D02*
X001177Y015601D01*
X001177Y015865D01*
X001309Y015996D01*
X001440Y015996D01*
X001967Y015469D01*
X001967Y015996D01*
X001967Y016261D02*
X001967Y016393D01*
X001836Y016393D01*
X001836Y016261D01*
X001967Y016261D01*
X001836Y016657D02*
X001309Y017184D01*
X001836Y017184D01*
X001967Y017052D01*
X001967Y016789D01*
X001836Y016657D01*
X001309Y016657D01*
X001177Y016789D01*
X001177Y017052D01*
X001309Y017184D01*
X008287Y017078D02*
X008814Y016287D01*
X009079Y016287D02*
X009475Y016287D01*
X009606Y016419D01*
X009606Y016683D01*
X009475Y016814D01*
X009079Y016814D01*
X009079Y017078D02*
X009079Y016287D01*
X008287Y016287D02*
X008814Y017078D01*
X009871Y016683D02*
X009871Y016419D01*
X010003Y016287D01*
X010266Y016287D01*
X010398Y016551D02*
X009871Y016551D01*
X009871Y016683D02*
X010003Y016814D01*
X010266Y016814D01*
X010398Y016683D01*
X010398Y016551D01*
X010663Y016551D02*
X011190Y016551D01*
X011190Y016683D01*
X011058Y016814D01*
X010795Y016814D01*
X010663Y016683D01*
X010663Y016419D01*
X010795Y016287D01*
X011058Y016287D01*
X028887Y012591D02*
X028887Y012195D01*
X029677Y012195D01*
X029677Y012591D01*
X029546Y012723D01*
X029019Y012723D01*
X028887Y012591D01*
X029019Y011931D02*
X028887Y011799D01*
X028887Y011535D01*
X029019Y011404D01*
X029150Y011404D01*
X029282Y011535D01*
X029282Y011799D01*
X029414Y011931D01*
X029546Y011931D01*
X029677Y011799D01*
X029677Y011535D01*
X029546Y011404D01*
D11*
X030089Y011452D02*
X030089Y011059D01*
X030089Y010665D02*
X030089Y010271D01*
X030089Y009878D02*
X030089Y009484D01*
X030089Y009090D02*
X030089Y008696D01*
X030089Y008303D02*
X030089Y007909D01*
X030089Y007515D02*
X030089Y007122D01*
X030089Y006728D02*
X030128Y006730D01*
X030166Y006736D01*
X030203Y006745D01*
X030240Y006758D01*
X030275Y006775D01*
X030308Y006794D01*
X030339Y006817D01*
X030368Y006843D01*
X030394Y006872D01*
X030417Y006903D01*
X030436Y006936D01*
X030453Y006971D01*
X030466Y007008D01*
X030475Y007045D01*
X030481Y007083D01*
X030483Y007122D01*
X030483Y007515D01*
X030483Y007909D02*
X030483Y008303D01*
X030483Y008696D02*
X030483Y009090D01*
X030483Y009484D02*
X030483Y009878D01*
X030483Y010271D02*
X030483Y010665D01*
X030483Y011059D02*
X030483Y011452D01*
X030483Y011846D02*
X030483Y012240D01*
X030483Y012633D02*
X030483Y013027D01*
X030089Y013027D02*
X030089Y012633D01*
X030089Y012240D02*
X030089Y011846D01*
X030089Y013421D02*
X030089Y013815D01*
X030483Y013815D02*
X030483Y013421D01*
X030483Y014208D02*
X030483Y014602D01*
X030089Y014602D02*
X030089Y014208D01*
X030089Y014996D02*
X030089Y015389D01*
X030483Y015389D02*
X030483Y014996D01*
X030483Y015783D02*
X030483Y016177D01*
X030089Y016177D02*
X030089Y015783D01*
X030483Y016177D02*
X030481Y016216D01*
X030475Y016254D01*
X030466Y016291D01*
X030453Y016328D01*
X030436Y016363D01*
X030417Y016396D01*
X030394Y016427D01*
X030368Y016456D01*
X030339Y016482D01*
X030308Y016505D01*
X030275Y016524D01*
X030240Y016541D01*
X030203Y016554D01*
X030166Y016563D01*
X030128Y016569D01*
X030089Y016571D01*
X030089Y016570D02*
X029696Y016570D01*
X028908Y016570D01*
X029696Y016571D02*
X029735Y016569D01*
X029773Y016563D01*
X029810Y016554D01*
X029847Y016541D01*
X029882Y016524D01*
X029915Y016505D01*
X029946Y016482D01*
X029975Y016456D01*
X030001Y016427D01*
X030024Y016396D01*
X030043Y016363D01*
X030060Y016328D01*
X030073Y016291D01*
X030082Y016254D01*
X030088Y016216D01*
X030090Y016177D01*
X030089Y016570D02*
X030562Y016570D01*
X030956Y016570D02*
X031428Y016570D01*
X031822Y016570D02*
X032294Y016570D01*
X032294Y016571D02*
X032333Y016569D01*
X032371Y016563D01*
X032408Y016554D01*
X032445Y016541D01*
X032480Y016524D01*
X032513Y016505D01*
X032544Y016482D01*
X032573Y016456D01*
X032599Y016427D01*
X032622Y016396D01*
X032641Y016363D01*
X032658Y016328D01*
X032671Y016291D01*
X032680Y016254D01*
X032686Y016216D01*
X032688Y016177D01*
X032688Y015783D01*
X032688Y015389D02*
X032688Y014996D01*
X032688Y014602D02*
X032688Y014208D01*
X032688Y013815D02*
X032688Y013421D01*
X032688Y013027D02*
X032688Y012633D01*
X032688Y012240D02*
X032688Y011846D01*
X032688Y011452D02*
X032688Y011059D01*
X032688Y010665D02*
X032688Y010271D01*
X032688Y009878D02*
X032688Y009484D01*
X032688Y009090D02*
X032688Y008696D01*
X032688Y008303D02*
X032688Y007909D01*
X032688Y007515D02*
X032688Y007122D01*
X032686Y007083D01*
X032680Y007045D01*
X032671Y007008D01*
X032658Y006971D01*
X032641Y006936D01*
X032622Y006903D01*
X032599Y006872D01*
X032573Y006843D01*
X032544Y006817D01*
X032513Y006794D01*
X032480Y006775D01*
X032445Y006758D01*
X032408Y006745D01*
X032371Y006736D01*
X032333Y006730D01*
X032294Y006728D01*
X031822Y006728D01*
X031428Y006728D02*
X030956Y006728D01*
X030562Y006728D02*
X030089Y006728D01*
X029696Y006728D01*
X028908Y006728D01*
X029696Y006728D02*
X029735Y006730D01*
X029773Y006736D01*
X029810Y006745D01*
X029847Y006758D01*
X029882Y006775D01*
X029915Y006794D01*
X029946Y006817D01*
X029975Y006843D01*
X030001Y006872D01*
X030024Y006903D01*
X030043Y006936D01*
X030060Y006971D01*
X030073Y007008D01*
X030082Y007045D01*
X030088Y007083D01*
X030090Y007122D01*
X016390Y001456D02*
X016390Y001149D01*
X016313Y001072D01*
X016083Y001072D01*
X016083Y001533D01*
X016313Y001533D01*
X016390Y001456D01*
X015929Y001456D02*
X015853Y001533D01*
X015699Y001533D01*
X015622Y001456D01*
X015622Y001379D01*
X015699Y001303D01*
X015853Y001303D01*
X015929Y001226D01*
X015929Y001149D01*
X015853Y001072D01*
X015699Y001072D01*
X015622Y001149D01*
X008163Y010122D02*
X008009Y010122D01*
X007933Y010199D01*
X007779Y010199D02*
X007703Y010122D01*
X007549Y010122D01*
X007472Y010199D01*
X007472Y010506D01*
X007549Y010583D01*
X007703Y010583D01*
X007779Y010506D01*
X007933Y010506D02*
X007933Y010429D01*
X008009Y010353D01*
X008163Y010353D01*
X008240Y010276D01*
X008240Y010199D01*
X008163Y010122D01*
X008240Y010506D02*
X008163Y010583D01*
X008009Y010583D01*
X007933Y010506D01*
X009458Y017719D02*
X009430Y017736D01*
X009408Y017768D01*
X009408Y017807D01*
X009419Y017851D01*
X009469Y017955D01*
X009502Y018032D01*
X009513Y018103D01*
X009529Y018169D01*
X009556Y018256D01*
X009584Y018322D01*
X009611Y018366D01*
X009567Y018366D01*
X009567Y018459D01*
X009617Y018459D01*
X009661Y018492D01*
X009705Y018536D01*
X009754Y018509D01*
X009951Y018509D01*
X010110Y018492D01*
X010220Y018426D01*
X010247Y018377D01*
X010247Y018355D01*
X010225Y018306D01*
X010192Y018267D01*
X010127Y018223D01*
X009885Y018103D01*
X009759Y018054D01*
X009661Y018032D01*
X009628Y018026D01*
X009589Y018026D01*
X009573Y017977D01*
X009540Y017878D01*
X009513Y017790D01*
X009491Y017752D01*
X009480Y017730D01*
X009458Y017719D01*
X009650Y018169D02*
X009748Y018371D01*
X009759Y018399D01*
X010039Y018399D01*
X010105Y018371D01*
X010121Y018361D01*
X010116Y018344D01*
X010088Y018322D01*
X010001Y018278D01*
X009929Y018229D01*
X009831Y018202D01*
X009759Y018174D01*
X009715Y018169D01*
X009650Y018169D01*
X010390Y017873D02*
X010379Y017818D01*
X010384Y017736D01*
X010445Y017681D01*
X010445Y017714D01*
X010467Y017768D01*
X010499Y017867D01*
X010538Y017977D01*
X010549Y018015D01*
X010587Y018015D01*
X010790Y017878D01*
X011004Y017708D01*
X011048Y017675D01*
X011064Y017681D01*
X011081Y017714D01*
X011075Y017746D01*
X011053Y017801D01*
X011009Y017856D01*
X010933Y017916D01*
X010828Y017988D01*
X010746Y018070D01*
X010801Y018103D01*
X010916Y018174D01*
X011037Y018229D01*
X011097Y018267D01*
X011141Y018311D01*
X011141Y018355D01*
X011168Y018404D01*
X011157Y018432D01*
X011119Y018476D01*
X011075Y018503D01*
X010998Y018530D01*
X010933Y018547D01*
X010615Y018547D01*
X010543Y018519D01*
X010483Y018498D01*
X010450Y018465D01*
X010445Y018432D01*
X010456Y018410D01*
X010483Y018393D01*
X010499Y018371D01*
X010499Y018366D01*
X010543Y018399D01*
X010582Y018393D01*
X010565Y018355D01*
X010527Y018284D01*
X010467Y018147D01*
X010439Y018048D01*
X010390Y017873D01*
X010626Y018174D02*
X010730Y018361D01*
X010735Y018415D01*
X010933Y018415D01*
X010998Y018404D01*
X011015Y018371D01*
X010976Y018361D01*
X010922Y018306D01*
X010845Y018262D01*
X010774Y018223D01*
X010691Y018207D01*
X010626Y018174D01*
X011294Y017988D02*
X011322Y018119D01*
X011338Y018163D01*
X011486Y018311D01*
X011695Y018487D01*
X011810Y018547D01*
X011815Y018547D02*
X011870Y018525D01*
X011908Y018481D01*
X011914Y018454D01*
X011991Y018432D01*
X012100Y018355D01*
X012193Y018278D01*
X012221Y018174D01*
X012210Y018103D01*
X012150Y017993D01*
X012045Y017911D01*
X011969Y017834D01*
X011826Y017801D01*
X011722Y017736D01*
X011563Y017714D01*
X011437Y017714D01*
X011344Y017774D01*
X011289Y017878D01*
X011294Y017988D01*
X011409Y017922D02*
X011459Y018081D01*
X011552Y018207D01*
X011695Y018317D01*
X011755Y018361D01*
X011892Y018361D01*
X011958Y018339D01*
X012078Y018212D01*
X012078Y018081D01*
X011969Y018004D01*
X011854Y017938D01*
X011716Y017895D01*
X011585Y017845D01*
X011453Y017840D01*
X011404Y017867D01*
X011409Y017922D01*
X011070Y019139D02*
X011026Y019150D01*
X010982Y019183D01*
X010954Y019221D01*
X010938Y019282D01*
X010938Y019336D01*
X010949Y019424D01*
X011059Y019912D01*
X011075Y019972D01*
X011141Y020104D01*
X011190Y020175D01*
X011278Y020230D01*
X011344Y020252D01*
X011377Y020257D01*
X012237Y020257D01*
X012298Y020235D01*
X012369Y020181D01*
X012391Y020159D01*
X012391Y019967D01*
X012298Y019589D01*
X011399Y019589D01*
X011355Y019402D01*
X011344Y019369D01*
X011349Y019331D01*
X011371Y019314D01*
X012161Y019314D01*
X012232Y019325D01*
X012155Y019139D01*
X011070Y019139D01*
X010774Y019325D02*
X010697Y019139D01*
X009611Y019139D01*
X009567Y019150D01*
X009524Y019183D01*
X009496Y019221D01*
X009480Y019282D01*
X009480Y019336D01*
X009491Y019424D01*
X009600Y019912D01*
X009617Y019972D01*
X009683Y020104D01*
X009732Y020175D01*
X009820Y020230D01*
X009885Y020252D01*
X009918Y020257D01*
X010779Y020257D01*
X010839Y020235D01*
X010911Y020181D01*
X010933Y020159D01*
X010933Y019967D01*
X010839Y019589D01*
X009940Y019589D01*
X009896Y019402D01*
X009885Y019369D01*
X009891Y019331D01*
X009913Y019314D01*
X010702Y019314D01*
X010774Y019325D01*
X010467Y019759D02*
X009995Y019759D01*
X009990Y019764D01*
X010028Y019989D01*
X010044Y020033D01*
X010066Y020071D01*
X010099Y020087D01*
X010488Y020087D01*
X010510Y020082D01*
X010527Y020066D01*
X010527Y019994D01*
X010467Y019759D01*
X009458Y020087D02*
X009524Y020362D01*
X009540Y020405D01*
X009540Y020499D01*
X009518Y020553D01*
X009485Y020614D01*
X009441Y020641D01*
X009376Y020658D01*
X008131Y020658D01*
X008131Y020548D01*
X008109Y020449D01*
X007967Y019868D01*
X007890Y019556D01*
X007824Y019309D01*
X007780Y019177D01*
X007747Y019144D01*
X007731Y019144D01*
X007643Y019265D01*
X007336Y020022D01*
X007851Y020504D01*
X007928Y020570D01*
X007983Y020608D01*
X008054Y020658D01*
X007709Y020658D01*
X007703Y020636D01*
X007687Y020603D01*
X007665Y020575D01*
X007276Y020192D01*
X007139Y020537D01*
X007139Y020564D01*
X007122Y020592D01*
X007139Y020625D01*
X007139Y020658D01*
X006536Y020658D01*
X006596Y020597D01*
X006909Y019835D01*
X006273Y019238D01*
X006136Y019139D01*
X006459Y019139D01*
X006508Y019227D01*
X006963Y019671D01*
X007139Y019238D01*
X007139Y019199D01*
X007106Y019139D01*
X009008Y019139D01*
X009112Y019172D01*
X009178Y019205D01*
X009260Y019298D01*
X009271Y019364D01*
X009310Y019424D01*
X009370Y019665D01*
X009370Y019813D01*
X009365Y019824D01*
X009249Y019879D01*
X009091Y019901D01*
X009200Y019901D01*
X009288Y019923D01*
X009354Y019950D01*
X009436Y020033D01*
X009458Y020087D01*
X009030Y020066D02*
X009107Y020356D01*
X009101Y020444D01*
X009052Y020471D01*
X008548Y020471D01*
X008433Y020005D01*
X008981Y020005D01*
X009014Y020027D01*
X009030Y020066D01*
X008937Y019791D02*
X008964Y019753D01*
X008964Y019737D01*
X008882Y019413D01*
X008860Y019380D01*
X008822Y019336D01*
X008800Y019325D01*
X008268Y019325D01*
X008394Y019808D01*
X008893Y019808D01*
X008937Y019791D01*
X011448Y019764D02*
X011453Y019759D01*
X011925Y019759D01*
X011985Y019994D01*
X011985Y020066D01*
X011969Y020082D01*
X011947Y020087D01*
X011558Y020087D01*
X011525Y020071D01*
X011503Y020033D01*
X011486Y019989D01*
X011448Y019764D01*
X014722Y025072D02*
X014722Y025379D01*
X014876Y025533D01*
X015029Y025379D01*
X015029Y025072D01*
X015183Y025149D02*
X015259Y025072D01*
X015413Y025072D01*
X015490Y025149D01*
X015490Y025226D01*
X015413Y025303D01*
X015259Y025303D01*
X015183Y025379D01*
X015183Y025456D01*
X015259Y025533D01*
X015413Y025533D01*
X015490Y025456D01*
X015643Y025456D02*
X015643Y025379D01*
X015720Y025303D01*
X015873Y025303D01*
X015950Y025226D01*
X015950Y025149D01*
X015873Y025072D01*
X015720Y025072D01*
X015643Y025149D01*
X015643Y025456D02*
X015720Y025533D01*
X015873Y025533D01*
X015950Y025456D01*
X016103Y025456D02*
X016103Y025149D01*
X016180Y025072D01*
X016334Y025072D01*
X016410Y025149D01*
X016410Y025456D01*
X016334Y025533D01*
X016180Y025533D01*
X016103Y025456D01*
X016564Y025456D02*
X016564Y025149D01*
X016640Y025072D01*
X016794Y025072D01*
X016871Y025149D01*
X016871Y025456D02*
X016794Y025533D01*
X016640Y025533D01*
X016564Y025456D01*
X015029Y025303D02*
X014722Y025303D01*
X023022Y023433D02*
X023329Y022972D01*
X023483Y022972D02*
X023713Y022972D01*
X023790Y023049D01*
X023790Y023203D01*
X023713Y023279D01*
X023483Y023279D01*
X023483Y023433D02*
X023483Y022972D01*
X023022Y022972D02*
X023329Y023433D01*
X023943Y023203D02*
X024020Y023279D01*
X024173Y023279D01*
X024250Y023203D01*
X024250Y023126D01*
X023943Y023126D01*
X023943Y023049D02*
X023943Y023203D01*
X023943Y023049D02*
X024020Y022972D01*
X024173Y022972D01*
X024403Y023049D02*
X024403Y023203D01*
X024480Y023279D01*
X024634Y023279D01*
X024710Y023203D01*
X024710Y023126D01*
X024403Y023126D01*
X024403Y023049D02*
X024480Y022972D01*
X024634Y022972D01*
X004307Y025072D02*
X004153Y025072D01*
X004230Y025072D02*
X004230Y025533D01*
X004153Y025533D02*
X004307Y025533D01*
X004000Y025456D02*
X003923Y025533D01*
X003770Y025533D01*
X003693Y025456D01*
X003693Y025379D01*
X003770Y025303D01*
X003923Y025303D01*
X004000Y025226D01*
X004000Y025149D01*
X003923Y025072D01*
X003770Y025072D01*
X003693Y025149D01*
X003540Y025149D02*
X003463Y025072D01*
X003309Y025072D01*
X003233Y025149D01*
X003309Y025303D02*
X003233Y025379D01*
X003233Y025456D01*
X003309Y025533D01*
X003463Y025533D01*
X003540Y025456D01*
X003463Y025303D02*
X003540Y025226D01*
X003540Y025149D01*
X003463Y025303D02*
X003309Y025303D01*
X003079Y025303D02*
X003003Y025226D01*
X002772Y025226D01*
X002772Y025072D02*
X002772Y025533D01*
X003003Y025533D01*
X003079Y025456D01*
X003079Y025303D01*
X002926Y025226D02*
X003079Y025072D01*
D12*
X002484Y023876D02*
X002449Y023846D01*
X002416Y023815D01*
X002386Y023780D01*
X002359Y023744D01*
X002335Y023706D01*
X002313Y023666D01*
X002295Y023624D01*
X002279Y023581D01*
X002267Y023537D01*
X002259Y023493D01*
X002254Y023447D01*
X002252Y023402D01*
X002254Y023357D01*
X002259Y023311D01*
X002267Y023267D01*
X002279Y023223D01*
X002295Y023180D01*
X002313Y023138D01*
X002335Y023098D01*
X002359Y023060D01*
X002386Y023024D01*
X002416Y022989D01*
X002449Y022958D01*
X002484Y022928D01*
X003452Y023402D02*
X003450Y023448D01*
X003445Y023494D01*
X003436Y023540D01*
X003424Y023585D01*
X003408Y023628D01*
X003389Y023670D01*
X003366Y023711D01*
X003341Y023750D01*
X003313Y023786D01*
X003282Y023821D01*
X003248Y023853D01*
X003212Y023882D01*
X003452Y023402D02*
X003450Y023355D01*
X003444Y023307D01*
X003435Y023261D01*
X003422Y023215D01*
X003406Y023171D01*
X003386Y023127D01*
X003362Y023086D01*
X003336Y023047D01*
X003306Y023010D01*
X003273Y022975D01*
X003238Y022943D01*
X003201Y022914D01*
X003202Y021252D02*
X002502Y021252D01*
X002485Y021250D01*
X002468Y021246D01*
X002452Y021239D01*
X002438Y021229D01*
X002425Y021216D01*
X002415Y021202D01*
X002408Y021186D01*
X002404Y021169D01*
X002402Y021152D01*
X002402Y021002D01*
X002452Y020952D01*
X002452Y019052D01*
X002402Y019002D01*
X002402Y018852D01*
X002404Y018835D01*
X002408Y018818D01*
X002415Y018802D01*
X002425Y018788D01*
X002438Y018775D01*
X002452Y018765D01*
X002468Y018758D01*
X002485Y018754D01*
X002502Y018752D01*
X003202Y018752D01*
X003219Y018754D01*
X003236Y018758D01*
X003252Y018765D01*
X003266Y018775D01*
X003279Y018788D01*
X003289Y018802D01*
X003296Y018818D01*
X003300Y018835D01*
X003302Y018852D01*
X003302Y019002D01*
X003252Y019052D01*
X003252Y020952D01*
X003302Y021002D01*
X003302Y021152D01*
X003300Y021169D01*
X003296Y021186D01*
X003289Y021202D01*
X003279Y021216D01*
X003266Y021229D01*
X003252Y021239D01*
X003236Y021246D01*
X003219Y021250D01*
X003202Y021252D01*
X006152Y020932D02*
X012380Y020932D01*
X012380Y018843D02*
X006152Y018843D01*
X006552Y021452D02*
X006552Y022752D01*
X006554Y022778D01*
X006559Y022804D01*
X006567Y022829D01*
X006579Y022852D01*
X006593Y022874D01*
X006611Y022893D01*
X006630Y022911D01*
X006652Y022925D01*
X006675Y022937D01*
X006700Y022945D01*
X006726Y022950D01*
X006752Y022952D01*
X007002Y022602D02*
X007002Y022222D01*
X007002Y021972D02*
X007002Y021602D01*
X006752Y021252D02*
X006726Y021254D01*
X006700Y021259D01*
X006675Y021267D01*
X006652Y021279D01*
X006630Y021293D01*
X006611Y021311D01*
X006593Y021330D01*
X006579Y021352D01*
X006567Y021375D01*
X006559Y021400D01*
X006554Y021426D01*
X006552Y021452D01*
X007252Y021252D02*
X007278Y021254D01*
X007304Y021259D01*
X007329Y021267D01*
X007352Y021279D01*
X007374Y021293D01*
X007393Y021311D01*
X007411Y021330D01*
X007425Y021352D01*
X007437Y021375D01*
X007445Y021400D01*
X007450Y021426D01*
X007452Y021452D01*
X007452Y022752D01*
X007450Y022778D01*
X007445Y022804D01*
X007437Y022829D01*
X007425Y022852D01*
X007411Y022874D01*
X007393Y022893D01*
X007374Y022911D01*
X007352Y022925D01*
X007329Y022937D01*
X007304Y022945D01*
X007278Y022950D01*
X007252Y022952D01*
X015302Y019652D02*
X015302Y019502D01*
X015352Y019452D01*
X015352Y017552D01*
X015302Y017502D01*
X015302Y017352D01*
X015304Y017335D01*
X015308Y017318D01*
X015315Y017302D01*
X015325Y017288D01*
X015338Y017275D01*
X015352Y017265D01*
X015368Y017258D01*
X015385Y017254D01*
X015402Y017252D01*
X016102Y017252D01*
X016119Y017254D01*
X016136Y017258D01*
X016152Y017265D01*
X016166Y017275D01*
X016179Y017288D01*
X016189Y017302D01*
X016196Y017318D01*
X016200Y017335D01*
X016202Y017352D01*
X016202Y017502D01*
X016152Y017552D01*
X016152Y019452D01*
X016202Y019502D01*
X016202Y019652D01*
X016200Y019669D01*
X016196Y019686D01*
X016189Y019702D01*
X016179Y019716D01*
X016166Y019729D01*
X016152Y019739D01*
X016136Y019746D01*
X016119Y019750D01*
X016102Y019752D01*
X015402Y019752D01*
X015385Y019750D01*
X015368Y019746D01*
X015352Y019739D01*
X015338Y019729D01*
X015325Y019716D01*
X015315Y019702D01*
X015308Y019686D01*
X015304Y019669D01*
X015302Y019652D01*
X018702Y022402D02*
X018702Y023902D01*
X018952Y024152D01*
X019452Y024152D01*
X019702Y023902D01*
X019702Y022402D01*
X019952Y022152D01*
X020452Y022152D01*
X020702Y022402D01*
X020952Y022152D01*
X021452Y022152D01*
X021702Y022402D01*
X021702Y023902D01*
X021452Y024152D01*
X020952Y024152D01*
X020702Y023902D01*
X020702Y022402D01*
X019702Y022402D02*
X019452Y022152D01*
X018952Y022152D01*
X018702Y022402D01*
X019702Y023902D02*
X019952Y024152D01*
X020452Y024152D01*
X020702Y023902D01*
X015384Y023426D02*
X015349Y023396D01*
X015316Y023365D01*
X015286Y023330D01*
X015259Y023294D01*
X015235Y023256D01*
X015213Y023216D01*
X015195Y023174D01*
X015179Y023131D01*
X015167Y023087D01*
X015159Y023043D01*
X015154Y022997D01*
X015152Y022952D01*
X015154Y022907D01*
X015159Y022861D01*
X015167Y022817D01*
X015179Y022773D01*
X015195Y022730D01*
X015213Y022688D01*
X015235Y022648D01*
X015259Y022610D01*
X015286Y022574D01*
X015316Y022539D01*
X015349Y022508D01*
X015384Y022478D01*
X016352Y022952D02*
X016350Y022998D01*
X016345Y023044D01*
X016336Y023090D01*
X016324Y023135D01*
X016308Y023178D01*
X016289Y023220D01*
X016266Y023261D01*
X016241Y023300D01*
X016213Y023336D01*
X016182Y023371D01*
X016148Y023403D01*
X016112Y023432D01*
X016352Y022952D02*
X016350Y022905D01*
X016344Y022857D01*
X016335Y022811D01*
X016322Y022765D01*
X016306Y022721D01*
X016286Y022677D01*
X016262Y022636D01*
X016236Y022597D01*
X016206Y022560D01*
X016173Y022525D01*
X016138Y022493D01*
X016101Y022464D01*
X014702Y014702D02*
X014552Y014702D01*
X014502Y014652D01*
X012602Y014652D01*
X012552Y014702D01*
X012402Y014702D01*
X012385Y014700D01*
X012368Y014696D01*
X012352Y014689D01*
X012338Y014679D01*
X012325Y014666D01*
X012315Y014652D01*
X012308Y014636D01*
X012304Y014619D01*
X012302Y014602D01*
X012302Y013902D01*
X012304Y013885D01*
X012308Y013868D01*
X012315Y013852D01*
X012325Y013838D01*
X012338Y013825D01*
X012352Y013815D01*
X012368Y013808D01*
X012385Y013804D01*
X012402Y013802D01*
X012552Y013802D01*
X012602Y013852D01*
X014502Y013852D01*
X014552Y013802D01*
X014702Y013802D01*
X014719Y013804D01*
X014736Y013808D01*
X014752Y013815D01*
X014766Y013825D01*
X014779Y013838D01*
X014789Y013852D01*
X014796Y013868D01*
X014800Y013885D01*
X014802Y013902D01*
X014802Y014602D01*
X014800Y014619D01*
X014796Y014636D01*
X014789Y014652D01*
X014779Y014666D01*
X014766Y014679D01*
X014752Y014689D01*
X014736Y014696D01*
X014719Y014700D01*
X014702Y014702D01*
X014702Y013252D02*
X014552Y013252D01*
X014502Y013202D01*
X012602Y013202D01*
X012552Y013252D01*
X012402Y013252D01*
X012385Y013250D01*
X012368Y013246D01*
X012352Y013239D01*
X012338Y013229D01*
X012325Y013216D01*
X012315Y013202D01*
X012308Y013186D01*
X012304Y013169D01*
X012302Y013152D01*
X012302Y012452D01*
X012304Y012435D01*
X012308Y012418D01*
X012315Y012402D01*
X012325Y012388D01*
X012338Y012375D01*
X012352Y012365D01*
X012368Y012358D01*
X012385Y012354D01*
X012402Y012352D01*
X012552Y012352D01*
X012602Y012402D01*
X014502Y012402D01*
X014552Y012352D01*
X014702Y012352D01*
X014719Y012354D01*
X014736Y012358D01*
X014752Y012365D01*
X014766Y012375D01*
X014779Y012388D01*
X014789Y012402D01*
X014796Y012418D01*
X014800Y012435D01*
X014802Y012452D01*
X014802Y013152D01*
X014800Y013169D01*
X014796Y013186D01*
X014789Y013202D01*
X014779Y013216D01*
X014766Y013229D01*
X014752Y013239D01*
X014736Y013246D01*
X014719Y013250D01*
X014702Y013252D01*
X014702Y011752D02*
X014552Y011752D01*
X014502Y011702D01*
X012602Y011702D01*
X012552Y011752D01*
X012402Y011752D01*
X012385Y011750D01*
X012368Y011746D01*
X012352Y011739D01*
X012338Y011729D01*
X012325Y011716D01*
X012315Y011702D01*
X012308Y011686D01*
X012304Y011669D01*
X012302Y011652D01*
X012302Y010952D01*
X012304Y010935D01*
X012308Y010918D01*
X012315Y010902D01*
X012325Y010888D01*
X012338Y010875D01*
X012352Y010865D01*
X012368Y010858D01*
X012385Y010854D01*
X012402Y010852D01*
X012552Y010852D01*
X012602Y010902D01*
X014502Y010902D01*
X014552Y010852D01*
X014702Y010852D01*
X014719Y010854D01*
X014736Y010858D01*
X014752Y010865D01*
X014766Y010875D01*
X014779Y010888D01*
X014789Y010902D01*
X014796Y010918D01*
X014800Y010935D01*
X014802Y010952D01*
X014802Y011652D01*
X014800Y011669D01*
X014796Y011686D01*
X014789Y011702D01*
X014779Y011716D01*
X014766Y011729D01*
X014752Y011739D01*
X014736Y011746D01*
X014719Y011750D01*
X014702Y011752D01*
X014702Y010252D02*
X014552Y010252D01*
X014502Y010202D01*
X012602Y010202D01*
X012552Y010252D01*
X012402Y010252D01*
X012385Y010250D01*
X012368Y010246D01*
X012352Y010239D01*
X012338Y010229D01*
X012325Y010216D01*
X012315Y010202D01*
X012308Y010186D01*
X012304Y010169D01*
X012302Y010152D01*
X012302Y009452D01*
X012304Y009435D01*
X012308Y009418D01*
X012315Y009402D01*
X012325Y009388D01*
X012338Y009375D01*
X012352Y009365D01*
X012368Y009358D01*
X012385Y009354D01*
X012402Y009352D01*
X012552Y009352D01*
X012602Y009402D01*
X014502Y009402D01*
X014552Y009352D01*
X014702Y009352D01*
X014719Y009354D01*
X014736Y009358D01*
X014752Y009365D01*
X014766Y009375D01*
X014779Y009388D01*
X014789Y009402D01*
X014796Y009418D01*
X014800Y009435D01*
X014802Y009452D01*
X014802Y010152D01*
X014800Y010169D01*
X014796Y010186D01*
X014789Y010202D01*
X014779Y010216D01*
X014766Y010229D01*
X014752Y010239D01*
X014736Y010246D01*
X014719Y010250D01*
X014702Y010252D01*
X014702Y008752D02*
X014552Y008752D01*
X014502Y008702D01*
X012602Y008702D01*
X012552Y008752D01*
X012402Y008752D01*
X012385Y008750D01*
X012368Y008746D01*
X012352Y008739D01*
X012338Y008729D01*
X012325Y008716D01*
X012315Y008702D01*
X012308Y008686D01*
X012304Y008669D01*
X012302Y008652D01*
X012302Y007952D01*
X012304Y007935D01*
X012308Y007918D01*
X012315Y007902D01*
X012325Y007888D01*
X012338Y007875D01*
X012352Y007865D01*
X012368Y007858D01*
X012385Y007854D01*
X012402Y007852D01*
X012552Y007852D01*
X012602Y007902D01*
X014502Y007902D01*
X014552Y007852D01*
X014702Y007852D01*
X014719Y007854D01*
X014736Y007858D01*
X014752Y007865D01*
X014766Y007875D01*
X014779Y007888D01*
X014789Y007902D01*
X014796Y007918D01*
X014800Y007935D01*
X014802Y007952D01*
X014802Y008652D01*
X014800Y008669D01*
X014796Y008686D01*
X014789Y008702D01*
X014779Y008716D01*
X014766Y008729D01*
X014752Y008739D01*
X014736Y008746D01*
X014719Y008750D01*
X014702Y008752D01*
X011202Y006102D02*
X009902Y006102D01*
X009876Y006100D01*
X009850Y006095D01*
X009825Y006087D01*
X009802Y006075D01*
X009780Y006061D01*
X009761Y006043D01*
X009743Y006024D01*
X009729Y006002D01*
X009717Y005979D01*
X009709Y005954D01*
X009704Y005928D01*
X009702Y005902D01*
X010052Y005652D02*
X010432Y005652D01*
X010682Y005652D02*
X011052Y005652D01*
X011402Y005402D02*
X011400Y005376D01*
X011395Y005350D01*
X011387Y005325D01*
X011375Y005302D01*
X011361Y005280D01*
X011343Y005261D01*
X011324Y005243D01*
X011302Y005229D01*
X011279Y005217D01*
X011254Y005209D01*
X011228Y005204D01*
X011202Y005202D01*
X009902Y005202D01*
X009876Y005204D01*
X009850Y005209D01*
X009825Y005217D01*
X009802Y005229D01*
X009780Y005243D01*
X009761Y005261D01*
X009743Y005280D01*
X009729Y005302D01*
X009717Y005325D01*
X009709Y005350D01*
X009704Y005376D01*
X009702Y005402D01*
X009002Y004952D02*
X008902Y004852D01*
X008752Y004852D01*
X008752Y004752D01*
X008752Y003102D01*
X008902Y003102D01*
X008902Y003072D01*
X008902Y003052D01*
X008952Y003002D01*
X012852Y003002D01*
X012802Y002952D01*
X009002Y002952D01*
X009002Y002972D01*
X012802Y002972D01*
X012852Y003002D02*
X012902Y003052D01*
X012902Y004852D01*
X008902Y004852D01*
X008902Y004752D01*
X008902Y003102D01*
X008902Y003072D02*
X008752Y003072D01*
X008752Y003052D01*
X008702Y003002D01*
X008452Y003002D01*
X008502Y002952D01*
X008502Y002972D01*
X008652Y002972D01*
X008652Y002952D02*
X008502Y002952D01*
X008452Y003002D02*
X008402Y003052D01*
X008402Y004852D01*
X008752Y004852D01*
X008652Y004952D01*
X008502Y004952D01*
X008402Y004852D01*
X008752Y004752D02*
X008902Y004752D01*
X009002Y004952D02*
X012802Y004952D01*
X012902Y004852D01*
X012702Y003952D02*
X009902Y003952D01*
X009402Y003952D02*
X009402Y003452D01*
X009602Y003452D01*
X009602Y004452D01*
X009402Y004452D01*
X009402Y003952D01*
X009052Y003952D01*
X009152Y004202D02*
X009152Y004402D01*
X009052Y004302D02*
X009252Y004302D01*
X008902Y003052D02*
X008752Y003052D01*
X008752Y003072D02*
X008752Y003102D01*
X008702Y003002D02*
X008652Y002952D01*
X008952Y003002D02*
X009002Y002952D01*
X011402Y005902D02*
X011400Y005928D01*
X011395Y005954D01*
X011387Y005979D01*
X011375Y006002D01*
X011361Y006024D01*
X011343Y006043D01*
X011324Y006061D01*
X011302Y006075D01*
X011279Y006087D01*
X011254Y006095D01*
X011228Y006100D01*
X011202Y006102D01*
X017402Y003052D02*
X017402Y001552D01*
X017652Y001302D01*
X018152Y001302D01*
X018402Y001552D01*
X018402Y003052D01*
X018652Y003302D01*
X019152Y003302D01*
X019402Y003052D01*
X019652Y003302D01*
X020152Y003302D01*
X020402Y003052D01*
X020402Y001552D01*
X020152Y001302D01*
X019652Y001302D01*
X019402Y001552D01*
X019402Y003052D01*
X018402Y003052D02*
X018152Y003302D01*
X017652Y003302D01*
X017402Y003052D01*
X018402Y001552D02*
X018652Y001302D01*
X019152Y001302D01*
X019402Y001552D01*
X008952Y010802D02*
X008907Y010804D01*
X008861Y010809D01*
X008817Y010817D01*
X008773Y010829D01*
X008730Y010845D01*
X008688Y010863D01*
X008648Y010885D01*
X008610Y010909D01*
X008574Y010936D01*
X008539Y010966D01*
X008508Y010999D01*
X008478Y011034D01*
X008952Y010802D02*
X008997Y010804D01*
X009043Y010809D01*
X009087Y010817D01*
X009131Y010829D01*
X009174Y010845D01*
X009216Y010863D01*
X009256Y010885D01*
X009294Y010909D01*
X009330Y010936D01*
X009365Y010966D01*
X009396Y010999D01*
X009426Y011034D01*
X008952Y012002D02*
X008906Y012000D01*
X008860Y011995D01*
X008814Y011986D01*
X008769Y011974D01*
X008726Y011958D01*
X008684Y011939D01*
X008643Y011916D01*
X008604Y011891D01*
X008568Y011863D01*
X008533Y011832D01*
X008501Y011798D01*
X008472Y011762D01*
X008952Y012002D02*
X008999Y012000D01*
X009047Y011994D01*
X009093Y011985D01*
X009139Y011972D01*
X009183Y011956D01*
X009227Y011936D01*
X009268Y011912D01*
X009307Y011886D01*
X009344Y011856D01*
X009379Y011823D01*
X009411Y011788D01*
X009440Y011751D01*
D13*
X004689Y012989D02*
X014216Y012989D01*
X014216Y023385D01*
X011726Y025875D01*
X007179Y025875D01*
X004689Y023385D01*
X004689Y012989D01*
X016999Y016925D02*
X016999Y007122D01*
X017688Y007122D01*
X017688Y005980D01*
X018732Y005980D01*
X019808Y005980D02*
X025132Y005980D01*
X028652Y005980D02*
X028652Y016045D01*
X027492Y016925D02*
X026279Y016925D01*
X024932Y016925D02*
X020079Y016925D01*
X018892Y016925D02*
X018319Y016925D01*
D14*
X016552Y022952D02*
X016550Y023006D01*
X016545Y023060D01*
X016536Y023113D01*
X016523Y023166D01*
X016507Y023217D01*
X016487Y023267D01*
X016464Y023316D01*
X016438Y023364D01*
X016409Y023409D01*
X016376Y023452D01*
X016341Y023493D01*
X016303Y023532D01*
X016263Y023568D01*
X016220Y023601D01*
X016175Y023631D01*
X016128Y023658D01*
X015355Y023647D02*
X015307Y023617D01*
X015262Y023584D01*
X015219Y023548D01*
X015178Y023510D01*
X015141Y023468D01*
X015106Y023424D01*
X015075Y023378D01*
X015046Y023329D01*
X015022Y023279D01*
X015001Y023227D01*
X014983Y023173D01*
X014970Y023119D01*
X014960Y023064D01*
X014954Y023008D01*
X014952Y022952D01*
X014954Y022899D01*
X014959Y022845D01*
X014968Y022793D01*
X014980Y022741D01*
X014996Y022690D01*
X015015Y022640D01*
X015038Y022591D01*
X015064Y022544D01*
X015092Y022499D01*
X015124Y022456D01*
X015158Y022416D01*
X015196Y022377D01*
X015235Y022341D01*
X016264Y022337D02*
X016304Y022373D01*
X016342Y022412D01*
X016377Y022453D01*
X016409Y022496D01*
X016439Y022541D01*
X016465Y022588D01*
X016487Y022637D01*
X016507Y022688D01*
X016523Y022739D01*
X016536Y022791D01*
X016545Y022845D01*
X016550Y022898D01*
X016552Y022952D01*
X002335Y022791D02*
X002296Y022827D01*
X002258Y022866D01*
X002224Y022906D01*
X002192Y022949D01*
X002164Y022994D01*
X002138Y023041D01*
X002115Y023090D01*
X002096Y023140D01*
X002080Y023191D01*
X002068Y023243D01*
X002059Y023295D01*
X002054Y023349D01*
X002052Y023402D01*
X002054Y023458D01*
X002060Y023514D01*
X002070Y023569D01*
X002083Y023623D01*
X002101Y023677D01*
X002122Y023729D01*
X002146Y023779D01*
X002175Y023828D01*
X002206Y023874D01*
X002241Y023918D01*
X002278Y023960D01*
X002319Y023998D01*
X002362Y024034D01*
X002407Y024067D01*
X002455Y024097D01*
X003652Y023402D02*
X003650Y023348D01*
X003645Y023295D01*
X003636Y023241D01*
X003623Y023189D01*
X003607Y023138D01*
X003587Y023087D01*
X003565Y023038D01*
X003539Y022991D01*
X003509Y022946D01*
X003477Y022903D01*
X003442Y022862D01*
X003404Y022823D01*
X003364Y022787D01*
X003652Y023402D02*
X003650Y023456D01*
X003645Y023510D01*
X003636Y023563D01*
X003623Y023616D01*
X003607Y023667D01*
X003587Y023717D01*
X003564Y023766D01*
X003538Y023814D01*
X003509Y023859D01*
X003476Y023902D01*
X003441Y023943D01*
X003403Y023982D01*
X003363Y024018D01*
X003320Y024051D01*
X003275Y024081D01*
X003228Y024108D01*
X008257Y011005D02*
X008287Y010957D01*
X008320Y010912D01*
X008356Y010869D01*
X008394Y010828D01*
X008436Y010791D01*
X008480Y010756D01*
X008526Y010725D01*
X008575Y010696D01*
X008625Y010672D01*
X008677Y010651D01*
X008731Y010633D01*
X008785Y010620D01*
X008840Y010610D01*
X008896Y010604D01*
X008952Y010602D01*
X009005Y010604D01*
X009059Y010609D01*
X009111Y010618D01*
X009163Y010630D01*
X009214Y010646D01*
X009264Y010665D01*
X009313Y010688D01*
X009360Y010714D01*
X009405Y010742D01*
X009448Y010774D01*
X009488Y010808D01*
X009527Y010846D01*
X009563Y010885D01*
X008952Y012202D02*
X008898Y012200D01*
X008844Y012195D01*
X008791Y012186D01*
X008738Y012173D01*
X008687Y012157D01*
X008637Y012137D01*
X008588Y012114D01*
X008540Y012088D01*
X008495Y012059D01*
X008452Y012026D01*
X008411Y011991D01*
X008372Y011953D01*
X008336Y011913D01*
X008303Y011870D01*
X008273Y011825D01*
X008246Y011778D01*
X008952Y012202D02*
X009006Y012200D01*
X009059Y012195D01*
X009113Y012186D01*
X009165Y012173D01*
X009216Y012157D01*
X009267Y012137D01*
X009316Y012115D01*
X009363Y012089D01*
X009408Y012059D01*
X009451Y012027D01*
X009492Y011992D01*
X009531Y011954D01*
X009567Y011914D01*
D15*
X015752Y017082D03*
X015752Y019922D03*
X002852Y018582D03*
X002852Y021422D03*
D16*
X006702Y021972D02*
X007002Y021972D01*
X007302Y021972D01*
X007302Y022222D02*
X007002Y022222D01*
X006702Y022222D01*
X010432Y005952D02*
X010432Y005652D01*
X010432Y005352D01*
X010682Y005352D02*
X010682Y005652D01*
X010682Y005952D01*
X009002Y004902D02*
X012802Y004902D01*
X008852Y004802D02*
X008802Y004802D01*
X008652Y004902D02*
X008502Y004902D01*
D17*
X012132Y008302D03*
X012132Y009802D03*
X012132Y011302D03*
X012132Y012802D03*
X012132Y014252D03*
X014972Y014252D03*
X014972Y012802D03*
X014972Y011302D03*
X014972Y009802D03*
X014972Y008302D03*
D18*
X009852Y003952D03*
D19*
X008252Y003952D03*
X013052Y003952D03*
M02*
