G75*
G70*
%OFA0B0*%
%FSLAX24Y24*%
%IPPOS*%
%LPD*%
%AMOC8*
5,1,8,0,0,1.08239X$1,22.5*
%
%ADD10OC8,0.0600*%
%ADD11C,0.0515*%
%ADD12OC8,0.0520*%
%ADD13C,0.0850*%
%ADD14OC8,0.0850*%
%ADD15C,0.0240*%
%ADD16R,0.0396X0.0396*%
D10*
X017902Y001802D03*
X018902Y001802D03*
X019902Y001802D03*
X019902Y002802D03*
X018902Y002802D03*
X017902Y002802D03*
X019202Y022652D03*
X019202Y023652D03*
X020202Y023652D03*
X020202Y022652D03*
X021202Y022652D03*
X021202Y023652D03*
D11*
X013783Y023346D03*
X013783Y022558D03*
X013783Y021771D03*
X013783Y020983D03*
X013783Y020196D03*
X013783Y019409D03*
X013783Y018621D03*
X013783Y017834D03*
X013783Y017046D03*
X013783Y016259D03*
X005122Y016259D03*
X005122Y017046D03*
X005122Y017834D03*
X005122Y018621D03*
X005122Y019409D03*
X005122Y020196D03*
X005122Y020983D03*
X005122Y021771D03*
X005122Y022558D03*
X005122Y023346D03*
D12*
X007002Y023102D03*
X007002Y021102D03*
X002852Y022002D03*
X002852Y022902D03*
X002852Y023902D03*
X002852Y018002D03*
X008452Y011402D03*
X009452Y011402D03*
X011552Y011302D03*
X011552Y009802D03*
X011552Y008302D03*
X011552Y005652D03*
X009552Y005652D03*
X015552Y008302D03*
X015552Y009802D03*
X015552Y011302D03*
X015552Y012802D03*
X015552Y014252D03*
X015752Y016502D03*
X011552Y014252D03*
X011552Y012802D03*
X015752Y020502D03*
X015752Y022452D03*
X015752Y023452D03*
D13*
X007652Y003952D03*
D14*
X013652Y003952D03*
D15*
X002393Y000851D02*
X002376Y000822D01*
X018817Y000822D01*
X018563Y001076D01*
X018502Y001223D01*
X018502Y001382D01*
X018502Y001439D01*
X018402Y001539D01*
X018126Y001262D01*
X017679Y001262D01*
X017362Y001579D01*
X017362Y002026D01*
X017653Y002316D01*
X017382Y002587D01*
X017382Y002802D01*
X017902Y002802D01*
X017902Y002803D01*
X017902Y003322D01*
X017687Y003322D01*
X017382Y003018D01*
X017382Y002803D01*
X017902Y002803D01*
X017903Y002803D01*
X017903Y003322D01*
X018118Y003322D01*
X018388Y003052D01*
X018488Y003151D01*
X018463Y003176D01*
X018402Y003323D01*
X018402Y003482D01*
X018402Y004137D01*
X018337Y004202D01*
X015223Y004202D01*
X015076Y004263D01*
X014963Y004376D01*
X013576Y005763D01*
X013463Y005876D01*
X013402Y006023D01*
X013402Y007973D01*
X013402Y008132D01*
X013463Y008279D01*
X015052Y009868D01*
X015052Y010009D01*
X015345Y010302D01*
X015759Y010302D01*
X016052Y010009D01*
X016052Y009595D01*
X015759Y009302D01*
X015618Y009302D01*
X014202Y007887D01*
X014202Y006268D01*
X015468Y005002D01*
X018423Y005002D01*
X018537Y005002D01*
X018387Y005152D01*
X015923Y005152D01*
X015776Y005213D01*
X015663Y005326D01*
X015663Y005326D01*
X015326Y005663D01*
X015326Y005663D01*
X015213Y005776D01*
X015152Y005923D01*
X015152Y007995D01*
X015052Y008095D01*
X015052Y008509D01*
X015345Y008802D01*
X015759Y008802D01*
X016052Y008509D01*
X016052Y008095D01*
X015952Y007995D01*
X015952Y006168D01*
X016168Y005952D01*
X018473Y005952D01*
X018632Y005952D01*
X018779Y005891D01*
X020029Y004641D01*
X020141Y004529D01*
X020202Y004382D01*
X020202Y003368D01*
X020241Y003329D01*
X020302Y003182D01*
X020302Y003166D01*
X020442Y003026D01*
X020442Y002579D01*
X020166Y002302D01*
X020266Y002202D01*
X021237Y002202D01*
X021352Y002318D01*
X021352Y006837D01*
X017287Y010902D01*
X015859Y010902D01*
X015759Y010802D01*
X015345Y010802D01*
X015052Y011095D01*
X015052Y011509D01*
X015345Y011802D01*
X015759Y011802D01*
X015859Y011702D01*
X017532Y011702D01*
X017679Y011641D01*
X017791Y011529D01*
X022091Y007229D01*
X022102Y007202D01*
X022102Y007337D01*
X017037Y012402D01*
X015859Y012402D01*
X015759Y012302D01*
X015345Y012302D01*
X015052Y012595D01*
X015052Y013009D01*
X015345Y013302D01*
X015759Y013302D01*
X015859Y013202D01*
X017123Y013202D01*
X017282Y013202D01*
X017429Y013141D01*
X022841Y007729D01*
X022902Y007582D01*
X022902Y007423D01*
X022902Y001623D01*
X022841Y001476D01*
X022729Y001363D01*
X022188Y000822D01*
X028229Y000822D01*
X028212Y000851D01*
X028132Y001148D01*
X028132Y001456D01*
X028212Y001754D01*
X028366Y002021D01*
X028584Y002239D01*
X028851Y002393D01*
X029148Y002472D01*
X029456Y002472D01*
X029754Y002393D01*
X029782Y002376D01*
X029782Y024229D01*
X029754Y024212D01*
X029456Y024132D01*
X029148Y024132D01*
X028851Y024212D01*
X028584Y024366D01*
X028366Y024584D01*
X028212Y024851D01*
X028132Y025148D01*
X028132Y025456D01*
X028212Y025754D01*
X028229Y025782D01*
X002376Y025782D01*
X002393Y025754D01*
X002472Y025456D01*
X002472Y025148D01*
X002393Y024851D01*
X002239Y024584D01*
X002021Y024366D01*
X001754Y024212D01*
X001456Y024132D01*
X001148Y024132D01*
X000851Y024212D01*
X000822Y024229D01*
X000822Y002376D01*
X000851Y002393D01*
X001148Y002472D01*
X001456Y002472D01*
X001754Y002393D01*
X002021Y002239D01*
X002239Y002021D01*
X002393Y001754D01*
X002472Y001456D01*
X002472Y001148D01*
X002393Y000851D01*
X002437Y001018D02*
X018621Y001018D01*
X018502Y001257D02*
X002472Y001257D01*
X002462Y001495D02*
X017446Y001495D01*
X017362Y001734D02*
X002398Y001734D01*
X002267Y001972D02*
X017362Y001972D01*
X017547Y002211D02*
X002049Y002211D01*
X001543Y002449D02*
X017520Y002449D01*
X017382Y002688D02*
X000822Y002688D01*
X000822Y002926D02*
X017382Y002926D01*
X017530Y003165D02*
X000822Y003165D01*
X000822Y003403D02*
X007261Y003403D01*
X007276Y003389D02*
X007520Y003287D01*
X007785Y003287D01*
X008029Y003389D01*
X008216Y003576D01*
X008317Y003820D01*
X008317Y004085D01*
X008216Y004329D01*
X008029Y004516D01*
X007785Y004617D01*
X007520Y004617D01*
X007276Y004516D01*
X007089Y004329D01*
X006987Y004085D01*
X006987Y003820D01*
X007089Y003576D01*
X007276Y003389D01*
X007061Y003642D02*
X000822Y003642D01*
X000822Y003881D02*
X006987Y003881D01*
X007002Y004119D02*
X000822Y004119D01*
X000822Y004358D02*
X007117Y004358D01*
X007469Y004596D02*
X000822Y004596D01*
X000822Y004835D02*
X014504Y004835D01*
X014266Y005073D02*
X000822Y005073D01*
X000822Y005312D02*
X009186Y005312D01*
X009052Y005445D02*
X009345Y005152D01*
X009759Y005152D01*
X010052Y005445D01*
X010052Y005859D01*
X009759Y006152D01*
X009345Y006152D01*
X009052Y005859D01*
X009052Y005445D01*
X009052Y005550D02*
X000822Y005550D01*
X000822Y005789D02*
X009052Y005789D01*
X009220Y006027D02*
X000822Y006027D01*
X000822Y006266D02*
X013402Y006266D01*
X013402Y006504D02*
X000822Y006504D01*
X000822Y006743D02*
X013402Y006743D01*
X013402Y006982D02*
X000822Y006982D01*
X000822Y007220D02*
X013402Y007220D01*
X013402Y007459D02*
X000822Y007459D01*
X000822Y007697D02*
X013402Y007697D01*
X013402Y007936D02*
X011893Y007936D01*
X011759Y007802D02*
X012052Y008095D01*
X012052Y008509D01*
X011759Y008802D01*
X011345Y008802D01*
X011052Y008509D01*
X011052Y008095D01*
X011345Y007802D01*
X011759Y007802D01*
X012052Y008174D02*
X013420Y008174D01*
X013597Y008413D02*
X012052Y008413D01*
X011910Y008651D02*
X013836Y008651D01*
X014074Y008890D02*
X000822Y008890D01*
X000822Y009128D02*
X014313Y009128D01*
X014551Y009367D02*
X011796Y009367D01*
X011751Y009322D02*
X012032Y009604D01*
X012032Y009802D01*
X011553Y009802D01*
X011553Y009803D01*
X012032Y009803D01*
X012032Y010001D01*
X011751Y010282D01*
X011553Y010282D01*
X011553Y009803D01*
X011552Y009803D01*
X011552Y010282D01*
X011354Y010282D01*
X011072Y010001D01*
X011072Y009803D01*
X011552Y009803D01*
X011552Y009802D01*
X011553Y009802D01*
X011553Y009322D01*
X011751Y009322D01*
X011552Y009322D02*
X011552Y009802D01*
X011072Y009802D01*
X011072Y009604D01*
X011354Y009322D01*
X011552Y009322D01*
X011552Y009367D02*
X011553Y009367D01*
X011552Y009606D02*
X011553Y009606D01*
X011552Y009844D02*
X011553Y009844D01*
X011552Y010083D02*
X011553Y010083D01*
X011951Y010083D02*
X015126Y010083D01*
X015028Y009844D02*
X012032Y009844D01*
X012032Y009606D02*
X014790Y009606D01*
X015552Y009802D02*
X013802Y008052D01*
X013802Y006102D01*
X015302Y004602D01*
X018502Y004602D01*
X018802Y004302D01*
X018802Y003402D01*
X018902Y003302D01*
X018902Y002802D01*
X018474Y003165D02*
X018275Y003165D01*
X018402Y003403D02*
X014016Y003403D01*
X013919Y003307D02*
X014297Y003685D01*
X014297Y003952D01*
X013653Y003952D01*
X013653Y003953D01*
X014297Y003953D01*
X014297Y004219D01*
X013919Y004597D01*
X013653Y004597D01*
X013653Y003953D01*
X013652Y003953D01*
X013652Y004597D01*
X013385Y004597D01*
X013007Y004219D01*
X013007Y003953D01*
X013652Y003953D01*
X013652Y003952D01*
X013653Y003952D01*
X013653Y003307D01*
X013919Y003307D01*
X013652Y003307D02*
X013652Y003952D01*
X013007Y003952D01*
X013007Y003685D01*
X013385Y003307D01*
X013652Y003307D01*
X013652Y003403D02*
X013653Y003403D01*
X013652Y003642D02*
X013653Y003642D01*
X013652Y003881D02*
X013653Y003881D01*
X013652Y004119D02*
X013653Y004119D01*
X013652Y004358D02*
X013653Y004358D01*
X013652Y004596D02*
X013653Y004596D01*
X013921Y004596D02*
X014743Y004596D01*
X014981Y004358D02*
X014159Y004358D01*
X014297Y004119D02*
X018402Y004119D01*
X018402Y003881D02*
X014297Y003881D01*
X014254Y003642D02*
X018402Y003642D01*
X017903Y003165D02*
X017902Y003165D01*
X017902Y002926D02*
X017903Y002926D01*
X018902Y001802D02*
X018902Y001302D01*
X019302Y000902D01*
X021702Y000902D01*
X022502Y001702D01*
X022502Y007502D01*
X017202Y012802D01*
X015552Y012802D01*
X015227Y013184D02*
X011878Y013184D01*
X011759Y013302D02*
X012052Y013009D01*
X012052Y012595D01*
X011759Y012302D01*
X011345Y012302D01*
X011245Y012402D01*
X011018Y012402D01*
X009952Y011337D01*
X009952Y011195D01*
X009659Y010902D01*
X009245Y010902D01*
X008952Y011195D01*
X008659Y010902D01*
X008245Y010902D01*
X007952Y011195D01*
X007952Y011609D01*
X008245Y011902D01*
X008659Y011902D01*
X008952Y011609D01*
X008952Y011195D01*
X008952Y011609D01*
X009245Y011902D01*
X009387Y011902D01*
X010626Y013141D01*
X010773Y013202D01*
X010932Y013202D01*
X011245Y013202D01*
X011345Y013302D01*
X011759Y013302D01*
X012052Y012945D02*
X015052Y012945D01*
X015052Y012707D02*
X012052Y012707D01*
X011925Y012468D02*
X015180Y012468D01*
X015295Y011752D02*
X011809Y011752D01*
X011759Y011802D02*
X011345Y011802D01*
X011052Y011509D01*
X011052Y011095D01*
X011345Y010802D01*
X011759Y010802D01*
X012052Y011095D01*
X012052Y011509D01*
X011759Y011802D01*
X012048Y011514D02*
X015057Y011514D01*
X015052Y011275D02*
X012052Y011275D01*
X011994Y011037D02*
X015111Y011037D01*
X015552Y011302D02*
X017452Y011302D01*
X021752Y007002D01*
X021752Y002152D01*
X021402Y001802D01*
X019902Y001802D01*
X020258Y002211D02*
X021245Y002211D01*
X021352Y002449D02*
X020313Y002449D01*
X020442Y002688D02*
X021352Y002688D01*
X021352Y002926D02*
X020442Y002926D01*
X020303Y003165D02*
X021352Y003165D01*
X021352Y003403D02*
X020202Y003403D01*
X020202Y003642D02*
X021352Y003642D01*
X021352Y003881D02*
X020202Y003881D01*
X020202Y004119D02*
X021352Y004119D01*
X021352Y004358D02*
X020202Y004358D01*
X020074Y004596D02*
X021352Y004596D01*
X021352Y004835D02*
X019836Y004835D01*
X019597Y005073D02*
X021352Y005073D01*
X021352Y005312D02*
X019359Y005312D01*
X019120Y005550D02*
X021352Y005550D01*
X021352Y005789D02*
X018881Y005789D01*
X018552Y005552D02*
X019802Y004302D01*
X019802Y003202D01*
X019902Y003102D01*
X019902Y002802D01*
X018446Y001495D02*
X018359Y001495D01*
X022384Y001018D02*
X028167Y001018D01*
X028132Y001257D02*
X022622Y001257D01*
X022849Y001495D02*
X028143Y001495D01*
X028207Y001734D02*
X022902Y001734D01*
X022902Y001972D02*
X028338Y001972D01*
X028556Y002211D02*
X022902Y002211D01*
X022902Y002449D02*
X029062Y002449D01*
X029543Y002449D02*
X029782Y002449D01*
X029782Y002688D02*
X022902Y002688D01*
X022902Y002926D02*
X029782Y002926D01*
X029782Y003165D02*
X022902Y003165D01*
X022902Y003403D02*
X029782Y003403D01*
X029782Y003642D02*
X022902Y003642D01*
X022902Y003881D02*
X029782Y003881D01*
X029782Y004119D02*
X022902Y004119D01*
X022902Y004358D02*
X029782Y004358D01*
X029782Y004596D02*
X022902Y004596D01*
X022902Y004835D02*
X029782Y004835D01*
X029782Y005073D02*
X022902Y005073D01*
X022902Y005312D02*
X029782Y005312D01*
X029782Y005550D02*
X022902Y005550D01*
X022902Y005789D02*
X029782Y005789D01*
X029782Y006027D02*
X022902Y006027D01*
X022902Y006266D02*
X029782Y006266D01*
X029782Y006504D02*
X022902Y006504D01*
X022902Y006743D02*
X029782Y006743D01*
X029782Y006982D02*
X022902Y006982D01*
X022902Y007220D02*
X029782Y007220D01*
X029782Y007459D02*
X022902Y007459D01*
X022855Y007697D02*
X029782Y007697D01*
X029782Y007936D02*
X022635Y007936D01*
X022396Y008174D02*
X029782Y008174D01*
X029782Y008413D02*
X022158Y008413D01*
X021919Y008651D02*
X029782Y008651D01*
X029782Y008890D02*
X021680Y008890D01*
X021442Y009128D02*
X029782Y009128D01*
X029782Y009367D02*
X021203Y009367D01*
X020965Y009606D02*
X029782Y009606D01*
X029782Y009844D02*
X020726Y009844D01*
X020488Y010083D02*
X029782Y010083D01*
X029782Y010321D02*
X020249Y010321D01*
X020011Y010560D02*
X029782Y010560D01*
X029782Y010798D02*
X019772Y010798D01*
X019534Y011037D02*
X029782Y011037D01*
X029782Y011275D02*
X019295Y011275D01*
X019056Y011514D02*
X029782Y011514D01*
X029782Y011752D02*
X018818Y011752D01*
X018579Y011991D02*
X029782Y011991D01*
X029782Y012230D02*
X018341Y012230D01*
X018102Y012468D02*
X029782Y012468D01*
X029782Y012707D02*
X017864Y012707D01*
X017625Y012945D02*
X029782Y012945D01*
X029782Y013184D02*
X017327Y013184D01*
X017209Y012230D02*
X010845Y012230D01*
X010607Y011991D02*
X017448Y011991D01*
X017687Y011752D02*
X015809Y011752D01*
X017391Y010798D02*
X000822Y010798D01*
X000822Y010560D02*
X017629Y010560D01*
X017868Y010321D02*
X000822Y010321D01*
X000822Y010083D02*
X011154Y010083D01*
X011072Y009844D02*
X000822Y009844D01*
X000822Y009606D02*
X011072Y009606D01*
X011309Y009367D02*
X000822Y009367D01*
X000822Y008651D02*
X011194Y008651D01*
X011052Y008413D02*
X000822Y008413D01*
X000822Y008174D02*
X011052Y008174D01*
X011212Y007936D02*
X000822Y007936D01*
X000822Y011037D02*
X008111Y011037D01*
X007952Y011275D02*
X000822Y011275D01*
X000822Y011514D02*
X007952Y011514D01*
X008095Y011752D02*
X000822Y011752D01*
X000822Y011991D02*
X009475Y011991D01*
X009714Y012230D02*
X000822Y012230D01*
X000822Y012468D02*
X009952Y012468D01*
X010191Y012707D02*
X000822Y012707D01*
X000822Y012945D02*
X010429Y012945D01*
X010728Y013184D02*
X000822Y013184D01*
X000822Y013422D02*
X029782Y013422D01*
X029782Y013661D02*
X000822Y013661D01*
X000822Y013899D02*
X011198Y013899D01*
X011052Y014045D02*
X011345Y013752D01*
X011759Y013752D01*
X012052Y014045D01*
X012052Y014459D01*
X011759Y014752D01*
X011345Y014752D01*
X011052Y014459D01*
X011052Y014045D01*
X011052Y014138D02*
X000822Y014138D01*
X000822Y014376D02*
X011052Y014376D01*
X011208Y014615D02*
X000822Y014615D01*
X000822Y014854D02*
X029782Y014854D01*
X029782Y015092D02*
X000822Y015092D01*
X000822Y015331D02*
X029782Y015331D01*
X029782Y015569D02*
X000822Y015569D01*
X000822Y015808D02*
X004966Y015808D01*
X004938Y015817D02*
X005010Y015793D01*
X005084Y015782D01*
X005121Y015782D01*
X005121Y016259D01*
X004644Y016259D01*
X004644Y016221D01*
X004656Y016147D01*
X004679Y016076D01*
X004713Y016009D01*
X004757Y015948D01*
X004811Y015895D01*
X004871Y015851D01*
X004938Y015817D01*
X005121Y015808D02*
X005122Y015808D01*
X005122Y015782D02*
X005159Y015782D01*
X005233Y015793D01*
X005305Y015817D01*
X005372Y015851D01*
X005433Y015895D01*
X005486Y015948D01*
X005530Y016009D01*
X005564Y016076D01*
X005587Y016147D01*
X005599Y016221D01*
X005599Y016259D01*
X005599Y016297D01*
X005587Y016371D01*
X005564Y016442D01*
X005530Y016509D01*
X005486Y016570D01*
X005433Y016623D01*
X005415Y016636D01*
X005543Y016765D01*
X005619Y016947D01*
X005619Y017145D01*
X005543Y017328D01*
X005431Y017440D01*
X005543Y017552D01*
X005619Y017735D01*
X005619Y017933D01*
X005543Y018116D01*
X005431Y018228D01*
X005543Y018339D01*
X005619Y018522D01*
X005619Y018720D01*
X005543Y018903D01*
X005431Y019015D01*
X005543Y019127D01*
X005619Y019310D01*
X005619Y019508D01*
X005543Y019690D01*
X005431Y019802D01*
X005543Y019914D01*
X005619Y020097D01*
X005619Y020295D01*
X005543Y020478D01*
X005431Y020590D01*
X005543Y020702D01*
X005619Y020884D01*
X005619Y021082D01*
X005543Y021265D01*
X005431Y021377D01*
X005543Y021489D01*
X005619Y021672D01*
X005619Y021870D01*
X005543Y022053D01*
X005431Y022165D01*
X005543Y022276D01*
X005619Y022459D01*
X005619Y022657D01*
X005543Y022840D01*
X005431Y022952D01*
X005543Y023064D01*
X005619Y023247D01*
X005619Y023445D01*
X005543Y023627D01*
X005403Y023767D01*
X005221Y023843D01*
X005023Y023843D01*
X004840Y023767D01*
X004700Y023627D01*
X004624Y023445D01*
X004624Y023247D01*
X004700Y023064D01*
X004812Y022952D01*
X004700Y022840D01*
X004624Y022657D01*
X004624Y022459D01*
X004700Y022276D01*
X004812Y022165D01*
X004700Y022053D01*
X004624Y021870D01*
X004624Y021672D01*
X004700Y021489D01*
X004812Y021377D01*
X004700Y021265D01*
X004624Y021082D01*
X004624Y020884D01*
X004700Y020702D01*
X004812Y020590D01*
X004700Y020478D01*
X004676Y020420D01*
X004352Y020744D01*
X004352Y023182D01*
X004291Y023329D01*
X004179Y023441D01*
X004624Y023441D01*
X004642Y023203D02*
X004344Y023203D01*
X004352Y022964D02*
X004800Y022964D01*
X004652Y022725D02*
X004352Y022725D01*
X004352Y022487D02*
X004624Y022487D01*
X004728Y022248D02*
X004352Y022248D01*
X004352Y022010D02*
X004682Y022010D01*
X004624Y021771D02*
X004352Y021771D01*
X004352Y021533D02*
X004682Y021533D01*
X004729Y021294D02*
X004352Y021294D01*
X004352Y021056D02*
X004624Y021056D01*
X004652Y020817D02*
X004352Y020817D01*
X004517Y020579D02*
X004801Y020579D01*
X005443Y020579D02*
X013462Y020579D01*
X013473Y020590D02*
X013361Y020478D01*
X013286Y020295D01*
X013286Y020097D01*
X013361Y019914D01*
X013473Y019802D01*
X013361Y019690D01*
X013286Y019508D01*
X013286Y019310D01*
X013361Y019127D01*
X013473Y019015D01*
X013361Y018903D01*
X013286Y018720D01*
X013286Y018522D01*
X013361Y018339D01*
X013473Y018228D01*
X013361Y018116D01*
X013286Y017933D01*
X013286Y017735D01*
X013361Y017552D01*
X013473Y017440D01*
X013361Y017328D01*
X013286Y017145D01*
X013286Y016947D01*
X013361Y016765D01*
X013473Y016653D01*
X013361Y016541D01*
X013286Y016358D01*
X013286Y016160D01*
X013361Y015977D01*
X013501Y015837D01*
X013684Y015762D01*
X013882Y015762D01*
X014065Y015837D01*
X014205Y015977D01*
X014281Y016160D01*
X014281Y016358D01*
X014205Y016541D01*
X014093Y016653D01*
X014205Y016765D01*
X014281Y016947D01*
X014281Y017145D01*
X014205Y017328D01*
X014093Y017440D01*
X014205Y017552D01*
X014281Y017735D01*
X014281Y017933D01*
X014205Y018116D01*
X014093Y018228D01*
X014205Y018339D01*
X014281Y018522D01*
X014281Y018720D01*
X014205Y018903D01*
X014093Y019015D01*
X014205Y019127D01*
X014249Y019233D01*
X015079Y020063D01*
X015191Y020176D01*
X015252Y020323D01*
X015252Y022387D01*
X015252Y022245D01*
X015352Y022145D01*
X015352Y020809D01*
X015252Y020709D01*
X015252Y020295D01*
X015545Y020002D01*
X015959Y020002D01*
X016252Y020295D01*
X016252Y020709D01*
X016152Y020809D01*
X016152Y022145D01*
X016252Y022245D01*
X016252Y022659D01*
X015959Y022952D01*
X015818Y022952D01*
X015818Y022952D01*
X015959Y022952D01*
X016252Y023245D01*
X016252Y023659D01*
X015959Y023952D01*
X015545Y023952D01*
X015252Y023659D01*
X015252Y023518D01*
X014513Y022779D01*
X014452Y022632D01*
X014452Y022473D01*
X014452Y020568D01*
X014251Y020366D01*
X014205Y020478D01*
X014093Y020590D01*
X014205Y020702D01*
X014281Y020884D01*
X014281Y021082D01*
X014205Y021265D01*
X014093Y021377D01*
X014205Y021489D01*
X014281Y021672D01*
X014281Y021870D01*
X014205Y022053D01*
X014093Y022165D01*
X014205Y022276D01*
X014281Y022459D01*
X014281Y022657D01*
X014205Y022840D01*
X014093Y022952D01*
X014205Y023064D01*
X014281Y023247D01*
X014281Y023445D01*
X014205Y023627D01*
X014065Y023767D01*
X013882Y023843D01*
X013684Y023843D01*
X013501Y023767D01*
X013361Y023627D01*
X013286Y023445D01*
X013286Y023247D01*
X013361Y023064D01*
X013473Y022952D01*
X013361Y022840D01*
X013286Y022657D01*
X013286Y022459D01*
X013361Y022276D01*
X013473Y022165D01*
X013361Y022053D01*
X013286Y021870D01*
X013286Y021672D01*
X013361Y021489D01*
X013473Y021377D01*
X013361Y021265D01*
X013286Y021082D01*
X013286Y020884D01*
X013361Y020702D01*
X013473Y020590D01*
X013314Y020817D02*
X007396Y020817D01*
X007482Y020904D02*
X007482Y021102D01*
X007003Y021102D01*
X007003Y021103D01*
X007002Y021103D01*
X007002Y021582D01*
X006804Y021582D01*
X006522Y021301D01*
X006522Y021103D01*
X007002Y021103D01*
X007002Y021102D01*
X006522Y021102D01*
X006522Y020904D01*
X006804Y020622D01*
X007002Y020622D01*
X007002Y021102D01*
X007003Y021102D01*
X007003Y020622D01*
X007201Y020622D01*
X007482Y020904D01*
X007482Y021056D02*
X013286Y021056D01*
X013390Y021294D02*
X007482Y021294D01*
X007482Y021301D02*
X007201Y021582D01*
X007003Y021582D01*
X007003Y021103D01*
X007482Y021103D01*
X007482Y021301D01*
X007251Y021533D02*
X013343Y021533D01*
X013286Y021771D02*
X005619Y021771D01*
X005561Y021533D02*
X006754Y021533D01*
X007002Y021533D02*
X007003Y021533D01*
X007002Y021294D02*
X007003Y021294D01*
X007002Y021056D02*
X007003Y021056D01*
X007002Y020817D02*
X007003Y020817D01*
X006609Y020817D02*
X005591Y020817D01*
X005619Y021056D02*
X006522Y021056D01*
X006522Y021294D02*
X005514Y021294D01*
X005561Y022010D02*
X013344Y022010D01*
X013389Y022248D02*
X005515Y022248D01*
X005619Y022487D02*
X013286Y022487D01*
X013314Y022725D02*
X007333Y022725D01*
X007209Y022602D02*
X007502Y022895D01*
X007502Y023309D01*
X007209Y023602D01*
X006795Y023602D01*
X006502Y023309D01*
X006502Y022895D01*
X006795Y022602D01*
X007209Y022602D01*
X006672Y022725D02*
X005591Y022725D01*
X005443Y022964D02*
X006502Y022964D01*
X006502Y023203D02*
X005601Y023203D01*
X005619Y023441D02*
X006634Y023441D01*
X007371Y023441D02*
X013286Y023441D01*
X013304Y023203D02*
X007502Y023203D01*
X007502Y022964D02*
X013461Y022964D01*
X014105Y022964D02*
X014698Y022964D01*
X014491Y022725D02*
X014252Y022725D01*
X014281Y022487D02*
X014452Y022487D01*
X014452Y022248D02*
X014177Y022248D01*
X014223Y022010D02*
X014452Y022010D01*
X014452Y021771D02*
X014281Y021771D01*
X014223Y021533D02*
X014452Y021533D01*
X014452Y021294D02*
X014176Y021294D01*
X014281Y021056D02*
X014452Y021056D01*
X014452Y020817D02*
X014253Y020817D01*
X014104Y020579D02*
X014452Y020579D01*
X014852Y020402D02*
X014852Y022552D01*
X015752Y023452D01*
X016252Y023441D02*
X018682Y023441D01*
X018682Y023437D02*
X018953Y023166D01*
X018662Y022876D01*
X018662Y022429D01*
X018979Y022112D01*
X019426Y022112D01*
X019702Y022389D01*
X019802Y022289D01*
X019802Y022268D01*
X019587Y022052D01*
X018668Y022052D01*
X017640Y023080D01*
X017640Y023198D01*
X017604Y023286D01*
X017536Y023354D01*
X017448Y023390D01*
X016956Y023390D01*
X016868Y023354D01*
X016801Y023286D01*
X016764Y023198D01*
X016764Y022706D01*
X016801Y022618D01*
X016868Y022551D01*
X016956Y022514D01*
X017075Y022514D01*
X018276Y021313D01*
X018423Y021252D01*
X018582Y021252D01*
X019832Y021252D01*
X019979Y021313D01*
X020091Y021426D01*
X020541Y021876D01*
X020602Y022023D01*
X020602Y022182D01*
X020602Y022289D01*
X020702Y022389D01*
X020979Y022112D01*
X021426Y022112D01*
X021742Y022429D01*
X021742Y022876D01*
X021466Y023152D01*
X021742Y023429D01*
X021742Y023876D01*
X021426Y024192D01*
X020979Y024192D01*
X020702Y023916D01*
X020426Y024192D01*
X019979Y024192D01*
X019688Y023902D01*
X019418Y024172D01*
X019203Y024172D01*
X019203Y023653D01*
X019202Y023653D01*
X019202Y024172D01*
X018987Y024172D01*
X018682Y023868D01*
X018682Y023653D01*
X019202Y023653D01*
X019202Y023652D01*
X018682Y023652D01*
X018682Y023437D01*
X018682Y023680D02*
X016232Y023680D01*
X015994Y023918D02*
X018733Y023918D01*
X018971Y024157D02*
X003464Y024157D01*
X003379Y024241D02*
X003232Y024302D01*
X003159Y024302D01*
X003059Y024402D01*
X002645Y024402D01*
X002352Y024109D01*
X002352Y023695D01*
X002645Y023402D01*
X003059Y023402D01*
X002645Y023402D01*
X002352Y023109D01*
X002352Y022695D01*
X002452Y022595D01*
X002452Y022309D01*
X002352Y022209D01*
X002352Y021795D01*
X002645Y021502D01*
X003059Y021502D01*
X003352Y021795D01*
X003352Y022209D01*
X003252Y022309D01*
X003252Y022595D01*
X003352Y022695D01*
X003352Y023109D01*
X003059Y023402D01*
X003073Y023416D01*
X003552Y022937D01*
X003552Y020658D01*
X003552Y020498D01*
X003613Y020351D01*
X004624Y019340D01*
X004624Y019310D01*
X004700Y019127D01*
X004812Y019015D01*
X004700Y018903D01*
X004624Y018720D01*
X004624Y018522D01*
X004700Y018339D01*
X004812Y018228D01*
X004700Y018116D01*
X004624Y017933D01*
X004624Y017735D01*
X004700Y017552D01*
X004812Y017440D01*
X004700Y017328D01*
X004624Y017145D01*
X004624Y016947D01*
X004700Y016765D01*
X004828Y016636D01*
X004811Y016623D01*
X004757Y016570D01*
X004713Y016509D01*
X004679Y016442D01*
X004656Y016371D01*
X004644Y016297D01*
X004644Y016259D01*
X005121Y016259D01*
X005121Y016259D01*
X005122Y016259D01*
X005599Y016259D01*
X005122Y016259D01*
X005122Y016259D01*
X005122Y015782D01*
X005278Y015808D02*
X013573Y015808D01*
X013333Y016046D02*
X005549Y016046D01*
X005599Y016285D02*
X013286Y016285D01*
X013354Y016523D02*
X005520Y016523D01*
X005541Y016762D02*
X013364Y016762D01*
X013286Y017000D02*
X005619Y017000D01*
X005580Y017239D02*
X013324Y017239D01*
X013436Y017477D02*
X005469Y017477D01*
X005611Y017716D02*
X013293Y017716D01*
X013295Y017955D02*
X005610Y017955D01*
X005466Y018193D02*
X013439Y018193D01*
X013323Y018432D02*
X005582Y018432D01*
X005619Y018670D02*
X013286Y018670D01*
X013367Y018909D02*
X005538Y018909D01*
X005552Y019147D02*
X013353Y019147D01*
X013286Y019386D02*
X005619Y019386D01*
X005571Y019624D02*
X013334Y019624D01*
X013413Y019863D02*
X005492Y019863D01*
X005619Y020101D02*
X013286Y020101D01*
X013304Y020340D02*
X005600Y020340D01*
X005122Y019409D02*
X003952Y020578D01*
X003952Y023102D01*
X003152Y023902D01*
X002852Y023902D01*
X002352Y023918D02*
X000822Y023918D01*
X000822Y023680D02*
X002368Y023680D01*
X002607Y023441D02*
X000822Y023441D01*
X000822Y023203D02*
X002445Y023203D01*
X002352Y022964D02*
X000822Y022964D01*
X000822Y022725D02*
X002352Y022725D01*
X002452Y022487D02*
X000822Y022487D01*
X000822Y022248D02*
X002391Y022248D01*
X002352Y022010D02*
X000822Y022010D01*
X000822Y021771D02*
X002376Y021771D01*
X002615Y021533D02*
X000822Y021533D01*
X000822Y021294D02*
X003552Y021294D01*
X003552Y021056D02*
X000822Y021056D01*
X000822Y020817D02*
X003552Y020817D01*
X003552Y020579D02*
X000822Y020579D01*
X000822Y020340D02*
X003625Y020340D01*
X003863Y020101D02*
X000822Y020101D01*
X000822Y019863D02*
X004102Y019863D01*
X004340Y019624D02*
X000822Y019624D01*
X000822Y019386D02*
X004579Y019386D01*
X004691Y019147D02*
X000822Y019147D01*
X000822Y018909D02*
X004706Y018909D01*
X004624Y018670D02*
X000822Y018670D01*
X000822Y018432D02*
X002603Y018432D01*
X002654Y018482D02*
X002372Y018201D01*
X002372Y018003D01*
X002852Y018003D01*
X002852Y018482D01*
X002654Y018482D01*
X002853Y018482D02*
X002853Y018003D01*
X002852Y018003D01*
X002852Y018002D01*
X002372Y018002D01*
X002372Y017804D01*
X002654Y017522D01*
X002852Y017522D01*
X002852Y018002D01*
X002853Y018002D01*
X002853Y018003D01*
X003332Y018003D01*
X003332Y018201D01*
X003051Y018482D01*
X002853Y018482D01*
X002852Y018432D02*
X002853Y018432D01*
X002852Y018193D02*
X002853Y018193D01*
X002853Y018002D02*
X003332Y018002D01*
X003332Y017804D01*
X003051Y017522D01*
X002853Y017522D01*
X002853Y018002D01*
X002852Y017955D02*
X002853Y017955D01*
X002852Y017716D02*
X002853Y017716D01*
X003245Y017716D02*
X004632Y017716D01*
X004633Y017955D02*
X003332Y017955D01*
X003332Y018193D02*
X004777Y018193D01*
X004662Y018432D02*
X003102Y018432D01*
X002372Y018193D02*
X000822Y018193D01*
X000822Y017955D02*
X002372Y017955D01*
X002460Y017716D02*
X000822Y017716D01*
X000822Y017477D02*
X004774Y017477D01*
X004663Y017239D02*
X000822Y017239D01*
X000822Y017000D02*
X004624Y017000D01*
X004703Y016762D02*
X000822Y016762D01*
X000822Y016523D02*
X004723Y016523D01*
X004644Y016285D02*
X000822Y016285D01*
X000822Y016046D02*
X004694Y016046D01*
X005121Y016046D02*
X005122Y016046D01*
X008809Y011752D02*
X009095Y011752D01*
X008952Y011514D02*
X008952Y011514D01*
X008952Y011275D02*
X008952Y011275D01*
X008794Y011037D02*
X009111Y011037D01*
X009452Y011402D02*
X010852Y012802D01*
X011552Y012802D01*
X011295Y011752D02*
X010368Y011752D01*
X010130Y011514D02*
X011057Y011514D01*
X011052Y011275D02*
X009952Y011275D01*
X009794Y011037D02*
X011111Y011037D01*
X011906Y013899D02*
X015198Y013899D01*
X015052Y014045D02*
X015345Y013752D01*
X015759Y013752D01*
X016052Y014045D01*
X016052Y014459D01*
X015759Y014752D01*
X015345Y014752D01*
X015052Y014459D01*
X015052Y014045D01*
X015052Y014138D02*
X012052Y014138D01*
X012052Y014376D02*
X015052Y014376D01*
X015208Y014615D02*
X011897Y014615D01*
X013993Y015808D02*
X029782Y015808D01*
X029782Y016046D02*
X015975Y016046D01*
X015951Y016022D02*
X016232Y016304D01*
X016232Y016502D01*
X015753Y016502D01*
X015753Y016503D01*
X015752Y016503D01*
X015752Y016982D01*
X015554Y016982D01*
X015272Y016701D01*
X015272Y016503D01*
X015752Y016503D01*
X015752Y016502D01*
X015272Y016502D01*
X015272Y016304D01*
X015554Y016022D01*
X015752Y016022D01*
X015752Y016502D01*
X015753Y016502D01*
X015753Y016022D01*
X015951Y016022D01*
X015753Y016046D02*
X015752Y016046D01*
X015530Y016046D02*
X014233Y016046D01*
X014281Y016285D02*
X015291Y016285D01*
X015272Y016523D02*
X014212Y016523D01*
X014202Y016762D02*
X015333Y016762D01*
X015752Y016762D02*
X015753Y016762D01*
X015753Y016982D02*
X015753Y016503D01*
X016232Y016503D01*
X016232Y016701D01*
X015951Y016982D01*
X015753Y016982D01*
X015752Y016523D02*
X015753Y016523D01*
X015752Y016285D02*
X015753Y016285D01*
X016214Y016285D02*
X029782Y016285D01*
X029782Y016523D02*
X016232Y016523D01*
X016172Y016762D02*
X029782Y016762D01*
X029782Y017000D02*
X014281Y017000D01*
X014242Y017239D02*
X029782Y017239D01*
X029782Y017477D02*
X014130Y017477D01*
X014273Y017716D02*
X029782Y017716D01*
X029782Y017955D02*
X014271Y017955D01*
X014127Y018193D02*
X029782Y018193D01*
X029782Y018432D02*
X014243Y018432D01*
X014281Y018670D02*
X029782Y018670D01*
X029782Y018909D02*
X014199Y018909D01*
X014213Y019147D02*
X029782Y019147D01*
X029782Y019386D02*
X014401Y019386D01*
X014640Y019624D02*
X029782Y019624D01*
X029782Y019863D02*
X014879Y019863D01*
X015117Y020101D02*
X015446Y020101D01*
X015252Y020340D02*
X015252Y020340D01*
X015252Y020579D02*
X015252Y020579D01*
X015252Y020817D02*
X015352Y020817D01*
X015352Y021056D02*
X015252Y021056D01*
X015252Y021294D02*
X015352Y021294D01*
X015352Y021533D02*
X015252Y021533D01*
X015252Y021771D02*
X015352Y021771D01*
X015352Y022010D02*
X015252Y022010D01*
X015252Y022248D02*
X015252Y022248D01*
X015252Y022387D02*
X015252Y022387D01*
X015752Y022452D02*
X015752Y020502D01*
X016252Y020579D02*
X029782Y020579D01*
X029782Y020817D02*
X016152Y020817D01*
X016152Y021056D02*
X029782Y021056D01*
X029782Y021294D02*
X019933Y021294D01*
X020198Y021533D02*
X029782Y021533D01*
X029782Y021771D02*
X020437Y021771D01*
X020597Y022010D02*
X029782Y022010D01*
X029782Y022248D02*
X021562Y022248D01*
X021742Y022487D02*
X029782Y022487D01*
X029782Y022725D02*
X021742Y022725D01*
X021654Y022964D02*
X029782Y022964D01*
X029782Y023203D02*
X021516Y023203D01*
X021742Y023441D02*
X029782Y023441D01*
X029782Y023680D02*
X021742Y023680D01*
X021700Y023918D02*
X029782Y023918D01*
X029782Y024157D02*
X029547Y024157D01*
X029057Y024157D02*
X021462Y024157D01*
X020943Y024157D02*
X020462Y024157D01*
X020700Y023918D02*
X020705Y023918D01*
X019943Y024157D02*
X019433Y024157D01*
X019203Y024157D02*
X019202Y024157D01*
X019202Y023918D02*
X019203Y023918D01*
X019202Y023680D02*
X019203Y023680D01*
X019672Y023918D02*
X019705Y023918D01*
X018917Y023203D02*
X017639Y023203D01*
X017756Y022964D02*
X018750Y022964D01*
X018662Y022725D02*
X017995Y022725D01*
X018233Y022487D02*
X018662Y022487D01*
X018843Y022248D02*
X018472Y022248D01*
X018502Y021652D02*
X017202Y022952D01*
X016764Y022964D02*
X015971Y022964D01*
X016186Y022725D02*
X016764Y022725D01*
X017102Y022487D02*
X016252Y022487D01*
X016252Y022248D02*
X017341Y022248D01*
X017579Y022010D02*
X016152Y022010D01*
X016152Y021771D02*
X017818Y021771D01*
X018056Y021533D02*
X016152Y021533D01*
X016152Y021294D02*
X018322Y021294D01*
X018502Y021652D02*
X019752Y021652D01*
X020202Y022102D01*
X020202Y022652D01*
X020602Y022248D02*
X020843Y022248D01*
X019783Y022248D02*
X019562Y022248D01*
X016766Y023203D02*
X016210Y023203D01*
X015511Y023918D02*
X003702Y023918D01*
X003941Y023680D02*
X004752Y023680D01*
X004179Y023441D02*
X003379Y024241D01*
X003067Y024395D02*
X028555Y024395D01*
X028337Y024634D02*
X002267Y024634D01*
X002398Y024872D02*
X028206Y024872D01*
X028142Y025111D02*
X002462Y025111D01*
X002472Y025349D02*
X028132Y025349D01*
X028168Y025588D02*
X002437Y025588D01*
X002638Y024395D02*
X002050Y024395D01*
X002400Y024157D02*
X001547Y024157D01*
X001057Y024157D02*
X000822Y024157D01*
X002852Y022902D02*
X002852Y022002D01*
X003352Y022010D02*
X003552Y022010D01*
X003552Y022248D02*
X003313Y022248D01*
X003252Y022487D02*
X003552Y022487D01*
X003552Y022725D02*
X003352Y022725D01*
X003352Y022964D02*
X003525Y022964D01*
X003286Y023203D02*
X003259Y023203D01*
X003328Y021771D02*
X003552Y021771D01*
X003552Y021533D02*
X003090Y021533D01*
X005491Y023680D02*
X013414Y023680D01*
X014153Y023680D02*
X015273Y023680D01*
X015175Y023441D02*
X014281Y023441D01*
X014262Y023203D02*
X014937Y023203D01*
X014852Y020402D02*
X013859Y019409D01*
X013783Y019409D01*
X016059Y020101D02*
X029782Y020101D01*
X029782Y020340D02*
X016252Y020340D01*
X015897Y014615D02*
X029782Y014615D01*
X029782Y014376D02*
X016052Y014376D01*
X016052Y014138D02*
X029782Y014138D01*
X029782Y013899D02*
X015906Y013899D01*
X017806Y011514D02*
X017925Y011514D01*
X018045Y011275D02*
X018164Y011275D01*
X018284Y011037D02*
X018402Y011037D01*
X018522Y010798D02*
X018641Y010798D01*
X018761Y010560D02*
X018879Y010560D01*
X018999Y010321D02*
X019118Y010321D01*
X019238Y010083D02*
X019356Y010083D01*
X019476Y009844D02*
X019595Y009844D01*
X019715Y009606D02*
X019833Y009606D01*
X019953Y009367D02*
X020072Y009367D01*
X020192Y009128D02*
X020311Y009128D01*
X020430Y008890D02*
X020549Y008890D01*
X020669Y008651D02*
X020788Y008651D01*
X020908Y008413D02*
X021026Y008413D01*
X021146Y008174D02*
X021265Y008174D01*
X021385Y007936D02*
X021503Y007936D01*
X021623Y007697D02*
X021742Y007697D01*
X021862Y007459D02*
X021980Y007459D01*
X022095Y007220D02*
X022102Y007220D01*
X021352Y006743D02*
X015952Y006743D01*
X015952Y006504D02*
X021352Y006504D01*
X021352Y006266D02*
X015952Y006266D01*
X016093Y006027D02*
X021352Y006027D01*
X021207Y006982D02*
X015952Y006982D01*
X015952Y007220D02*
X020969Y007220D01*
X020730Y007459D02*
X015952Y007459D01*
X015952Y007697D02*
X020492Y007697D01*
X020253Y007936D02*
X015952Y007936D01*
X016052Y008174D02*
X020015Y008174D01*
X019776Y008413D02*
X016052Y008413D01*
X015910Y008651D02*
X019538Y008651D01*
X019299Y008890D02*
X015206Y008890D01*
X015194Y008651D02*
X014967Y008651D01*
X015052Y008413D02*
X014729Y008413D01*
X014490Y008174D02*
X015052Y008174D01*
X015152Y007936D02*
X014251Y007936D01*
X014202Y007697D02*
X015152Y007697D01*
X015152Y007459D02*
X014202Y007459D01*
X014202Y007220D02*
X015152Y007220D01*
X015152Y006982D02*
X014202Y006982D01*
X014202Y006743D02*
X015152Y006743D01*
X015152Y006504D02*
X014202Y006504D01*
X014204Y006266D02*
X015152Y006266D01*
X015152Y006027D02*
X014443Y006027D01*
X014681Y005789D02*
X015208Y005789D01*
X015439Y005550D02*
X014920Y005550D01*
X015159Y005312D02*
X015677Y005312D01*
X015397Y005073D02*
X018466Y005073D01*
X018552Y005552D02*
X016002Y005552D01*
X015552Y006002D01*
X015552Y008302D01*
X015444Y009128D02*
X019061Y009128D01*
X018822Y009367D02*
X015824Y009367D01*
X016052Y009606D02*
X018583Y009606D01*
X018345Y009844D02*
X016052Y009844D01*
X015979Y010083D02*
X018106Y010083D01*
X013402Y006027D02*
X011856Y006027D01*
X011751Y006132D02*
X011553Y006132D01*
X011553Y005653D01*
X012032Y005653D01*
X012032Y005851D01*
X011751Y006132D01*
X011552Y006132D02*
X011354Y006132D01*
X011072Y005851D01*
X011072Y005653D01*
X011552Y005653D01*
X011552Y006132D01*
X011552Y006027D02*
X011553Y006027D01*
X011552Y005789D02*
X011553Y005789D01*
X011553Y005653D02*
X011552Y005653D01*
X011552Y005652D01*
X011553Y005652D01*
X011553Y005653D01*
X011553Y005652D02*
X012032Y005652D01*
X012032Y005454D01*
X011751Y005172D01*
X011553Y005172D01*
X011553Y005652D01*
X011552Y005652D02*
X011552Y005172D01*
X011354Y005172D01*
X011072Y005454D01*
X011072Y005652D01*
X011552Y005652D01*
X011552Y005550D02*
X011553Y005550D01*
X011552Y005312D02*
X011553Y005312D01*
X011891Y005312D02*
X014027Y005312D01*
X013789Y005550D02*
X012032Y005550D01*
X012032Y005789D02*
X013550Y005789D01*
X013384Y004596D02*
X007836Y004596D01*
X008188Y004358D02*
X013145Y004358D01*
X013007Y004119D02*
X008303Y004119D01*
X008317Y003881D02*
X013007Y003881D01*
X013051Y003642D02*
X008244Y003642D01*
X008044Y003403D02*
X013289Y003403D01*
X011214Y005312D02*
X009919Y005312D01*
X010052Y005550D02*
X011072Y005550D01*
X011072Y005789D02*
X010052Y005789D01*
X009884Y006027D02*
X011249Y006027D01*
X001062Y002449D02*
X000822Y002449D01*
D16*
X017202Y022952D03*
M02*
