%
M48
M72
T01C0.0236
T02C0.0315
T03C0.0320
T04C0.0400
T05C0.1300
%
T01
X17202Y22952
T02
X13783Y22558
X13783Y21771
X13783Y20983
X13783Y20196
X13783Y19409
X13783Y18621
X13783Y17834
X13783Y17046
X13783Y16259
X13783Y23346
X5122Y23346
X5122Y22558
X5122Y21771
X5122Y20983
X5122Y20196
X5122Y19409
X5122Y18621
X5122Y17834
X5122Y17046
X5122Y16259
T03
X2852Y18002
X7002Y21102
X7002Y23102
X2852Y22902
X2852Y23902
X2852Y22002
X11552Y14252
X11552Y12802
X11552Y11302
X11552Y9802
X11552Y8302
X11552Y5652
X9552Y5652
X7652Y3952
X13652Y3952
X15552Y8302
X15552Y9802
X15552Y11302
X15552Y12802
X15552Y14252
X15752Y16502
X15752Y20502
X15752Y22452
X15752Y23452
X9452Y11402
X8452Y11402
T04
X17902Y2802
X18902Y2802
X19902Y2802
X19902Y1802
X18902Y1802
X17902Y1802
X19202Y22652
X19202Y23652
X20202Y23652
X20202Y22652
X21202Y22652
X21202Y23652
T05
X1302Y1302
X29302Y1302
X29302Y25302
X1302Y25302
M30
