<?xml version="1.0" encoding="UTF-8" standalone="no"?>
<!-- Created with Inkscape (http://www.inkscape.org/) -->
<svg
   xmlns:dc="http://purl.org/dc/elements/1.1/"
   xmlns:cc="http://creativecommons.org/ns#"
   xmlns:rdf="http://www.w3.org/1999/02/22-rdf-syntax-ns#"
   xmlns:svg="http://www.w3.org/2000/svg"
   xmlns="http://www.w3.org/2000/svg"
   xmlns:sodipodi="http://sodipodi.sourceforge.net/DTD/sodipodi-0.dtd"
   xmlns:inkscape="http://www.inkscape.org/namespaces/inkscape"
   id="svg2403"
   sodipodi:version="0.32"
   inkscape:version="0.46"
   width="743.75"
   height="1052.5"
   xml:space="preserve"
   sodipodi:docname="xbee_top.svg"
   inkscape:output_extension="org.inkscape.output.svg.inkscape"><metadata
     id="metadata2408"><rdf:RDF><cc:Work
         rdf:about=""><dc:format>image/svg+xml</dc:format><dc:type
           rdf:resource="http://purl.org/dc/dcmitype/StillImage" /></cc:Work></rdf:RDF></metadata><defs
     id="defs2406"><inkscape:perspective
       sodipodi:type="inkscape:persp3d"
       inkscape:vp_x="0 : 526.18109 : 1"
       inkscape:vp_y="0 : 1000 : 0"
       inkscape:vp_z="744.09448 : 526.18109 : 1"
       inkscape:persp3d-origin="372.04724 : 350.78739 : 1"
       id="perspective2410" /></defs><sodipodi:namedview
     inkscape:window-height="979"
     inkscape:window-width="1680"
     inkscape:pageshadow="2"
     inkscape:pageopacity="0.0"
     guidetolerance="10.0"
     gridtolerance="10.0"
     objecttolerance="10.0"
     borderopacity="1.0"
     bordercolor="#666666"
     pagecolor="#ffffff"
     id="base"
     showgrid="false"
     inkscape:zoom="45.254834"
     inkscape:cx="383.00209"
     inkscape:cy="561.56052"
     inkscape:window-x="0"
     inkscape:window-y="24"
     inkscape:current-layer="g2414" /><g
     id="g2412"
     inkscape:groupmode="layer"
     inkscape:label="xbee_top"
     transform="matrix(1.25,0,0,-1.25,0,1052.5)"><g
       id="g2414"
       transform="matrix(0.12,0,0,0.12,5.9922192e-2,-2.6632085e-2)"><g
         id="g2416"
         transform="scale(8.33333,8.33333)"><text
           transform="matrix(1,0,0,-1,0.239531,3.08062)"
           id="text2418"><tspan
             style="font-size:10.07999992px;font-variant:normal;font-weight:normal;writing-mode:lr-tb;fill:#000000;fill-opacity:1;fill-rule:nonzero;stroke:none;font-family:Helvetica;-inkscape-font-specification:Helvetica"
             x="0 5.6400008 11.280002 14.640001 20.280003 25.920002 29.280003 34.920002 40.560001 46.199997 51.839996 54.599998 60.239998 65.879997 68.639999 74.280006 79.920006 82.680008 88.320007 93.960014 99.480019 108.00002 110.28001 113.64001 117.00002 122.64002 126.00002 131.64001 137.28001 142.8 150.12001 152.88 155.64 162.96001 168.00002 173.64001 177 182.04001 184.8 191.52 193.80002 199.44002 202.8 207.96001 213.60001 216.36 223.68001 229.32001 234.36002 240.00002 248.52002 254.16002 259.79999 262.56 267.60001 270.35999 275.99997 281.63995 287.27994 289.55997 295.19995 297.95993 303.11993 308.75992 314.3999 320.03992 322.7999 327.9599 333.59988 339.23987 344.87985 347.63986 353.27985 356.63986"
             y="0"
             sodipodi:role="line"
             id="tspan2420">24-09-2009 14:59:55 mirrored C:\Users\Bjarke\Documents\eagle\xbee\xbee.brd</tspan></text>
</g><path
         d="M 2438,3652.67 L 2454,3652.67 C 2454,3653.5539 2454,3660.67 2454,3660.67 L 2438,3660.67 L 2438,3652.67 z"
         style="fill:#000000;fill-opacity:1;fill-rule:evenodd;stroke:none"
         id="path2422"
         sodipodi:nodetypes="ccccc" /><path
         d="M 2438,3652.67 L 2454,3652.67 L 2454,3660.67 L 2438,3660.67 L 2438,3652.67 z"
         style="fill:none;stroke:#000000;stroke-width:1;stroke-linecap:round;stroke-linejoin:round;stroke-miterlimit:10;stroke-dasharray:none;stroke-opacity:1"
         id="path2424" /><path
         d="M 2437,3652.67 L 2443,3652.67 L 2443,3670.67 L 2437,3670.67 L 2437,3652.67 z"
         style="fill:#000000;fill-opacity:1;fill-rule:evenodd;stroke:none"
         id="path2426" /><path
         d="M 2437,3652.67 L 2443,3652.67 L 2443,3670.67 L 2437,3670.67 L 2437,3652.67 z"
         style="fill:none;stroke:#000000;stroke-width:1;stroke-linecap:round;stroke-linejoin:round;stroke-miterlimit:10;stroke-dasharray:none;stroke-opacity:1"
         id="path2428" /><path
         d="M 2437.0483,3763.662 L 2442.9517,3763.662 L 2442.9517,3786.6615 L 2437.0483,3786.6615 L 2437.0483,3763.662 z"
         style="fill:#000000;fill-opacity:1;fill-rule:evenodd;stroke:#000000;stroke-width:0.98390502;stroke-opacity:1"
         id="path2430" /><path
         d="M 2438,3778.67 L 2454,3778.67 L 2454,3786.67 L 2438,3786.67 L 2438,3778.67 z"
         style="fill:#000000;fill-opacity:1;fill-rule:evenodd;stroke:none"
         id="path2434" /><path
         d="M 2438,3778.67 L 2454,3778.67 L 2454,3786.67 L 2438,3786.67 L 2438,3778.67 z"
         style="fill:none;stroke:#000000;stroke-width:1;stroke-linecap:round;stroke-linejoin:round;stroke-miterlimit:10;stroke-dasharray:none;stroke-opacity:1"
         id="path2436" /><path
         d="M 2547,3778.67 L 2569,3778.67 L 2569,3786.67 L 2547,3786.67 L 2547,3778.67 z"
         style="fill:#000000;fill-opacity:1;fill-rule:evenodd;stroke:none"
         id="path2438" /><path
         d="M 2547,3778.67 L 2569,3778.67 L 2569,3786.67 L 2547,3786.67 L 2547,3778.67 z"
         style="fill:none;stroke:#000000;stroke-width:1;stroke-linecap:round;stroke-linejoin:round;stroke-miterlimit:10;stroke-dasharray:none;stroke-opacity:1"
         id="path2440" /><path
         d="M 2561,3763.67 L 2569,3763.67 L 2569,3781.67 L 2561,3781.67 L 2561,3763.67 z"
         style="fill:#000000;fill-opacity:1;fill-rule:evenodd;stroke:none"
         id="path2442" /><path
         d="M 2561,3763.67 L 2569,3763.67 L 2569,3781.67 L 2561,3781.67 L 2561,3763.67 z"
         style="fill:none;stroke:#000000;stroke-width:1;stroke-linecap:round;stroke-linejoin:round;stroke-miterlimit:10;stroke-dasharray:none;stroke-opacity:1"
         id="path2444" /><path
         d="M 2475.5693,3767.67 L 2480.313,3767.67 L 2480.313,3781.67 L 2475.5693,3781.67 L 2475.5693,3767.67 z"
         style="fill:#000000;fill-opacity:1;fill-rule:evenodd;stroke:none;stroke-width:1;stroke-miterlimit:4;stroke-dasharray:none;stroke-opacity:1"
         id="path2534" /><path
         d="M 2470.2184,3687.8883 L 2534.0763,3687.8883 L 2534.0763,3751.7462 L 2470.2184,3751.7462 L 2470.2184,3687.8883 z"
         style="fill:#000000;fill-opacity:1;fill-rule:evenodd;stroke:none"
         id="path2558" /><path
         d="M 2463,3680.67 L 2541,3680.67 L 2541,3758.67 L 2463,3758.67 L 2463,3680.67 z"
         style="fill:none;stroke:none;stroke-width:1;stroke-linecap:round;stroke-linejoin:round;stroke-miterlimit:10;stroke-dasharray:none;stroke-opacity:1;fill-opacity:1"
         id="path2560" /><path
         d="M 2546,3764.67 L 2556,3764.67 L 2556,3774.67 L 2546,3774.67 L 2546,3764.67 z"
         style="fill:#000000;fill-opacity:1;fill-rule:evenodd;stroke:none"
         id="path2562" /><path
         d="M 2546,3764.67 L 2556,3764.67 L 2556,3774.67 L 2546,3774.67 L 2546,3764.67 z"
         style="fill:none;stroke:#000000;stroke-width:1;stroke-linecap:round;stroke-linejoin:round;stroke-miterlimit:10;stroke-dasharray:none;stroke-opacity:1"
         id="path2564" /><path
         d="M 2790,3496.67 L 2486,3496.67 C 2479,3496.67 2474,3501.67 2474,3508.67 C 2474,3515.67 2479,3520.67 2486,3520.67 L 2790,3520.67 C 2797,3520.67 2802,3515.67 2802,3508.67 C 2802,3501.67 2797,3496.67 2790,3496.67"
         style="fill:#000000;fill-opacity:1;fill-rule:nonzero;stroke:none"
         id="path2566" /><path
         d="M 2778,3345.67 L 2778,3508.67 C 2778,3515.67 2783,3520.67 2790,3520.67 C 2797,3520.67 2802,3515.67 2802,3508.67 L 2802,3345.67 C 2802,3338.67 2797,3333.67 2790,3333.67 C 2783,3333.67 2778,3338.67 2778,3345.67"
         style="fill:#000000;fill-opacity:1;fill-rule:nonzero;stroke:none"
         id="path2568" /><path
         d="M 2702,3728.67 L 2623,3728.67 C 2621,3728.67 2620,3729.67 2620,3731.67 C 2620,3733.67 2621,3734.67 2623,3734.67 L 2702,3734.67 C 2704,3734.67 2705,3733.67 2705,3731.67 C 2705,3729.67 2704,3728.67 2702,3728.67"
         style="fill:#000000;fill-opacity:1;fill-rule:nonzero;stroke:none"
         id="path2570" /><path
         d="M 2699,3728.67 L 2699,3731.67 C 2699,3733.67 2700,3734.67 2702,3734.67 C 2704,3734.67 2705,3733.67 2705,3731.67 L 2705,3728.67 C 2705,3726.67 2704,3725.67 2702,3725.67 C 2700,3725.67 2699,3726.67 2699,3728.67"
         style="fill:#000000;fill-opacity:1;fill-rule:nonzero;stroke:none"
         id="path2572" /><path
         d="M 2618,3731.67 L 2618,4167.67 C 2618,4170.67 2620,4172.67 2623,4172.67 C 2626,4172.67 2628,4170.67 2628,4167.67 L 2628,3733.7533 C 2628,3730.7533 2626,3728.7533 2623,3728.7533 C 2620,3728.7533 2618,3730.7533 2618,3733.7533"
         style="fill:#000000;fill-opacity:1;fill-rule:nonzero;stroke:none"
         id="path2574"
         sodipodi:nodetypes="ccsccsc" /><path
         d="M 2623,3728.67 L 2564.125,3728.67 C 2562.125,3728.67 2561.125,3729.67 2561.125,3731.67 C 2561.125,3733.67 2562.125,3734.67 2564.125,3734.67 L 2623,3734.67 C 2625,3734.67 2626,3733.67 2626,3731.67 C 2626,3729.67 2625,3728.67 2623,3728.67"
         style="fill:#000000;fill-opacity:1;fill-rule:nonzero;stroke:none"
         id="path2576"
         sodipodi:nodetypes="ccsccsc" /><path
         d="M 2552,3669.67 L 2552,3684.67 C 2552,3686.67 2553,3687.67 2555,3687.67 C 2557,3687.67 2558,3686.67 2558,3684.67 L 2558,3669.67 C 2558,3667.67 2557,3666.67 2555,3666.67 C 2553,3666.67 2552,3667.67 2552,3669.67"
         style="fill:#000000;fill-opacity:1;fill-rule:nonzero;stroke:none"
         id="path2580" /><path
         d="M 2537,3672.67 L 2555,3672.67 C 2557,3672.67 2558,3671.67 2558,3669.67 C 2558,3667.67 2557,3666.67 2555,3666.67 L 2537,3666.67 C 2535,3666.67 2534,3667.67 2534,3669.67 C 2534,3671.67 2535,3672.67 2537,3672.67"
         style="fill:#000000;fill-opacity:1;fill-rule:nonzero;stroke:none"
         id="path2582" /><path
         d="M 2546,3622.67 L 2546,3651.67 C 2546,3653.67 2547,3654.67 2549,3654.67 C 2551,3654.67 2552,3653.67 2552,3651.67 L 2552,3622.67 C 2552,3620.67 2551,3619.67 2549,3619.67 C 2547,3619.67 2546,3620.67 2546,3622.67"
         style="fill:#000000;fill-opacity:1;fill-rule:nonzero;stroke:none"
         id="path2588" /><path
         d="M 2549,3648.67 L 2537,3648.67 C 2535,3648.67 2534,3649.67 2534,3651.67 C 2534,3653.67 2535,3654.67 2537,3654.67 L 2549,3654.67 C 2551,3654.67 2552,3653.67 2552,3651.67 C 2552,3649.67 2551,3648.67 2549,3648.67"
         style="fill:#000000;fill-opacity:1;fill-rule:nonzero;stroke:none"
         id="path2590" /><path
         d="M 2537,3654.67 L 2538,3654.67 C 2540,3654.67 2541,3653.67 2541,3651.67 C 2541,3649.67 2540,3648.67 2538,3648.67 L 2537,3648.67 C 2535,3648.67 2534,3649.67 2534,3651.67 C 2534,3653.67 2535,3654.67 2537,3654.67"
         style="fill:#000000;fill-opacity:1;fill-rule:nonzero;stroke:none"
         id="path2592" /><path
         d="M 2534,3651.67 L 2534,3669.8367 C 2534,3671.8367 2535,3672.8367 2537,3672.8367 C 2539,3672.8367 2540,3671.8367 2540,3669.8367 L 2540,3651.67 C 2540,3649.67 2539,3648.67 2537,3648.67 C 2535,3648.67 2534,3649.67 2534,3651.67"
         style="fill:#000000;fill-opacity:1;fill-rule:nonzero;stroke:none"
         id="path2594"
         sodipodi:nodetypes="ccsccsc" /><path
         d="M 2602,3562.67 L 2486,3563.67 C 2483,3563.67 2481,3565.67 2481,3568.67 C 2481,3571.67 2483,3573.67 2486,3573.67 L 2602,3572.67 C 2605,3572.67 2607,3570.67 2607,3567.67 C 2607,3564.67 2605,3562.67 2602,3562.67"
         style="fill:#000000;fill-opacity:1;fill-rule:nonzero;stroke:none"
         id="path2596" /><path
         d="M 2597,3567.67 L 2597,3657.67 C 2597,3660.67 2599,3662.67 2602,3662.67 C 2605,3662.67 2607,3660.67 2607,3657.67 L 2607,3567.67 C 2607,3564.67 2605,3562.67 2602,3562.67 C 2599,3562.67 2597,3564.67 2597,3567.67"
         style="fill:#000000;fill-opacity:1;fill-rule:nonzero;stroke:none"
         id="path2598" /><path
         d="M 2602,3693.67 L 2563.5,3693.67 C 2561.5,3693.67 2560.5,3694.67 2560.5,3696.67 C 2560.5,3698.67 2561.5,3699.67 2563.5,3699.67 L 2602,3699.67 C 2604,3699.67 2605,3698.67 2605,3696.67 C 2605,3694.67 2604,3693.67 2602,3693.67"
         style="fill:#000000;fill-opacity:1;fill-rule:nonzero;stroke:none"
         id="path2600"
         sodipodi:nodetypes="ccsccsc" /><path
         d="M 2599,3657.67 L 2599,3696.67 C 2599,3698.67 2600,3699.67 2602,3699.67 C 2604,3699.67 2605,3698.67 2605,3696.67 L 2605,3657.67 C 2605,3655.67 2604,3654.67 2602,3654.67 C 2600,3654.67 2599,3655.67 2599,3657.67"
         style="fill:#000000;fill-opacity:1;fill-rule:nonzero;stroke:none"
         id="path2602" /><path
         d="M 2499,3774.67 L 2499,3852.67 C 2499,3854.67 2500,3855.67 2502,3855.67 C 2504,3855.67 2505,3854.67 2505,3852.67 L 2505,3782.9089 C 2505,3780.9089 2504,3779.9089 2502,3779.9089 C 2500,3779.9089 2499,3780.9089 2499,3782.9089"
         style="fill:#000000;fill-opacity:1;fill-rule:nonzero;stroke:none"
         id="path2606"
         sodipodi:nodetypes="ccsccsc" /><path
         d="M 2502,3855.67 L 2531,3855.67 C 2533,3855.67 2534,3854.67 2534,3852.67 C 2534,3850.67 2533,3849.67 2531,3849.67 L 2502,3849.67 C 2500,3849.67 2499,3850.67 2499,3852.67 C 2499,3854.67 2500,3855.67 2502,3855.67"
         style="fill:#000000;fill-opacity:1;fill-rule:nonzero;stroke:none"
         id="path2608" /><path
         d="M 2510,3774.67 L 2510,3822.67 C 2510,3824.67 2511,3825.67 2513,3825.67 C 2515,3825.67 2516,3824.67 2516,3822.67 L 2516,3782.3303 C 2516,3780.3303 2515,3779.3303 2513,3779.3303 C 2511,3779.3303 2510,3780.3303 2510,3782.3303"
         style="fill:#000000;fill-opacity:1;fill-rule:nonzero;stroke:none"
         id="path2612"
         sodipodi:nodetypes="ccsccsc" /><path
         d="M 2513,3825.67 L 2578,3825.67 C 2580,3825.67 2581,3824.67 2581,3822.67 C 2581,3820.67 2580,3819.67 2578,3819.67 L 2513,3819.67 C 2511,3819.67 2510,3820.67 2510,3822.67 C 2510,3824.67 2511,3825.67 2513,3825.67"
         style="fill:#000000;fill-opacity:1;fill-rule:nonzero;stroke:none"
         id="path2614" /><path
         d="M 2575,3822.67 L 2575,3852.67 C 2575,3854.67 2576,3855.67 2578,3855.67 C 2580,3855.67 2581,3854.67 2581,3852.67 L 2581,3822.67 C 2581,3820.67 2580,3819.67 2578,3819.67 C 2576,3819.67 2575,3820.67 2575,3822.67"
         style="fill:#000000;fill-opacity:1;fill-rule:nonzero;stroke:none"
         id="path2616" /><path
         d="M 2475,3782.918 L 2475,3812.2886 C 2475,3813.8762 2476,3814.67 2478,3814.67 C 2480,3814.67 2481,3813.8762 2481,3812.2886 L 2481,3782.918 C 2481,3781.3304 2480,3780.5366 2478,3780.5366 C 2476,3780.5366 2475,3781.3304 2475,3782.918"
         style="fill:#000000;fill-opacity:1;fill-rule:nonzero;stroke:none"
         id="path2620"
         sodipodi:nodetypes="ccscssz" /><path
         d="M 2478,3808.67 L 2402,3808.67 C 2400,3808.67 2399,3809.67 2399,3811.67 C 2399,3813.67 2400,3814.67 2402,3814.67 L 2478,3814.67 C 2480,3814.67 2481,3813.67 2481,3811.67 C 2481,3809.67 2480,3808.67 2478,3808.67"
         style="fill:#000000;fill-opacity:1;fill-rule:nonzero;stroke:none"
         id="path2622" /><path
         d="M 2487,3774.67 L 2487,3852.67 C 2487,3854.67 2488,3855.67 2490,3855.67 C 2492,3855.67 2493,3854.67 2493,3852.67 L 2493,3783.3404 C 2493,3781.3404 2492,3780.3404 2490,3780.3404 C 2488,3780.3404 2487,3781.3404 2487,3783.3404"
         style="fill:#000000;fill-opacity:1;fill-rule:nonzero;stroke:none"
         id="path2626"
         sodipodi:nodetypes="ccsccsc" /><path
         d="M 2490,3849.67 L 2449,3849.67 C 2447,3849.67 2446,3850.67 2446,3852.67 C 2446,3854.67 2447,3855.67 2449,3855.67 L 2490,3855.67 C 2492,3855.67 2493,3854.67 2493,3852.67 C 2493,3850.67 2492,3849.67 2490,3849.67"
         style="fill:#000000;fill-opacity:1;fill-rule:nonzero;stroke:none"
         id="path2628" /><path
         d="M 2556,3722.67 L 2672,3722.67 C 2674,3722.67 2675,3721.67 2675,3719.67 C 2675,3717.67 2674,3716.67 2672,3716.67 L 2563.9167,3716.67 C 2561.9167,3716.67 2560.9167,3717.67 2560.9167,3719.67 C 2560.9167,3721.67 2561.9167,3722.67 2563.9167,3722.67"
         style="fill:#000000;fill-opacity:1;fill-rule:nonzero;stroke:none"
         id="path2630"
         sodipodi:nodetypes="ccsccsc" /><path
         d="M 2675,3719.67 L 2675,3687.67 C 2675,3685.67 2674,3684.67 2672,3684.67 C 2670,3684.67 2669,3685.67 2669,3687.67 L 2669,3719.67 C 2669,3721.67 2670,3722.67 2672,3722.67 C 2674,3722.67 2675,3721.67 2675,3719.67"
         style="fill:#000000;fill-opacity:1;fill-rule:nonzero;stroke:none"
         id="path2632" /><path
         d="M 2643,3705.67 L 2563.3958,3705.67 C 2561.3958,3705.67 2560.3958,3706.67 2560.3958,3708.67 C 2560.3958,3710.67 2561.3958,3711.67 2563.3958,3711.67 L 2643,3711.67 C 2645,3711.67 2646,3710.67 2646,3708.67 C 2646,3706.67 2645,3705.67 2643,3705.67"
         style="fill:#000000;fill-opacity:1;fill-rule:nonzero;stroke:none"
         id="path2634"
         sodipodi:nodetypes="ccsccsc" /><path
         d="M 2640,3651.67 L 2640,3708.67 C 2640,3710.67 2641,3711.67 2643,3711.67 C 2645,3711.67 2646,3710.67 2646,3708.67 L 2646,3651.67 C 2646,3649.67 2645,3648.67 2643,3648.67 C 2641,3648.67 2640,3649.67 2640,3651.67"
         style="fill:#000000;fill-opacity:1;fill-rule:nonzero;stroke:none"
         id="path2636" /><path
         d="M 2601,3191.67 L 2611,3181.67 L 2625,3181.67 L 2635,3191.67 L 2635,3205.67 L 2625,3215.67 L 2611,3215.67 L 2601,3205.67 L 2601,3191.67"
         style="fill:#000000;fill-opacity:1;fill-rule:evenodd;stroke:none"
         id="path2638" /><path
         d="M 2601,3191.67 L 2611,3181.67 L 2625,3181.67 L 2635,3191.67 L 2635,3205.67 L 2625,3215.67 L 2611,3215.67 L 2601,3205.67 L 2601,3191.67 z"
         style="fill:none;stroke:#000000;stroke-width:1;stroke-linecap:round;stroke-linejoin:round;stroke-miterlimit:10;stroke-dasharray:none;stroke-opacity:1"
         id="path2640" /><path
         d="M 2630,3198.67 C 2630,3192.67 2625,3187.67 2618,3187.67 C 2611,3187.67 2606,3192.67 2606,3198.67 C 2606,3204.67 2611,3209.67 2618,3209.67 C 2625,3209.67 2630,3204.67 2630,3198.67"
         style="fill:#ffffff;fill-opacity:1;fill-rule:evenodd;stroke:none"
         id="path2642" /><path
         d="M 2631,3198.67 C 2631,3191.67 2625,3186.67 2618,3186.67 C 2611,3186.67 2605,3191.67 2605,3198.67 C 2605,3205.67 2611,3210.67 2618,3210.67 C 2625,3210.67 2631,3205.67 2631,3198.67 z M 2629,3198.67 C 2629,3204.67 2624,3208.67 2618,3208.67 C 2612,3208.67 2607,3204.67 2607,3198.67 C 2607,3192.67 2612,3188.67 2618,3188.67 C 2624,3188.67 2629,3192.67 2629,3198.67"
         style="fill:#ffffff;fill-opacity:1;fill-rule:nonzero;stroke:none"
         id="path2644" /><path
         d="M 2660,3191.67 L 2670,3181.67 L 2684,3181.67 L 2694,3191.67 L 2694,3205.67 L 2684,3215.67 L 2670,3215.67 L 2660,3205.67 L 2660,3191.67"
         style="fill:#000000;fill-opacity:1;fill-rule:evenodd;stroke:none"
         id="path2646" /><path
         d="M 2660,3191.67 L 2670,3181.67 L 2684,3181.67 L 2694,3191.67 L 2694,3205.67 L 2684,3215.67 L 2670,3215.67 L 2660,3205.67 L 2660,3191.67 z"
         style="fill:none;stroke:#000000;stroke-width:1;stroke-linecap:round;stroke-linejoin:round;stroke-miterlimit:10;stroke-dasharray:none;stroke-opacity:1"
         id="path2648" /><path
         d="M 2689,3198.67 C 2689,3192.67 2684,3187.67 2677,3187.67 C 2670,3187.67 2665,3192.67 2665,3198.67 C 2665,3204.67 2670,3209.67 2677,3209.67 C 2684,3209.67 2689,3204.67 2689,3198.67"
         style="fill:#ffffff;fill-opacity:1;fill-rule:evenodd;stroke:none"
         id="path2650" /><path
         d="M 2690,3198.67 C 2690,3191.67 2684,3186.67 2677,3186.67 C 2670,3186.67 2664,3191.67 2664,3198.67 C 2664,3205.67 2670,3210.67 2677,3210.67 C 2684,3210.67 2690,3205.67 2690,3198.67 z M 2688,3198.67 C 2688,3204.67 2683,3208.67 2677,3208.67 C 2671,3208.67 2666,3204.67 2666,3198.67 C 2666,3192.67 2671,3188.67 2677,3188.67 C 2683,3188.67 2688,3192.67 2688,3198.67"
         style="fill:#ffffff;fill-opacity:1;fill-rule:nonzero;stroke:none"
         id="path2652" /><path
         d="M 2660,3144.67 L 2670,3134.67 L 2684,3134.67 L 2694,3144.67 L 2694,3158.67 L 2684,3168.67 L 2670,3168.67 L 2660,3158.67 L 2660,3144.67"
         style="fill:#000000;fill-opacity:1;fill-rule:evenodd;stroke:none"
         id="path2654" /><path
         d="M 2660,3144.67 L 2670,3134.67 L 2684,3134.67 L 2694,3144.67 L 2694,3158.67 L 2684,3168.67 L 2670,3168.67 L 2660,3158.67 L 2660,3144.67 z"
         style="fill:none;stroke:#000000;stroke-width:1;stroke-linecap:round;stroke-linejoin:round;stroke-miterlimit:10;stroke-dasharray:none;stroke-opacity:1"
         id="path2656" /><path
         d="M 2689,3151.67 C 2689,3145.67 2684,3140.67 2677,3140.67 C 2670,3140.67 2665,3145.67 2665,3151.67 C 2665,3157.67 2670,3162.67 2677,3162.67 C 2684,3162.67 2689,3157.67 2689,3151.67"
         style="fill:#ffffff;fill-opacity:1;fill-rule:evenodd;stroke:none"
         id="path2658" /><path
         d="M 2690,3151.67 C 2690,3144.67 2684,3139.67 2677,3139.67 C 2670,3139.67 2664,3144.67 2664,3151.67 C 2664,3158.67 2670,3163.67 2677,3163.67 C 2684,3163.67 2690,3158.67 2690,3151.67 z M 2688,3151.67 C 2688,3157.67 2683,3161.67 2677,3161.67 C 2671,3161.67 2666,3157.67 2666,3151.67 C 2666,3145.67 2671,3141.67 2677,3141.67 C 2683,3141.67 2688,3145.67 2688,3151.67"
         style="fill:#ffffff;fill-opacity:1;fill-rule:nonzero;stroke:none"
         id="path2660" /><path
         d="M 2601,3144.67 L 2611,3134.67 L 2625,3134.67 L 2635,3144.67 L 2635,3158.67 L 2625,3168.67 L 2611,3168.67 L 2601,3158.67 L 2601,3144.67"
         style="fill:#000000;fill-opacity:1;fill-rule:evenodd;stroke:none"
         id="path2662" /><path
         d="M 2601,3144.67 L 2611,3134.67 L 2625,3134.67 L 2635,3144.67 L 2635,3158.67 L 2625,3168.67 L 2611,3168.67 L 2601,3158.67 L 2601,3144.67 z"
         style="fill:none;stroke:#000000;stroke-width:1;stroke-linecap:round;stroke-linejoin:round;stroke-miterlimit:10;stroke-dasharray:none;stroke-opacity:1"
         id="path2664" /><path
         d="M 2630,3151.67 C 2630,3145.67 2625,3140.67 2618,3140.67 C 2611,3140.67 2606,3145.67 2606,3151.67 C 2606,3157.67 2611,3162.67 2618,3162.67 C 2625,3162.67 2630,3157.67 2630,3151.67"
         style="fill:#ffffff;fill-opacity:1;fill-rule:evenodd;stroke:none"
         id="path2666" /><path
         d="M 2631,3151.67 C 2631,3144.67 2625,3139.67 2618,3139.67 C 2611,3139.67 2605,3144.67 2605,3151.67 C 2605,3158.67 2611,3163.67 2618,3163.67 C 2625,3163.67 2631,3158.67 2631,3151.67 z M 2629,3151.67 C 2629,3157.67 2624,3161.67 2618,3161.67 C 2612,3161.67 2607,3157.67 2607,3151.67 C 2607,3145.67 2612,3141.67 2618,3141.67 C 2624,3141.67 2629,3145.67 2629,3151.67"
         style="fill:#ffffff;fill-opacity:1;fill-rule:nonzero;stroke:none"
         id="path2668" /><path
         d="M 2829,3087.67 C 2829,3065.67 2811,3048.67 2789,3048.67 C 2767,3048.67 2749,3065.67 2749,3087.67 C 2749,3109.67 2767,3126.67 2789,3126.67 C 2811,3126.67 2829,3109.67 2829,3087.67"
         style="fill:#000000;fill-opacity:1;fill-rule:evenodd;stroke:none"
         id="path2670" /><path
         d="M 2829,3087.67 C 2829,3065.67 2811,3048.67 2789,3048.67 C 2767,3048.67 2749,3065.67 2749,3087.67 C 2749,3109.67 2767,3126.67 2789,3126.67 C 2811,3126.67 2829,3109.67 2829,3087.67 z"
         style="fill:none;stroke:#000000;stroke-width:1;stroke-linecap:round;stroke-linejoin:round;stroke-miterlimit:10;stroke-dasharray:none;stroke-opacity:1"
         id="path2672" /><path
         d="M 2817,3087.67 C 2817,3072.67 2804,3060.67 2789,3060.67 C 2774,3060.67 2761,3072.67 2761,3087.67 C 2761,3102.67 2774,3114.67 2789,3114.67 C 2804,3114.67 2817,3102.67 2817,3087.67"
         style="fill:#ffffff;fill-opacity:1;fill-rule:evenodd;stroke:none"
         id="path2674" /><path
         d="M 2818,3087.67 C 2818,3072.67 2805,3059.67 2789,3059.67 C 2773,3059.67 2760,3072.67 2760,3087.67 C 2760,3102.67 2773,3115.67 2789,3115.67 C 2805,3115.67 2818,3102.67 2818,3087.67 z M 2816,3087.67 C 2816,3101.67 2804,3113.67 2789,3113.67 C 2774,3113.67 2762,3101.67 2762,3087.67 C 2762,3073.67 2774,3061.67 2789,3061.67 C 2804,3061.67 2816,3073.67 2816,3087.67"
         style="fill:#ffffff;fill-opacity:1;fill-rule:nonzero;stroke:none"
         id="path2676" /><path
         d="M 2546,3087.67 C 2546,3065.67 2528,3048.67 2506,3048.67 C 2484,3048.67 2466,3065.67 2466,3087.67 C 2466,3109.67 2484,3126.67 2506,3126.67 C 2528,3126.67 2546,3109.67 2546,3087.67"
         style="fill:#000000;fill-opacity:1;fill-rule:evenodd;stroke:none"
         id="path2678" /><path
         d="M 2546,3087.67 C 2546,3065.67 2528,3048.67 2506,3048.67 C 2484,3048.67 2466,3065.67 2466,3087.67 C 2466,3109.67 2484,3126.67 2506,3126.67 C 2528,3126.67 2546,3109.67 2546,3087.67 z"
         style="fill:none;stroke:#000000;stroke-width:1;stroke-linecap:round;stroke-linejoin:round;stroke-miterlimit:10;stroke-dasharray:none;stroke-opacity:1"
         id="path2680" /><path
         d="M 2534,3087.67 C 2534,3072.67 2521,3060.67 2506,3060.67 C 2491,3060.67 2478,3072.67 2478,3087.67 C 2478,3102.67 2491,3114.67 2506,3114.67 C 2521,3114.67 2534,3102.67 2534,3087.67"
         style="fill:#ffffff;fill-opacity:1;fill-rule:evenodd;stroke:none"
         id="path2682" /><path
         d="M 2535,3087.67 C 2535,3072.67 2522,3059.67 2506,3059.67 C 2490,3059.67 2477,3072.67 2477,3087.67 C 2477,3102.67 2490,3115.67 2506,3115.67 C 2522,3115.67 2535,3102.67 2535,3087.67 z M 2533,3087.67 C 2533,3101.67 2521,3113.67 2506,3113.67 C 2491,3113.67 2479,3101.67 2479,3087.67 C 2479,3073.67 2491,3061.67 2506,3061.67 C 2521,3061.67 2533,3073.67 2533,3087.67"
         style="fill:#ffffff;fill-opacity:1;fill-rule:nonzero;stroke:none"
         id="path2684" /><path
         d="M 2743,4263.67 L 2752,4254.67 L 2766,4254.67 L 2775,4263.67 L 2775,4277.67 L 2766,4286.67 L 2752,4286.67 L 2743,4277.67 L 2743,4263.67"
         style="fill:#000000;fill-opacity:1;fill-rule:evenodd;stroke:none"
         id="path2686" /><path
         d="M 2743,4263.67 L 2752,4254.67 L 2766,4254.67 L 2775,4263.67 L 2775,4277.67 L 2766,4286.67 L 2752,4286.67 L 2743,4277.67 L 2743,4263.67 z"
         style="fill:none;stroke:#000000;stroke-width:1;stroke-linecap:round;stroke-linejoin:round;stroke-miterlimit:10;stroke-dasharray:none;stroke-opacity:1"
         id="path2688" /><path
         d="M 2770,4270.67 C 2770,4264.67 2765,4260.67 2759,4260.67 C 2753,4260.67 2748,4264.67 2748,4270.67 C 2748,4276.67 2753,4280.67 2759,4280.67 C 2765,4280.67 2770,4276.67 2770,4270.67"
         style="fill:#ffffff;fill-opacity:1;fill-rule:evenodd;stroke:none"
         id="path2690" /><path
         d="M 2771,4270.67 C 2771,4264.67 2765,4259.67 2759,4259.67 C 2753,4259.67 2747,4264.67 2747,4270.67 C 2747,4276.67 2753,4281.67 2759,4281.67 C 2765,4281.67 2771,4276.67 2771,4270.67 z M 2769,4270.67 C 2769,4275.67 2765,4279.67 2759,4279.67 C 2753,4279.67 2749,4275.67 2749,4270.67 C 2749,4265.67 2753,4261.67 2759,4261.67 C 2765,4261.67 2769,4265.67 2769,4270.67"
         style="fill:#ffffff;fill-opacity:1;fill-rule:nonzero;stroke:none"
         id="path2692" /><path
         d="M 2743,4203.67 L 2752,4194.67 L 2766,4194.67 L 2775,4203.67 L 2775,4217.67 L 2766,4226.67 L 2752,4226.67 L 2743,4217.67 L 2743,4203.67"
         style="fill:#000000;fill-opacity:1;fill-rule:evenodd;stroke:none"
         id="path2694" /><path
         d="M 2743,4203.67 L 2752,4194.67 L 2766,4194.67 L 2775,4203.67 L 2775,4217.67 L 2766,4226.67 L 2752,4226.67 L 2743,4217.67 L 2743,4203.67 z"
         style="fill:none;stroke:#000000;stroke-width:1;stroke-linecap:round;stroke-linejoin:round;stroke-miterlimit:10;stroke-dasharray:none;stroke-opacity:1"
         id="path2696" /><path
         d="M 2770,4210.67 C 2770,4204.67 2765,4200.67 2759,4200.67 C 2753,4200.67 2748,4204.67 2748,4210.67 C 2748,4216.67 2753,4220.67 2759,4220.67 C 2765,4220.67 2770,4216.67 2770,4210.67"
         style="fill:#ffffff;fill-opacity:1;fill-rule:evenodd;stroke:none"
         id="path2698" /><path
         d="M 2771,4210.67 C 2771,4204.67 2765,4199.67 2759,4199.67 C 2753,4199.67 2747,4204.67 2747,4210.67 C 2747,4216.67 2753,4221.67 2759,4221.67 C 2765,4221.67 2771,4216.67 2771,4210.67 z M 2769,4210.67 C 2769,4215.67 2765,4219.67 2759,4219.67 C 2753,4219.67 2749,4215.67 2749,4210.67 C 2749,4205.67 2753,4201.67 2759,4201.67 C 2765,4201.67 2769,4205.67 2769,4210.67"
         style="fill:#ffffff;fill-opacity:1;fill-rule:nonzero;stroke:none"
         id="path2700" /><path
         d="M 2205,4263.67 L 2214,4254.67 L 2228,4254.67 L 2237,4263.67 L 2237,4277.67 L 2228,4286.67 L 2214,4286.67 L 2205,4277.67 L 2205,4263.67"
         style="fill:#000000;fill-opacity:1;fill-rule:evenodd;stroke:none"
         id="path2702" /><path
         d="M 2205,4263.67 L 2214,4254.67 L 2228,4254.67 L 2237,4263.67 L 2237,4277.67 L 2228,4286.67 L 2214,4286.67 L 2205,4277.67 L 2205,4263.67 z"
         style="fill:none;stroke:#000000;stroke-width:1;stroke-linecap:round;stroke-linejoin:round;stroke-miterlimit:10;stroke-dasharray:none;stroke-opacity:1"
         id="path2704" /><path
         d="M 2232,4270.67 C 2232,4264.67 2227,4260.67 2221,4260.67 C 2215,4260.67 2210,4264.67 2210,4270.67 C 2210,4276.67 2215,4280.67 2221,4280.67 C 2227,4280.67 2232,4276.67 2232,4270.67"
         style="fill:#ffffff;fill-opacity:1;fill-rule:evenodd;stroke:none"
         id="path2706" /><path
         d="M 2233,4270.67 C 2233,4264.67 2227,4259.67 2221,4259.67 C 2215,4259.67 2209,4264.67 2209,4270.67 C 2209,4276.67 2215,4281.67 2221,4281.67 C 2227,4281.67 2233,4276.67 2233,4270.67 z M 2231,4270.67 C 2231,4275.67 2227,4279.67 2221,4279.67 C 2215,4279.67 2211,4275.67 2211,4270.67 C 2211,4265.67 2215,4261.67 2221,4261.67 C 2227,4261.67 2231,4265.67 2231,4270.67"
         style="fill:#ffffff;fill-opacity:1;fill-rule:nonzero;stroke:none"
         id="path2708" /><path
         d="M 2205,4203.67 L 2214,4194.67 L 2228,4194.67 L 2237,4203.67 L 2237,4217.67 L 2228,4226.67 L 2214,4226.67 L 2205,4217.67 L 2205,4203.67"
         style="fill:#000000;fill-opacity:1;fill-rule:evenodd;stroke:none"
         id="path2710" /><path
         d="M 2205,4203.67 L 2214,4194.67 L 2228,4194.67 L 2237,4203.67 L 2237,4217.67 L 2228,4226.67 L 2214,4226.67 L 2205,4217.67 L 2205,4203.67 z"
         style="fill:none;stroke:#000000;stroke-width:1;stroke-linecap:round;stroke-linejoin:round;stroke-miterlimit:10;stroke-dasharray:none;stroke-opacity:1"
         id="path2712" /><path
         d="M 2232,4210.67 C 2232,4204.67 2227,4200.67 2221,4200.67 C 2215,4200.67 2210,4204.67 2210,4210.67 C 2210,4216.67 2215,4220.67 2221,4220.67 C 2227,4220.67 2232,4216.67 2232,4210.67"
         style="fill:#ffffff;fill-opacity:1;fill-rule:evenodd;stroke:none"
         id="path2714" /><path
         d="M 2233,4210.67 C 2233,4204.67 2227,4199.67 2221,4199.67 C 2215,4199.67 2209,4204.67 2209,4210.67 C 2209,4216.67 2215,4221.67 2221,4221.67 C 2227,4221.67 2233,4216.67 2233,4210.67 z M 2231,4210.67 C 2231,4215.67 2227,4219.67 2221,4219.67 C 2215,4219.67 2211,4215.67 2211,4210.67 C 2211,4205.67 2215,4201.67 2221,4201.67 C 2227,4201.67 2231,4205.67 2231,4210.67"
         style="fill:#ffffff;fill-opacity:1;fill-rule:nonzero;stroke:none"
         id="path2716" /><path
         d="M 2364,4230.67 L 2373,4221.67 L 2387,4221.67 L 2396,4230.67 L 2396,4244.67 L 2387,4253.67 L 2373,4253.67 L 2364,4244.67 L 2364,4230.67"
         style="fill:#000000;fill-opacity:1;fill-rule:evenodd;stroke:none"
         id="path2718" /><path
         d="M 2364,4230.67 L 2373,4221.67 L 2387,4221.67 L 2396,4230.67 L 2396,4244.67 L 2387,4253.67 L 2373,4253.67 L 2364,4244.67 L 2364,4230.67 z"
         style="fill:none;stroke:#000000;stroke-width:1;stroke-linecap:round;stroke-linejoin:round;stroke-miterlimit:10;stroke-dasharray:none;stroke-opacity:1"
         id="path2720" /><path
         d="M 2391,4237.67 C 2391,4231.67 2386,4227.67 2380,4227.67 C 2374,4227.67 2369,4231.67 2369,4237.67 C 2369,4243.67 2374,4247.67 2380,4247.67 C 2386,4247.67 2391,4243.67 2391,4237.67"
         style="fill:#ffffff;fill-opacity:1;fill-rule:evenodd;stroke:none"
         id="path2722" /><path
         d="M 2392,4237.67 C 2392,4231.67 2386,4226.67 2380,4226.67 C 2374,4226.67 2368,4231.67 2368,4237.67 C 2368,4243.67 2374,4248.67 2380,4248.67 C 2386,4248.67 2392,4243.67 2392,4237.67 z M 2390,4237.67 C 2390,4242.67 2386,4246.67 2380,4246.67 C 2374,4246.67 2370,4242.67 2370,4237.67 C 2370,4232.67 2374,4228.67 2380,4228.67 C 2386,4228.67 2390,4232.67 2390,4237.67"
         style="fill:#ffffff;fill-opacity:1;fill-rule:nonzero;stroke:none"
         id="path2724" /><path
         d="M 2604,4230.67 L 2613,4221.67 L 2627,4221.67 L 2636,4230.67 L 2636,4244.67 L 2627,4253.67 L 2613,4253.67 L 2604,4244.67 L 2604,4230.67"
         style="fill:#000000;fill-opacity:1;fill-rule:evenodd;stroke:none"
         id="path2726" /><path
         d="M 2604,4230.67 L 2613,4221.67 L 2627,4221.67 L 2636,4230.67 L 2636,4244.67 L 2627,4253.67 L 2613,4253.67 L 2604,4244.67 L 2604,4230.67 z"
         style="fill:none;stroke:#000000;stroke-width:1;stroke-linecap:round;stroke-linejoin:round;stroke-miterlimit:10;stroke-dasharray:none;stroke-opacity:1"
         id="path2728" /><path
         d="M 2631,4237.67 C 2631,4231.67 2626,4227.67 2620,4227.67 C 2614,4227.67 2609,4231.67 2609,4237.67 C 2609,4243.67 2614,4247.67 2620,4247.67 C 2626,4247.67 2631,4243.67 2631,4237.67"
         style="fill:#ffffff;fill-opacity:1;fill-rule:evenodd;stroke:none"
         id="path2730" /><path
         d="M 2632,4237.67 C 2632,4231.67 2626,4226.67 2620,4226.67 C 2614,4226.67 2608,4231.67 2608,4237.67 C 2608,4243.67 2614,4248.67 2620,4248.67 C 2626,4248.67 2632,4243.67 2632,4237.67 z M 2630,4237.67 C 2630,4242.67 2626,4246.67 2620,4246.67 C 2614,4246.67 2610,4242.67 2610,4237.67 C 2610,4232.67 2614,4228.67 2620,4228.67 C 2626,4228.67 2630,4232.67 2630,4237.67"
         style="fill:#ffffff;fill-opacity:1;fill-rule:nonzero;stroke:none"
         id="path2732" /><path
         d="M 2607,4160.67 L 2616,4151.67 L 2630,4151.67 L 2639,4160.67 L 2639,4174.67 L 2630,4183.67 L 2616,4183.67 L 2607,4174.67 L 2607,4160.67"
         style="fill:#000000;fill-opacity:1;fill-rule:evenodd;stroke:none"
         id="path2734" /><path
         d="M 2607,4160.67 L 2616,4151.67 L 2630,4151.67 L 2639,4160.67 L 2639,4174.67 L 2630,4183.67 L 2616,4183.67 L 2607,4174.67 L 2607,4160.67 z"
         style="fill:none;stroke:#000000;stroke-width:1;stroke-linecap:round;stroke-linejoin:round;stroke-miterlimit:10;stroke-dasharray:none;stroke-opacity:1"
         id="path2736" /><path
         d="M 2634,4167.67 C 2634,4161.67 2629,4157.67 2623,4157.67 C 2617,4157.67 2612,4161.67 2612,4167.67 C 2612,4173.67 2617,4177.67 2623,4177.67 C 2629,4177.67 2634,4173.67 2634,4167.67"
         style="fill:#ffffff;fill-opacity:1;fill-rule:evenodd;stroke:none"
         id="path2738" /><path
         d="M 2635,4167.67 C 2635,4161.67 2629,4156.67 2623,4156.67 C 2617,4156.67 2611,4161.67 2611,4167.67 C 2611,4173.67 2617,4178.67 2623,4178.67 C 2629,4178.67 2635,4173.67 2635,4167.67 z M 2633,4167.67 C 2633,4172.67 2629,4176.67 2623,4176.67 C 2617,4176.67 2613,4172.67 2613,4167.67 C 2613,4162.67 2617,4158.67 2623,4158.67 C 2629,4158.67 2633,4162.67 2633,4167.67"
         style="fill:#ffffff;fill-opacity:1;fill-rule:nonzero;stroke:none"
         id="path2740" /><path
         d="M 2368,4160.67 L 2377,4151.67 L 2391,4151.67 L 2400,4160.67 L 2400,4174.67 L 2391,4183.67 L 2377,4183.67 L 2368,4174.67 L 2368,4160.67"
         style="fill:#000000;fill-opacity:1;fill-rule:evenodd;stroke:none"
         id="path2742" /><path
         d="M 2368,4160.67 L 2377,4151.67 L 2391,4151.67 L 2400,4160.67 L 2400,4174.67 L 2391,4183.67 L 2377,4183.67 L 2368,4174.67 L 2368,4160.67 z"
         style="fill:none;stroke:#000000;stroke-width:1;stroke-linecap:round;stroke-linejoin:round;stroke-miterlimit:10;stroke-dasharray:none;stroke-opacity:1"
         id="path2744" /><path
         d="M 2395,4167.67 C 2395,4161.67 2390,4157.67 2384,4157.67 C 2378,4157.67 2373,4161.67 2373,4167.67 C 2373,4173.67 2378,4177.67 2384,4177.67 C 2390,4177.67 2395,4173.67 2395,4167.67"
         style="fill:#ffffff;fill-opacity:1;fill-rule:evenodd;stroke:none"
         id="path2746" /><path
         d="M 2396,4167.67 C 2396,4161.67 2390,4156.67 2384,4156.67 C 2378,4156.67 2372,4161.67 2372,4167.67 C 2372,4173.67 2378,4178.67 2384,4178.67 C 2390,4178.67 2396,4173.67 2396,4167.67 z M 2394,4167.67 C 2394,4172.67 2390,4176.67 2384,4176.67 C 2378,4176.67 2374,4172.67 2374,4167.67 C 2374,4162.67 2378,4158.67 2384,4158.67 C 2390,4158.67 2394,4162.67 2394,4167.67"
         style="fill:#ffffff;fill-opacity:1;fill-rule:nonzero;stroke:none"
         id="path2748" /><path
         d="M 2533,3338.67 L 2544,3327.67 L 2558,3327.67 L 2569,3338.67 L 2569,3352.67 L 2558,3363.67 L 2544,3363.67 L 2533,3352.67 L 2533,3338.67"
         style="fill:#000000;fill-opacity:1;fill-rule:evenodd;stroke:none"
         id="path2750" /><path
         d="M 2533,3338.67 L 2544,3327.67 L 2558,3327.67 L 2569,3338.67 L 2569,3352.67 L 2558,3363.67 L 2544,3363.67 L 2533,3352.67 L 2533,3338.67 z"
         style="fill:none;stroke:#000000;stroke-width:1;stroke-linecap:round;stroke-linejoin:round;stroke-miterlimit:10;stroke-dasharray:none;stroke-opacity:1"
         id="path2752" /><path
         d="M 2564,3345.67 C 2564,3338.67 2558,3333.67 2551,3333.67 C 2544,3333.67 2538,3338.67 2538,3345.67 C 2538,3352.67 2544,3357.67 2551,3357.67 C 2558,3357.67 2564,3352.67 2564,3345.67"
         style="fill:#ffffff;fill-opacity:1;fill-rule:evenodd;stroke:none"
         id="path2754" /><path
         d="M 2565,3345.67 C 2565,3338.67 2559,3332.67 2551,3332.67 C 2543,3332.67 2537,3338.67 2537,3345.67 C 2537,3352.67 2543,3358.67 2551,3358.67 C 2559,3358.67 2565,3352.67 2565,3345.67 z M 2563,3345.67 C 2563,3351.67 2558,3356.67 2551,3356.67 C 2544,3356.67 2539,3351.67 2539,3345.67 C 2539,3339.67 2544,3334.67 2551,3334.67 C 2558,3334.67 2563,3339.67 2563,3345.67"
         style="fill:#ffffff;fill-opacity:1;fill-rule:nonzero;stroke:none"
         id="path2756" /><path
         d="M 2772,3338.67 L 2783,3327.67 L 2797,3327.67 L 2808,3338.67 L 2808,3352.67 L 2797,3363.67 L 2783,3363.67 L 2772,3352.67 L 2772,3338.67"
         style="fill:#000000;fill-opacity:1;fill-rule:evenodd;stroke:none"
         id="path2758" /><path
         d="M 2772,3338.67 L 2783,3327.67 L 2797,3327.67 L 2808,3338.67 L 2808,3352.67 L 2797,3363.67 L 2783,3363.67 L 2772,3352.67 L 2772,3338.67 z"
         style="fill:none;stroke:#000000;stroke-width:1;stroke-linecap:round;stroke-linejoin:round;stroke-miterlimit:10;stroke-dasharray:none;stroke-opacity:1"
         id="path2760" /><path
         d="M 2803,3345.67 C 2803,3338.67 2797,3333.67 2790,3333.67 C 2783,3333.67 2777,3338.67 2777,3345.67 C 2777,3352.67 2783,3357.67 2790,3357.67 C 2797,3357.67 2803,3352.67 2803,3345.67"
         style="fill:#ffffff;fill-opacity:1;fill-rule:evenodd;stroke:none"
         id="path2762" /><path
         d="M 2804,3345.67 C 2804,3338.67 2798,3332.67 2790,3332.67 C 2782,3332.67 2776,3338.67 2776,3345.67 C 2776,3352.67 2782,3358.67 2790,3358.67 C 2798,3358.67 2804,3352.67 2804,3345.67 z M 2802,3345.67 C 2802,3351.67 2797,3356.67 2790,3356.67 C 2783,3356.67 2778,3351.67 2778,3345.67 C 2778,3339.67 2783,3334.67 2790,3334.67 C 2797,3334.67 2802,3339.67 2802,3345.67"
         style="fill:#ffffff;fill-opacity:1;fill-rule:nonzero;stroke:none"
         id="path2764" /><path
         d="M 2362,3548.67 L 2373,3537.67 L 2387,3537.67 L 2398,3548.67 L 2398,3562.67 L 2387,3573.67 L 2373,3573.67 L 2362,3562.67 L 2362,3548.67"
         style="fill:#000000;fill-opacity:1;fill-rule:evenodd;stroke:none"
         id="path2766" /><path
         d="M 2362,3548.67 L 2373,3537.67 L 2387,3537.67 L 2398,3548.67 L 2398,3562.67 L 2387,3573.67 L 2373,3573.67 L 2362,3562.67 L 2362,3548.67 z"
         style="fill:none;stroke:#000000;stroke-width:1;stroke-linecap:round;stroke-linejoin:round;stroke-miterlimit:10;stroke-dasharray:none;stroke-opacity:1"
         id="path2768" /><path
         d="M 2393,3555.67 C 2393,3548.67 2387,3543.67 2380,3543.67 C 2373,3543.67 2367,3548.67 2367,3555.67 C 2367,3562.67 2373,3567.67 2380,3567.67 C 2387,3567.67 2393,3562.67 2393,3555.67"
         style="fill:#ffffff;fill-opacity:1;fill-rule:evenodd;stroke:none"
         id="path2770" /><path
         d="M 2394,3555.67 C 2394,3548.67 2388,3542.67 2380,3542.67 C 2372,3542.67 2366,3548.67 2366,3555.67 C 2366,3562.67 2372,3568.67 2380,3568.67 C 2388,3568.67 2394,3562.67 2394,3555.67 z M 2392,3555.67 C 2392,3561.67 2387,3566.67 2380,3566.67 C 2373,3566.67 2368,3561.67 2368,3555.67 C 2368,3549.67 2373,3544.67 2380,3544.67 C 2387,3544.67 2392,3549.67 2392,3555.67"
         style="fill:#ffffff;fill-opacity:1;fill-rule:nonzero;stroke:none"
         id="path2772" /><path
         d="M 2362,3309.67 L 2373,3298.67 L 2387,3298.67 L 2398,3309.67 L 2398,3323.67 L 2387,3334.67 L 2373,3334.67 L 2362,3323.67 L 2362,3309.67"
         style="fill:#000000;fill-opacity:1;fill-rule:evenodd;stroke:none"
         id="path2774" /><path
         d="M 2362,3309.67 L 2373,3298.67 L 2387,3298.67 L 2398,3309.67 L 2398,3323.67 L 2387,3334.67 L 2373,3334.67 L 2362,3323.67 L 2362,3309.67 z"
         style="fill:none;stroke:#000000;stroke-width:1;stroke-linecap:round;stroke-linejoin:round;stroke-miterlimit:10;stroke-dasharray:none;stroke-opacity:1"
         id="path2776" /><path
         d="M 2393,3316.67 C 2393,3309.67 2387,3304.67 2380,3304.67 C 2373,3304.67 2367,3309.67 2367,3316.67 C 2367,3323.67 2373,3328.67 2380,3328.67 C 2387,3328.67 2393,3323.67 2393,3316.67"
         style="fill:#ffffff;fill-opacity:1;fill-rule:evenodd;stroke:none"
         id="path2778" /><path
         d="M 2394,3316.67 C 2394,3309.67 2388,3303.67 2380,3303.67 C 2372,3303.67 2366,3309.67 2366,3316.67 C 2366,3323.67 2372,3329.67 2380,3329.67 C 2388,3329.67 2394,3323.67 2394,3316.67 z M 2392,3316.67 C 2392,3322.67 2387,3327.67 2380,3327.67 C 2373,3327.67 2368,3322.67 2368,3316.67 C 2368,3310.67 2373,3305.67 2380,3305.67 C 2387,3305.67 2392,3310.67 2392,3316.67"
         style="fill:#ffffff;fill-opacity:1;fill-rule:nonzero;stroke:none"
         id="path2780" /><path
         d="M 2471,3562.67 L 2480,3553.67 L 2492,3553.67 L 2501,3562.67 L 2501,3574.67 L 2492,3583.67 L 2480,3583.67 L 2471,3574.67 L 2471,3562.67"
         style="fill:#000000;fill-opacity:1;fill-rule:evenodd;stroke:none"
         id="path2782" /><path
         d="M 2471,3562.67 L 2480,3553.67 L 2492,3553.67 L 2501,3562.67 L 2501,3574.67 L 2492,3583.67 L 2480,3583.67 L 2471,3574.67 L 2471,3562.67 z"
         style="fill:none;stroke:#000000;stroke-width:1;stroke-linecap:round;stroke-linejoin:round;stroke-miterlimit:10;stroke-dasharray:none;stroke-opacity:1"
         id="path2784" /><path
         d="M 2496,3568.67 C 2496,3563.67 2492,3559.67 2486,3559.67 C 2480,3559.67 2476,3563.67 2476,3568.67 C 2476,3573.67 2480,3577.67 2486,3577.67 C 2492,3577.67 2496,3573.67 2496,3568.67"
         style="fill:#ffffff;fill-opacity:1;fill-rule:evenodd;stroke:none"
         id="path2786" /><path
         d="M 2497,3568.67 C 2497,3563.67 2492,3558.67 2486,3558.67 C 2480,3558.67 2475,3563.67 2475,3568.67 C 2475,3573.67 2480,3578.67 2486,3578.67 C 2492,3578.67 2497,3573.67 2497,3568.67 z M 2495,3568.67 C 2495,3573.67 2491,3576.67 2486,3576.67 C 2481,3576.67 2477,3573.67 2477,3568.67 C 2477,3563.67 2481,3560.67 2486,3560.67 C 2491,3560.67 2495,3563.67 2495,3568.67"
         style="fill:#ffffff;fill-opacity:1;fill-rule:nonzero;stroke:none"
         id="path2788" /><path
         d="M 2471,3502.67 L 2480,3493.67 L 2492,3493.67 L 2501,3502.67 L 2501,3514.67 L 2492,3523.67 L 2480,3523.67 L 2471,3514.67 L 2471,3502.67"
         style="fill:#000000;fill-opacity:1;fill-rule:evenodd;stroke:none"
         id="path2790" /><path
         d="M 2471,3502.67 L 2480,3493.67 L 2492,3493.67 L 2501,3502.67 L 2501,3514.67 L 2492,3523.67 L 2480,3523.67 L 2471,3514.67 L 2471,3502.67 z"
         style="fill:none;stroke:#000000;stroke-width:1;stroke-linecap:round;stroke-linejoin:round;stroke-miterlimit:10;stroke-dasharray:none;stroke-opacity:1"
         id="path2792" /><path
         d="M 2496,3508.67 C 2496,3503.67 2492,3499.67 2486,3499.67 C 2480,3499.67 2476,3503.67 2476,3508.67 C 2476,3513.67 2480,3517.67 2486,3517.67 C 2492,3517.67 2496,3513.67 2496,3508.67"
         style="fill:#ffffff;fill-opacity:1;fill-rule:evenodd;stroke:none"
         id="path2794" /><path
         d="M 2497,3508.67 C 2497,3503.67 2492,3498.67 2486,3498.67 C 2480,3498.67 2475,3503.67 2475,3508.67 C 2475,3513.67 2480,3518.67 2486,3518.67 C 2492,3518.67 2497,3513.67 2497,3508.67 z M 2495,3508.67 C 2495,3513.67 2491,3516.67 2486,3516.67 C 2481,3516.67 2477,3513.67 2477,3508.67 C 2477,3503.67 2481,3500.67 2486,3500.67 C 2491,3500.67 2495,3503.67 2495,3508.67"
         style="fill:#ffffff;fill-opacity:1;fill-rule:nonzero;stroke:none"
         id="path2796" /><path
         d="M 2765,4123.67 C 2765,4115.67 2758,4108.67 2749,4108.67 C 2740,4108.67 2733,4115.67 2733,4123.67 C 2733,4131.67 2740,4138.67 2749,4138.67 C 2758,4138.67 2765,4131.67 2765,4123.67"
         style="fill:#000000;fill-opacity:1;fill-rule:evenodd;stroke:none"
         id="path2798" /><path
         d="M 2765,4123.67 C 2765,4115.67 2758,4108.67 2749,4108.67 C 2740,4108.67 2733,4115.67 2733,4123.67 C 2733,4131.67 2740,4138.67 2749,4138.67 C 2758,4138.67 2765,4131.67 2765,4123.67 z"
         style="fill:none;stroke:#000000;stroke-width:1;stroke-linecap:round;stroke-linejoin:round;stroke-miterlimit:10;stroke-dasharray:none;stroke-opacity:1"
         id="path2800" /><path
         d="M 2759,4123.67 C 2759,4118.67 2755,4114.67 2749,4114.67 C 2743,4114.67 2739,4118.67 2739,4123.67 C 2739,4128.67 2743,4132.67 2749,4132.67 C 2755,4132.67 2759,4128.67 2759,4123.67"
         style="fill:#ffffff;fill-opacity:1;fill-rule:evenodd;stroke:none"
         id="path2802" /><path
         d="M 2760,4123.67 C 2760,4118.67 2755,4113.67 2749,4113.67 C 2743,4113.67 2738,4118.67 2738,4123.67 C 2738,4128.67 2743,4133.67 2749,4133.67 C 2755,4133.67 2760,4128.67 2760,4123.67 z M 2758,4123.67 C 2758,4128.67 2754,4131.67 2749,4131.67 C 2744,4131.67 2740,4128.67 2740,4123.67 C 2740,4118.67 2744,4115.67 2749,4115.67 C 2754,4115.67 2758,4118.67 2758,4123.67"
         style="fill:#ffffff;fill-opacity:1;fill-rule:nonzero;stroke:none"
         id="path2804" /><path
         d="M 2765,4076.67 C 2765,4068.67 2758,4061.67 2749,4061.67 C 2740,4061.67 2733,4068.67 2733,4076.67 C 2733,4084.67 2740,4091.67 2749,4091.67 C 2758,4091.67 2765,4084.67 2765,4076.67"
         style="fill:#000000;fill-opacity:1;fill-rule:evenodd;stroke:none"
         id="path2806" /><path
         d="M 2765,4076.67 C 2765,4068.67 2758,4061.67 2749,4061.67 C 2740,4061.67 2733,4068.67 2733,4076.67 C 2733,4084.67 2740,4091.67 2749,4091.67 C 2758,4091.67 2765,4084.67 2765,4076.67 z"
         style="fill:none;stroke:#000000;stroke-width:1;stroke-linecap:round;stroke-linejoin:round;stroke-miterlimit:10;stroke-dasharray:none;stroke-opacity:1"
         id="path2808" /><path
         d="M 2759,4076.67 C 2759,4071.67 2755,4067.67 2749,4067.67 C 2743,4067.67 2739,4071.67 2739,4076.67 C 2739,4081.67 2743,4085.67 2749,4085.67 C 2755,4085.67 2759,4081.67 2759,4076.67"
         style="fill:#ffffff;fill-opacity:1;fill-rule:evenodd;stroke:none"
         id="path2810" /><path
         d="M 2760,4076.67 C 2760,4071.67 2755,4066.67 2749,4066.67 C 2743,4066.67 2738,4071.67 2738,4076.67 C 2738,4081.67 2743,4086.67 2749,4086.67 C 2755,4086.67 2760,4081.67 2760,4076.67 z M 2758,4076.67 C 2758,4081.67 2754,4084.67 2749,4084.67 C 2744,4084.67 2740,4081.67 2740,4076.67 C 2740,4071.67 2744,4068.67 2749,4068.67 C 2754,4068.67 2758,4071.67 2758,4076.67"
         style="fill:#ffffff;fill-opacity:1;fill-rule:nonzero;stroke:none"
         id="path2812" /><path
         d="M 2765,4029.67 C 2765,4021.67 2758,4014.67 2749,4014.67 C 2740,4014.67 2733,4021.67 2733,4029.67 C 2733,4037.67 2740,4044.67 2749,4044.67 C 2758,4044.67 2765,4037.67 2765,4029.67"
         style="fill:#000000;fill-opacity:1;fill-rule:evenodd;stroke:none"
         id="path2814" /><path
         d="M 2765,4029.67 C 2765,4021.67 2758,4014.67 2749,4014.67 C 2740,4014.67 2733,4021.67 2733,4029.67 C 2733,4037.67 2740,4044.67 2749,4044.67 C 2758,4044.67 2765,4037.67 2765,4029.67 z"
         style="fill:none;stroke:#000000;stroke-width:1;stroke-linecap:round;stroke-linejoin:round;stroke-miterlimit:10;stroke-dasharray:none;stroke-opacity:1"
         id="path2816" /><path
         d="M 2759,4029.67 C 2759,4024.67 2755,4020.67 2749,4020.67 C 2743,4020.67 2739,4024.67 2739,4029.67 C 2739,4034.67 2743,4038.67 2749,4038.67 C 2755,4038.67 2759,4034.67 2759,4029.67"
         style="fill:#ffffff;fill-opacity:1;fill-rule:evenodd;stroke:none"
         id="path2818" /><path
         d="M 2760,4029.67 C 2760,4024.67 2755,4019.67 2749,4019.67 C 2743,4019.67 2738,4024.67 2738,4029.67 C 2738,4034.67 2743,4039.67 2749,4039.67 C 2755,4039.67 2760,4034.67 2760,4029.67 z M 2758,4029.67 C 2758,4034.67 2754,4037.67 2749,4037.67 C 2744,4037.67 2740,4034.67 2740,4029.67 C 2740,4024.67 2744,4021.67 2749,4021.67 C 2754,4021.67 2758,4024.67 2758,4029.67"
         style="fill:#ffffff;fill-opacity:1;fill-rule:nonzero;stroke:none"
         id="path2820" /><path
         d="M 2765,3982.67 C 2765,3974.67 2758,3967.67 2749,3967.67 C 2740,3967.67 2733,3974.67 2733,3982.67 C 2733,3990.67 2740,3997.67 2749,3997.67 C 2758,3997.67 2765,3990.67 2765,3982.67"
         style="fill:#000000;fill-opacity:1;fill-rule:evenodd;stroke:none"
         id="path2822" /><path
         d="M 2765,3982.67 C 2765,3974.67 2758,3967.67 2749,3967.67 C 2740,3967.67 2733,3974.67 2733,3982.67 C 2733,3990.67 2740,3997.67 2749,3997.67 C 2758,3997.67 2765,3990.67 2765,3982.67 z"
         style="fill:none;stroke:#000000;stroke-width:1;stroke-linecap:round;stroke-linejoin:round;stroke-miterlimit:10;stroke-dasharray:none;stroke-opacity:1"
         id="path2824" /><path
         d="M 2759,3982.67 C 2759,3977.67 2755,3973.67 2749,3973.67 C 2743,3973.67 2739,3977.67 2739,3982.67 C 2739,3987.67 2743,3991.67 2749,3991.67 C 2755,3991.67 2759,3987.67 2759,3982.67"
         style="fill:#ffffff;fill-opacity:1;fill-rule:evenodd;stroke:none"
         id="path2826" /><path
         d="M 2760,3982.67 C 2760,3977.67 2755,3972.67 2749,3972.67 C 2743,3972.67 2738,3977.67 2738,3982.67 C 2738,3987.67 2743,3992.67 2749,3992.67 C 2755,3992.67 2760,3987.67 2760,3982.67 z M 2758,3982.67 C 2758,3987.67 2754,3990.67 2749,3990.67 C 2744,3990.67 2740,3987.67 2740,3982.67 C 2740,3977.67 2744,3974.67 2749,3974.67 C 2754,3974.67 2758,3977.67 2758,3982.67"
         style="fill:#ffffff;fill-opacity:1;fill-rule:nonzero;stroke:none"
         id="path2828" /><path
         d="M 2765,3934.67 C 2765,3926.67 2758,3919.67 2749,3919.67 C 2740,3919.67 2733,3926.67 2733,3934.67 C 2733,3942.67 2740,3949.67 2749,3949.67 C 2758,3949.67 2765,3942.67 2765,3934.67"
         style="fill:#000000;fill-opacity:1;fill-rule:evenodd;stroke:none"
         id="path2830" /><path
         d="M 2765,3934.67 C 2765,3926.67 2758,3919.67 2749,3919.67 C 2740,3919.67 2733,3926.67 2733,3934.67 C 2733,3942.67 2740,3949.67 2749,3949.67 C 2758,3949.67 2765,3942.67 2765,3934.67 z"
         style="fill:none;stroke:#000000;stroke-width:1;stroke-linecap:round;stroke-linejoin:round;stroke-miterlimit:10;stroke-dasharray:none;stroke-opacity:1"
         id="path2832" /><path
         d="M 2759,3934.67 C 2759,3929.67 2755,3925.67 2749,3925.67 C 2743,3925.67 2739,3929.67 2739,3934.67 C 2739,3939.67 2743,3943.67 2749,3943.67 C 2755,3943.67 2759,3939.67 2759,3934.67"
         style="fill:#ffffff;fill-opacity:1;fill-rule:evenodd;stroke:none"
         id="path2834" /><path
         d="M 2760,3934.67 C 2760,3929.67 2755,3924.67 2749,3924.67 C 2743,3924.67 2738,3929.67 2738,3934.67 C 2738,3939.67 2743,3944.67 2749,3944.67 C 2755,3944.67 2760,3939.67 2760,3934.67 z M 2758,3934.67 C 2758,3939.67 2754,3942.67 2749,3942.67 C 2744,3942.67 2740,3939.67 2740,3934.67 C 2740,3929.67 2744,3926.67 2749,3926.67 C 2754,3926.67 2758,3929.67 2758,3934.67"
         style="fill:#ffffff;fill-opacity:1;fill-rule:nonzero;stroke:none"
         id="path2836" /><path
         d="M 2765,3887.67 C 2765,3879.67 2758,3872.67 2749,3872.67 C 2740,3872.67 2733,3879.67 2733,3887.67 C 2733,3895.67 2740,3902.67 2749,3902.67 C 2758,3902.67 2765,3895.67 2765,3887.67"
         style="fill:#000000;fill-opacity:1;fill-rule:evenodd;stroke:none"
         id="path2838" /><path
         d="M 2765,3887.67 C 2765,3879.67 2758,3872.67 2749,3872.67 C 2740,3872.67 2733,3879.67 2733,3887.67 C 2733,3895.67 2740,3902.67 2749,3902.67 C 2758,3902.67 2765,3895.67 2765,3887.67 z"
         style="fill:none;stroke:#000000;stroke-width:1;stroke-linecap:round;stroke-linejoin:round;stroke-miterlimit:10;stroke-dasharray:none;stroke-opacity:1"
         id="path2840" /><path
         d="M 2759,3887.67 C 2759,3882.67 2755,3878.67 2749,3878.67 C 2743,3878.67 2739,3882.67 2739,3887.67 C 2739,3892.67 2743,3896.67 2749,3896.67 C 2755,3896.67 2759,3892.67 2759,3887.67"
         style="fill:#ffffff;fill-opacity:1;fill-rule:evenodd;stroke:none"
         id="path2842" /><path
         d="M 2760,3887.67 C 2760,3882.67 2755,3877.67 2749,3877.67 C 2743,3877.67 2738,3882.67 2738,3887.67 C 2738,3892.67 2743,3897.67 2749,3897.67 C 2755,3897.67 2760,3892.67 2760,3887.67 z M 2758,3887.67 C 2758,3892.67 2754,3895.67 2749,3895.67 C 2744,3895.67 2740,3892.67 2740,3887.67 C 2740,3882.67 2744,3879.67 2749,3879.67 C 2754,3879.67 2758,3882.67 2758,3887.67"
         style="fill:#ffffff;fill-opacity:1;fill-rule:nonzero;stroke:none"
         id="path2844" /><path
         d="M 2765,3840.67 C 2765,3832.67 2758,3825.67 2749,3825.67 C 2740,3825.67 2733,3832.67 2733,3840.67 C 2733,3848.67 2740,3855.67 2749,3855.67 C 2758,3855.67 2765,3848.67 2765,3840.67"
         style="fill:#000000;fill-opacity:1;fill-rule:evenodd;stroke:none"
         id="path2846" /><path
         d="M 2765,3840.67 C 2765,3832.67 2758,3825.67 2749,3825.67 C 2740,3825.67 2733,3832.67 2733,3840.67 C 2733,3848.67 2740,3855.67 2749,3855.67 C 2758,3855.67 2765,3848.67 2765,3840.67 z"
         style="fill:none;stroke:#000000;stroke-width:1;stroke-linecap:round;stroke-linejoin:round;stroke-miterlimit:10;stroke-dasharray:none;stroke-opacity:1"
         id="path2848" /><path
         d="M 2759,3840.67 C 2759,3835.67 2755,3831.67 2749,3831.67 C 2743,3831.67 2739,3835.67 2739,3840.67 C 2739,3845.67 2743,3849.67 2749,3849.67 C 2755,3849.67 2759,3845.67 2759,3840.67"
         style="fill:#ffffff;fill-opacity:1;fill-rule:evenodd;stroke:none"
         id="path2850" /><path
         d="M 2760,3840.67 C 2760,3835.67 2755,3830.67 2749,3830.67 C 2743,3830.67 2738,3835.67 2738,3840.67 C 2738,3845.67 2743,3850.67 2749,3850.67 C 2755,3850.67 2760,3845.67 2760,3840.67 z M 2758,3840.67 C 2758,3845.67 2754,3848.67 2749,3848.67 C 2744,3848.67 2740,3845.67 2740,3840.67 C 2740,3835.67 2744,3832.67 2749,3832.67 C 2754,3832.67 2758,3835.67 2758,3840.67"
         style="fill:#ffffff;fill-opacity:1;fill-rule:nonzero;stroke:none"
         id="path2852" /><path
         d="M 2765,3793.67 C 2765,3785.67 2758,3778.67 2749,3778.67 C 2740,3778.67 2733,3785.67 2733,3793.67 C 2733,3801.67 2740,3808.67 2749,3808.67 C 2758,3808.67 2765,3801.67 2765,3793.67"
         style="fill:#000000;fill-opacity:1;fill-rule:evenodd;stroke:none"
         id="path2854" /><path
         d="M 2765,3793.67 C 2765,3785.67 2758,3778.67 2749,3778.67 C 2740,3778.67 2733,3785.67 2733,3793.67 C 2733,3801.67 2740,3808.67 2749,3808.67 C 2758,3808.67 2765,3801.67 2765,3793.67 z"
         style="fill:none;stroke:#000000;stroke-width:1;stroke-linecap:round;stroke-linejoin:round;stroke-miterlimit:10;stroke-dasharray:none;stroke-opacity:1"
         id="path2856" /><path
         d="M 2759,3793.67 C 2759,3788.67 2755,3784.67 2749,3784.67 C 2743,3784.67 2739,3788.67 2739,3793.67 C 2739,3798.67 2743,3802.67 2749,3802.67 C 2755,3802.67 2759,3798.67 2759,3793.67"
         style="fill:#ffffff;fill-opacity:1;fill-rule:evenodd;stroke:none"
         id="path2858" /><path
         d="M 2760,3793.67 C 2760,3788.67 2755,3783.67 2749,3783.67 C 2743,3783.67 2738,3788.67 2738,3793.67 C 2738,3798.67 2743,3803.67 2749,3803.67 C 2755,3803.67 2760,3798.67 2760,3793.67 z M 2758,3793.67 C 2758,3798.67 2754,3801.67 2749,3801.67 C 2744,3801.67 2740,3798.67 2740,3793.67 C 2740,3788.67 2744,3785.67 2749,3785.67 C 2754,3785.67 2758,3788.67 2758,3793.67"
         style="fill:#ffffff;fill-opacity:1;fill-rule:nonzero;stroke:none"
         id="path2860" /><path
         d="M 2765,3746.67 C 2765,3738.67 2758,3731.67 2749,3731.67 C 2740,3731.67 2733,3738.67 2733,3746.67 C 2733,3754.67 2740,3761.67 2749,3761.67 C 2758,3761.67 2765,3754.67 2765,3746.67"
         style="fill:#000000;fill-opacity:1;fill-rule:evenodd;stroke:none"
         id="path2862" /><path
         d="M 2765,3746.67 C 2765,3738.67 2758,3731.67 2749,3731.67 C 2740,3731.67 2733,3738.67 2733,3746.67 C 2733,3754.67 2740,3761.67 2749,3761.67 C 2758,3761.67 2765,3754.67 2765,3746.67 z"
         style="fill:none;stroke:#000000;stroke-width:1;stroke-linecap:round;stroke-linejoin:round;stroke-miterlimit:10;stroke-dasharray:none;stroke-opacity:1"
         id="path2864" /><path
         d="M 2759,3746.67 C 2759,3741.67 2755,3737.67 2749,3737.67 C 2743,3737.67 2739,3741.67 2739,3746.67 C 2739,3751.67 2743,3755.67 2749,3755.67 C 2755,3755.67 2759,3751.67 2759,3746.67"
         style="fill:#ffffff;fill-opacity:1;fill-rule:evenodd;stroke:none"
         id="path2866" /><path
         d="M 2760,3746.67 C 2760,3741.67 2755,3736.67 2749,3736.67 C 2743,3736.67 2738,3741.67 2738,3746.67 C 2738,3751.67 2743,3756.67 2749,3756.67 C 2755,3756.67 2760,3751.67 2760,3746.67 z M 2758,3746.67 C 2758,3751.67 2754,3754.67 2749,3754.67 C 2744,3754.67 2740,3751.67 2740,3746.67 C 2740,3741.67 2744,3738.67 2749,3738.67 C 2754,3738.67 2758,3741.67 2758,3746.67"
         style="fill:#ffffff;fill-opacity:1;fill-rule:nonzero;stroke:none"
         id="path2868" /><path
         d="M 2765,3699.67 C 2765,3691.67 2758,3684.67 2749,3684.67 C 2740,3684.67 2733,3691.67 2733,3699.67 C 2733,3707.67 2740,3714.67 2749,3714.67 C 2758,3714.67 2765,3707.67 2765,3699.67"
         style="fill:#000000;fill-opacity:1;fill-rule:evenodd;stroke:none"
         id="path2870" /><path
         d="M 2765,3699.67 C 2765,3691.67 2758,3684.67 2749,3684.67 C 2740,3684.67 2733,3691.67 2733,3699.67 C 2733,3707.67 2740,3714.67 2749,3714.67 C 2758,3714.67 2765,3707.67 2765,3699.67 z"
         style="fill:none;stroke:#000000;stroke-width:1;stroke-linecap:round;stroke-linejoin:round;stroke-miterlimit:10;stroke-dasharray:none;stroke-opacity:1"
         id="path2872" /><path
         d="M 2759,3699.67 C 2759,3694.67 2755,3690.67 2749,3690.67 C 2743,3690.67 2739,3694.67 2739,3699.67 C 2739,3704.67 2743,3708.67 2749,3708.67 C 2755,3708.67 2759,3704.67 2759,3699.67"
         style="fill:#ffffff;fill-opacity:1;fill-rule:evenodd;stroke:none"
         id="path2874" /><path
         d="M 2760,3699.67 C 2760,3694.67 2755,3689.67 2749,3689.67 C 2743,3689.67 2738,3694.67 2738,3699.67 C 2738,3704.67 2743,3709.67 2749,3709.67 C 2755,3709.67 2760,3704.67 2760,3699.67 z M 2758,3699.67 C 2758,3704.67 2754,3707.67 2749,3707.67 C 2744,3707.67 2740,3704.67 2740,3699.67 C 2740,3694.67 2744,3691.67 2749,3691.67 C 2754,3691.67 2758,3694.67 2758,3699.67"
         style="fill:#ffffff;fill-opacity:1;fill-rule:nonzero;stroke:none"
         id="path2876" /><path
         d="M 2247,3699.67 C 2247,3691.67 2240,3684.67 2231,3684.67 C 2222,3684.67 2215,3691.67 2215,3699.67 C 2215,3707.67 2222,3714.67 2231,3714.67 C 2240,3714.67 2247,3707.67 2247,3699.67"
         style="fill:#000000;fill-opacity:1;fill-rule:evenodd;stroke:none"
         id="path2878" /><path
         d="M 2247,3699.67 C 2247,3691.67 2240,3684.67 2231,3684.67 C 2222,3684.67 2215,3691.67 2215,3699.67 C 2215,3707.67 2222,3714.67 2231,3714.67 C 2240,3714.67 2247,3707.67 2247,3699.67 z"
         style="fill:none;stroke:#000000;stroke-width:1;stroke-linecap:round;stroke-linejoin:round;stroke-miterlimit:10;stroke-dasharray:none;stroke-opacity:1"
         id="path2880" /><path
         d="M 2241,3699.67 C 2241,3694.67 2237,3690.67 2231,3690.67 C 2225,3690.67 2221,3694.67 2221,3699.67 C 2221,3704.67 2225,3708.67 2231,3708.67 C 2237,3708.67 2241,3704.67 2241,3699.67"
         style="fill:#ffffff;fill-opacity:1;fill-rule:evenodd;stroke:none"
         id="path2882" /><path
         d="M 2242,3699.67 C 2242,3694.67 2237,3689.67 2231,3689.67 C 2225,3689.67 2220,3694.67 2220,3699.67 C 2220,3704.67 2225,3709.67 2231,3709.67 C 2237,3709.67 2242,3704.67 2242,3699.67 z M 2240,3699.67 C 2240,3704.67 2236,3707.67 2231,3707.67 C 2226,3707.67 2222,3704.67 2222,3699.67 C 2222,3694.67 2226,3691.67 2231,3691.67 C 2236,3691.67 2240,3694.67 2240,3699.67"
         style="fill:#ffffff;fill-opacity:1;fill-rule:nonzero;stroke:none"
         id="path2884" /><path
         d="M 2247,3746.67 C 2247,3738.67 2240,3731.67 2231,3731.67 C 2222,3731.67 2215,3738.67 2215,3746.67 C 2215,3754.67 2222,3761.67 2231,3761.67 C 2240,3761.67 2247,3754.67 2247,3746.67"
         style="fill:#000000;fill-opacity:1;fill-rule:evenodd;stroke:none"
         id="path2886" /><path
         d="M 2247,3746.67 C 2247,3738.67 2240,3731.67 2231,3731.67 C 2222,3731.67 2215,3738.67 2215,3746.67 C 2215,3754.67 2222,3761.67 2231,3761.67 C 2240,3761.67 2247,3754.67 2247,3746.67 z"
         style="fill:none;stroke:#000000;stroke-width:1;stroke-linecap:round;stroke-linejoin:round;stroke-miterlimit:10;stroke-dasharray:none;stroke-opacity:1"
         id="path2888" /><path
         d="M 2241,3746.67 C 2241,3741.67 2237,3737.67 2231,3737.67 C 2225,3737.67 2221,3741.67 2221,3746.67 C 2221,3751.67 2225,3755.67 2231,3755.67 C 2237,3755.67 2241,3751.67 2241,3746.67"
         style="fill:#ffffff;fill-opacity:1;fill-rule:evenodd;stroke:none"
         id="path2890" /><path
         d="M 2242,3746.67 C 2242,3741.67 2237,3736.67 2231,3736.67 C 2225,3736.67 2220,3741.67 2220,3746.67 C 2220,3751.67 2225,3756.67 2231,3756.67 C 2237,3756.67 2242,3751.67 2242,3746.67 z M 2240,3746.67 C 2240,3751.67 2236,3754.67 2231,3754.67 C 2226,3754.67 2222,3751.67 2222,3746.67 C 2222,3741.67 2226,3738.67 2231,3738.67 C 2236,3738.67 2240,3741.67 2240,3746.67"
         style="fill:#ffffff;fill-opacity:1;fill-rule:nonzero;stroke:none"
         id="path2892" /><path
         d="M 2247,3793.67 C 2247,3785.67 2240,3778.67 2231,3778.67 C 2222,3778.67 2215,3785.67 2215,3793.67 C 2215,3801.67 2222,3808.67 2231,3808.67 C 2240,3808.67 2247,3801.67 2247,3793.67"
         style="fill:#000000;fill-opacity:1;fill-rule:evenodd;stroke:none"
         id="path2894" /><path
         d="M 2247,3793.67 C 2247,3785.67 2240,3778.67 2231,3778.67 C 2222,3778.67 2215,3785.67 2215,3793.67 C 2215,3801.67 2222,3808.67 2231,3808.67 C 2240,3808.67 2247,3801.67 2247,3793.67 z"
         style="fill:none;stroke:#000000;stroke-width:1;stroke-linecap:round;stroke-linejoin:round;stroke-miterlimit:10;stroke-dasharray:none;stroke-opacity:1"
         id="path2896" /><path
         d="M 2241,3793.67 C 2241,3788.67 2237,3784.67 2231,3784.67 C 2225,3784.67 2221,3788.67 2221,3793.67 C 2221,3798.67 2225,3802.67 2231,3802.67 C 2237,3802.67 2241,3798.67 2241,3793.67"
         style="fill:#ffffff;fill-opacity:1;fill-rule:evenodd;stroke:none"
         id="path2898" /><path
         d="M 2242,3793.67 C 2242,3788.67 2237,3783.67 2231,3783.67 C 2225,3783.67 2220,3788.67 2220,3793.67 C 2220,3798.67 2225,3803.67 2231,3803.67 C 2237,3803.67 2242,3798.67 2242,3793.67 z M 2240,3793.67 C 2240,3798.67 2236,3801.67 2231,3801.67 C 2226,3801.67 2222,3798.67 2222,3793.67 C 2222,3788.67 2226,3785.67 2231,3785.67 C 2236,3785.67 2240,3788.67 2240,3793.67"
         style="fill:#ffffff;fill-opacity:1;fill-rule:nonzero;stroke:none"
         id="path2900" /><path
         d="M 2247,3840.67 C 2247,3832.67 2240,3825.67 2231,3825.67 C 2222,3825.67 2215,3832.67 2215,3840.67 C 2215,3848.67 2222,3855.67 2231,3855.67 C 2240,3855.67 2247,3848.67 2247,3840.67"
         style="fill:#000000;fill-opacity:1;fill-rule:evenodd;stroke:none"
         id="path2902" /><path
         d="M 2247,3840.67 C 2247,3832.67 2240,3825.67 2231,3825.67 C 2222,3825.67 2215,3832.67 2215,3840.67 C 2215,3848.67 2222,3855.67 2231,3855.67 C 2240,3855.67 2247,3848.67 2247,3840.67 z"
         style="fill:none;stroke:#000000;stroke-width:1;stroke-linecap:round;stroke-linejoin:round;stroke-miterlimit:10;stroke-dasharray:none;stroke-opacity:1"
         id="path2904" /><path
         d="M 2241,3840.67 C 2241,3835.67 2237,3831.67 2231,3831.67 C 2225,3831.67 2221,3835.67 2221,3840.67 C 2221,3845.67 2225,3849.67 2231,3849.67 C 2237,3849.67 2241,3845.67 2241,3840.67"
         style="fill:#ffffff;fill-opacity:1;fill-rule:evenodd;stroke:none"
         id="path2906" /><path
         d="M 2242,3840.67 C 2242,3835.67 2237,3830.67 2231,3830.67 C 2225,3830.67 2220,3835.67 2220,3840.67 C 2220,3845.67 2225,3850.67 2231,3850.67 C 2237,3850.67 2242,3845.67 2242,3840.67 z M 2240,3840.67 C 2240,3845.67 2236,3848.67 2231,3848.67 C 2226,3848.67 2222,3845.67 2222,3840.67 C 2222,3835.67 2226,3832.67 2231,3832.67 C 2236,3832.67 2240,3835.67 2240,3840.67"
         style="fill:#ffffff;fill-opacity:1;fill-rule:nonzero;stroke:none"
         id="path2908" /><path
         d="M 2247,3887.67 C 2247,3879.67 2240,3872.67 2231,3872.67 C 2222,3872.67 2215,3879.67 2215,3887.67 C 2215,3895.67 2222,3902.67 2231,3902.67 C 2240,3902.67 2247,3895.67 2247,3887.67"
         style="fill:#000000;fill-opacity:1;fill-rule:evenodd;stroke:none"
         id="path2910" /><path
         d="M 2247,3887.67 C 2247,3879.67 2240,3872.67 2231,3872.67 C 2222,3872.67 2215,3879.67 2215,3887.67 C 2215,3895.67 2222,3902.67 2231,3902.67 C 2240,3902.67 2247,3895.67 2247,3887.67 z"
         style="fill:none;stroke:#000000;stroke-width:1;stroke-linecap:round;stroke-linejoin:round;stroke-miterlimit:10;stroke-dasharray:none;stroke-opacity:1"
         id="path2912" /><path
         d="M 2241,3887.67 C 2241,3882.67 2237,3878.67 2231,3878.67 C 2225,3878.67 2221,3882.67 2221,3887.67 C 2221,3892.67 2225,3896.67 2231,3896.67 C 2237,3896.67 2241,3892.67 2241,3887.67"
         style="fill:#ffffff;fill-opacity:1;fill-rule:evenodd;stroke:none"
         id="path2914" /><path
         d="M 2242,3887.67 C 2242,3882.67 2237,3877.67 2231,3877.67 C 2225,3877.67 2220,3882.67 2220,3887.67 C 2220,3892.67 2225,3897.67 2231,3897.67 C 2237,3897.67 2242,3892.67 2242,3887.67 z M 2240,3887.67 C 2240,3892.67 2236,3895.67 2231,3895.67 C 2226,3895.67 2222,3892.67 2222,3887.67 C 2222,3882.67 2226,3879.67 2231,3879.67 C 2236,3879.67 2240,3882.67 2240,3887.67"
         style="fill:#ffffff;fill-opacity:1;fill-rule:nonzero;stroke:none"
         id="path2916" /><path
         d="M 2247,3934.67 C 2247,3926.67 2240,3919.67 2231,3919.67 C 2222,3919.67 2215,3926.67 2215,3934.67 C 2215,3942.67 2222,3949.67 2231,3949.67 C 2240,3949.67 2247,3942.67 2247,3934.67"
         style="fill:#000000;fill-opacity:1;fill-rule:evenodd;stroke:none"
         id="path2918" /><path
         d="M 2247,3934.67 C 2247,3926.67 2240,3919.67 2231,3919.67 C 2222,3919.67 2215,3926.67 2215,3934.67 C 2215,3942.67 2222,3949.67 2231,3949.67 C 2240,3949.67 2247,3942.67 2247,3934.67 z"
         style="fill:none;stroke:#000000;stroke-width:1;stroke-linecap:round;stroke-linejoin:round;stroke-miterlimit:10;stroke-dasharray:none;stroke-opacity:1"
         id="path2920" /><path
         d="M 2241,3934.67 C 2241,3929.67 2237,3925.67 2231,3925.67 C 2225,3925.67 2221,3929.67 2221,3934.67 C 2221,3939.67 2225,3943.67 2231,3943.67 C 2237,3943.67 2241,3939.67 2241,3934.67"
         style="fill:#ffffff;fill-opacity:1;fill-rule:evenodd;stroke:none"
         id="path2922" /><path
         d="M 2242,3934.67 C 2242,3929.67 2237,3924.67 2231,3924.67 C 2225,3924.67 2220,3929.67 2220,3934.67 C 2220,3939.67 2225,3944.67 2231,3944.67 C 2237,3944.67 2242,3939.67 2242,3934.67 z M 2240,3934.67 C 2240,3939.67 2236,3942.67 2231,3942.67 C 2226,3942.67 2222,3939.67 2222,3934.67 C 2222,3929.67 2226,3926.67 2231,3926.67 C 2236,3926.67 2240,3929.67 2240,3934.67"
         style="fill:#ffffff;fill-opacity:1;fill-rule:nonzero;stroke:none"
         id="path2924" /><path
         d="M 2247,3982.67 C 2247,3974.67 2240,3967.67 2231,3967.67 C 2222,3967.67 2215,3974.67 2215,3982.67 C 2215,3990.67 2222,3997.67 2231,3997.67 C 2240,3997.67 2247,3990.67 2247,3982.67"
         style="fill:#000000;fill-opacity:1;fill-rule:evenodd;stroke:none"
         id="path2926" /><path
         d="M 2247,3982.67 C 2247,3974.67 2240,3967.67 2231,3967.67 C 2222,3967.67 2215,3974.67 2215,3982.67 C 2215,3990.67 2222,3997.67 2231,3997.67 C 2240,3997.67 2247,3990.67 2247,3982.67 z"
         style="fill:none;stroke:#000000;stroke-width:1;stroke-linecap:round;stroke-linejoin:round;stroke-miterlimit:10;stroke-dasharray:none;stroke-opacity:1"
         id="path2928" /><path
         d="M 2241,3982.67 C 2241,3977.67 2237,3973.67 2231,3973.67 C 2225,3973.67 2221,3977.67 2221,3982.67 C 2221,3987.67 2225,3991.67 2231,3991.67 C 2237,3991.67 2241,3987.67 2241,3982.67"
         style="fill:#ffffff;fill-opacity:1;fill-rule:evenodd;stroke:none"
         id="path2930" /><path
         d="M 2242,3982.67 C 2242,3977.67 2237,3972.67 2231,3972.67 C 2225,3972.67 2220,3977.67 2220,3982.67 C 2220,3987.67 2225,3992.67 2231,3992.67 C 2237,3992.67 2242,3987.67 2242,3982.67 z M 2240,3982.67 C 2240,3987.67 2236,3990.67 2231,3990.67 C 2226,3990.67 2222,3987.67 2222,3982.67 C 2222,3977.67 2226,3974.67 2231,3974.67 C 2236,3974.67 2240,3977.67 2240,3982.67"
         style="fill:#ffffff;fill-opacity:1;fill-rule:nonzero;stroke:none"
         id="path2932" /><path
         d="M 2247,4029.67 C 2247,4021.67 2240,4014.67 2231,4014.67 C 2222,4014.67 2215,4021.67 2215,4029.67 C 2215,4037.67 2222,4044.67 2231,4044.67 C 2240,4044.67 2247,4037.67 2247,4029.67"
         style="fill:#000000;fill-opacity:1;fill-rule:evenodd;stroke:none"
         id="path2934" /><path
         d="M 2247,4029.67 C 2247,4021.67 2240,4014.67 2231,4014.67 C 2222,4014.67 2215,4021.67 2215,4029.67 C 2215,4037.67 2222,4044.67 2231,4044.67 C 2240,4044.67 2247,4037.67 2247,4029.67 z"
         style="fill:none;stroke:#000000;stroke-width:1;stroke-linecap:round;stroke-linejoin:round;stroke-miterlimit:10;stroke-dasharray:none;stroke-opacity:1"
         id="path2936" /><path
         d="M 2241,4029.67 C 2241,4024.67 2237,4020.67 2231,4020.67 C 2225,4020.67 2221,4024.67 2221,4029.67 C 2221,4034.67 2225,4038.67 2231,4038.67 C 2237,4038.67 2241,4034.67 2241,4029.67"
         style="fill:#ffffff;fill-opacity:1;fill-rule:evenodd;stroke:none"
         id="path2938" /><path
         d="M 2242,4029.67 C 2242,4024.67 2237,4019.67 2231,4019.67 C 2225,4019.67 2220,4024.67 2220,4029.67 C 2220,4034.67 2225,4039.67 2231,4039.67 C 2237,4039.67 2242,4034.67 2242,4029.67 z M 2240,4029.67 C 2240,4034.67 2236,4037.67 2231,4037.67 C 2226,4037.67 2222,4034.67 2222,4029.67 C 2222,4024.67 2226,4021.67 2231,4021.67 C 2236,4021.67 2240,4024.67 2240,4029.67"
         style="fill:#ffffff;fill-opacity:1;fill-rule:nonzero;stroke:none"
         id="path2940" /><path
         d="M 2247,4076.67 C 2247,4068.67 2240,4061.67 2231,4061.67 C 2222,4061.67 2215,4068.67 2215,4076.67 C 2215,4084.67 2222,4091.67 2231,4091.67 C 2240,4091.67 2247,4084.67 2247,4076.67"
         style="fill:#000000;fill-opacity:1;fill-rule:evenodd;stroke:none"
         id="path2942" /><path
         d="M 2247,4076.67 C 2247,4068.67 2240,4061.67 2231,4061.67 C 2222,4061.67 2215,4068.67 2215,4076.67 C 2215,4084.67 2222,4091.67 2231,4091.67 C 2240,4091.67 2247,4084.67 2247,4076.67 z"
         style="fill:none;stroke:#000000;stroke-width:1;stroke-linecap:round;stroke-linejoin:round;stroke-miterlimit:10;stroke-dasharray:none;stroke-opacity:1"
         id="path2944" /><path
         d="M 2241,4076.67 C 2241,4071.67 2237,4067.67 2231,4067.67 C 2225,4067.67 2221,4071.67 2221,4076.67 C 2221,4081.67 2225,4085.67 2231,4085.67 C 2237,4085.67 2241,4081.67 2241,4076.67"
         style="fill:#ffffff;fill-opacity:1;fill-rule:evenodd;stroke:none"
         id="path2946" /><path
         d="M 2242,4076.67 C 2242,4071.67 2237,4066.67 2231,4066.67 C 2225,4066.67 2220,4071.67 2220,4076.67 C 2220,4081.67 2225,4086.67 2231,4086.67 C 2237,4086.67 2242,4081.67 2242,4076.67 z M 2240,4076.67 C 2240,4081.67 2236,4084.67 2231,4084.67 C 2226,4084.67 2222,4081.67 2222,4076.67 C 2222,4071.67 2226,4068.67 2231,4068.67 C 2236,4068.67 2240,4071.67 2240,4076.67"
         style="fill:#ffffff;fill-opacity:1;fill-rule:nonzero;stroke:none"
         id="path2948" /><path
         d="M 2247,4123.67 C 2247,4115.67 2240,4108.67 2231,4108.67 C 2222,4108.67 2215,4115.67 2215,4123.67 C 2215,4131.67 2222,4138.67 2231,4138.67 C 2240,4138.67 2247,4131.67 2247,4123.67"
         style="fill:#000000;fill-opacity:1;fill-rule:evenodd;stroke:none"
         id="path2950" /><path
         d="M 2247,4123.67 C 2247,4115.67 2240,4108.67 2231,4108.67 C 2222,4108.67 2215,4115.67 2215,4123.67 C 2215,4131.67 2222,4138.67 2231,4138.67 C 2240,4138.67 2247,4131.67 2247,4123.67 z"
         style="fill:none;stroke:#000000;stroke-width:1;stroke-linecap:round;stroke-linejoin:round;stroke-miterlimit:10;stroke-dasharray:none;stroke-opacity:1"
         id="path2952" /><path
         d="M 2241,4123.67 C 2241,4118.67 2237,4114.67 2231,4114.67 C 2225,4114.67 2221,4118.67 2221,4123.67 C 2221,4128.67 2225,4132.67 2231,4132.67 C 2237,4132.67 2241,4128.67 2241,4123.67"
         style="fill:#ffffff;fill-opacity:1;fill-rule:evenodd;stroke:none"
         id="path2954" /><path
         d="M 2242,4123.67 C 2242,4118.67 2237,4113.67 2231,4113.67 C 2225,4113.67 2220,4118.67 2220,4123.67 C 2220,4128.67 2225,4133.67 2231,4133.67 C 2237,4133.67 2242,4128.67 2242,4123.67 z M 2240,4123.67 C 2240,4128.67 2236,4131.67 2231,4131.67 C 2226,4131.67 2222,4128.67 2222,4123.67 C 2222,4118.67 2226,4115.67 2231,4115.67 C 2236,4115.67 2240,4118.67 2240,4123.67"
         style="fill:#ffffff;fill-opacity:1;fill-rule:nonzero;stroke:none"
         id="path2956" /><path
         d="M 2723,3728.67 C 2723,3717.67 2714,3708.67 2702,3708.67 C 2690,3708.67 2681,3717.67 2681,3728.67 C 2681,3739.67 2690,3748.67 2702,3748.67 C 2714,3748.67 2723,3739.67 2723,3728.67"
         style="fill:#000000;fill-opacity:1;fill-rule:evenodd;stroke:none"
         id="path2958" /><path
         d="M 2723,3728.67 C 2723,3717.67 2714,3708.67 2702,3708.67 C 2690,3708.67 2681,3717.67 2681,3728.67 C 2681,3739.67 2690,3748.67 2702,3748.67 C 2714,3748.67 2723,3739.67 2723,3728.67 z"
         style="fill:none;stroke:#000000;stroke-width:1;stroke-linecap:round;stroke-linejoin:round;stroke-miterlimit:10;stroke-dasharray:none;stroke-opacity:1"
         id="path2960" /><path
         d="M 2712,3728.67 C 2712,3723.67 2708,3719.67 2702,3719.67 C 2696,3719.67 2692,3723.67 2692,3728.67 C 2692,3733.67 2696,3737.67 2702,3737.67 C 2708,3737.67 2712,3733.67 2712,3728.67"
         style="fill:#ffffff;fill-opacity:1;fill-rule:evenodd;stroke:none"
         id="path2962" /><path
         d="M 2713,3728.67 C 2713,3723.67 2708,3718.67 2702,3718.67 C 2696,3718.67 2691,3723.67 2691,3728.67 C 2691,3733.67 2696,3738.67 2702,3738.67 C 2708,3738.67 2713,3733.67 2713,3728.67 z M 2711,3728.67 C 2711,3733.67 2707,3736.67 2702,3736.67 C 2697,3736.67 2693,3733.67 2693,3728.67 C 2693,3723.67 2697,3720.67 2702,3720.67 C 2707,3720.67 2711,3723.67 2711,3728.67"
         style="fill:#ffffff;fill-opacity:1;fill-rule:nonzero;stroke:none"
         id="path2964" /><path
         d="M 2570,3622.67 C 2570,3611.67 2561,3602.67 2549,3602.67 C 2537,3602.67 2528,3611.67 2528,3622.67 C 2528,3633.67 2537,3642.67 2549,3642.67 C 2561,3642.67 2570,3633.67 2570,3622.67"
         style="fill:#000000;fill-opacity:1;fill-rule:evenodd;stroke:none"
         id="path2966" /><path
         d="M 2570,3622.67 C 2570,3611.67 2561,3602.67 2549,3602.67 C 2537,3602.67 2528,3611.67 2528,3622.67 C 2528,3633.67 2537,3642.67 2549,3642.67 C 2561,3642.67 2570,3633.67 2570,3622.67 z"
         style="fill:none;stroke:#000000;stroke-width:1;stroke-linecap:round;stroke-linejoin:round;stroke-miterlimit:10;stroke-dasharray:none;stroke-opacity:1"
         id="path2968" /><path
         d="M 2559,3622.67 C 2559,3617.67 2555,3613.67 2549,3613.67 C 2543,3613.67 2539,3617.67 2539,3622.67 C 2539,3627.67 2543,3631.67 2549,3631.67 C 2555,3631.67 2559,3627.67 2559,3622.67"
         style="fill:#ffffff;fill-opacity:1;fill-rule:evenodd;stroke:none"
         id="path2970" /><path
         d="M 2560,3622.67 C 2560,3617.67 2555,3612.67 2549,3612.67 C 2543,3612.67 2538,3617.67 2538,3622.67 C 2538,3627.67 2543,3632.67 2549,3632.67 C 2555,3632.67 2560,3627.67 2560,3622.67 z M 2558,3622.67 C 2558,3627.67 2554,3630.67 2549,3630.67 C 2544,3630.67 2540,3627.67 2540,3622.67 C 2540,3617.67 2544,3614.67 2549,3614.67 C 2554,3614.67 2558,3617.67 2558,3622.67"
         style="fill:#ffffff;fill-opacity:1;fill-rule:nonzero;stroke:none"
         id="path2972" /><path
         d="M 2546,3852.67 C 2546,3844.67 2539,3838.67 2531,3838.67 C 2523,3838.67 2516,3844.67 2516,3852.67 C 2516,3860.67 2523,3866.67 2531,3866.67 C 2539,3866.67 2546,3860.67 2546,3852.67"
         style="fill:#000000;fill-opacity:1;fill-rule:evenodd;stroke:none"
         id="path2974" /><path
         d="M 2546,3852.67 C 2546,3844.67 2539,3838.67 2531,3838.67 C 2523,3838.67 2516,3844.67 2516,3852.67 C 2516,3860.67 2523,3866.67 2531,3866.67 C 2539,3866.67 2546,3860.67 2546,3852.67 z"
         style="fill:none;stroke:#000000;stroke-width:1;stroke-linecap:round;stroke-linejoin:round;stroke-miterlimit:10;stroke-dasharray:none;stroke-opacity:1"
         id="path2976" /><path
         d="M 2541,3852.67 C 2541,3847.67 2537,3843.67 2531,3843.67 C 2525,3843.67 2521,3847.67 2521,3852.67 C 2521,3857.67 2525,3861.67 2531,3861.67 C 2537,3861.67 2541,3857.67 2541,3852.67"
         style="fill:#ffffff;fill-opacity:1;fill-rule:evenodd;stroke:none"
         id="path2978" /><path
         d="M 2542,3852.67 C 2542,3847.67 2537,3842.67 2531,3842.67 C 2525,3842.67 2520,3847.67 2520,3852.67 C 2520,3857.67 2525,3862.67 2531,3862.67 C 2537,3862.67 2542,3857.67 2542,3852.67 z M 2540,3852.67 C 2540,3857.67 2536,3860.67 2531,3860.67 C 2526,3860.67 2522,3857.67 2522,3852.67 C 2522,3847.67 2526,3844.67 2531,3844.67 C 2536,3844.67 2540,3847.67 2540,3852.67"
         style="fill:#ffffff;fill-opacity:1;fill-rule:nonzero;stroke:none"
         id="path2980" /><path
         d="M 2417,3811.67 C 2417,3803.67 2410,3797.67 2402,3797.67 C 2394,3797.67 2387,3803.67 2387,3811.67 C 2387,3819.67 2394,3825.67 2402,3825.67 C 2410,3825.67 2417,3819.67 2417,3811.67"
         style="fill:#000000;fill-opacity:1;fill-rule:evenodd;stroke:none"
         id="path2982" /><path
         d="M 2417,3811.67 C 2417,3803.67 2410,3797.67 2402,3797.67 C 2394,3797.67 2387,3803.67 2387,3811.67 C 2387,3819.67 2394,3825.67 2402,3825.67 C 2410,3825.67 2417,3819.67 2417,3811.67 z"
         style="fill:none;stroke:#000000;stroke-width:1;stroke-linecap:round;stroke-linejoin:round;stroke-miterlimit:10;stroke-dasharray:none;stroke-opacity:1"
         id="path2984" /><path
         d="M 2412,3811.67 C 2412,3806.67 2408,3802.67 2402,3802.67 C 2396,3802.67 2392,3806.67 2392,3811.67 C 2392,3816.67 2396,3820.67 2402,3820.67 C 2408,3820.67 2412,3816.67 2412,3811.67"
         style="fill:#ffffff;fill-opacity:1;fill-rule:evenodd;stroke:none"
         id="path2986" /><path
         d="M 2413,3811.67 C 2413,3806.67 2408,3801.67 2402,3801.67 C 2396,3801.67 2391,3806.67 2391,3811.67 C 2391,3816.67 2396,3821.67 2402,3821.67 C 2408,3821.67 2413,3816.67 2413,3811.67 z M 2411,3811.67 C 2411,3816.67 2407,3819.67 2402,3819.67 C 2397,3819.67 2393,3816.67 2393,3811.67 C 2393,3806.67 2397,3803.67 2402,3803.67 C 2407,3803.67 2411,3806.67 2411,3811.67"
         style="fill:#ffffff;fill-opacity:1;fill-rule:nonzero;stroke:none"
         id="path2988" /><path
         d="M 2464,3852.67 C 2464,3844.67 2457,3838.67 2449,3838.67 C 2441,3838.67 2434,3844.67 2434,3852.67 C 2434,3860.67 2441,3866.67 2449,3866.67 C 2457,3866.67 2464,3860.67 2464,3852.67"
         style="fill:#000000;fill-opacity:1;fill-rule:evenodd;stroke:none"
         id="path2990" /><path
         d="M 2464,3852.67 C 2464,3844.67 2457,3838.67 2449,3838.67 C 2441,3838.67 2434,3844.67 2434,3852.67 C 2434,3860.67 2441,3866.67 2449,3866.67 C 2457,3866.67 2464,3860.67 2464,3852.67 z"
         style="fill:none;stroke:#000000;stroke-width:1;stroke-linecap:round;stroke-linejoin:round;stroke-miterlimit:10;stroke-dasharray:none;stroke-opacity:1"
         id="path2992" /><path
         d="M 2459,3852.67 C 2459,3847.67 2455,3843.67 2449,3843.67 C 2443,3843.67 2439,3847.67 2439,3852.67 C 2439,3857.67 2443,3861.67 2449,3861.67 C 2455,3861.67 2459,3857.67 2459,3852.67"
         style="fill:#ffffff;fill-opacity:1;fill-rule:evenodd;stroke:none"
         id="path2994" /><path
         d="M 2460,3852.67 C 2460,3847.67 2455,3842.67 2449,3842.67 C 2443,3842.67 2438,3847.67 2438,3852.67 C 2438,3857.67 2443,3862.67 2449,3862.67 C 2455,3862.67 2460,3857.67 2460,3852.67 z M 2458,3852.67 C 2458,3857.67 2454,3860.67 2449,3860.67 C 2444,3860.67 2440,3857.67 2440,3852.67 C 2440,3847.67 2444,3844.67 2449,3844.67 C 2454,3844.67 2458,3847.67 2458,3852.67"
         style="fill:#ffffff;fill-opacity:1;fill-rule:nonzero;stroke:none"
         id="path2996" /><path
         d="M 2687,3687.67 C 2687,3679.67 2680,3673.67 2672,3673.67 C 2664,3673.67 2657,3679.67 2657,3687.67 C 2657,3695.67 2664,3701.67 2672,3701.67 C 2680,3701.67 2687,3695.67 2687,3687.67"
         style="fill:#000000;fill-opacity:1;fill-rule:evenodd;stroke:none"
         id="path2998" /><path
         d="M 2687,3687.67 C 2687,3679.67 2680,3673.67 2672,3673.67 C 2664,3673.67 2657,3679.67 2657,3687.67 C 2657,3695.67 2664,3701.67 2672,3701.67 C 2680,3701.67 2687,3695.67 2687,3687.67 z"
         style="fill:none;stroke:#000000;stroke-width:1;stroke-linecap:round;stroke-linejoin:round;stroke-miterlimit:10;stroke-dasharray:none;stroke-opacity:1"
         id="path3000" /><path
         d="M 2682,3687.67 C 2682,3682.67 2678,3678.67 2672,3678.67 C 2666,3678.67 2662,3682.67 2662,3687.67 C 2662,3692.67 2666,3696.67 2672,3696.67 C 2678,3696.67 2682,3692.67 2682,3687.67"
         style="fill:#ffffff;fill-opacity:1;fill-rule:evenodd;stroke:none"
         id="path3002" /><path
         d="M 2683,3687.67 C 2683,3682.67 2678,3677.67 2672,3677.67 C 2666,3677.67 2661,3682.67 2661,3687.67 C 2661,3692.67 2666,3697.67 2672,3697.67 C 2678,3697.67 2683,3692.67 2683,3687.67 z M 2681,3687.67 C 2681,3692.67 2677,3695.67 2672,3695.67 C 2667,3695.67 2663,3692.67 2663,3687.67 C 2663,3682.67 2667,3679.67 2672,3679.67 C 2677,3679.67 2681,3682.67 2681,3687.67"
         style="fill:#ffffff;fill-opacity:1;fill-rule:nonzero;stroke:none"
         id="path3004" /><path
         d="M 2658,3651.67 C 2658,3643.67 2651,3637.67 2643,3637.67 C 2635,3637.67 2628,3643.67 2628,3651.67 C 2628,3659.67 2635,3665.67 2643,3665.67 C 2651,3665.67 2658,3659.67 2658,3651.67"
         style="fill:#000000;fill-opacity:1;fill-rule:evenodd;stroke:none"
         id="path3006" /><path
         d="M 2658,3651.67 C 2658,3643.67 2651,3637.67 2643,3637.67 C 2635,3637.67 2628,3643.67 2628,3651.67 C 2628,3659.67 2635,3665.67 2643,3665.67 C 2651,3665.67 2658,3659.67 2658,3651.67 z"
         style="fill:none;stroke:#000000;stroke-width:1;stroke-linecap:round;stroke-linejoin:round;stroke-miterlimit:10;stroke-dasharray:none;stroke-opacity:1"
         id="path3008" /><path
         d="M 2653,3651.67 C 2653,3646.67 2649,3642.67 2643,3642.67 C 2637,3642.67 2633,3646.67 2633,3651.67 C 2633,3656.67 2637,3660.67 2643,3660.67 C 2649,3660.67 2653,3656.67 2653,3651.67"
         style="fill:#ffffff;fill-opacity:1;fill-rule:evenodd;stroke:none"
         id="path3010" /><path
         d="M 2654,3651.67 C 2654,3646.67 2649,3641.67 2643,3641.67 C 2637,3641.67 2632,3646.67 2632,3651.67 C 2632,3656.67 2637,3661.67 2643,3661.67 C 2649,3661.67 2654,3656.67 2654,3651.67 z M 2652,3651.67 C 2652,3656.67 2648,3659.67 2643,3659.67 C 2638,3659.67 2634,3656.67 2634,3651.67 C 2634,3646.67 2638,3643.67 2643,3643.67 C 2648,3643.67 2652,3646.67 2652,3651.67"
         style="fill:#ffffff;fill-opacity:1;fill-rule:nonzero;stroke:none"
         id="path3012" /><path
         d="M 2593,3852.67 C 2593,3844.67 2586,3838.67 2578,3838.67 C 2570,3838.67 2563,3844.67 2563,3852.67 C 2563,3860.67 2570,3866.67 2578,3866.67 C 2586,3866.67 2593,3860.67 2593,3852.67"
         style="fill:#000000;fill-opacity:1;fill-rule:evenodd;stroke:none"
         id="path3014" /><path
         d="M 2593,3852.67 C 2593,3844.67 2586,3838.67 2578,3838.67 C 2570,3838.67 2563,3844.67 2563,3852.67 C 2563,3860.67 2570,3866.67 2578,3866.67 C 2586,3866.67 2593,3860.67 2593,3852.67 z"
         style="fill:none;stroke:#000000;stroke-width:1;stroke-linecap:round;stroke-linejoin:round;stroke-miterlimit:10;stroke-dasharray:none;stroke-opacity:1"
         id="path3016" /><path
         d="M 2588,3852.67 C 2588,3847.67 2584,3843.67 2578,3843.67 C 2572,3843.67 2568,3847.67 2568,3852.67 C 2568,3857.67 2572,3861.67 2578,3861.67 C 2584,3861.67 2588,3857.67 2588,3852.67"
         style="fill:#ffffff;fill-opacity:1;fill-rule:evenodd;stroke:none"
         id="path3018" /><path
         d="M 2589,3852.67 C 2589,3847.67 2584,3842.67 2578,3842.67 C 2572,3842.67 2567,3847.67 2567,3852.67 C 2567,3857.67 2572,3862.67 2578,3862.67 C 2584,3862.67 2589,3857.67 2589,3852.67 z M 2587,3852.67 C 2587,3857.67 2583,3860.67 2578,3860.67 C 2573,3860.67 2569,3857.67 2569,3852.67 C 2569,3847.67 2573,3844.67 2578,3844.67 C 2583,3844.67 2587,3847.67 2587,3852.67"
         style="fill:#ffffff;fill-opacity:1;fill-rule:nonzero;stroke:none"
         id="path3020" /><path
         d="M 2849,2967.67 L 2107,2967.67"
         style="fill:none;stroke:#000000;stroke-width:1;stroke-linecap:round;stroke-linejoin:round;stroke-miterlimit:10;stroke-dasharray:none;stroke-opacity:1"
         id="path3022" /><path
         d="M 2107,2967.67 L 2107,4300.67"
         style="fill:none;stroke:#000000;stroke-width:1;stroke-linecap:round;stroke-linejoin:round;stroke-miterlimit:10;stroke-dasharray:none;stroke-opacity:1"
         id="path3024" /><path
         d="M 2107,4300.67 L 2849,4300.67"
         style="fill:none;stroke:#000000;stroke-width:1;stroke-linecap:round;stroke-linejoin:round;stroke-miterlimit:10;stroke-dasharray:none;stroke-opacity:1"
         id="path3026" /><path
         d="M 2849,4300.67 L 2849,2967.67"
         style="fill:none;stroke:#000000;stroke-width:1;stroke-linecap:round;stroke-linejoin:round;stroke-miterlimit:10;stroke-dasharray:none;stroke-opacity:1"
         id="path3028" /><path
         d="M 2487.8151,3767.6886 L 2492.5588,3767.6886 L 2492.5588,3781.6886 L 2487.8151,3781.6886 L 2487.8151,3767.6886 z"
         style="fill:#000000;fill-opacity:1;fill-rule:evenodd;stroke:none;stroke-width:1;stroke-miterlimit:4;stroke-dasharray:none;stroke-opacity:1"
         id="path3800" /><path
         d="M 2464.1637,3767.6888 L 2468.9074,3767.6888 L 2468.9074,3781.6888 L 2464.1637,3781.6888 L 2464.1637,3767.6888 z"
         style="fill:#000000;fill-opacity:1;fill-rule:evenodd;stroke:none;stroke-width:1;stroke-miterlimit:4;stroke-dasharray:none;stroke-opacity:1"
         id="path3802" /><path
         d="M 2499.6718,3767.6833 L 2504.4155,3767.6833 L 2504.4155,3781.6833 L 2499.6718,3781.6833 L 2499.6718,3767.6833 z"
         style="fill:#000000;fill-opacity:1;fill-rule:evenodd;stroke:none;stroke-width:1;stroke-miterlimit:4;stroke-dasharray:none;stroke-opacity:1"
         id="path3804" /><path
         d="M 2510.7022,3767.5509 L 2515.4459,3767.5509 L 2515.4459,3781.5509 L 2510.7022,3781.5509 L 2510.7022,3767.5509 z"
         style="fill:#000000;fill-opacity:1;fill-rule:evenodd;stroke:none;stroke-width:1;stroke-miterlimit:4;stroke-dasharray:none;stroke-opacity:1"
         id="path3806" /><path
         d="M 2522.5976,3767.1803 L 2527.3413,3767.1803 L 2527.3413,3781.1803 L 2522.5976,3781.1803 L 2522.5976,3767.1803 z"
         style="fill:#000000;fill-opacity:1;fill-rule:evenodd;stroke:none;stroke-width:1;stroke-miterlimit:4;stroke-dasharray:none;stroke-opacity:1"
         id="path3808" /><path
         d="M 2534.7851,3767.1803 L 2539.5288,3767.1803 L 2539.5288,3781.1803 L 2534.7851,3781.1803 L 2534.7851,3767.1803 z"
         style="fill:#000000;fill-opacity:1;fill-rule:evenodd;stroke:none;stroke-width:1;stroke-miterlimit:4;stroke-dasharray:none;stroke-opacity:1"
         id="path3812" /><path
         d="M 2548.4381,3758.1146 L 2548.4381,3753.3709 L 2562.4381,3753.371 L 2562.4381,3758.1146 L 2548.4381,3758.1146 z"
         style="fill:#000000;fill-opacity:1;fill-rule:evenodd;stroke:none;stroke-width:1;stroke-miterlimit:4;stroke-dasharray:none;stroke-opacity:1"
         id="path3834" /><path
         d="M 2548.4382,3746.1355 L 2548.4382,3741.3917 L 2562.4382,3741.3917 L 2562.4382,3746.1355 L 2548.4382,3746.1355 z"
         style="fill:#000000;fill-opacity:1;fill-rule:evenodd;stroke:none;stroke-width:1;stroke-miterlimit:4;stroke-dasharray:none;stroke-opacity:1"
         id="path3836"
         inkscape:transform-center-y="0.265625" /><path
         d="M 2441.4591,3757.9063 L 2441.4591,3753.1626 L 2455.4591,3753.1626 L 2455.4591,3757.9063 L 2441.4591,3757.9063 z"
         style="fill:#000000;fill-opacity:1;fill-rule:evenodd;stroke:none;stroke-width:1;stroke-miterlimit:4;stroke-dasharray:none;stroke-opacity:1"
         id="path3838" /><path
         d="M 2441.459,3746.0313 L 2441.459,3741.2876 L 2455.459,3741.2876 L 2455.459,3746.0313 L 2441.459,3746.0313 z"
         style="fill:#000000;fill-opacity:1;fill-rule:evenodd;stroke:none;stroke-width:1;stroke-miterlimit:4;stroke-dasharray:none;stroke-opacity:1"
         id="path3840" /><path
         d="M 2441.459,3733.7396 L 2441.459,3728.9959 L 2455.459,3728.9959 L 2455.459,3733.7396 L 2441.459,3733.7396 z"
         style="fill:#000000;fill-opacity:1;fill-rule:evenodd;stroke:none;stroke-width:1;stroke-miterlimit:4;stroke-dasharray:none;stroke-opacity:1"
         id="path3842" /><path
         d="M 2441.3548,3721.7604 L 2441.3548,3717.0167 L 2455.3548,3717.0167 L 2455.3548,3721.7604 L 2441.3548,3721.7604 z"
         style="fill:#000000;fill-opacity:1;fill-rule:evenodd;stroke:none;stroke-width:1;stroke-miterlimit:4;stroke-dasharray:none;stroke-opacity:1"
         id="path3844" /><path
         d="M 2441.4589,3711.0313 L 2441.4589,3706.2876 L 2455.4589,3706.2876 L 2455.4589,3711.0313 L 2441.4589,3711.0313 z"
         style="fill:#000000;fill-opacity:1;fill-rule:evenodd;stroke:none;stroke-width:1;stroke-miterlimit:4;stroke-dasharray:none;stroke-opacity:1"
         id="path3846" /><path
         d="M 2441.3548,3698.8437 L 2441.3548,3694.1 L 2455.3548,3694.1 L 2455.3548,3698.8437 L 2441.3548,3698.8437 z"
         style="fill:#000000;fill-opacity:1;fill-rule:evenodd;stroke:none;stroke-width:1;stroke-miterlimit:4;stroke-dasharray:none;stroke-opacity:1"
         id="path3848" /><path
         d="M 2441.459,3686.9688 L 2441.459,3682.2251 L 2455.459,3682.2251 L 2455.459,3686.9688 L 2441.459,3686.9688 z"
         style="fill:#000000;fill-opacity:1;fill-rule:evenodd;stroke:none;stroke-width:1;stroke-miterlimit:4;stroke-dasharray:none;stroke-opacity:1"
         id="path3850" /><path
         d="M 2464.733,3659.1594 L 2469.4767,3659.1594 L 2469.4767,3673.1594 L 2464.733,3673.1594 L 2464.733,3659.1594 z"
         style="fill:#000000;fill-opacity:1;fill-rule:evenodd;stroke:none;stroke-width:1;stroke-miterlimit:4;stroke-dasharray:none;stroke-opacity:1"
         id="path3852" /><path
         d="M 2487.5455,3659.2636 L 2492.2892,3659.2636 L 2492.2892,3673.2636 L 2487.5455,3673.2636 L 2487.5455,3659.2636 z"
         style="fill:#000000;fill-opacity:1;fill-rule:evenodd;stroke:none;stroke-width:1;stroke-miterlimit:4;stroke-dasharray:none;stroke-opacity:1"
         id="path3854" /><path
         d="M 2475.6705,3659.1594 L 2480.4142,3659.1594 L 2480.4142,3673.1594 L 2475.6705,3673.1594 L 2475.6705,3659.1594 z"
         style="fill:#000000;fill-opacity:1;fill-rule:evenodd;stroke:none;stroke-width:1;stroke-miterlimit:4;stroke-dasharray:none;stroke-opacity:1"
         id="path3856" /><path
         d="M 2499.6288,3659.1595 L 2504.3725,3659.1595 L 2504.3725,3673.1595 L 2499.6288,3673.1595 L 2499.6288,3659.1595 z"
         style="fill:#000000;fill-opacity:1;fill-rule:evenodd;stroke:none;stroke-width:1;stroke-miterlimit:4;stroke-dasharray:none;stroke-opacity:1"
         id="path3858" /><path
         d="M 2511.8163,3659.0553 L 2516.56,3659.0553 L 2516.56,3673.0553 L 2511.8163,3673.0553 L 2511.8163,3659.0553 z"
         style="fill:#000000;fill-opacity:1;fill-rule:evenodd;stroke:none;stroke-width:1;stroke-miterlimit:4;stroke-dasharray:none;stroke-opacity:1"
         id="path3860" /><path
         d="M 2522.7538,3659.0552 L 2527.4975,3659.0552 L 2527.4975,3673.0552 L 2522.7538,3673.0552 L 2522.7538,3659.0552 z"
         style="fill:#000000;fill-opacity:1;fill-rule:evenodd;stroke:none;stroke-width:1;stroke-miterlimit:4;stroke-dasharray:none;stroke-opacity:1"
         id="path3862" /><path
         d="M 2548.55,3733.9947 L 2548.55,3729.251 L 2562.55,3729.2511 L 2562.55,3733.9947 L 2548.55,3733.9947 z"
         style="fill:#000000;fill-opacity:1;fill-rule:evenodd;stroke:none;stroke-width:1;stroke-miterlimit:4;stroke-dasharray:none;stroke-opacity:1"
         id="path3866" /><path
         d="M 2548.5343,3721.8749 L 2548.5343,3717.1312 L 2562.5343,3717.1313 L 2562.5343,3721.8749 L 2548.5343,3721.8749 z"
         style="fill:#000000;fill-opacity:1;fill-rule:evenodd;stroke:none;stroke-width:1;stroke-miterlimit:4;stroke-dasharray:none;stroke-opacity:1"
         id="path3868" /><path
         d="M 2548.4382,3710.9271 L 2548.4382,3706.1834 L 2562.4382,3706.1835 L 2562.4382,3710.9271 L 2548.4382,3710.9271 z"
         style="fill:#000000;fill-opacity:1;fill-rule:evenodd;stroke:none;stroke-width:1;stroke-miterlimit:4;stroke-dasharray:none;stroke-opacity:1"
         id="path3872" /><path
         d="M 2548.4382,3699.1563 L 2548.4382,3694.4126 L 2562.4382,3694.4127 L 2562.4382,3699.1563 L 2548.4382,3699.1563 z"
         style="fill:#000000;fill-opacity:1;fill-rule:evenodd;stroke:none;stroke-width:1;stroke-miterlimit:4;stroke-dasharray:none;stroke-opacity:1"
         id="path3874" /><path
         d="M 2548.395,3687.6559 L 2548.395,3682.9122 L 2562.395,3682.9123 L 2562.395,3687.6559 L 2548.395,3687.6559 z"
         style="fill:#000000;fill-opacity:1;fill-rule:evenodd;stroke:none;stroke-width:1;stroke-miterlimit:4;stroke-dasharray:none;stroke-opacity:1"
         id="path3876" /></g></g></svg>