G75*
G70*
%OFA0B0*%
%FSLAX24Y24*%
%IPPOS*%
%LPD*%
%AMOC8*
5,1,8,0,0,1.08239X$1,22.5*
%
%ADD10C,0.0030*%
%ADD11C,0.0040*%
%ADD12C,0.0160*%
%ADD13C,0.0060*%
%ADD14C,0.0120*%
%ADD15R,0.0079X0.0079*%
%ADD16R,0.0059X0.0098*%
%ADD17C,0.0100*%
%ADD18R,0.0059X0.0827*%
%ADD19R,0.0200X0.1000*%
%ADD20R,0.0300X0.0200*%
%ADD21C,0.0020*%
%ADD22C,0.0080*%
%ADD23R,0.0098X0.0059*%
D10*
X003433Y010836D02*
X003433Y011126D01*
X003579Y011126D01*
X003627Y011078D01*
X003627Y010981D01*
X003579Y010933D01*
X003433Y010933D01*
X003728Y010836D02*
X003825Y010933D01*
X003922Y010836D01*
X003922Y011126D01*
X004023Y011126D02*
X004168Y011126D01*
X004216Y011078D01*
X004216Y010884D01*
X004168Y010836D01*
X004023Y010836D01*
X004023Y011126D01*
X003728Y011126D02*
X003728Y010836D01*
X013717Y016556D02*
X013717Y016846D01*
X013766Y016701D02*
X013911Y016556D01*
X014012Y016556D02*
X014012Y016846D01*
X014205Y016556D01*
X014205Y016846D01*
X014307Y016750D02*
X014403Y016846D01*
X014500Y016750D01*
X014500Y016556D01*
X014601Y016556D02*
X014601Y016846D01*
X014746Y016846D01*
X014795Y016798D01*
X014795Y016701D01*
X014746Y016653D01*
X014601Y016653D01*
X014500Y016701D02*
X014307Y016701D01*
X014307Y016750D02*
X014307Y016556D01*
X013911Y016846D02*
X013717Y016653D01*
X014896Y016653D02*
X015041Y016653D01*
X015089Y016701D01*
X015089Y016798D01*
X015041Y016846D01*
X014896Y016846D01*
X014896Y016556D01*
X015191Y016556D02*
X015384Y016556D01*
X015485Y016556D02*
X015485Y016846D01*
X015630Y016846D01*
X015679Y016798D01*
X015679Y016701D01*
X015630Y016653D01*
X015485Y016653D01*
X015582Y016653D02*
X015679Y016556D01*
X015287Y016701D02*
X015191Y016701D01*
X015191Y016846D02*
X015191Y016556D01*
X015191Y016846D02*
X015384Y016846D01*
X018317Y016946D02*
X018414Y016946D01*
X018366Y016946D02*
X018366Y016656D01*
X018414Y016656D02*
X018317Y016656D01*
X018514Y016656D02*
X018707Y016850D01*
X018707Y016898D01*
X018659Y016946D01*
X018562Y016946D01*
X018514Y016898D01*
X018514Y016656D02*
X018707Y016656D01*
X018808Y016704D02*
X018808Y016898D01*
X018857Y016946D01*
X018954Y016946D01*
X019002Y016898D01*
X019002Y016704D02*
X018954Y016656D01*
X018857Y016656D01*
X018808Y016704D01*
X022317Y016704D02*
X022366Y016656D01*
X022462Y016656D01*
X022511Y016704D01*
X022511Y016946D01*
X022612Y016850D02*
X022612Y016656D01*
X022612Y016801D02*
X022805Y016801D01*
X022805Y016850D02*
X022805Y016656D01*
X022907Y016656D02*
X022907Y016946D01*
X023052Y016946D01*
X023100Y016898D01*
X023100Y016801D01*
X023052Y016753D01*
X022907Y016753D01*
X023003Y016753D02*
X023100Y016656D01*
X023298Y016656D02*
X023298Y016946D01*
X023201Y016946D02*
X023395Y016946D01*
X022805Y016850D02*
X022709Y016946D01*
X022612Y016850D01*
X022317Y016946D02*
X022317Y016704D01*
X028497Y014480D02*
X028546Y014528D01*
X028739Y014335D01*
X028787Y014383D01*
X028787Y014480D01*
X028739Y014528D01*
X028546Y014528D01*
X028497Y014480D02*
X028497Y014383D01*
X028546Y014335D01*
X028739Y014335D01*
X028787Y014234D02*
X028691Y014137D01*
X028691Y014185D02*
X028691Y014040D01*
X028787Y014040D02*
X028497Y014040D01*
X028497Y014185D01*
X028546Y014234D01*
X028642Y014234D01*
X028691Y014185D01*
X028787Y013939D02*
X028787Y013745D01*
X028497Y013745D01*
X028497Y013939D01*
X028642Y013842D02*
X028642Y013745D01*
X028691Y013644D02*
X028739Y013644D01*
X028787Y013596D01*
X028787Y013499D01*
X028739Y013451D01*
X028739Y013350D02*
X028497Y013350D01*
X028546Y013451D02*
X028594Y013451D01*
X028642Y013499D01*
X028642Y013596D01*
X028691Y013644D01*
X028546Y013644D02*
X028497Y013596D01*
X028497Y013499D01*
X028546Y013451D01*
X028739Y013350D02*
X028787Y013301D01*
X028787Y013204D01*
X028739Y013156D01*
X028497Y013156D01*
X028787Y012028D02*
X028787Y011835D01*
X028787Y011931D02*
X028497Y011931D01*
X028594Y011835D01*
X028642Y011734D02*
X028691Y011685D01*
X028691Y011540D01*
X028787Y011540D02*
X028497Y011540D01*
X028497Y011685D01*
X028546Y011734D01*
X028642Y011734D01*
X028691Y011637D02*
X028787Y011734D01*
X028787Y011439D02*
X028787Y011245D01*
X028497Y011245D01*
X028497Y011439D01*
X028642Y011342D02*
X028642Y011245D01*
X028691Y011144D02*
X028739Y011144D01*
X028787Y011096D01*
X028787Y010999D01*
X028739Y010951D01*
X028739Y010850D02*
X028497Y010850D01*
X028546Y010951D02*
X028594Y010951D01*
X028642Y010999D01*
X028642Y011096D01*
X028691Y011144D01*
X028546Y011144D02*
X028497Y011096D01*
X028497Y010999D01*
X028546Y010951D01*
X028739Y010850D02*
X028787Y010801D01*
X028787Y010704D01*
X028739Y010656D01*
X028497Y010656D01*
X005100Y018204D02*
X005052Y018156D01*
X004907Y018156D01*
X004907Y018446D01*
X005052Y018446D01*
X005100Y018398D01*
X005100Y018204D01*
X004805Y018156D02*
X004805Y018446D01*
X004612Y018446D02*
X004805Y018156D01*
X004612Y018156D02*
X004612Y018446D01*
X004511Y018398D02*
X004462Y018446D01*
X004366Y018446D01*
X004317Y018398D01*
X004317Y018204D01*
X004366Y018156D01*
X004462Y018156D01*
X004511Y018204D01*
X004511Y018301D01*
X004414Y018301D01*
D11*
X003322Y001238D02*
X003399Y001161D01*
X003553Y001161D01*
X003629Y001238D01*
X003629Y001621D01*
X003783Y001621D02*
X004090Y001161D01*
X004090Y001621D01*
X004243Y001621D02*
X004396Y001621D01*
X004320Y001621D02*
X004320Y001161D01*
X004396Y001161D02*
X004243Y001161D01*
X004550Y001238D02*
X004627Y001161D01*
X004780Y001161D01*
X004857Y001238D01*
X005010Y001238D02*
X005087Y001161D01*
X005240Y001161D01*
X005317Y001238D01*
X005317Y001545D01*
X005240Y001621D01*
X005087Y001621D01*
X005010Y001545D01*
X005010Y001238D01*
X005471Y001315D02*
X005701Y001315D01*
X005778Y001391D01*
X005778Y001545D01*
X005701Y001621D01*
X005471Y001621D01*
X005471Y001161D01*
X005624Y001315D02*
X005778Y001161D01*
X005931Y001161D02*
X005931Y001621D01*
X006238Y001161D01*
X006238Y001621D01*
X006391Y001391D02*
X006698Y001391D01*
X006852Y001161D02*
X006852Y001621D01*
X007159Y001161D01*
X007159Y001621D01*
X007312Y001545D02*
X007312Y001238D01*
X007389Y001161D01*
X007542Y001161D01*
X007619Y001238D01*
X007619Y001545D01*
X007542Y001621D01*
X007389Y001621D01*
X007312Y001545D01*
X007772Y001621D02*
X007772Y001161D01*
X008003Y001161D01*
X008079Y001238D01*
X008079Y001545D01*
X008003Y001621D01*
X007772Y001621D01*
X008233Y001621D02*
X008233Y001161D01*
X008540Y001161D01*
X008693Y001161D02*
X009000Y001468D01*
X009000Y001545D01*
X008923Y001621D01*
X008770Y001621D01*
X008693Y001545D01*
X008540Y001621D02*
X008233Y001621D01*
X008233Y001391D02*
X008386Y001391D01*
X008693Y001161D02*
X009000Y001161D01*
X009154Y001315D02*
X009307Y001161D01*
X009460Y001315D01*
X009460Y001621D01*
X009614Y001545D02*
X009691Y001621D01*
X009844Y001621D01*
X009921Y001545D01*
X009921Y001468D01*
X009614Y001161D01*
X009921Y001161D01*
X009154Y001315D02*
X009154Y001621D01*
X010684Y001621D02*
X010837Y001621D01*
X010761Y001621D02*
X010761Y001161D01*
X010837Y001161D02*
X010684Y001161D01*
X010991Y001161D02*
X011298Y001468D01*
X011298Y001545D01*
X011221Y001621D01*
X011067Y001621D01*
X010991Y001545D01*
X010991Y001161D02*
X011298Y001161D01*
X011451Y001238D02*
X011528Y001161D01*
X011681Y001161D01*
X011758Y001238D01*
X011911Y001391D02*
X012218Y001391D01*
X012372Y001621D02*
X012679Y001621D01*
X012525Y001621D02*
X012525Y001161D01*
X012832Y001238D02*
X012909Y001161D01*
X013062Y001161D01*
X013139Y001238D01*
X013139Y001545D01*
X013062Y001621D01*
X012909Y001621D01*
X012832Y001545D01*
X012832Y001238D01*
X013292Y001391D02*
X013599Y001391D01*
X013753Y001161D02*
X013983Y001161D01*
X014060Y001238D01*
X014060Y001545D01*
X013983Y001621D01*
X013753Y001621D01*
X013753Y001161D01*
X014213Y001161D02*
X014367Y001161D01*
X014290Y001161D02*
X014290Y001621D01*
X014213Y001621D02*
X014367Y001621D01*
X014520Y001545D02*
X014520Y001468D01*
X014597Y001391D01*
X014750Y001391D01*
X014827Y001315D01*
X014827Y001238D01*
X014750Y001161D01*
X014597Y001161D01*
X014520Y001238D01*
X014520Y001545D02*
X014597Y001621D01*
X014750Y001621D01*
X014827Y001545D01*
X014980Y001621D02*
X015211Y001621D01*
X015287Y001545D01*
X015287Y001391D01*
X015211Y001315D01*
X014980Y001315D01*
X014980Y001161D02*
X014980Y001621D01*
X015441Y001621D02*
X015441Y001161D01*
X015748Y001161D01*
X015901Y001161D02*
X015901Y001468D01*
X016055Y001621D01*
X016208Y001468D01*
X016208Y001161D01*
X016208Y001391D02*
X015901Y001391D01*
X016361Y001545D02*
X016515Y001391D01*
X016515Y001161D01*
X016515Y001391D02*
X016668Y001545D01*
X016668Y001621D01*
X016361Y001621D02*
X016361Y001545D01*
X011758Y001545D02*
X011681Y001621D01*
X011528Y001621D01*
X011451Y001545D01*
X011451Y001238D01*
X004857Y001545D02*
X004780Y001621D01*
X004627Y001621D01*
X004550Y001545D01*
X004550Y001238D01*
X003783Y001161D02*
X003783Y001621D01*
X003322Y001621D02*
X003322Y001238D01*
X000706Y006052D02*
X000553Y006052D01*
X000476Y006129D01*
X000476Y006359D01*
X000476Y006206D02*
X000322Y006052D01*
X000706Y006052D02*
X000783Y006129D01*
X000783Y006359D01*
X000322Y006359D01*
X000322Y006512D02*
X000322Y006819D01*
X000783Y006819D01*
X000783Y006512D01*
X000553Y006666D02*
X000553Y006819D01*
X000553Y006973D02*
X000476Y007050D01*
X000476Y007280D01*
X000322Y007280D02*
X000783Y007280D01*
X000783Y007050D01*
X000706Y006973D01*
X000553Y006973D01*
X000553Y007433D02*
X000476Y007510D01*
X000476Y007740D01*
X000322Y007740D02*
X000783Y007740D01*
X000783Y007510D01*
X000706Y007433D01*
X000553Y007433D01*
X000553Y007894D02*
X000553Y008200D01*
X000629Y008200D02*
X000322Y008200D01*
X000322Y008354D02*
X000783Y008354D01*
X000629Y008200D02*
X000783Y008047D01*
X000629Y007894D01*
X000322Y007894D01*
X000322Y008354D02*
X000783Y008661D01*
X000322Y008661D01*
X000322Y008814D02*
X000553Y009044D01*
X000476Y009121D02*
X000783Y008814D01*
X000783Y009121D02*
X000322Y009121D01*
X003585Y011444D02*
X003608Y011421D01*
X003634Y011401D01*
X003662Y011384D01*
X003691Y011370D01*
X003722Y011359D01*
X003753Y011352D01*
X003786Y011348D01*
X003818Y011348D01*
X003851Y011352D01*
X003882Y011359D01*
X003913Y011370D01*
X003942Y011384D01*
X003970Y011401D01*
X003996Y011421D01*
X004019Y011444D01*
X004019Y011838D02*
X003996Y011861D01*
X003970Y011881D01*
X003942Y011898D01*
X003913Y011912D01*
X003882Y011923D01*
X003851Y011930D01*
X003818Y011934D01*
X003786Y011934D01*
X003753Y011930D01*
X003722Y011923D01*
X003691Y011912D01*
X003662Y011898D01*
X003634Y011881D01*
X003608Y011861D01*
X003585Y011838D01*
X000783Y013510D02*
X000783Y013740D01*
X000322Y013740D01*
X000322Y013894D02*
X000783Y013894D01*
X000476Y014047D02*
X000322Y013894D01*
X000476Y014047D02*
X000322Y014200D01*
X000783Y014200D01*
X000706Y014354D02*
X000553Y014354D01*
X000476Y014431D01*
X000476Y014661D01*
X000322Y014661D02*
X000783Y014661D01*
X000783Y014431D01*
X000706Y014354D01*
X000553Y014814D02*
X000553Y015121D01*
X000706Y014968D02*
X000399Y014968D01*
X000476Y013740D02*
X000476Y013510D01*
X000553Y013433D01*
X000706Y013433D01*
X000783Y013510D01*
X000476Y013587D02*
X000322Y013433D01*
X000553Y013280D02*
X000553Y012973D01*
X017322Y009045D02*
X017322Y008968D01*
X017399Y008891D01*
X017553Y008891D01*
X017629Y008815D01*
X017629Y008738D01*
X017553Y008661D01*
X017399Y008661D01*
X017322Y008738D01*
X017783Y008815D02*
X018013Y008815D01*
X018090Y008891D01*
X018090Y009045D01*
X018013Y009121D01*
X017783Y009121D01*
X017783Y008661D01*
X017629Y009045D02*
X017553Y009121D01*
X017399Y009121D01*
X017322Y009045D01*
X018243Y009121D02*
X018396Y009121D01*
X018320Y009121D02*
X018320Y008661D01*
X018396Y008661D02*
X018243Y008661D01*
X024018Y002621D02*
X023941Y002545D01*
X023941Y002238D01*
X024018Y002161D01*
X024171Y002161D01*
X024248Y002238D01*
X024402Y002161D02*
X024402Y002468D01*
X024555Y002621D01*
X024708Y002468D01*
X024708Y002161D01*
X024862Y002161D02*
X024862Y002621D01*
X025169Y002161D01*
X025169Y002621D01*
X024708Y002391D02*
X024402Y002391D01*
X024248Y002545D02*
X024171Y002621D01*
X024018Y002621D01*
X027605Y011424D02*
X027582Y011447D01*
X027562Y011473D01*
X027545Y011501D01*
X027531Y011530D01*
X027520Y011561D01*
X027513Y011592D01*
X027509Y011625D01*
X027509Y011657D01*
X027513Y011690D01*
X027520Y011721D01*
X027531Y011752D01*
X027545Y011781D01*
X027562Y011809D01*
X027582Y011835D01*
X027605Y011858D01*
X027999Y011858D02*
X028022Y011835D01*
X028042Y011809D01*
X028059Y011781D01*
X028073Y011752D01*
X028084Y011721D01*
X028091Y011690D01*
X028095Y011657D01*
X028095Y011625D01*
X028091Y011592D01*
X028084Y011561D01*
X028073Y011530D01*
X028059Y011501D01*
X028042Y011473D01*
X028022Y011447D01*
X027999Y011424D01*
X027605Y013924D02*
X027582Y013947D01*
X027562Y013973D01*
X027545Y014001D01*
X027531Y014030D01*
X027520Y014061D01*
X027513Y014092D01*
X027509Y014125D01*
X027509Y014157D01*
X027513Y014190D01*
X027520Y014221D01*
X027531Y014252D01*
X027545Y014281D01*
X027562Y014309D01*
X027582Y014335D01*
X027605Y014358D01*
X027999Y014358D02*
X028022Y014335D01*
X028042Y014309D01*
X028059Y014281D01*
X028073Y014252D01*
X028084Y014221D01*
X028091Y014190D01*
X028095Y014157D01*
X028095Y014125D01*
X028091Y014092D01*
X028084Y014061D01*
X028073Y014030D01*
X028059Y014001D01*
X028042Y013973D01*
X028022Y013947D01*
X027999Y013924D01*
D12*
X026802Y014341D02*
X026802Y011941D01*
X026800Y011879D01*
X026794Y011818D01*
X026785Y011757D01*
X026772Y011697D01*
X026755Y011638D01*
X026734Y011580D01*
X026710Y011523D01*
X026683Y011468D01*
X026652Y011415D01*
X026618Y011363D01*
X026581Y011314D01*
X026541Y011267D01*
X026498Y011223D01*
X026453Y011182D01*
X026405Y011143D01*
X026354Y011107D01*
X026302Y011075D01*
X026248Y011046D01*
X026192Y011020D01*
X026134Y010998D01*
X026076Y010979D01*
X026016Y010964D01*
X025955Y010953D01*
X025894Y010945D01*
X025833Y010941D01*
X025771Y010941D01*
X025710Y010945D01*
X025649Y010953D01*
X025588Y010964D01*
X025528Y010979D01*
X025470Y010998D01*
X025412Y011020D01*
X025356Y011046D01*
X025302Y011075D01*
X025250Y011107D01*
X025199Y011143D01*
X025151Y011182D01*
X025106Y011223D01*
X025063Y011267D01*
X025023Y011314D01*
X024986Y011363D01*
X024952Y011415D01*
X024921Y011468D01*
X024894Y011523D01*
X024870Y011580D01*
X024849Y011638D01*
X024832Y011697D01*
X024819Y011757D01*
X024810Y011818D01*
X024804Y011879D01*
X024802Y011941D01*
X024802Y014341D01*
X024804Y014403D01*
X024810Y014464D01*
X024819Y014525D01*
X024832Y014585D01*
X024849Y014644D01*
X024870Y014702D01*
X024894Y014759D01*
X024921Y014814D01*
X024952Y014867D01*
X024986Y014919D01*
X025023Y014968D01*
X025063Y015015D01*
X025106Y015059D01*
X025151Y015100D01*
X025199Y015139D01*
X025250Y015175D01*
X025302Y015207D01*
X025356Y015236D01*
X025412Y015262D01*
X025470Y015284D01*
X025528Y015303D01*
X025588Y015318D01*
X025649Y015329D01*
X025710Y015337D01*
X025771Y015341D01*
X025833Y015341D01*
X025894Y015337D01*
X025955Y015329D01*
X026016Y015318D01*
X026076Y015303D01*
X026134Y015284D01*
X026192Y015262D01*
X026248Y015236D01*
X026302Y015207D01*
X026354Y015175D01*
X026405Y015139D01*
X026453Y015100D01*
X026498Y015059D01*
X026541Y015015D01*
X026581Y014968D01*
X026618Y014919D01*
X026652Y014867D01*
X026683Y014814D01*
X026710Y014759D01*
X026734Y014702D01*
X026755Y014644D01*
X026772Y014585D01*
X026785Y014525D01*
X026794Y014464D01*
X026800Y014403D01*
X026802Y014341D01*
D13*
X026602Y014341D02*
X026602Y011941D01*
X026600Y011885D01*
X026594Y011830D01*
X026585Y011775D01*
X026571Y011720D01*
X026554Y011667D01*
X026533Y011616D01*
X026508Y011565D01*
X026480Y011517D01*
X026449Y011471D01*
X026415Y011427D01*
X026377Y011385D01*
X026337Y011346D01*
X026295Y011311D01*
X026249Y011278D01*
X026202Y011248D01*
X026153Y011222D01*
X026102Y011199D01*
X026049Y011180D01*
X025996Y011165D01*
X025941Y011153D01*
X025886Y011145D01*
X025830Y011141D01*
X025774Y011141D01*
X025718Y011145D01*
X025663Y011153D01*
X025608Y011165D01*
X025555Y011180D01*
X025502Y011199D01*
X025451Y011222D01*
X025402Y011248D01*
X025355Y011278D01*
X025309Y011311D01*
X025267Y011346D01*
X025227Y011385D01*
X025189Y011427D01*
X025155Y011471D01*
X025124Y011517D01*
X025096Y011565D01*
X025071Y011616D01*
X025050Y011667D01*
X025033Y011720D01*
X025019Y011775D01*
X025010Y011830D01*
X025004Y011885D01*
X025002Y011941D01*
X025002Y014341D01*
X025004Y014397D01*
X025010Y014452D01*
X025019Y014507D01*
X025033Y014562D01*
X025050Y014615D01*
X025071Y014666D01*
X025096Y014717D01*
X025124Y014765D01*
X025155Y014811D01*
X025189Y014855D01*
X025227Y014897D01*
X025267Y014936D01*
X025309Y014971D01*
X025355Y015004D01*
X025402Y015034D01*
X025451Y015060D01*
X025502Y015083D01*
X025555Y015102D01*
X025608Y015117D01*
X025663Y015129D01*
X025718Y015137D01*
X025774Y015141D01*
X025830Y015141D01*
X025886Y015137D01*
X025941Y015129D01*
X025996Y015117D01*
X026049Y015102D01*
X026102Y015083D01*
X026153Y015060D01*
X026202Y015034D01*
X026249Y015004D01*
X026295Y014971D01*
X026337Y014936D01*
X026377Y014897D01*
X026415Y014855D01*
X026449Y014811D01*
X026480Y014765D01*
X026508Y014717D01*
X026533Y014666D01*
X026554Y014615D01*
X026571Y014562D01*
X026585Y014507D01*
X026594Y014452D01*
X026600Y014397D01*
X026602Y014341D01*
X025802Y013691D02*
X025802Y013411D01*
X025402Y013411D01*
X025402Y013271D02*
X025402Y013021D01*
X026202Y013021D01*
X026202Y013271D01*
X025402Y013271D01*
X025402Y012871D02*
X025802Y012871D01*
X025802Y012591D01*
X025802Y012871D02*
X026202Y012871D01*
X026202Y013411D02*
X025802Y013411D01*
X023802Y013291D02*
X023802Y015991D01*
X023800Y016008D01*
X023796Y016025D01*
X023789Y016041D01*
X023779Y016055D01*
X023766Y016068D01*
X023752Y016078D01*
X023736Y016085D01*
X023719Y016089D01*
X023702Y016091D01*
X022902Y016091D01*
X022885Y016089D01*
X022868Y016085D01*
X022852Y016078D01*
X022838Y016068D01*
X022825Y016055D01*
X022815Y016041D01*
X022808Y016025D01*
X022804Y016008D01*
X022802Y015991D01*
X022802Y013291D01*
X022804Y013274D01*
X022808Y013257D01*
X022815Y013241D01*
X022825Y013227D01*
X022838Y013214D01*
X022852Y013204D01*
X022868Y013197D01*
X022885Y013193D01*
X022902Y013191D01*
X023702Y013191D01*
X023702Y013091D02*
X022902Y013091D01*
X022885Y013089D01*
X022868Y013085D01*
X022852Y013078D01*
X022838Y013068D01*
X022825Y013055D01*
X022815Y013041D01*
X022808Y013025D01*
X022804Y013008D01*
X022802Y012991D01*
X022802Y010291D01*
X022804Y010274D01*
X022808Y010257D01*
X022815Y010241D01*
X022825Y010227D01*
X022838Y010214D01*
X022852Y010204D01*
X022868Y010197D01*
X022885Y010193D01*
X022902Y010191D01*
X023702Y010191D01*
X023719Y010193D01*
X023736Y010197D01*
X023752Y010204D01*
X023766Y010214D01*
X023779Y010227D01*
X023789Y010241D01*
X023796Y010257D01*
X023800Y010274D01*
X023802Y010291D01*
X023802Y012991D01*
X023800Y013008D01*
X023796Y013025D01*
X023789Y013041D01*
X023779Y013055D01*
X023766Y013068D01*
X023752Y013078D01*
X023736Y013085D01*
X023719Y013089D01*
X023702Y013091D01*
X023702Y013191D02*
X023719Y013193D01*
X023736Y013197D01*
X023752Y013204D01*
X023766Y013214D01*
X023779Y013227D01*
X023789Y013241D01*
X023796Y013257D01*
X023800Y013274D01*
X023802Y013291D01*
X023302Y014041D02*
X023302Y014511D01*
X023302Y014761D02*
X023302Y015241D01*
X021072Y015911D02*
X021072Y010371D01*
X015702Y010371D01*
X015532Y010541D01*
X015532Y015911D01*
X021072Y015911D01*
X021552Y017141D02*
X021302Y017391D01*
X021302Y017891D01*
X021552Y018141D01*
X022052Y018141D01*
X022302Y017891D01*
X022552Y018141D01*
X023052Y018141D01*
X023302Y017891D01*
X023552Y018141D01*
X024052Y018141D01*
X024302Y017891D01*
X024302Y017391D01*
X024052Y017141D01*
X023552Y017141D01*
X023302Y017391D01*
X023052Y017141D01*
X022552Y017141D01*
X022302Y017391D01*
X022052Y017141D01*
X021552Y017141D01*
X022302Y017391D02*
X022302Y017891D01*
X023302Y017891D02*
X023302Y017391D01*
X020302Y017391D02*
X020052Y017141D01*
X019552Y017141D01*
X019302Y017391D01*
X019052Y017141D01*
X018552Y017141D01*
X018302Y017391D01*
X018052Y017141D01*
X017552Y017141D01*
X017302Y017391D01*
X017302Y017891D01*
X017552Y018141D01*
X018052Y018141D01*
X018302Y017891D01*
X018552Y018141D01*
X019052Y018141D01*
X019302Y017891D01*
X019552Y018141D01*
X020052Y018141D01*
X020302Y017891D01*
X020302Y017391D01*
X019302Y017391D02*
X019302Y017891D01*
X018302Y017891D02*
X018302Y017391D01*
X016302Y017391D02*
X016052Y017141D01*
X015552Y017141D01*
X015302Y017391D01*
X015052Y017141D01*
X014552Y017141D01*
X014302Y017391D01*
X014052Y017141D01*
X013552Y017141D01*
X013302Y017391D01*
X013052Y017141D01*
X012552Y017141D01*
X012302Y017391D01*
X012302Y017891D01*
X012552Y018141D01*
X013052Y018141D01*
X013302Y017891D01*
X013552Y018141D01*
X014052Y018141D01*
X014302Y017891D01*
X014302Y017391D01*
X014302Y017891D02*
X014552Y018141D01*
X015052Y018141D01*
X015302Y017891D01*
X015552Y018141D01*
X016052Y018141D01*
X016302Y017891D01*
X016302Y017391D01*
X015302Y017391D02*
X015302Y017891D01*
X013302Y017891D02*
X013302Y017391D01*
X010552Y018041D02*
X010552Y016241D01*
X010502Y016191D01*
X010452Y016141D01*
X006652Y016141D01*
X006652Y016161D01*
X010452Y016161D01*
X010502Y016191D02*
X006602Y016191D01*
X006652Y016141D01*
X006602Y016191D02*
X006552Y016241D01*
X006552Y016261D01*
X006402Y016261D01*
X006402Y016241D01*
X006352Y016191D01*
X006102Y016191D01*
X006152Y016141D01*
X006152Y016161D01*
X006302Y016161D01*
X006302Y016141D02*
X006152Y016141D01*
X006102Y016191D02*
X006052Y016241D01*
X006052Y018041D01*
X006402Y018041D01*
X006552Y018041D01*
X010552Y018041D01*
X010452Y018141D01*
X006652Y018141D01*
X006552Y018041D01*
X006552Y017941D01*
X006552Y016291D01*
X006402Y016291D01*
X006402Y016261D01*
X006402Y016241D02*
X006552Y016241D01*
X006552Y016261D02*
X006552Y016291D01*
X006402Y016291D02*
X006402Y017941D01*
X006552Y017941D01*
X006402Y017941D02*
X006402Y018041D01*
X006302Y018141D01*
X006152Y018141D01*
X006052Y018041D01*
X006702Y017491D02*
X006902Y017491D01*
X006802Y017591D02*
X006802Y017391D01*
X006702Y017141D02*
X007052Y017141D01*
X007052Y017641D01*
X007252Y017641D01*
X007252Y016641D01*
X007052Y016641D01*
X007052Y017141D01*
X007552Y017141D02*
X010352Y017141D01*
X006352Y016191D02*
X006302Y016141D01*
X004302Y016391D02*
X004052Y016141D01*
X003552Y016141D01*
X003302Y016391D01*
X003302Y016891D01*
X003552Y017141D01*
X003302Y017391D01*
X003302Y017891D01*
X003552Y018141D01*
X004052Y018141D01*
X004302Y017891D01*
X004302Y017391D01*
X004052Y017141D01*
X004302Y016891D01*
X004302Y016391D01*
X004052Y017141D02*
X003552Y017141D01*
X009052Y010261D02*
X009052Y009021D01*
X009054Y008998D01*
X009059Y008975D01*
X009068Y008953D01*
X009081Y008933D01*
X009096Y008915D01*
X009114Y008900D01*
X009134Y008887D01*
X009156Y008878D01*
X009179Y008873D01*
X009202Y008871D01*
X009052Y010261D02*
X009054Y010284D01*
X009059Y010307D01*
X009068Y010329D01*
X009081Y010349D01*
X009096Y010367D01*
X009114Y010382D01*
X009134Y010395D01*
X009156Y010404D01*
X009179Y010409D01*
X009202Y010411D01*
X012402Y010411D02*
X012425Y010409D01*
X012448Y010404D01*
X012470Y010395D01*
X012490Y010382D01*
X012508Y010367D01*
X012523Y010349D01*
X012536Y010329D01*
X012545Y010307D01*
X012550Y010284D01*
X012552Y010261D01*
X012552Y009841D01*
X012552Y009441D01*
X012552Y009021D01*
X012550Y008998D01*
X012545Y008975D01*
X012536Y008953D01*
X012523Y008933D01*
X012508Y008915D01*
X012490Y008900D01*
X012470Y008887D01*
X012448Y008878D01*
X012425Y008873D01*
X012402Y008871D01*
X012552Y009441D02*
X012525Y009443D01*
X012498Y009448D01*
X012472Y009458D01*
X012448Y009470D01*
X012426Y009486D01*
X012406Y009504D01*
X012389Y009526D01*
X012374Y009549D01*
X012364Y009574D01*
X012356Y009600D01*
X012352Y009627D01*
X012352Y009655D01*
X012356Y009682D01*
X012364Y009708D01*
X012374Y009733D01*
X012389Y009756D01*
X012406Y009778D01*
X012426Y009796D01*
X012448Y009812D01*
X012472Y009824D01*
X012498Y009834D01*
X012525Y009839D01*
X012552Y009841D01*
X015767Y010826D02*
X015769Y010855D01*
X015775Y010884D01*
X015784Y010912D01*
X015798Y010938D01*
X015814Y010962D01*
X015834Y010984D01*
X015857Y011003D01*
X015881Y011019D01*
X015908Y011031D01*
X015936Y011040D01*
X015965Y011045D01*
X015994Y011046D01*
X016024Y011043D01*
X016052Y011036D01*
X016080Y011026D01*
X016105Y011011D01*
X016129Y010994D01*
X016150Y010974D01*
X016168Y010951D01*
X016183Y010925D01*
X016195Y010898D01*
X016203Y010870D01*
X016207Y010841D01*
X016207Y010811D01*
X016203Y010782D01*
X016195Y010754D01*
X016183Y010727D01*
X016168Y010701D01*
X016150Y010678D01*
X016129Y010658D01*
X016105Y010641D01*
X016080Y010626D01*
X016052Y010616D01*
X016024Y010609D01*
X015994Y010606D01*
X015965Y010607D01*
X015936Y010612D01*
X015908Y010621D01*
X015881Y010633D01*
X015857Y010649D01*
X015834Y010668D01*
X015814Y010690D01*
X015798Y010714D01*
X015784Y010740D01*
X015775Y010768D01*
X015769Y010797D01*
X015767Y010826D01*
X016552Y008141D02*
X017052Y008141D01*
X017302Y007891D01*
X017302Y006391D01*
X017552Y006141D01*
X018052Y006141D01*
X018302Y006391D01*
X018552Y006141D01*
X019052Y006141D01*
X019302Y006391D01*
X019302Y007891D01*
X019052Y008141D01*
X018552Y008141D01*
X018302Y007891D01*
X018302Y006391D01*
X017302Y006391D02*
X017052Y006141D01*
X016552Y006141D01*
X016302Y006391D01*
X016302Y007891D01*
X016552Y008141D01*
X017302Y007891D02*
X017552Y008141D01*
X018052Y008141D01*
X018302Y007891D01*
X023302Y011041D02*
X023302Y011521D01*
X023302Y011771D02*
X023302Y012241D01*
X027052Y008141D02*
X026802Y007891D01*
X026802Y007391D01*
X027052Y007141D01*
X026802Y006891D01*
X026802Y006391D01*
X027052Y006141D01*
X027552Y006141D01*
X027802Y006391D01*
X027802Y006891D01*
X027552Y007141D01*
X027052Y007141D01*
X027552Y007141D02*
X027802Y007391D01*
X027802Y007891D01*
X027552Y008141D01*
X027052Y008141D01*
D14*
X023552Y011521D02*
X023302Y011521D01*
X023052Y011521D01*
X023052Y011771D02*
X023302Y011771D01*
X023552Y011771D01*
X023552Y014511D02*
X023302Y014511D01*
X023052Y014511D01*
X023052Y014761D02*
X023302Y014761D01*
X023552Y014761D01*
X010452Y018091D02*
X006652Y018091D01*
X006502Y017991D02*
X006452Y017991D01*
X006302Y018091D02*
X006152Y018091D01*
D15*
X003802Y011641D03*
X027802Y011641D03*
X027802Y014141D03*
D16*
X003596Y011867D03*
D17*
X005920Y013121D02*
X005920Y014161D01*
X007684Y014161D01*
X007684Y013121D01*
X005920Y013121D01*
X006334Y014921D02*
X004570Y014921D01*
X004570Y015961D01*
X006334Y015961D01*
X006334Y014921D01*
D18*
X004931Y015441D03*
X007324Y013641D03*
D19*
X007502Y017141D03*
D20*
X005902Y017141D03*
X010702Y017141D03*
D21*
X009052Y010271D02*
X012552Y010271D01*
D22*
X011502Y013351D02*
X010102Y013351D01*
X010102Y015931D01*
X011502Y015931D01*
X011502Y013351D01*
D23*
X028029Y014348D03*
X028029Y011848D03*
M02*
