G75*
G70*
%OFA0B0*%
%FSLAX24Y24*%
%IPPOS*%
%LPD*%
%AMOC8*
5,1,8,0,0,1.08239X$1,22.5*
%
%ADD10C,0.0640*%
%ADD11OC8,0.0710*%
%ADD12C,0.0081*%
%ADD13C,0.0085*%
%ADD14C,0.0720*%
%ADD15OC8,0.0720*%
%ADD16C,0.0084*%
%ADD17C,0.0082*%
%ADD18C,0.0084*%
%ADD19C,0.0930*%
%ADD20OC8,0.0930*%
%ADD21C,0.0081*%
%ADD22C,0.0082*%
%ADD23C,0.1080*%
%ADD24C,0.1340*%
%ADD25C,0.0082*%
%ADD26C,0.0084*%
%ADD27C,0.0085*%
%ADD28C,0.1380*%
%ADD29R,0.0476X0.0476*%
%ADD30C,0.0476*%
%ADD31R,0.0440X0.0440*%
D10*
X025802Y012191D03*
X025802Y014091D03*
D11*
X023302Y013641D03*
X023302Y012641D03*
X023302Y010641D03*
X023302Y015641D03*
D12*
X026586Y010673D02*
X026586Y010279D01*
X026586Y010673D02*
X027018Y010673D01*
X027018Y010279D01*
X026586Y010279D01*
X026586Y010359D02*
X027018Y010359D01*
X027018Y010439D02*
X026586Y010439D01*
X026586Y010519D02*
X027018Y010519D01*
X027018Y010599D02*
X026586Y010599D01*
X026586Y010003D02*
X026586Y009609D01*
X026586Y010003D02*
X027018Y010003D01*
X027018Y009609D01*
X026586Y009609D01*
X026586Y009689D02*
X027018Y009689D01*
X027018Y009769D02*
X026586Y009769D01*
X026586Y009849D02*
X027018Y009849D01*
X027018Y009929D02*
X026586Y009929D01*
X027586Y009779D02*
X027586Y010173D01*
X028018Y010173D01*
X028018Y009779D01*
X027586Y009779D01*
X027586Y009859D02*
X028018Y009859D01*
X028018Y009939D02*
X027586Y009939D01*
X027586Y010019D02*
X028018Y010019D01*
X028018Y010099D02*
X027586Y010099D01*
X027586Y009503D02*
X027586Y009109D01*
X027586Y009503D02*
X028018Y009503D01*
X028018Y009109D01*
X027586Y009109D01*
X027586Y009189D02*
X028018Y009189D01*
X028018Y009269D02*
X027586Y009269D01*
X027586Y009349D02*
X028018Y009349D01*
X028018Y009429D02*
X027586Y009429D01*
X025834Y004925D02*
X025440Y004925D01*
X025440Y005357D01*
X025834Y005357D01*
X025834Y004925D01*
X025834Y005005D02*
X025440Y005005D01*
X025440Y005085D02*
X025834Y005085D01*
X025834Y005165D02*
X025440Y005165D01*
X025440Y005245D02*
X025834Y005245D01*
X025834Y005325D02*
X025440Y005325D01*
X025165Y004925D02*
X024771Y004925D01*
X024771Y005357D01*
X025165Y005357D01*
X025165Y004925D01*
X025165Y005005D02*
X024771Y005005D01*
X024771Y005085D02*
X025165Y005085D01*
X025165Y005165D02*
X024771Y005165D01*
X024771Y005245D02*
X025165Y005245D01*
X025165Y005325D02*
X024771Y005325D01*
X014680Y004896D02*
X014286Y004896D01*
X014680Y004896D02*
X014680Y003086D01*
X014286Y003086D01*
X014286Y004896D01*
X014286Y003166D02*
X014680Y003166D01*
X014680Y003246D02*
X014286Y003246D01*
X014286Y003326D02*
X014680Y003326D01*
X014680Y003406D02*
X014286Y003406D01*
X014286Y003486D02*
X014680Y003486D01*
X014680Y003566D02*
X014286Y003566D01*
X014286Y003646D02*
X014680Y003646D01*
X014680Y003726D02*
X014286Y003726D01*
X014286Y003806D02*
X014680Y003806D01*
X014680Y003886D02*
X014286Y003886D01*
X014286Y003966D02*
X014680Y003966D01*
X014680Y004046D02*
X014286Y004046D01*
X014286Y004126D02*
X014680Y004126D01*
X014680Y004206D02*
X014286Y004206D01*
X014286Y004286D02*
X014680Y004286D01*
X014680Y004366D02*
X014286Y004366D01*
X014286Y004446D02*
X014680Y004446D01*
X014680Y004526D02*
X014286Y004526D01*
X014286Y004606D02*
X014680Y004606D01*
X014680Y004686D02*
X014286Y004686D01*
X014286Y004766D02*
X014680Y004766D01*
X014680Y004846D02*
X014286Y004846D01*
X013893Y004896D02*
X013499Y004896D01*
X013893Y004896D02*
X013893Y003086D01*
X013499Y003086D01*
X013499Y004896D01*
X013499Y003166D02*
X013893Y003166D01*
X013893Y003246D02*
X013499Y003246D01*
X013499Y003326D02*
X013893Y003326D01*
X013893Y003406D02*
X013499Y003406D01*
X013499Y003486D02*
X013893Y003486D01*
X013893Y003566D02*
X013499Y003566D01*
X013499Y003646D02*
X013893Y003646D01*
X013893Y003726D02*
X013499Y003726D01*
X013499Y003806D02*
X013893Y003806D01*
X013893Y003886D02*
X013499Y003886D01*
X013499Y003966D02*
X013893Y003966D01*
X013893Y004046D02*
X013499Y004046D01*
X013499Y004126D02*
X013893Y004126D01*
X013893Y004206D02*
X013499Y004206D01*
X013499Y004286D02*
X013893Y004286D01*
X013893Y004366D02*
X013499Y004366D01*
X013499Y004446D02*
X013893Y004446D01*
X013893Y004526D02*
X013499Y004526D01*
X013499Y004606D02*
X013893Y004606D01*
X013893Y004686D02*
X013499Y004686D01*
X013499Y004766D02*
X013893Y004766D01*
X013893Y004846D02*
X013499Y004846D01*
X013106Y004896D02*
X012712Y004896D01*
X013106Y004896D02*
X013106Y003086D01*
X012712Y003086D01*
X012712Y004896D01*
X012712Y003166D02*
X013106Y003166D01*
X013106Y003246D02*
X012712Y003246D01*
X012712Y003326D02*
X013106Y003326D01*
X013106Y003406D02*
X012712Y003406D01*
X012712Y003486D02*
X013106Y003486D01*
X013106Y003566D02*
X012712Y003566D01*
X012712Y003646D02*
X013106Y003646D01*
X013106Y003726D02*
X012712Y003726D01*
X012712Y003806D02*
X013106Y003806D01*
X013106Y003886D02*
X012712Y003886D01*
X012712Y003966D02*
X013106Y003966D01*
X013106Y004046D02*
X012712Y004046D01*
X012712Y004126D02*
X013106Y004126D01*
X013106Y004206D02*
X012712Y004206D01*
X012712Y004286D02*
X013106Y004286D01*
X013106Y004366D02*
X012712Y004366D01*
X012712Y004446D02*
X013106Y004446D01*
X013106Y004526D02*
X012712Y004526D01*
X012712Y004606D02*
X013106Y004606D01*
X013106Y004686D02*
X012712Y004686D01*
X012712Y004766D02*
X013106Y004766D01*
X013106Y004846D02*
X012712Y004846D01*
X012318Y004896D02*
X011924Y004896D01*
X012318Y004896D02*
X012318Y003086D01*
X011924Y003086D01*
X011924Y004896D01*
X011924Y003166D02*
X012318Y003166D01*
X012318Y003246D02*
X011924Y003246D01*
X011924Y003326D02*
X012318Y003326D01*
X012318Y003406D02*
X011924Y003406D01*
X011924Y003486D02*
X012318Y003486D01*
X012318Y003566D02*
X011924Y003566D01*
X011924Y003646D02*
X012318Y003646D01*
X012318Y003726D02*
X011924Y003726D01*
X011924Y003806D02*
X012318Y003806D01*
X012318Y003886D02*
X011924Y003886D01*
X011924Y003966D02*
X012318Y003966D01*
X012318Y004046D02*
X011924Y004046D01*
X011924Y004126D02*
X012318Y004126D01*
X012318Y004206D02*
X011924Y004206D01*
X011924Y004286D02*
X012318Y004286D01*
X012318Y004366D02*
X011924Y004366D01*
X011924Y004446D02*
X012318Y004446D01*
X012318Y004526D02*
X011924Y004526D01*
X011924Y004606D02*
X012318Y004606D01*
X012318Y004686D02*
X011924Y004686D01*
X011924Y004766D02*
X012318Y004766D01*
X012318Y004846D02*
X011924Y004846D01*
X007834Y004425D02*
X007440Y004425D01*
X007440Y004857D01*
X007834Y004857D01*
X007834Y004425D01*
X007834Y004505D02*
X007440Y004505D01*
X007440Y004585D02*
X007834Y004585D01*
X007834Y004665D02*
X007440Y004665D01*
X007440Y004745D02*
X007834Y004745D01*
X007834Y004825D02*
X007440Y004825D01*
X007165Y004425D02*
X006771Y004425D01*
X006771Y004857D01*
X007165Y004857D01*
X007165Y004425D01*
X007165Y004505D02*
X006771Y004505D01*
X006771Y004585D02*
X007165Y004585D01*
X007165Y004665D02*
X006771Y004665D01*
X006771Y004745D02*
X007165Y004745D01*
X007165Y004825D02*
X006771Y004825D01*
X006771Y005925D02*
X007165Y005925D01*
X006771Y005925D02*
X006771Y006357D01*
X007165Y006357D01*
X007165Y005925D01*
X007165Y006005D02*
X006771Y006005D01*
X006771Y006085D02*
X007165Y006085D01*
X007165Y006165D02*
X006771Y006165D01*
X006771Y006245D02*
X007165Y006245D01*
X007165Y006325D02*
X006771Y006325D01*
X007440Y005925D02*
X007834Y005925D01*
X007440Y005925D02*
X007440Y006357D01*
X007834Y006357D01*
X007834Y005925D01*
X007834Y006005D02*
X007440Y006005D01*
X007440Y006085D02*
X007834Y006085D01*
X007834Y006165D02*
X007440Y006165D01*
X007440Y006245D02*
X007834Y006245D01*
X007834Y006325D02*
X007440Y006325D01*
X007440Y007425D02*
X007834Y007425D01*
X007440Y007425D02*
X007440Y007857D01*
X007834Y007857D01*
X007834Y007425D01*
X007834Y007505D02*
X007440Y007505D01*
X007440Y007585D02*
X007834Y007585D01*
X007834Y007665D02*
X007440Y007665D01*
X007440Y007745D02*
X007834Y007745D01*
X007834Y007825D02*
X007440Y007825D01*
X007165Y007425D02*
X006771Y007425D01*
X006771Y007857D01*
X007165Y007857D01*
X007165Y007425D01*
X007165Y007505D02*
X006771Y007505D01*
X006771Y007585D02*
X007165Y007585D01*
X007165Y007665D02*
X006771Y007665D01*
X006771Y007745D02*
X007165Y007745D01*
X007165Y007825D02*
X006771Y007825D01*
X006771Y008925D02*
X007165Y008925D01*
X006771Y008925D02*
X006771Y009357D01*
X007165Y009357D01*
X007165Y008925D01*
X007165Y009005D02*
X006771Y009005D01*
X006771Y009085D02*
X007165Y009085D01*
X007165Y009165D02*
X006771Y009165D01*
X006771Y009245D02*
X007165Y009245D01*
X007165Y009325D02*
X006771Y009325D01*
X007440Y008925D02*
X007834Y008925D01*
X007440Y008925D02*
X007440Y009357D01*
X007834Y009357D01*
X007834Y008925D01*
X007834Y009005D02*
X007440Y009005D01*
X007440Y009085D02*
X007834Y009085D01*
X007834Y009165D02*
X007440Y009165D01*
X007440Y009245D02*
X007834Y009245D01*
X007834Y009325D02*
X007440Y009325D01*
X006334Y011425D02*
X005940Y011425D01*
X005940Y011857D01*
X006334Y011857D01*
X006334Y011425D01*
X006334Y011505D02*
X005940Y011505D01*
X005940Y011585D02*
X006334Y011585D01*
X006334Y011665D02*
X005940Y011665D01*
X005940Y011745D02*
X006334Y011745D01*
X006334Y011825D02*
X005940Y011825D01*
X005665Y011425D02*
X005271Y011425D01*
X005271Y011857D01*
X005665Y011857D01*
X005665Y011425D01*
X005665Y011505D02*
X005271Y011505D01*
X005271Y011585D02*
X005665Y011585D01*
X005665Y011665D02*
X005271Y011665D01*
X005271Y011745D02*
X005665Y011745D01*
X005665Y011825D02*
X005271Y011825D01*
X004664Y013550D02*
X004664Y013944D01*
X004664Y013550D02*
X002854Y013550D01*
X002854Y013944D01*
X004664Y013944D01*
X004664Y013630D02*
X002854Y013630D01*
X002854Y013710D02*
X004664Y013710D01*
X004664Y013790D02*
X002854Y013790D01*
X002854Y013870D02*
X004664Y013870D01*
X004664Y014338D02*
X004664Y014732D01*
X004664Y014338D02*
X002854Y014338D01*
X002854Y014732D01*
X004664Y014732D01*
X004664Y014418D02*
X002854Y014418D01*
X002854Y014498D02*
X004664Y014498D01*
X004664Y014578D02*
X002854Y014578D01*
X002854Y014658D02*
X004664Y014658D01*
X004770Y009338D02*
X004770Y008944D01*
X002960Y008944D01*
X002960Y009338D01*
X004770Y009338D01*
X004770Y009024D02*
X002960Y009024D01*
X002960Y009104D02*
X004770Y009104D01*
X004770Y009184D02*
X002960Y009184D01*
X002960Y009264D02*
X004770Y009264D01*
X004770Y008551D02*
X004770Y008157D01*
X002960Y008157D01*
X002960Y008551D01*
X004770Y008551D01*
X004770Y008237D02*
X002960Y008237D01*
X002960Y008317D02*
X004770Y008317D01*
X004770Y008397D02*
X002960Y008397D01*
X002960Y008477D02*
X004770Y008477D01*
X004770Y007763D02*
X004770Y007369D01*
X002960Y007369D01*
X002960Y007763D01*
X004770Y007763D01*
X004770Y007449D02*
X002960Y007449D01*
X002960Y007529D02*
X004770Y007529D01*
X004770Y007609D02*
X002960Y007609D01*
X002960Y007689D02*
X004770Y007689D01*
X004770Y006976D02*
X004770Y006582D01*
X002960Y006582D01*
X002960Y006976D01*
X004770Y006976D01*
X004770Y006662D02*
X002960Y006662D01*
X002960Y006742D02*
X004770Y006742D01*
X004770Y006822D02*
X002960Y006822D01*
X002960Y006902D02*
X004770Y006902D01*
X004770Y006188D02*
X004770Y005794D01*
X002960Y005794D01*
X002960Y006188D01*
X004770Y006188D01*
X004770Y005874D02*
X002960Y005874D01*
X002960Y005954D02*
X004770Y005954D01*
X004770Y006034D02*
X002960Y006034D01*
X002960Y006114D02*
X004770Y006114D01*
X004770Y005401D02*
X004770Y005007D01*
X002960Y005007D01*
X002960Y005401D01*
X004770Y005401D01*
X004770Y005087D02*
X002960Y005087D01*
X002960Y005167D02*
X004770Y005167D01*
X004770Y005247D02*
X002960Y005247D01*
X002960Y005327D02*
X004770Y005327D01*
D13*
X002485Y004572D02*
X001151Y004572D01*
X002485Y004572D02*
X002485Y003946D01*
X001151Y003946D01*
X001151Y004572D01*
X001151Y004030D02*
X002485Y004030D01*
X002485Y004114D02*
X001151Y004114D01*
X001151Y004198D02*
X002485Y004198D01*
X002485Y004282D02*
X001151Y004282D01*
X001151Y004366D02*
X002485Y004366D01*
X002485Y004450D02*
X001151Y004450D01*
X001151Y004534D02*
X002485Y004534D01*
X002485Y010399D02*
X001151Y010399D01*
X002485Y010399D02*
X002485Y009773D01*
X001151Y009773D01*
X001151Y010399D01*
X001151Y009857D02*
X002485Y009857D01*
X002485Y009941D02*
X001151Y009941D01*
X001151Y010025D02*
X002485Y010025D01*
X002485Y010109D02*
X001151Y010109D01*
X001151Y010193D02*
X002485Y010193D01*
X002485Y010277D02*
X001151Y010277D01*
X001151Y010361D02*
X002485Y010361D01*
X002930Y011994D02*
X003556Y011994D01*
X003556Y011288D01*
X002930Y011288D01*
X002930Y011994D01*
X002930Y011372D02*
X003556Y011372D01*
X003556Y011456D02*
X002930Y011456D01*
X002930Y011540D02*
X003556Y011540D01*
X003556Y011624D02*
X002930Y011624D01*
X002930Y011708D02*
X003556Y011708D01*
X003556Y011792D02*
X002930Y011792D01*
X002930Y011876D02*
X003556Y011876D01*
X003556Y011960D02*
X002930Y011960D01*
X002379Y013116D02*
X001045Y013116D01*
X002379Y013116D02*
X002379Y012490D01*
X001045Y012490D01*
X001045Y013116D01*
X001045Y012574D02*
X002379Y012574D01*
X002379Y012658D02*
X001045Y012658D01*
X001045Y012742D02*
X002379Y012742D01*
X002379Y012826D02*
X001045Y012826D01*
X001045Y012910D02*
X002379Y012910D01*
X002379Y012994D02*
X001045Y012994D01*
X001045Y013078D02*
X002379Y013078D01*
X004049Y011994D02*
X004675Y011994D01*
X004675Y011288D01*
X004049Y011288D01*
X004049Y011994D01*
X004049Y011372D02*
X004675Y011372D01*
X004675Y011456D02*
X004049Y011456D01*
X004049Y011540D02*
X004675Y011540D01*
X004675Y011624D02*
X004049Y011624D01*
X004049Y011708D02*
X004675Y011708D01*
X004675Y011792D02*
X004049Y011792D01*
X004049Y011876D02*
X004675Y011876D01*
X004675Y011960D02*
X004049Y011960D01*
X002379Y015793D02*
X001045Y015793D01*
X002379Y015793D02*
X002379Y015167D01*
X001045Y015167D01*
X001045Y015793D01*
X001045Y015251D02*
X002379Y015251D01*
X002379Y015335D02*
X001045Y015335D01*
X001045Y015419D02*
X002379Y015419D01*
X002379Y015503D02*
X001045Y015503D01*
X001045Y015587D02*
X002379Y015587D01*
X002379Y015671D02*
X001045Y015671D01*
X001045Y015755D02*
X002379Y015755D01*
X010863Y002611D02*
X010863Y001277D01*
X010863Y002611D02*
X011489Y002611D01*
X011489Y001277D01*
X010863Y001277D01*
X010863Y001361D02*
X011489Y001361D01*
X011489Y001445D02*
X010863Y001445D01*
X010863Y001529D02*
X011489Y001529D01*
X011489Y001613D02*
X010863Y001613D01*
X010863Y001697D02*
X011489Y001697D01*
X011489Y001781D02*
X010863Y001781D01*
X010863Y001865D02*
X011489Y001865D01*
X011489Y001949D02*
X010863Y001949D01*
X010863Y002033D02*
X011489Y002033D01*
X011489Y002117D02*
X010863Y002117D01*
X010863Y002201D02*
X011489Y002201D01*
X011489Y002285D02*
X010863Y002285D01*
X010863Y002369D02*
X011489Y002369D01*
X011489Y002453D02*
X010863Y002453D01*
X010863Y002537D02*
X011489Y002537D01*
X015115Y002611D02*
X015115Y001277D01*
X015115Y002611D02*
X015741Y002611D01*
X015741Y001277D01*
X015115Y001277D01*
X015115Y001361D02*
X015741Y001361D01*
X015741Y001445D02*
X015115Y001445D01*
X015115Y001529D02*
X015741Y001529D01*
X015741Y001613D02*
X015115Y001613D01*
X015115Y001697D02*
X015741Y001697D01*
X015741Y001781D02*
X015115Y001781D01*
X015115Y001865D02*
X015741Y001865D01*
X015741Y001949D02*
X015115Y001949D01*
X015115Y002033D02*
X015741Y002033D01*
X015741Y002117D02*
X015115Y002117D01*
X015115Y002201D02*
X015741Y002201D01*
X015741Y002285D02*
X015115Y002285D01*
X015115Y002369D02*
X015741Y002369D01*
X015741Y002453D02*
X015115Y002453D01*
X015115Y002537D02*
X015741Y002537D01*
X028155Y010768D02*
X028155Y011394D01*
X028155Y010768D02*
X027449Y010768D01*
X027449Y011394D01*
X028155Y011394D01*
X028155Y010852D02*
X027449Y010852D01*
X027449Y010936D02*
X028155Y010936D01*
X028155Y011020D02*
X027449Y011020D01*
X027449Y011104D02*
X028155Y011104D01*
X028155Y011188D02*
X027449Y011188D01*
X027449Y011272D02*
X028155Y011272D01*
X028155Y011356D02*
X027449Y011356D01*
X028155Y011888D02*
X028155Y012514D01*
X028155Y011888D02*
X027449Y011888D01*
X027449Y012514D01*
X028155Y012514D01*
X028155Y011972D02*
X027449Y011972D01*
X027449Y012056D02*
X028155Y012056D01*
X028155Y012140D02*
X027449Y012140D01*
X027449Y012224D02*
X028155Y012224D01*
X028155Y012308D02*
X027449Y012308D01*
X027449Y012392D02*
X028155Y012392D01*
X028155Y012476D02*
X027449Y012476D01*
X028155Y013268D02*
X028155Y013894D01*
X028155Y013268D02*
X027449Y013268D01*
X027449Y013894D01*
X028155Y013894D01*
X028155Y013352D02*
X027449Y013352D01*
X027449Y013436D02*
X028155Y013436D01*
X028155Y013520D02*
X027449Y013520D01*
X027449Y013604D02*
X028155Y013604D01*
X028155Y013688D02*
X027449Y013688D01*
X027449Y013772D02*
X028155Y013772D01*
X028155Y013856D02*
X027449Y013856D01*
X028155Y014388D02*
X028155Y015014D01*
X028155Y014388D02*
X027449Y014388D01*
X027449Y015014D01*
X028155Y015014D01*
X028155Y014472D02*
X027449Y014472D01*
X027449Y014556D02*
X028155Y014556D01*
X028155Y014640D02*
X027449Y014640D01*
X027449Y014724D02*
X028155Y014724D01*
X028155Y014808D02*
X027449Y014808D01*
X027449Y014892D02*
X028155Y014892D01*
X028155Y014976D02*
X027449Y014976D01*
D14*
X023802Y017321D02*
X023802Y017961D01*
X022802Y017961D02*
X022802Y017321D01*
X021802Y017321D02*
X021802Y017961D01*
X019802Y017961D02*
X019802Y017321D01*
X018802Y017321D02*
X018802Y017961D01*
X017802Y017961D02*
X017802Y017321D01*
X015802Y017321D02*
X015802Y017961D01*
X014802Y017961D02*
X014802Y017321D01*
X013802Y017321D02*
X013802Y017961D01*
X012802Y017961D02*
X012802Y017321D01*
X004122Y017641D02*
X003482Y017641D01*
X003482Y016641D02*
X004122Y016641D01*
X026982Y007641D02*
X027622Y007641D01*
X027622Y006641D02*
X026982Y006641D01*
D15*
X018802Y006641D03*
X017802Y006641D03*
X016802Y006641D03*
X016802Y007641D03*
X017802Y007641D03*
X018802Y007641D03*
D16*
X007895Y013969D02*
X007379Y013969D01*
X007895Y013969D02*
X007895Y013313D01*
X007379Y013313D01*
X007379Y013969D01*
X007379Y013396D02*
X007895Y013396D01*
X007895Y013479D02*
X007379Y013479D01*
X007379Y013562D02*
X007895Y013562D01*
X007895Y013645D02*
X007379Y013645D01*
X007379Y013728D02*
X007895Y013728D01*
X007895Y013811D02*
X007379Y013811D01*
X007379Y013894D02*
X007895Y013894D01*
X004876Y015113D02*
X004360Y015113D01*
X004360Y015769D01*
X004876Y015769D01*
X004876Y015113D01*
X004876Y015196D02*
X004360Y015196D01*
X004360Y015279D02*
X004876Y015279D01*
X004876Y015362D02*
X004360Y015362D01*
X004360Y015445D02*
X004876Y015445D01*
X004876Y015528D02*
X004360Y015528D01*
X004360Y015611D02*
X004876Y015611D01*
X004876Y015694D02*
X004360Y015694D01*
D17*
X005826Y015112D02*
X006552Y015112D01*
X005826Y015112D02*
X005826Y015770D01*
X006552Y015770D01*
X006552Y015112D01*
X006552Y015193D02*
X005826Y015193D01*
X005826Y015274D02*
X006552Y015274D01*
X006552Y015355D02*
X005826Y015355D01*
X005826Y015436D02*
X006552Y015436D01*
X006552Y015517D02*
X005826Y015517D01*
X005826Y015598D02*
X006552Y015598D01*
X006552Y015679D02*
X005826Y015679D01*
X005826Y015760D02*
X006552Y015760D01*
X006429Y013970D02*
X005703Y013970D01*
X006429Y013970D02*
X006429Y013312D01*
X005703Y013312D01*
X005703Y013970D01*
X005703Y013393D02*
X006429Y013393D01*
X006429Y013474D02*
X005703Y013474D01*
X005703Y013555D02*
X006429Y013555D01*
X006429Y013636D02*
X005703Y013636D01*
X005703Y013717D02*
X006429Y013717D01*
X006429Y013798D02*
X005703Y013798D01*
X005703Y013879D02*
X006429Y013879D01*
X006429Y013960D02*
X005703Y013960D01*
D18*
X008012Y014593D02*
X008012Y015001D01*
X008012Y014593D02*
X007592Y014593D01*
X007592Y015001D01*
X008012Y015001D01*
X008012Y014676D02*
X007592Y014676D01*
X007592Y014759D02*
X008012Y014759D01*
X008012Y014842D02*
X007592Y014842D01*
X007592Y014925D02*
X008012Y014925D01*
X008012Y015282D02*
X008012Y015690D01*
X008012Y015282D02*
X007592Y015282D01*
X007592Y015690D01*
X008012Y015690D01*
X008012Y015365D02*
X007592Y015365D01*
X007592Y015448D02*
X008012Y015448D01*
X008012Y015531D02*
X007592Y015531D01*
X007592Y015614D02*
X008012Y015614D01*
X014012Y015690D02*
X014012Y015282D01*
X013592Y015282D01*
X013592Y015690D01*
X014012Y015690D01*
X014012Y015365D02*
X013592Y015365D01*
X013592Y015448D02*
X014012Y015448D01*
X014012Y015531D02*
X013592Y015531D01*
X013592Y015614D02*
X014012Y015614D01*
X014012Y015001D02*
X014012Y014593D01*
X013592Y014593D01*
X013592Y015001D01*
X014012Y015001D01*
X014012Y014676D02*
X013592Y014676D01*
X013592Y014759D02*
X014012Y014759D01*
X014012Y014842D02*
X013592Y014842D01*
X013592Y014925D02*
X014012Y014925D01*
X014012Y013190D02*
X014012Y012782D01*
X013592Y012782D01*
X013592Y013190D01*
X014012Y013190D01*
X014012Y012865D02*
X013592Y012865D01*
X013592Y012948D02*
X014012Y012948D01*
X014012Y013031D02*
X013592Y013031D01*
X013592Y013114D02*
X014012Y013114D01*
X014012Y012501D02*
X014012Y012093D01*
X013592Y012093D01*
X013592Y012501D01*
X014012Y012501D01*
X014012Y012176D02*
X013592Y012176D01*
X013592Y012259D02*
X014012Y012259D01*
X014012Y012342D02*
X013592Y012342D01*
X013592Y012425D02*
X014012Y012425D01*
X014012Y011190D02*
X014012Y010782D01*
X013592Y010782D01*
X013592Y011190D01*
X014012Y011190D01*
X014012Y010865D02*
X013592Y010865D01*
X013592Y010948D02*
X014012Y010948D01*
X014012Y011031D02*
X013592Y011031D01*
X013592Y011114D02*
X014012Y011114D01*
X014012Y010501D02*
X014012Y010093D01*
X013592Y010093D01*
X013592Y010501D01*
X014012Y010501D01*
X014012Y010176D02*
X013592Y010176D01*
X013592Y010259D02*
X014012Y010259D01*
X014012Y010342D02*
X013592Y010342D01*
X013592Y010425D02*
X014012Y010425D01*
D19*
X005302Y017141D03*
D20*
X011302Y017141D03*
D21*
X015466Y015613D02*
X015466Y015393D01*
X014996Y015393D01*
X014996Y015613D01*
X015466Y015613D01*
X015466Y015473D02*
X014996Y015473D01*
X014996Y015553D02*
X015466Y015553D01*
X015466Y015298D02*
X015466Y015078D01*
X014996Y015078D01*
X014996Y015298D01*
X015466Y015298D01*
X015466Y015158D02*
X014996Y015158D01*
X014996Y015238D02*
X015466Y015238D01*
X015466Y014983D02*
X015466Y014763D01*
X014996Y014763D01*
X014996Y014983D01*
X015466Y014983D01*
X015466Y014843D02*
X014996Y014843D01*
X014996Y014923D02*
X015466Y014923D01*
X015466Y014668D02*
X015466Y014448D01*
X014996Y014448D01*
X014996Y014668D01*
X015466Y014668D01*
X015466Y014528D02*
X014996Y014528D01*
X014996Y014608D02*
X015466Y014608D01*
X015466Y014353D02*
X015466Y014133D01*
X014996Y014133D01*
X014996Y014353D01*
X015466Y014353D01*
X015466Y014213D02*
X014996Y014213D01*
X014996Y014293D02*
X015466Y014293D01*
X015466Y014039D02*
X015466Y013819D01*
X014996Y013819D01*
X014996Y014039D01*
X015466Y014039D01*
X015466Y013899D02*
X014996Y013899D01*
X014996Y013979D02*
X015466Y013979D01*
X015466Y013724D02*
X015466Y013504D01*
X014996Y013504D01*
X014996Y013724D01*
X015466Y013724D01*
X015466Y013584D02*
X014996Y013584D01*
X014996Y013664D02*
X015466Y013664D01*
X015466Y013409D02*
X015466Y013189D01*
X014996Y013189D01*
X014996Y013409D01*
X015466Y013409D01*
X015466Y013269D02*
X014996Y013269D01*
X014996Y013349D02*
X015466Y013349D01*
X015466Y013094D02*
X015466Y012874D01*
X014996Y012874D01*
X014996Y013094D01*
X015466Y013094D01*
X015466Y012954D02*
X014996Y012954D01*
X014996Y013034D02*
X015466Y013034D01*
X015466Y012779D02*
X015466Y012559D01*
X014996Y012559D01*
X014996Y012779D01*
X015466Y012779D01*
X015466Y012639D02*
X014996Y012639D01*
X014996Y012719D02*
X015466Y012719D01*
X015466Y012464D02*
X015466Y012244D01*
X014996Y012244D01*
X014996Y012464D01*
X015466Y012464D01*
X015466Y012324D02*
X014996Y012324D01*
X014996Y012404D02*
X015466Y012404D01*
X015466Y012149D02*
X015466Y011929D01*
X014996Y011929D01*
X014996Y012149D01*
X015466Y012149D01*
X015466Y012009D02*
X014996Y012009D01*
X014996Y012089D02*
X015466Y012089D01*
X015466Y011834D02*
X015466Y011614D01*
X014996Y011614D01*
X014996Y011834D01*
X015466Y011834D01*
X015466Y011694D02*
X014996Y011694D01*
X014996Y011774D02*
X015466Y011774D01*
X015466Y011519D02*
X015466Y011299D01*
X014996Y011299D01*
X014996Y011519D01*
X015466Y011519D01*
X015466Y011379D02*
X014996Y011379D01*
X014996Y011459D02*
X015466Y011459D01*
X015466Y011204D02*
X015466Y010984D01*
X014996Y010984D01*
X014996Y011204D01*
X015466Y011204D01*
X015466Y011064D02*
X014996Y011064D01*
X014996Y011144D02*
X015466Y011144D01*
X015466Y010889D02*
X015466Y010669D01*
X014996Y010669D01*
X014996Y010889D01*
X015466Y010889D01*
X015466Y010749D02*
X014996Y010749D01*
X014996Y010829D02*
X015466Y010829D01*
X016050Y010305D02*
X016050Y009835D01*
X015830Y009835D01*
X015830Y010305D01*
X016050Y010305D01*
X016050Y009915D02*
X015830Y009915D01*
X015830Y009995D02*
X016050Y009995D01*
X016050Y010075D02*
X015830Y010075D01*
X015830Y010155D02*
X016050Y010155D01*
X016050Y010235D02*
X015830Y010235D01*
X016365Y010305D02*
X016365Y009835D01*
X016145Y009835D01*
X016145Y010305D01*
X016365Y010305D01*
X016365Y009915D02*
X016145Y009915D01*
X016145Y009995D02*
X016365Y009995D01*
X016365Y010075D02*
X016145Y010075D01*
X016145Y010155D02*
X016365Y010155D01*
X016365Y010235D02*
X016145Y010235D01*
X016680Y010305D02*
X016680Y009835D01*
X016460Y009835D01*
X016460Y010305D01*
X016680Y010305D01*
X016680Y009915D02*
X016460Y009915D01*
X016460Y009995D02*
X016680Y009995D01*
X016680Y010075D02*
X016460Y010075D01*
X016460Y010155D02*
X016680Y010155D01*
X016680Y010235D02*
X016460Y010235D01*
X016995Y010305D02*
X016995Y009835D01*
X016775Y009835D01*
X016775Y010305D01*
X016995Y010305D01*
X016995Y009915D02*
X016775Y009915D01*
X016775Y009995D02*
X016995Y009995D01*
X016995Y010075D02*
X016775Y010075D01*
X016775Y010155D02*
X016995Y010155D01*
X016995Y010235D02*
X016775Y010235D01*
X017310Y010305D02*
X017310Y009835D01*
X017090Y009835D01*
X017090Y010305D01*
X017310Y010305D01*
X017310Y009915D02*
X017090Y009915D01*
X017090Y009995D02*
X017310Y009995D01*
X017310Y010075D02*
X017090Y010075D01*
X017090Y010155D02*
X017310Y010155D01*
X017310Y010235D02*
X017090Y010235D01*
X017625Y010305D02*
X017625Y009835D01*
X017405Y009835D01*
X017405Y010305D01*
X017625Y010305D01*
X017625Y009915D02*
X017405Y009915D01*
X017405Y009995D02*
X017625Y009995D01*
X017625Y010075D02*
X017405Y010075D01*
X017405Y010155D02*
X017625Y010155D01*
X017625Y010235D02*
X017405Y010235D01*
X017940Y010305D02*
X017940Y009835D01*
X017720Y009835D01*
X017720Y010305D01*
X017940Y010305D01*
X017940Y009915D02*
X017720Y009915D01*
X017720Y009995D02*
X017940Y009995D01*
X017940Y010075D02*
X017720Y010075D01*
X017720Y010155D02*
X017940Y010155D01*
X017940Y010235D02*
X017720Y010235D01*
X018255Y010305D02*
X018255Y009835D01*
X018035Y009835D01*
X018035Y010305D01*
X018255Y010305D01*
X018255Y009915D02*
X018035Y009915D01*
X018035Y009995D02*
X018255Y009995D01*
X018255Y010075D02*
X018035Y010075D01*
X018035Y010155D02*
X018255Y010155D01*
X018255Y010235D02*
X018035Y010235D01*
X018570Y010305D02*
X018570Y009835D01*
X018350Y009835D01*
X018350Y010305D01*
X018570Y010305D01*
X018570Y009915D02*
X018350Y009915D01*
X018350Y009995D02*
X018570Y009995D01*
X018570Y010075D02*
X018350Y010075D01*
X018350Y010155D02*
X018570Y010155D01*
X018570Y010235D02*
X018350Y010235D01*
X018885Y010305D02*
X018885Y009835D01*
X018665Y009835D01*
X018665Y010305D01*
X018885Y010305D01*
X018885Y009915D02*
X018665Y009915D01*
X018665Y009995D02*
X018885Y009995D01*
X018885Y010075D02*
X018665Y010075D01*
X018665Y010155D02*
X018885Y010155D01*
X018885Y010235D02*
X018665Y010235D01*
X019200Y010305D02*
X019200Y009835D01*
X018980Y009835D01*
X018980Y010305D01*
X019200Y010305D01*
X019200Y009915D02*
X018980Y009915D01*
X018980Y009995D02*
X019200Y009995D01*
X019200Y010075D02*
X018980Y010075D01*
X018980Y010155D02*
X019200Y010155D01*
X019200Y010235D02*
X018980Y010235D01*
X019515Y010305D02*
X019515Y009835D01*
X019295Y009835D01*
X019295Y010305D01*
X019515Y010305D01*
X019515Y009915D02*
X019295Y009915D01*
X019295Y009995D02*
X019515Y009995D01*
X019515Y010075D02*
X019295Y010075D01*
X019295Y010155D02*
X019515Y010155D01*
X019515Y010235D02*
X019295Y010235D01*
X019830Y010305D02*
X019830Y009835D01*
X019610Y009835D01*
X019610Y010305D01*
X019830Y010305D01*
X019830Y009915D02*
X019610Y009915D01*
X019610Y009995D02*
X019830Y009995D01*
X019830Y010075D02*
X019610Y010075D01*
X019610Y010155D02*
X019830Y010155D01*
X019830Y010235D02*
X019610Y010235D01*
X020145Y010305D02*
X020145Y009835D01*
X019925Y009835D01*
X019925Y010305D01*
X020145Y010305D01*
X020145Y009915D02*
X019925Y009915D01*
X019925Y009995D02*
X020145Y009995D01*
X020145Y010075D02*
X019925Y010075D01*
X019925Y010155D02*
X020145Y010155D01*
X020145Y010235D02*
X019925Y010235D01*
X020460Y010305D02*
X020460Y009835D01*
X020240Y009835D01*
X020240Y010305D01*
X020460Y010305D01*
X020460Y009915D02*
X020240Y009915D01*
X020240Y009995D02*
X020460Y009995D01*
X020460Y010075D02*
X020240Y010075D01*
X020240Y010155D02*
X020460Y010155D01*
X020460Y010235D02*
X020240Y010235D01*
X020775Y010305D02*
X020775Y009835D01*
X020555Y009835D01*
X020555Y010305D01*
X020775Y010305D01*
X020775Y009915D02*
X020555Y009915D01*
X020555Y009995D02*
X020775Y009995D01*
X020775Y010075D02*
X020555Y010075D01*
X020555Y010155D02*
X020775Y010155D01*
X020775Y010235D02*
X020555Y010235D01*
X021608Y010669D02*
X021608Y010889D01*
X021608Y010669D02*
X021138Y010669D01*
X021138Y010889D01*
X021608Y010889D01*
X021608Y010749D02*
X021138Y010749D01*
X021138Y010829D02*
X021608Y010829D01*
X021608Y010984D02*
X021608Y011204D01*
X021608Y010984D02*
X021138Y010984D01*
X021138Y011204D01*
X021608Y011204D01*
X021608Y011064D02*
X021138Y011064D01*
X021138Y011144D02*
X021608Y011144D01*
X021608Y011299D02*
X021608Y011519D01*
X021608Y011299D02*
X021138Y011299D01*
X021138Y011519D01*
X021608Y011519D01*
X021608Y011379D02*
X021138Y011379D01*
X021138Y011459D02*
X021608Y011459D01*
X021608Y011614D02*
X021608Y011834D01*
X021608Y011614D02*
X021138Y011614D01*
X021138Y011834D01*
X021608Y011834D01*
X021608Y011694D02*
X021138Y011694D01*
X021138Y011774D02*
X021608Y011774D01*
X021608Y011929D02*
X021608Y012149D01*
X021608Y011929D02*
X021138Y011929D01*
X021138Y012149D01*
X021608Y012149D01*
X021608Y012009D02*
X021138Y012009D01*
X021138Y012089D02*
X021608Y012089D01*
X021608Y012244D02*
X021608Y012464D01*
X021608Y012244D02*
X021138Y012244D01*
X021138Y012464D01*
X021608Y012464D01*
X021608Y012324D02*
X021138Y012324D01*
X021138Y012404D02*
X021608Y012404D01*
X021608Y012559D02*
X021608Y012779D01*
X021608Y012559D02*
X021138Y012559D01*
X021138Y012779D01*
X021608Y012779D01*
X021608Y012639D02*
X021138Y012639D01*
X021138Y012719D02*
X021608Y012719D01*
X021608Y012874D02*
X021608Y013094D01*
X021608Y012874D02*
X021138Y012874D01*
X021138Y013094D01*
X021608Y013094D01*
X021608Y012954D02*
X021138Y012954D01*
X021138Y013034D02*
X021608Y013034D01*
X021608Y013189D02*
X021608Y013409D01*
X021608Y013189D02*
X021138Y013189D01*
X021138Y013409D01*
X021608Y013409D01*
X021608Y013269D02*
X021138Y013269D01*
X021138Y013349D02*
X021608Y013349D01*
X021608Y013504D02*
X021608Y013724D01*
X021608Y013504D02*
X021138Y013504D01*
X021138Y013724D01*
X021608Y013724D01*
X021608Y013584D02*
X021138Y013584D01*
X021138Y013664D02*
X021608Y013664D01*
X021608Y013819D02*
X021608Y014039D01*
X021608Y013819D02*
X021138Y013819D01*
X021138Y014039D01*
X021608Y014039D01*
X021608Y013899D02*
X021138Y013899D01*
X021138Y013979D02*
X021608Y013979D01*
X021608Y014133D02*
X021608Y014353D01*
X021608Y014133D02*
X021138Y014133D01*
X021138Y014353D01*
X021608Y014353D01*
X021608Y014213D02*
X021138Y014213D01*
X021138Y014293D02*
X021608Y014293D01*
X021608Y014448D02*
X021608Y014668D01*
X021608Y014448D02*
X021138Y014448D01*
X021138Y014668D01*
X021608Y014668D01*
X021608Y014528D02*
X021138Y014528D01*
X021138Y014608D02*
X021608Y014608D01*
X021608Y014763D02*
X021608Y014983D01*
X021608Y014763D02*
X021138Y014763D01*
X021138Y014983D01*
X021608Y014983D01*
X021608Y014843D02*
X021138Y014843D01*
X021138Y014923D02*
X021608Y014923D01*
X021608Y015078D02*
X021608Y015298D01*
X021608Y015078D02*
X021138Y015078D01*
X021138Y015298D01*
X021608Y015298D01*
X021608Y015158D02*
X021138Y015158D01*
X021138Y015238D02*
X021608Y015238D01*
X021608Y015393D02*
X021608Y015613D01*
X021608Y015393D02*
X021138Y015393D01*
X021138Y015613D01*
X021608Y015613D01*
X021608Y015473D02*
X021138Y015473D01*
X021138Y015553D02*
X021608Y015553D01*
X020775Y015977D02*
X020775Y016447D01*
X020775Y015977D02*
X020555Y015977D01*
X020555Y016447D01*
X020775Y016447D01*
X020775Y016057D02*
X020555Y016057D01*
X020555Y016137D02*
X020775Y016137D01*
X020775Y016217D02*
X020555Y016217D01*
X020555Y016297D02*
X020775Y016297D01*
X020775Y016377D02*
X020555Y016377D01*
X020460Y016447D02*
X020460Y015977D01*
X020240Y015977D01*
X020240Y016447D01*
X020460Y016447D01*
X020460Y016057D02*
X020240Y016057D01*
X020240Y016137D02*
X020460Y016137D01*
X020460Y016217D02*
X020240Y016217D01*
X020240Y016297D02*
X020460Y016297D01*
X020460Y016377D02*
X020240Y016377D01*
X020145Y016447D02*
X020145Y015977D01*
X019925Y015977D01*
X019925Y016447D01*
X020145Y016447D01*
X020145Y016057D02*
X019925Y016057D01*
X019925Y016137D02*
X020145Y016137D01*
X020145Y016217D02*
X019925Y016217D01*
X019925Y016297D02*
X020145Y016297D01*
X020145Y016377D02*
X019925Y016377D01*
X019830Y016447D02*
X019830Y015977D01*
X019610Y015977D01*
X019610Y016447D01*
X019830Y016447D01*
X019830Y016057D02*
X019610Y016057D01*
X019610Y016137D02*
X019830Y016137D01*
X019830Y016217D02*
X019610Y016217D01*
X019610Y016297D02*
X019830Y016297D01*
X019830Y016377D02*
X019610Y016377D01*
X019515Y016447D02*
X019515Y015977D01*
X019295Y015977D01*
X019295Y016447D01*
X019515Y016447D01*
X019515Y016057D02*
X019295Y016057D01*
X019295Y016137D02*
X019515Y016137D01*
X019515Y016217D02*
X019295Y016217D01*
X019295Y016297D02*
X019515Y016297D01*
X019515Y016377D02*
X019295Y016377D01*
X019200Y016447D02*
X019200Y015977D01*
X018980Y015977D01*
X018980Y016447D01*
X019200Y016447D01*
X019200Y016057D02*
X018980Y016057D01*
X018980Y016137D02*
X019200Y016137D01*
X019200Y016217D02*
X018980Y016217D01*
X018980Y016297D02*
X019200Y016297D01*
X019200Y016377D02*
X018980Y016377D01*
X018885Y016447D02*
X018885Y015977D01*
X018665Y015977D01*
X018665Y016447D01*
X018885Y016447D01*
X018885Y016057D02*
X018665Y016057D01*
X018665Y016137D02*
X018885Y016137D01*
X018885Y016217D02*
X018665Y016217D01*
X018665Y016297D02*
X018885Y016297D01*
X018885Y016377D02*
X018665Y016377D01*
X018570Y016447D02*
X018570Y015977D01*
X018350Y015977D01*
X018350Y016447D01*
X018570Y016447D01*
X018570Y016057D02*
X018350Y016057D01*
X018350Y016137D02*
X018570Y016137D01*
X018570Y016217D02*
X018350Y016217D01*
X018350Y016297D02*
X018570Y016297D01*
X018570Y016377D02*
X018350Y016377D01*
X018255Y016447D02*
X018255Y015977D01*
X018035Y015977D01*
X018035Y016447D01*
X018255Y016447D01*
X018255Y016057D02*
X018035Y016057D01*
X018035Y016137D02*
X018255Y016137D01*
X018255Y016217D02*
X018035Y016217D01*
X018035Y016297D02*
X018255Y016297D01*
X018255Y016377D02*
X018035Y016377D01*
X017940Y016447D02*
X017940Y015977D01*
X017720Y015977D01*
X017720Y016447D01*
X017940Y016447D01*
X017940Y016057D02*
X017720Y016057D01*
X017720Y016137D02*
X017940Y016137D01*
X017940Y016217D02*
X017720Y016217D01*
X017720Y016297D02*
X017940Y016297D01*
X017940Y016377D02*
X017720Y016377D01*
X017625Y016447D02*
X017625Y015977D01*
X017405Y015977D01*
X017405Y016447D01*
X017625Y016447D01*
X017625Y016057D02*
X017405Y016057D01*
X017405Y016137D02*
X017625Y016137D01*
X017625Y016217D02*
X017405Y016217D01*
X017405Y016297D02*
X017625Y016297D01*
X017625Y016377D02*
X017405Y016377D01*
X017310Y016447D02*
X017310Y015977D01*
X017090Y015977D01*
X017090Y016447D01*
X017310Y016447D01*
X017310Y016057D02*
X017090Y016057D01*
X017090Y016137D02*
X017310Y016137D01*
X017310Y016217D02*
X017090Y016217D01*
X017090Y016297D02*
X017310Y016297D01*
X017310Y016377D02*
X017090Y016377D01*
X016995Y016447D02*
X016995Y015977D01*
X016775Y015977D01*
X016775Y016447D01*
X016995Y016447D01*
X016995Y016057D02*
X016775Y016057D01*
X016775Y016137D02*
X016995Y016137D01*
X016995Y016217D02*
X016775Y016217D01*
X016775Y016297D02*
X016995Y016297D01*
X016995Y016377D02*
X016775Y016377D01*
X016680Y016447D02*
X016680Y015977D01*
X016460Y015977D01*
X016460Y016447D01*
X016680Y016447D01*
X016680Y016057D02*
X016460Y016057D01*
X016460Y016137D02*
X016680Y016137D01*
X016680Y016217D02*
X016460Y016217D01*
X016460Y016297D02*
X016680Y016297D01*
X016680Y016377D02*
X016460Y016377D01*
X016365Y016447D02*
X016365Y015977D01*
X016145Y015977D01*
X016145Y016447D01*
X016365Y016447D01*
X016365Y016057D02*
X016145Y016057D01*
X016145Y016137D02*
X016365Y016137D01*
X016365Y016217D02*
X016145Y016217D01*
X016145Y016297D02*
X016365Y016297D01*
X016365Y016377D02*
X016145Y016377D01*
X016050Y016447D02*
X016050Y015977D01*
X015830Y015977D01*
X015830Y016447D01*
X016050Y016447D01*
X016050Y016057D02*
X015830Y016057D01*
X015830Y016137D02*
X016050Y016137D01*
X016050Y016217D02*
X015830Y016217D01*
X015830Y016297D02*
X016050Y016297D01*
X016050Y016377D02*
X015830Y016377D01*
D22*
X022465Y008508D02*
X022465Y008274D01*
X022465Y008508D02*
X023093Y008508D01*
X023093Y008274D01*
X022465Y008274D01*
X022465Y008355D02*
X023093Y008355D01*
X023093Y008436D02*
X022465Y008436D01*
X022465Y008008D02*
X022465Y007774D01*
X022465Y008008D02*
X023093Y008008D01*
X023093Y007774D01*
X022465Y007774D01*
X022465Y007855D02*
X023093Y007855D01*
X023093Y007936D02*
X022465Y007936D01*
X022465Y007508D02*
X022465Y007274D01*
X022465Y007508D02*
X023093Y007508D01*
X023093Y007274D01*
X022465Y007274D01*
X022465Y007355D02*
X023093Y007355D01*
X023093Y007436D02*
X022465Y007436D01*
X022465Y007008D02*
X022465Y006774D01*
X022465Y007008D02*
X023093Y007008D01*
X023093Y006774D01*
X022465Y006774D01*
X022465Y006855D02*
X023093Y006855D01*
X023093Y006936D02*
X022465Y006936D01*
X024512Y007008D02*
X024512Y006774D01*
X024512Y007008D02*
X025140Y007008D01*
X025140Y006774D01*
X024512Y006774D01*
X024512Y006855D02*
X025140Y006855D01*
X025140Y006936D02*
X024512Y006936D01*
X024512Y007274D02*
X024512Y007508D01*
X025140Y007508D01*
X025140Y007274D01*
X024512Y007274D01*
X024512Y007355D02*
X025140Y007355D01*
X025140Y007436D02*
X024512Y007436D01*
X024512Y007774D02*
X024512Y008008D01*
X025140Y008008D01*
X025140Y007774D01*
X024512Y007774D01*
X024512Y007855D02*
X025140Y007855D01*
X025140Y007936D02*
X024512Y007936D01*
X024512Y008274D02*
X024512Y008508D01*
X025140Y008508D01*
X025140Y008274D01*
X024512Y008274D01*
X024512Y008355D02*
X025140Y008355D01*
X025140Y008436D02*
X024512Y008436D01*
D23*
X022196Y005141D03*
X021015Y005141D03*
X021015Y003960D03*
X022196Y003960D03*
D24*
X021606Y002188D03*
D25*
X012431Y008830D02*
X012173Y008830D01*
X012431Y008830D02*
X012431Y008032D01*
X012173Y008032D01*
X012173Y008830D01*
X012173Y008113D02*
X012431Y008113D01*
X012431Y008194D02*
X012173Y008194D01*
X012173Y008275D02*
X012431Y008275D01*
X012431Y008356D02*
X012173Y008356D01*
X012173Y008437D02*
X012431Y008437D01*
X012431Y008518D02*
X012173Y008518D01*
X012173Y008599D02*
X012431Y008599D01*
X012431Y008680D02*
X012173Y008680D01*
X012173Y008761D02*
X012431Y008761D01*
X011931Y008830D02*
X011673Y008830D01*
X011931Y008830D02*
X011931Y008032D01*
X011673Y008032D01*
X011673Y008830D01*
X011673Y008113D02*
X011931Y008113D01*
X011931Y008194D02*
X011673Y008194D01*
X011673Y008275D02*
X011931Y008275D01*
X011931Y008356D02*
X011673Y008356D01*
X011673Y008437D02*
X011931Y008437D01*
X011931Y008518D02*
X011673Y008518D01*
X011673Y008599D02*
X011931Y008599D01*
X011931Y008680D02*
X011673Y008680D01*
X011673Y008761D02*
X011931Y008761D01*
X011431Y008830D02*
X011173Y008830D01*
X011431Y008830D02*
X011431Y008032D01*
X011173Y008032D01*
X011173Y008830D01*
X011173Y008113D02*
X011431Y008113D01*
X011431Y008194D02*
X011173Y008194D01*
X011173Y008275D02*
X011431Y008275D01*
X011431Y008356D02*
X011173Y008356D01*
X011173Y008437D02*
X011431Y008437D01*
X011431Y008518D02*
X011173Y008518D01*
X011173Y008599D02*
X011431Y008599D01*
X011431Y008680D02*
X011173Y008680D01*
X011173Y008761D02*
X011431Y008761D01*
X010931Y008830D02*
X010673Y008830D01*
X010931Y008830D02*
X010931Y008032D01*
X010673Y008032D01*
X010673Y008830D01*
X010673Y008113D02*
X010931Y008113D01*
X010931Y008194D02*
X010673Y008194D01*
X010673Y008275D02*
X010931Y008275D01*
X010931Y008356D02*
X010673Y008356D01*
X010673Y008437D02*
X010931Y008437D01*
X010931Y008518D02*
X010673Y008518D01*
X010673Y008599D02*
X010931Y008599D01*
X010931Y008680D02*
X010673Y008680D01*
X010673Y008761D02*
X010931Y008761D01*
X010431Y008830D02*
X010173Y008830D01*
X010431Y008830D02*
X010431Y008032D01*
X010173Y008032D01*
X010173Y008830D01*
X010173Y008113D02*
X010431Y008113D01*
X010431Y008194D02*
X010173Y008194D01*
X010173Y008275D02*
X010431Y008275D01*
X010431Y008356D02*
X010173Y008356D01*
X010173Y008437D02*
X010431Y008437D01*
X010431Y008518D02*
X010173Y008518D01*
X010173Y008599D02*
X010431Y008599D01*
X010431Y008680D02*
X010173Y008680D01*
X010173Y008761D02*
X010431Y008761D01*
X009931Y008830D02*
X009673Y008830D01*
X009931Y008830D02*
X009931Y008032D01*
X009673Y008032D01*
X009673Y008830D01*
X009673Y008113D02*
X009931Y008113D01*
X009931Y008194D02*
X009673Y008194D01*
X009673Y008275D02*
X009931Y008275D01*
X009931Y008356D02*
X009673Y008356D01*
X009673Y008437D02*
X009931Y008437D01*
X009931Y008518D02*
X009673Y008518D01*
X009673Y008599D02*
X009931Y008599D01*
X009931Y008680D02*
X009673Y008680D01*
X009673Y008761D02*
X009931Y008761D01*
X009431Y008830D02*
X009173Y008830D01*
X009431Y008830D02*
X009431Y008032D01*
X009173Y008032D01*
X009173Y008830D01*
X009173Y008113D02*
X009431Y008113D01*
X009431Y008194D02*
X009173Y008194D01*
X009173Y008275D02*
X009431Y008275D01*
X009431Y008356D02*
X009173Y008356D01*
X009173Y008437D02*
X009431Y008437D01*
X009431Y008518D02*
X009173Y008518D01*
X009173Y008599D02*
X009431Y008599D01*
X009431Y008680D02*
X009173Y008680D01*
X009173Y008761D02*
X009431Y008761D01*
X009431Y011250D02*
X009173Y011250D01*
X009431Y011250D02*
X009431Y010452D01*
X009173Y010452D01*
X009173Y011250D01*
X009173Y010533D02*
X009431Y010533D01*
X009431Y010614D02*
X009173Y010614D01*
X009173Y010695D02*
X009431Y010695D01*
X009431Y010776D02*
X009173Y010776D01*
X009173Y010857D02*
X009431Y010857D01*
X009431Y010938D02*
X009173Y010938D01*
X009173Y011019D02*
X009431Y011019D01*
X009431Y011100D02*
X009173Y011100D01*
X009173Y011181D02*
X009431Y011181D01*
X009673Y011250D02*
X009931Y011250D01*
X009931Y010452D01*
X009673Y010452D01*
X009673Y011250D01*
X009673Y010533D02*
X009931Y010533D01*
X009931Y010614D02*
X009673Y010614D01*
X009673Y010695D02*
X009931Y010695D01*
X009931Y010776D02*
X009673Y010776D01*
X009673Y010857D02*
X009931Y010857D01*
X009931Y010938D02*
X009673Y010938D01*
X009673Y011019D02*
X009931Y011019D01*
X009931Y011100D02*
X009673Y011100D01*
X009673Y011181D02*
X009931Y011181D01*
X010173Y011250D02*
X010431Y011250D01*
X010431Y010452D01*
X010173Y010452D01*
X010173Y011250D01*
X010173Y010533D02*
X010431Y010533D01*
X010431Y010614D02*
X010173Y010614D01*
X010173Y010695D02*
X010431Y010695D01*
X010431Y010776D02*
X010173Y010776D01*
X010173Y010857D02*
X010431Y010857D01*
X010431Y010938D02*
X010173Y010938D01*
X010173Y011019D02*
X010431Y011019D01*
X010431Y011100D02*
X010173Y011100D01*
X010173Y011181D02*
X010431Y011181D01*
X010673Y011250D02*
X010931Y011250D01*
X010931Y010452D01*
X010673Y010452D01*
X010673Y011250D01*
X010673Y010533D02*
X010931Y010533D01*
X010931Y010614D02*
X010673Y010614D01*
X010673Y010695D02*
X010931Y010695D01*
X010931Y010776D02*
X010673Y010776D01*
X010673Y010857D02*
X010931Y010857D01*
X010931Y010938D02*
X010673Y010938D01*
X010673Y011019D02*
X010931Y011019D01*
X010931Y011100D02*
X010673Y011100D01*
X010673Y011181D02*
X010931Y011181D01*
X011173Y011250D02*
X011431Y011250D01*
X011431Y010452D01*
X011173Y010452D01*
X011173Y011250D01*
X011173Y010533D02*
X011431Y010533D01*
X011431Y010614D02*
X011173Y010614D01*
X011173Y010695D02*
X011431Y010695D01*
X011431Y010776D02*
X011173Y010776D01*
X011173Y010857D02*
X011431Y010857D01*
X011431Y010938D02*
X011173Y010938D01*
X011173Y011019D02*
X011431Y011019D01*
X011431Y011100D02*
X011173Y011100D01*
X011173Y011181D02*
X011431Y011181D01*
X011673Y011250D02*
X011931Y011250D01*
X011931Y010452D01*
X011673Y010452D01*
X011673Y011250D01*
X011673Y010533D02*
X011931Y010533D01*
X011931Y010614D02*
X011673Y010614D01*
X011673Y010695D02*
X011931Y010695D01*
X011931Y010776D02*
X011673Y010776D01*
X011673Y010857D02*
X011931Y010857D01*
X011931Y010938D02*
X011673Y010938D01*
X011673Y011019D02*
X011931Y011019D01*
X011931Y011100D02*
X011673Y011100D01*
X011673Y011181D02*
X011931Y011181D01*
X012173Y011250D02*
X012431Y011250D01*
X012431Y010452D01*
X012173Y010452D01*
X012173Y011250D01*
X012173Y010533D02*
X012431Y010533D01*
X012431Y010614D02*
X012173Y010614D01*
X012173Y010695D02*
X012431Y010695D01*
X012431Y010776D02*
X012173Y010776D01*
X012173Y010857D02*
X012431Y010857D01*
X012431Y010938D02*
X012173Y010938D01*
X012173Y011019D02*
X012431Y011019D01*
X012431Y011100D02*
X012173Y011100D01*
X012173Y011181D02*
X012431Y011181D01*
D26*
X009144Y013493D02*
X009144Y013969D01*
X010020Y013969D01*
X010020Y013493D01*
X009144Y013493D01*
X009144Y013576D02*
X010020Y013576D01*
X010020Y013659D02*
X009144Y013659D01*
X009144Y013742D02*
X010020Y013742D01*
X010020Y013825D02*
X009144Y013825D01*
X009144Y013908D02*
X010020Y013908D01*
X009144Y014403D02*
X009144Y014879D01*
X010020Y014879D01*
X010020Y014403D01*
X009144Y014403D01*
X009144Y014486D02*
X010020Y014486D01*
X010020Y014569D02*
X009144Y014569D01*
X009144Y014652D02*
X010020Y014652D01*
X010020Y014735D02*
X009144Y014735D01*
X009144Y014818D02*
X010020Y014818D01*
X009144Y015313D02*
X009144Y015789D01*
X010020Y015789D01*
X010020Y015313D01*
X009144Y015313D01*
X009144Y015396D02*
X010020Y015396D01*
X010020Y015479D02*
X009144Y015479D01*
X009144Y015562D02*
X010020Y015562D01*
X010020Y015645D02*
X009144Y015645D01*
X009144Y015728D02*
X010020Y015728D01*
D27*
X011591Y015347D02*
X011591Y013935D01*
X011591Y015347D02*
X012453Y015347D01*
X012453Y013935D01*
X011591Y013935D01*
X011591Y014019D02*
X012453Y014019D01*
X012453Y014103D02*
X011591Y014103D01*
X011591Y014187D02*
X012453Y014187D01*
X012453Y014271D02*
X011591Y014271D01*
X011591Y014355D02*
X012453Y014355D01*
X012453Y014439D02*
X011591Y014439D01*
X011591Y014523D02*
X012453Y014523D01*
X012453Y014607D02*
X011591Y014607D01*
X011591Y014691D02*
X012453Y014691D01*
X012453Y014775D02*
X011591Y014775D01*
X011591Y014859D02*
X012453Y014859D01*
X012453Y014943D02*
X011591Y014943D01*
X011591Y015027D02*
X012453Y015027D01*
X012453Y015111D02*
X011591Y015111D01*
X011591Y015195D02*
X012453Y015195D01*
X012453Y015279D02*
X011591Y015279D01*
D28*
X001802Y001641D03*
X001802Y017141D03*
X027802Y017141D03*
X027802Y001641D03*
D29*
X021302Y006641D03*
X021302Y008141D03*
X019302Y011141D03*
X018802Y011641D03*
X017802Y011641D03*
X018802Y013641D03*
X019802Y014641D03*
X019302Y015141D03*
X018302Y015141D03*
X020302Y015141D03*
X022302Y015641D03*
X022802Y014141D03*
X026302Y008641D03*
X015802Y008641D03*
X012802Y009641D03*
X012302Y011641D03*
X011302Y012141D03*
X010302Y012141D03*
X013302Y014141D03*
X014302Y016141D03*
X007302Y011641D03*
X006802Y010141D03*
X005802Y008141D03*
X005802Y007141D03*
X008302Y007641D03*
X009802Y007641D03*
X011802Y006141D03*
X013302Y006641D03*
X013802Y006141D03*
X006302Y005141D03*
X006802Y016141D03*
D30*
X010802Y015641D03*
X010802Y015141D03*
X011302Y015641D03*
X011802Y016141D03*
X012302Y015641D03*
X012802Y015641D03*
X012802Y016141D03*
X010802Y014641D03*
X010802Y014141D03*
X010802Y013641D03*
X011302Y013641D03*
X011802Y013641D03*
D31*
X017302Y013141D03*
X017302Y012141D03*
M02*
