%
M48
M72
T01C0.0200
T02C0.0236
T03C0.0320
T04C0.0394
T05C0.0400
T06C0.1260
T07C0.1300
%
T01
X17302Y12141
X17302Y13141
T02
X18802Y13641
X19802Y14641
X19302Y15141
X18302Y15141
X20302Y15141
X22302Y15641
X22802Y14141
X18802Y11641
X19302Y11141
X17802Y11641
X15802Y8641
X12802Y9641
X12302Y11641
X11302Y12141
X10302Y12141
X10802Y13641
X10802Y14141
X11302Y13641
X11802Y13641
X10802Y14641
X10802Y15141
X10802Y15641
X11302Y15641
X11802Y16141
X12302Y15641
X12802Y15641
X12802Y16141
X14302Y16141
X13302Y14141
X7302Y11641
X6802Y10141
X5802Y8141
X5802Y7141
X8302Y7641
X9802Y7641
X11802Y6141
X13302Y6641
X13802Y6141
X21302Y6641
X21302Y8141
X26302Y8641
X6802Y16141
X6302Y5141
T03
X23302Y10641
X25802Y12191
X23302Y12641
X23302Y13641
X25802Y14091
X23302Y15641
X11302Y17141
X5302Y17141
T04
X21015Y5141
X22196Y5141
X22196Y3960
X21015Y3960
T05
X18802Y6641
X17802Y6641
X16802Y6641
X16802Y7641
X17802Y7641
X18802Y7641
X27302Y7641
X27302Y6641
X23802Y17641
X22802Y17641
X21802Y17641
X19802Y17641
X18802Y17641
X17802Y17641
X15802Y17641
X14802Y17641
X13802Y17641
X12802Y17641
X3802Y17641
X3802Y16641
T06
X21606Y2188
T07
X1802Y1641
X1802Y17141
X27802Y17141
X27802Y1641
M30
