G75*
G70*
%OFA0B0*%
%FSLAX24Y24*%
%IPPOS*%
%LPD*%
%AMOC8*
5,1,8,0,0,1.08239X$1,22.5*
%
%ADD10C,0.0640*%
%ADD11OC8,0.0710*%
%ADD12C,0.0720*%
%ADD13OC8,0.0720*%
%ADD14C,0.0930*%
%ADD15OC8,0.0930*%
%ADD16C,0.1080*%
%ADD17C,0.1340*%
%ADD18C,0.1380*%
%ADD19R,0.0476X0.0476*%
%ADD20C,0.0476*%
%ADD21R,0.0440X0.0440*%
D10*
X025802Y012191D03*
X025802Y014091D03*
D11*
X023302Y013641D03*
X023302Y012641D03*
X023302Y010641D03*
X023302Y015641D03*
D12*
X022802Y017321D02*
X022802Y017961D01*
X021802Y017961D02*
X021802Y017321D01*
X019802Y017321D02*
X019802Y017961D01*
X018802Y017961D02*
X018802Y017321D01*
X017802Y017321D02*
X017802Y017961D01*
X015802Y017961D02*
X015802Y017321D01*
X014802Y017321D02*
X014802Y017961D01*
X013802Y017961D02*
X013802Y017321D01*
X012802Y017321D02*
X012802Y017961D01*
X004122Y017641D02*
X003482Y017641D01*
X003482Y016641D02*
X004122Y016641D01*
X023802Y017321D02*
X023802Y017961D01*
X026982Y007641D02*
X027622Y007641D01*
X027622Y006641D02*
X026982Y006641D01*
D13*
X018802Y006641D03*
X017802Y006641D03*
X016802Y006641D03*
X016802Y007641D03*
X017802Y007641D03*
X018802Y007641D03*
D14*
X005302Y017141D03*
D15*
X011302Y017141D03*
D16*
X021015Y005141D03*
X022196Y005141D03*
X022196Y003960D03*
X021015Y003960D03*
D17*
X021606Y002188D03*
D18*
X001802Y001641D03*
X001802Y017141D03*
X027802Y017141D03*
X027802Y001641D03*
D19*
X021302Y006641D03*
X021302Y008141D03*
X019302Y011141D03*
X018802Y011641D03*
X017802Y011641D03*
X018802Y013641D03*
X019802Y014641D03*
X019302Y015141D03*
X018302Y015141D03*
X020302Y015141D03*
X022302Y015641D03*
X022802Y014141D03*
X026302Y008641D03*
X015802Y008641D03*
X012802Y009641D03*
X012302Y011641D03*
X011302Y012141D03*
X010302Y012141D03*
X013302Y014141D03*
X014302Y016141D03*
X007302Y011641D03*
X006802Y010141D03*
X005802Y008141D03*
X005802Y007141D03*
X008302Y007641D03*
X009802Y007641D03*
X011802Y006141D03*
X013302Y006641D03*
X013802Y006141D03*
X006302Y005141D03*
X006802Y016141D03*
D20*
X010802Y015641D03*
X010802Y015141D03*
X011302Y015641D03*
X011802Y016141D03*
X012302Y015641D03*
X012802Y015641D03*
X012802Y016141D03*
X010802Y014641D03*
X010802Y014141D03*
X010802Y013641D03*
X011302Y013641D03*
X011802Y013641D03*
D21*
X017302Y013141D03*
X017302Y012141D03*
M02*
