G75*
G70*
%OFA0B0*%
%FSLAX24Y24*%
%IPPOS*%
%LPD*%
%AMOC8*
5,1,8,0,0,1.08239X$1,22.5*
%
%ADD10C,0.0080*%
%ADD11C,0.0560*%
%ADD12OC8,0.0630*%
%ADD13R,0.0394X0.0433*%
%ADD14R,0.0630X0.0710*%
%ADD15C,0.0640*%
%ADD16OC8,0.0640*%
%ADD17R,0.0520X0.0661*%
%ADD18R,0.0728X0.0661*%
%ADD19R,0.0425X0.0413*%
%ADD20C,0.0850*%
%ADD21OC8,0.0850*%
%ADD22R,0.0470X0.0220*%
%ADD23R,0.0220X0.0470*%
%ADD24R,0.0630X0.0236*%
%ADD25C,0.1000*%
%ADD26C,0.0000*%
%ADD27R,0.0260X0.0800*%
%ADD28R,0.0880X0.0480*%
%ADD29R,0.0866X0.1417*%
%ADD30R,0.1811X0.0394*%
%ADD31R,0.1339X0.0630*%
%ADD32R,0.0394X0.1811*%
%ADD33R,0.0630X0.1339*%
%ADD34R,0.0710X0.0630*%
%ADD35R,0.0433X0.0394*%
%ADD36C,0.0160*%
%ADD37R,0.0396X0.0396*%
%ADD38C,0.0240*%
%ADD39C,0.0320*%
%ADD40C,0.0396*%
%ADD41R,0.0360X0.0360*%
D10*
X000302Y000141D02*
X000302Y018637D01*
X029172Y018637D01*
X029172Y000141D01*
X000302Y000141D01*
D11*
X025802Y012191D03*
X025802Y014091D03*
D12*
X023302Y013641D03*
X023302Y012641D03*
X023302Y010641D03*
X023302Y015641D03*
D13*
X007637Y009141D03*
X006968Y009141D03*
X006968Y007641D03*
X007637Y007641D03*
X007637Y006141D03*
X006968Y006141D03*
X006968Y004641D03*
X007637Y004641D03*
X006137Y011641D03*
X005468Y011641D03*
X024968Y005141D03*
X025637Y005141D03*
D14*
X004362Y011641D03*
X003243Y011641D03*
D15*
X003482Y016641D02*
X004122Y016641D01*
X004122Y017641D02*
X003482Y017641D01*
X012802Y017321D02*
X012802Y017961D01*
X013802Y017961D02*
X013802Y017321D01*
X014802Y017321D02*
X014802Y017961D01*
X015802Y017961D02*
X015802Y017321D01*
X017802Y017321D02*
X017802Y017961D01*
X018802Y017961D02*
X018802Y017321D01*
X019802Y017321D02*
X019802Y017961D01*
X021802Y017961D02*
X021802Y017321D01*
X022802Y017321D02*
X022802Y017961D01*
X023802Y017961D02*
X023802Y017321D01*
X026982Y007641D02*
X027622Y007641D01*
X027622Y006641D02*
X026982Y006641D01*
D16*
X018802Y006641D03*
X017802Y006641D03*
X016802Y006641D03*
X016802Y007641D03*
X017802Y007641D03*
X018802Y007641D03*
D17*
X007637Y013641D03*
X004618Y015441D03*
D18*
X006189Y015441D03*
X006066Y013641D03*
D19*
X007802Y014797D03*
X007802Y015486D03*
X013802Y015486D03*
X013802Y014797D03*
X013802Y012986D03*
X013802Y012297D03*
X013802Y010986D03*
X013802Y010297D03*
D20*
X005302Y017141D03*
D21*
X011302Y017141D03*
D22*
X015231Y015503D03*
X015231Y015188D03*
X015231Y014873D03*
X015231Y014558D03*
X015231Y014243D03*
X015231Y013929D03*
X015231Y013614D03*
X015231Y013299D03*
X015231Y012984D03*
X015231Y012669D03*
X015231Y012354D03*
X015231Y012039D03*
X015231Y011724D03*
X015231Y011409D03*
X015231Y011094D03*
X015231Y010779D03*
X021373Y010779D03*
X021373Y011094D03*
X021373Y011409D03*
X021373Y011724D03*
X021373Y012039D03*
X021373Y012354D03*
X021373Y012669D03*
X021373Y012984D03*
X021373Y013299D03*
X021373Y013614D03*
X021373Y013929D03*
X021373Y014243D03*
X021373Y014558D03*
X021373Y014873D03*
X021373Y015188D03*
X021373Y015503D03*
D23*
X020665Y016212D03*
X020350Y016212D03*
X020035Y016212D03*
X019720Y016212D03*
X019405Y016212D03*
X019090Y016212D03*
X018775Y016212D03*
X018460Y016212D03*
X018145Y016212D03*
X017830Y016212D03*
X017515Y016212D03*
X017200Y016212D03*
X016885Y016212D03*
X016570Y016212D03*
X016255Y016212D03*
X015940Y016212D03*
X015940Y010070D03*
X016255Y010070D03*
X016570Y010070D03*
X016885Y010070D03*
X017200Y010070D03*
X017515Y010070D03*
X017830Y010070D03*
X018145Y010070D03*
X018460Y010070D03*
X018775Y010070D03*
X019090Y010070D03*
X019405Y010070D03*
X019720Y010070D03*
X020035Y010070D03*
X020350Y010070D03*
X020665Y010070D03*
D24*
X022779Y008391D03*
X022779Y007891D03*
X022779Y007391D03*
X022779Y006891D03*
X024826Y006891D03*
X024826Y007391D03*
X024826Y007891D03*
X024826Y008391D03*
D25*
X022196Y005141D03*
X021015Y005141D03*
X021015Y003960D03*
X022196Y003960D03*
D26*
X020976Y002188D02*
X020978Y002238D01*
X020984Y002288D01*
X020994Y002337D01*
X021008Y002385D01*
X021025Y002432D01*
X021046Y002477D01*
X021071Y002521D01*
X021099Y002562D01*
X021131Y002601D01*
X021165Y002638D01*
X021202Y002672D01*
X021242Y002702D01*
X021284Y002729D01*
X021328Y002753D01*
X021374Y002774D01*
X021421Y002790D01*
X021469Y002803D01*
X021519Y002812D01*
X021568Y002817D01*
X021619Y002818D01*
X021669Y002815D01*
X021718Y002808D01*
X021767Y002797D01*
X021815Y002782D01*
X021861Y002764D01*
X021906Y002742D01*
X021949Y002716D01*
X021990Y002687D01*
X022029Y002655D01*
X022065Y002620D01*
X022097Y002582D01*
X022127Y002542D01*
X022154Y002499D01*
X022177Y002455D01*
X022196Y002409D01*
X022212Y002361D01*
X022224Y002312D01*
X022232Y002263D01*
X022236Y002213D01*
X022236Y002163D01*
X022232Y002113D01*
X022224Y002064D01*
X022212Y002015D01*
X022196Y001967D01*
X022177Y001921D01*
X022154Y001877D01*
X022127Y001834D01*
X022097Y001794D01*
X022065Y001756D01*
X022029Y001721D01*
X021990Y001689D01*
X021949Y001660D01*
X021906Y001634D01*
X021861Y001612D01*
X021815Y001594D01*
X021767Y001579D01*
X021718Y001568D01*
X021669Y001561D01*
X021619Y001558D01*
X021568Y001559D01*
X021519Y001564D01*
X021469Y001573D01*
X021421Y001586D01*
X021374Y001602D01*
X021328Y001623D01*
X021284Y001647D01*
X021242Y001674D01*
X021202Y001704D01*
X021165Y001738D01*
X021131Y001775D01*
X021099Y001814D01*
X021071Y001855D01*
X021046Y001899D01*
X021025Y001944D01*
X021008Y001991D01*
X020994Y002039D01*
X020984Y002088D01*
X020978Y002138D01*
X020976Y002188D01*
X027152Y001641D02*
X027154Y001691D01*
X027160Y001741D01*
X027170Y001791D01*
X027183Y001839D01*
X027200Y001887D01*
X027221Y001933D01*
X027245Y001977D01*
X027273Y002019D01*
X027304Y002059D01*
X027338Y002096D01*
X027375Y002131D01*
X027414Y002162D01*
X027455Y002191D01*
X027499Y002216D01*
X027545Y002238D01*
X027592Y002256D01*
X027640Y002270D01*
X027689Y002281D01*
X027739Y002288D01*
X027789Y002291D01*
X027840Y002290D01*
X027890Y002285D01*
X027940Y002276D01*
X027988Y002264D01*
X028036Y002247D01*
X028082Y002227D01*
X028127Y002204D01*
X028170Y002177D01*
X028210Y002147D01*
X028248Y002114D01*
X028283Y002078D01*
X028316Y002039D01*
X028345Y001998D01*
X028371Y001955D01*
X028394Y001910D01*
X028413Y001863D01*
X028428Y001815D01*
X028440Y001766D01*
X028448Y001716D01*
X028452Y001666D01*
X028452Y001616D01*
X028448Y001566D01*
X028440Y001516D01*
X028428Y001467D01*
X028413Y001419D01*
X028394Y001372D01*
X028371Y001327D01*
X028345Y001284D01*
X028316Y001243D01*
X028283Y001204D01*
X028248Y001168D01*
X028210Y001135D01*
X028170Y001105D01*
X028127Y001078D01*
X028082Y001055D01*
X028036Y001035D01*
X027988Y001018D01*
X027940Y001006D01*
X027890Y000997D01*
X027840Y000992D01*
X027789Y000991D01*
X027739Y000994D01*
X027689Y001001D01*
X027640Y001012D01*
X027592Y001026D01*
X027545Y001044D01*
X027499Y001066D01*
X027455Y001091D01*
X027414Y001120D01*
X027375Y001151D01*
X027338Y001186D01*
X027304Y001223D01*
X027273Y001263D01*
X027245Y001305D01*
X027221Y001349D01*
X027200Y001395D01*
X027183Y001443D01*
X027170Y001491D01*
X027160Y001541D01*
X027154Y001591D01*
X027152Y001641D01*
X027152Y017141D02*
X027154Y017191D01*
X027160Y017241D01*
X027170Y017291D01*
X027183Y017339D01*
X027200Y017387D01*
X027221Y017433D01*
X027245Y017477D01*
X027273Y017519D01*
X027304Y017559D01*
X027338Y017596D01*
X027375Y017631D01*
X027414Y017662D01*
X027455Y017691D01*
X027499Y017716D01*
X027545Y017738D01*
X027592Y017756D01*
X027640Y017770D01*
X027689Y017781D01*
X027739Y017788D01*
X027789Y017791D01*
X027840Y017790D01*
X027890Y017785D01*
X027940Y017776D01*
X027988Y017764D01*
X028036Y017747D01*
X028082Y017727D01*
X028127Y017704D01*
X028170Y017677D01*
X028210Y017647D01*
X028248Y017614D01*
X028283Y017578D01*
X028316Y017539D01*
X028345Y017498D01*
X028371Y017455D01*
X028394Y017410D01*
X028413Y017363D01*
X028428Y017315D01*
X028440Y017266D01*
X028448Y017216D01*
X028452Y017166D01*
X028452Y017116D01*
X028448Y017066D01*
X028440Y017016D01*
X028428Y016967D01*
X028413Y016919D01*
X028394Y016872D01*
X028371Y016827D01*
X028345Y016784D01*
X028316Y016743D01*
X028283Y016704D01*
X028248Y016668D01*
X028210Y016635D01*
X028170Y016605D01*
X028127Y016578D01*
X028082Y016555D01*
X028036Y016535D01*
X027988Y016518D01*
X027940Y016506D01*
X027890Y016497D01*
X027840Y016492D01*
X027789Y016491D01*
X027739Y016494D01*
X027689Y016501D01*
X027640Y016512D01*
X027592Y016526D01*
X027545Y016544D01*
X027499Y016566D01*
X027455Y016591D01*
X027414Y016620D01*
X027375Y016651D01*
X027338Y016686D01*
X027304Y016723D01*
X027273Y016763D01*
X027245Y016805D01*
X027221Y016849D01*
X027200Y016895D01*
X027183Y016943D01*
X027170Y016991D01*
X027160Y017041D01*
X027154Y017091D01*
X027152Y017141D01*
X001152Y017141D02*
X001154Y017191D01*
X001160Y017241D01*
X001170Y017291D01*
X001183Y017339D01*
X001200Y017387D01*
X001221Y017433D01*
X001245Y017477D01*
X001273Y017519D01*
X001304Y017559D01*
X001338Y017596D01*
X001375Y017631D01*
X001414Y017662D01*
X001455Y017691D01*
X001499Y017716D01*
X001545Y017738D01*
X001592Y017756D01*
X001640Y017770D01*
X001689Y017781D01*
X001739Y017788D01*
X001789Y017791D01*
X001840Y017790D01*
X001890Y017785D01*
X001940Y017776D01*
X001988Y017764D01*
X002036Y017747D01*
X002082Y017727D01*
X002127Y017704D01*
X002170Y017677D01*
X002210Y017647D01*
X002248Y017614D01*
X002283Y017578D01*
X002316Y017539D01*
X002345Y017498D01*
X002371Y017455D01*
X002394Y017410D01*
X002413Y017363D01*
X002428Y017315D01*
X002440Y017266D01*
X002448Y017216D01*
X002452Y017166D01*
X002452Y017116D01*
X002448Y017066D01*
X002440Y017016D01*
X002428Y016967D01*
X002413Y016919D01*
X002394Y016872D01*
X002371Y016827D01*
X002345Y016784D01*
X002316Y016743D01*
X002283Y016704D01*
X002248Y016668D01*
X002210Y016635D01*
X002170Y016605D01*
X002127Y016578D01*
X002082Y016555D01*
X002036Y016535D01*
X001988Y016518D01*
X001940Y016506D01*
X001890Y016497D01*
X001840Y016492D01*
X001789Y016491D01*
X001739Y016494D01*
X001689Y016501D01*
X001640Y016512D01*
X001592Y016526D01*
X001545Y016544D01*
X001499Y016566D01*
X001455Y016591D01*
X001414Y016620D01*
X001375Y016651D01*
X001338Y016686D01*
X001304Y016723D01*
X001273Y016763D01*
X001245Y016805D01*
X001221Y016849D01*
X001200Y016895D01*
X001183Y016943D01*
X001170Y016991D01*
X001160Y017041D01*
X001154Y017091D01*
X001152Y017141D01*
X001152Y001641D02*
X001154Y001691D01*
X001160Y001741D01*
X001170Y001791D01*
X001183Y001839D01*
X001200Y001887D01*
X001221Y001933D01*
X001245Y001977D01*
X001273Y002019D01*
X001304Y002059D01*
X001338Y002096D01*
X001375Y002131D01*
X001414Y002162D01*
X001455Y002191D01*
X001499Y002216D01*
X001545Y002238D01*
X001592Y002256D01*
X001640Y002270D01*
X001689Y002281D01*
X001739Y002288D01*
X001789Y002291D01*
X001840Y002290D01*
X001890Y002285D01*
X001940Y002276D01*
X001988Y002264D01*
X002036Y002247D01*
X002082Y002227D01*
X002127Y002204D01*
X002170Y002177D01*
X002210Y002147D01*
X002248Y002114D01*
X002283Y002078D01*
X002316Y002039D01*
X002345Y001998D01*
X002371Y001955D01*
X002394Y001910D01*
X002413Y001863D01*
X002428Y001815D01*
X002440Y001766D01*
X002448Y001716D01*
X002452Y001666D01*
X002452Y001616D01*
X002448Y001566D01*
X002440Y001516D01*
X002428Y001467D01*
X002413Y001419D01*
X002394Y001372D01*
X002371Y001327D01*
X002345Y001284D01*
X002316Y001243D01*
X002283Y001204D01*
X002248Y001168D01*
X002210Y001135D01*
X002170Y001105D01*
X002127Y001078D01*
X002082Y001055D01*
X002036Y001035D01*
X001988Y001018D01*
X001940Y001006D01*
X001890Y000997D01*
X001840Y000992D01*
X001789Y000991D01*
X001739Y000994D01*
X001689Y001001D01*
X001640Y001012D01*
X001592Y001026D01*
X001545Y001044D01*
X001499Y001066D01*
X001455Y001091D01*
X001414Y001120D01*
X001375Y001151D01*
X001338Y001186D01*
X001304Y001223D01*
X001273Y001263D01*
X001245Y001305D01*
X001221Y001349D01*
X001200Y001395D01*
X001183Y001443D01*
X001170Y001491D01*
X001160Y001541D01*
X001154Y001591D01*
X001152Y001641D01*
D27*
X009302Y008431D03*
X009802Y008431D03*
X010302Y008431D03*
X010802Y008431D03*
X011302Y008431D03*
X011802Y008431D03*
X012302Y008431D03*
X012302Y010851D03*
X011802Y010851D03*
X011302Y010851D03*
X010802Y010851D03*
X010302Y010851D03*
X009802Y010851D03*
X009302Y010851D03*
D28*
X009582Y013731D03*
X009582Y014641D03*
X009582Y015551D03*
D29*
X012022Y014641D03*
D30*
X003759Y014535D03*
X003759Y013747D03*
X003865Y009141D03*
X003865Y008354D03*
X003865Y007566D03*
X003865Y006779D03*
X003865Y005991D03*
X003865Y005204D03*
D31*
X001818Y004259D03*
X001818Y010086D03*
X001712Y012803D03*
X001712Y015480D03*
D32*
X012121Y003991D03*
X012909Y003991D03*
X013696Y003991D03*
X014483Y003991D03*
D33*
X015428Y001944D03*
X011176Y001944D03*
D34*
X027802Y011081D03*
X027802Y012201D03*
X027802Y013581D03*
X027802Y014701D03*
D35*
X026802Y010476D03*
X026802Y009806D03*
X027802Y009976D03*
X027802Y009306D03*
D36*
X026468Y009306D01*
X026302Y009141D01*
X020802Y009141D01*
X020350Y009594D01*
X020350Y010070D01*
X020665Y010070D02*
X020665Y009779D01*
X020802Y009641D01*
X026637Y009641D01*
X026802Y009806D01*
X026802Y010476D02*
X026802Y012581D01*
X027802Y013581D01*
X027802Y012641D02*
X028802Y013641D01*
X028802Y014141D01*
X028302Y014641D01*
X027862Y014641D01*
X027802Y014701D01*
X026743Y014701D01*
X026302Y015141D01*
X025802Y015141D01*
X025302Y015641D01*
X023302Y015641D01*
X021802Y017141D01*
X021802Y017641D01*
X022302Y015641D02*
X021850Y015188D01*
X021373Y015188D01*
X021373Y014873D02*
X022070Y014873D01*
X022802Y014141D01*
X022802Y013641D02*
X023302Y013641D01*
X025352Y013641D01*
X025802Y014091D01*
X025352Y012641D02*
X025802Y012191D01*
X025352Y012641D02*
X023302Y012641D01*
X023275Y012669D01*
X021373Y012669D01*
X021373Y012984D02*
X022145Y012984D01*
X022802Y013641D01*
X021373Y013614D02*
X019830Y013614D01*
X018302Y015141D01*
X019302Y015141D01*
X019802Y014641D02*
X020515Y013929D01*
X021373Y013929D01*
X021373Y014243D02*
X020700Y014243D01*
X020302Y014641D01*
X020302Y015141D01*
X018802Y013641D02*
X019145Y013299D01*
X021373Y013299D01*
X021373Y012354D02*
X019590Y012354D01*
X019302Y012641D01*
X016302Y012641D01*
X016302Y013641D01*
X015700Y014243D01*
X015231Y014243D01*
X013405Y014243D01*
X013302Y014141D01*
X013302Y013486D01*
X013802Y012986D01*
X013147Y012986D01*
X012802Y012641D01*
X012802Y011986D01*
X013802Y010986D01*
X013911Y011094D01*
X015231Y011094D01*
X015755Y011094D01*
X016302Y011641D01*
X016302Y012641D01*
X017302Y012141D02*
X015940Y010779D01*
X015231Y010779D01*
X014940Y010779D01*
X014302Y010141D01*
X013958Y010141D01*
X013958Y009641D01*
X015802Y007797D01*
X015802Y006141D01*
X016302Y005641D01*
X019302Y005641D01*
X021052Y007391D01*
X022779Y007391D01*
X022779Y006891D02*
X022052Y006891D01*
X021802Y006641D01*
X021302Y006641D01*
X021302Y006141D02*
X023302Y006141D01*
X023802Y006641D01*
X023802Y007641D01*
X024052Y007891D01*
X024826Y007891D01*
X027052Y007891D01*
X027302Y007641D01*
X028302Y008141D02*
X027802Y008641D01*
X026302Y008641D01*
X026052Y008391D01*
X024826Y008391D01*
X024052Y008391D01*
X023552Y007891D01*
X022779Y007891D01*
X022052Y007891D01*
X021802Y007641D01*
X018802Y007641D01*
X018302Y007141D02*
X018302Y008641D01*
X019090Y009429D01*
X019090Y010070D01*
X018460Y010070D02*
X018460Y010799D01*
X018802Y011141D01*
X018802Y011641D01*
X019302Y011141D02*
X019885Y011724D01*
X021373Y011724D01*
X021373Y012039D02*
X019405Y012039D01*
X019302Y012141D01*
X017302Y012141D01*
X017802Y011641D02*
X018145Y011299D01*
X018145Y010070D01*
X016570Y010070D02*
X016570Y008873D01*
X017302Y008141D01*
X017302Y007141D01*
X016802Y006641D01*
X017802Y006641D02*
X018302Y007141D01*
X016802Y007641D02*
X015958Y007641D01*
X015802Y007797D01*
X015802Y008641D02*
X016255Y009094D01*
X016255Y010070D01*
X015231Y011409D02*
X014690Y011409D01*
X013802Y012297D01*
X012802Y013141D02*
X012302Y012641D01*
X009302Y012641D01*
X009302Y013141D01*
X010302Y013141D01*
X010302Y014141D01*
X009802Y014641D01*
X010302Y015141D01*
X010302Y015641D01*
X010802Y016141D01*
X011302Y016141D01*
X011802Y016641D01*
X012802Y016641D01*
X013302Y016141D01*
X013302Y015141D01*
X012802Y014641D01*
X012802Y013141D01*
X012802Y013142D02*
X010302Y013142D01*
X010302Y013300D02*
X012802Y013300D01*
X012802Y013459D02*
X010302Y013459D01*
X010302Y013617D02*
X012802Y013617D01*
X012802Y013776D02*
X010302Y013776D01*
X010302Y013934D02*
X012802Y013934D01*
X012802Y014093D02*
X010302Y014093D01*
X010192Y014251D02*
X012802Y014251D01*
X012802Y014410D02*
X010033Y014410D01*
X009875Y014569D02*
X012802Y014569D01*
X012888Y014727D02*
X009888Y014727D01*
X010047Y014886D02*
X013047Y014886D01*
X013205Y015044D02*
X010205Y015044D01*
X010302Y015203D02*
X013302Y015203D01*
X013302Y015361D02*
X010302Y015361D01*
X010302Y015520D02*
X013302Y015520D01*
X013302Y015678D02*
X010340Y015678D01*
X010498Y015837D02*
X013302Y015837D01*
X013302Y015995D02*
X010657Y015995D01*
X011315Y016154D02*
X013289Y016154D01*
X013131Y016313D02*
X011474Y016313D01*
X011632Y016471D02*
X012972Y016471D01*
X012814Y016630D02*
X011791Y016630D01*
X012802Y017141D02*
X013802Y016141D01*
X013802Y015486D01*
X013802Y015641D01*
X014302Y016141D01*
X014802Y016641D02*
X013802Y017641D01*
X012802Y017641D02*
X012802Y017141D01*
X014802Y016641D02*
X017802Y016641D01*
X017830Y016614D01*
X017830Y016212D01*
X015885Y014558D02*
X017302Y013141D01*
X015885Y014558D02*
X015231Y014558D01*
X014041Y014558D01*
X013802Y014797D01*
X013802Y014641D01*
X012644Y012983D02*
X009302Y012983D01*
X009302Y012825D02*
X012486Y012825D01*
X012327Y012666D02*
X009302Y012666D01*
X008802Y012641D02*
X003802Y012641D01*
X003302Y012141D01*
X003302Y011701D01*
X003243Y011641D01*
X002802Y012141D01*
X002802Y012791D01*
X003759Y013747D01*
X003302Y012081D02*
X003243Y011641D01*
X004362Y011641D02*
X005468Y011641D01*
X006137Y011641D02*
X007302Y011641D01*
X007637Y011306D01*
X007637Y009141D01*
X007637Y007641D01*
X008302Y007641D01*
X007637Y007641D02*
X007637Y006141D01*
X007637Y004641D01*
X006968Y004641D02*
X006968Y003976D01*
X007302Y003641D01*
X007802Y003641D01*
X008802Y004641D01*
X009302Y004641D01*
X011802Y007141D01*
X011802Y008431D01*
X012302Y008431D02*
X012447Y008286D01*
X012302Y008141D01*
X012302Y006641D01*
X011802Y006141D01*
X012121Y005822D01*
X012121Y003991D01*
X012909Y003991D02*
X012909Y006247D01*
X013302Y006641D01*
X013802Y006141D02*
X013696Y006035D01*
X013696Y003991D01*
X014483Y003991D02*
X014483Y005322D01*
X014802Y005641D01*
X015302Y005641D01*
X015802Y005141D01*
X019834Y005141D01*
X021015Y003960D01*
X022196Y003960D01*
X026121Y003960D01*
X028302Y006141D01*
X028302Y008141D01*
X028302Y010141D01*
X028802Y010641D01*
X028802Y011641D01*
X028302Y012141D01*
X027862Y012141D01*
X027802Y012201D01*
X027802Y012641D01*
X027802Y011081D02*
X027802Y009976D01*
X025552Y007391D02*
X024826Y007391D01*
X025552Y007391D02*
X025802Y007141D01*
X025802Y006641D01*
X024968Y005806D01*
X024968Y005141D01*
X022196Y005141D01*
X021015Y005141D02*
X021015Y005854D01*
X021302Y006141D01*
X021302Y008141D02*
X021802Y008141D01*
X022052Y008391D01*
X022779Y008391D01*
X023302Y010641D02*
X022302Y011641D01*
X022302Y012141D01*
X022090Y012354D01*
X021373Y012354D01*
X013958Y010141D02*
X013802Y010297D01*
X013958Y009641D02*
X013958Y009297D01*
X012802Y008141D01*
X012592Y008141D01*
X012447Y008286D01*
X011302Y008431D02*
X011302Y009141D01*
X011802Y009641D01*
X012802Y009641D01*
X011802Y010141D02*
X011802Y010851D01*
X012302Y010851D02*
X012302Y011641D01*
X011302Y012141D02*
X011302Y010851D01*
X010802Y010851D01*
X010302Y010851D02*
X010302Y012141D01*
X009302Y012141D02*
X008802Y012641D01*
X009302Y012141D02*
X009302Y010851D01*
X009802Y010851D02*
X009802Y010141D01*
X010302Y009641D01*
X011302Y009641D01*
X011802Y010141D01*
X011302Y008431D02*
X011302Y007141D01*
X010802Y006641D01*
X009802Y006641D01*
X009302Y007141D01*
X009302Y008431D01*
X009802Y008431D02*
X009802Y007641D01*
X010302Y008431D02*
X010802Y008431D01*
X006968Y009141D02*
X005802Y009141D01*
X005015Y008354D01*
X005228Y008141D01*
X005802Y008141D01*
X005015Y008354D02*
X003865Y008354D01*
X003940Y007641D02*
X003865Y007566D01*
X003940Y007641D02*
X005802Y007641D01*
X006968Y007641D01*
X005802Y007641D02*
X005802Y007141D01*
X005165Y006779D02*
X005802Y006141D01*
X006968Y006141D01*
X006968Y005806D01*
X006302Y005141D01*
X005802Y004641D02*
X006968Y004641D01*
X005802Y004641D02*
X005302Y005141D01*
X005302Y005641D01*
X004952Y005991D01*
X003865Y005991D01*
X003865Y006779D02*
X005165Y006779D01*
X005302Y009141D02*
X003865Y009141D01*
X005302Y009141D02*
X006302Y010141D01*
X006802Y010141D01*
X009302Y013641D02*
X009393Y013731D01*
X009582Y013731D01*
X009582Y014641D02*
X008802Y014641D01*
X008647Y014797D01*
X007802Y014797D01*
X007647Y014641D01*
X007302Y014641D01*
X006802Y015141D01*
X006502Y015441D01*
X006189Y015441D01*
X006802Y015141D02*
X006802Y016141D01*
X025637Y005141D02*
X025802Y005141D01*
X027302Y006641D01*
D37*
X026302Y008641D03*
X021302Y008141D03*
X021302Y006641D03*
X015802Y008641D03*
X012802Y009641D03*
X012302Y011641D03*
X011302Y012141D03*
X010302Y012141D03*
X013302Y014141D03*
X014302Y016141D03*
X018302Y015141D03*
X019302Y015141D03*
X019802Y014641D03*
X020302Y015141D03*
X022302Y015641D03*
X022802Y014141D03*
X018802Y013641D03*
X018802Y011641D03*
X019302Y011141D03*
X017802Y011641D03*
X013302Y006641D03*
X013802Y006141D03*
X011802Y006141D03*
X009802Y007641D03*
X008302Y007641D03*
X005802Y007141D03*
X005802Y008141D03*
X006802Y010141D03*
X007302Y011641D03*
X006802Y016141D03*
X006302Y005141D03*
D38*
X004239Y005204D02*
X004239Y004204D01*
X007802Y000641D01*
X013302Y000641D01*
X014483Y001822D01*
X014483Y003991D01*
X004239Y005204D02*
X003865Y005204D01*
X003802Y005141D01*
X003302Y005141D01*
X003239Y005204D01*
X001239Y005204D01*
X000802Y005641D01*
X000802Y013641D01*
X000802Y016141D01*
X002302Y016141D01*
X002802Y016641D01*
X002802Y017141D01*
X003302Y017641D01*
X003802Y017641D01*
X003802Y016641D02*
X003802Y014578D01*
X003759Y014535D01*
X003759Y013747D02*
X000909Y013747D01*
X000802Y013641D01*
X004618Y015441D02*
X005002Y015441D01*
X005802Y014641D01*
X006637Y014641D01*
X007637Y013641D01*
X009492Y013641D01*
X009582Y013731D01*
X009517Y015486D02*
X007802Y015486D01*
X008147Y015486D01*
X009802Y017141D01*
X011302Y017141D01*
X011802Y017641D01*
X012802Y017641D01*
X009582Y015551D02*
X009517Y015486D01*
X005302Y016126D02*
X004618Y015441D01*
X005302Y016126D02*
X005302Y017141D01*
D39*
X005172Y014535D02*
X003759Y014535D01*
X005172Y014535D02*
X006066Y013641D01*
D40*
X010802Y013641D03*
X010802Y014141D03*
X011302Y013641D03*
X011802Y013641D03*
X010802Y014641D03*
X010802Y015141D03*
X010802Y015641D03*
X011302Y015641D03*
X011802Y016141D03*
X012302Y015641D03*
X012802Y015641D03*
X012802Y016141D03*
D41*
X017302Y013141D03*
X017302Y012141D03*
M02*
