G75*
G70*
%OFA0B0*%
%FSLAX24Y24*%
%IPPOS*%
%LPD*%
%AMOC8*
5,1,8,0,0,1.08239X$1,22.5*
%
%ADD10C,0.0240*%
%ADD11C,0.0110*%
D10*
X004601Y001260D02*
X005101Y000760D01*
X005601Y001260D01*
X005601Y002260D02*
X006101Y002760D01*
X005601Y003260D01*
X005601Y004260D02*
X005101Y004260D01*
X004601Y004260D01*
X005101Y004260D02*
X005101Y002760D01*
X006101Y002760D01*
X005101Y002760D02*
X005101Y000760D01*
D11*
X004205Y001915D02*
X004205Y002210D01*
X004304Y002309D01*
X004402Y002309D01*
X004501Y002210D01*
X004501Y001915D01*
X004501Y002210D02*
X004599Y002309D01*
X004697Y002309D01*
X004796Y002210D01*
X004796Y001915D01*
X004205Y001915D01*
X004205Y002559D02*
X004697Y002559D01*
X004796Y002658D01*
X004796Y002855D01*
X004697Y002953D01*
X004205Y002953D01*
X004304Y003204D02*
X004402Y003204D01*
X004501Y003302D01*
X004501Y003499D01*
X004599Y003598D01*
X004697Y003598D01*
X004796Y003499D01*
X004796Y003302D01*
X004697Y003204D01*
X004304Y003204D02*
X004205Y003302D01*
X004205Y003499D01*
X004304Y003598D01*
X005655Y003613D02*
X005754Y003515D01*
X006147Y003515D01*
X006246Y003613D01*
X006246Y003810D01*
X006147Y003909D01*
X005754Y003909D02*
X005655Y003810D01*
X005655Y003613D01*
M02*
