G75*
G70*
%OFA0B0*%
%FSLAX24Y24*%
%IPPOS*%
%LPD*%
%AMOC8*
5,1,8,0,0,1.08239X$1,22.5*
%
%ADD10C,0.0110*%
%ADD11C,0.0060*%
D10*
X001472Y000815D02*
X001472Y001405D01*
X001866Y001405D02*
X001472Y000815D01*
X001866Y000815D02*
X001866Y001405D01*
X002099Y001405D02*
X002296Y001405D01*
X002197Y001405D02*
X002197Y000815D01*
X002099Y000815D02*
X002296Y000815D01*
X005205Y005003D02*
X005205Y005397D01*
X005205Y005200D02*
X005796Y005200D01*
X005796Y005648D02*
X005205Y005648D01*
X005205Y006042D02*
X005796Y005648D01*
X005796Y006042D02*
X005205Y006042D01*
X005205Y006292D02*
X005205Y006686D01*
X005796Y006686D01*
X005796Y006292D01*
X005501Y006489D02*
X005501Y006686D01*
X005205Y006919D02*
X005205Y007116D01*
X005205Y007017D02*
X005796Y007017D01*
X005796Y006919D02*
X005796Y007116D01*
X005796Y007367D02*
X005796Y007760D01*
X005205Y007760D01*
X005304Y008011D02*
X005205Y008110D01*
X005205Y008306D01*
X005304Y008405D01*
X005697Y008405D01*
X005796Y008306D01*
X005796Y008110D01*
X005697Y008011D01*
X002597Y013315D02*
X002696Y013413D01*
X002696Y013807D01*
X002597Y013905D01*
X002401Y013905D01*
X002302Y013807D01*
X002302Y013413D01*
X002401Y013315D01*
X002597Y013315D01*
X002051Y013413D02*
X001953Y013315D01*
X001756Y013315D01*
X001658Y013413D01*
X001658Y013905D01*
X001407Y013905D02*
X001013Y013905D01*
X001210Y013905D02*
X001210Y013315D01*
X002051Y013413D02*
X002051Y013905D01*
D11*
X003185Y013191D02*
X003387Y013294D01*
X003463Y013269D01*
X003515Y013168D01*
X003490Y013092D01*
X003605Y012991D02*
X003403Y012888D01*
X003353Y012736D01*
X003506Y012686D01*
X003708Y012789D01*
X003772Y012663D02*
X003469Y012509D01*
X003875Y012461D01*
X003572Y012306D01*
X003556Y012712D02*
X003453Y012914D01*
X003288Y012989D02*
X003212Y013013D01*
X003160Y013114D01*
X003185Y013191D01*
X003854Y011878D02*
X003905Y011904D01*
X003981Y011879D01*
X004032Y011778D01*
X004109Y011753D01*
X004159Y011779D01*
X004184Y011855D01*
X004132Y011956D01*
X004056Y011981D01*
X003829Y011802D02*
X003881Y011701D01*
X003957Y011676D01*
X003971Y011524D02*
X004048Y011372D01*
X004124Y011348D01*
X004225Y011399D01*
X004250Y011475D01*
X004173Y011627D01*
X004274Y011679D02*
X003971Y011524D01*
X003829Y011802D02*
X003854Y011878D01*
X004138Y011196D02*
X004441Y011350D01*
X004544Y011148D01*
X004608Y011022D02*
X004660Y010921D01*
X004634Y010972D02*
X004331Y010817D01*
X004357Y010767D02*
X004305Y010868D01*
X004417Y010649D02*
X004520Y010447D01*
X004468Y010548D02*
X004771Y010702D01*
X004852Y010044D02*
X005106Y010046D01*
X004955Y009842D01*
X005020Y009716D02*
X004970Y009563D01*
X005273Y009718D01*
X005222Y009819D02*
X005325Y009617D01*
X005389Y009491D02*
X005338Y009465D01*
X005364Y009414D01*
X005415Y009440D01*
X005389Y009491D01*
X005422Y009301D02*
X005323Y008996D01*
X005525Y009099D01*
X005550Y009175D01*
X005498Y009276D01*
X005422Y009301D01*
X005220Y009198D01*
X005195Y009122D01*
X005247Y009020D01*
X005323Y008996D01*
M02*
