G75*
G70*
%OFA0B0*%
%FSLAX24Y24*%
%IPPOS*%
%LPD*%
%AMOC8*
5,1,8,0,0,1.08239X$1,22.5*
%
%ADD10C,0.0000*%
%ADD11R,0.0236X0.0866*%
%ADD12R,0.0512X0.0591*%
%ADD13R,0.0512X0.0630*%
%ADD14C,0.0660*%
%ADD15R,0.0661X0.0520*%
%ADD16R,0.0661X0.0728*%
%ADD17OC8,0.1640*%
%ADD18R,0.0472X0.0472*%
%ADD19R,0.0740X0.0740*%
%ADD20C,0.0740*%
%ADD21C,0.0240*%
%ADD22C,0.0360*%
%ADD23C,0.0120*%
D10*
X000161Y000101D02*
X000161Y016597D01*
X010661Y016601D01*
X010661Y000101D01*
X000161Y000101D01*
X001011Y001601D02*
X001013Y001651D01*
X001019Y001701D01*
X001029Y001751D01*
X001042Y001799D01*
X001059Y001847D01*
X001080Y001893D01*
X001104Y001937D01*
X001132Y001979D01*
X001163Y002019D01*
X001197Y002056D01*
X001234Y002091D01*
X001273Y002122D01*
X001314Y002151D01*
X001358Y002176D01*
X001404Y002198D01*
X001451Y002216D01*
X001499Y002230D01*
X001548Y002241D01*
X001598Y002248D01*
X001648Y002251D01*
X001699Y002250D01*
X001749Y002245D01*
X001799Y002236D01*
X001847Y002224D01*
X001895Y002207D01*
X001941Y002187D01*
X001986Y002164D01*
X002029Y002137D01*
X002069Y002107D01*
X002107Y002074D01*
X002142Y002038D01*
X002175Y001999D01*
X002204Y001958D01*
X002230Y001915D01*
X002253Y001870D01*
X002272Y001823D01*
X002287Y001775D01*
X002299Y001726D01*
X002307Y001676D01*
X002311Y001626D01*
X002311Y001576D01*
X002307Y001526D01*
X002299Y001476D01*
X002287Y001427D01*
X002272Y001379D01*
X002253Y001332D01*
X002230Y001287D01*
X002204Y001244D01*
X002175Y001203D01*
X002142Y001164D01*
X002107Y001128D01*
X002069Y001095D01*
X002029Y001065D01*
X001986Y001038D01*
X001941Y001015D01*
X001895Y000995D01*
X001847Y000978D01*
X001799Y000966D01*
X001749Y000957D01*
X001699Y000952D01*
X001648Y000951D01*
X001598Y000954D01*
X001548Y000961D01*
X001499Y000972D01*
X001451Y000986D01*
X001404Y001004D01*
X001358Y001026D01*
X001314Y001051D01*
X001273Y001080D01*
X001234Y001111D01*
X001197Y001146D01*
X001163Y001183D01*
X001132Y001223D01*
X001104Y001265D01*
X001080Y001309D01*
X001059Y001355D01*
X001042Y001403D01*
X001029Y001451D01*
X001019Y001501D01*
X001013Y001551D01*
X001011Y001601D01*
X003011Y011501D02*
X003013Y011551D01*
X003019Y011601D01*
X003029Y011651D01*
X003042Y011699D01*
X003059Y011747D01*
X003080Y011793D01*
X003104Y011837D01*
X003132Y011879D01*
X003163Y011919D01*
X003197Y011956D01*
X003234Y011991D01*
X003273Y012022D01*
X003314Y012051D01*
X003358Y012076D01*
X003404Y012098D01*
X003451Y012116D01*
X003499Y012130D01*
X003548Y012141D01*
X003598Y012148D01*
X003648Y012151D01*
X003699Y012150D01*
X003749Y012145D01*
X003799Y012136D01*
X003847Y012124D01*
X003895Y012107D01*
X003941Y012087D01*
X003986Y012064D01*
X004029Y012037D01*
X004069Y012007D01*
X004107Y011974D01*
X004142Y011938D01*
X004175Y011899D01*
X004204Y011858D01*
X004230Y011815D01*
X004253Y011770D01*
X004272Y011723D01*
X004287Y011675D01*
X004299Y011626D01*
X004307Y011576D01*
X004311Y011526D01*
X004311Y011476D01*
X004307Y011426D01*
X004299Y011376D01*
X004287Y011327D01*
X004272Y011279D01*
X004253Y011232D01*
X004230Y011187D01*
X004204Y011144D01*
X004175Y011103D01*
X004142Y011064D01*
X004107Y011028D01*
X004069Y010995D01*
X004029Y010965D01*
X003986Y010938D01*
X003941Y010915D01*
X003895Y010895D01*
X003847Y010878D01*
X003799Y010866D01*
X003749Y010857D01*
X003699Y010852D01*
X003648Y010851D01*
X003598Y010854D01*
X003548Y010861D01*
X003499Y010872D01*
X003451Y010886D01*
X003404Y010904D01*
X003358Y010926D01*
X003314Y010951D01*
X003273Y010980D01*
X003234Y011011D01*
X003197Y011046D01*
X003163Y011083D01*
X003132Y011123D01*
X003104Y011165D01*
X003080Y011209D01*
X003059Y011255D01*
X003042Y011303D01*
X003029Y011351D01*
X003019Y011401D01*
X003013Y011451D01*
X003011Y011501D01*
X001011Y015101D02*
X001013Y015151D01*
X001019Y015201D01*
X001029Y015251D01*
X001042Y015299D01*
X001059Y015347D01*
X001080Y015393D01*
X001104Y015437D01*
X001132Y015479D01*
X001163Y015519D01*
X001197Y015556D01*
X001234Y015591D01*
X001273Y015622D01*
X001314Y015651D01*
X001358Y015676D01*
X001404Y015698D01*
X001451Y015716D01*
X001499Y015730D01*
X001548Y015741D01*
X001598Y015748D01*
X001648Y015751D01*
X001699Y015750D01*
X001749Y015745D01*
X001799Y015736D01*
X001847Y015724D01*
X001895Y015707D01*
X001941Y015687D01*
X001986Y015664D01*
X002029Y015637D01*
X002069Y015607D01*
X002107Y015574D01*
X002142Y015538D01*
X002175Y015499D01*
X002204Y015458D01*
X002230Y015415D01*
X002253Y015370D01*
X002272Y015323D01*
X002287Y015275D01*
X002299Y015226D01*
X002307Y015176D01*
X002311Y015126D01*
X002311Y015076D01*
X002307Y015026D01*
X002299Y014976D01*
X002287Y014927D01*
X002272Y014879D01*
X002253Y014832D01*
X002230Y014787D01*
X002204Y014744D01*
X002175Y014703D01*
X002142Y014664D01*
X002107Y014628D01*
X002069Y014595D01*
X002029Y014565D01*
X001986Y014538D01*
X001941Y014515D01*
X001895Y014495D01*
X001847Y014478D01*
X001799Y014466D01*
X001749Y014457D01*
X001699Y014452D01*
X001648Y014451D01*
X001598Y014454D01*
X001548Y014461D01*
X001499Y014472D01*
X001451Y014486D01*
X001404Y014504D01*
X001358Y014526D01*
X001314Y014551D01*
X001273Y014580D01*
X001234Y014611D01*
X001197Y014646D01*
X001163Y014683D01*
X001132Y014723D01*
X001104Y014765D01*
X001080Y014809D01*
X001059Y014855D01*
X001042Y014903D01*
X001029Y014951D01*
X001019Y015001D01*
X001013Y015051D01*
X001011Y015101D01*
X008511Y015101D02*
X008513Y015151D01*
X008519Y015201D01*
X008529Y015251D01*
X008542Y015299D01*
X008559Y015347D01*
X008580Y015393D01*
X008604Y015437D01*
X008632Y015479D01*
X008663Y015519D01*
X008697Y015556D01*
X008734Y015591D01*
X008773Y015622D01*
X008814Y015651D01*
X008858Y015676D01*
X008904Y015698D01*
X008951Y015716D01*
X008999Y015730D01*
X009048Y015741D01*
X009098Y015748D01*
X009148Y015751D01*
X009199Y015750D01*
X009249Y015745D01*
X009299Y015736D01*
X009347Y015724D01*
X009395Y015707D01*
X009441Y015687D01*
X009486Y015664D01*
X009529Y015637D01*
X009569Y015607D01*
X009607Y015574D01*
X009642Y015538D01*
X009675Y015499D01*
X009704Y015458D01*
X009730Y015415D01*
X009753Y015370D01*
X009772Y015323D01*
X009787Y015275D01*
X009799Y015226D01*
X009807Y015176D01*
X009811Y015126D01*
X009811Y015076D01*
X009807Y015026D01*
X009799Y014976D01*
X009787Y014927D01*
X009772Y014879D01*
X009753Y014832D01*
X009730Y014787D01*
X009704Y014744D01*
X009675Y014703D01*
X009642Y014664D01*
X009607Y014628D01*
X009569Y014595D01*
X009529Y014565D01*
X009486Y014538D01*
X009441Y014515D01*
X009395Y014495D01*
X009347Y014478D01*
X009299Y014466D01*
X009249Y014457D01*
X009199Y014452D01*
X009148Y014451D01*
X009098Y014454D01*
X009048Y014461D01*
X008999Y014472D01*
X008951Y014486D01*
X008904Y014504D01*
X008858Y014526D01*
X008814Y014551D01*
X008773Y014580D01*
X008734Y014611D01*
X008697Y014646D01*
X008663Y014683D01*
X008632Y014723D01*
X008604Y014765D01*
X008580Y014809D01*
X008559Y014855D01*
X008542Y014903D01*
X008529Y014951D01*
X008519Y015001D01*
X008513Y015051D01*
X008511Y015101D01*
X008511Y001601D02*
X008513Y001651D01*
X008519Y001701D01*
X008529Y001751D01*
X008542Y001799D01*
X008559Y001847D01*
X008580Y001893D01*
X008604Y001937D01*
X008632Y001979D01*
X008663Y002019D01*
X008697Y002056D01*
X008734Y002091D01*
X008773Y002122D01*
X008814Y002151D01*
X008858Y002176D01*
X008904Y002198D01*
X008951Y002216D01*
X008999Y002230D01*
X009048Y002241D01*
X009098Y002248D01*
X009148Y002251D01*
X009199Y002250D01*
X009249Y002245D01*
X009299Y002236D01*
X009347Y002224D01*
X009395Y002207D01*
X009441Y002187D01*
X009486Y002164D01*
X009529Y002137D01*
X009569Y002107D01*
X009607Y002074D01*
X009642Y002038D01*
X009675Y001999D01*
X009704Y001958D01*
X009730Y001915D01*
X009753Y001870D01*
X009772Y001823D01*
X009787Y001775D01*
X009799Y001726D01*
X009807Y001676D01*
X009811Y001626D01*
X009811Y001576D01*
X009807Y001526D01*
X009799Y001476D01*
X009787Y001427D01*
X009772Y001379D01*
X009753Y001332D01*
X009730Y001287D01*
X009704Y001244D01*
X009675Y001203D01*
X009642Y001164D01*
X009607Y001128D01*
X009569Y001095D01*
X009529Y001065D01*
X009486Y001038D01*
X009441Y001015D01*
X009395Y000995D01*
X009347Y000978D01*
X009299Y000966D01*
X009249Y000957D01*
X009199Y000952D01*
X009148Y000951D01*
X009098Y000954D01*
X009048Y000961D01*
X008999Y000972D01*
X008951Y000986D01*
X008904Y001004D01*
X008858Y001026D01*
X008814Y001051D01*
X008773Y001080D01*
X008734Y001111D01*
X008697Y001146D01*
X008663Y001183D01*
X008632Y001223D01*
X008604Y001265D01*
X008580Y001309D01*
X008559Y001355D01*
X008542Y001403D01*
X008529Y001451D01*
X008519Y001501D01*
X008513Y001551D01*
X008511Y001601D01*
D11*
X007911Y004077D03*
X007411Y004077D03*
X006911Y004077D03*
X006411Y004077D03*
X006411Y006124D03*
X006911Y006124D03*
X007411Y006124D03*
X007911Y006124D03*
D12*
X008787Y006601D03*
X009535Y006601D03*
X009535Y005101D03*
X008787Y005101D03*
X007835Y002751D03*
X007087Y002751D03*
D13*
X008787Y004101D03*
X009535Y004101D03*
X003535Y003101D03*
X002787Y003101D03*
D14*
X002661Y004271D02*
X002661Y004931D01*
X003661Y004931D02*
X003661Y004271D01*
X004661Y004271D02*
X004661Y004931D01*
D15*
X007661Y009435D03*
X009161Y007766D03*
D16*
X009161Y009337D03*
X007661Y007865D03*
D17*
X006161Y001601D03*
X004161Y001601D03*
X004161Y015101D03*
X006161Y015101D03*
D18*
X001661Y004014D03*
X001661Y003187D03*
D19*
X007661Y011981D03*
D20*
X008661Y011981D03*
X009661Y011981D03*
D21*
X009661Y011101D01*
X009161Y010601D01*
X009161Y009337D01*
X009063Y007865D02*
X009161Y007766D01*
X009535Y007392D01*
X009953Y007392D01*
X010011Y007401D01*
X009535Y007392D02*
X009535Y006601D01*
X008811Y006577D02*
X008811Y006142D01*
X009535Y005418D01*
X009535Y005101D01*
X009535Y004101D02*
X009561Y004075D01*
X009561Y003701D01*
X009211Y003351D01*
X007411Y003351D01*
X007411Y004077D01*
X007411Y004739D01*
X007299Y004851D01*
X005911Y004851D01*
X005661Y005101D01*
X005661Y005394D01*
X004954Y006101D01*
X003161Y006101D01*
X002661Y005601D01*
X002661Y004601D01*
X002787Y003101D02*
X001748Y003101D01*
X001661Y003187D01*
X003535Y003101D02*
X003661Y003101D01*
X004161Y002601D01*
X004161Y001601D01*
X004161Y002601D02*
X005711Y004151D01*
X005711Y004251D01*
X006411Y004077D02*
X006411Y002851D01*
X006511Y002751D01*
X007087Y002751D01*
X006911Y003351D02*
X006911Y004077D01*
X006461Y005301D02*
X006411Y005351D01*
X006411Y006101D01*
X005861Y006101D01*
X006411Y006101D02*
X006411Y006124D01*
X006911Y006124D02*
X006911Y006851D01*
X006161Y007601D01*
X006161Y012101D01*
X007161Y013101D01*
X008161Y013101D01*
X008661Y012601D01*
X008661Y011981D01*
X007661Y011981D02*
X007661Y009435D01*
X007661Y007865D02*
X009063Y007865D01*
X008787Y006601D02*
X008811Y006577D01*
X008787Y006601D02*
X007911Y006601D01*
X007911Y006124D01*
X007911Y006601D02*
X007911Y006951D01*
X007411Y007615D02*
X007411Y006124D01*
X007711Y005301D02*
X007911Y005101D01*
X008787Y005101D01*
X008787Y004101D01*
X007911Y004077D02*
X007911Y005101D01*
X007711Y005301D02*
X006461Y005301D01*
X007411Y007615D02*
X007661Y007865D01*
X007835Y002751D02*
X007835Y002275D01*
X007161Y001601D01*
X006161Y001601D01*
D22*
X006911Y003351D03*
X005711Y004251D03*
X005861Y006101D03*
X004661Y007101D03*
X004661Y007601D03*
X004661Y008101D03*
X004661Y008601D03*
X004661Y009101D03*
X004661Y009601D03*
X003661Y009101D03*
X003661Y008601D03*
X003661Y008101D03*
X003661Y007601D03*
X003661Y007101D03*
X002661Y007101D03*
X002661Y007601D03*
X002661Y008101D03*
X002661Y008601D03*
X002661Y009101D03*
X002661Y009601D03*
X007911Y006951D03*
X010011Y007401D03*
D23*
X006464Y012903D02*
X000621Y012903D01*
X000621Y012785D02*
X006345Y012785D01*
X006227Y012666D02*
X000621Y012666D01*
X000621Y012548D02*
X003280Y012548D01*
X003233Y012535D02*
X002980Y012389D01*
X002773Y012182D01*
X002627Y011929D01*
X002551Y011647D01*
X002551Y011355D01*
X002627Y011072D01*
X002773Y010819D01*
X002980Y010613D01*
X003233Y010466D01*
X003515Y010391D01*
X003807Y010391D01*
X004090Y010466D01*
X004343Y010613D01*
X004549Y010819D01*
X004696Y011072D01*
X004771Y011355D01*
X004771Y011647D01*
X004696Y011929D01*
X004549Y012182D01*
X004343Y012389D01*
X004090Y012535D01*
X003807Y012611D01*
X003515Y012611D01*
X003233Y012535D01*
X003050Y012429D02*
X000621Y012429D01*
X000621Y012311D02*
X002901Y012311D01*
X002783Y012192D02*
X000621Y012192D01*
X000621Y012074D02*
X002710Y012074D01*
X002642Y011955D02*
X000621Y011955D01*
X000621Y011837D02*
X002602Y011837D01*
X002570Y011718D02*
X000621Y011718D01*
X000621Y011599D02*
X002551Y011599D01*
X002551Y011481D02*
X000621Y011481D01*
X000621Y011362D02*
X002551Y011362D01*
X002581Y011244D02*
X000621Y011244D01*
X000621Y011125D02*
X002613Y011125D01*
X002665Y011007D02*
X000621Y011007D01*
X000621Y010888D02*
X002733Y010888D01*
X002823Y010770D02*
X000621Y010770D01*
X000621Y010651D02*
X002941Y010651D01*
X003118Y010533D02*
X000621Y010533D01*
X000621Y010414D02*
X003428Y010414D01*
X003894Y010414D02*
X005661Y010414D01*
X005661Y010296D02*
X000621Y010296D01*
X000621Y010177D02*
X005661Y010177D01*
X005661Y010058D02*
X000621Y010058D01*
X000621Y009940D02*
X005661Y009940D01*
X005661Y009821D02*
X000621Y009821D01*
X000621Y009703D02*
X005661Y009703D01*
X005661Y009584D02*
X000621Y009584D01*
X000621Y009466D02*
X005661Y009466D01*
X005661Y009347D02*
X000621Y009347D01*
X000621Y009229D02*
X005661Y009229D01*
X005661Y009110D02*
X000621Y009110D01*
X000621Y008992D02*
X005661Y008992D01*
X005661Y008873D02*
X000621Y008873D01*
X000621Y008754D02*
X005661Y008754D01*
X005661Y008636D02*
X000621Y008636D01*
X000621Y008517D02*
X005661Y008517D01*
X005661Y008399D02*
X000621Y008399D01*
X000621Y008280D02*
X005661Y008280D01*
X005661Y008162D02*
X000621Y008162D01*
X000621Y008043D02*
X005661Y008043D01*
X005661Y007925D02*
X000621Y007925D01*
X000621Y007806D02*
X005661Y007806D01*
X005661Y007688D02*
X000621Y007688D01*
X000621Y007569D02*
X005661Y007569D01*
X005661Y007450D02*
X000621Y007450D01*
X000621Y007332D02*
X005661Y007332D01*
X005661Y007213D02*
X000621Y007213D01*
X000621Y007095D02*
X005661Y007095D01*
X005661Y006976D02*
X000621Y006976D01*
X000621Y006858D02*
X005661Y006858D01*
X005661Y006739D02*
X000621Y006739D01*
X000621Y006621D02*
X005661Y006621D01*
X005661Y006502D02*
X000621Y006502D01*
X000621Y006384D02*
X005661Y006384D01*
X005661Y006353D02*
X005590Y006282D01*
X005541Y006164D01*
X005541Y006037D01*
X005590Y005919D01*
X005661Y005848D01*
X005661Y005761D01*
X005101Y006321D01*
X005006Y006361D01*
X004902Y006361D01*
X003213Y006361D01*
X003110Y006361D01*
X003014Y006321D01*
X002441Y005748D01*
X002401Y005652D01*
X002401Y005549D01*
X002401Y005332D01*
X002395Y005329D01*
X002263Y005197D01*
X002191Y005024D01*
X002191Y004177D01*
X002263Y004005D01*
X002395Y003872D01*
X002568Y003801D01*
X002755Y003801D01*
X002927Y003872D01*
X003060Y004005D01*
X003131Y004177D01*
X003131Y005024D01*
X003060Y005197D01*
X002927Y005329D01*
X002921Y005332D01*
X002921Y005493D01*
X003269Y005841D01*
X004846Y005841D01*
X005401Y005286D01*
X005401Y005152D01*
X005401Y005049D01*
X005441Y004954D01*
X005477Y004917D01*
X005131Y004571D01*
X005131Y005024D01*
X005060Y005197D01*
X004927Y005329D01*
X004755Y005401D01*
X004568Y005401D01*
X004395Y005329D01*
X004263Y005197D01*
X004191Y005024D01*
X004191Y004177D01*
X004263Y004005D01*
X004395Y003872D01*
X004422Y003861D01*
X004161Y003601D01*
X000661Y003601D01*
X000621Y004642D01*
X000621Y014694D01*
X000627Y014672D01*
X000773Y014419D01*
X000980Y014213D01*
X001233Y014066D01*
X001515Y013991D01*
X001807Y013991D01*
X002090Y014066D01*
X002343Y014213D01*
X002549Y014419D01*
X002696Y014672D01*
X002771Y014955D01*
X002771Y015247D01*
X002696Y015529D01*
X002549Y015782D01*
X002343Y015989D01*
X002090Y016135D01*
X002080Y016138D01*
X008751Y016140D01*
X008733Y016135D01*
X008480Y015989D01*
X008273Y015782D01*
X008127Y015529D01*
X008051Y015247D01*
X008051Y014955D01*
X008127Y014672D01*
X008273Y014419D01*
X008480Y014213D01*
X008733Y014066D01*
X009015Y013991D01*
X009307Y013991D01*
X009590Y014066D01*
X009843Y014213D01*
X010049Y014419D01*
X010196Y014672D01*
X010201Y014694D01*
X010201Y013601D01*
X007161Y013601D01*
X005661Y012101D01*
X005661Y006353D01*
X005583Y006265D02*
X005158Y006265D01*
X005276Y006146D02*
X005541Y006146D01*
X005545Y006028D02*
X005395Y006028D01*
X005513Y005909D02*
X005600Y005909D01*
X005632Y005791D02*
X005661Y005791D01*
X005371Y005317D02*
X004940Y005317D01*
X005059Y005198D02*
X005401Y005198D01*
X005401Y005080D02*
X005108Y005080D01*
X005131Y004961D02*
X005438Y004961D01*
X005403Y004843D02*
X005131Y004843D01*
X005131Y004724D02*
X005284Y004724D01*
X005166Y004605D02*
X005131Y004605D01*
X005252Y005435D02*
X002921Y005435D01*
X002940Y005317D02*
X003359Y005317D01*
X003342Y005305D02*
X003404Y005350D01*
X003473Y005385D01*
X003546Y005409D01*
X003611Y005419D01*
X003611Y004651D01*
X003611Y004551D01*
X003171Y004551D01*
X003171Y004232D01*
X003183Y004156D01*
X003207Y004083D01*
X003242Y004014D01*
X003287Y003952D01*
X003342Y003897D01*
X003404Y003852D01*
X003473Y003817D01*
X003546Y003793D01*
X003611Y003783D01*
X003611Y004551D01*
X003711Y004551D01*
X003711Y003783D01*
X003776Y003793D01*
X003849Y003817D01*
X003918Y003852D01*
X003980Y003897D01*
X004035Y003952D01*
X004080Y004014D01*
X004115Y004083D01*
X004139Y004156D01*
X004151Y004232D01*
X004151Y004551D01*
X003711Y004551D01*
X003711Y004651D01*
X003611Y004651D01*
X003171Y004651D01*
X003171Y004969D01*
X003183Y005046D01*
X003207Y005119D01*
X003242Y005188D01*
X003287Y005250D01*
X003342Y005305D01*
X003250Y005198D02*
X003059Y005198D01*
X003108Y005080D02*
X003194Y005080D01*
X003171Y004961D02*
X003131Y004961D01*
X003131Y004843D02*
X003171Y004843D01*
X003171Y004724D02*
X003131Y004724D01*
X003131Y004605D02*
X003611Y004605D01*
X003711Y004605D02*
X004191Y004605D01*
X004151Y004651D02*
X004151Y004969D01*
X004139Y005046D01*
X004115Y005119D01*
X004080Y005188D01*
X004035Y005250D01*
X003980Y005305D01*
X003918Y005350D01*
X003849Y005385D01*
X003776Y005409D01*
X003711Y005419D01*
X003711Y004651D01*
X004151Y004651D01*
X004151Y004724D02*
X004191Y004724D01*
X004191Y004843D02*
X004151Y004843D01*
X004151Y004961D02*
X004191Y004961D01*
X004214Y005080D02*
X004128Y005080D01*
X004073Y005198D02*
X004264Y005198D01*
X004382Y005317D02*
X003964Y005317D01*
X003711Y005317D02*
X003611Y005317D01*
X003611Y005198D02*
X003711Y005198D01*
X003711Y005080D02*
X003611Y005080D01*
X003611Y004961D02*
X003711Y004961D01*
X003711Y004843D02*
X003611Y004843D01*
X003611Y004724D02*
X003711Y004724D01*
X003711Y004487D02*
X003611Y004487D01*
X003611Y004368D02*
X003711Y004368D01*
X003711Y004250D02*
X003611Y004250D01*
X003611Y004131D02*
X003711Y004131D01*
X003711Y004013D02*
X003611Y004013D01*
X003611Y003894D02*
X003711Y003894D01*
X003976Y003894D02*
X004373Y003894D01*
X004336Y003776D02*
X002057Y003776D01*
X002057Y003757D02*
X002057Y003956D01*
X001720Y003956D01*
X001720Y004072D01*
X002057Y004072D01*
X002057Y004271D01*
X002047Y004312D01*
X002025Y004349D01*
X001996Y004378D01*
X001959Y004399D01*
X001919Y004410D01*
X001719Y004410D01*
X001719Y004073D01*
X001603Y004073D01*
X001603Y004410D01*
X001404Y004410D01*
X001363Y004399D01*
X001327Y004378D01*
X001297Y004349D01*
X001276Y004312D01*
X001265Y004271D01*
X001265Y004072D01*
X001603Y004072D01*
X001603Y003956D01*
X001265Y003956D01*
X001265Y003757D01*
X001276Y003716D01*
X001297Y003680D01*
X001327Y003650D01*
X001363Y003629D01*
X001404Y003618D01*
X001603Y003618D01*
X001603Y003956D01*
X001719Y003956D01*
X001719Y003618D01*
X001919Y003618D01*
X001959Y003629D01*
X001996Y003650D01*
X002025Y003680D01*
X002047Y003716D01*
X002057Y003757D01*
X002003Y003657D02*
X004218Y003657D01*
X004259Y004013D02*
X004079Y004013D01*
X004131Y004131D02*
X004210Y004131D01*
X004191Y004250D02*
X004151Y004250D01*
X004151Y004368D02*
X004191Y004368D01*
X004191Y004487D02*
X004151Y004487D01*
X003346Y003894D02*
X002949Y003894D01*
X003063Y004013D02*
X003243Y004013D01*
X003191Y004131D02*
X003112Y004131D01*
X003131Y004250D02*
X003171Y004250D01*
X003171Y004368D02*
X003131Y004368D01*
X003131Y004487D02*
X003171Y004487D01*
X002982Y005554D02*
X005133Y005554D01*
X005015Y005672D02*
X003100Y005672D01*
X003219Y005791D02*
X004896Y005791D01*
X002958Y006265D02*
X000621Y006265D01*
X000621Y006146D02*
X002839Y006146D01*
X002721Y006028D02*
X000621Y006028D01*
X000621Y005909D02*
X002602Y005909D01*
X002484Y005791D02*
X000621Y005791D01*
X000621Y005672D02*
X002409Y005672D01*
X002401Y005554D02*
X000621Y005554D01*
X000621Y005435D02*
X002401Y005435D01*
X002382Y005317D02*
X000621Y005317D01*
X000621Y005198D02*
X002264Y005198D01*
X002214Y005080D02*
X000621Y005080D01*
X000621Y004961D02*
X002191Y004961D01*
X002191Y004843D02*
X000621Y004843D01*
X000621Y004724D02*
X002191Y004724D01*
X002191Y004605D02*
X000623Y004605D01*
X000627Y004487D02*
X002191Y004487D01*
X002191Y004368D02*
X002006Y004368D01*
X002057Y004250D02*
X002191Y004250D01*
X002210Y004131D02*
X002057Y004131D01*
X002259Y004013D02*
X001720Y004013D01*
X001603Y004013D02*
X000645Y004013D01*
X000641Y004131D02*
X001265Y004131D01*
X001265Y004250D02*
X000636Y004250D01*
X000632Y004368D02*
X001317Y004368D01*
X001603Y004368D02*
X001719Y004368D01*
X001719Y004250D02*
X001603Y004250D01*
X001603Y004131D02*
X001719Y004131D01*
X001719Y003894D02*
X001603Y003894D01*
X001603Y003776D02*
X001719Y003776D01*
X001719Y003657D02*
X001603Y003657D01*
X001320Y003657D02*
X000659Y003657D01*
X000655Y003776D02*
X001265Y003776D01*
X001265Y003894D02*
X000650Y003894D01*
X002057Y003894D02*
X002373Y003894D01*
X004204Y010533D02*
X005661Y010533D01*
X005661Y010651D02*
X004381Y010651D01*
X004500Y010770D02*
X005661Y010770D01*
X005661Y010888D02*
X004589Y010888D01*
X004658Y011007D02*
X005661Y011007D01*
X005661Y011125D02*
X004710Y011125D01*
X004742Y011244D02*
X005661Y011244D01*
X005661Y011362D02*
X004771Y011362D01*
X004771Y011481D02*
X005661Y011481D01*
X005661Y011599D02*
X004771Y011599D01*
X004752Y011718D02*
X005661Y011718D01*
X005661Y011837D02*
X004720Y011837D01*
X004681Y011955D02*
X005661Y011955D01*
X005661Y012074D02*
X004612Y012074D01*
X004540Y012192D02*
X005753Y012192D01*
X005871Y012311D02*
X004421Y012311D01*
X004273Y012429D02*
X005990Y012429D01*
X006108Y012548D02*
X004042Y012548D01*
X003764Y014141D02*
X004559Y014141D01*
X005121Y014703D01*
X005121Y015498D01*
X004559Y016061D01*
X003764Y016061D01*
X003201Y015498D01*
X003201Y014703D01*
X003764Y014141D01*
X003697Y014207D02*
X002334Y014207D01*
X002456Y014326D02*
X003578Y014326D01*
X003460Y014445D02*
X002564Y014445D01*
X002632Y014563D02*
X003341Y014563D01*
X003223Y014682D02*
X002698Y014682D01*
X002730Y014800D02*
X003201Y014800D01*
X003201Y014919D02*
X002762Y014919D01*
X002771Y015037D02*
X003201Y015037D01*
X003201Y015156D02*
X002771Y015156D01*
X002764Y015274D02*
X003201Y015274D01*
X003201Y015393D02*
X002732Y015393D01*
X002700Y015511D02*
X003214Y015511D01*
X003333Y015630D02*
X002637Y015630D01*
X002569Y015749D02*
X003451Y015749D01*
X003570Y015867D02*
X002465Y015867D01*
X002346Y015986D02*
X003688Y015986D01*
X004634Y015986D02*
X005660Y015986D01*
X005755Y016081D02*
X005181Y015507D01*
X005181Y015161D01*
X006101Y015161D01*
X006101Y015041D01*
X005181Y015041D01*
X005181Y014695D01*
X005755Y014121D01*
X006101Y014121D01*
X006101Y015041D01*
X006221Y015041D01*
X006221Y014121D01*
X006567Y014121D01*
X007141Y014695D01*
X007141Y015041D01*
X006221Y015041D01*
X006221Y015161D01*
X006101Y015161D01*
X006101Y016081D01*
X005755Y016081D01*
X005542Y015867D02*
X004753Y015867D01*
X004871Y015749D02*
X005423Y015749D01*
X005305Y015630D02*
X004990Y015630D01*
X005108Y015511D02*
X005186Y015511D01*
X005181Y015393D02*
X005121Y015393D01*
X005121Y015274D02*
X005181Y015274D01*
X005121Y015156D02*
X006101Y015156D01*
X006101Y015274D02*
X006221Y015274D01*
X006221Y015161D02*
X006221Y016081D01*
X006567Y016081D01*
X007141Y015507D01*
X007141Y015161D01*
X006221Y015161D01*
X006221Y015156D02*
X008051Y015156D01*
X008059Y015274D02*
X007141Y015274D01*
X007141Y015393D02*
X008090Y015393D01*
X008122Y015511D02*
X007136Y015511D01*
X007018Y015630D02*
X008185Y015630D01*
X008254Y015749D02*
X006899Y015749D01*
X006781Y015867D02*
X008358Y015867D01*
X008476Y015986D02*
X006662Y015986D01*
X006221Y015986D02*
X006101Y015986D01*
X006101Y015867D02*
X006221Y015867D01*
X006221Y015749D02*
X006101Y015749D01*
X006101Y015630D02*
X006221Y015630D01*
X006221Y015511D02*
X006101Y015511D01*
X006101Y015393D02*
X006221Y015393D01*
X006221Y015037D02*
X006101Y015037D01*
X006101Y014919D02*
X006221Y014919D01*
X006221Y014800D02*
X006101Y014800D01*
X006101Y014682D02*
X006221Y014682D01*
X006221Y014563D02*
X006101Y014563D01*
X006101Y014445D02*
X006221Y014445D01*
X006221Y014326D02*
X006101Y014326D01*
X006101Y014207D02*
X006221Y014207D01*
X006654Y014207D02*
X008489Y014207D01*
X008366Y014326D02*
X006772Y014326D01*
X006891Y014445D02*
X008258Y014445D01*
X008190Y014563D02*
X007009Y014563D01*
X007128Y014682D02*
X008124Y014682D01*
X008093Y014800D02*
X007141Y014800D01*
X007141Y014919D02*
X008061Y014919D01*
X008051Y015037D02*
X007141Y015037D01*
X007057Y013496D02*
X000621Y013496D01*
X000621Y013378D02*
X006938Y013378D01*
X006820Y013259D02*
X000621Y013259D01*
X000621Y013141D02*
X006701Y013141D01*
X006582Y013022D02*
X000621Y013022D01*
X000621Y013615D02*
X010201Y013615D01*
X010201Y013733D02*
X000621Y013733D01*
X000621Y013852D02*
X010201Y013852D01*
X010201Y013970D02*
X000621Y013970D01*
X000621Y014089D02*
X001194Y014089D01*
X000989Y014207D02*
X000621Y014207D01*
X000621Y014326D02*
X000866Y014326D01*
X000758Y014445D02*
X000621Y014445D01*
X000621Y014563D02*
X000690Y014563D01*
X000624Y014682D02*
X000621Y014682D01*
X002129Y014089D02*
X008694Y014089D01*
X009629Y014089D02*
X010201Y014089D01*
X010201Y014207D02*
X009834Y014207D01*
X009956Y014326D02*
X010201Y014326D01*
X010201Y014445D02*
X010064Y014445D01*
X010132Y014563D02*
X010201Y014563D01*
X010198Y014682D02*
X010201Y014682D01*
X008679Y016104D02*
X002143Y016104D01*
X004626Y014207D02*
X005669Y014207D01*
X005550Y014326D02*
X004744Y014326D01*
X004863Y014445D02*
X005432Y014445D01*
X005313Y014563D02*
X004981Y014563D01*
X005100Y014682D02*
X005194Y014682D01*
X005181Y014800D02*
X005121Y014800D01*
X005121Y014919D02*
X005181Y014919D01*
X005181Y015037D02*
X005121Y015037D01*
M02*
