%
M48
M72
T01C0.0200
T02C0.0400
T03C0.0440
T04C0.0630
T05C0.1300
%
T01
X2661Y7101
X2661Y7601
X2661Y8101
X2661Y8601
X2661Y9101
X2661Y9601
X3661Y9101
X3661Y8601
X3661Y8101
X3661Y7601
X3661Y7101
X4661Y7101
X4661Y7601
X4661Y8101
X4661Y8601
X4661Y9101
X4661Y9601
X5861Y6101
X5711Y4251
X6911Y3351
X7911Y6951
X10011Y7401
T02
X9661Y11981
X8661Y11981
X7661Y11981
T03
X4661Y4601
X3661Y4601
X2661Y4601
T04
X4161Y1601
X6161Y1601
X6161Y15101
X4161Y15101
T05
X1661Y1601
X3661Y11501
X1661Y15101
X9161Y15101
X9161Y1601
M30
