G75*
G70*
%OFA0B0*%
%FSLAX24Y24*%
%IPPOS*%
%LPD*%
%AMOC8*
5,1,8,0,0,1.08239X$1,22.5*
%
%ADD10C,0.0740*%
%ADD11C,0.1380*%
%ADD12OC8,0.1720*%
%ADD13R,0.0820X0.0820*%
%ADD14C,0.0820*%
%ADD15C,0.0440*%
D10*
X002661Y004271D02*
X002661Y004931D01*
X003661Y004931D02*
X003661Y004271D01*
X004661Y004271D02*
X004661Y004931D01*
D11*
X001661Y001601D03*
X003661Y011501D03*
X001661Y015101D03*
X009161Y015101D03*
X009161Y001601D03*
D12*
X006161Y001601D03*
X004161Y001601D03*
X004161Y015101D03*
X006161Y015101D03*
D13*
X007661Y011981D03*
D14*
X008661Y011981D03*
X009661Y011981D03*
D15*
X010011Y007401D03*
X007911Y006951D03*
X005861Y006101D03*
X004661Y007101D03*
X004661Y007601D03*
X004661Y008101D03*
X004661Y008601D03*
X004661Y009101D03*
X004661Y009601D03*
X003661Y009101D03*
X003661Y008601D03*
X003661Y008101D03*
X003661Y007601D03*
X003661Y007101D03*
X002661Y007101D03*
X002661Y007601D03*
X002661Y008101D03*
X002661Y008601D03*
X002661Y009101D03*
X002661Y009601D03*
X005711Y004251D03*
X006911Y003351D03*
M02*
