G75*
G70*
%OFA0B0*%
%FSLAX24Y24*%
%IPPOS*%
%LPD*%
%AMOC8*
5,1,8,0,0,1.08239X$1,22.5*
%
%ADD10C,0.0110*%
%ADD11C,0.0080*%
%ADD12C,0.0050*%
%ADD13C,0.0020*%
%ADD14R,0.0300X0.0250*%
%ADD15R,0.0500X0.1100*%
%ADD16C,0.0100*%
%ADD17R,0.0827X0.0059*%
%ADD18R,0.0079X0.0079*%
D10*
X002716Y000951D02*
X003110Y000951D01*
X002913Y001148D02*
X002913Y000754D01*
X004366Y002906D02*
X004366Y003496D01*
X004661Y003496D01*
X004760Y003398D01*
X004760Y003201D01*
X004661Y003103D01*
X004366Y003103D01*
X005011Y002906D02*
X005208Y003103D01*
X005404Y002906D01*
X005404Y003496D01*
X005655Y003496D02*
X005655Y002906D01*
X005655Y003103D02*
X005951Y003103D01*
X006049Y003201D01*
X006049Y003398D01*
X005951Y003496D01*
X005655Y003496D01*
X005852Y003103D02*
X006049Y002906D01*
X005011Y002906D02*
X005011Y003496D01*
X007216Y000951D02*
X007610Y000951D01*
X005988Y013356D02*
X005791Y013553D01*
X005890Y013553D02*
X005594Y013553D01*
X005594Y013356D02*
X005594Y013946D01*
X005890Y013946D01*
X005988Y013848D01*
X005988Y013651D01*
X005890Y013553D01*
X005344Y013454D02*
X005344Y013848D01*
X005245Y013946D01*
X005048Y013946D01*
X004950Y013848D01*
X004950Y013454D01*
X005048Y013356D01*
X005245Y013356D01*
X005344Y013454D01*
X004699Y013946D02*
X004305Y013946D01*
X004502Y013946D02*
X004502Y013356D01*
X004054Y013454D02*
X004054Y013848D01*
X003956Y013946D01*
X003759Y013946D01*
X003661Y013848D01*
X003661Y013454D01*
X003759Y013356D01*
X003956Y013356D01*
X004054Y013454D01*
X003410Y013356D02*
X003410Y013946D01*
X003213Y013749D01*
X003016Y013946D01*
X003016Y013356D01*
X002913Y015754D02*
X002913Y016148D01*
X002716Y015951D02*
X003110Y015951D01*
X007216Y015951D02*
X007610Y015951D01*
D11*
X001041Y002641D02*
X000641Y002641D01*
X000641Y002961D02*
X001041Y002961D01*
X001121Y002881D01*
X001121Y002721D01*
X001041Y002641D01*
X001121Y003156D02*
X000801Y003156D01*
X000801Y003397D01*
X000881Y003477D01*
X001121Y003477D01*
X001121Y003672D02*
X001121Y003832D01*
X001121Y003752D02*
X000801Y003752D01*
X000801Y003672D01*
X000641Y003752D02*
X000561Y003752D01*
X000881Y004016D02*
X000801Y004096D01*
X000801Y004336D01*
X000881Y004531D02*
X000801Y004611D01*
X000801Y004772D01*
X000881Y004852D01*
X001041Y004852D01*
X001121Y004772D01*
X001121Y004611D01*
X001041Y004531D01*
X000881Y004531D01*
X001121Y004336D02*
X001121Y004096D01*
X001041Y004016D01*
X000881Y004016D01*
X000801Y005047D02*
X001121Y005047D01*
X000961Y005047D02*
X000801Y005207D01*
X000801Y005287D01*
X000801Y005477D02*
X000801Y005717D01*
X000881Y005797D01*
X001121Y005797D01*
X001121Y005477D02*
X000801Y005477D01*
X000881Y006508D02*
X000881Y006828D01*
X000881Y007539D02*
X000881Y007699D01*
X001121Y007539D02*
X000641Y007539D01*
X000641Y007859D01*
X000801Y008055D02*
X001041Y008055D01*
X001121Y008135D01*
X001121Y008375D01*
X000801Y008375D01*
X000881Y008571D02*
X000801Y008651D01*
X000801Y008811D01*
X000881Y008891D01*
X000961Y008891D01*
X000961Y008571D01*
X001041Y008571D02*
X000881Y008571D01*
X001041Y008571D02*
X001121Y008651D01*
X001121Y008811D01*
X001121Y009086D02*
X001121Y009246D01*
X001121Y009166D02*
X000641Y009166D01*
X000641Y009086D01*
X000641Y009946D02*
X000641Y010186D01*
X000721Y010266D01*
X000881Y010266D01*
X000961Y010186D01*
X000961Y009946D01*
X001121Y009946D02*
X000641Y009946D01*
X000801Y010461D02*
X001041Y010461D01*
X001121Y010541D01*
X001121Y010781D01*
X000801Y010781D01*
X000801Y010977D02*
X000801Y011057D01*
X000881Y011137D01*
X000801Y011217D01*
X000881Y011297D01*
X001121Y011297D01*
X001121Y011137D02*
X000881Y011137D01*
X000801Y010977D02*
X001121Y010977D01*
X001121Y011492D02*
X001121Y011733D01*
X001041Y011813D01*
X000881Y011813D01*
X000801Y011733D01*
X000801Y011492D01*
X001281Y011492D01*
X000801Y012524D02*
X001121Y012684D01*
X000801Y012844D01*
X000801Y013039D02*
X000641Y013199D01*
X001121Y013199D01*
X001121Y013039D02*
X001121Y013360D01*
X001121Y013555D02*
X001041Y013555D01*
X001041Y013635D01*
X001121Y013635D01*
X001121Y013555D01*
X001041Y013813D02*
X000721Y014133D01*
X001041Y014133D01*
X001121Y014053D01*
X001121Y013893D01*
X001041Y013813D01*
X000721Y013813D01*
X000641Y013893D01*
X000641Y014053D01*
X000721Y014133D01*
X007161Y013341D02*
X007161Y010701D01*
X010161Y010701D01*
X010161Y013341D01*
X007161Y013341D01*
D12*
X007212Y013686D02*
X007257Y013686D01*
X007302Y013731D01*
X007302Y013956D01*
X007302Y013776D02*
X007167Y013776D01*
X007122Y013821D01*
X007122Y013956D01*
X007016Y013956D02*
X006926Y013956D01*
X006971Y014001D02*
X006971Y013821D01*
X007016Y013776D01*
X006811Y013776D02*
X006811Y013956D01*
X006631Y013956D02*
X006631Y013821D01*
X006676Y013776D01*
X006811Y013776D01*
X006516Y013821D02*
X006516Y014001D01*
X006471Y014046D01*
X006336Y014046D01*
X006336Y013776D01*
X006471Y013776D01*
X006516Y013821D01*
X005711Y012851D02*
X005711Y012101D01*
X005361Y012101D01*
X005361Y011501D01*
X005711Y011501D01*
X005711Y006601D01*
X001611Y006601D01*
X001611Y011501D01*
X001961Y011501D01*
X001961Y012101D01*
X001611Y012101D01*
X001611Y012851D01*
X005711Y012851D01*
X004141Y010453D02*
X004198Y010396D01*
X004198Y010226D01*
X004085Y010226D02*
X004085Y010396D01*
X004028Y010453D01*
X003971Y010453D01*
X003971Y010226D01*
X003839Y010226D02*
X003839Y010396D01*
X003782Y010453D01*
X003725Y010396D01*
X003725Y010226D01*
X003612Y010226D02*
X003612Y010453D01*
X003669Y010453D01*
X003725Y010396D01*
X003480Y010396D02*
X003480Y010282D01*
X003423Y010226D01*
X003310Y010226D01*
X003253Y010282D01*
X003253Y010396D02*
X003366Y010453D01*
X003423Y010453D01*
X003480Y010396D01*
X003480Y010566D02*
X003253Y010566D01*
X003253Y010396D01*
X003127Y010282D02*
X003127Y010226D01*
X003070Y010226D01*
X003070Y010282D01*
X003127Y010282D01*
X003127Y010226D02*
X003014Y010112D01*
X002654Y010282D02*
X002881Y010509D01*
X002881Y010566D01*
X002654Y010566D01*
X002409Y010566D02*
X002409Y010226D01*
X002522Y010226D02*
X002295Y010226D01*
X002163Y010226D02*
X002163Y010453D01*
X002050Y010566D01*
X001936Y010453D01*
X001936Y010226D01*
X001936Y010396D02*
X002163Y010396D01*
X002295Y010453D02*
X002409Y010566D01*
X002654Y010282D02*
X002654Y010226D01*
X002951Y011501D02*
X002953Y011554D01*
X002959Y011607D01*
X002969Y011659D01*
X002983Y011710D01*
X003000Y011760D01*
X003021Y011809D01*
X003046Y011856D01*
X003074Y011901D01*
X003106Y011944D01*
X003141Y011984D01*
X003178Y012021D01*
X003218Y012056D01*
X003261Y012088D01*
X003306Y012116D01*
X003353Y012141D01*
X003402Y012162D01*
X003452Y012179D01*
X003503Y012193D01*
X003555Y012203D01*
X003608Y012209D01*
X003661Y012211D01*
X003714Y012209D01*
X003767Y012203D01*
X003819Y012193D01*
X003870Y012179D01*
X003920Y012162D01*
X003969Y012141D01*
X004016Y012116D01*
X004061Y012088D01*
X004104Y012056D01*
X004144Y012021D01*
X004181Y011984D01*
X004216Y011944D01*
X004248Y011901D01*
X004276Y011856D01*
X004301Y011809D01*
X004322Y011760D01*
X004339Y011710D01*
X004353Y011659D01*
X004363Y011607D01*
X004369Y011554D01*
X004371Y011501D01*
X004369Y011448D01*
X004363Y011395D01*
X004353Y011343D01*
X004339Y011292D01*
X004322Y011242D01*
X004301Y011193D01*
X004276Y011146D01*
X004248Y011101D01*
X004216Y011058D01*
X004181Y011018D01*
X004144Y010981D01*
X004104Y010946D01*
X004061Y010914D01*
X004016Y010886D01*
X003969Y010861D01*
X003920Y010840D01*
X003870Y010823D01*
X003819Y010809D01*
X003767Y010799D01*
X003714Y010793D01*
X003661Y010791D01*
X003608Y010793D01*
X003555Y010799D01*
X003503Y010809D01*
X003452Y010823D01*
X003402Y010840D01*
X003353Y010861D01*
X003306Y010886D01*
X003261Y010914D01*
X003218Y010946D01*
X003178Y010981D01*
X003141Y011018D01*
X003106Y011058D01*
X003074Y011101D01*
X003046Y011146D01*
X003021Y011193D01*
X003000Y011242D01*
X002983Y011292D01*
X002969Y011343D01*
X002959Y011395D01*
X002953Y011448D01*
X002951Y011501D01*
X004085Y010396D02*
X004141Y010453D01*
X001786Y005345D02*
X001516Y005345D01*
X001606Y005255D01*
X001516Y005165D01*
X001786Y005165D01*
X001786Y005051D02*
X001516Y005051D01*
X001516Y004870D02*
X001786Y004870D01*
X001696Y004960D01*
X001786Y005051D01*
X001651Y004756D02*
X001561Y004756D01*
X001516Y004711D01*
X001516Y004576D01*
X001786Y004576D01*
X001696Y004576D02*
X001696Y004711D01*
X001651Y004756D01*
X006786Y005021D02*
X006831Y004976D01*
X006921Y004976D01*
X006966Y005021D01*
X006966Y005111D01*
X006921Y005156D01*
X006876Y005156D01*
X006786Y005111D01*
X006786Y005246D01*
X006966Y005246D01*
X007081Y005246D02*
X007081Y005111D01*
X007171Y005156D01*
X007216Y005156D01*
X007261Y005111D01*
X007261Y005021D01*
X007216Y004976D01*
X007126Y004976D01*
X007081Y005021D01*
X007081Y005246D02*
X007261Y005246D01*
X007376Y005246D02*
X007376Y005111D01*
X007466Y005156D01*
X007511Y005156D01*
X007556Y005111D01*
X007556Y005021D01*
X007511Y004976D01*
X007421Y004976D01*
X007376Y005021D01*
X007376Y005246D02*
X007556Y005246D01*
X008096Y013686D02*
X008141Y013686D01*
X008186Y013731D01*
X008186Y013956D01*
X008301Y013911D02*
X008301Y013821D01*
X008346Y013776D01*
X008481Y013776D01*
X008595Y013776D02*
X008685Y013776D01*
X008640Y013776D02*
X008640Y014046D01*
X008595Y014046D01*
X008481Y013956D02*
X008346Y013956D01*
X008301Y013911D01*
X008186Y013776D02*
X008051Y013776D01*
X008006Y013821D01*
X008006Y013956D01*
X007891Y014001D02*
X007846Y014046D01*
X007756Y014046D01*
X007711Y014001D01*
X007711Y013821D01*
X007756Y013776D01*
X007846Y013776D01*
X007891Y013821D01*
X008792Y013821D02*
X008792Y013911D01*
X008837Y013956D01*
X008927Y013956D01*
X008972Y013911D01*
X008972Y013866D01*
X008792Y013866D01*
X008792Y013821D02*
X008837Y013776D01*
X008927Y013776D01*
D13*
X005461Y010101D02*
X001861Y010101D01*
X001861Y006851D01*
X005461Y006851D01*
X005461Y010101D01*
D14*
X004661Y005376D03*
X003661Y005376D03*
X002661Y005376D03*
D15*
X002661Y006051D03*
X003661Y006051D03*
X004661Y006051D03*
D16*
X007142Y007719D02*
X007142Y009483D01*
X008181Y009483D01*
X008181Y007719D01*
X007142Y007719D01*
X008642Y007719D02*
X009681Y007719D01*
X009681Y009483D01*
X008642Y009483D01*
X008642Y007719D01*
D17*
X009161Y008079D03*
X007661Y009122D03*
D18*
X001661Y003640D03*
M02*
