G75*
G70*
%OFA0B0*%
%FSLAX24Y24*%
%IPPOS*%
%LPD*%
%AMOC8*
5,1,8,0,0,1.08239X$1,22.5*
%
%ADD10C,0.0660*%
%ADD11OC8,0.1640*%
%ADD12R,0.0740X0.0740*%
%ADD13C,0.0740*%
%ADD14C,0.0360*%
%ADD15C,0.0240*%
%ADD16C,0.0700*%
%ADD17C,0.0120*%
D10*
X002661Y004271D02*
X002661Y004931D01*
X003661Y004931D02*
X003661Y004271D01*
X004661Y004271D02*
X004661Y004931D01*
D11*
X004161Y001601D03*
X006161Y001601D03*
X006161Y015101D03*
X004161Y015101D03*
D12*
X007661Y011981D03*
D13*
X008661Y011981D03*
X009661Y011981D03*
D14*
X010011Y007401D03*
X007911Y006951D03*
X005861Y006101D03*
X004661Y007101D03*
X004661Y007601D03*
X004661Y008101D03*
X004661Y008601D03*
X004661Y009101D03*
X004661Y009601D03*
X003661Y009101D03*
X003661Y008601D03*
X003661Y008101D03*
X003661Y007601D03*
X003661Y007101D03*
X002661Y007101D03*
X002661Y007601D03*
X002661Y008101D03*
X002661Y008601D03*
X002661Y009101D03*
X002661Y009601D03*
X005711Y004251D03*
X006911Y003351D03*
D15*
X007261Y003351D01*
X010011Y006101D01*
X010011Y007401D01*
X007911Y006951D02*
X007761Y007101D01*
X005779Y007101D01*
X004661Y005983D01*
X004661Y004601D01*
X005711Y004251D02*
X005861Y004401D01*
X005861Y006101D01*
D16*
X004661Y004601D02*
X004661Y004101D01*
X006161Y002601D01*
X006161Y001601D01*
X004161Y001601D02*
X004161Y002601D01*
X003661Y003101D01*
X002411Y003101D01*
X001561Y003951D01*
X001561Y012501D01*
X004161Y015101D01*
D17*
X000621Y014694D02*
X000621Y002601D01*
X001173Y002601D01*
X001233Y002635D01*
X001515Y002711D01*
X001807Y002711D01*
X002090Y002635D01*
X002149Y002601D01*
X003468Y002601D01*
X003458Y002611D01*
X002314Y002611D01*
X002134Y002685D01*
X001996Y002823D01*
X001996Y002823D01*
X001284Y003535D01*
X001146Y003673D01*
X001071Y003853D01*
X001071Y012403D01*
X001071Y012598D01*
X001146Y012778D01*
X003201Y014834D01*
X003201Y015498D01*
X003764Y016061D01*
X004559Y016061D01*
X005121Y015498D01*
X005121Y014703D01*
X004559Y014141D01*
X003894Y014141D01*
X002638Y012884D01*
X003001Y013094D01*
X003436Y013211D01*
X003886Y013211D01*
X004321Y013094D01*
X004711Y012869D01*
X005030Y012551D01*
X005255Y012161D01*
X005371Y011726D01*
X005371Y011276D01*
X005255Y010841D01*
X005030Y010451D01*
X004711Y010132D01*
X004321Y009907D01*
X003886Y009791D01*
X003436Y009791D01*
X003001Y009907D01*
X002611Y010132D01*
X002293Y010451D01*
X002068Y010841D01*
X002051Y010903D01*
X002051Y004154D01*
X002614Y003591D01*
X003564Y003591D01*
X003759Y003591D01*
X003939Y003516D01*
X004439Y003016D01*
X004577Y002878D01*
X004651Y002698D01*
X004651Y002601D01*
X005161Y002601D01*
X005315Y002754D01*
X004246Y003823D01*
X004171Y004003D01*
X004171Y004198D01*
X004171Y004698D01*
X004191Y004746D01*
X004191Y005024D01*
X004263Y005197D01*
X004395Y005329D01*
X004401Y005332D01*
X004401Y005931D01*
X004401Y006034D01*
X004441Y006130D01*
X005559Y007248D01*
X005632Y007321D01*
X005661Y007333D01*
X005661Y012101D01*
X007161Y013601D01*
X010201Y013601D01*
X010201Y014694D01*
X010196Y014672D01*
X010049Y014419D01*
X009843Y014213D01*
X009590Y014066D01*
X009307Y013991D01*
X009015Y013991D01*
X008733Y014066D01*
X008480Y014213D01*
X008273Y014419D01*
X008127Y014672D01*
X008051Y014955D01*
X008051Y015247D01*
X008127Y015529D01*
X008273Y015782D01*
X008480Y015989D01*
X008733Y016135D01*
X008751Y016140D01*
X002080Y016138D01*
X002090Y016135D01*
X002343Y015989D01*
X002549Y015782D01*
X002696Y015529D01*
X002771Y015247D01*
X002771Y014955D01*
X002696Y014672D01*
X002549Y014419D01*
X002343Y014213D01*
X002090Y014066D01*
X001807Y013991D01*
X001515Y013991D01*
X001233Y014066D01*
X000980Y014213D01*
X000773Y014419D01*
X000627Y014672D01*
X000621Y014694D01*
X000621Y014682D02*
X000624Y014682D01*
X000621Y014563D02*
X000690Y014563D01*
X000621Y014445D02*
X000758Y014445D01*
X000866Y014326D02*
X000621Y014326D01*
X000621Y014207D02*
X000989Y014207D01*
X001194Y014089D02*
X000621Y014089D01*
X000621Y013970D02*
X002338Y013970D01*
X002219Y013852D02*
X000621Y013852D01*
X000621Y013733D02*
X002101Y013733D01*
X001982Y013615D02*
X000621Y013615D01*
X000621Y013496D02*
X001864Y013496D01*
X001745Y013378D02*
X000621Y013378D01*
X000621Y013259D02*
X001627Y013259D01*
X001508Y013141D02*
X000621Y013141D01*
X000621Y013022D02*
X001390Y013022D01*
X001271Y012903D02*
X000621Y012903D01*
X000621Y012785D02*
X001152Y012785D01*
X001099Y012666D02*
X000621Y012666D01*
X000621Y012548D02*
X001071Y012548D01*
X001071Y012429D02*
X000621Y012429D01*
X000621Y012311D02*
X001071Y012311D01*
X001071Y012192D02*
X000621Y012192D01*
X000621Y012074D02*
X001071Y012074D01*
X001071Y011955D02*
X000621Y011955D01*
X000621Y011837D02*
X001071Y011837D01*
X001071Y011718D02*
X000621Y011718D01*
X000621Y011599D02*
X001071Y011599D01*
X001071Y011481D02*
X000621Y011481D01*
X000621Y011362D02*
X001071Y011362D01*
X001071Y011244D02*
X000621Y011244D01*
X000621Y011125D02*
X001071Y011125D01*
X001071Y011007D02*
X000621Y011007D01*
X000621Y010888D02*
X001071Y010888D01*
X001071Y010770D02*
X000621Y010770D01*
X000621Y010651D02*
X001071Y010651D01*
X001071Y010533D02*
X000621Y010533D01*
X000621Y010414D02*
X001071Y010414D01*
X001071Y010296D02*
X000621Y010296D01*
X000621Y010177D02*
X001071Y010177D01*
X001071Y010058D02*
X000621Y010058D01*
X000621Y009940D02*
X001071Y009940D01*
X001071Y009821D02*
X000621Y009821D01*
X000621Y009703D02*
X001071Y009703D01*
X001071Y009584D02*
X000621Y009584D01*
X000621Y009466D02*
X001071Y009466D01*
X001071Y009347D02*
X000621Y009347D01*
X000621Y009229D02*
X001071Y009229D01*
X001071Y009110D02*
X000621Y009110D01*
X000621Y008992D02*
X001071Y008992D01*
X001071Y008873D02*
X000621Y008873D01*
X000621Y008754D02*
X001071Y008754D01*
X001071Y008636D02*
X000621Y008636D01*
X000621Y008517D02*
X001071Y008517D01*
X001071Y008399D02*
X000621Y008399D01*
X000621Y008280D02*
X001071Y008280D01*
X001071Y008162D02*
X000621Y008162D01*
X000621Y008043D02*
X001071Y008043D01*
X001071Y007925D02*
X000621Y007925D01*
X000621Y007806D02*
X001071Y007806D01*
X001071Y007688D02*
X000621Y007688D01*
X000621Y007569D02*
X001071Y007569D01*
X001071Y007450D02*
X000621Y007450D01*
X000621Y007332D02*
X001071Y007332D01*
X001071Y007213D02*
X000621Y007213D01*
X000621Y007095D02*
X001071Y007095D01*
X001071Y006976D02*
X000621Y006976D01*
X000621Y006858D02*
X001071Y006858D01*
X001071Y006739D02*
X000621Y006739D01*
X000621Y006621D02*
X001071Y006621D01*
X001071Y006502D02*
X000621Y006502D01*
X000621Y006384D02*
X001071Y006384D01*
X001071Y006265D02*
X000621Y006265D01*
X000621Y006146D02*
X001071Y006146D01*
X001071Y006028D02*
X000621Y006028D01*
X000621Y005909D02*
X001071Y005909D01*
X001071Y005791D02*
X000621Y005791D01*
X000621Y005672D02*
X001071Y005672D01*
X001071Y005554D02*
X000621Y005554D01*
X000621Y005435D02*
X001071Y005435D01*
X001071Y005317D02*
X000621Y005317D01*
X000621Y005198D02*
X001071Y005198D01*
X001071Y005080D02*
X000621Y005080D01*
X000621Y004961D02*
X001071Y004961D01*
X001071Y004843D02*
X000621Y004843D01*
X000621Y004724D02*
X001071Y004724D01*
X001071Y004605D02*
X000621Y004605D01*
X000621Y004487D02*
X001071Y004487D01*
X001071Y004368D02*
X000621Y004368D01*
X000621Y004250D02*
X001071Y004250D01*
X001071Y004131D02*
X000621Y004131D01*
X000621Y004013D02*
X001071Y004013D01*
X001071Y003894D02*
X000621Y003894D01*
X000621Y003776D02*
X001103Y003776D01*
X001162Y003657D02*
X000621Y003657D01*
X000621Y003539D02*
X001281Y003539D01*
X001399Y003420D02*
X000621Y003420D01*
X000621Y003301D02*
X001518Y003301D01*
X001636Y003183D02*
X000621Y003183D01*
X000621Y003064D02*
X001755Y003064D01*
X001873Y002946D02*
X000621Y002946D01*
X000621Y002827D02*
X001992Y002827D01*
X002110Y002709D02*
X001815Y002709D01*
X001508Y002709D02*
X000621Y002709D01*
X002051Y004250D02*
X002191Y004250D01*
X002191Y004177D02*
X002263Y004005D01*
X002395Y003872D01*
X002568Y003801D01*
X002755Y003801D01*
X002927Y003872D01*
X003060Y004005D01*
X003131Y004177D01*
X003131Y005024D01*
X003060Y005197D01*
X002927Y005329D01*
X002755Y005401D01*
X002568Y005401D01*
X002395Y005329D01*
X002263Y005197D01*
X002191Y005024D01*
X002191Y004177D01*
X002210Y004131D02*
X002074Y004131D01*
X002192Y004013D02*
X002259Y004013D01*
X002311Y003894D02*
X002373Y003894D01*
X002429Y003776D02*
X004293Y003776D01*
X004216Y003894D02*
X003976Y003894D01*
X003980Y003897D02*
X004035Y003952D01*
X004080Y004014D01*
X004115Y004083D01*
X004139Y004156D01*
X004151Y004232D01*
X004151Y004551D01*
X003711Y004551D01*
X003711Y003783D01*
X003776Y003793D01*
X003849Y003817D01*
X003918Y003852D01*
X003980Y003897D01*
X004079Y004013D02*
X004171Y004013D01*
X004171Y004131D02*
X004131Y004131D01*
X004151Y004250D02*
X004171Y004250D01*
X004171Y004368D02*
X004151Y004368D01*
X004151Y004487D02*
X004171Y004487D01*
X004171Y004605D02*
X003711Y004605D01*
X003711Y004651D02*
X004151Y004651D01*
X004151Y004969D01*
X004139Y005046D01*
X004115Y005119D01*
X004080Y005188D01*
X004035Y005250D01*
X003980Y005305D01*
X003918Y005350D01*
X003849Y005385D01*
X003776Y005409D01*
X003711Y005419D01*
X003711Y004651D01*
X003611Y004651D01*
X003611Y004551D01*
X003171Y004551D01*
X003171Y004232D01*
X003183Y004156D01*
X003207Y004083D01*
X003242Y004014D01*
X003287Y003952D01*
X003342Y003897D01*
X003404Y003852D01*
X003473Y003817D01*
X003546Y003793D01*
X003611Y003783D01*
X003611Y004551D01*
X003711Y004551D01*
X003711Y004651D01*
X003711Y004724D02*
X003611Y004724D01*
X003611Y004651D02*
X003611Y005419D01*
X003546Y005409D01*
X003473Y005385D01*
X003404Y005350D01*
X003342Y005305D01*
X003287Y005250D01*
X003242Y005188D01*
X003207Y005119D01*
X003183Y005046D01*
X003171Y004969D01*
X003171Y004651D01*
X003611Y004651D01*
X003611Y004605D02*
X003131Y004605D01*
X003131Y004487D02*
X003171Y004487D01*
X003171Y004368D02*
X003131Y004368D01*
X003131Y004250D02*
X003171Y004250D01*
X003191Y004131D02*
X003112Y004131D01*
X003063Y004013D02*
X003243Y004013D01*
X003346Y003894D02*
X002949Y003894D01*
X002548Y003657D02*
X004412Y003657D01*
X004531Y003539D02*
X003885Y003539D01*
X004035Y003420D02*
X004649Y003420D01*
X004768Y003301D02*
X004154Y003301D01*
X004272Y003183D02*
X004886Y003183D01*
X005005Y003064D02*
X004391Y003064D01*
X004509Y002946D02*
X005123Y002946D01*
X005242Y002827D02*
X004598Y002827D01*
X004647Y002709D02*
X005269Y002709D01*
X004182Y004724D02*
X004151Y004724D01*
X004151Y004843D02*
X004191Y004843D01*
X004191Y004961D02*
X004151Y004961D01*
X004128Y005080D02*
X004214Y005080D01*
X004264Y005198D02*
X004073Y005198D01*
X003964Y005317D02*
X004382Y005317D01*
X004401Y005435D02*
X002051Y005435D01*
X002051Y005317D02*
X002382Y005317D01*
X002264Y005198D02*
X002051Y005198D01*
X002051Y005080D02*
X002214Y005080D01*
X002191Y004961D02*
X002051Y004961D01*
X002051Y004843D02*
X002191Y004843D01*
X002191Y004724D02*
X002051Y004724D01*
X002051Y004605D02*
X002191Y004605D01*
X002191Y004487D02*
X002051Y004487D01*
X002051Y004368D02*
X002191Y004368D01*
X002051Y005554D02*
X004401Y005554D01*
X004401Y005672D02*
X002051Y005672D01*
X002051Y005791D02*
X004401Y005791D01*
X004401Y005909D02*
X002051Y005909D01*
X002051Y006028D02*
X004401Y006028D01*
X004457Y006146D02*
X002051Y006146D01*
X002051Y006265D02*
X004576Y006265D01*
X004694Y006384D02*
X002051Y006384D01*
X002051Y006502D02*
X004813Y006502D01*
X004931Y006621D02*
X002051Y006621D01*
X002051Y006739D02*
X005050Y006739D01*
X005169Y006858D02*
X002051Y006858D01*
X002051Y006976D02*
X005287Y006976D01*
X005406Y007095D02*
X002051Y007095D01*
X002051Y007213D02*
X005524Y007213D01*
X005658Y007332D02*
X002051Y007332D01*
X002051Y007450D02*
X005661Y007450D01*
X005661Y007569D02*
X002051Y007569D01*
X002051Y007688D02*
X005661Y007688D01*
X005661Y007806D02*
X002051Y007806D01*
X002051Y007925D02*
X005661Y007925D01*
X005661Y008043D02*
X002051Y008043D01*
X002051Y008162D02*
X005661Y008162D01*
X005661Y008280D02*
X002051Y008280D01*
X002051Y008399D02*
X005661Y008399D01*
X005661Y008517D02*
X002051Y008517D01*
X002051Y008636D02*
X005661Y008636D01*
X005661Y008754D02*
X002051Y008754D01*
X002051Y008873D02*
X005661Y008873D01*
X005661Y008992D02*
X002051Y008992D01*
X002051Y009110D02*
X005661Y009110D01*
X005661Y009229D02*
X002051Y009229D01*
X002051Y009347D02*
X005661Y009347D01*
X005661Y009466D02*
X002051Y009466D01*
X002051Y009584D02*
X005661Y009584D01*
X005661Y009703D02*
X002051Y009703D01*
X002051Y009821D02*
X003322Y009821D01*
X002945Y009940D02*
X002051Y009940D01*
X002051Y010058D02*
X002739Y010058D01*
X002567Y010177D02*
X002051Y010177D01*
X002051Y010296D02*
X002448Y010296D01*
X002330Y010414D02*
X002051Y010414D01*
X002051Y010533D02*
X002246Y010533D01*
X002177Y010651D02*
X002051Y010651D01*
X002051Y010770D02*
X002109Y010770D01*
X002055Y010888D02*
X002051Y010888D01*
X002657Y012903D02*
X002671Y012903D01*
X002775Y013022D02*
X002876Y013022D01*
X002894Y013141D02*
X003174Y013141D01*
X003131Y013378D02*
X006938Y013378D01*
X007057Y013496D02*
X003250Y013496D01*
X003368Y013615D02*
X010201Y013615D01*
X010201Y013733D02*
X003487Y013733D01*
X003605Y013852D02*
X010201Y013852D01*
X010201Y013970D02*
X003724Y013970D01*
X003842Y014089D02*
X008694Y014089D01*
X008489Y014207D02*
X006654Y014207D01*
X006567Y014121D02*
X007141Y014695D01*
X007141Y015041D01*
X006221Y015041D01*
X006221Y014121D01*
X006567Y014121D01*
X006772Y014326D02*
X008366Y014326D01*
X008258Y014445D02*
X006891Y014445D01*
X007009Y014563D02*
X008190Y014563D01*
X008124Y014682D02*
X007128Y014682D01*
X007141Y014800D02*
X008093Y014800D01*
X008061Y014919D02*
X007141Y014919D01*
X007141Y015037D02*
X008051Y015037D01*
X008051Y015156D02*
X006221Y015156D01*
X006221Y015161D02*
X007141Y015161D01*
X007141Y015507D01*
X006567Y016081D01*
X006221Y016081D01*
X006221Y015161D01*
X006101Y015161D01*
X006101Y015041D01*
X005181Y015041D01*
X005181Y014695D01*
X005755Y014121D01*
X006101Y014121D01*
X006101Y015041D01*
X006221Y015041D01*
X006221Y015161D01*
X006221Y015274D02*
X006101Y015274D01*
X006101Y015161D02*
X006101Y016081D01*
X005755Y016081D01*
X005181Y015507D01*
X005181Y015161D01*
X006101Y015161D01*
X006101Y015156D02*
X005121Y015156D01*
X005121Y015274D02*
X005181Y015274D01*
X005181Y015393D02*
X005121Y015393D01*
X005108Y015511D02*
X005186Y015511D01*
X005305Y015630D02*
X004990Y015630D01*
X004871Y015749D02*
X005423Y015749D01*
X005542Y015867D02*
X004753Y015867D01*
X004634Y015986D02*
X005660Y015986D01*
X006101Y015986D02*
X006221Y015986D01*
X006221Y015867D02*
X006101Y015867D01*
X006101Y015749D02*
X006221Y015749D01*
X006221Y015630D02*
X006101Y015630D01*
X006101Y015511D02*
X006221Y015511D01*
X006221Y015393D02*
X006101Y015393D01*
X006101Y015037D02*
X006221Y015037D01*
X006221Y014919D02*
X006101Y014919D01*
X006101Y014800D02*
X006221Y014800D01*
X006221Y014682D02*
X006101Y014682D01*
X006101Y014563D02*
X006221Y014563D01*
X006221Y014445D02*
X006101Y014445D01*
X006101Y014326D02*
X006221Y014326D01*
X006221Y014207D02*
X006101Y014207D01*
X005669Y014207D02*
X004626Y014207D01*
X004744Y014326D02*
X005550Y014326D01*
X005432Y014445D02*
X004863Y014445D01*
X004981Y014563D02*
X005313Y014563D01*
X005194Y014682D02*
X005100Y014682D01*
X005121Y014800D02*
X005181Y014800D01*
X005181Y014919D02*
X005121Y014919D01*
X005121Y015037D02*
X005181Y015037D01*
X004148Y013141D02*
X006701Y013141D01*
X006582Y013022D02*
X004446Y013022D01*
X004652Y012903D02*
X006464Y012903D01*
X006345Y012785D02*
X004795Y012785D01*
X004914Y012666D02*
X006227Y012666D01*
X006108Y012548D02*
X005031Y012548D01*
X005100Y012429D02*
X005990Y012429D01*
X005871Y012311D02*
X005168Y012311D01*
X005237Y012192D02*
X005753Y012192D01*
X005661Y012074D02*
X005278Y012074D01*
X005310Y011955D02*
X005661Y011955D01*
X005661Y011837D02*
X005342Y011837D01*
X005371Y011718D02*
X005661Y011718D01*
X005661Y011599D02*
X005371Y011599D01*
X005371Y011481D02*
X005661Y011481D01*
X005661Y011362D02*
X005371Y011362D01*
X005363Y011244D02*
X005661Y011244D01*
X005661Y011125D02*
X005331Y011125D01*
X005299Y011007D02*
X005661Y011007D01*
X005661Y010888D02*
X005267Y010888D01*
X005214Y010770D02*
X005661Y010770D01*
X005661Y010651D02*
X005145Y010651D01*
X005077Y010533D02*
X005661Y010533D01*
X005661Y010414D02*
X004993Y010414D01*
X004874Y010296D02*
X005661Y010296D01*
X005661Y010177D02*
X004756Y010177D01*
X004583Y010058D02*
X005661Y010058D01*
X005661Y009940D02*
X004378Y009940D01*
X004000Y009821D02*
X005661Y009821D01*
X006820Y013259D02*
X003013Y013259D01*
X002456Y014089D02*
X002129Y014089D01*
X002334Y014207D02*
X002575Y014207D01*
X002456Y014326D02*
X002694Y014326D01*
X002812Y014445D02*
X002564Y014445D01*
X002632Y014563D02*
X002931Y014563D01*
X003049Y014682D02*
X002698Y014682D01*
X002730Y014800D02*
X003168Y014800D01*
X003201Y014919D02*
X002762Y014919D01*
X002771Y015037D02*
X003201Y015037D01*
X003201Y015156D02*
X002771Y015156D01*
X002764Y015274D02*
X003201Y015274D01*
X003201Y015393D02*
X002732Y015393D01*
X002700Y015511D02*
X003214Y015511D01*
X003333Y015630D02*
X002637Y015630D01*
X002569Y015749D02*
X003451Y015749D01*
X003570Y015867D02*
X002465Y015867D01*
X002346Y015986D02*
X003688Y015986D01*
X002143Y016104D02*
X008679Y016104D01*
X008476Y015986D02*
X006662Y015986D01*
X006781Y015867D02*
X008358Y015867D01*
X008254Y015749D02*
X006899Y015749D01*
X007018Y015630D02*
X008185Y015630D01*
X008122Y015511D02*
X007136Y015511D01*
X007141Y015393D02*
X008090Y015393D01*
X008059Y015274D02*
X007141Y015274D01*
X009629Y014089D02*
X010201Y014089D01*
X010201Y014207D02*
X009834Y014207D01*
X009956Y014326D02*
X010201Y014326D01*
X010201Y014445D02*
X010064Y014445D01*
X010132Y014563D02*
X010201Y014563D01*
X010198Y014682D02*
X010201Y014682D01*
X003711Y005317D02*
X003611Y005317D01*
X003611Y005198D02*
X003711Y005198D01*
X003711Y005080D02*
X003611Y005080D01*
X003611Y004961D02*
X003711Y004961D01*
X003711Y004843D02*
X003611Y004843D01*
X003611Y004487D02*
X003711Y004487D01*
X003711Y004368D02*
X003611Y004368D01*
X003611Y004250D02*
X003711Y004250D01*
X003711Y004131D02*
X003611Y004131D01*
X003611Y004013D02*
X003711Y004013D01*
X003711Y003894D02*
X003611Y003894D01*
X003171Y004724D02*
X003131Y004724D01*
X003131Y004843D02*
X003171Y004843D01*
X003171Y004961D02*
X003131Y004961D01*
X003108Y005080D02*
X003194Y005080D01*
X003250Y005198D02*
X003059Y005198D01*
X002940Y005317D02*
X003359Y005317D01*
M02*
