G75*
G70*
%OFA0B0*%
%FSLAX24Y24*%
%IPPOS*%
%LPD*%
%AMOC8*
5,1,8,0,0,1.08239X$1,22.5*
%
%ADD10C,0.0560*%
%ADD11OC8,0.0630*%
%ADD12C,0.0680*%
%ADD13C,0.0560*%
%ADD14C,0.1000*%
%ADD15C,0.0640*%
%ADD16R,0.0640X0.0640*%
%ADD17OC8,0.0640*%
%ADD18C,0.0850*%
%ADD19OC8,0.0850*%
%ADD20OC8,0.0560*%
%ADD21R,0.0800X0.0800*%
%ADD22C,0.0800*%
%ADD23R,0.0433X0.0394*%
%ADD24C,0.0622*%
%ADD25R,0.0394X0.0433*%
%ADD26C,0.0160*%
%ADD27C,0.0240*%
%ADD28R,0.0360X0.0360*%
D10*
X019651Y016843D03*
X021551Y016843D03*
D11*
X019101Y013843D03*
X018101Y014843D03*
X017101Y013843D03*
X016101Y014843D03*
D12*
X009551Y017443D03*
X005551Y017443D03*
D13*
X006001Y016123D02*
X006001Y015563D01*
X007001Y015563D02*
X007001Y016123D01*
X008001Y016123D02*
X008001Y015563D01*
X009001Y015563D02*
X009001Y016123D01*
X009001Y013123D02*
X009001Y012563D01*
X008001Y012563D02*
X008001Y013123D01*
X007001Y013123D02*
X007001Y012563D01*
X006001Y012563D02*
X006001Y013123D01*
D14*
X003951Y020549D03*
X002770Y020549D03*
X002770Y021730D03*
X003951Y021730D03*
D15*
X011981Y014543D02*
X012621Y014543D01*
X012621Y013543D02*
X011981Y013543D01*
X015601Y016023D02*
X015601Y016663D01*
X016601Y016663D02*
X016601Y016023D01*
X017601Y016023D02*
X017601Y016663D01*
X015421Y019843D02*
X014781Y019843D01*
X014781Y020843D02*
X015421Y020843D01*
X015421Y021843D02*
X014781Y021843D01*
D16*
X024101Y020343D03*
D17*
X023101Y020343D03*
X023101Y021343D03*
X024101Y021343D03*
X024101Y022343D03*
X023101Y022343D03*
D18*
X011601Y021843D03*
D19*
X011601Y015843D03*
D20*
X010601Y015343D03*
X010601Y013343D03*
X013601Y017843D03*
X015601Y017843D03*
X013101Y019843D03*
X013101Y021843D03*
X020101Y013843D03*
X022101Y013843D03*
X022401Y006693D03*
X022401Y004693D03*
D21*
X019601Y002843D03*
X014601Y002843D03*
X009601Y002843D03*
X004601Y002843D03*
D22*
X005979Y002843D03*
X007357Y002843D03*
X010979Y002843D03*
X012357Y002843D03*
X015979Y002843D03*
X017357Y002843D03*
X020979Y002843D03*
X022357Y002843D03*
D23*
X013101Y010508D03*
X013101Y011177D03*
X012101Y011177D03*
X012101Y010508D03*
X011101Y010508D03*
X011101Y011177D03*
X010101Y011177D03*
X010101Y010508D03*
X009101Y010508D03*
X009101Y011177D03*
X008101Y011177D03*
X008101Y010508D03*
X007101Y010508D03*
X007101Y011177D03*
X006101Y011177D03*
X006101Y010508D03*
D24*
X006101Y009654D02*
X006101Y009032D01*
X007101Y009032D02*
X007101Y009654D01*
X008101Y009654D02*
X008101Y009032D01*
X009101Y009032D02*
X009101Y009654D01*
X010101Y009654D02*
X010101Y009032D01*
X011101Y009032D02*
X011101Y009654D01*
X012101Y009654D02*
X012101Y009032D01*
X013101Y009032D02*
X013101Y009654D01*
X013101Y006654D02*
X013101Y006032D01*
X012101Y006032D02*
X012101Y006654D01*
X011101Y006654D02*
X011101Y006032D01*
X010101Y006032D02*
X010101Y006654D01*
X009101Y006654D02*
X009101Y006032D01*
X008101Y006032D02*
X008101Y006654D01*
X007101Y006654D02*
X007101Y006032D01*
X006101Y006032D02*
X006101Y006654D01*
D25*
X007266Y013843D03*
X007935Y013843D03*
D26*
X001101Y004343D02*
X003601Y001843D01*
X007601Y001843D01*
X012601Y001843D01*
X018101Y001843D01*
X023101Y001843D01*
X023601Y002343D01*
X023601Y004343D01*
X023601Y006093D01*
X023101Y006593D01*
X023101Y012343D01*
X022601Y012843D01*
X022601Y014843D01*
X021601Y014843D01*
X021101Y014343D02*
X021101Y015343D01*
X021101Y014343D02*
X021351Y014093D01*
X021351Y013143D01*
X022401Y011143D02*
X022401Y008193D01*
X020601Y008343D02*
X020101Y007843D01*
X018601Y007843D01*
X019901Y005543D02*
X017251Y005543D01*
X017101Y004843D02*
X017601Y004343D01*
X021101Y004343D01*
X021601Y003843D01*
X020979Y003465D02*
X020601Y003843D01*
X017101Y003843D01*
X016601Y004343D01*
X013101Y004343D01*
X012101Y005343D01*
X012101Y006343D01*
X011101Y006343D02*
X011101Y005343D01*
X012601Y003843D01*
X016251Y003843D01*
X016751Y003343D01*
X016479Y003343D01*
X015979Y002843D01*
X017357Y002843D02*
X017357Y002587D01*
X018101Y001843D01*
X020979Y002843D02*
X020979Y003465D01*
X020751Y004693D02*
X019901Y005543D01*
X020751Y004693D02*
X022401Y004693D01*
X023601Y004343D02*
X022357Y003099D01*
X022357Y002843D01*
X024401Y006993D02*
X026551Y006993D01*
X024101Y009343D02*
X024101Y013843D01*
X026101Y015843D01*
X027101Y015843D02*
X027101Y015343D01*
X025351Y013593D01*
X024951Y013593D01*
X027101Y015843D02*
X025101Y017843D01*
X025101Y020343D01*
X024101Y021343D01*
X023101Y020343D02*
X021601Y018843D01*
X023101Y019343D02*
X024601Y019343D01*
X017801Y014143D02*
X017801Y013593D01*
X017301Y013093D01*
X017801Y014143D02*
X017101Y014843D01*
X017101Y015343D01*
X017601Y015843D01*
X017601Y016343D01*
X014601Y017343D02*
X013601Y016343D01*
X013601Y015843D01*
X013401Y015643D01*
X012301Y015643D01*
X011501Y014843D01*
X011101Y014843D01*
X010601Y015343D01*
X010101Y015343D01*
X009601Y014843D01*
X007601Y014843D01*
X007101Y015343D01*
X007101Y015743D01*
X007001Y015843D01*
X006601Y014343D02*
X005601Y014343D01*
X004601Y015343D01*
X004601Y018843D01*
X003951Y019193D02*
X003601Y018843D01*
X003601Y016843D01*
X004101Y016343D01*
X004101Y012343D01*
X004601Y011843D01*
X006601Y011843D01*
X007101Y012343D01*
X007101Y012743D01*
X007001Y012843D01*
X007001Y013577D01*
X007266Y013843D01*
X007935Y013843D02*
X010601Y013843D01*
X011101Y014343D01*
X012101Y014343D01*
X012301Y014543D01*
X012301Y013543D02*
X010601Y011843D01*
X008601Y011843D01*
X008001Y012443D01*
X008001Y012843D01*
X009001Y012843D02*
X009601Y012843D01*
X010101Y013343D01*
X010601Y013343D01*
X010101Y011177D02*
X011101Y011177D01*
X012101Y011177D01*
X013101Y011177D01*
X012935Y011177D02*
X014101Y012343D01*
X014101Y012843D01*
X013601Y013343D01*
X013601Y015843D01*
X012601Y016343D02*
X012601Y016843D01*
X012101Y017343D01*
X010601Y017343D01*
X010101Y016843D01*
X009101Y016843D01*
X009001Y016743D01*
X009001Y015843D01*
X014101Y014843D02*
X015101Y013843D01*
X015601Y012843D02*
X014101Y011343D01*
X012935Y011177D02*
X006101Y011177D01*
X007101Y011177D01*
X008101Y011177D01*
X009101Y011177D01*
X010101Y011177D01*
X010101Y010508D02*
X010101Y009343D01*
X011101Y009343D02*
X011101Y010508D01*
X012101Y010508D02*
X012101Y009343D01*
X013101Y009343D02*
X013101Y010508D01*
X009101Y010508D02*
X009101Y009343D01*
X008101Y009343D02*
X008101Y010508D01*
X007101Y010508D02*
X007101Y009343D01*
X006101Y009343D02*
X006101Y010508D01*
X004101Y008843D02*
X005101Y007843D01*
X006601Y007843D01*
X007101Y007343D01*
X007101Y006343D01*
X008101Y006343D02*
X008101Y005843D01*
X007601Y005343D01*
X004101Y005343D01*
X003101Y005343D01*
X001601Y006843D01*
X001101Y007343D02*
X001101Y011843D01*
X001101Y016343D01*
X001601Y017136D02*
X001601Y015343D01*
X001601Y010843D01*
X001101Y007343D02*
X001101Y004343D01*
X005979Y002843D02*
X006601Y003465D01*
X006601Y003843D01*
X007601Y004843D01*
X008101Y004843D01*
X009101Y005843D01*
X009101Y006343D01*
X010101Y006343D02*
X010101Y005343D01*
X011601Y003843D01*
X011601Y003465D01*
X010979Y002843D01*
X012357Y002843D02*
X012357Y002087D01*
X012601Y001843D01*
X013601Y004843D02*
X017101Y004843D01*
X013601Y004843D02*
X013101Y005343D01*
X013101Y006343D01*
X007601Y001843D02*
X007357Y002087D01*
X007357Y002843D01*
X001601Y017136D02*
X002308Y017843D01*
X002601Y017843D01*
X003951Y019193D02*
X003951Y020549D01*
X002770Y020549D02*
X002770Y021730D01*
X014601Y018343D02*
X014601Y017343D01*
X014601Y018343D02*
X015101Y018843D01*
X015601Y018843D01*
D27*
X015601Y017843D01*
X015601Y018843D02*
X015601Y019343D01*
X015101Y019843D01*
X016601Y019843D01*
X017601Y018843D01*
X021601Y018843D01*
X022601Y017843D01*
X022601Y014843D01*
X016601Y020843D02*
X015101Y020843D01*
X013601Y020843D01*
X013101Y020343D01*
X013101Y019843D01*
X013601Y019343D01*
X013601Y017843D01*
X016601Y020843D02*
X017101Y021343D01*
X017101Y021843D01*
X016351Y022593D01*
X016101Y022593D01*
X008351Y022593D01*
X011601Y021843D02*
X011601Y021343D01*
X009551Y019293D01*
X009551Y017443D01*
X011601Y021843D02*
X013101Y021843D01*
X015101Y021843D01*
X016101Y022593D02*
X016351Y022843D01*
X022101Y022843D01*
X022601Y022343D01*
X023101Y022343D01*
D28*
X023101Y019343D03*
X024601Y019343D03*
X026101Y015843D03*
X024951Y013593D03*
X022401Y011143D03*
X021351Y013143D03*
X021601Y014843D03*
X021101Y015343D03*
X017301Y013093D03*
X015601Y012843D03*
X015101Y013843D03*
X014101Y014843D03*
X012601Y016343D03*
X014101Y011343D03*
X018601Y007843D03*
X020601Y008343D03*
X022401Y008193D03*
X024101Y009343D03*
X024401Y006993D03*
X026551Y006993D03*
X021601Y003843D03*
X020601Y003843D03*
X017251Y005543D03*
X016751Y003343D03*
X011601Y003843D03*
X006601Y003843D03*
X004101Y005343D03*
X001601Y006843D03*
X001101Y007343D03*
X004101Y008843D03*
X001601Y010843D03*
X001101Y011843D03*
X001601Y015343D03*
X001101Y016343D03*
X002601Y017843D03*
X004601Y018843D03*
X008351Y022593D03*
X006601Y014343D03*
M02*
