G75*
G70*
%OFA0B0*%
%FSLAX24Y24*%
%IPPOS*%
%LPD*%
%AMOC8*
5,1,8,0,0,1.08239X$1,22.5*
%
%ADD10C,0.0120*%
%ADD11C,0.0640*%
%ADD12OC8,0.0710*%
%ADD13C,0.0760*%
%ADD14R,0.0300X0.0550*%
%ADD15R,0.0550X0.0300*%
%ADD16C,0.0640*%
%ADD17C,0.1080*%
%ADD18C,0.1340*%
%ADD19C,0.0720*%
%ADD20R,0.0720X0.0720*%
%ADD21OC8,0.0720*%
%ADD22C,0.0930*%
%ADD23OC8,0.0930*%
%ADD24OC8,0.0640*%
%ADD25C,0.1380*%
%ADD26R,0.0880X0.0880*%
%ADD27C,0.0880*%
%ADD28C,0.0702*%
%ADD29R,0.0880X0.0340*%
%ADD30R,0.0513X0.0474*%
%ADD31R,0.0407X0.0328*%
%ADD32R,0.0474X0.1891*%
%ADD33R,0.0710X0.1419*%
%ADD34R,0.1891X0.0474*%
%ADD35R,0.1419X0.0710*%
%ADD36R,0.0440X0.0440*%
D10*
X016251Y018593D02*
X016101Y018743D01*
X016101Y022943D01*
X016101Y022843D01*
X016101Y022943D01*
X016301Y023143D01*
X022251Y023143D01*
X022451Y022943D01*
X022451Y018743D01*
X022301Y018593D01*
X016251Y018593D01*
X016245Y018598D02*
X022306Y018598D01*
X022425Y018717D02*
X016127Y018717D01*
X016101Y018835D02*
X022451Y018835D01*
X022451Y018954D02*
X016101Y018954D01*
X016101Y019073D02*
X022451Y019073D01*
X022451Y019191D02*
X016101Y019191D01*
X016101Y019310D02*
X022451Y019310D01*
X022451Y019428D02*
X016101Y019428D01*
X016101Y019547D02*
X022451Y019547D01*
X022451Y019665D02*
X016101Y019665D01*
X016101Y019784D02*
X022451Y019784D01*
X022451Y019902D02*
X016101Y019902D01*
X016101Y020021D02*
X022451Y020021D01*
X022451Y020139D02*
X016101Y020139D01*
X016101Y020258D02*
X022451Y020258D01*
X022451Y020376D02*
X016101Y020376D01*
X016101Y020495D02*
X022451Y020495D01*
X022451Y020614D02*
X016101Y020614D01*
X016101Y020732D02*
X022451Y020732D01*
X022451Y020851D02*
X016101Y020851D01*
X016101Y020969D02*
X022451Y020969D01*
X022451Y021088D02*
X016101Y021088D01*
X016101Y021206D02*
X022451Y021206D01*
X022451Y021325D02*
X016101Y021325D01*
X016101Y021443D02*
X022451Y021443D01*
X022451Y021562D02*
X016101Y021562D01*
X016101Y021680D02*
X022451Y021680D01*
X022451Y021799D02*
X016101Y021799D01*
X016101Y021918D02*
X022451Y021918D01*
X022451Y022036D02*
X016101Y022036D01*
X016101Y022155D02*
X022451Y022155D01*
X022451Y022273D02*
X016101Y022273D01*
X016101Y022392D02*
X022451Y022392D01*
X022451Y022510D02*
X016101Y022510D01*
X016101Y022629D02*
X022451Y022629D01*
X022451Y022747D02*
X016101Y022747D01*
X016101Y022866D02*
X022451Y022866D01*
X022409Y022984D02*
X016143Y022984D01*
X016261Y023103D02*
X022290Y023103D01*
D11*
X021551Y016843D03*
X019651Y016843D03*
D12*
X018101Y014843D03*
X019101Y013843D03*
X017101Y013843D03*
X016101Y014843D03*
D13*
X009551Y017443D03*
X005551Y017443D03*
D14*
X016239Y012414D03*
X016554Y012414D03*
X016869Y012414D03*
X017183Y012414D03*
X017498Y012414D03*
X017813Y012414D03*
X018128Y012414D03*
X018443Y012414D03*
X018758Y012414D03*
X019073Y012414D03*
X019388Y012414D03*
X019703Y012414D03*
X020018Y012414D03*
X020333Y012414D03*
X020648Y012414D03*
X020963Y012414D03*
X020963Y006272D03*
X020648Y006272D03*
X020333Y006272D03*
X020018Y006272D03*
X019703Y006272D03*
X019388Y006272D03*
X019073Y006272D03*
X018758Y006272D03*
X018443Y006272D03*
X018128Y006272D03*
X017813Y006272D03*
X017498Y006272D03*
X017183Y006272D03*
X016869Y006272D03*
X016554Y006272D03*
X016239Y006272D03*
D15*
X015530Y006980D03*
X015530Y007295D03*
X015530Y007610D03*
X015530Y007925D03*
X015530Y008240D03*
X015530Y008555D03*
X015530Y008870D03*
X015530Y009185D03*
X015530Y009500D03*
X015530Y009815D03*
X015530Y010130D03*
X015530Y010445D03*
X015530Y010760D03*
X015530Y011075D03*
X015530Y011390D03*
X015530Y011705D03*
X021672Y011705D03*
X021672Y011390D03*
X021672Y011075D03*
X021672Y010760D03*
X021672Y010445D03*
X021672Y010130D03*
X021672Y009815D03*
X021672Y009500D03*
X021672Y009185D03*
X021672Y008870D03*
X021672Y008555D03*
X021672Y008240D03*
X021672Y007925D03*
X021672Y007610D03*
X021672Y007295D03*
X021672Y006980D03*
D16*
X009001Y012563D02*
X009001Y013123D01*
X008001Y013123D02*
X008001Y012563D01*
X007001Y012563D02*
X007001Y013123D01*
X006001Y013123D02*
X006001Y012563D01*
X006001Y015563D02*
X006001Y016123D01*
X007001Y016123D02*
X007001Y015563D01*
X008001Y015563D02*
X008001Y016123D01*
X009001Y016123D02*
X009001Y015563D01*
D17*
X003951Y020549D03*
X002770Y020549D03*
X002770Y021730D03*
X003951Y021730D03*
D18*
X000998Y021140D03*
D19*
X011981Y014543D02*
X012621Y014543D01*
X012621Y013543D02*
X011981Y013543D01*
X015601Y016023D02*
X015601Y016663D01*
X016601Y016663D02*
X016601Y016023D01*
X017601Y016023D02*
X017601Y016663D01*
X015421Y019843D02*
X014781Y019843D01*
X014781Y020843D02*
X015421Y020843D01*
X015421Y021843D02*
X014781Y021843D01*
D20*
X024101Y020343D03*
D21*
X023101Y020343D03*
X023101Y021343D03*
X024101Y021343D03*
X024101Y022343D03*
X023101Y022343D03*
D22*
X011601Y021843D03*
D23*
X011601Y015843D03*
D24*
X010601Y015343D03*
X010601Y013343D03*
X013601Y017843D03*
X015601Y017843D03*
X013101Y019843D03*
X013101Y021843D03*
X020101Y013843D03*
X022101Y013843D03*
X022401Y006693D03*
X022401Y004693D03*
D25*
X001601Y001843D03*
X021001Y020843D03*
X026601Y021843D03*
X026601Y001843D03*
D26*
X019601Y002843D03*
X014601Y002843D03*
X009601Y002843D03*
X004601Y002843D03*
D27*
X005979Y002843D03*
X007357Y002843D03*
X010979Y002843D03*
X012357Y002843D03*
X015979Y002843D03*
X017357Y002843D03*
X020979Y002843D03*
X022357Y002843D03*
D28*
X013101Y006032D02*
X013101Y006654D01*
X012101Y006654D02*
X012101Y006032D01*
X011101Y006032D02*
X011101Y006654D01*
X010101Y006654D02*
X010101Y006032D01*
X009101Y006032D02*
X009101Y006654D01*
X008101Y006654D02*
X008101Y006032D01*
X007101Y006032D02*
X007101Y006654D01*
X006101Y006654D02*
X006101Y006032D01*
X006101Y009032D02*
X006101Y009654D01*
X007101Y009654D02*
X007101Y009032D01*
X008101Y009032D02*
X008101Y009654D01*
X009101Y009654D02*
X009101Y009032D01*
X010101Y009032D02*
X010101Y009654D01*
X011101Y009654D02*
X011101Y009032D01*
X012101Y009032D02*
X012101Y009654D01*
X013101Y009654D02*
X013101Y009032D01*
D29*
X024391Y006343D03*
X024391Y005843D03*
X024391Y005343D03*
X024391Y004843D03*
X024391Y004343D03*
X024391Y003843D03*
X024391Y003343D03*
X026811Y003343D03*
X026811Y003843D03*
X026811Y004343D03*
X026811Y004843D03*
X026811Y005343D03*
X026811Y005843D03*
X026811Y006343D03*
D30*
X026101Y008008D03*
X026101Y008677D03*
X025101Y008677D03*
X025101Y008008D03*
D31*
X024101Y008295D03*
X024101Y007390D03*
X027101Y007390D03*
X027101Y008295D03*
D32*
X008494Y020386D03*
X007707Y020386D03*
D33*
X006762Y022433D03*
X009439Y022433D03*
D34*
X003057Y016630D03*
X003057Y015843D03*
X003057Y015055D03*
X003057Y012130D03*
X003057Y011343D03*
X003057Y010555D03*
X003057Y007630D03*
X003057Y006843D03*
X003057Y006055D03*
X024144Y010449D03*
X024144Y011236D03*
X024144Y015449D03*
X024144Y016236D03*
D35*
X026191Y017181D03*
X026191Y014504D03*
X026191Y012181D03*
X026191Y009504D03*
X001010Y009610D03*
X001010Y008575D03*
X001010Y005110D03*
X001010Y013075D03*
X001010Y014110D03*
X001010Y017575D03*
D36*
X001101Y016343D03*
X001601Y015343D03*
X002601Y017843D03*
X004601Y018843D03*
X008351Y022593D03*
X012601Y016343D03*
X014101Y014843D03*
X015101Y013843D03*
X015601Y012843D03*
X017301Y013093D03*
X014101Y011343D03*
X018601Y007843D03*
X020601Y008343D03*
X022401Y008193D03*
X024101Y009343D03*
X022401Y011143D03*
X021351Y013143D03*
X021601Y014843D03*
X021101Y015343D03*
X024951Y013593D03*
X026101Y015843D03*
X024601Y019343D03*
X023101Y019343D03*
X024401Y006993D03*
X026551Y006993D03*
X021601Y003843D03*
X020601Y003843D03*
X017251Y005543D03*
X016751Y003343D03*
X011601Y003843D03*
X006601Y003843D03*
X004101Y005343D03*
X001601Y006843D03*
X001101Y007343D03*
X004101Y008843D03*
X001601Y010843D03*
X001101Y011843D03*
X006601Y014343D03*
M02*
