G75*
G70*
%OFA0B0*%
%FSLAX24Y24*%
%IPPOS*%
%LPD*%
%AMOC8*
5,1,8,0,0,1.08239X$1,22.5*
%
%ADD10C,0.0600*%
%ADD11OC8,0.0710*%
%ADD12C,0.0740*%
%ADD13C,0.0600*%
%ADD14C,0.1080*%
%ADD15C,0.1340*%
%ADD16C,0.0680*%
%ADD17R,0.0680X0.0680*%
%ADD18OC8,0.0680*%
%ADD19C,0.0930*%
%ADD20OC8,0.0930*%
%ADD21OC8,0.0600*%
%ADD22C,0.1380*%
%ADD23R,0.0880X0.0880*%
%ADD24C,0.0880*%
%ADD25R,0.0513X0.0474*%
%ADD26C,0.0662*%
%ADD27R,0.0474X0.0513*%
%ADD28C,0.1660*%
%ADD29R,0.0440X0.0440*%
D10*
X019893Y016843D03*
X021793Y016843D03*
D11*
X019343Y013843D03*
X018343Y014843D03*
X017343Y013843D03*
X016343Y014843D03*
D12*
X009793Y017443D03*
X005793Y017443D03*
D13*
X006243Y016103D02*
X006243Y015583D01*
X007243Y015583D02*
X007243Y016103D01*
X008243Y016103D02*
X008243Y015583D01*
X009243Y015583D02*
X009243Y016103D01*
X009243Y013103D02*
X009243Y012583D01*
X008243Y012583D02*
X008243Y013103D01*
X007243Y013103D02*
X007243Y012583D01*
X006243Y012583D02*
X006243Y013103D01*
D14*
X004193Y020549D03*
X004193Y021730D03*
X003012Y021730D03*
X003012Y020549D03*
D15*
X001240Y021140D03*
D16*
X012243Y014543D02*
X012843Y014543D01*
X012843Y013543D02*
X012243Y013543D01*
X015843Y016043D02*
X015843Y016643D01*
X016843Y016643D02*
X016843Y016043D01*
X017843Y016043D02*
X017843Y016643D01*
X015643Y019843D02*
X015043Y019843D01*
X015043Y020843D02*
X015643Y020843D01*
X015643Y021843D02*
X015043Y021843D01*
D17*
X024343Y020343D03*
D18*
X023343Y020343D03*
X023343Y021343D03*
X024343Y021343D03*
X024343Y022343D03*
X023343Y022343D03*
D19*
X011843Y021843D03*
D20*
X011843Y015843D03*
D21*
X010843Y015343D03*
X010843Y013343D03*
X013843Y017843D03*
X015843Y017843D03*
X013343Y019843D03*
X013343Y021843D03*
X020343Y013843D03*
X022343Y013843D03*
X022643Y006693D03*
X022643Y004693D03*
D22*
X001843Y001843D03*
X021243Y020843D03*
X025843Y021843D03*
X025843Y001843D03*
D23*
X024843Y005343D03*
X019843Y002843D03*
X014843Y002843D03*
X009843Y002843D03*
X004843Y002843D03*
X002843Y008343D03*
X002843Y013343D03*
X002843Y018343D03*
X024843Y015343D03*
X024843Y010343D03*
D24*
X024843Y011721D03*
X024843Y013099D03*
X024843Y016721D03*
X024843Y018099D03*
X024843Y008099D03*
X024843Y006721D03*
X022599Y002843D03*
X021221Y002843D03*
X017599Y002843D03*
X016221Y002843D03*
X012599Y002843D03*
X011221Y002843D03*
X007599Y002843D03*
X006221Y002843D03*
X002843Y005587D03*
X002843Y006965D03*
X002843Y010587D03*
X002843Y011965D03*
X002843Y015587D03*
X002843Y016965D03*
D25*
X006343Y011177D03*
X006343Y010508D03*
X007343Y010508D03*
X007343Y011177D03*
X008343Y011177D03*
X008343Y010508D03*
X009343Y010508D03*
X009343Y011177D03*
X010343Y011177D03*
X010343Y010508D03*
X011343Y010508D03*
X011343Y011177D03*
X012343Y011177D03*
X012343Y010508D03*
X013343Y010508D03*
X013343Y011177D03*
D26*
X013343Y009634D02*
X013343Y009052D01*
X012343Y009052D02*
X012343Y009634D01*
X011343Y009634D02*
X011343Y009052D01*
X010343Y009052D02*
X010343Y009634D01*
X009343Y009634D02*
X009343Y009052D01*
X008343Y009052D02*
X008343Y009634D01*
X007343Y009634D02*
X007343Y009052D01*
X006343Y009052D02*
X006343Y009634D01*
X006343Y006634D02*
X006343Y006052D01*
X007343Y006052D02*
X007343Y006634D01*
X008343Y006634D02*
X008343Y006052D01*
X009343Y006052D02*
X009343Y006634D01*
X010343Y006634D02*
X010343Y006052D01*
X011343Y006052D02*
X011343Y006634D01*
X012343Y006634D02*
X012343Y006052D01*
X013343Y006052D02*
X013343Y006634D01*
D27*
X008177Y013843D03*
X007508Y013843D03*
D28*
X008343Y018949D03*
X006492Y020130D03*
X008343Y021311D03*
D29*
X004843Y017843D03*
X004343Y018343D03*
X003843Y015843D03*
X006843Y014343D03*
X003843Y010843D03*
X003843Y005843D03*
X006843Y003843D03*
X011843Y003843D03*
X016993Y003343D03*
X017493Y005543D03*
X018843Y007843D03*
X020843Y008343D03*
X022843Y010843D03*
X023843Y011343D03*
X022943Y012043D03*
X023343Y013843D03*
X021843Y014843D03*
X023843Y016343D03*
X025393Y012343D03*
X026343Y008343D03*
X026693Y007193D03*
X025443Y006093D03*
X024043Y006543D03*
X024043Y007593D03*
X021843Y003843D03*
X020843Y003843D03*
X014343Y011343D03*
X015843Y012843D03*
X015343Y013843D03*
X014343Y014843D03*
X012843Y016343D03*
X017543Y013093D03*
M02*
