G75*
G70*
%OFA0B0*%
%FSLAX24Y24*%
%IPPOS*%
%LPD*%
%AMOC8*
5,1,8,0,0,1.08239X$1,22.5*
%
%ADD10C,0.0110*%
%ADD11C,0.0080*%
%ADD12C,0.0160*%
%ADD13C,0.0060*%
%ADD14C,0.0120*%
%ADD15R,0.0200X0.1000*%
%ADD16R,0.0750X0.0300*%
%ADD17C,0.0100*%
%ADD18R,0.1000X0.0200*%
%ADD19R,0.0200X0.0300*%
%ADD20C,0.0020*%
%ADD21C,0.0040*%
%ADD22R,0.0350X0.0500*%
%ADD23R,0.0400X0.0150*%
D10*
X003898Y000398D02*
X003898Y000791D01*
X004094Y000988D01*
X004291Y000791D01*
X004291Y000398D01*
X004542Y000398D02*
X004837Y000398D01*
X004936Y000496D01*
X004936Y000890D01*
X004837Y000988D01*
X004542Y000988D01*
X004542Y000398D01*
X004291Y000693D02*
X003898Y000693D01*
X005187Y000496D02*
X005285Y000398D01*
X005482Y000398D01*
X005580Y000496D01*
X005831Y000693D02*
X006225Y000693D01*
X006126Y000398D02*
X006126Y000988D01*
X005831Y000693D01*
X005580Y000890D02*
X005482Y000988D01*
X005285Y000988D01*
X005187Y000890D01*
X005187Y000496D01*
X008898Y000398D02*
X008898Y000791D01*
X009094Y000988D01*
X009291Y000791D01*
X009291Y000398D01*
X009542Y000398D02*
X009837Y000398D01*
X009936Y000496D01*
X009936Y000890D01*
X009837Y000988D01*
X009542Y000988D01*
X009542Y000398D01*
X009291Y000693D02*
X008898Y000693D01*
X010187Y000496D02*
X010285Y000398D01*
X010482Y000398D01*
X010580Y000496D01*
X010831Y000496D02*
X010930Y000398D01*
X011126Y000398D01*
X011225Y000496D01*
X011225Y000594D01*
X011126Y000693D01*
X011028Y000693D01*
X011126Y000693D02*
X011225Y000791D01*
X011225Y000890D01*
X011126Y000988D01*
X010930Y000988D01*
X010831Y000890D01*
X010580Y000890D02*
X010482Y000988D01*
X010285Y000988D01*
X010187Y000890D01*
X010187Y000496D01*
X013898Y000398D02*
X013898Y000791D01*
X014094Y000988D01*
X014291Y000791D01*
X014291Y000398D01*
X014542Y000398D02*
X014837Y000398D01*
X014936Y000496D01*
X014936Y000890D01*
X014837Y000988D01*
X014542Y000988D01*
X014542Y000398D01*
X014291Y000693D02*
X013898Y000693D01*
X015187Y000496D02*
X015285Y000398D01*
X015482Y000398D01*
X015580Y000496D01*
X015831Y000398D02*
X016225Y000791D01*
X016225Y000890D01*
X016126Y000988D01*
X015930Y000988D01*
X015831Y000890D01*
X015580Y000890D02*
X015482Y000988D01*
X015285Y000988D01*
X015187Y000890D01*
X015187Y000496D01*
X015831Y000398D02*
X016225Y000398D01*
X018898Y000398D02*
X018898Y000791D01*
X019094Y000988D01*
X019291Y000791D01*
X019291Y000398D01*
X019542Y000398D02*
X019837Y000398D01*
X019936Y000496D01*
X019936Y000890D01*
X019837Y000988D01*
X019542Y000988D01*
X019542Y000398D01*
X019291Y000693D02*
X018898Y000693D01*
X020187Y000496D02*
X020285Y000398D01*
X020482Y000398D01*
X020580Y000496D01*
X020831Y000398D02*
X021225Y000398D01*
X021028Y000398D02*
X021028Y000988D01*
X020831Y000791D01*
X020580Y000890D02*
X020482Y000988D01*
X020285Y000988D01*
X020187Y000890D01*
X020187Y000496D01*
X026697Y004594D02*
X026894Y004791D01*
X027288Y004791D01*
X027288Y005042D02*
X027288Y005337D01*
X027189Y005436D01*
X026796Y005436D01*
X026697Y005337D01*
X026697Y005042D01*
X027288Y005042D01*
X026992Y004791D02*
X026992Y004398D01*
X026894Y004398D02*
X026697Y004594D01*
X026894Y004398D02*
X027288Y004398D01*
X027189Y005687D02*
X026796Y005687D01*
X026697Y005785D01*
X026697Y005982D01*
X026796Y006080D01*
X026796Y006331D02*
X026697Y006430D01*
X026697Y006626D01*
X026796Y006725D01*
X027189Y006331D01*
X027288Y006430D01*
X027288Y006626D01*
X027189Y006725D01*
X026796Y006725D01*
X026796Y006331D02*
X027189Y006331D01*
X027189Y006080D02*
X027288Y005982D01*
X027288Y005785D01*
X027189Y005687D01*
X027288Y009398D02*
X027288Y009594D01*
X027288Y009496D02*
X026697Y009496D01*
X026697Y009398D02*
X026697Y009594D01*
X026697Y009827D02*
X027288Y010221D01*
X026697Y010221D01*
X026697Y010472D02*
X026697Y010866D01*
X026697Y010669D02*
X027288Y010669D01*
X027189Y011116D02*
X027288Y011215D01*
X027288Y011412D01*
X027189Y011510D01*
X026992Y011510D01*
X026894Y011412D01*
X026894Y011313D01*
X026992Y011116D01*
X026697Y011116D01*
X026697Y011510D01*
X026697Y009827D02*
X027288Y009827D01*
X027288Y014398D02*
X027288Y014594D01*
X027288Y014496D02*
X026697Y014496D01*
X026697Y014398D02*
X026697Y014594D01*
X026697Y014827D02*
X027288Y015221D01*
X026697Y015221D01*
X026697Y015472D02*
X026697Y015866D01*
X026697Y015669D02*
X027288Y015669D01*
X027189Y016116D02*
X026992Y016116D01*
X026992Y016412D01*
X027091Y016510D01*
X027189Y016510D01*
X027288Y016412D01*
X027288Y016215D01*
X027189Y016116D01*
X026992Y016116D02*
X026796Y016313D01*
X026697Y016510D01*
X026697Y014827D02*
X027288Y014827D01*
X026884Y019398D02*
X026687Y019398D01*
X026785Y019398D02*
X026785Y019988D01*
X026687Y019988D02*
X026884Y019988D01*
X026436Y019890D02*
X026436Y019693D01*
X026337Y019594D01*
X026042Y019594D01*
X026042Y019398D02*
X026042Y019988D01*
X026337Y019988D01*
X026436Y019890D01*
X025791Y019890D02*
X025693Y019988D01*
X025496Y019988D01*
X025398Y019890D01*
X025398Y019791D01*
X025496Y019693D01*
X025693Y019693D01*
X025791Y019594D01*
X025791Y019496D01*
X025693Y019398D01*
X025496Y019398D01*
X025398Y019496D01*
X014942Y022646D02*
X014843Y022548D01*
X014646Y022548D01*
X014548Y022646D01*
X014942Y023040D01*
X014942Y022646D01*
X014942Y023040D02*
X014843Y023138D01*
X014646Y023138D01*
X014548Y023040D01*
X014548Y022646D01*
X014324Y022646D02*
X014324Y022548D01*
X014226Y022548D01*
X014226Y022646D01*
X014324Y022646D01*
X013975Y022548D02*
X013581Y022548D01*
X013778Y022548D02*
X013778Y023138D01*
X013581Y022941D01*
X013330Y022941D02*
X013134Y022548D01*
X012937Y022941D01*
X012686Y022843D02*
X012686Y022646D01*
X012587Y022548D01*
X012391Y022548D01*
X012292Y022646D01*
X012292Y022843D02*
X012489Y022941D01*
X012587Y022941D01*
X012686Y022843D01*
X012292Y022843D02*
X012292Y023138D01*
X012686Y023138D01*
X012041Y023138D02*
X012041Y022548D01*
X011648Y023138D01*
X011648Y022548D01*
X004080Y020390D02*
X004080Y019996D01*
X003982Y019898D01*
X003687Y019898D01*
X003687Y020488D01*
X003982Y020488D01*
X004080Y020390D01*
X003436Y020488D02*
X003436Y019898D01*
X003042Y020488D01*
X003042Y019898D01*
X002791Y019996D02*
X002791Y020193D01*
X002594Y020193D01*
X002398Y020390D02*
X002398Y019996D01*
X002496Y019898D01*
X002693Y019898D01*
X002791Y019996D01*
X002791Y020390D02*
X002693Y020488D01*
X002496Y020488D01*
X002398Y020390D01*
X000988Y018753D02*
X000889Y018753D01*
X000496Y019147D01*
X000397Y019147D01*
X000397Y018753D01*
X000496Y018502D02*
X000397Y018404D01*
X000397Y018207D01*
X000496Y018109D01*
X000889Y018109D01*
X000988Y018207D01*
X000988Y018404D01*
X000889Y018502D01*
X000889Y017858D02*
X000496Y017858D01*
X000397Y017759D01*
X000397Y017464D01*
X000988Y017464D01*
X000988Y017759D01*
X000889Y017858D01*
X000988Y017213D02*
X000594Y017213D01*
X000397Y017016D01*
X000594Y016819D01*
X000988Y016819D01*
X000692Y016819D02*
X000692Y017213D01*
X000791Y014147D02*
X000692Y014048D01*
X000692Y013753D01*
X000889Y013753D01*
X000988Y013851D01*
X000988Y014048D01*
X000889Y014147D01*
X000791Y014147D01*
X000496Y013950D02*
X000692Y013753D01*
X000496Y013950D02*
X000397Y014147D01*
X000496Y013502D02*
X000397Y013404D01*
X000397Y013207D01*
X000496Y013109D01*
X000889Y013109D01*
X000988Y013207D01*
X000988Y013404D01*
X000889Y013502D01*
X000889Y012858D02*
X000496Y012858D01*
X000397Y012759D01*
X000397Y012464D01*
X000988Y012464D01*
X000988Y012759D01*
X000889Y012858D01*
X000988Y012213D02*
X000594Y012213D01*
X000397Y012016D01*
X000594Y011819D01*
X000988Y011819D01*
X000692Y011819D02*
X000692Y012213D01*
X000692Y009147D02*
X000889Y009147D01*
X000988Y009048D01*
X000988Y008851D01*
X000889Y008753D01*
X000692Y008753D02*
X000594Y008950D01*
X000594Y009048D01*
X000692Y009147D01*
X000397Y009147D02*
X000397Y008753D01*
X000692Y008753D01*
X000496Y008502D02*
X000397Y008404D01*
X000397Y008207D01*
X000496Y008109D01*
X000889Y008109D01*
X000988Y008207D01*
X000988Y008404D01*
X000889Y008502D01*
X000889Y007858D02*
X000496Y007858D01*
X000397Y007759D01*
X000397Y007464D01*
X000988Y007464D01*
X000988Y007759D01*
X000889Y007858D01*
X000988Y007213D02*
X000594Y007213D01*
X000397Y007016D01*
X000594Y006819D01*
X000988Y006819D01*
X000692Y006819D02*
X000692Y007213D01*
D11*
X001425Y009248D02*
X001740Y009248D01*
X001740Y004681D01*
X001425Y004681D01*
X001425Y009248D01*
X001740Y009248D02*
X004181Y009248D01*
X004181Y004681D01*
X001740Y004681D01*
X003937Y004181D02*
X003937Y001740D01*
X008504Y001740D01*
X008504Y001425D01*
X003937Y001425D01*
X003937Y001740D01*
X003937Y004181D02*
X008504Y004181D01*
X008504Y001740D01*
X008937Y001740D02*
X008937Y001425D01*
X013504Y001425D01*
X013504Y001740D01*
X008937Y001740D01*
X008937Y004181D01*
X013504Y004181D01*
X013504Y001740D01*
X013937Y001740D02*
X013937Y001425D01*
X018504Y001425D01*
X018504Y001740D01*
X013937Y001740D01*
X013937Y004181D01*
X018504Y004181D01*
X018504Y001740D01*
X018937Y001740D02*
X018937Y001425D01*
X023504Y001425D01*
X023504Y001740D01*
X018937Y001740D01*
X018937Y004181D01*
X023504Y004181D01*
X023504Y001740D01*
X023504Y004437D02*
X025945Y004437D01*
X025945Y009004D01*
X026260Y009004D01*
X026260Y004437D01*
X025945Y004437D01*
X023504Y004437D02*
X023504Y009004D01*
X025945Y009004D01*
X025945Y009437D02*
X025945Y014004D01*
X026260Y014004D01*
X026260Y009437D01*
X025945Y009437D01*
X023504Y009437D01*
X023504Y014004D01*
X025945Y014004D01*
X025945Y014437D02*
X025945Y019004D01*
X026260Y019004D01*
X026260Y014437D01*
X025945Y014437D01*
X023504Y014437D01*
X023504Y019004D01*
X025945Y019004D01*
X021083Y009803D02*
X020942Y009803D01*
X020872Y009733D01*
X020872Y009663D01*
X020942Y009593D01*
X021083Y009593D01*
X021153Y009523D01*
X021153Y009453D01*
X021083Y009383D01*
X020942Y009383D01*
X020872Y009453D01*
X020872Y009523D01*
X020942Y009593D01*
X021083Y009593D02*
X021153Y009663D01*
X021153Y009733D01*
X021083Y009803D01*
X020692Y009733D02*
X020692Y009663D01*
X020412Y009383D01*
X020692Y009383D01*
X020232Y009383D02*
X019952Y009383D01*
X020092Y009383D02*
X020092Y009803D01*
X019952Y009663D01*
X019772Y009593D02*
X019772Y009383D01*
X019772Y009593D02*
X019701Y009663D01*
X019491Y009663D01*
X019491Y009383D01*
X019311Y009383D02*
X019311Y009593D01*
X019241Y009663D01*
X019101Y009663D01*
X019101Y009523D02*
X019311Y009523D01*
X019311Y009383D02*
X019101Y009383D01*
X019031Y009453D01*
X019101Y009523D01*
X018851Y009663D02*
X018641Y009663D01*
X018571Y009593D01*
X018571Y009453D01*
X018641Y009383D01*
X018851Y009383D01*
X018391Y009453D02*
X018391Y009733D01*
X018110Y009453D01*
X018180Y009383D01*
X018320Y009383D01*
X018391Y009453D01*
X018391Y009733D02*
X018320Y009803D01*
X018180Y009803D01*
X018110Y009733D01*
X018110Y009453D01*
X017930Y009453D02*
X017860Y009383D01*
X017720Y009383D01*
X017650Y009453D01*
X017720Y009593D02*
X017650Y009663D01*
X017650Y009733D01*
X017720Y009803D01*
X017860Y009803D01*
X017930Y009733D01*
X017930Y009453D01*
X017930Y009593D02*
X017720Y009593D01*
X017483Y009663D02*
X017343Y009663D01*
X017413Y009733D02*
X017413Y009453D01*
X017483Y009383D01*
X017163Y009383D02*
X016953Y009383D01*
X016883Y009453D01*
X016953Y009523D01*
X017163Y009523D01*
X017163Y009593D02*
X017163Y009383D01*
X017163Y009593D02*
X017093Y009663D01*
X016953Y009663D01*
X014143Y009793D02*
X014143Y008493D01*
X014143Y007193D01*
X013943Y007193D01*
X013943Y008493D01*
X014143Y008493D01*
X013643Y008593D02*
X013043Y008593D01*
X013043Y007093D01*
X013643Y007093D01*
X013643Y008593D01*
X012643Y008593D02*
X012043Y008593D01*
X012043Y007093D01*
X012643Y007093D01*
X012643Y008593D01*
X011643Y008593D02*
X011043Y008593D01*
X011043Y007093D01*
X011643Y007093D01*
X011643Y008593D01*
X010643Y008593D02*
X010043Y008593D01*
X010043Y007093D01*
X010643Y007093D01*
X010643Y008593D01*
X009643Y008593D02*
X009043Y008593D01*
X009043Y007093D01*
X009643Y007093D01*
X009643Y008593D01*
X008643Y008593D02*
X008043Y008593D01*
X008043Y007093D01*
X008643Y007093D01*
X008643Y008593D01*
X007643Y008593D02*
X007043Y008593D01*
X007043Y007093D01*
X007643Y007093D01*
X007643Y008593D01*
X006643Y008593D02*
X006043Y008593D01*
X006043Y007093D01*
X006643Y007093D01*
X006643Y008593D01*
X005743Y008493D02*
X005543Y008493D01*
X005543Y007193D01*
X005543Y005893D01*
X014143Y005893D01*
X014143Y007193D01*
X014143Y009793D02*
X005543Y009793D01*
X005543Y008493D01*
X005743Y008493D02*
X005743Y007193D01*
X005543Y007193D01*
X004181Y009681D02*
X001740Y009681D01*
X001740Y014248D01*
X004181Y014248D01*
X004181Y009681D01*
X001740Y009681D02*
X001425Y009681D01*
X001425Y014248D01*
X001740Y014248D01*
X001740Y014681D02*
X001425Y014681D01*
X001425Y019248D01*
X001740Y019248D01*
X001740Y014681D01*
X004181Y014681D01*
X004181Y019248D01*
X001740Y019248D01*
X006571Y019225D02*
X006571Y018949D01*
X007398Y018949D01*
X009288Y018949D02*
X010114Y018949D01*
X010114Y023162D01*
X006571Y023162D01*
X006571Y021075D01*
X007283Y014953D02*
X007493Y014953D01*
X007563Y014883D01*
X007563Y014743D01*
X007493Y014673D01*
X007283Y014673D01*
X007283Y014533D02*
X007283Y014953D01*
X007743Y014883D02*
X007743Y014603D01*
X007813Y014533D01*
X007953Y014533D01*
X008023Y014603D01*
X008203Y014533D02*
X008203Y014813D01*
X008344Y014953D01*
X008484Y014813D01*
X008484Y014533D01*
X008664Y014603D02*
X008664Y014673D01*
X008734Y014743D01*
X008874Y014743D01*
X008944Y014673D01*
X008944Y014603D01*
X008874Y014533D01*
X008734Y014533D01*
X008664Y014603D01*
X008734Y014743D02*
X008664Y014813D01*
X008664Y014883D01*
X008734Y014953D01*
X008874Y014953D01*
X008944Y014883D01*
X008944Y014813D01*
X008874Y014743D01*
X009124Y014883D02*
X009194Y014953D01*
X009334Y014953D01*
X009404Y014883D01*
X009404Y014813D01*
X009124Y014533D01*
X009404Y014533D01*
X008484Y014743D02*
X008203Y014743D01*
X008023Y014883D02*
X007953Y014953D01*
X007813Y014953D01*
X007743Y014883D01*
X020412Y009733D02*
X020482Y009803D01*
X020622Y009803D01*
X020692Y009733D01*
D12*
X019643Y015843D02*
X022043Y015843D01*
X022105Y015845D01*
X022166Y015851D01*
X022227Y015860D01*
X022287Y015873D01*
X022346Y015890D01*
X022404Y015911D01*
X022461Y015935D01*
X022516Y015962D01*
X022569Y015993D01*
X022621Y016027D01*
X022670Y016064D01*
X022717Y016104D01*
X022761Y016147D01*
X022802Y016192D01*
X022841Y016240D01*
X022877Y016291D01*
X022909Y016343D01*
X022938Y016397D01*
X022964Y016453D01*
X022986Y016511D01*
X023005Y016569D01*
X023020Y016629D01*
X023031Y016690D01*
X023039Y016751D01*
X023043Y016812D01*
X023043Y016874D01*
X023039Y016935D01*
X023031Y016996D01*
X023020Y017057D01*
X023005Y017117D01*
X022986Y017175D01*
X022964Y017233D01*
X022938Y017289D01*
X022909Y017343D01*
X022877Y017395D01*
X022841Y017446D01*
X022802Y017494D01*
X022761Y017539D01*
X022717Y017582D01*
X022670Y017622D01*
X022621Y017659D01*
X022569Y017693D01*
X022516Y017724D01*
X022461Y017751D01*
X022404Y017775D01*
X022346Y017796D01*
X022287Y017813D01*
X022227Y017826D01*
X022166Y017835D01*
X022105Y017841D01*
X022043Y017843D01*
X019643Y017843D01*
X019581Y017841D01*
X019520Y017835D01*
X019459Y017826D01*
X019399Y017813D01*
X019340Y017796D01*
X019282Y017775D01*
X019225Y017751D01*
X019170Y017724D01*
X019117Y017693D01*
X019065Y017659D01*
X019016Y017622D01*
X018969Y017582D01*
X018925Y017539D01*
X018884Y017494D01*
X018845Y017446D01*
X018809Y017395D01*
X018777Y017343D01*
X018748Y017289D01*
X018722Y017233D01*
X018700Y017175D01*
X018681Y017117D01*
X018666Y017057D01*
X018655Y016996D01*
X018647Y016935D01*
X018643Y016874D01*
X018643Y016812D01*
X018647Y016751D01*
X018655Y016690D01*
X018666Y016629D01*
X018681Y016569D01*
X018700Y016511D01*
X018722Y016453D01*
X018748Y016397D01*
X018777Y016343D01*
X018809Y016291D01*
X018845Y016240D01*
X018884Y016192D01*
X018925Y016147D01*
X018969Y016104D01*
X019016Y016064D01*
X019065Y016027D01*
X019117Y015993D01*
X019170Y015962D01*
X019225Y015935D01*
X019282Y015911D01*
X019340Y015890D01*
X019399Y015873D01*
X019459Y015860D01*
X019520Y015851D01*
X019581Y015845D01*
X019643Y015843D01*
D13*
X019643Y016043D02*
X022043Y016043D01*
X022099Y016045D01*
X022154Y016051D01*
X022209Y016060D01*
X022264Y016074D01*
X022317Y016091D01*
X022368Y016112D01*
X022419Y016137D01*
X022467Y016165D01*
X022513Y016196D01*
X022557Y016230D01*
X022599Y016268D01*
X022638Y016308D01*
X022673Y016350D01*
X022706Y016396D01*
X022736Y016443D01*
X022762Y016492D01*
X022785Y016543D01*
X022804Y016596D01*
X022819Y016649D01*
X022831Y016704D01*
X022839Y016759D01*
X022843Y016815D01*
X022843Y016871D01*
X022839Y016927D01*
X022831Y016982D01*
X022819Y017037D01*
X022804Y017090D01*
X022785Y017143D01*
X022762Y017194D01*
X022736Y017243D01*
X022706Y017290D01*
X022673Y017336D01*
X022638Y017378D01*
X022599Y017418D01*
X022557Y017456D01*
X022513Y017490D01*
X022467Y017521D01*
X022419Y017549D01*
X022368Y017574D01*
X022317Y017595D01*
X022264Y017612D01*
X022209Y017626D01*
X022154Y017635D01*
X022099Y017641D01*
X022043Y017643D01*
X019643Y017643D01*
X019587Y017641D01*
X019532Y017635D01*
X019477Y017626D01*
X019422Y017612D01*
X019369Y017595D01*
X019318Y017574D01*
X019267Y017549D01*
X019219Y017521D01*
X019173Y017490D01*
X019129Y017456D01*
X019087Y017418D01*
X019048Y017378D01*
X019013Y017336D01*
X018980Y017290D01*
X018950Y017243D01*
X018924Y017194D01*
X018901Y017143D01*
X018882Y017090D01*
X018867Y017037D01*
X018855Y016982D01*
X018847Y016927D01*
X018843Y016871D01*
X018843Y016815D01*
X018847Y016759D01*
X018855Y016704D01*
X018867Y016649D01*
X018882Y016596D01*
X018901Y016543D01*
X018924Y016492D01*
X018950Y016443D01*
X018980Y016396D01*
X019013Y016350D01*
X019048Y016308D01*
X019087Y016268D01*
X019129Y016230D01*
X019173Y016196D01*
X019219Y016165D01*
X019267Y016137D01*
X019318Y016112D01*
X019369Y016091D01*
X019422Y016074D01*
X019477Y016060D01*
X019532Y016051D01*
X019587Y016045D01*
X019643Y016043D01*
X020293Y016843D02*
X020573Y016843D01*
X020573Y016443D01*
X020713Y016443D02*
X020963Y016443D01*
X020963Y017243D01*
X020713Y017243D01*
X020713Y016443D01*
X020573Y016843D02*
X020573Y017243D01*
X021113Y017243D02*
X021113Y016843D01*
X021113Y016443D01*
X021113Y016843D02*
X021393Y016843D01*
X021243Y018793D02*
X021243Y019143D01*
X021843Y019143D01*
X021843Y018793D01*
X022593Y018793D01*
X022593Y022893D01*
X021843Y022893D01*
X021843Y022543D01*
X021243Y022543D01*
X021243Y022893D01*
X016343Y022893D01*
X016343Y018793D01*
X021243Y018793D01*
X020533Y020843D02*
X020535Y020896D01*
X020541Y020949D01*
X020551Y021001D01*
X020565Y021052D01*
X020582Y021102D01*
X020603Y021151D01*
X020628Y021198D01*
X020656Y021243D01*
X020688Y021286D01*
X020723Y021326D01*
X020760Y021363D01*
X020800Y021398D01*
X020843Y021430D01*
X020888Y021458D01*
X020935Y021483D01*
X020984Y021504D01*
X021034Y021521D01*
X021085Y021535D01*
X021137Y021545D01*
X021190Y021551D01*
X021243Y021553D01*
X021296Y021551D01*
X021349Y021545D01*
X021401Y021535D01*
X021452Y021521D01*
X021502Y021504D01*
X021551Y021483D01*
X021598Y021458D01*
X021643Y021430D01*
X021686Y021398D01*
X021726Y021363D01*
X021763Y021326D01*
X021798Y021286D01*
X021830Y021243D01*
X021858Y021198D01*
X021883Y021151D01*
X021904Y021102D01*
X021921Y021052D01*
X021935Y021001D01*
X021945Y020949D01*
X021951Y020896D01*
X021953Y020843D01*
X021951Y020790D01*
X021945Y020737D01*
X021935Y020685D01*
X021921Y020634D01*
X021904Y020584D01*
X021883Y020535D01*
X021858Y020488D01*
X021830Y020443D01*
X021798Y020400D01*
X021763Y020360D01*
X021726Y020323D01*
X021686Y020288D01*
X021643Y020256D01*
X021598Y020228D01*
X021551Y020203D01*
X021502Y020182D01*
X021452Y020165D01*
X021401Y020151D01*
X021349Y020141D01*
X021296Y020135D01*
X021243Y020133D01*
X021190Y020135D01*
X021137Y020141D01*
X021085Y020151D01*
X021034Y020165D01*
X020984Y020182D01*
X020935Y020203D01*
X020888Y020228D01*
X020843Y020256D01*
X020800Y020288D01*
X020760Y020323D01*
X020723Y020360D01*
X020688Y020400D01*
X020656Y020443D01*
X020628Y020488D01*
X020603Y020535D01*
X020582Y020584D01*
X020565Y020634D01*
X020551Y020685D01*
X020541Y020737D01*
X020535Y020790D01*
X020533Y020843D01*
X018093Y016843D02*
X017593Y016843D01*
X017343Y016593D01*
X017093Y016843D01*
X016593Y016843D01*
X016343Y016593D01*
X016093Y016843D01*
X015593Y016843D01*
X015343Y016593D01*
X015343Y016093D01*
X015593Y015843D01*
X016093Y015843D01*
X016343Y016093D01*
X016343Y016593D01*
X016343Y016093D02*
X016593Y015843D01*
X017093Y015843D01*
X017343Y016093D01*
X017343Y016593D01*
X017343Y016093D02*
X017593Y015843D01*
X018093Y015843D01*
X018343Y016093D01*
X018343Y016593D01*
X018093Y016843D01*
X018693Y015343D02*
X015993Y015343D01*
X015976Y015341D01*
X015959Y015337D01*
X015943Y015330D01*
X015929Y015320D01*
X015916Y015307D01*
X015906Y015293D01*
X015899Y015277D01*
X015895Y015260D01*
X015893Y015243D01*
X015893Y014443D01*
X015895Y014426D01*
X015899Y014409D01*
X015906Y014393D01*
X015916Y014379D01*
X015929Y014366D01*
X015943Y014356D01*
X015959Y014349D01*
X015976Y014345D01*
X015993Y014343D01*
X018693Y014343D01*
X018710Y014345D01*
X018727Y014349D01*
X018743Y014356D01*
X018757Y014366D01*
X018770Y014379D01*
X018780Y014393D01*
X018787Y014409D01*
X018791Y014426D01*
X018793Y014443D01*
X018793Y015243D01*
X018791Y015260D01*
X018787Y015277D01*
X018780Y015293D01*
X018770Y015307D01*
X018757Y015320D01*
X018743Y015330D01*
X018727Y015337D01*
X018710Y015341D01*
X018693Y015343D01*
X017943Y014843D02*
X017473Y014843D01*
X017223Y014843D02*
X016743Y014843D01*
X016993Y014343D02*
X019693Y014343D01*
X019710Y014341D01*
X019727Y014337D01*
X019743Y014330D01*
X019757Y014320D01*
X019770Y014307D01*
X019780Y014293D01*
X019787Y014277D01*
X019791Y014260D01*
X019793Y014243D01*
X019793Y013443D01*
X019791Y013426D01*
X019787Y013409D01*
X019780Y013393D01*
X019770Y013379D01*
X019757Y013366D01*
X019743Y013356D01*
X019727Y013349D01*
X019710Y013345D01*
X019693Y013343D01*
X016993Y013343D01*
X016976Y013345D01*
X016959Y013349D01*
X016943Y013356D01*
X016929Y013366D01*
X016916Y013379D01*
X016906Y013393D01*
X016899Y013409D01*
X016895Y013426D01*
X016893Y013443D01*
X016893Y014243D01*
X016895Y014260D01*
X016899Y014277D01*
X016906Y014293D01*
X016916Y014307D01*
X016929Y014320D01*
X016943Y014330D01*
X016959Y014337D01*
X016976Y014341D01*
X016993Y014343D01*
X017743Y013843D02*
X018223Y013843D01*
X018473Y013843D02*
X018943Y013843D01*
X020493Y014093D02*
X020495Y014119D01*
X020500Y014145D01*
X020508Y014170D01*
X020520Y014193D01*
X020534Y014215D01*
X020552Y014234D01*
X020571Y014252D01*
X020593Y014266D01*
X020616Y014278D01*
X020641Y014286D01*
X020667Y014291D01*
X020693Y014293D01*
X021993Y014293D01*
X022019Y014291D01*
X022045Y014286D01*
X022070Y014278D01*
X022093Y014266D01*
X022115Y014252D01*
X022134Y014234D01*
X022152Y014215D01*
X022166Y014193D01*
X022178Y014170D01*
X022186Y014145D01*
X022191Y014119D01*
X022193Y014093D01*
X021843Y013843D02*
X021463Y013843D01*
X021213Y013843D02*
X020843Y013843D01*
X020493Y013593D02*
X020495Y013567D01*
X020500Y013541D01*
X020508Y013516D01*
X020520Y013493D01*
X020534Y013471D01*
X020552Y013452D01*
X020571Y013434D01*
X020593Y013420D01*
X020616Y013408D01*
X020641Y013400D01*
X020667Y013395D01*
X020693Y013393D01*
X021993Y013393D01*
X022019Y013395D01*
X022045Y013400D01*
X022070Y013408D01*
X022093Y013420D01*
X022115Y013434D01*
X022134Y013452D01*
X022152Y013471D01*
X022166Y013493D01*
X022178Y013516D01*
X022186Y013541D01*
X022191Y013567D01*
X022193Y013593D01*
X021613Y012113D02*
X021613Y006743D01*
X021443Y006573D01*
X016073Y006573D01*
X016073Y012113D01*
X021613Y012113D01*
X020938Y007028D02*
X020940Y007057D01*
X020946Y007086D01*
X020955Y007114D01*
X020969Y007140D01*
X020985Y007164D01*
X021005Y007186D01*
X021028Y007205D01*
X021052Y007221D01*
X021079Y007233D01*
X021107Y007242D01*
X021136Y007247D01*
X021165Y007248D01*
X021195Y007245D01*
X021223Y007238D01*
X021251Y007228D01*
X021276Y007213D01*
X021300Y007196D01*
X021321Y007176D01*
X021339Y007153D01*
X021354Y007127D01*
X021366Y007100D01*
X021374Y007072D01*
X021378Y007043D01*
X021378Y007013D01*
X021374Y006984D01*
X021366Y006956D01*
X021354Y006929D01*
X021339Y006903D01*
X021321Y006880D01*
X021300Y006860D01*
X021276Y006843D01*
X021251Y006828D01*
X021223Y006818D01*
X021195Y006811D01*
X021165Y006808D01*
X021136Y006809D01*
X021107Y006814D01*
X021079Y006823D01*
X021052Y006835D01*
X021028Y006851D01*
X021005Y006870D01*
X020985Y006892D01*
X020969Y006916D01*
X020955Y006942D01*
X020946Y006970D01*
X020940Y006999D01*
X020938Y007028D01*
X022193Y006343D02*
X022193Y005043D01*
X022195Y005017D01*
X022200Y004991D01*
X022208Y004966D01*
X022220Y004943D01*
X022234Y004921D01*
X022252Y004902D01*
X022271Y004884D01*
X022293Y004870D01*
X022316Y004858D01*
X022341Y004850D01*
X022367Y004845D01*
X022393Y004843D01*
X022643Y005193D02*
X022643Y005563D01*
X022643Y005813D02*
X022643Y006193D01*
X022893Y006543D02*
X022919Y006541D01*
X022945Y006536D01*
X022970Y006528D01*
X022993Y006516D01*
X023015Y006502D01*
X023034Y006484D01*
X023052Y006465D01*
X023066Y006443D01*
X023078Y006420D01*
X023086Y006395D01*
X023091Y006369D01*
X023093Y006343D01*
X023093Y005043D01*
X023091Y005017D01*
X023086Y004991D01*
X023078Y004966D01*
X023066Y004943D01*
X023052Y004921D01*
X023034Y004902D01*
X023015Y004884D01*
X022993Y004870D01*
X022970Y004858D01*
X022945Y004850D01*
X022919Y004845D01*
X022893Y004843D01*
X022193Y006343D02*
X022195Y006369D01*
X022200Y006395D01*
X022208Y006420D01*
X022220Y006443D01*
X022234Y006465D01*
X022252Y006484D01*
X022271Y006502D01*
X022293Y006516D01*
X022316Y006528D01*
X022341Y006536D01*
X022367Y006541D01*
X022393Y006543D01*
X013043Y013293D02*
X013043Y013793D01*
X012793Y014043D01*
X013043Y014293D01*
X013043Y014793D01*
X012793Y015043D01*
X012293Y015043D01*
X012043Y014793D01*
X012043Y014293D01*
X012293Y014043D01*
X012793Y014043D01*
X012293Y014043D02*
X012043Y013793D01*
X012043Y013293D01*
X012293Y013043D01*
X012793Y013043D01*
X013043Y013293D01*
X011293Y013693D02*
X011293Y014993D01*
X011291Y015019D01*
X011286Y015045D01*
X011278Y015070D01*
X011266Y015093D01*
X011252Y015115D01*
X011234Y015134D01*
X011215Y015152D01*
X011193Y015166D01*
X011170Y015178D01*
X011145Y015186D01*
X011119Y015191D01*
X011093Y015193D01*
X010843Y014843D02*
X010843Y014463D01*
X010843Y014213D02*
X010843Y013843D01*
X011093Y013493D02*
X011119Y013495D01*
X011145Y013500D01*
X011170Y013508D01*
X011193Y013520D01*
X011215Y013534D01*
X011234Y013552D01*
X011252Y013571D01*
X011266Y013593D01*
X011278Y013616D01*
X011286Y013641D01*
X011291Y013667D01*
X011293Y013693D01*
X010593Y013493D02*
X010567Y013495D01*
X010541Y013500D01*
X010516Y013508D01*
X010493Y013520D01*
X010471Y013534D01*
X010452Y013552D01*
X010434Y013571D01*
X010420Y013593D01*
X010408Y013616D01*
X010400Y013641D01*
X010395Y013667D01*
X010393Y013693D01*
X010393Y014993D01*
X010395Y015019D01*
X010400Y015045D01*
X010408Y015070D01*
X010420Y015093D01*
X010434Y015115D01*
X010452Y015134D01*
X010471Y015152D01*
X010493Y015166D01*
X010516Y015178D01*
X010541Y015186D01*
X010567Y015191D01*
X010593Y015193D01*
X009743Y015443D02*
X009743Y014593D01*
X009713Y014591D01*
X009683Y014586D01*
X009654Y014577D01*
X009627Y014564D01*
X009601Y014549D01*
X009577Y014530D01*
X009556Y014509D01*
X009537Y014485D01*
X009522Y014459D01*
X009509Y014432D01*
X009500Y014403D01*
X009495Y014373D01*
X009493Y014343D01*
X009495Y014313D01*
X009500Y014283D01*
X009509Y014254D01*
X009522Y014227D01*
X009537Y014201D01*
X009556Y014177D01*
X009577Y014156D01*
X009601Y014137D01*
X009627Y014122D01*
X009654Y014109D01*
X009683Y014100D01*
X009713Y014095D01*
X009743Y014093D01*
X009743Y013243D01*
X005743Y013243D01*
X005743Y015443D01*
X009743Y015443D01*
X010893Y016643D02*
X010843Y016693D01*
X010843Y020493D01*
X010863Y020493D01*
X010863Y016693D01*
X010893Y016643D02*
X010893Y020543D01*
X010843Y020493D01*
X010893Y020543D02*
X010943Y020593D01*
X010963Y020593D01*
X010963Y020743D01*
X010943Y020743D01*
X010893Y020793D01*
X010893Y021043D01*
X010843Y020993D01*
X010863Y020993D01*
X010863Y020843D01*
X010843Y020843D02*
X010843Y020993D01*
X010893Y021043D02*
X010943Y021093D01*
X012743Y021093D01*
X012743Y020743D01*
X012743Y020593D01*
X012743Y016593D01*
X010943Y016593D01*
X010893Y016643D01*
X011843Y016793D02*
X011843Y019593D01*
X011843Y020093D02*
X011343Y020093D01*
X011343Y019893D01*
X012343Y019893D01*
X012343Y020093D01*
X011843Y020093D01*
X011843Y020443D01*
X012093Y020343D02*
X012293Y020343D01*
X012193Y020443D02*
X012193Y020243D01*
X012643Y020593D02*
X010993Y020593D01*
X010993Y020743D01*
X010963Y020743D01*
X010943Y020743D02*
X010943Y020593D01*
X010963Y020593D02*
X010993Y020593D01*
X010993Y020743D02*
X012643Y020743D01*
X012643Y020593D01*
X012743Y020593D01*
X012843Y020493D01*
X012843Y016693D01*
X012743Y016593D01*
X014193Y017393D02*
X015493Y017393D01*
X015519Y017395D01*
X015545Y017400D01*
X015570Y017408D01*
X015593Y017420D01*
X015615Y017434D01*
X015634Y017452D01*
X015652Y017471D01*
X015666Y017493D01*
X015678Y017516D01*
X015686Y017541D01*
X015691Y017567D01*
X015693Y017593D01*
X015343Y017843D02*
X014963Y017843D01*
X014713Y017843D02*
X014343Y017843D01*
X013993Y018093D02*
X013995Y018119D01*
X014000Y018145D01*
X014008Y018170D01*
X014020Y018193D01*
X014034Y018215D01*
X014052Y018234D01*
X014071Y018252D01*
X014093Y018266D01*
X014116Y018278D01*
X014141Y018286D01*
X014167Y018291D01*
X014193Y018293D01*
X015493Y018293D01*
X015519Y018291D01*
X015545Y018286D01*
X015570Y018278D01*
X015593Y018266D01*
X015615Y018252D01*
X015634Y018234D01*
X015652Y018215D01*
X015666Y018193D01*
X015678Y018170D01*
X015686Y018145D01*
X015691Y018119D01*
X015693Y018093D01*
X014193Y017393D02*
X014167Y017395D01*
X014141Y017400D01*
X014116Y017408D01*
X014093Y017420D01*
X014071Y017434D01*
X014052Y017452D01*
X014034Y017471D01*
X014020Y017493D01*
X014008Y017516D01*
X014000Y017541D01*
X013995Y017567D01*
X013993Y017593D01*
X013793Y020193D02*
X013793Y021493D01*
X013791Y021519D01*
X013786Y021545D01*
X013778Y021570D01*
X013766Y021593D01*
X013752Y021615D01*
X013734Y021634D01*
X013715Y021652D01*
X013693Y021666D01*
X013670Y021678D01*
X013645Y021686D01*
X013619Y021691D01*
X013593Y021693D01*
X013343Y021343D02*
X013343Y020963D01*
X013343Y020713D02*
X013343Y020343D01*
X013593Y019993D02*
X013619Y019995D01*
X013645Y020000D01*
X013670Y020008D01*
X013693Y020020D01*
X013715Y020034D01*
X013734Y020052D01*
X013752Y020071D01*
X013766Y020093D01*
X013778Y020116D01*
X013786Y020141D01*
X013791Y020167D01*
X013793Y020193D01*
X013093Y019993D02*
X013067Y019995D01*
X013041Y020000D01*
X013016Y020008D01*
X012993Y020020D01*
X012971Y020034D01*
X012952Y020052D01*
X012934Y020071D01*
X012920Y020093D01*
X012908Y020116D01*
X012900Y020141D01*
X012895Y020167D01*
X012893Y020193D01*
X012893Y021493D01*
X012895Y021519D01*
X012900Y021545D01*
X012908Y021570D01*
X012920Y021593D01*
X012934Y021615D01*
X012952Y021634D01*
X012971Y021652D01*
X012993Y021666D01*
X013016Y021678D01*
X013041Y021686D01*
X013067Y021691D01*
X013093Y021693D01*
X012743Y021093D02*
X012843Y020993D01*
X012843Y020843D01*
X012743Y020743D01*
X012643Y020743D01*
X010893Y020793D02*
X010843Y020843D01*
X008593Y017943D02*
X008593Y016943D01*
X006993Y016943D01*
X006993Y017943D01*
X008593Y017943D01*
X008043Y017443D02*
X007793Y017443D01*
X007793Y017693D01*
X007793Y017443D02*
X007793Y017193D01*
X007793Y017443D02*
X007393Y017193D01*
X007393Y017693D01*
X007793Y017443D01*
X007193Y017443D01*
D14*
X010543Y014463D02*
X010843Y014463D01*
X011143Y014463D01*
X011143Y014213D02*
X010843Y014213D01*
X010543Y014213D01*
X012793Y016693D02*
X012793Y020493D01*
X012693Y020643D02*
X012693Y020693D01*
X012793Y020843D02*
X012793Y020993D01*
X013043Y020963D02*
X013343Y020963D01*
X013643Y020963D01*
X013643Y020713D02*
X013343Y020713D01*
X013043Y020713D01*
X014713Y018143D02*
X014713Y017843D01*
X014713Y017543D01*
X014963Y017543D02*
X014963Y017843D01*
X014963Y018143D01*
X017223Y015093D02*
X017223Y014843D01*
X017223Y014593D01*
X017473Y014593D02*
X017473Y014843D01*
X017473Y015093D01*
X018223Y014093D02*
X018223Y013843D01*
X018223Y013593D01*
X018473Y013593D02*
X018473Y013843D01*
X018473Y014093D01*
X021213Y014143D02*
X021213Y013843D01*
X021213Y013543D01*
X021463Y013543D02*
X021463Y013843D01*
X021463Y014143D01*
X022343Y005813D02*
X022643Y005813D01*
X022943Y005813D01*
X022943Y005563D02*
X022643Y005563D01*
X022343Y005563D01*
D15*
X008343Y017443D03*
D16*
X008968Y017443D03*
X006618Y017443D03*
D17*
X022843Y019843D02*
X024843Y019843D01*
X024843Y022843D01*
X022843Y022843D01*
X022843Y019843D01*
D18*
X011843Y019643D03*
D19*
X011843Y021243D03*
X011843Y016443D03*
D20*
X016593Y019043D02*
X019843Y019043D01*
X019843Y022643D01*
X016593Y022643D01*
X016593Y019043D01*
D21*
X019962Y020335D02*
X020079Y020452D01*
X020313Y020452D01*
X020313Y020578D02*
X020313Y020811D01*
X020313Y020694D02*
X019962Y020694D01*
X020079Y020578D01*
X020138Y020452D02*
X020138Y020219D01*
X020079Y020219D02*
X019962Y020335D01*
X020079Y020219D02*
X020313Y020219D01*
X020254Y020937D02*
X020313Y020995D01*
X020313Y021112D01*
X020254Y021170D01*
X020138Y021170D01*
X020079Y021112D01*
X020079Y021054D01*
X020138Y020937D01*
X019962Y020937D01*
X019962Y021170D01*
X020254Y021354D02*
X020254Y021413D01*
X020313Y021413D01*
X020313Y021354D01*
X020254Y021354D01*
X020313Y021413D02*
X020429Y021296D01*
X020313Y021535D02*
X020079Y021769D01*
X020021Y021769D01*
X019962Y021710D01*
X019962Y021594D01*
X020021Y021535D01*
X020313Y021535D02*
X020313Y021769D01*
X020313Y021894D02*
X020079Y021894D01*
X020079Y021953D01*
X020138Y022011D01*
X020079Y022070D01*
X020138Y022128D01*
X020313Y022128D01*
X020313Y022011D02*
X020138Y022011D01*
X020079Y022254D02*
X020079Y022312D01*
X020138Y022370D01*
X020079Y022429D01*
X020138Y022487D01*
X020313Y022487D01*
X020313Y022370D02*
X020138Y022370D01*
X020079Y022254D02*
X020313Y022254D01*
D22*
X016168Y021843D03*
X016168Y020843D03*
X016168Y019843D03*
D23*
X013343Y008418D03*
X013343Y008168D03*
X013343Y007918D03*
X012343Y007918D03*
X012343Y008168D03*
X012343Y008418D03*
X011343Y008418D03*
X011343Y008168D03*
X011343Y007918D03*
X010343Y007918D03*
X010343Y008168D03*
X010343Y008418D03*
X009343Y008418D03*
X009343Y008168D03*
X009343Y007918D03*
X008343Y007918D03*
X008343Y008168D03*
X008343Y008418D03*
X007343Y008418D03*
X007343Y008168D03*
X007343Y007918D03*
X006343Y007918D03*
X006343Y008168D03*
X006343Y008418D03*
M02*
