%
M48
M72
T01C0.0200
T02C0.0320
T03C0.0382
T04C0.0394
T05C0.0400
T06C0.0440
T07C0.0472
T08C0.1180
T09C0.1260
T10C0.1300
%
T01
X3843Y5843
X6843Y3843
X11843Y3843
X16993Y3343
X17493Y5543
X18843Y7843
X20843Y8343
X22843Y10843
X23843Y11343
X22943Y12043
X23343Y13843
X21843Y14843
X23843Y16343
X25393Y12343
X26343Y8343
X26693Y7193
X25443Y6093
X24043Y6543
X24043Y7593
X21843Y3843
X20843Y3843
X14343Y11343
X15843Y12843
X15343Y13843
X14343Y14843
X12843Y16343
X17543Y13093
X6843Y14343
X3843Y15843
X4843Y17843
X4343Y18343
X3843Y10843
T02
X6243Y12843
X7243Y12843
X8243Y12843
X9243Y12843
X10843Y13343
X10843Y15343
X11843Y15843
X13843Y17843
X15843Y17843
X13343Y19843
X13343Y21843
X11843Y21843
X9243Y15843
X8243Y15843
X7243Y15843
X6243Y15843
X16343Y14843
X17343Y13843
X18343Y14843
X19343Y13843
X20343Y13843
X22343Y13843
X21793Y16843
X19893Y16843
X22643Y6693
X22643Y4693
T03
X13343Y6343
X12343Y6343
X11343Y6343
X10343Y6343
X9343Y6343
X8343Y6343
X7343Y6343
X6343Y6343
X6343Y9343
X7343Y9343
X8343Y9343
X9343Y9343
X10343Y9343
X11343Y9343
X12343Y9343
X13343Y9343
T04
X4193Y20549
X4193Y21730
X3012Y21730
X3012Y20549
T05
X12543Y14543
X12543Y13543
X15843Y16343
X16843Y16343
X17843Y16343
X15343Y19843
X15343Y20843
X15343Y21843
X23343Y22343
X24343Y22343
X24343Y21343
X23343Y21343
X23343Y20343
X24343Y20343
T06
X9793Y17443
X5793Y17443
T07
X2843Y16965
X2843Y18343
X2843Y15587
X2843Y13343
X2843Y11965
X2843Y10587
X2843Y8343
X2843Y6965
X2843Y5587
X4843Y2843
X6221Y2843
X7599Y2843
X9843Y2843
X11221Y2843
X12599Y2843
X14843Y2843
X16221Y2843
X17599Y2843
X19843Y2843
X21221Y2843
X22599Y2843
X24843Y5343
X24843Y6721
X24843Y8099
X24843Y10343
X24843Y11721
X24843Y13099
X24843Y15343
X24843Y16721
X24843Y18099
T08
X8343Y18949
X6492Y20130
X8343Y21311
T09
X1240Y21140
T10
X1843Y1843
X21243Y20843
X25843Y21843
X25843Y1843
M30
