G75*
G70*
%OFA0B0*%
%FSLAX24Y24*%
%IPPOS*%
%LPD*%
%AMOC8*
5,1,8,0,0,1.08239X$1,22.5*
%
%ADD10C,0.0120*%
%ADD11C,0.0640*%
%ADD12OC8,0.0710*%
%ADD13C,0.0760*%
%ADD14R,0.0300X0.0550*%
%ADD15R,0.0550X0.0300*%
%ADD16C,0.0640*%
%ADD17C,0.1080*%
%ADD18C,0.1340*%
%ADD19C,0.0720*%
%ADD20R,0.0720X0.0720*%
%ADD21OC8,0.0720*%
%ADD22C,0.0930*%
%ADD23OC8,0.0930*%
%ADD24OC8,0.0640*%
%ADD25C,0.1380*%
%ADD26R,0.0880X0.0880*%
%ADD27C,0.0880*%
%ADD28C,0.0702*%
%ADD29C,0.1660*%
%ADD30R,0.0440X0.0440*%
D10*
X016493Y018593D02*
X016343Y018743D01*
X016343Y022943D01*
X016343Y022843D01*
X016343Y022943D01*
X016543Y023143D01*
X022493Y023143D01*
X022693Y022943D01*
X022693Y018743D01*
X022543Y018593D01*
X016493Y018593D01*
X016487Y018598D02*
X022548Y018598D01*
X022667Y018717D02*
X016368Y018717D01*
X016343Y018835D02*
X022693Y018835D01*
X022693Y018954D02*
X016343Y018954D01*
X016343Y019073D02*
X022693Y019073D01*
X022693Y019191D02*
X016343Y019191D01*
X016343Y019310D02*
X022693Y019310D01*
X022693Y019428D02*
X016343Y019428D01*
X016343Y019547D02*
X022693Y019547D01*
X022693Y019665D02*
X016343Y019665D01*
X016343Y019784D02*
X022693Y019784D01*
X022693Y019902D02*
X016343Y019902D01*
X016343Y020021D02*
X022693Y020021D01*
X022693Y020139D02*
X016343Y020139D01*
X016343Y020258D02*
X022693Y020258D01*
X022693Y020376D02*
X016343Y020376D01*
X016343Y020495D02*
X022693Y020495D01*
X022693Y020614D02*
X016343Y020614D01*
X016343Y020732D02*
X022693Y020732D01*
X022693Y020851D02*
X016343Y020851D01*
X016343Y020969D02*
X022693Y020969D01*
X022693Y021088D02*
X016343Y021088D01*
X016343Y021206D02*
X022693Y021206D01*
X022693Y021325D02*
X016343Y021325D01*
X016343Y021443D02*
X022693Y021443D01*
X022693Y021562D02*
X016343Y021562D01*
X016343Y021680D02*
X022693Y021680D01*
X022693Y021799D02*
X016343Y021799D01*
X016343Y021918D02*
X022693Y021918D01*
X022693Y022036D02*
X016343Y022036D01*
X016343Y022155D02*
X022693Y022155D01*
X022693Y022273D02*
X016343Y022273D01*
X016343Y022392D02*
X022693Y022392D01*
X022693Y022510D02*
X016343Y022510D01*
X016343Y022629D02*
X022693Y022629D01*
X022693Y022747D02*
X016343Y022747D01*
X016343Y022866D02*
X022693Y022866D01*
X022651Y022984D02*
X016384Y022984D01*
X016503Y023103D02*
X022532Y023103D01*
D11*
X021793Y016843D03*
X019893Y016843D03*
D12*
X018343Y014843D03*
X019343Y013843D03*
X017343Y013843D03*
X016343Y014843D03*
D13*
X009793Y017443D03*
X005793Y017443D03*
D14*
X016480Y012414D03*
X016795Y012414D03*
X017110Y012414D03*
X017425Y012414D03*
X017740Y012414D03*
X018055Y012414D03*
X018370Y012414D03*
X018685Y012414D03*
X019000Y012414D03*
X019315Y012414D03*
X019630Y012414D03*
X019945Y012414D03*
X020260Y012414D03*
X020575Y012414D03*
X020890Y012414D03*
X021205Y012414D03*
X021205Y006272D03*
X020890Y006272D03*
X020575Y006272D03*
X020260Y006272D03*
X019945Y006272D03*
X019630Y006272D03*
X019315Y006272D03*
X019000Y006272D03*
X018685Y006272D03*
X018370Y006272D03*
X018055Y006272D03*
X017740Y006272D03*
X017425Y006272D03*
X017110Y006272D03*
X016795Y006272D03*
X016480Y006272D03*
D15*
X015772Y006980D03*
X015772Y007295D03*
X015772Y007610D03*
X015772Y007925D03*
X015772Y008240D03*
X015772Y008555D03*
X015772Y008870D03*
X015772Y009185D03*
X015772Y009500D03*
X015772Y009815D03*
X015772Y010130D03*
X015772Y010445D03*
X015772Y010760D03*
X015772Y011075D03*
X015772Y011390D03*
X015772Y011705D03*
X021914Y011705D03*
X021914Y011390D03*
X021914Y011075D03*
X021914Y010760D03*
X021914Y010445D03*
X021914Y010130D03*
X021914Y009815D03*
X021914Y009500D03*
X021914Y009185D03*
X021914Y008870D03*
X021914Y008555D03*
X021914Y008240D03*
X021914Y007925D03*
X021914Y007610D03*
X021914Y007295D03*
X021914Y006980D03*
D16*
X009243Y012563D02*
X009243Y013123D01*
X008243Y013123D02*
X008243Y012563D01*
X007243Y012563D02*
X007243Y013123D01*
X006243Y013123D02*
X006243Y012563D01*
X006243Y015563D02*
X006243Y016123D01*
X007243Y016123D02*
X007243Y015563D01*
X008243Y015563D02*
X008243Y016123D01*
X009243Y016123D02*
X009243Y015563D01*
D17*
X004193Y020549D03*
X004193Y021730D03*
X003012Y021730D03*
X003012Y020549D03*
D18*
X001240Y021140D03*
D19*
X012223Y014543D02*
X012863Y014543D01*
X012863Y013543D02*
X012223Y013543D01*
X015843Y016023D02*
X015843Y016663D01*
X016843Y016663D02*
X016843Y016023D01*
X017843Y016023D02*
X017843Y016663D01*
X015663Y019843D02*
X015023Y019843D01*
X015023Y020843D02*
X015663Y020843D01*
X015663Y021843D02*
X015023Y021843D01*
D20*
X024343Y020343D03*
D21*
X023343Y020343D03*
X023343Y021343D03*
X024343Y021343D03*
X024343Y022343D03*
X023343Y022343D03*
D22*
X011843Y021843D03*
D23*
X011843Y015843D03*
D24*
X010843Y015343D03*
X010843Y013343D03*
X013843Y017843D03*
X015843Y017843D03*
X013343Y019843D03*
X013343Y021843D03*
X020343Y013843D03*
X022343Y013843D03*
X022643Y006693D03*
X022643Y004693D03*
D25*
X001843Y001843D03*
X021243Y020843D03*
X025843Y021843D03*
X025843Y001843D03*
D26*
X024843Y005343D03*
X019843Y002843D03*
X014843Y002843D03*
X009843Y002843D03*
X004843Y002843D03*
X002843Y008343D03*
X002843Y013343D03*
X002843Y018343D03*
X024843Y015343D03*
X024843Y010343D03*
D27*
X024843Y011721D03*
X024843Y013099D03*
X024843Y016721D03*
X024843Y018099D03*
X024843Y008099D03*
X024843Y006721D03*
X022599Y002843D03*
X021221Y002843D03*
X017599Y002843D03*
X016221Y002843D03*
X012599Y002843D03*
X011221Y002843D03*
X007599Y002843D03*
X006221Y002843D03*
X002843Y005587D03*
X002843Y006965D03*
X002843Y010587D03*
X002843Y011965D03*
X002843Y015587D03*
X002843Y016965D03*
D28*
X006343Y009654D02*
X006343Y009032D01*
X007343Y009032D02*
X007343Y009654D01*
X008343Y009654D02*
X008343Y009032D01*
X009343Y009032D02*
X009343Y009654D01*
X010343Y009654D02*
X010343Y009032D01*
X011343Y009032D02*
X011343Y009654D01*
X012343Y009654D02*
X012343Y009032D01*
X013343Y009032D02*
X013343Y009654D01*
X013343Y006654D02*
X013343Y006032D01*
X012343Y006032D02*
X012343Y006654D01*
X011343Y006654D02*
X011343Y006032D01*
X010343Y006032D02*
X010343Y006654D01*
X009343Y006654D02*
X009343Y006032D01*
X008343Y006032D02*
X008343Y006654D01*
X007343Y006654D02*
X007343Y006032D01*
X006343Y006032D02*
X006343Y006654D01*
D29*
X008343Y018949D03*
X006492Y020130D03*
X008343Y021311D03*
D30*
X004843Y017843D03*
X004343Y018343D03*
X003843Y015843D03*
X006843Y014343D03*
X003843Y010843D03*
X003843Y005843D03*
X006843Y003843D03*
X011843Y003843D03*
X016993Y003343D03*
X017493Y005543D03*
X018843Y007843D03*
X020843Y008343D03*
X022843Y010843D03*
X023843Y011343D03*
X022943Y012043D03*
X023343Y013843D03*
X021843Y014843D03*
X023843Y016343D03*
X025393Y012343D03*
X026343Y008343D03*
X026693Y007193D03*
X025443Y006093D03*
X024043Y006543D03*
X024043Y007593D03*
X021843Y003843D03*
X020843Y003843D03*
X014343Y011343D03*
X015843Y012843D03*
X015343Y013843D03*
X014343Y014843D03*
X012843Y016343D03*
X017543Y013093D03*
M02*
