G75*
G70*
%OFA0B0*%
%FSLAX24Y24*%
%IPPOS*%
%LPD*%
%AMOC8*
5,1,8,0,0,1.08239X$1,22.5*
%
%ADD10C,0.0520*%
%ADD11OC8,0.0630*%
%ADD12C,0.0660*%
%ADD13C,0.0520*%
%ADD14C,0.1000*%
%ADD15C,0.0600*%
%ADD16R,0.0600X0.0600*%
%ADD17OC8,0.0600*%
%ADD18C,0.0850*%
%ADD19OC8,0.0850*%
%ADD20OC8,0.0520*%
%ADD21R,0.0800X0.0800*%
%ADD22C,0.0800*%
%ADD23R,0.0433X0.0394*%
%ADD24C,0.0582*%
%ADD25R,0.0394X0.0433*%
%ADD26C,0.1580*%
%ADD27C,0.0160*%
%ADD28C,0.0240*%
%ADD29R,0.0360X0.0360*%
%ADD30C,0.0120*%
D10*
X019893Y016843D03*
X021793Y016843D03*
D11*
X019343Y013843D03*
X018343Y014843D03*
X017343Y013843D03*
X016343Y014843D03*
D12*
X009793Y017443D03*
X005793Y017443D03*
D13*
X006243Y016103D02*
X006243Y015583D01*
X007243Y015583D02*
X007243Y016103D01*
X008243Y016103D02*
X008243Y015583D01*
X009243Y015583D02*
X009243Y016103D01*
X009243Y013103D02*
X009243Y012583D01*
X008243Y012583D02*
X008243Y013103D01*
X007243Y013103D02*
X007243Y012583D01*
X006243Y012583D02*
X006243Y013103D01*
D14*
X004193Y020549D03*
X004193Y021730D03*
X003012Y021730D03*
X003012Y020549D03*
D15*
X012243Y014543D02*
X012843Y014543D01*
X012843Y013543D02*
X012243Y013543D01*
X015843Y016043D02*
X015843Y016643D01*
X016843Y016643D02*
X016843Y016043D01*
X017843Y016043D02*
X017843Y016643D01*
X015643Y019843D02*
X015043Y019843D01*
X015043Y020843D02*
X015643Y020843D01*
X015643Y021843D02*
X015043Y021843D01*
D16*
X024343Y020343D03*
D17*
X023343Y020343D03*
X023343Y021343D03*
X024343Y021343D03*
X024343Y022343D03*
X023343Y022343D03*
D18*
X011843Y021843D03*
D19*
X011843Y015843D03*
D20*
X010843Y015343D03*
X010843Y013343D03*
X013843Y017843D03*
X015843Y017843D03*
X013343Y019843D03*
X013343Y021843D03*
X020343Y013843D03*
X022343Y013843D03*
X022643Y006693D03*
X022643Y004693D03*
D21*
X024843Y005343D03*
X019843Y002843D03*
X014843Y002843D03*
X009843Y002843D03*
X004843Y002843D03*
X002843Y008343D03*
X002843Y013343D03*
X002843Y018343D03*
X024843Y015343D03*
X024843Y010343D03*
D22*
X024843Y011721D03*
X024843Y013099D03*
X024843Y016721D03*
X024843Y018099D03*
X024843Y008099D03*
X024843Y006721D03*
X022599Y002843D03*
X021221Y002843D03*
X017599Y002843D03*
X016221Y002843D03*
X012599Y002843D03*
X011221Y002843D03*
X007599Y002843D03*
X006221Y002843D03*
X002843Y005587D03*
X002843Y006965D03*
X002843Y010587D03*
X002843Y011965D03*
X002843Y015587D03*
X002843Y016965D03*
D23*
X006343Y011177D03*
X006343Y010508D03*
X007343Y010508D03*
X007343Y011177D03*
X008343Y011177D03*
X008343Y010508D03*
X009343Y010508D03*
X009343Y011177D03*
X010343Y011177D03*
X010343Y010508D03*
X011343Y010508D03*
X011343Y011177D03*
X012343Y011177D03*
X012343Y010508D03*
X013343Y010508D03*
X013343Y011177D03*
D24*
X013343Y009634D02*
X013343Y009052D01*
X012343Y009052D02*
X012343Y009634D01*
X011343Y009634D02*
X011343Y009052D01*
X010343Y009052D02*
X010343Y009634D01*
X009343Y009634D02*
X009343Y009052D01*
X008343Y009052D02*
X008343Y009634D01*
X007343Y009634D02*
X007343Y009052D01*
X006343Y009052D02*
X006343Y009634D01*
X006343Y006634D02*
X006343Y006052D01*
X007343Y006052D02*
X007343Y006634D01*
X008343Y006634D02*
X008343Y006052D01*
X009343Y006052D02*
X009343Y006634D01*
X010343Y006634D02*
X010343Y006052D01*
X011343Y006052D02*
X011343Y006634D01*
X012343Y006634D02*
X012343Y006052D01*
X013343Y006052D02*
X013343Y006634D01*
D25*
X008177Y013843D03*
X007508Y013843D03*
D26*
X008343Y018949D03*
X006492Y020130D03*
X008343Y021311D03*
D27*
X001843Y003843D02*
X002843Y002843D01*
X003843Y001843D01*
X007843Y001843D01*
X012843Y001843D01*
X018343Y001843D01*
X023343Y001843D01*
X023843Y002343D01*
X023843Y004343D01*
X023843Y006093D01*
X023343Y006593D01*
X023343Y007343D01*
X022843Y007843D01*
X022843Y008343D01*
X022843Y009343D01*
X023343Y009843D01*
X023343Y012343D01*
X022843Y012843D01*
X022843Y013343D01*
X022843Y014843D01*
X021843Y014843D01*
X022843Y013343D02*
X023087Y013099D01*
X024843Y013099D01*
X025393Y012343D02*
X025943Y012343D01*
X026343Y012743D01*
X024843Y011721D02*
X024221Y011721D01*
X023843Y011343D01*
X022843Y010843D02*
X022843Y011943D01*
X022943Y012043D01*
X022843Y008343D02*
X023087Y008099D01*
X024843Y008099D01*
X020843Y008343D02*
X020343Y007843D01*
X018843Y007843D01*
X020143Y005543D02*
X017493Y005543D01*
X017343Y004843D02*
X017843Y004343D01*
X021343Y004343D01*
X021843Y003843D01*
X021221Y003465D02*
X020843Y003843D01*
X017343Y003843D01*
X016843Y004343D01*
X013343Y004343D01*
X012343Y005343D01*
X012343Y006343D01*
X013343Y006343D02*
X013343Y005343D01*
X013843Y004843D01*
X017343Y004843D01*
X016493Y003843D02*
X016993Y003343D01*
X016721Y003343D01*
X016221Y002843D01*
X016493Y003843D02*
X012843Y003843D01*
X011343Y005343D01*
X011343Y006343D01*
X010343Y006343D02*
X010343Y005343D01*
X011843Y003843D01*
X011843Y003465D01*
X011221Y002843D01*
X012599Y002843D02*
X012599Y002087D01*
X012843Y001843D01*
X009343Y005843D02*
X008343Y004843D01*
X007843Y004843D01*
X006843Y003843D01*
X006843Y003465D01*
X006221Y002843D01*
X007599Y002843D02*
X007599Y002087D01*
X007843Y001843D01*
X007843Y005343D02*
X004343Y005343D01*
X003843Y005843D01*
X003843Y005965D01*
X002843Y006965D01*
X002843Y005587D02*
X002843Y002843D01*
X001843Y003843D02*
X001843Y009843D01*
X001843Y014843D01*
X002587Y015587D01*
X002843Y015587D01*
X003843Y015843D02*
X003843Y015965D01*
X002843Y016965D01*
X003843Y016843D02*
X004343Y016343D01*
X004343Y012343D01*
X004843Y011843D01*
X006843Y011843D01*
X007343Y012343D01*
X007343Y012743D01*
X007243Y012843D01*
X007243Y013577D01*
X007508Y013843D01*
X008177Y013843D02*
X010843Y013843D01*
X011343Y014343D01*
X012343Y014343D01*
X012543Y014543D01*
X011743Y014843D02*
X012543Y015643D01*
X013643Y015643D01*
X013843Y015843D01*
X013843Y013343D01*
X014343Y012843D01*
X014343Y012343D01*
X013177Y011177D01*
X006343Y011177D01*
X007343Y011177D01*
X008343Y011177D01*
X009343Y011177D01*
X010343Y011177D01*
X011343Y011177D01*
X012343Y011177D01*
X013343Y011177D01*
X013343Y010508D02*
X013343Y009343D01*
X012343Y009343D02*
X012343Y010508D01*
X011343Y010508D02*
X011343Y009343D01*
X010343Y009343D02*
X010343Y010508D01*
X009343Y010508D02*
X009343Y009343D01*
X008343Y009343D02*
X008343Y010508D01*
X007343Y010508D02*
X007343Y009343D01*
X006343Y009343D02*
X006343Y010508D01*
X004843Y009843D02*
X003843Y010843D01*
X003843Y010965D01*
X002843Y011965D01*
X002843Y010587D02*
X002587Y010587D01*
X001843Y009843D01*
X004843Y009843D02*
X004843Y007843D01*
X005343Y007343D01*
X006843Y007343D01*
X007343Y006843D01*
X007343Y006343D01*
X008343Y006343D02*
X008343Y005843D01*
X007843Y005343D01*
X009343Y005843D02*
X009343Y006343D01*
X014343Y011343D02*
X015843Y012843D01*
X015343Y013843D02*
X014343Y014843D01*
X013843Y015843D02*
X013843Y016343D01*
X014843Y017343D01*
X014843Y018343D01*
X015343Y018843D01*
X015843Y018843D01*
X017843Y016343D02*
X017843Y015843D01*
X017343Y015343D01*
X017343Y014843D01*
X018043Y014143D01*
X018043Y013593D01*
X017543Y013093D01*
X012843Y016343D02*
X012843Y016843D01*
X012343Y017343D01*
X010843Y017343D01*
X010343Y016843D01*
X009343Y016843D01*
X009243Y016743D01*
X009243Y015843D01*
X009843Y014843D02*
X007843Y014843D01*
X007343Y015343D01*
X007343Y015743D01*
X007243Y015843D01*
X006843Y014343D02*
X005843Y014343D01*
X004843Y015343D01*
X004843Y017843D01*
X004843Y018343D02*
X004343Y018343D01*
X004643Y018343D01*
X004843Y018343D02*
X006343Y019843D01*
X004193Y019193D02*
X003843Y018843D01*
X003843Y016843D01*
X002843Y018343D02*
X003012Y018512D01*
X003012Y020549D01*
X003012Y021730D01*
X004193Y020549D02*
X004193Y019193D01*
X009843Y014843D02*
X010343Y015343D01*
X010843Y015343D01*
X011343Y014843D01*
X011743Y014843D01*
X012543Y013543D02*
X010843Y011843D01*
X008843Y011843D01*
X008243Y012443D01*
X008243Y012843D01*
X009243Y012843D02*
X009843Y012843D01*
X010343Y013343D01*
X010843Y013343D01*
X020143Y005543D02*
X020993Y004693D01*
X022643Y004693D01*
X023843Y004343D02*
X022599Y003099D01*
X022599Y002843D01*
X021221Y002843D02*
X021221Y003465D01*
X018343Y001843D02*
X017599Y002587D01*
X017599Y002843D01*
X023843Y016343D02*
X024221Y016721D01*
X024843Y016721D01*
X021843Y018843D02*
X023343Y020343D01*
D28*
X021843Y018843D02*
X022843Y017843D01*
X023099Y018099D01*
X024843Y018099D01*
X022843Y017843D02*
X022843Y014843D01*
X021843Y018843D02*
X017843Y018843D01*
X016843Y019843D01*
X015343Y019843D01*
X015843Y019343D01*
X015843Y018843D01*
X015843Y017843D01*
X013843Y017843D02*
X013843Y019343D01*
X013343Y019843D01*
X013343Y020343D01*
X013843Y020843D01*
X015343Y020843D01*
X016843Y020843D01*
X017343Y021343D01*
X017343Y021843D01*
X016593Y022593D01*
X016343Y022593D01*
X016593Y022843D01*
X022343Y022843D01*
X022843Y022343D01*
X023343Y022343D01*
X016343Y022593D02*
X009093Y022593D01*
X008343Y021843D01*
X008343Y021311D02*
X007673Y021311D01*
X006492Y020130D01*
X006449Y018949D02*
X005843Y018343D01*
X005843Y017393D01*
X005793Y017443D01*
X006449Y018949D02*
X008343Y018949D01*
X009793Y019293D02*
X011843Y021343D01*
X011843Y021843D01*
X013343Y021843D01*
X015343Y021843D01*
X009793Y019293D02*
X009793Y017443D01*
D29*
X012843Y016343D03*
X014343Y014843D03*
X015343Y013843D03*
X015843Y012843D03*
X017543Y013093D03*
X014343Y011343D03*
X018843Y007843D03*
X020843Y008343D03*
X022843Y010843D03*
X023843Y011343D03*
X022943Y012043D03*
X023343Y013843D03*
X021843Y014843D03*
X023843Y016343D03*
X025393Y012343D03*
X026343Y008343D03*
X026693Y007193D03*
X025443Y006093D03*
X024043Y006543D03*
X024043Y007593D03*
X021843Y003843D03*
X020843Y003843D03*
X017493Y005543D03*
X016993Y003343D03*
X011843Y003843D03*
X006843Y003843D03*
X003843Y005843D03*
X003843Y010843D03*
X006843Y014343D03*
X003843Y015843D03*
X004843Y017843D03*
X004343Y018343D03*
D30*
X023343Y013843D02*
X024843Y013843D01*
X025843Y014843D01*
X025843Y018343D01*
X024843Y019343D01*
X024343Y019343D01*
X023843Y019843D01*
X023843Y021843D01*
X024343Y022343D01*
X024343Y021343D02*
X024943Y020743D01*
X024943Y019843D01*
X025293Y019493D01*
X025693Y019493D01*
X026343Y018843D01*
X026343Y012743D01*
X026343Y008343D02*
X026343Y007843D01*
X025843Y007343D01*
X024293Y007343D01*
X024043Y007593D01*
X024843Y006721D02*
X024665Y006543D01*
X024043Y006543D01*
X025443Y006093D02*
X026193Y006843D01*
X026343Y006843D01*
X026693Y007193D01*
M02*
