%
M48
M72
T01C0.0200
T02C0.0320
T03C0.0382
T04C0.0394
T05C0.0400
T06C0.0440
T07C0.0472
T08C0.1260
T09C0.1300
%
T01
X4101Y5343
X6601Y3843
X11601Y3843
X16751Y3343
X17251Y5543
X18601Y7843
X20601Y8343
X22401Y8193
X24101Y9343
X22401Y11143
X21351Y13143
X21601Y14843
X21101Y15343
X24951Y13593
X26101Y15843
X24601Y19343
X23101Y19343
X17101Y15593
X16351Y17143
X14101Y14843
X15101Y13843
X15601Y12843
X17301Y13093
X14101Y11343
X12601Y16343
X6601Y14343
X2601Y17843
X1101Y16343
X1601Y15343
X1101Y11843
X1601Y10843
X4101Y8843
X1601Y6843
X1101Y7343
X4601Y18843
X8351Y22593
X24401Y6993
X26551Y6993
X21601Y3843
X20601Y3843
T02
X22401Y4693
X22401Y6693
X22101Y13843
X20101Y13843
X19101Y13843
X18101Y14843
X17101Y13843
X16101Y14843
X19651Y16843
X21551Y16843
X15601Y18843
X13601Y18843
X13101Y19843
X13101Y21843
X11601Y21843
X11601Y15843
X10601Y15343
X9001Y15843
X8001Y15843
X7001Y15843
X6001Y15843
X6001Y12843
X7001Y12843
X8001Y12843
X9001Y12843
X10601Y13343
T03
X11101Y9343
X12101Y9343
X13101Y9343
X10101Y9343
X9101Y9343
X8101Y9343
X7101Y9343
X6101Y9343
X6101Y6343
X7101Y6343
X8101Y6343
X9101Y6343
X10101Y6343
X11101Y6343
X12101Y6343
X13101Y6343
T04
X3951Y20549
X2770Y20549
X2770Y21730
X3951Y21730
T05
X12301Y14543
X12301Y13543
X15101Y19843
X15101Y20843
X15101Y21843
X23101Y22343
X24101Y22343
X24101Y21343
X23101Y21343
X23101Y20343
X24101Y20343
T06
X9551Y17443
X5551Y17443
T07
X5979Y2843
X7357Y2843
X9601Y2843
X10979Y2843
X12357Y2843
X14601Y2843
X15979Y2843
X17357Y2843
X19601Y2843
X20979Y2843
X22357Y2843
X4601Y2843
T08
X998Y21140
T09
X1601Y1843
X21001Y20843
X26601Y21843
X26601Y1843
M30
