G75*
G70*
%OFA0B0*%
%FSLAX24Y24*%
%IPPOS*%
%LPD*%
%AMOC8*
5,1,8,0,0,1.08239X$1,22.5*
%
%ADD10C,0.0110*%
%ADD11C,0.0080*%
%ADD12C,0.0160*%
%ADD13C,0.0060*%
%ADD14C,0.0120*%
%ADD15R,0.0200X0.1000*%
%ADD16R,0.0750X0.0300*%
%ADD17C,0.0100*%
%ADD18R,0.1000X0.0200*%
%ADD19R,0.0200X0.0300*%
%ADD20C,0.0020*%
%ADD21C,0.0040*%
%ADD22R,0.0350X0.0500*%
%ADD23R,0.0400X0.0150*%
D10*
X003656Y000398D02*
X003656Y000791D01*
X003853Y000988D01*
X004049Y000791D01*
X004049Y000398D01*
X004300Y000398D02*
X004596Y000398D01*
X004694Y000496D01*
X004694Y000890D01*
X004596Y000988D01*
X004300Y000988D01*
X004300Y000398D01*
X004049Y000693D02*
X003656Y000693D01*
X004945Y000496D02*
X005043Y000398D01*
X005240Y000398D01*
X005339Y000496D01*
X005589Y000693D02*
X005983Y000693D01*
X005885Y000398D02*
X005885Y000988D01*
X005589Y000693D01*
X005339Y000890D02*
X005240Y000988D01*
X005043Y000988D01*
X004945Y000890D01*
X004945Y000496D01*
X008656Y000398D02*
X008656Y000791D01*
X008853Y000988D01*
X009049Y000791D01*
X009049Y000398D01*
X009300Y000398D02*
X009596Y000398D01*
X009694Y000496D01*
X009694Y000890D01*
X009596Y000988D01*
X009300Y000988D01*
X009300Y000398D01*
X009049Y000693D02*
X008656Y000693D01*
X009945Y000496D02*
X010043Y000398D01*
X010240Y000398D01*
X010339Y000496D01*
X010589Y000496D02*
X010688Y000398D01*
X010885Y000398D01*
X010983Y000496D01*
X010983Y000594D01*
X010885Y000693D01*
X010786Y000693D01*
X010885Y000693D02*
X010983Y000791D01*
X010983Y000890D01*
X010885Y000988D01*
X010688Y000988D01*
X010589Y000890D01*
X010339Y000890D02*
X010240Y000988D01*
X010043Y000988D01*
X009945Y000890D01*
X009945Y000496D01*
X013656Y000398D02*
X013656Y000791D01*
X013853Y000988D01*
X014049Y000791D01*
X014049Y000398D01*
X014300Y000398D02*
X014596Y000398D01*
X014694Y000496D01*
X014694Y000890D01*
X014596Y000988D01*
X014300Y000988D01*
X014300Y000398D01*
X014049Y000693D02*
X013656Y000693D01*
X014945Y000496D02*
X015043Y000398D01*
X015240Y000398D01*
X015339Y000496D01*
X015589Y000398D02*
X015983Y000791D01*
X015983Y000890D01*
X015885Y000988D01*
X015688Y000988D01*
X015589Y000890D01*
X015339Y000890D02*
X015240Y000988D01*
X015043Y000988D01*
X014945Y000890D01*
X014945Y000496D01*
X015589Y000398D02*
X015983Y000398D01*
X018656Y000398D02*
X018656Y000791D01*
X018853Y000988D01*
X019049Y000791D01*
X019049Y000398D01*
X019300Y000398D02*
X019596Y000398D01*
X019694Y000496D01*
X019694Y000890D01*
X019596Y000988D01*
X019300Y000988D01*
X019300Y000398D01*
X019049Y000693D02*
X018656Y000693D01*
X019945Y000496D02*
X020043Y000398D01*
X020240Y000398D01*
X020339Y000496D01*
X020589Y000398D02*
X020983Y000398D01*
X020786Y000398D02*
X020786Y000988D01*
X020589Y000791D01*
X020339Y000890D02*
X020240Y000988D01*
X020043Y000988D01*
X019945Y000890D01*
X019945Y000496D01*
X027455Y009898D02*
X027455Y010094D01*
X027455Y009996D02*
X028046Y009996D01*
X028046Y009898D02*
X028046Y010094D01*
X028046Y010327D02*
X027455Y010327D01*
X028046Y010721D01*
X027455Y010721D01*
X027455Y010972D02*
X027455Y011366D01*
X027455Y011169D02*
X028046Y011169D01*
X027947Y011616D02*
X028046Y011715D01*
X028046Y011912D01*
X027947Y012010D01*
X027751Y012010D01*
X027652Y011912D01*
X027652Y011813D01*
X027751Y011616D01*
X027455Y011616D01*
X027455Y012010D01*
X027455Y014898D02*
X027455Y015094D01*
X027455Y014996D02*
X028046Y014996D01*
X028046Y014898D02*
X028046Y015094D01*
X028046Y015327D02*
X027455Y015327D01*
X028046Y015721D01*
X027455Y015721D01*
X027455Y015972D02*
X027455Y016366D01*
X027455Y016169D02*
X028046Y016169D01*
X027947Y016616D02*
X027751Y016616D01*
X027751Y016912D01*
X027849Y017010D01*
X027947Y017010D01*
X028046Y016912D01*
X028046Y016715D01*
X027947Y016616D01*
X027751Y016616D02*
X027554Y016813D01*
X027455Y017010D01*
X025947Y019398D02*
X026046Y019496D01*
X026046Y019693D01*
X025947Y019791D01*
X025849Y019791D01*
X025751Y019693D01*
X025751Y019496D01*
X025652Y019398D01*
X025554Y019398D01*
X025455Y019496D01*
X025455Y019693D01*
X025554Y019791D01*
X025455Y020042D02*
X025455Y020337D01*
X025554Y020436D01*
X025751Y020436D01*
X025849Y020337D01*
X025849Y020042D01*
X026046Y020042D02*
X025455Y020042D01*
X025455Y020687D02*
X025455Y020884D01*
X025455Y020785D02*
X026046Y020785D01*
X026046Y020687D02*
X026046Y020884D01*
X014700Y022646D02*
X014601Y022548D01*
X014405Y022548D01*
X014306Y022646D01*
X014700Y023040D01*
X014700Y022646D01*
X014306Y022646D02*
X014306Y023040D01*
X014405Y023138D01*
X014601Y023138D01*
X014700Y023040D01*
X014082Y022646D02*
X014082Y022548D01*
X013984Y022548D01*
X013984Y022646D01*
X014082Y022646D01*
X013733Y022548D02*
X013339Y022548D01*
X013536Y022548D02*
X013536Y023138D01*
X013339Y022941D01*
X013089Y022941D02*
X012892Y022548D01*
X012695Y022941D01*
X012444Y022744D02*
X012346Y022843D01*
X012050Y022843D01*
X012050Y022646D01*
X012149Y022548D01*
X012346Y022548D01*
X012444Y022646D01*
X012444Y022744D01*
X012247Y023040D02*
X012050Y022843D01*
X012247Y023040D02*
X012444Y023138D01*
X011799Y023138D02*
X011799Y022548D01*
X011406Y023138D01*
X011406Y022548D01*
X006046Y021982D02*
X006046Y021687D01*
X005455Y021687D01*
X005455Y021982D01*
X005554Y022080D01*
X005947Y022080D01*
X006046Y021982D01*
X006046Y021436D02*
X005455Y021436D01*
X005455Y021042D02*
X006046Y021436D01*
X006046Y021042D02*
X005455Y021042D01*
X005554Y020791D02*
X005455Y020693D01*
X005455Y020496D01*
X005554Y020398D01*
X005947Y020398D01*
X006046Y020496D01*
X006046Y020693D01*
X005947Y020791D01*
X005751Y020791D01*
X005751Y020594D01*
X002983Y018988D02*
X002983Y018890D01*
X002589Y018496D01*
X002589Y018398D01*
X002339Y018496D02*
X002240Y018398D01*
X002043Y018398D01*
X001945Y018496D01*
X001945Y018890D01*
X002043Y018988D01*
X002240Y018988D01*
X002339Y018890D01*
X002589Y018988D02*
X002983Y018988D01*
X001694Y018890D02*
X001694Y018496D01*
X001596Y018398D01*
X001300Y018398D01*
X001300Y018988D01*
X001596Y018988D01*
X001694Y018890D01*
X001049Y018791D02*
X001049Y018398D01*
X001049Y018693D02*
X000656Y018693D01*
X000656Y018791D02*
X000853Y018988D01*
X001049Y018791D01*
X000656Y018791D02*
X000656Y018398D01*
X000853Y004488D02*
X001049Y004291D01*
X001049Y003898D01*
X001300Y003898D02*
X001596Y003898D01*
X001694Y003996D01*
X001694Y004390D01*
X001596Y004488D01*
X001300Y004488D01*
X001300Y003898D01*
X001049Y004193D02*
X000656Y004193D01*
X000656Y004291D02*
X000853Y004488D01*
X000656Y004291D02*
X000656Y003898D01*
X001945Y003996D02*
X002043Y003898D01*
X002240Y003898D01*
X002339Y003996D01*
X002589Y003996D02*
X002688Y003898D01*
X002885Y003898D01*
X002983Y003996D01*
X002983Y004193D01*
X002885Y004291D01*
X002786Y004291D01*
X002589Y004193D01*
X002589Y004488D01*
X002983Y004488D01*
X002339Y004390D02*
X002240Y004488D01*
X002043Y004488D01*
X001945Y004390D01*
X001945Y003996D01*
D11*
X003695Y004181D02*
X003695Y001740D01*
X008262Y001740D01*
X008262Y001425D01*
X003695Y001425D01*
X003695Y001740D01*
X003695Y004181D02*
X008262Y004181D01*
X008262Y001740D01*
X008695Y001740D02*
X013262Y001740D01*
X013262Y001425D01*
X008695Y001425D01*
X008695Y001740D01*
X008695Y004181D01*
X013262Y004181D01*
X013262Y001740D01*
X013695Y001740D02*
X013695Y001425D01*
X018262Y001425D01*
X018262Y001740D01*
X013695Y001740D01*
X013695Y004181D01*
X018262Y004181D01*
X018262Y001740D01*
X018695Y001740D02*
X023262Y001740D01*
X023262Y001425D01*
X018695Y001425D01*
X018695Y001740D01*
X018695Y004181D01*
X023262Y004181D01*
X023262Y001740D01*
X023845Y007488D02*
X023845Y008040D01*
X024357Y008040D01*
X024357Y007488D01*
X024357Y008040D02*
X024357Y008197D01*
X023845Y008197D02*
X023845Y008040D01*
X020911Y009453D02*
X020841Y009383D01*
X020701Y009383D01*
X020631Y009453D01*
X020631Y009523D01*
X020701Y009593D01*
X020841Y009593D01*
X020911Y009523D01*
X020911Y009453D01*
X020841Y009593D02*
X020911Y009663D01*
X020911Y009733D01*
X020841Y009803D01*
X020701Y009803D01*
X020631Y009733D01*
X020631Y009663D01*
X020701Y009593D01*
X020450Y009663D02*
X020450Y009733D01*
X020380Y009803D01*
X020240Y009803D01*
X020170Y009733D01*
X020450Y009663D02*
X020170Y009383D01*
X020450Y009383D01*
X019990Y009383D02*
X019710Y009383D01*
X019850Y009383D02*
X019850Y009803D01*
X019710Y009663D01*
X019530Y009593D02*
X019530Y009383D01*
X019530Y009593D02*
X019460Y009663D01*
X019249Y009663D01*
X019249Y009383D01*
X019069Y009383D02*
X018859Y009383D01*
X018789Y009453D01*
X018859Y009523D01*
X019069Y009523D01*
X019069Y009593D02*
X019069Y009383D01*
X019069Y009593D02*
X018999Y009663D01*
X018859Y009663D01*
X018609Y009663D02*
X018399Y009663D01*
X018329Y009593D01*
X018329Y009453D01*
X018399Y009383D01*
X018609Y009383D01*
X018149Y009453D02*
X018149Y009733D01*
X017868Y009453D01*
X017938Y009383D01*
X018079Y009383D01*
X018149Y009453D01*
X018149Y009733D02*
X018079Y009803D01*
X017938Y009803D01*
X017868Y009733D01*
X017868Y009453D01*
X017688Y009453D02*
X017688Y009733D01*
X017618Y009803D01*
X017478Y009803D01*
X017408Y009733D01*
X017408Y009663D01*
X017478Y009593D01*
X017688Y009593D01*
X017688Y009453D02*
X017618Y009383D01*
X017478Y009383D01*
X017408Y009453D01*
X017241Y009383D02*
X017171Y009453D01*
X017171Y009733D01*
X017101Y009663D02*
X017241Y009663D01*
X016921Y009593D02*
X016921Y009383D01*
X016711Y009383D01*
X016641Y009453D01*
X016711Y009523D01*
X016921Y009523D01*
X016921Y009593D02*
X016851Y009663D01*
X016711Y009663D01*
X013901Y009793D02*
X013901Y008493D01*
X013901Y007193D01*
X013701Y007193D01*
X013701Y008493D01*
X013901Y008493D01*
X013401Y008593D02*
X012801Y008593D01*
X012801Y007093D01*
X013401Y007093D01*
X013401Y008593D01*
X012401Y008593D02*
X011801Y008593D01*
X011801Y007093D01*
X012401Y007093D01*
X012401Y008593D01*
X011401Y008593D02*
X010801Y008593D01*
X010801Y007093D01*
X011401Y007093D01*
X011401Y008593D01*
X010401Y008593D02*
X009801Y008593D01*
X009801Y007093D01*
X010401Y007093D01*
X010401Y008593D01*
X009401Y008593D02*
X008801Y008593D01*
X008801Y007093D01*
X009401Y007093D01*
X009401Y008593D01*
X008401Y008593D02*
X007801Y008593D01*
X007801Y007093D01*
X008401Y007093D01*
X008401Y008593D01*
X007401Y008593D02*
X006801Y008593D01*
X006801Y007093D01*
X007401Y007093D01*
X007401Y008593D01*
X006401Y008593D02*
X005801Y008593D01*
X005801Y007093D01*
X006401Y007093D01*
X006401Y008593D01*
X005501Y008493D02*
X005301Y008493D01*
X005301Y007193D01*
X005301Y005893D01*
X013901Y005893D01*
X013901Y007193D01*
X013901Y009793D02*
X005301Y009793D01*
X005301Y008493D01*
X005501Y008493D02*
X005501Y007193D01*
X005301Y007193D01*
X007041Y014533D02*
X007041Y014953D01*
X007251Y014953D01*
X007321Y014883D01*
X007321Y014743D01*
X007251Y014673D01*
X007041Y014673D01*
X007501Y014603D02*
X007571Y014533D01*
X007711Y014533D01*
X007781Y014603D01*
X007961Y014533D02*
X007961Y014813D01*
X008102Y014953D01*
X008242Y014813D01*
X008242Y014533D01*
X008422Y014603D02*
X008422Y014673D01*
X008492Y014743D01*
X008632Y014743D01*
X008702Y014673D01*
X008702Y014603D01*
X008632Y014533D01*
X008492Y014533D01*
X008422Y014603D01*
X008492Y014743D02*
X008422Y014813D01*
X008422Y014883D01*
X008492Y014953D01*
X008632Y014953D01*
X008702Y014883D01*
X008702Y014813D01*
X008632Y014743D01*
X008882Y014883D02*
X008952Y014953D01*
X009092Y014953D01*
X009162Y014883D01*
X009162Y014813D01*
X008882Y014533D01*
X009162Y014533D01*
X008242Y014743D02*
X007961Y014743D01*
X007781Y014883D02*
X007711Y014953D01*
X007571Y014953D01*
X007501Y014883D01*
X007501Y014603D01*
X026845Y008197D02*
X026845Y008040D01*
X027357Y008040D01*
X027357Y007488D01*
X026845Y007488D02*
X026845Y008040D01*
X027357Y008040D02*
X027357Y008197D01*
D12*
X021801Y015843D02*
X019401Y015843D01*
X019339Y015845D01*
X019278Y015851D01*
X019217Y015860D01*
X019157Y015873D01*
X019098Y015890D01*
X019040Y015911D01*
X018983Y015935D01*
X018928Y015962D01*
X018875Y015993D01*
X018823Y016027D01*
X018774Y016064D01*
X018727Y016104D01*
X018683Y016147D01*
X018642Y016192D01*
X018603Y016240D01*
X018567Y016291D01*
X018535Y016343D01*
X018506Y016397D01*
X018480Y016453D01*
X018458Y016511D01*
X018439Y016569D01*
X018424Y016629D01*
X018413Y016690D01*
X018405Y016751D01*
X018401Y016812D01*
X018401Y016874D01*
X018405Y016935D01*
X018413Y016996D01*
X018424Y017057D01*
X018439Y017117D01*
X018458Y017175D01*
X018480Y017233D01*
X018506Y017289D01*
X018535Y017343D01*
X018567Y017395D01*
X018603Y017446D01*
X018642Y017494D01*
X018683Y017539D01*
X018727Y017582D01*
X018774Y017622D01*
X018823Y017659D01*
X018875Y017693D01*
X018928Y017724D01*
X018983Y017751D01*
X019040Y017775D01*
X019098Y017796D01*
X019157Y017813D01*
X019217Y017826D01*
X019278Y017835D01*
X019339Y017841D01*
X019401Y017843D01*
X021801Y017843D01*
X021863Y017841D01*
X021924Y017835D01*
X021985Y017826D01*
X022045Y017813D01*
X022104Y017796D01*
X022162Y017775D01*
X022219Y017751D01*
X022274Y017724D01*
X022327Y017693D01*
X022379Y017659D01*
X022428Y017622D01*
X022475Y017582D01*
X022519Y017539D01*
X022560Y017494D01*
X022599Y017446D01*
X022635Y017395D01*
X022667Y017343D01*
X022696Y017289D01*
X022722Y017233D01*
X022744Y017175D01*
X022763Y017117D01*
X022778Y017057D01*
X022789Y016996D01*
X022797Y016935D01*
X022801Y016874D01*
X022801Y016812D01*
X022797Y016751D01*
X022789Y016690D01*
X022778Y016629D01*
X022763Y016569D01*
X022744Y016511D01*
X022722Y016453D01*
X022696Y016397D01*
X022667Y016343D01*
X022635Y016291D01*
X022599Y016240D01*
X022560Y016192D01*
X022519Y016147D01*
X022475Y016104D01*
X022428Y016064D01*
X022379Y016027D01*
X022327Y015993D01*
X022274Y015962D01*
X022219Y015935D01*
X022162Y015911D01*
X022104Y015890D01*
X022045Y015873D01*
X021985Y015860D01*
X021924Y015851D01*
X021863Y015845D01*
X021801Y015843D01*
D13*
X021801Y016043D02*
X019401Y016043D01*
X019345Y016045D01*
X019290Y016051D01*
X019235Y016060D01*
X019180Y016074D01*
X019127Y016091D01*
X019076Y016112D01*
X019025Y016137D01*
X018977Y016165D01*
X018931Y016196D01*
X018887Y016230D01*
X018845Y016268D01*
X018806Y016308D01*
X018771Y016350D01*
X018738Y016396D01*
X018708Y016443D01*
X018682Y016492D01*
X018659Y016543D01*
X018640Y016596D01*
X018625Y016649D01*
X018613Y016704D01*
X018605Y016759D01*
X018601Y016815D01*
X018601Y016871D01*
X018605Y016927D01*
X018613Y016982D01*
X018625Y017037D01*
X018640Y017090D01*
X018659Y017143D01*
X018682Y017194D01*
X018708Y017243D01*
X018738Y017290D01*
X018771Y017336D01*
X018806Y017378D01*
X018845Y017418D01*
X018887Y017456D01*
X018931Y017490D01*
X018977Y017521D01*
X019025Y017549D01*
X019076Y017574D01*
X019127Y017595D01*
X019180Y017612D01*
X019235Y017626D01*
X019290Y017635D01*
X019345Y017641D01*
X019401Y017643D01*
X021801Y017643D01*
X020871Y017243D02*
X020871Y016843D01*
X020871Y016443D01*
X020721Y016443D02*
X020721Y017243D01*
X020471Y017243D01*
X020471Y016443D01*
X020721Y016443D01*
X020331Y016443D02*
X020331Y016843D01*
X020051Y016843D01*
X020331Y016843D02*
X020331Y017243D01*
X020871Y016843D02*
X021151Y016843D01*
X021801Y016043D02*
X021857Y016045D01*
X021912Y016051D01*
X021967Y016060D01*
X022022Y016074D01*
X022075Y016091D01*
X022126Y016112D01*
X022177Y016137D01*
X022225Y016165D01*
X022271Y016196D01*
X022315Y016230D01*
X022357Y016268D01*
X022396Y016308D01*
X022431Y016350D01*
X022464Y016396D01*
X022494Y016443D01*
X022520Y016492D01*
X022543Y016543D01*
X022562Y016596D01*
X022577Y016649D01*
X022589Y016704D01*
X022597Y016759D01*
X022601Y016815D01*
X022601Y016871D01*
X022597Y016927D01*
X022589Y016982D01*
X022577Y017037D01*
X022562Y017090D01*
X022543Y017143D01*
X022520Y017194D01*
X022494Y017243D01*
X022464Y017290D01*
X022431Y017336D01*
X022396Y017378D01*
X022357Y017418D01*
X022315Y017456D01*
X022271Y017490D01*
X022225Y017521D01*
X022177Y017549D01*
X022126Y017574D01*
X022075Y017595D01*
X022022Y017612D01*
X021967Y017626D01*
X021912Y017635D01*
X021857Y017641D01*
X021801Y017643D01*
X021601Y018793D02*
X022351Y018793D01*
X022351Y022893D01*
X021601Y022893D01*
X021601Y022543D01*
X021001Y022543D01*
X021001Y022893D01*
X016101Y022893D01*
X016101Y018793D01*
X021001Y018793D01*
X021001Y019143D01*
X021601Y019143D01*
X021601Y018793D01*
X020291Y020843D02*
X020293Y020896D01*
X020299Y020949D01*
X020309Y021001D01*
X020323Y021052D01*
X020340Y021102D01*
X020361Y021151D01*
X020386Y021198D01*
X020414Y021243D01*
X020446Y021286D01*
X020481Y021326D01*
X020518Y021363D01*
X020558Y021398D01*
X020601Y021430D01*
X020646Y021458D01*
X020693Y021483D01*
X020742Y021504D01*
X020792Y021521D01*
X020843Y021535D01*
X020895Y021545D01*
X020948Y021551D01*
X021001Y021553D01*
X021054Y021551D01*
X021107Y021545D01*
X021159Y021535D01*
X021210Y021521D01*
X021260Y021504D01*
X021309Y021483D01*
X021356Y021458D01*
X021401Y021430D01*
X021444Y021398D01*
X021484Y021363D01*
X021521Y021326D01*
X021556Y021286D01*
X021588Y021243D01*
X021616Y021198D01*
X021641Y021151D01*
X021662Y021102D01*
X021679Y021052D01*
X021693Y021001D01*
X021703Y020949D01*
X021709Y020896D01*
X021711Y020843D01*
X021709Y020790D01*
X021703Y020737D01*
X021693Y020685D01*
X021679Y020634D01*
X021662Y020584D01*
X021641Y020535D01*
X021616Y020488D01*
X021588Y020443D01*
X021556Y020400D01*
X021521Y020360D01*
X021484Y020323D01*
X021444Y020288D01*
X021401Y020256D01*
X021356Y020228D01*
X021309Y020203D01*
X021260Y020182D01*
X021210Y020165D01*
X021159Y020151D01*
X021107Y020141D01*
X021054Y020135D01*
X021001Y020133D01*
X020948Y020135D01*
X020895Y020141D01*
X020843Y020151D01*
X020792Y020165D01*
X020742Y020182D01*
X020693Y020203D01*
X020646Y020228D01*
X020601Y020256D01*
X020558Y020288D01*
X020518Y020323D01*
X020481Y020360D01*
X020446Y020400D01*
X020414Y020443D01*
X020386Y020488D01*
X020361Y020535D01*
X020340Y020584D01*
X020323Y020634D01*
X020309Y020685D01*
X020299Y020737D01*
X020293Y020790D01*
X020291Y020843D01*
X015251Y019293D02*
X013951Y019293D01*
X013925Y019291D01*
X013899Y019286D01*
X013874Y019278D01*
X013851Y019266D01*
X013829Y019252D01*
X013810Y019234D01*
X013792Y019215D01*
X013778Y019193D01*
X013766Y019170D01*
X013758Y019145D01*
X013753Y019119D01*
X013751Y019093D01*
X014101Y018843D02*
X014471Y018843D01*
X014721Y018843D02*
X015101Y018843D01*
X015451Y019093D02*
X015449Y019119D01*
X015444Y019145D01*
X015436Y019170D01*
X015424Y019193D01*
X015410Y019215D01*
X015392Y019234D01*
X015373Y019252D01*
X015351Y019266D01*
X015328Y019278D01*
X015303Y019286D01*
X015277Y019291D01*
X015251Y019293D01*
X015451Y018593D02*
X015449Y018567D01*
X015444Y018541D01*
X015436Y018516D01*
X015424Y018493D01*
X015410Y018471D01*
X015392Y018452D01*
X015373Y018434D01*
X015351Y018420D01*
X015328Y018408D01*
X015303Y018400D01*
X015277Y018395D01*
X015251Y018393D01*
X013951Y018393D01*
X013925Y018395D01*
X013899Y018400D01*
X013874Y018408D01*
X013851Y018420D01*
X013829Y018434D01*
X013810Y018452D01*
X013792Y018471D01*
X013778Y018493D01*
X013766Y018516D01*
X013758Y018541D01*
X013753Y018567D01*
X013751Y018593D01*
X013551Y020193D02*
X013551Y021493D01*
X013549Y021519D01*
X013544Y021545D01*
X013536Y021570D01*
X013524Y021593D01*
X013510Y021615D01*
X013492Y021634D01*
X013473Y021652D01*
X013451Y021666D01*
X013428Y021678D01*
X013403Y021686D01*
X013377Y021691D01*
X013351Y021693D01*
X013101Y021343D02*
X013101Y020963D01*
X013101Y020713D02*
X013101Y020343D01*
X013351Y019993D02*
X013377Y019995D01*
X013403Y020000D01*
X013428Y020008D01*
X013451Y020020D01*
X013473Y020034D01*
X013492Y020052D01*
X013510Y020071D01*
X013524Y020093D01*
X013536Y020116D01*
X013544Y020141D01*
X013549Y020167D01*
X013551Y020193D01*
X012851Y019993D02*
X012825Y019995D01*
X012799Y020000D01*
X012774Y020008D01*
X012751Y020020D01*
X012729Y020034D01*
X012710Y020052D01*
X012692Y020071D01*
X012678Y020093D01*
X012666Y020116D01*
X012658Y020141D01*
X012653Y020167D01*
X012651Y020193D01*
X012651Y021493D01*
X012653Y021519D01*
X012658Y021545D01*
X012666Y021570D01*
X012678Y021593D01*
X012692Y021615D01*
X012710Y021634D01*
X012729Y021652D01*
X012751Y021666D01*
X012774Y021678D01*
X012799Y021686D01*
X012825Y021691D01*
X012851Y021693D01*
X012501Y021093D02*
X012501Y020743D01*
X012501Y020593D01*
X012501Y016593D01*
X010701Y016593D01*
X010651Y016643D01*
X010601Y016693D01*
X010601Y020493D01*
X010621Y020493D01*
X010621Y016693D01*
X010651Y016643D02*
X010651Y020543D01*
X010601Y020493D01*
X010651Y020543D02*
X010701Y020593D01*
X010721Y020593D01*
X010721Y020743D01*
X010701Y020743D01*
X010651Y020793D01*
X010651Y021043D01*
X010601Y020993D01*
X010621Y020993D01*
X010621Y020843D01*
X010601Y020843D02*
X010601Y020993D01*
X010651Y021043D02*
X010701Y021093D01*
X012501Y021093D01*
X012601Y020993D01*
X012601Y020843D01*
X012501Y020743D01*
X012401Y020743D01*
X010751Y020743D01*
X010751Y020593D01*
X010721Y020593D01*
X010701Y020593D02*
X010701Y020743D01*
X010721Y020743D02*
X010751Y020743D01*
X010651Y020793D02*
X010601Y020843D01*
X010751Y020593D02*
X012401Y020593D01*
X012401Y020743D01*
X012401Y020593D02*
X012501Y020593D01*
X012601Y020493D01*
X012601Y016693D01*
X012501Y016593D01*
X011601Y016793D02*
X011601Y019593D01*
X011101Y019893D02*
X012101Y019893D01*
X012101Y020093D01*
X011601Y020093D01*
X011101Y020093D01*
X011101Y019893D01*
X011601Y020093D02*
X011601Y020443D01*
X011851Y020343D02*
X012051Y020343D01*
X011951Y020443D02*
X011951Y020243D01*
X008351Y017943D02*
X008351Y016943D01*
X006751Y016943D01*
X006751Y017943D01*
X008351Y017943D01*
X007801Y017443D02*
X007551Y017443D01*
X007551Y017693D01*
X007551Y017443D02*
X007551Y017193D01*
X007551Y017443D02*
X007151Y017193D01*
X007151Y017693D01*
X007551Y017443D01*
X006951Y017443D01*
X005501Y015443D02*
X005501Y013243D01*
X009501Y013243D01*
X009501Y014093D01*
X009471Y014095D01*
X009441Y014100D01*
X009412Y014109D01*
X009385Y014122D01*
X009359Y014137D01*
X009335Y014156D01*
X009314Y014177D01*
X009295Y014201D01*
X009280Y014227D01*
X009267Y014254D01*
X009258Y014283D01*
X009253Y014313D01*
X009251Y014343D01*
X009253Y014373D01*
X009258Y014403D01*
X009267Y014432D01*
X009280Y014459D01*
X009295Y014485D01*
X009314Y014509D01*
X009335Y014530D01*
X009359Y014549D01*
X009385Y014564D01*
X009412Y014577D01*
X009441Y014586D01*
X009471Y014591D01*
X009501Y014593D01*
X009501Y015443D01*
X005501Y015443D01*
X010151Y014993D02*
X010151Y013693D01*
X010153Y013667D01*
X010158Y013641D01*
X010166Y013616D01*
X010178Y013593D01*
X010192Y013571D01*
X010210Y013552D01*
X010229Y013534D01*
X010251Y013520D01*
X010274Y013508D01*
X010299Y013500D01*
X010325Y013495D01*
X010351Y013493D01*
X010601Y013843D02*
X010601Y014213D01*
X010601Y014463D02*
X010601Y014843D01*
X010851Y015193D02*
X010877Y015191D01*
X010903Y015186D01*
X010928Y015178D01*
X010951Y015166D01*
X010973Y015152D01*
X010992Y015134D01*
X011010Y015115D01*
X011024Y015093D01*
X011036Y015070D01*
X011044Y015045D01*
X011049Y015019D01*
X011051Y014993D01*
X011051Y013693D01*
X011049Y013667D01*
X011044Y013641D01*
X011036Y013616D01*
X011024Y013593D01*
X011010Y013571D01*
X010992Y013552D01*
X010973Y013534D01*
X010951Y013520D01*
X010928Y013508D01*
X010903Y013500D01*
X010877Y013495D01*
X010851Y013493D01*
X011801Y013293D02*
X012051Y013043D01*
X012551Y013043D01*
X012801Y013293D01*
X012801Y013793D01*
X012551Y014043D01*
X012801Y014293D01*
X012801Y014793D01*
X012551Y015043D01*
X012051Y015043D01*
X011801Y014793D01*
X011801Y014293D01*
X012051Y014043D01*
X012551Y014043D01*
X012051Y014043D02*
X011801Y013793D01*
X011801Y013293D01*
X010151Y014993D02*
X010153Y015019D01*
X010158Y015045D01*
X010166Y015070D01*
X010178Y015093D01*
X010192Y015115D01*
X010210Y015134D01*
X010229Y015152D01*
X010251Y015166D01*
X010274Y015178D01*
X010299Y015186D01*
X010325Y015191D01*
X010351Y015193D01*
X015651Y015243D02*
X015651Y014443D01*
X015653Y014426D01*
X015657Y014409D01*
X015664Y014393D01*
X015674Y014379D01*
X015687Y014366D01*
X015701Y014356D01*
X015717Y014349D01*
X015734Y014345D01*
X015751Y014343D01*
X018451Y014343D01*
X018468Y014345D01*
X018485Y014349D01*
X018501Y014356D01*
X018515Y014366D01*
X018528Y014379D01*
X018538Y014393D01*
X018545Y014409D01*
X018549Y014426D01*
X018551Y014443D01*
X018551Y015243D01*
X018549Y015260D01*
X018545Y015277D01*
X018538Y015293D01*
X018528Y015307D01*
X018515Y015320D01*
X018501Y015330D01*
X018485Y015337D01*
X018468Y015341D01*
X018451Y015343D01*
X015751Y015343D01*
X015734Y015341D01*
X015717Y015337D01*
X015701Y015330D01*
X015687Y015320D01*
X015674Y015307D01*
X015664Y015293D01*
X015657Y015277D01*
X015653Y015260D01*
X015651Y015243D01*
X016501Y014843D02*
X016981Y014843D01*
X017231Y014843D02*
X017701Y014843D01*
X017501Y013843D02*
X017981Y013843D01*
X018231Y013843D02*
X018701Y013843D01*
X019451Y014343D02*
X019468Y014341D01*
X019485Y014337D01*
X019501Y014330D01*
X019515Y014320D01*
X019528Y014307D01*
X019538Y014293D01*
X019545Y014277D01*
X019549Y014260D01*
X019551Y014243D01*
X019551Y013443D01*
X019549Y013426D01*
X019545Y013409D01*
X019538Y013393D01*
X019528Y013379D01*
X019515Y013366D01*
X019501Y013356D01*
X019485Y013349D01*
X019468Y013345D01*
X019451Y013343D01*
X016751Y013343D01*
X016734Y013345D01*
X016717Y013349D01*
X016701Y013356D01*
X016687Y013366D01*
X016674Y013379D01*
X016664Y013393D01*
X016657Y013409D01*
X016653Y013426D01*
X016651Y013443D01*
X016651Y014243D01*
X016653Y014260D01*
X016657Y014277D01*
X016664Y014293D01*
X016674Y014307D01*
X016687Y014320D01*
X016701Y014330D01*
X016717Y014337D01*
X016734Y014341D01*
X016751Y014343D01*
X019451Y014343D01*
X020451Y014293D02*
X021751Y014293D01*
X021777Y014291D01*
X021803Y014286D01*
X021828Y014278D01*
X021851Y014266D01*
X021873Y014252D01*
X021892Y014234D01*
X021910Y014215D01*
X021924Y014193D01*
X021936Y014170D01*
X021944Y014145D01*
X021949Y014119D01*
X021951Y014093D01*
X021601Y013843D02*
X021221Y013843D01*
X020971Y013843D02*
X020601Y013843D01*
X020251Y014093D02*
X020253Y014119D01*
X020258Y014145D01*
X020266Y014170D01*
X020278Y014193D01*
X020292Y014215D01*
X020310Y014234D01*
X020329Y014252D01*
X020351Y014266D01*
X020374Y014278D01*
X020399Y014286D01*
X020425Y014291D01*
X020451Y014293D01*
X020251Y013593D02*
X020253Y013567D01*
X020258Y013541D01*
X020266Y013516D01*
X020278Y013493D01*
X020292Y013471D01*
X020310Y013452D01*
X020329Y013434D01*
X020351Y013420D01*
X020374Y013408D01*
X020399Y013400D01*
X020425Y013395D01*
X020451Y013393D01*
X021751Y013393D01*
X021777Y013395D01*
X021803Y013400D01*
X021828Y013408D01*
X021851Y013420D01*
X021873Y013434D01*
X021892Y013452D01*
X021910Y013471D01*
X021924Y013493D01*
X021936Y013516D01*
X021944Y013541D01*
X021949Y013567D01*
X021951Y013593D01*
X021371Y012113D02*
X021371Y006743D01*
X021201Y006573D01*
X015831Y006573D01*
X015831Y012113D01*
X021371Y012113D01*
X020696Y007028D02*
X020698Y007057D01*
X020704Y007086D01*
X020713Y007114D01*
X020727Y007140D01*
X020743Y007164D01*
X020763Y007186D01*
X020786Y007205D01*
X020810Y007221D01*
X020837Y007233D01*
X020865Y007242D01*
X020894Y007247D01*
X020923Y007248D01*
X020953Y007245D01*
X020981Y007238D01*
X021009Y007228D01*
X021034Y007213D01*
X021058Y007196D01*
X021079Y007176D01*
X021097Y007153D01*
X021112Y007127D01*
X021124Y007100D01*
X021132Y007072D01*
X021136Y007043D01*
X021136Y007013D01*
X021132Y006984D01*
X021124Y006956D01*
X021112Y006929D01*
X021097Y006903D01*
X021079Y006880D01*
X021058Y006860D01*
X021034Y006843D01*
X021009Y006828D01*
X020981Y006818D01*
X020953Y006811D01*
X020923Y006808D01*
X020894Y006809D01*
X020865Y006814D01*
X020837Y006823D01*
X020810Y006835D01*
X020786Y006851D01*
X020763Y006870D01*
X020743Y006892D01*
X020727Y006916D01*
X020713Y006942D01*
X020704Y006970D01*
X020698Y006999D01*
X020696Y007028D01*
X021951Y006343D02*
X021951Y005043D01*
X021953Y005017D01*
X021958Y004991D01*
X021966Y004966D01*
X021978Y004943D01*
X021992Y004921D01*
X022010Y004902D01*
X022029Y004884D01*
X022051Y004870D01*
X022074Y004858D01*
X022099Y004850D01*
X022125Y004845D01*
X022151Y004843D01*
X022401Y005193D02*
X022401Y005563D01*
X022401Y005813D02*
X022401Y006193D01*
X022651Y006543D02*
X022677Y006541D01*
X022703Y006536D01*
X022728Y006528D01*
X022751Y006516D01*
X022773Y006502D01*
X022792Y006484D01*
X022810Y006465D01*
X022824Y006443D01*
X022836Y006420D01*
X022844Y006395D01*
X022849Y006369D01*
X022851Y006343D01*
X022851Y005043D01*
X022849Y005017D01*
X022844Y004991D01*
X022836Y004966D01*
X022824Y004943D01*
X022810Y004921D01*
X022792Y004902D01*
X022773Y004884D01*
X022751Y004870D01*
X022728Y004858D01*
X022703Y004850D01*
X022677Y004845D01*
X022651Y004843D01*
X021951Y006343D02*
X021953Y006369D01*
X021958Y006395D01*
X021966Y006420D01*
X021978Y006443D01*
X021992Y006465D01*
X022010Y006484D01*
X022029Y006502D01*
X022051Y006516D01*
X022074Y006528D01*
X022099Y006536D01*
X022125Y006541D01*
X022151Y006543D01*
X024981Y006593D02*
X026221Y006593D01*
X026244Y006591D01*
X026267Y006586D01*
X026289Y006577D01*
X026309Y006564D01*
X026327Y006549D01*
X026342Y006531D01*
X026355Y006511D01*
X026364Y006489D01*
X026369Y006466D01*
X026371Y006443D01*
X024981Y006593D02*
X024958Y006591D01*
X024935Y006586D01*
X024913Y006577D01*
X024893Y006564D01*
X024875Y006549D01*
X024860Y006531D01*
X024847Y006511D01*
X024838Y006489D01*
X024833Y006466D01*
X024831Y006443D01*
X024831Y003243D02*
X024833Y003220D01*
X024838Y003197D01*
X024847Y003175D01*
X024860Y003155D01*
X024875Y003137D01*
X024893Y003122D01*
X024913Y003109D01*
X024935Y003100D01*
X024958Y003095D01*
X024981Y003093D01*
X025401Y003093D01*
X025801Y003093D01*
X026221Y003093D01*
X026244Y003095D01*
X026267Y003100D01*
X026289Y003109D01*
X026309Y003122D01*
X026327Y003137D01*
X026342Y003155D01*
X026355Y003175D01*
X026364Y003197D01*
X026369Y003220D01*
X026371Y003243D01*
X025801Y003093D02*
X025799Y003120D01*
X025794Y003147D01*
X025784Y003173D01*
X025772Y003197D01*
X025756Y003219D01*
X025738Y003239D01*
X025716Y003256D01*
X025693Y003271D01*
X025668Y003281D01*
X025642Y003289D01*
X025615Y003293D01*
X025587Y003293D01*
X025560Y003289D01*
X025534Y003281D01*
X025509Y003271D01*
X025486Y003256D01*
X025464Y003239D01*
X025446Y003219D01*
X025430Y003197D01*
X025418Y003173D01*
X025408Y003147D01*
X025403Y003120D01*
X025401Y003093D01*
D14*
X022701Y005563D02*
X022401Y005563D01*
X022101Y005563D01*
X022101Y005813D02*
X022401Y005813D01*
X022701Y005813D01*
X021221Y013543D02*
X021221Y013843D01*
X021221Y014143D01*
X020971Y014143D02*
X020971Y013843D01*
X020971Y013543D01*
X018231Y013593D02*
X018231Y013843D01*
X018231Y014093D01*
X017981Y014093D02*
X017981Y013843D01*
X017981Y013593D01*
X017231Y014593D02*
X017231Y014843D01*
X017231Y015093D01*
X016981Y015093D02*
X016981Y014843D01*
X016981Y014593D01*
X012551Y016693D02*
X012551Y020493D01*
X012451Y020643D02*
X012451Y020693D01*
X012551Y020843D02*
X012551Y020993D01*
X012801Y020963D02*
X013101Y020963D01*
X013401Y020963D01*
X013401Y020713D02*
X013101Y020713D01*
X012801Y020713D01*
X014471Y019143D02*
X014471Y018843D01*
X014471Y018543D01*
X014721Y018543D02*
X014721Y018843D01*
X014721Y019143D01*
X010901Y014463D02*
X010601Y014463D01*
X010301Y014463D01*
X010301Y014213D02*
X010601Y014213D01*
X010901Y014213D01*
D15*
X008101Y017443D03*
D16*
X008726Y017443D03*
X006376Y017443D03*
D17*
X014401Y016643D02*
X014401Y016093D01*
X014801Y016093D01*
X015101Y017493D02*
X017101Y017493D01*
X017801Y016643D02*
X017801Y016093D01*
X017401Y016093D01*
X022601Y019843D02*
X024601Y019843D01*
X024601Y022843D01*
X022601Y022843D01*
X022601Y019843D01*
D18*
X011601Y019643D03*
D19*
X011601Y021243D03*
X011601Y016443D03*
D20*
X016351Y019043D02*
X019601Y019043D01*
X019601Y022643D01*
X016351Y022643D01*
X016351Y019043D01*
X026231Y006593D02*
X026231Y003093D01*
D21*
X020071Y020219D02*
X019837Y020219D01*
X019721Y020335D01*
X019837Y020452D01*
X020071Y020452D01*
X020071Y020578D02*
X020071Y020811D01*
X020071Y020694D02*
X019721Y020694D01*
X019837Y020578D01*
X019896Y020452D02*
X019896Y020219D01*
X019896Y020937D02*
X019837Y021054D01*
X019837Y021112D01*
X019896Y021170D01*
X020012Y021170D01*
X020071Y021112D01*
X020071Y020995D01*
X020012Y020937D01*
X019896Y020937D02*
X019721Y020937D01*
X019721Y021170D01*
X020012Y021354D02*
X020071Y021354D01*
X020071Y021413D01*
X020012Y021413D01*
X020012Y021354D01*
X020071Y021413D02*
X020188Y021296D01*
X020071Y021535D02*
X019837Y021769D01*
X019779Y021769D01*
X019721Y021710D01*
X019721Y021594D01*
X019779Y021535D01*
X020071Y021535D02*
X020071Y021769D01*
X020071Y021894D02*
X019837Y021894D01*
X019837Y021953D01*
X019896Y022011D01*
X019837Y022070D01*
X019896Y022128D01*
X020071Y022128D01*
X020071Y022011D02*
X019896Y022011D01*
X019837Y022254D02*
X019837Y022312D01*
X019896Y022370D01*
X019837Y022429D01*
X019896Y022487D01*
X020071Y022487D01*
X020071Y022370D02*
X019896Y022370D01*
X019837Y022254D02*
X020071Y022254D01*
D22*
X015926Y021843D03*
X015926Y020843D03*
X015926Y019843D03*
D23*
X013101Y008418D03*
X013101Y008168D03*
X013101Y007918D03*
X012101Y007918D03*
X012101Y008168D03*
X012101Y008418D03*
X011101Y008418D03*
X011101Y008168D03*
X011101Y007918D03*
X010101Y007918D03*
X010101Y008168D03*
X010101Y008418D03*
X009101Y008418D03*
X009101Y008168D03*
X009101Y007918D03*
X008101Y007918D03*
X008101Y008168D03*
X008101Y008418D03*
X007101Y008418D03*
X007101Y008168D03*
X007101Y007918D03*
X006101Y007918D03*
X006101Y008168D03*
X006101Y008418D03*
M02*
