%
M48
M72
T01C0.0200
T02C0.0315
T03C0.0320
T04C0.0354
T05C0.0400
T06C0.0440
%
T01
X2974Y1601
X4974Y1601
X7974Y1101
X7974Y2601
X6974Y5601
X6474Y6101
X4974Y5601
X4474Y9601
X8474Y9601
X14974Y10601
X19974Y10601
X20474Y9101
X20974Y9101
X15474Y3101
X18474Y2101
T02
X18867Y1270
X18080Y1270
X17293Y1270
X16505Y1270
X15718Y1270
X14930Y1270
X19655Y1270
X20442Y1270
X21230Y1270
X22017Y1270
X22017Y9931
X21230Y9931
X20442Y9931
X19655Y9931
X18867Y9931
X18080Y9931
X17293Y9931
X16505Y9931
X15718Y9931
X14930Y9931
T03
X14974Y8101
X16974Y8101
X18974Y12101
X21474Y12101
X22474Y12101
X22474Y14101
X21474Y14101
X18974Y14601
X12974Y14601
X9474Y12601
X12974Y12101
X7474Y8101
X9474Y6601
X9474Y3101
X9474Y1101
X2974Y2601
X1974Y2601
X1974Y4601
X2974Y4601
X1474Y8101
T04
X2474Y11735
X2474Y13467
T05
X6974Y13601
X6974Y12601
X6974Y11601
T06
X9474Y14601
X10474Y14601
X11474Y14601
M30
