G75*
G70*
%OFA0B0*%
%FSLAX24Y24*%
%IPPOS*%
%LPD*%
%AMOC8*
5,1,8,0,0,1.08239X$1,22.5*
%
%ADD10C,0.0000*%
%ADD11C,0.0515*%
%ADD12R,0.0591X0.0157*%
%ADD13C,0.0600*%
%ADD14OC8,0.0520*%
%ADD15C,0.0660*%
%ADD16C,0.0850*%
%ADD17OC8,0.0850*%
%ADD18R,0.0984X0.0197*%
%ADD19R,0.0984X0.0787*%
%ADD20C,0.0554*%
%ADD21C,0.0160*%
%ADD22R,0.0360X0.0360*%
%ADD23C,0.0240*%
D10*
X000474Y000101D02*
X000474Y016597D01*
X023344Y016597D01*
X023344Y000101D01*
X000474Y000101D01*
D11*
X014930Y001270D03*
X015718Y001270D03*
X016505Y001270D03*
X017293Y001270D03*
X018080Y001270D03*
X018867Y001270D03*
X019655Y001270D03*
X020442Y001270D03*
X021230Y001270D03*
X022017Y001270D03*
X022017Y009931D03*
X021230Y009931D03*
X020442Y009931D03*
X019655Y009931D03*
X018867Y009931D03*
X018080Y009931D03*
X017293Y009931D03*
X016505Y009931D03*
X015718Y009931D03*
X014930Y009931D03*
D12*
X006901Y004764D03*
X006901Y004508D03*
X006901Y004252D03*
X006901Y003996D03*
X006901Y003741D03*
X006901Y003485D03*
X006901Y003229D03*
X006901Y002973D03*
X006901Y002717D03*
X006901Y002461D03*
X006901Y002205D03*
X006901Y001949D03*
X006901Y001693D03*
X006901Y001437D03*
X004047Y001437D03*
X004047Y001693D03*
X004047Y001949D03*
X004047Y002205D03*
X004047Y002461D03*
X004047Y002717D03*
X004047Y002973D03*
X004047Y003229D03*
X004047Y003485D03*
X004047Y003741D03*
X004047Y003996D03*
X004047Y004252D03*
X004047Y004508D03*
X004047Y004764D03*
D13*
X006674Y011601D02*
X007274Y011601D01*
X007274Y012601D02*
X006674Y012601D01*
X006674Y013601D02*
X007274Y013601D01*
D14*
X014974Y008101D03*
X016974Y008101D03*
X021474Y012101D03*
X022474Y012101D03*
X022474Y014101D03*
X021474Y014101D03*
X009474Y003101D03*
X009474Y001101D03*
X002974Y002601D03*
X001974Y002601D03*
X001974Y004601D03*
X002974Y004601D03*
D15*
X009474Y014271D02*
X009474Y014931D01*
X010474Y014931D02*
X010474Y014271D01*
X011474Y014271D02*
X011474Y014931D01*
D16*
X009474Y012601D03*
X007474Y008101D03*
X018974Y012101D03*
X018974Y014601D03*
D17*
X012974Y014601D03*
X012974Y012101D03*
X009474Y006601D03*
X001474Y008101D03*
D18*
X003458Y011971D03*
X003458Y012286D03*
X003458Y012601D03*
X003458Y012916D03*
X003458Y013231D03*
D19*
X003458Y014372D03*
X001293Y014372D03*
X001293Y010829D03*
X003458Y010829D03*
D20*
X002474Y011735D03*
X002474Y013467D03*
D21*
X003458Y013231D02*
X004604Y013231D01*
X004974Y013601D01*
X006974Y013601D01*
X007474Y013601D01*
X007974Y013101D01*
X007974Y008601D01*
X007474Y008101D01*
X005276Y008101D01*
X003474Y006298D01*
X003474Y005101D01*
X002974Y005101D01*
X002974Y004601D01*
X002974Y005101D02*
X002474Y005101D01*
X001974Y004601D01*
X001474Y004894D02*
X001474Y001808D01*
X002181Y001101D01*
X005474Y001101D01*
X006066Y001693D01*
X006901Y001693D01*
X006901Y001949D02*
X008474Y001949D01*
X009322Y001101D01*
X009474Y001101D01*
X008474Y000601D02*
X012474Y000601D01*
X013974Y002101D01*
X018474Y002101D01*
X015474Y003101D02*
X014974Y003601D01*
X009474Y003601D01*
X007474Y005601D01*
X006974Y005601D01*
X006474Y006101D02*
X005974Y005601D01*
X005974Y003996D01*
X006901Y003996D01*
X007836Y003996D01*
X008474Y003359D01*
X008474Y003101D01*
X009474Y003101D01*
X008474Y003101D02*
X008474Y002973D01*
X008474Y002309D01*
X008369Y002205D01*
X006901Y002205D01*
X006901Y002717D02*
X007474Y002717D01*
X007974Y002601D01*
X008474Y002973D02*
X006901Y002973D01*
X005974Y003996D02*
X005206Y003229D01*
X004047Y003229D01*
X003102Y003229D01*
X002974Y003101D01*
X002974Y002601D01*
X002974Y002101D01*
X002474Y002101D01*
X001974Y002601D01*
X000974Y001719D02*
X000974Y005308D01*
X004974Y009308D01*
X004974Y011894D01*
X004267Y012601D01*
X003458Y012601D01*
X003458Y012916D02*
X004518Y012916D01*
X005474Y011960D01*
X005474Y008894D01*
X001474Y004894D01*
X003474Y005101D02*
X003474Y004101D01*
X003578Y003996D01*
X004047Y003996D01*
X004047Y003741D02*
X004857Y003741D01*
X005474Y004357D01*
X005474Y006101D01*
X005974Y006601D01*
X007474Y006601D01*
X008974Y005101D01*
X010974Y005101D01*
X011474Y005601D01*
X020267Y005601D01*
X020974Y006308D01*
X020974Y009101D01*
X020474Y009101D02*
X020474Y006808D01*
X019767Y006101D01*
X010974Y006101D01*
X010474Y005601D01*
X009092Y005601D01*
X007592Y007101D01*
X005592Y007101D01*
X004474Y005983D01*
X004474Y004764D01*
X004047Y004764D01*
X004047Y004252D02*
X004625Y004252D01*
X004974Y004601D01*
X004974Y005601D01*
X001474Y008101D02*
X001474Y009394D01*
X002181Y010101D01*
X004474Y010101D01*
X004474Y011601D01*
X004104Y011971D01*
X003458Y011971D01*
X014974Y010601D02*
X019974Y010601D01*
X006901Y001437D02*
X006310Y001437D01*
X005474Y000601D01*
X002092Y000601D01*
X000974Y001719D01*
X002974Y001601D02*
X002974Y001437D01*
X004047Y001437D01*
X004974Y001601D02*
X004974Y002101D01*
X004869Y002205D01*
X004047Y002205D01*
X007974Y001101D02*
X008474Y000601D01*
D22*
X007974Y001101D03*
X007974Y002601D03*
X004974Y001601D03*
X002974Y001601D03*
X004974Y005601D03*
X006474Y006101D03*
X006974Y005601D03*
X008474Y009601D03*
X004474Y009601D03*
X014974Y010601D03*
X019974Y010601D03*
X020474Y009101D03*
X020974Y009101D03*
X015474Y003101D03*
X018474Y002101D03*
D23*
X009559Y009601D02*
X008474Y009601D01*
X009559Y009601D02*
X012059Y012101D01*
X012974Y012101D01*
X004474Y010101D02*
X004474Y009601D01*
M02*
