G75*
G70*
%OFA0B0*%
%FSLAX24Y24*%
%IPPOS*%
%LPD*%
%AMOC8*
5,1,8,0,0,1.08239X$1,22.5*
%
%ADD10C,0.0000*%
%ADD11C,0.0480*%
%ADD12OC8,0.0630*%
%ADD13R,0.0470X0.0220*%
%ADD14R,0.0220X0.0470*%
%ADD15C,0.1000*%
%ADD16C,0.0600*%
%ADD17R,0.0600X0.0600*%
%ADD18OC8,0.0600*%
%ADD19C,0.0850*%
%ADD20OC8,0.0850*%
%ADD21R,0.0433X0.0394*%
%ADD22R,0.4724X0.0200*%
%ADD23R,0.0787X0.0200*%
%ADD24R,0.1575X0.0200*%
%ADD25R,0.2362X0.4331*%
%ADD26R,0.3268X0.0256*%
%ADD27R,0.2362X0.2559*%
%ADD28R,0.2953X0.0394*%
%ADD29R,0.0394X0.0433*%
%ADD30R,0.2441X0.2126*%
%ADD31R,0.0630X0.0394*%
%ADD32R,0.0327X0.0248*%
%ADD33R,0.0394X0.0551*%
%ADD34R,0.0394X0.1811*%
%ADD35R,0.0630X0.1339*%
%ADD36R,0.0480X0.0880*%
%ADD37R,0.1417X0.0866*%
%ADD38R,0.0630X0.0236*%
%ADD39R,0.0669X0.0709*%
%ADD40R,0.0425X0.0413*%
%ADD41R,0.0413X0.0425*%
%ADD42OC8,0.1640*%
%ADD43R,0.0800X0.0800*%
%ADD44C,0.0800*%
%ADD45C,0.0160*%
%ADD46C,0.0240*%
%ADD47C,0.0320*%
%ADD48R,0.0360X0.0360*%
%ADD49C,0.1000*%
%ADD50C,0.0120*%
%ADD51R,0.0396X0.0396*%
%ADD52C,0.0360*%
D10*
X003597Y000582D02*
X003597Y025582D01*
X028197Y025582D01*
X028197Y000582D01*
X003597Y000582D01*
X004247Y001782D02*
X004249Y001832D01*
X004255Y001882D01*
X004265Y001932D01*
X004278Y001980D01*
X004295Y002028D01*
X004316Y002074D01*
X004340Y002118D01*
X004368Y002160D01*
X004399Y002200D01*
X004433Y002237D01*
X004470Y002272D01*
X004509Y002303D01*
X004550Y002332D01*
X004594Y002357D01*
X004640Y002379D01*
X004687Y002397D01*
X004735Y002411D01*
X004784Y002422D01*
X004834Y002429D01*
X004884Y002432D01*
X004935Y002431D01*
X004985Y002426D01*
X005035Y002417D01*
X005083Y002405D01*
X005131Y002388D01*
X005177Y002368D01*
X005222Y002345D01*
X005265Y002318D01*
X005305Y002288D01*
X005343Y002255D01*
X005378Y002219D01*
X005411Y002180D01*
X005440Y002139D01*
X005466Y002096D01*
X005489Y002051D01*
X005508Y002004D01*
X005523Y001956D01*
X005535Y001907D01*
X005543Y001857D01*
X005547Y001807D01*
X005547Y001757D01*
X005543Y001707D01*
X005535Y001657D01*
X005523Y001608D01*
X005508Y001560D01*
X005489Y001513D01*
X005466Y001468D01*
X005440Y001425D01*
X005411Y001384D01*
X005378Y001345D01*
X005343Y001309D01*
X005305Y001276D01*
X005265Y001246D01*
X005222Y001219D01*
X005177Y001196D01*
X005131Y001176D01*
X005083Y001159D01*
X005035Y001147D01*
X004985Y001138D01*
X004935Y001133D01*
X004884Y001132D01*
X004834Y001135D01*
X004784Y001142D01*
X004735Y001153D01*
X004687Y001167D01*
X004640Y001185D01*
X004594Y001207D01*
X004550Y001232D01*
X004509Y001261D01*
X004470Y001292D01*
X004433Y001327D01*
X004399Y001364D01*
X004368Y001404D01*
X004340Y001446D01*
X004316Y001490D01*
X004295Y001536D01*
X004278Y001584D01*
X004265Y001632D01*
X004255Y001682D01*
X004249Y001732D01*
X004247Y001782D01*
X026169Y005285D02*
X026171Y005335D01*
X026177Y005385D01*
X026187Y005434D01*
X026201Y005482D01*
X026218Y005529D01*
X026239Y005574D01*
X026264Y005618D01*
X026292Y005659D01*
X026324Y005698D01*
X026358Y005735D01*
X026395Y005769D01*
X026435Y005799D01*
X026477Y005826D01*
X026521Y005850D01*
X026567Y005871D01*
X026614Y005887D01*
X026662Y005900D01*
X026712Y005909D01*
X026761Y005914D01*
X026812Y005915D01*
X026862Y005912D01*
X026911Y005905D01*
X026960Y005894D01*
X027008Y005879D01*
X027054Y005861D01*
X027099Y005839D01*
X027142Y005813D01*
X027183Y005784D01*
X027222Y005752D01*
X027258Y005717D01*
X027290Y005679D01*
X027320Y005639D01*
X027347Y005596D01*
X027370Y005552D01*
X027389Y005506D01*
X027405Y005458D01*
X027417Y005409D01*
X027425Y005360D01*
X027429Y005310D01*
X027429Y005260D01*
X027425Y005210D01*
X027417Y005161D01*
X027405Y005112D01*
X027389Y005064D01*
X027370Y005018D01*
X027347Y004974D01*
X027320Y004931D01*
X027290Y004891D01*
X027258Y004853D01*
X027222Y004818D01*
X027183Y004786D01*
X027142Y004757D01*
X027099Y004731D01*
X027054Y004709D01*
X027008Y004691D01*
X026960Y004676D01*
X026911Y004665D01*
X026862Y004658D01*
X026812Y004655D01*
X026761Y004656D01*
X026712Y004661D01*
X026662Y004670D01*
X026614Y004683D01*
X026567Y004699D01*
X026521Y004720D01*
X026477Y004744D01*
X026435Y004771D01*
X026395Y004801D01*
X026358Y004835D01*
X026324Y004872D01*
X026292Y004911D01*
X026264Y004952D01*
X026239Y004996D01*
X026218Y005041D01*
X026201Y005088D01*
X026187Y005136D01*
X026177Y005185D01*
X026171Y005235D01*
X026169Y005285D01*
X026247Y024282D02*
X026249Y024332D01*
X026255Y024382D01*
X026265Y024432D01*
X026278Y024480D01*
X026295Y024528D01*
X026316Y024574D01*
X026340Y024618D01*
X026368Y024660D01*
X026399Y024700D01*
X026433Y024737D01*
X026470Y024772D01*
X026509Y024803D01*
X026550Y024832D01*
X026594Y024857D01*
X026640Y024879D01*
X026687Y024897D01*
X026735Y024911D01*
X026784Y024922D01*
X026834Y024929D01*
X026884Y024932D01*
X026935Y024931D01*
X026985Y024926D01*
X027035Y024917D01*
X027083Y024905D01*
X027131Y024888D01*
X027177Y024868D01*
X027222Y024845D01*
X027265Y024818D01*
X027305Y024788D01*
X027343Y024755D01*
X027378Y024719D01*
X027411Y024680D01*
X027440Y024639D01*
X027466Y024596D01*
X027489Y024551D01*
X027508Y024504D01*
X027523Y024456D01*
X027535Y024407D01*
X027543Y024357D01*
X027547Y024307D01*
X027547Y024257D01*
X027543Y024207D01*
X027535Y024157D01*
X027523Y024108D01*
X027508Y024060D01*
X027489Y024013D01*
X027466Y023968D01*
X027440Y023925D01*
X027411Y023884D01*
X027378Y023845D01*
X027343Y023809D01*
X027305Y023776D01*
X027265Y023746D01*
X027222Y023719D01*
X027177Y023696D01*
X027131Y023676D01*
X027083Y023659D01*
X027035Y023647D01*
X026985Y023638D01*
X026935Y023633D01*
X026884Y023632D01*
X026834Y023635D01*
X026784Y023642D01*
X026735Y023653D01*
X026687Y023667D01*
X026640Y023685D01*
X026594Y023707D01*
X026550Y023732D01*
X026509Y023761D01*
X026470Y023792D01*
X026433Y023827D01*
X026399Y023864D01*
X026368Y023904D01*
X026340Y023946D01*
X026316Y023990D01*
X026295Y024036D01*
X026278Y024084D01*
X026265Y024132D01*
X026255Y024182D01*
X026249Y024232D01*
X026247Y024282D01*
X004247Y024282D02*
X004249Y024332D01*
X004255Y024382D01*
X004265Y024432D01*
X004278Y024480D01*
X004295Y024528D01*
X004316Y024574D01*
X004340Y024618D01*
X004368Y024660D01*
X004399Y024700D01*
X004433Y024737D01*
X004470Y024772D01*
X004509Y024803D01*
X004550Y024832D01*
X004594Y024857D01*
X004640Y024879D01*
X004687Y024897D01*
X004735Y024911D01*
X004784Y024922D01*
X004834Y024929D01*
X004884Y024932D01*
X004935Y024931D01*
X004985Y024926D01*
X005035Y024917D01*
X005083Y024905D01*
X005131Y024888D01*
X005177Y024868D01*
X005222Y024845D01*
X005265Y024818D01*
X005305Y024788D01*
X005343Y024755D01*
X005378Y024719D01*
X005411Y024680D01*
X005440Y024639D01*
X005466Y024596D01*
X005489Y024551D01*
X005508Y024504D01*
X005523Y024456D01*
X005535Y024407D01*
X005543Y024357D01*
X005547Y024307D01*
X005547Y024257D01*
X005543Y024207D01*
X005535Y024157D01*
X005523Y024108D01*
X005508Y024060D01*
X005489Y024013D01*
X005466Y023968D01*
X005440Y023925D01*
X005411Y023884D01*
X005378Y023845D01*
X005343Y023809D01*
X005305Y023776D01*
X005265Y023746D01*
X005222Y023719D01*
X005177Y023696D01*
X005131Y023676D01*
X005083Y023659D01*
X005035Y023647D01*
X004985Y023638D01*
X004935Y023633D01*
X004884Y023632D01*
X004834Y023635D01*
X004784Y023642D01*
X004735Y023653D01*
X004687Y023667D01*
X004640Y023685D01*
X004594Y023707D01*
X004550Y023732D01*
X004509Y023761D01*
X004470Y023792D01*
X004433Y023827D01*
X004399Y023864D01*
X004368Y023904D01*
X004340Y023946D01*
X004316Y023990D01*
X004295Y024036D01*
X004278Y024084D01*
X004265Y024132D01*
X004255Y024182D01*
X004249Y024232D01*
X004247Y024282D01*
D11*
X019947Y012282D03*
X021847Y012282D03*
D12*
X020397Y010282D03*
X019397Y009282D03*
X020397Y008282D03*
X019397Y007282D03*
D13*
X017967Y007420D03*
X017967Y007735D03*
X017967Y008050D03*
X017967Y008365D03*
X017967Y008680D03*
X017967Y008995D03*
X017967Y009310D03*
X017967Y009625D03*
X017967Y009940D03*
X017967Y010255D03*
X017967Y010570D03*
X017967Y010885D03*
X017967Y011200D03*
X017967Y011514D03*
X017967Y011829D03*
X017967Y012144D03*
X011826Y012144D03*
X011826Y011829D03*
X011826Y011514D03*
X011826Y011200D03*
X011826Y010885D03*
X011826Y010570D03*
X011826Y010255D03*
X011826Y009940D03*
X011826Y009625D03*
X011826Y009310D03*
X011826Y008995D03*
X011826Y008680D03*
X011826Y008365D03*
X011826Y008050D03*
X011826Y007735D03*
X011826Y007420D03*
D14*
X012534Y006711D03*
X012849Y006711D03*
X013164Y006711D03*
X013479Y006711D03*
X013794Y006711D03*
X014109Y006711D03*
X014424Y006711D03*
X014739Y006711D03*
X015054Y006711D03*
X015369Y006711D03*
X015684Y006711D03*
X015999Y006711D03*
X016314Y006711D03*
X016629Y006711D03*
X016944Y006711D03*
X017259Y006711D03*
X017259Y012853D03*
X016944Y012853D03*
X016629Y012853D03*
X016314Y012853D03*
X015999Y012853D03*
X015684Y012853D03*
X015369Y012853D03*
X015054Y012853D03*
X014739Y012853D03*
X014424Y012853D03*
X014109Y012853D03*
X013794Y012853D03*
X013479Y012853D03*
X013164Y012853D03*
X012849Y012853D03*
X012534Y012853D03*
D15*
X023847Y005876D03*
X025028Y005876D03*
X025028Y004695D03*
X023847Y004695D03*
D16*
X026097Y009782D02*
X026097Y010382D01*
X027097Y010382D02*
X027097Y009782D01*
X026697Y012782D02*
X026097Y012782D01*
X026097Y013782D02*
X026697Y013782D01*
X026697Y014782D02*
X026097Y014782D01*
D17*
X027147Y002532D03*
D18*
X026147Y002532D03*
X026147Y001532D03*
X027147Y001532D03*
X025147Y001532D03*
X025147Y002532D03*
D19*
X004397Y012282D03*
D20*
X010397Y012282D03*
D21*
X010397Y013948D03*
X010397Y014617D03*
X010897Y015948D03*
X010897Y016617D03*
X011897Y016617D03*
X011897Y015948D03*
X009897Y016448D03*
X009897Y017117D03*
X008897Y016617D03*
X008897Y015948D03*
X007897Y015948D03*
X007897Y016617D03*
X009597Y020098D03*
X009597Y020767D03*
X027397Y008617D03*
X027397Y007948D03*
X016897Y003617D03*
X016897Y002948D03*
D22*
X018471Y017026D03*
X015322Y017026D03*
X015322Y022538D03*
X018471Y022538D03*
D23*
X020440Y022144D03*
X020440Y021751D03*
X020440Y021357D03*
X020440Y020963D03*
X020440Y020176D03*
X020440Y019389D03*
X020440Y018601D03*
X020440Y018207D03*
X020440Y017814D03*
X020440Y017420D03*
X013353Y017420D03*
X013353Y018207D03*
X013353Y018601D03*
X013353Y018995D03*
X013353Y019389D03*
X013353Y019782D03*
X013353Y020176D03*
X013353Y020570D03*
X013353Y020963D03*
X013353Y021357D03*
X013353Y022144D03*
D24*
X013747Y021751D03*
X013747Y017814D03*
X020046Y018995D03*
X020046Y019782D03*
X020046Y020570D03*
D25*
X015519Y019782D03*
D26*
X018135Y019782D03*
D27*
X018274Y021455D03*
X018274Y018109D03*
D28*
X015812Y017026D03*
X015812Y022538D03*
D29*
X008731Y014782D03*
X008062Y014782D03*
X008062Y013782D03*
X008731Y013782D03*
X010562Y013282D03*
X011231Y013282D03*
X015212Y013532D03*
X015881Y013532D03*
D30*
X006412Y022282D03*
D31*
X009286Y021385D03*
X009286Y023180D03*
D32*
X009897Y022735D03*
X009897Y021829D03*
D33*
X016023Y002215D03*
X016771Y002215D03*
X016397Y001349D03*
D34*
X018715Y003633D03*
X019503Y003633D03*
X020290Y003633D03*
X021078Y003633D03*
X013540Y003639D03*
X012753Y003639D03*
X009234Y003639D03*
X008447Y003639D03*
X007659Y003639D03*
D35*
X006714Y001592D03*
X010179Y001592D03*
X011808Y001592D03*
X014485Y001592D03*
X017771Y001585D03*
X022023Y001585D03*
D36*
X008806Y010502D03*
X007897Y010502D03*
X006987Y010502D03*
D37*
X007897Y008062D03*
D38*
X022873Y008032D03*
X022873Y007532D03*
X022873Y008532D03*
X022873Y009032D03*
X024920Y009032D03*
X024920Y008532D03*
X024920Y008032D03*
X024920Y007532D03*
D39*
X005897Y008475D03*
X005897Y010089D03*
X004397Y013475D03*
X004397Y015089D03*
D40*
X009397Y009627D03*
X009397Y008938D03*
X010697Y008627D03*
X010697Y007938D03*
X010697Y007127D03*
X010697Y006438D03*
X011397Y013938D03*
X011397Y014627D03*
D41*
X021052Y006782D03*
X021741Y006782D03*
D42*
X005897Y017282D03*
X005897Y019282D03*
D43*
X025397Y018782D03*
D44*
X025397Y020751D03*
D45*
X022147Y020882D02*
X022147Y022232D01*
X019616Y022232D01*
X019616Y020882D01*
X022147Y020882D01*
X022147Y020893D02*
X019616Y020893D01*
X019616Y021051D02*
X022147Y021051D01*
X022147Y021210D02*
X019616Y021210D01*
X019616Y021368D02*
X022147Y021368D01*
X022147Y021527D02*
X019616Y021527D01*
X019616Y021686D02*
X022147Y021686D01*
X022147Y021844D02*
X019616Y021844D01*
X019616Y022003D02*
X022147Y022003D01*
X022147Y022161D02*
X019616Y022161D01*
X019897Y020282D02*
X020897Y020282D01*
X020897Y019282D01*
X019897Y019282D01*
X019897Y020282D01*
X019897Y020259D02*
X020897Y020259D01*
X020897Y020100D02*
X019897Y020100D01*
X019897Y019942D02*
X020897Y019942D01*
X020897Y019783D02*
X019897Y019783D01*
X019897Y019624D02*
X020897Y019624D01*
X020897Y019466D02*
X019897Y019466D01*
X019897Y019307D02*
X020897Y019307D01*
X022147Y018682D02*
X022147Y017332D01*
X019616Y017332D01*
X019616Y018682D01*
X022147Y018682D01*
X022147Y018673D02*
X019616Y018673D01*
X019616Y018515D02*
X022147Y018515D01*
X022147Y018356D02*
X019616Y018356D01*
X019616Y018198D02*
X022147Y018198D01*
X022147Y018039D02*
X019616Y018039D01*
X019616Y017881D02*
X022147Y017881D01*
X022147Y017722D02*
X019616Y017722D01*
X019616Y017563D02*
X022147Y017563D01*
X022147Y017405D02*
X019616Y017405D01*
X018135Y019782D02*
X015715Y019782D01*
X015556Y019623D01*
X013747Y017814D01*
X013353Y018601D02*
X012528Y018601D01*
X012497Y018632D01*
X012284Y018995D02*
X012147Y019132D01*
X012284Y018995D02*
X013353Y018995D01*
X013353Y019389D02*
X012540Y019389D01*
X012247Y019682D01*
X012397Y020182D02*
X012797Y019782D01*
X013353Y019782D01*
X013353Y020570D02*
X012184Y020570D01*
X011897Y020582D01*
X011578Y020963D02*
X011397Y020782D01*
X011578Y020963D02*
X013353Y020963D01*
X009897Y017982D02*
X009897Y017117D01*
X010397Y016782D02*
X010397Y015882D01*
X009897Y015732D02*
X010447Y015182D01*
X011547Y015182D01*
X011997Y014732D01*
X011997Y014232D01*
X012534Y014644D02*
X011697Y015482D01*
X011197Y015482D01*
X010897Y015782D01*
X010897Y015948D01*
X010897Y016617D02*
X010897Y017282D01*
X011897Y017282D02*
X011897Y016617D01*
X011897Y015948D02*
X011897Y015782D01*
X012897Y014782D01*
X012897Y013782D01*
X012534Y014644D02*
X012534Y012853D01*
X011897Y012782D02*
X011397Y012282D01*
X011534Y012144D01*
X011826Y012144D01*
X011826Y011829D02*
X012849Y011829D01*
X012897Y011782D01*
X013397Y010885D02*
X011826Y010885D01*
X010999Y010885D01*
X010479Y011200D02*
X011826Y011200D01*
X014529Y011200D01*
X015947Y009782D01*
X016397Y010282D02*
X016397Y010782D01*
X017444Y011829D01*
X017967Y011829D01*
X017967Y011514D02*
X017629Y011514D01*
X016897Y010782D01*
X016897Y009782D01*
X017967Y009625D02*
X018739Y009625D01*
X019397Y010282D01*
X018897Y010782D02*
X018684Y010570D01*
X017967Y010570D01*
X017967Y010885D02*
X018399Y010885D01*
X018497Y010982D01*
X018497Y012382D01*
X019747Y013632D01*
X024247Y013632D01*
X025397Y014782D01*
X026397Y014782D01*
X026397Y013782D02*
X024897Y013782D01*
X024397Y013282D01*
X019897Y013282D01*
X018897Y012282D01*
X016497Y013532D02*
X015881Y013532D01*
X015212Y013532D02*
X014647Y013532D01*
X014547Y013632D01*
X014547Y011682D02*
X014947Y011282D01*
X015897Y011282D01*
X013719Y010885D02*
X015609Y008995D01*
X014349Y007735D01*
X011826Y007735D01*
X010899Y007735D01*
X011429Y008050D02*
X011197Y008282D01*
X011429Y008050D02*
X011826Y008050D01*
X011826Y008365D02*
X012314Y008365D01*
X012397Y008282D01*
X013397Y008282D01*
X012897Y008782D02*
X012794Y008680D01*
X011826Y008680D01*
X011826Y007420D02*
X011534Y007420D01*
X011534Y007120D01*
X011197Y006782D01*
X011197Y006282D01*
X011697Y005782D01*
X011897Y005782D01*
X012849Y005829D02*
X012897Y005782D01*
X012849Y005829D02*
X012849Y006711D01*
X013147Y006694D02*
X013147Y006232D01*
X013397Y005982D01*
X014109Y005995D02*
X014109Y006711D01*
X014424Y006711D02*
X014424Y005810D01*
X014739Y005940D02*
X014739Y006711D01*
X015054Y006711D02*
X015054Y006125D01*
X015684Y006245D02*
X015684Y006711D01*
X015684Y006245D02*
X015697Y006182D01*
X016944Y006235D02*
X016997Y006182D01*
X017647Y006182D01*
X016944Y006235D02*
X016944Y006711D01*
X017397Y007282D02*
X017397Y008282D01*
X017479Y008365D01*
X017967Y008365D01*
X017967Y008680D02*
X017970Y008682D01*
X018397Y008682D01*
X018597Y008482D01*
X018684Y008995D02*
X017967Y008995D01*
X015609Y008995D01*
X015997Y008332D02*
X016847Y008332D01*
X016897Y008282D01*
X016897Y007782D01*
X016534Y007420D01*
X011826Y007420D01*
X013147Y006694D02*
X013164Y006711D01*
X016897Y008282D02*
X017294Y008680D01*
X017967Y008680D01*
X018684Y008995D02*
X019397Y008282D01*
X019369Y009310D02*
X017967Y009310D01*
X017397Y007282D02*
X018397Y006282D01*
X020397Y006282D01*
X021647Y005032D01*
X022247Y005032D01*
X023497Y003782D01*
X023897Y003782D01*
X025147Y002532D01*
X024497Y002032D02*
X026647Y002032D01*
X027147Y002532D01*
X025147Y001532D02*
X023647Y001532D01*
X023397Y001782D01*
X023397Y002782D01*
X023797Y003182D01*
X023897Y002624D02*
X023905Y002624D01*
X024497Y002032D01*
X013719Y010885D02*
X013397Y010885D01*
X013397Y010432D01*
X011826Y011514D02*
X011414Y011514D01*
X011147Y011782D01*
X011897Y012782D02*
X011897Y013282D01*
X009797Y015082D02*
X009797Y015432D01*
X009647Y015582D01*
X009647Y015782D01*
X009447Y015982D01*
X009447Y016432D01*
X009297Y016582D01*
X008931Y016582D01*
X008897Y016617D01*
X008897Y017282D01*
X008397Y016448D02*
X008062Y016782D01*
X007897Y016617D01*
X007897Y017282D01*
X008397Y016448D02*
X008397Y015282D01*
X008797Y015482D02*
X008897Y015582D01*
X008897Y015948D01*
X009297Y015232D02*
X008947Y014782D01*
X008731Y014782D01*
X008062Y014782D02*
X008062Y013782D01*
X008731Y013782D02*
X008731Y014017D01*
X009797Y015082D01*
X009897Y015732D02*
X009897Y016448D01*
X007897Y015948D02*
X007897Y015782D01*
X006397Y014282D01*
X004397Y008782D02*
X008897Y008782D01*
X008897Y007282D01*
X006897Y007282D01*
X006897Y004282D01*
X004397Y004282D01*
X004397Y008782D01*
X004397Y008685D02*
X008897Y008685D01*
X008897Y008526D02*
X004397Y008526D01*
X004397Y008368D02*
X008897Y008368D01*
X008897Y008209D02*
X004397Y008209D01*
X004397Y008051D02*
X008897Y008051D01*
X008897Y007892D02*
X004397Y007892D01*
X004397Y007734D02*
X008897Y007734D01*
X008897Y007575D02*
X004397Y007575D01*
X004397Y007417D02*
X008897Y007417D01*
X006897Y007258D02*
X004397Y007258D01*
X004397Y007100D02*
X006897Y007100D01*
X006897Y006941D02*
X004397Y006941D01*
X004397Y006782D02*
X006897Y006782D01*
X006897Y006624D02*
X004397Y006624D01*
X004397Y006465D02*
X006897Y006465D01*
X006897Y006307D02*
X004397Y006307D01*
X004397Y006148D02*
X006897Y006148D01*
X006897Y005990D02*
X004397Y005990D01*
X004397Y005831D02*
X006897Y005831D01*
X006897Y005673D02*
X004397Y005673D01*
X004397Y005514D02*
X006897Y005514D01*
X006897Y005356D02*
X004397Y005356D01*
X004397Y005197D02*
X006897Y005197D01*
X006897Y005039D02*
X004397Y005039D01*
X004397Y004880D02*
X006897Y004880D01*
X006897Y004721D02*
X004397Y004721D01*
X004397Y004563D02*
X006897Y004563D01*
X006897Y004404D02*
X004397Y004404D01*
D46*
X007397Y005582D02*
X007647Y005332D01*
X007647Y003651D01*
X007659Y003639D01*
X008447Y003639D02*
X008447Y005282D01*
X009234Y005445D02*
X008397Y006282D01*
X007897Y006282D01*
X007397Y006782D02*
X007397Y005582D01*
X009234Y005445D02*
X009234Y003639D01*
X010897Y005282D02*
X009897Y006282D01*
X009897Y006782D01*
X010697Y006438D02*
X010852Y006282D01*
X011197Y006282D01*
X010697Y007127D02*
X010899Y007329D01*
X010899Y007735D01*
X010697Y007938D01*
X011197Y008282D02*
X011197Y008782D01*
X010697Y008782D01*
X010697Y008627D01*
X009397Y008938D02*
X009397Y008282D01*
X008897Y007782D01*
X008397Y007782D01*
X007897Y008282D01*
X007897Y007282D02*
X007897Y010282D01*
X007897Y011282D01*
X007397Y011782D01*
X007897Y011282D02*
X008397Y011782D01*
X008897Y012282D02*
X009397Y012782D01*
X009397Y014282D01*
X009731Y014617D01*
X010397Y014617D01*
X010406Y014627D01*
X011397Y014627D01*
X011397Y013938D02*
X011231Y013772D01*
X011231Y013282D01*
X011231Y012948D01*
X011197Y012782D01*
X010562Y013282D02*
X009897Y013282D01*
X010397Y013448D02*
X010562Y013282D01*
X010397Y013448D02*
X010397Y013948D01*
X008062Y013782D02*
X007397Y013782D01*
X010397Y011282D02*
X010479Y011200D01*
X010999Y010885D02*
X010397Y010282D01*
X009897Y010282D01*
X009872Y010257D01*
X009397Y010382D02*
X009397Y009627D01*
X013897Y005782D02*
X014109Y005995D01*
X014397Y005782D02*
X014424Y005810D01*
X014397Y005782D02*
X015397Y004782D01*
X019397Y004782D01*
X019503Y004676D01*
X019503Y003633D01*
X020290Y003633D02*
X020290Y004889D01*
X019897Y005282D01*
X015397Y005282D01*
X014739Y005940D01*
X015054Y006125D02*
X015397Y005782D01*
X020397Y005782D01*
X021078Y005101D01*
X021078Y003633D01*
X018715Y003633D02*
X018715Y003963D01*
X018397Y004282D01*
X015397Y004282D01*
X015397Y003282D01*
X016023Y002656D01*
X016023Y002215D01*
X015397Y002282D02*
X015397Y001782D01*
X015830Y001349D01*
X016397Y001349D01*
X016771Y002215D02*
X016897Y002341D01*
X016897Y002948D01*
X016897Y003617D02*
X016731Y003782D01*
X015897Y003782D01*
X015397Y004282D02*
X014397Y005282D01*
X010897Y005282D01*
X012753Y003639D02*
X013540Y003639D01*
X013684Y003782D01*
X013897Y003782D01*
X015397Y002282D01*
X021052Y006782D02*
X021052Y007127D01*
X020897Y007282D01*
X020397Y007282D01*
X020897Y007282D02*
X021647Y008032D01*
X022873Y008032D01*
X022873Y007532D02*
X022147Y007532D01*
X022247Y006782D02*
X021741Y006782D01*
X022747Y006482D02*
X022747Y005795D01*
X023847Y004695D01*
X025028Y004695D02*
X025028Y003651D01*
X025397Y003282D01*
X025028Y005876D02*
X025047Y005895D01*
X025047Y006382D01*
X026397Y007732D01*
X026397Y008282D01*
X025647Y009032D01*
X024920Y009032D01*
X024920Y009356D01*
X025097Y009532D01*
X024697Y010082D02*
X023897Y009282D01*
X023897Y008282D01*
X024147Y008532D01*
X024920Y008532D01*
X024920Y008032D02*
X024507Y008032D01*
X024147Y007672D01*
X024147Y006176D01*
X023847Y005876D01*
X022747Y006482D02*
X023697Y007432D01*
X023697Y008082D01*
X023897Y008282D01*
X023497Y008532D02*
X022873Y008532D01*
X022447Y008532D01*
X022297Y008382D01*
X020497Y008382D01*
X020397Y008282D01*
X022397Y010282D01*
X024897Y012782D01*
X026397Y012782D01*
X026097Y010082D02*
X024697Y010082D01*
X022897Y009782D02*
X022397Y010282D01*
X021847Y010732D02*
X020397Y009282D01*
X019397Y009282D01*
X019369Y009310D01*
X018597Y008482D02*
X018597Y008132D01*
X019397Y008282D02*
X019397Y007282D01*
X019397Y008282D02*
X020397Y008282D01*
X021897Y008782D02*
X022147Y009032D01*
X022873Y009032D01*
X021847Y010732D02*
X021847Y012282D01*
X019947Y012282D02*
X019947Y010832D01*
X019397Y010282D01*
X020397Y010282D01*
X018897Y010782D02*
X018897Y012282D01*
X024920Y008032D02*
X025697Y008032D01*
X026897Y007282D02*
X027397Y007782D01*
X027397Y007948D01*
X027397Y008617D02*
X027097Y008917D01*
X027097Y010082D01*
X020046Y019782D02*
X018135Y019782D01*
X015556Y019623D02*
X015519Y019660D01*
X015519Y019782D01*
X014397Y021282D02*
X010397Y021282D01*
X010397Y021782D01*
X014397Y021782D01*
X014397Y021282D01*
X014397Y021513D02*
X010397Y021513D01*
X010397Y021751D02*
X014397Y021751D01*
X011397Y022282D02*
X011397Y023282D01*
X010397Y024282D01*
X008397Y024282D01*
X008397Y022282D01*
X011397Y022282D01*
X011397Y022467D02*
X008397Y022467D01*
X008397Y022705D02*
X011397Y022705D01*
X011397Y022944D02*
X008397Y022944D01*
X008397Y023182D02*
X011397Y023182D01*
X011258Y023421D02*
X008397Y023421D01*
X008397Y023659D02*
X011019Y023659D01*
X010781Y023898D02*
X008397Y023898D01*
X008397Y024137D02*
X010542Y024137D01*
X009452Y023180D02*
X009897Y022735D01*
X009452Y023180D02*
X009286Y023180D01*
X009897Y021829D02*
X009452Y021385D01*
X009286Y021385D01*
X009389Y021282D01*
X009397Y021282D01*
X009597Y021082D01*
X009597Y020767D01*
X010397Y018282D02*
X010397Y017782D01*
X014397Y017782D01*
X014397Y018282D01*
X012789Y018282D01*
X012759Y018252D01*
X012234Y018252D01*
X012204Y018282D01*
X010397Y018282D01*
X010397Y018173D02*
X014397Y018173D01*
X014397Y017934D02*
X010397Y017934D01*
D47*
X005897Y017282D02*
X005897Y016782D01*
X004397Y015282D01*
X004397Y015089D01*
X005397Y015032D02*
X005397Y013282D01*
X005897Y012782D01*
X008397Y012782D01*
X008897Y012282D01*
X008897Y011282D01*
X008897Y010592D01*
X008806Y010502D01*
X008926Y010382D01*
X009397Y010382D01*
X009747Y010382D01*
X009872Y010257D01*
X009997Y010132D01*
X009997Y007932D01*
X009897Y007832D01*
X009897Y006782D01*
X007397Y006782D01*
X007897Y007782D02*
X007617Y008062D01*
X006310Y008062D01*
X005897Y008475D01*
X007617Y008062D02*
X007897Y008062D01*
X007897Y008282D01*
X007897Y010282D01*
X007897Y010502D01*
X006987Y010502D02*
X006310Y010502D01*
X005897Y010089D01*
X005589Y010089D01*
X004397Y011282D01*
X004397Y012282D01*
X004397Y013475D01*
X008897Y011282D02*
X009897Y012282D01*
X010397Y012282D01*
D48*
X011147Y011782D03*
X010397Y011282D03*
X011197Y012782D03*
X011897Y013282D03*
X012897Y013782D03*
X011997Y014232D03*
X010397Y015882D03*
X010397Y016782D03*
X010897Y017282D03*
X011897Y017282D03*
X012497Y018632D03*
X012147Y019132D03*
X012247Y019682D03*
X012397Y020182D03*
X011897Y020582D03*
X011397Y020782D03*
X009897Y017982D03*
X008897Y017282D03*
X007897Y017282D03*
X008797Y015482D03*
X007397Y013782D03*
X006397Y014282D03*
X005397Y015032D03*
X007397Y011782D03*
X008397Y011782D03*
X009897Y013282D03*
X012897Y011782D03*
X013397Y010432D03*
X014547Y011682D03*
X015897Y011282D03*
X016397Y010282D03*
X015947Y009782D03*
X016897Y009782D03*
X015997Y008332D03*
X015697Y006182D03*
X013897Y005782D03*
X013397Y005982D03*
X012897Y005782D03*
X011897Y005782D03*
X013397Y008282D03*
X012897Y008782D03*
X008447Y005282D03*
X007897Y006282D03*
X007897Y007282D03*
X014647Y013532D03*
X016497Y013532D03*
X021897Y008782D03*
X022897Y009782D03*
X023497Y008532D03*
X022147Y007532D03*
X022247Y006782D03*
X020397Y007282D03*
X018597Y008132D03*
X017647Y006182D03*
X015897Y003782D03*
X023797Y003182D03*
X023897Y002624D03*
X025397Y003282D03*
X026897Y007282D03*
X025697Y008032D03*
X025097Y009532D03*
D49*
X006412Y019798D02*
X005897Y019282D01*
X006412Y019798D02*
X006412Y022282D01*
D50*
X007597Y022331D02*
X003797Y022331D01*
X003797Y022213D02*
X007597Y022213D01*
X007597Y022094D02*
X003797Y022094D01*
X003797Y021976D02*
X007597Y021976D01*
X007597Y021857D02*
X003797Y021857D01*
X003797Y021739D02*
X007597Y021739D01*
X007597Y021620D02*
X003797Y021620D01*
X003797Y021501D02*
X007597Y021501D01*
X007597Y021383D02*
X003797Y021383D01*
X003797Y021264D02*
X007597Y021264D01*
X007597Y021146D02*
X003797Y021146D01*
X003797Y021027D02*
X007597Y021027D01*
X007597Y020909D02*
X003797Y020909D01*
X003797Y020790D02*
X007597Y020790D01*
X007597Y020672D02*
X003797Y020672D01*
X003797Y020553D02*
X007597Y020553D01*
X007597Y020435D02*
X003797Y020435D01*
X003797Y020316D02*
X007597Y020316D01*
X007597Y020197D02*
X003797Y020197D01*
X003797Y020079D02*
X007597Y020079D01*
X007597Y019960D02*
X003797Y019960D01*
X003797Y019842D02*
X007597Y019842D01*
X007597Y019832D02*
X006247Y018482D01*
X005147Y018482D01*
X003797Y019832D01*
X003797Y025382D01*
X009997Y025382D01*
X009997Y024682D01*
X007997Y024682D01*
X007597Y024282D01*
X007597Y019832D01*
X007488Y019723D02*
X003905Y019723D01*
X004024Y019605D02*
X007369Y019605D01*
X007251Y019486D02*
X004143Y019486D01*
X004261Y019368D02*
X007132Y019368D01*
X007013Y019249D02*
X004380Y019249D01*
X004498Y019131D02*
X006895Y019131D01*
X006776Y019012D02*
X004617Y019012D01*
X004735Y018894D02*
X006658Y018894D01*
X006539Y018775D02*
X004854Y018775D01*
X004972Y018656D02*
X006421Y018656D01*
X006302Y018538D02*
X005091Y018538D01*
X005047Y018182D02*
X006447Y018182D01*
X007947Y018182D01*
X008065Y018301D02*
X006565Y018301D01*
X006684Y018419D02*
X008184Y018419D01*
X008302Y018538D02*
X006802Y018538D01*
X006921Y018656D02*
X011047Y018656D01*
X011047Y018538D02*
X010241Y018538D01*
X010147Y018632D02*
X008397Y018632D01*
X007247Y017482D01*
X007247Y016932D01*
X006547Y016232D01*
X005047Y016232D01*
X004747Y016532D01*
X004747Y017882D01*
X005047Y018182D01*
X004928Y018064D02*
X007828Y018064D01*
X007709Y017945D02*
X004809Y017945D01*
X004747Y017827D02*
X007591Y017827D01*
X007472Y017708D02*
X004747Y017708D01*
X004747Y017590D02*
X007354Y017590D01*
X007247Y017471D02*
X004747Y017471D01*
X004747Y017352D02*
X007247Y017352D01*
X007247Y017234D02*
X004747Y017234D01*
X004747Y017115D02*
X007247Y017115D01*
X007247Y016997D02*
X004747Y016997D01*
X004747Y016878D02*
X007193Y016878D01*
X007074Y016760D02*
X004747Y016760D01*
X004747Y016641D02*
X006956Y016641D01*
X006837Y016523D02*
X004756Y016523D01*
X004875Y016404D02*
X006718Y016404D01*
X006600Y016286D02*
X004993Y016286D01*
X006447Y018182D02*
X008047Y019782D01*
X008047Y020282D01*
X010347Y020282D01*
X010347Y021782D01*
X010397Y021832D01*
X011047Y021832D01*
X011047Y017732D01*
X010347Y017732D01*
X010347Y018432D01*
X010147Y018632D01*
X010347Y018419D02*
X011047Y018419D01*
X011047Y018301D02*
X010347Y018301D01*
X010347Y018182D02*
X011047Y018182D01*
X011047Y018064D02*
X010347Y018064D01*
X010347Y017945D02*
X011047Y017945D01*
X011047Y017827D02*
X010347Y017827D01*
X011047Y018775D02*
X007039Y018775D01*
X007158Y018894D02*
X011047Y018894D01*
X011047Y019012D02*
X007276Y019012D01*
X007395Y019131D02*
X011047Y019131D01*
X011047Y019249D02*
X007513Y019249D01*
X007632Y019368D02*
X011047Y019368D01*
X011047Y019486D02*
X007751Y019486D01*
X007869Y019605D02*
X011047Y019605D01*
X011047Y019723D02*
X007988Y019723D01*
X008047Y019842D02*
X011047Y019842D01*
X011047Y019960D02*
X008047Y019960D01*
X008047Y020079D02*
X011047Y020079D01*
X011047Y020197D02*
X008047Y020197D01*
X010347Y020316D02*
X011047Y020316D01*
X011047Y020435D02*
X010347Y020435D01*
X010347Y020553D02*
X011047Y020553D01*
X011047Y020672D02*
X010347Y020672D01*
X010347Y020790D02*
X011047Y020790D01*
X011047Y020909D02*
X010347Y020909D01*
X010347Y021027D02*
X011047Y021027D01*
X011047Y021146D02*
X010347Y021146D01*
X010347Y021264D02*
X011047Y021264D01*
X011047Y021383D02*
X010347Y021383D01*
X010347Y021501D02*
X011047Y021501D01*
X011047Y021620D02*
X010347Y021620D01*
X010347Y021739D02*
X011047Y021739D01*
X012747Y022132D02*
X012747Y022732D01*
X014397Y025282D01*
X023594Y025282D01*
X026397Y022479D01*
X026397Y019982D01*
X022447Y019982D01*
X022447Y022482D01*
X019197Y022482D01*
X019197Y020232D01*
X017147Y020232D01*
X017147Y022132D01*
X012747Y022132D01*
X012747Y022213D02*
X019197Y022213D01*
X019197Y022331D02*
X012747Y022331D01*
X012747Y022450D02*
X019197Y022450D01*
X019197Y022094D02*
X017147Y022094D01*
X017147Y021976D02*
X019197Y021976D01*
X019197Y021857D02*
X017147Y021857D01*
X017147Y021739D02*
X019197Y021739D01*
X019197Y021620D02*
X017147Y021620D01*
X017147Y021501D02*
X019197Y021501D01*
X019197Y021383D02*
X017147Y021383D01*
X017147Y021264D02*
X019197Y021264D01*
X019197Y021146D02*
X017147Y021146D01*
X017147Y021027D02*
X019197Y021027D01*
X019197Y020909D02*
X017147Y020909D01*
X017147Y020790D02*
X019197Y020790D01*
X019197Y020672D02*
X017147Y020672D01*
X017147Y020553D02*
X019197Y020553D01*
X019197Y020435D02*
X017147Y020435D01*
X017147Y020316D02*
X019197Y020316D01*
X019147Y019332D02*
X019147Y017082D01*
X022447Y017082D01*
X022447Y019582D01*
X026397Y019582D01*
X026397Y017085D01*
X023594Y014282D01*
X014397Y014282D01*
X012747Y016832D01*
X012747Y017432D01*
X017147Y017432D01*
X017147Y019332D01*
X019147Y019332D01*
X019147Y019249D02*
X017147Y019249D01*
X017147Y019131D02*
X019147Y019131D01*
X019147Y019012D02*
X017147Y019012D01*
X017147Y018894D02*
X019147Y018894D01*
X019147Y018775D02*
X017147Y018775D01*
X017147Y018656D02*
X019147Y018656D01*
X019147Y018538D02*
X017147Y018538D01*
X017147Y018419D02*
X019147Y018419D01*
X019147Y018301D02*
X017147Y018301D01*
X017147Y018182D02*
X019147Y018182D01*
X019147Y018064D02*
X017147Y018064D01*
X017147Y017945D02*
X019147Y017945D01*
X019147Y017827D02*
X017147Y017827D01*
X017147Y017708D02*
X019147Y017708D01*
X019147Y017590D02*
X017147Y017590D01*
X017147Y017471D02*
X019147Y017471D01*
X019147Y017352D02*
X012747Y017352D01*
X012747Y017234D02*
X019147Y017234D01*
X019147Y017115D02*
X012747Y017115D01*
X012747Y016997D02*
X026308Y016997D01*
X026397Y017115D02*
X022447Y017115D01*
X022447Y017234D02*
X026397Y017234D01*
X026397Y017352D02*
X022447Y017352D01*
X022447Y017471D02*
X026397Y017471D01*
X026397Y017590D02*
X022447Y017590D01*
X022447Y017708D02*
X026397Y017708D01*
X026397Y017827D02*
X022447Y017827D01*
X022447Y017945D02*
X026397Y017945D01*
X026397Y018064D02*
X022447Y018064D01*
X022447Y018182D02*
X026397Y018182D01*
X026397Y018301D02*
X022447Y018301D01*
X022447Y018419D02*
X026397Y018419D01*
X026397Y018538D02*
X022447Y018538D01*
X022447Y018656D02*
X026397Y018656D01*
X026397Y018775D02*
X022447Y018775D01*
X022447Y018894D02*
X026397Y018894D01*
X026397Y019012D02*
X022447Y019012D01*
X022447Y019131D02*
X026397Y019131D01*
X026397Y019249D02*
X022447Y019249D01*
X022447Y019368D02*
X026397Y019368D01*
X026397Y019486D02*
X022447Y019486D01*
X022997Y019032D02*
X022997Y018932D01*
X020797Y018932D01*
X020797Y019032D01*
X022997Y019032D01*
X022997Y019012D02*
X020797Y019012D01*
X020747Y020532D02*
X022947Y020532D01*
X022947Y020632D01*
X020747Y020632D01*
X020747Y020532D01*
X020747Y020553D02*
X022947Y020553D01*
X022447Y020553D02*
X026397Y020553D01*
X026397Y020435D02*
X022447Y020435D01*
X022447Y020316D02*
X026397Y020316D01*
X026397Y020197D02*
X022447Y020197D01*
X022447Y020079D02*
X026397Y020079D01*
X026397Y020672D02*
X022447Y020672D01*
X022447Y020790D02*
X026397Y020790D01*
X026397Y020909D02*
X022447Y020909D01*
X022447Y021027D02*
X026397Y021027D01*
X026397Y021146D02*
X022447Y021146D01*
X022447Y021264D02*
X026397Y021264D01*
X026397Y021383D02*
X022447Y021383D01*
X022447Y021501D02*
X026397Y021501D01*
X026397Y021620D02*
X022447Y021620D01*
X022447Y021739D02*
X026397Y021739D01*
X026397Y021857D02*
X022447Y021857D01*
X022447Y021976D02*
X026397Y021976D01*
X026397Y022094D02*
X022447Y022094D01*
X022447Y022213D02*
X026397Y022213D01*
X026397Y022331D02*
X022447Y022331D01*
X022447Y022450D02*
X026397Y022450D01*
X026308Y022568D02*
X012747Y022568D01*
X012747Y022687D02*
X026189Y022687D01*
X026071Y022805D02*
X012794Y022805D01*
X012871Y022924D02*
X025952Y022924D01*
X025833Y023043D02*
X012947Y023043D01*
X013024Y023161D02*
X025715Y023161D01*
X025596Y023280D02*
X013101Y023280D01*
X013177Y023398D02*
X025478Y023398D01*
X025359Y023517D02*
X013254Y023517D01*
X013331Y023635D02*
X025241Y023635D01*
X025122Y023754D02*
X013408Y023754D01*
X013484Y023872D02*
X025004Y023872D01*
X024885Y023991D02*
X013561Y023991D01*
X013638Y024109D02*
X024767Y024109D01*
X024648Y024228D02*
X013714Y024228D01*
X013791Y024346D02*
X024529Y024346D01*
X024411Y024465D02*
X013868Y024465D01*
X013944Y024584D02*
X024292Y024584D01*
X024174Y024702D02*
X014021Y024702D01*
X014098Y024821D02*
X024055Y024821D01*
X023937Y024939D02*
X014175Y024939D01*
X014251Y025058D02*
X023818Y025058D01*
X023700Y025176D02*
X014328Y025176D01*
X009997Y025176D02*
X003797Y025176D01*
X003797Y025058D02*
X004600Y025058D01*
X004731Y025112D02*
X004426Y024986D01*
X004426Y024986D01*
X004193Y024752D01*
X004067Y024447D01*
X004067Y024117D01*
X004193Y023812D01*
X004426Y023579D01*
X004426Y023579D01*
X004426Y023579D01*
X004731Y023452D01*
X004731Y023452D01*
X004855Y023452D01*
X004897Y023452D01*
X005062Y023452D01*
X005367Y023579D01*
X005600Y023812D01*
X005726Y024117D01*
X005726Y024447D01*
X005600Y024752D01*
X005367Y024986D01*
X005367Y024986D01*
X005062Y025112D01*
X005062Y025112D01*
X004938Y025112D01*
X004896Y025112D01*
X004855Y025112D01*
X004731Y025112D01*
X004731Y025112D01*
X004896Y025112D02*
X004896Y025112D01*
X005193Y025058D02*
X009997Y025058D01*
X009997Y024939D02*
X005413Y024939D01*
X005532Y024821D02*
X009997Y024821D01*
X009997Y024702D02*
X005621Y024702D01*
X005600Y024752D02*
X005600Y024752D01*
X005670Y024584D02*
X007898Y024584D01*
X007779Y024465D02*
X005719Y024465D01*
X005726Y024447D02*
X005726Y024447D01*
X005726Y024346D02*
X007661Y024346D01*
X007597Y024228D02*
X005726Y024228D01*
X005726Y024117D02*
X005726Y024117D01*
X005723Y024109D02*
X007597Y024109D01*
X007597Y023991D02*
X005674Y023991D01*
X005625Y023872D02*
X007597Y023872D01*
X007597Y023754D02*
X005542Y023754D01*
X005600Y023812D02*
X005600Y023812D01*
X005423Y023635D02*
X007597Y023635D01*
X007597Y023517D02*
X005217Y023517D01*
X005367Y023579D02*
X005367Y023579D01*
X005062Y023452D02*
X005062Y023452D01*
X004576Y023517D02*
X003797Y023517D01*
X003797Y023635D02*
X004370Y023635D01*
X004251Y023754D02*
X003797Y023754D01*
X003797Y023872D02*
X004168Y023872D01*
X004193Y023812D02*
X004193Y023812D01*
X004119Y023991D02*
X003797Y023991D01*
X003797Y024109D02*
X004070Y024109D01*
X004067Y024117D02*
X004067Y024117D01*
X004067Y024228D02*
X003797Y024228D01*
X003797Y024346D02*
X004067Y024346D01*
X004074Y024465D02*
X003797Y024465D01*
X003797Y024584D02*
X004123Y024584D01*
X004172Y024702D02*
X003797Y024702D01*
X003797Y024821D02*
X004261Y024821D01*
X004193Y024752D02*
X004193Y024752D01*
X004380Y024939D02*
X003797Y024939D01*
X003797Y025295D02*
X009997Y025295D01*
X007597Y023398D02*
X003797Y023398D01*
X003797Y023280D02*
X007597Y023280D01*
X007597Y023161D02*
X003797Y023161D01*
X003797Y023043D02*
X007597Y023043D01*
X007597Y022924D02*
X003797Y022924D01*
X003797Y022805D02*
X007597Y022805D01*
X007597Y022687D02*
X003797Y022687D01*
X003797Y022568D02*
X007597Y022568D01*
X007597Y022450D02*
X003797Y022450D01*
X012747Y016878D02*
X026190Y016878D01*
X026071Y016760D02*
X012793Y016760D01*
X012870Y016641D02*
X025953Y016641D01*
X025834Y016523D02*
X012947Y016523D01*
X013024Y016404D02*
X025716Y016404D01*
X025597Y016286D02*
X013100Y016286D01*
X013177Y016167D02*
X025479Y016167D01*
X025360Y016048D02*
X013254Y016048D01*
X013330Y015930D02*
X025241Y015930D01*
X025123Y015811D02*
X013407Y015811D01*
X013484Y015693D02*
X025004Y015693D01*
X024886Y015574D02*
X013561Y015574D01*
X013637Y015456D02*
X024767Y015456D01*
X024649Y015337D02*
X013714Y015337D01*
X013791Y015219D02*
X024530Y015219D01*
X024412Y015100D02*
X013867Y015100D01*
X013944Y014982D02*
X024293Y014982D01*
X024175Y014863D02*
X014021Y014863D01*
X014097Y014744D02*
X024056Y014744D01*
X023938Y014626D02*
X014174Y014626D01*
X014251Y014507D02*
X023819Y014507D01*
X023700Y014389D02*
X014328Y014389D01*
D51*
X009297Y015232D03*
D52*
X009097Y022532D03*
X009897Y023282D03*
X010397Y023282D03*
X010397Y022782D03*
X010897Y022782D03*
X010397Y023782D03*
X009897Y023782D03*
X009397Y023782D03*
X008897Y023782D03*
X009147Y024232D03*
X009647Y024232D03*
X019747Y022032D03*
X019747Y021532D03*
X019747Y021032D03*
X021297Y021032D03*
X021297Y021532D03*
X021297Y022032D03*
X021847Y022032D03*
X021847Y021532D03*
X021847Y021032D03*
X021847Y018532D03*
X021847Y018032D03*
X021847Y017532D03*
X021297Y017532D03*
X021297Y018032D03*
X021297Y018532D03*
X019747Y018532D03*
X019747Y018032D03*
X019747Y017532D03*
M02*
