%
M48
M72
T01C0.0200
T02C0.0236
T03C0.0320
T04C0.0394
T05C0.0400
T06C0.0512
T07C0.0630
T08C0.1260
T09C0.1300
%
T01
X7897Y6282
X7897Y7282
X8447Y5282
X11897Y5782
X12897Y5782
X13397Y5982
X13897Y5782
X15697Y6182
X17647Y6182
X18597Y8132
X20397Y7282
X22147Y7532
X22247Y6782
X23497Y8532
X22897Y9782
X21897Y8782
X25097Y9532
X25697Y8032
X26897Y7282
X25397Y3282
X23797Y3182
X23897Y2624
X15997Y8332
X15947Y9782
X16397Y10282
X16897Y9782
X15897Y11282
X14547Y11682
X13397Y10432
X12897Y11782
X11147Y11782
X10397Y11282
X11197Y12782
X11897Y13282
X12897Y13782
X11997Y14232
X10397Y15882
X10397Y16782
X10897Y17282
X11897Y17282
X12497Y18632
X12147Y19132
X12247Y19682
X12397Y20182
X11897Y20582
X11397Y20782
X10897Y22782
X10397Y22782
X10397Y23282
X9897Y23282
X9897Y23782
X10397Y23782
X9647Y24232
X9147Y24232
X9397Y23782
X8897Y23782
X9097Y22532
X9897Y17982
X8897Y17282
X7897Y17282
X8797Y15482
X7397Y13782
X6397Y14282
X5397Y15032
X7397Y11782
X8397Y11782
X9897Y13282
X14647Y13532
X16497Y13532
X19747Y17532
X19747Y18032
X19747Y18532
X21297Y18532
X21297Y18032
X21297Y17532
X21847Y17532
X21847Y18032
X21847Y18532
X21847Y21032
X21847Y21532
X21847Y22032
X21297Y22032
X21297Y21532
X21297Y21032
X19747Y21032
X19747Y21532
X19747Y22032
X12897Y8782
X13397Y8282
X15897Y3782
T02
X9297Y15232
T03
X10397Y12282
X4397Y12282
X19397Y9282
X20397Y8282
X19397Y7282
X20397Y10282
X19947Y12282
X21847Y12282
T04
X23847Y5876
X25028Y5876
X25028Y4695
X23847Y4695
T05
X25147Y2532
X26147Y2532
X27147Y2532
X27147Y1532
X26147Y1532
X25147Y1532
X26097Y10082
X27097Y10082
X26397Y12782
X26397Y13782
X26397Y14782
T06
X25397Y18782
X25397Y20751
T07
X5897Y19282
X5897Y17282
T08
X26799Y5285
T09
X4897Y1782
X4897Y24282
X26897Y24282
M30
