G75*
G70*
%OFA0B0*%
%FSLAX24Y24*%
%IPPOS*%
%LPD*%
%AMOC8*
5,1,8,0,0,1.08239X$1,22.5*
%
%ADD10C,0.0160*%
%ADD11C,0.0560*%
%ADD12OC8,0.0710*%
%ADD13C,0.0081*%
%ADD14C,0.1080*%
%ADD15C,0.1340*%
%ADD16C,0.0680*%
%ADD17R,0.0680X0.0680*%
%ADD18OC8,0.0680*%
%ADD19C,0.0930*%
%ADD20OC8,0.0930*%
%ADD21C,0.1380*%
%ADD22C,0.0081*%
%ADD23C,0.0081*%
%ADD24R,0.0866X0.0276*%
%ADD25C,0.0315*%
%ADD26C,0.0088*%
%ADD27C,0.0082*%
%ADD28C,0.0085*%
%ADD29C,0.0084*%
%ADD30C,0.0085*%
%ADD31C,0.0082*%
%ADD32C,0.0082*%
%ADD33C,0.0084*%
%ADD34OC8,0.1720*%
%ADD35R,0.0880X0.0880*%
%ADD36C,0.0880*%
%ADD37R,0.0440X0.0440*%
%ADD38R,0.0476X0.0476*%
%ADD39C,0.0440*%
D10*
X019897Y013782D02*
X022897Y013782D01*
X025397Y016282D01*
X021397Y016282D01*
X019897Y016282D01*
X019897Y013782D01*
X019897Y013917D02*
X023031Y013917D01*
X023190Y014075D02*
X019897Y014075D01*
X019897Y014234D02*
X023348Y014234D01*
X023507Y014393D02*
X019897Y014393D01*
X019897Y014551D02*
X023665Y014551D01*
X023824Y014710D02*
X019897Y014710D01*
X019897Y014868D02*
X023983Y014868D01*
X024141Y015027D02*
X019897Y015027D01*
X019897Y015185D02*
X024300Y015185D01*
X024458Y015344D02*
X019897Y015344D01*
X019897Y015502D02*
X024617Y015502D01*
X024775Y015661D02*
X019897Y015661D01*
X019897Y015819D02*
X024934Y015819D01*
X025092Y015978D02*
X019897Y015978D01*
X019897Y016137D02*
X025251Y016137D01*
X025397Y022282D02*
X021397Y022282D01*
X021397Y022782D01*
X019897Y022782D01*
X019897Y024782D01*
X022897Y024782D01*
X025397Y022282D01*
X025359Y022320D02*
X021397Y022320D01*
X021397Y022478D02*
X025200Y022478D01*
X025042Y022637D02*
X021397Y022637D01*
X019897Y022795D02*
X024883Y022795D01*
X024725Y022954D02*
X019897Y022954D01*
X019897Y023112D02*
X024566Y023112D01*
X024408Y023271D02*
X019897Y023271D01*
X019897Y023430D02*
X024249Y023430D01*
X024091Y023588D02*
X019897Y023588D01*
X019897Y023747D02*
X023932Y023747D01*
X023774Y023905D02*
X019897Y023905D01*
X019897Y024064D02*
X023615Y024064D01*
X023456Y024222D02*
X019897Y024222D01*
X019897Y024381D02*
X023298Y024381D01*
X023139Y024539D02*
X019897Y024539D01*
X019897Y024698D02*
X022981Y024698D01*
D11*
X021847Y012282D03*
X019947Y012282D03*
D12*
X020397Y010282D03*
X019397Y009282D03*
X020397Y008282D03*
X019397Y007282D03*
D13*
X018202Y007310D02*
X018202Y007530D01*
X018202Y007310D02*
X017732Y007310D01*
X017732Y007530D01*
X018202Y007530D01*
X018202Y007390D02*
X017732Y007390D01*
X017732Y007470D02*
X018202Y007470D01*
X018202Y007625D02*
X018202Y007845D01*
X018202Y007625D02*
X017732Y007625D01*
X017732Y007845D01*
X018202Y007845D01*
X018202Y007705D02*
X017732Y007705D01*
X017732Y007785D02*
X018202Y007785D01*
X018202Y007940D02*
X018202Y008160D01*
X018202Y007940D02*
X017732Y007940D01*
X017732Y008160D01*
X018202Y008160D01*
X018202Y008020D02*
X017732Y008020D01*
X017732Y008100D02*
X018202Y008100D01*
X018202Y008255D02*
X018202Y008475D01*
X018202Y008255D02*
X017732Y008255D01*
X017732Y008475D01*
X018202Y008475D01*
X018202Y008335D02*
X017732Y008335D01*
X017732Y008415D02*
X018202Y008415D01*
X018202Y008570D02*
X018202Y008790D01*
X018202Y008570D02*
X017732Y008570D01*
X017732Y008790D01*
X018202Y008790D01*
X018202Y008650D02*
X017732Y008650D01*
X017732Y008730D02*
X018202Y008730D01*
X018202Y008885D02*
X018202Y009105D01*
X018202Y008885D02*
X017732Y008885D01*
X017732Y009105D01*
X018202Y009105D01*
X018202Y008965D02*
X017732Y008965D01*
X017732Y009045D02*
X018202Y009045D01*
X018202Y009200D02*
X018202Y009420D01*
X018202Y009200D02*
X017732Y009200D01*
X017732Y009420D01*
X018202Y009420D01*
X018202Y009280D02*
X017732Y009280D01*
X017732Y009360D02*
X018202Y009360D01*
X018202Y009515D02*
X018202Y009735D01*
X018202Y009515D02*
X017732Y009515D01*
X017732Y009735D01*
X018202Y009735D01*
X018202Y009595D02*
X017732Y009595D01*
X017732Y009675D02*
X018202Y009675D01*
X018202Y009830D02*
X018202Y010050D01*
X018202Y009830D02*
X017732Y009830D01*
X017732Y010050D01*
X018202Y010050D01*
X018202Y009910D02*
X017732Y009910D01*
X017732Y009990D02*
X018202Y009990D01*
X018202Y010145D02*
X018202Y010365D01*
X018202Y010145D02*
X017732Y010145D01*
X017732Y010365D01*
X018202Y010365D01*
X018202Y010225D02*
X017732Y010225D01*
X017732Y010305D02*
X018202Y010305D01*
X018202Y010460D02*
X018202Y010680D01*
X018202Y010460D02*
X017732Y010460D01*
X017732Y010680D01*
X018202Y010680D01*
X018202Y010540D02*
X017732Y010540D01*
X017732Y010620D02*
X018202Y010620D01*
X018202Y010775D02*
X018202Y010995D01*
X018202Y010775D02*
X017732Y010775D01*
X017732Y010995D01*
X018202Y010995D01*
X018202Y010855D02*
X017732Y010855D01*
X017732Y010935D02*
X018202Y010935D01*
X018202Y011090D02*
X018202Y011310D01*
X018202Y011090D02*
X017732Y011090D01*
X017732Y011310D01*
X018202Y011310D01*
X018202Y011170D02*
X017732Y011170D01*
X017732Y011250D02*
X018202Y011250D01*
X018202Y011404D02*
X018202Y011624D01*
X018202Y011404D02*
X017732Y011404D01*
X017732Y011624D01*
X018202Y011624D01*
X018202Y011484D02*
X017732Y011484D01*
X017732Y011564D02*
X018202Y011564D01*
X018202Y011719D02*
X018202Y011939D01*
X018202Y011719D02*
X017732Y011719D01*
X017732Y011939D01*
X018202Y011939D01*
X018202Y011799D02*
X017732Y011799D01*
X017732Y011879D02*
X018202Y011879D01*
X018202Y012034D02*
X018202Y012254D01*
X018202Y012034D02*
X017732Y012034D01*
X017732Y012254D01*
X018202Y012254D01*
X018202Y012114D02*
X017732Y012114D01*
X017732Y012194D02*
X018202Y012194D01*
X017369Y012618D02*
X017369Y013088D01*
X017369Y012618D02*
X017149Y012618D01*
X017149Y013088D01*
X017369Y013088D01*
X017369Y012698D02*
X017149Y012698D01*
X017149Y012778D02*
X017369Y012778D01*
X017369Y012858D02*
X017149Y012858D01*
X017149Y012938D02*
X017369Y012938D01*
X017369Y013018D02*
X017149Y013018D01*
X017054Y013088D02*
X017054Y012618D01*
X016834Y012618D01*
X016834Y013088D01*
X017054Y013088D01*
X017054Y012698D02*
X016834Y012698D01*
X016834Y012778D02*
X017054Y012778D01*
X017054Y012858D02*
X016834Y012858D01*
X016834Y012938D02*
X017054Y012938D01*
X017054Y013018D02*
X016834Y013018D01*
X016739Y013088D02*
X016739Y012618D01*
X016519Y012618D01*
X016519Y013088D01*
X016739Y013088D01*
X016739Y012698D02*
X016519Y012698D01*
X016519Y012778D02*
X016739Y012778D01*
X016739Y012858D02*
X016519Y012858D01*
X016519Y012938D02*
X016739Y012938D01*
X016739Y013018D02*
X016519Y013018D01*
X016424Y013088D02*
X016424Y012618D01*
X016204Y012618D01*
X016204Y013088D01*
X016424Y013088D01*
X016424Y012698D02*
X016204Y012698D01*
X016204Y012778D02*
X016424Y012778D01*
X016424Y012858D02*
X016204Y012858D01*
X016204Y012938D02*
X016424Y012938D01*
X016424Y013018D02*
X016204Y013018D01*
X016109Y013088D02*
X016109Y012618D01*
X015889Y012618D01*
X015889Y013088D01*
X016109Y013088D01*
X016109Y012698D02*
X015889Y012698D01*
X015889Y012778D02*
X016109Y012778D01*
X016109Y012858D02*
X015889Y012858D01*
X015889Y012938D02*
X016109Y012938D01*
X016109Y013018D02*
X015889Y013018D01*
X015794Y013088D02*
X015794Y012618D01*
X015574Y012618D01*
X015574Y013088D01*
X015794Y013088D01*
X015794Y012698D02*
X015574Y012698D01*
X015574Y012778D02*
X015794Y012778D01*
X015794Y012858D02*
X015574Y012858D01*
X015574Y012938D02*
X015794Y012938D01*
X015794Y013018D02*
X015574Y013018D01*
X015479Y013088D02*
X015479Y012618D01*
X015259Y012618D01*
X015259Y013088D01*
X015479Y013088D01*
X015479Y012698D02*
X015259Y012698D01*
X015259Y012778D02*
X015479Y012778D01*
X015479Y012858D02*
X015259Y012858D01*
X015259Y012938D02*
X015479Y012938D01*
X015479Y013018D02*
X015259Y013018D01*
X015164Y013088D02*
X015164Y012618D01*
X014944Y012618D01*
X014944Y013088D01*
X015164Y013088D01*
X015164Y012698D02*
X014944Y012698D01*
X014944Y012778D02*
X015164Y012778D01*
X015164Y012858D02*
X014944Y012858D01*
X014944Y012938D02*
X015164Y012938D01*
X015164Y013018D02*
X014944Y013018D01*
X014849Y013088D02*
X014849Y012618D01*
X014629Y012618D01*
X014629Y013088D01*
X014849Y013088D01*
X014849Y012698D02*
X014629Y012698D01*
X014629Y012778D02*
X014849Y012778D01*
X014849Y012858D02*
X014629Y012858D01*
X014629Y012938D02*
X014849Y012938D01*
X014849Y013018D02*
X014629Y013018D01*
X014534Y013088D02*
X014534Y012618D01*
X014314Y012618D01*
X014314Y013088D01*
X014534Y013088D01*
X014534Y012698D02*
X014314Y012698D01*
X014314Y012778D02*
X014534Y012778D01*
X014534Y012858D02*
X014314Y012858D01*
X014314Y012938D02*
X014534Y012938D01*
X014534Y013018D02*
X014314Y013018D01*
X014219Y013088D02*
X014219Y012618D01*
X013999Y012618D01*
X013999Y013088D01*
X014219Y013088D01*
X014219Y012698D02*
X013999Y012698D01*
X013999Y012778D02*
X014219Y012778D01*
X014219Y012858D02*
X013999Y012858D01*
X013999Y012938D02*
X014219Y012938D01*
X014219Y013018D02*
X013999Y013018D01*
X013904Y013088D02*
X013904Y012618D01*
X013684Y012618D01*
X013684Y013088D01*
X013904Y013088D01*
X013904Y012698D02*
X013684Y012698D01*
X013684Y012778D02*
X013904Y012778D01*
X013904Y012858D02*
X013684Y012858D01*
X013684Y012938D02*
X013904Y012938D01*
X013904Y013018D02*
X013684Y013018D01*
X013589Y013088D02*
X013589Y012618D01*
X013369Y012618D01*
X013369Y013088D01*
X013589Y013088D01*
X013589Y012698D02*
X013369Y012698D01*
X013369Y012778D02*
X013589Y012778D01*
X013589Y012858D02*
X013369Y012858D01*
X013369Y012938D02*
X013589Y012938D01*
X013589Y013018D02*
X013369Y013018D01*
X013274Y013088D02*
X013274Y012618D01*
X013054Y012618D01*
X013054Y013088D01*
X013274Y013088D01*
X013274Y012698D02*
X013054Y012698D01*
X013054Y012778D02*
X013274Y012778D01*
X013274Y012858D02*
X013054Y012858D01*
X013054Y012938D02*
X013274Y012938D01*
X013274Y013018D02*
X013054Y013018D01*
X012959Y013088D02*
X012959Y012618D01*
X012739Y012618D01*
X012739Y013088D01*
X012959Y013088D01*
X012959Y012698D02*
X012739Y012698D01*
X012739Y012778D02*
X012959Y012778D01*
X012959Y012858D02*
X012739Y012858D01*
X012739Y012938D02*
X012959Y012938D01*
X012959Y013018D02*
X012739Y013018D01*
X012644Y013088D02*
X012644Y012618D01*
X012424Y012618D01*
X012424Y013088D01*
X012644Y013088D01*
X012644Y012698D02*
X012424Y012698D01*
X012424Y012778D02*
X012644Y012778D01*
X012644Y012858D02*
X012424Y012858D01*
X012424Y012938D02*
X012644Y012938D01*
X012644Y013018D02*
X012424Y013018D01*
X012061Y012254D02*
X012061Y012034D01*
X011591Y012034D01*
X011591Y012254D01*
X012061Y012254D01*
X012061Y012114D02*
X011591Y012114D01*
X011591Y012194D02*
X012061Y012194D01*
X012061Y011939D02*
X012061Y011719D01*
X011591Y011719D01*
X011591Y011939D01*
X012061Y011939D01*
X012061Y011799D02*
X011591Y011799D01*
X011591Y011879D02*
X012061Y011879D01*
X012061Y011624D02*
X012061Y011404D01*
X011591Y011404D01*
X011591Y011624D01*
X012061Y011624D01*
X012061Y011484D02*
X011591Y011484D01*
X011591Y011564D02*
X012061Y011564D01*
X012061Y011310D02*
X012061Y011090D01*
X011591Y011090D01*
X011591Y011310D01*
X012061Y011310D01*
X012061Y011170D02*
X011591Y011170D01*
X011591Y011250D02*
X012061Y011250D01*
X012061Y010995D02*
X012061Y010775D01*
X011591Y010775D01*
X011591Y010995D01*
X012061Y010995D01*
X012061Y010855D02*
X011591Y010855D01*
X011591Y010935D02*
X012061Y010935D01*
X012061Y010680D02*
X012061Y010460D01*
X011591Y010460D01*
X011591Y010680D01*
X012061Y010680D01*
X012061Y010540D02*
X011591Y010540D01*
X011591Y010620D02*
X012061Y010620D01*
X012061Y010365D02*
X012061Y010145D01*
X011591Y010145D01*
X011591Y010365D01*
X012061Y010365D01*
X012061Y010225D02*
X011591Y010225D01*
X011591Y010305D02*
X012061Y010305D01*
X012061Y010050D02*
X012061Y009830D01*
X011591Y009830D01*
X011591Y010050D01*
X012061Y010050D01*
X012061Y009910D02*
X011591Y009910D01*
X011591Y009990D02*
X012061Y009990D01*
X012061Y009735D02*
X012061Y009515D01*
X011591Y009515D01*
X011591Y009735D01*
X012061Y009735D01*
X012061Y009595D02*
X011591Y009595D01*
X011591Y009675D02*
X012061Y009675D01*
X012061Y009420D02*
X012061Y009200D01*
X011591Y009200D01*
X011591Y009420D01*
X012061Y009420D01*
X012061Y009280D02*
X011591Y009280D01*
X011591Y009360D02*
X012061Y009360D01*
X012061Y009105D02*
X012061Y008885D01*
X011591Y008885D01*
X011591Y009105D01*
X012061Y009105D01*
X012061Y008965D02*
X011591Y008965D01*
X011591Y009045D02*
X012061Y009045D01*
X012061Y008790D02*
X012061Y008570D01*
X011591Y008570D01*
X011591Y008790D01*
X012061Y008790D01*
X012061Y008650D02*
X011591Y008650D01*
X011591Y008730D02*
X012061Y008730D01*
X012061Y008475D02*
X012061Y008255D01*
X011591Y008255D01*
X011591Y008475D01*
X012061Y008475D01*
X012061Y008335D02*
X011591Y008335D01*
X011591Y008415D02*
X012061Y008415D01*
X012061Y008160D02*
X012061Y007940D01*
X011591Y007940D01*
X011591Y008160D01*
X012061Y008160D01*
X012061Y008020D02*
X011591Y008020D01*
X011591Y008100D02*
X012061Y008100D01*
X012061Y007845D02*
X012061Y007625D01*
X011591Y007625D01*
X011591Y007845D01*
X012061Y007845D01*
X012061Y007705D02*
X011591Y007705D01*
X011591Y007785D02*
X012061Y007785D01*
X012061Y007530D02*
X012061Y007310D01*
X011591Y007310D01*
X011591Y007530D01*
X012061Y007530D01*
X012061Y007390D02*
X011591Y007390D01*
X011591Y007470D02*
X012061Y007470D01*
X012644Y006946D02*
X012644Y006476D01*
X012424Y006476D01*
X012424Y006946D01*
X012644Y006946D01*
X012644Y006556D02*
X012424Y006556D01*
X012424Y006636D02*
X012644Y006636D01*
X012644Y006716D02*
X012424Y006716D01*
X012424Y006796D02*
X012644Y006796D01*
X012644Y006876D02*
X012424Y006876D01*
X012959Y006946D02*
X012959Y006476D01*
X012739Y006476D01*
X012739Y006946D01*
X012959Y006946D01*
X012959Y006556D02*
X012739Y006556D01*
X012739Y006636D02*
X012959Y006636D01*
X012959Y006716D02*
X012739Y006716D01*
X012739Y006796D02*
X012959Y006796D01*
X012959Y006876D02*
X012739Y006876D01*
X013274Y006946D02*
X013274Y006476D01*
X013054Y006476D01*
X013054Y006946D01*
X013274Y006946D01*
X013274Y006556D02*
X013054Y006556D01*
X013054Y006636D02*
X013274Y006636D01*
X013274Y006716D02*
X013054Y006716D01*
X013054Y006796D02*
X013274Y006796D01*
X013274Y006876D02*
X013054Y006876D01*
X013589Y006946D02*
X013589Y006476D01*
X013369Y006476D01*
X013369Y006946D01*
X013589Y006946D01*
X013589Y006556D02*
X013369Y006556D01*
X013369Y006636D02*
X013589Y006636D01*
X013589Y006716D02*
X013369Y006716D01*
X013369Y006796D02*
X013589Y006796D01*
X013589Y006876D02*
X013369Y006876D01*
X013904Y006946D02*
X013904Y006476D01*
X013684Y006476D01*
X013684Y006946D01*
X013904Y006946D01*
X013904Y006556D02*
X013684Y006556D01*
X013684Y006636D02*
X013904Y006636D01*
X013904Y006716D02*
X013684Y006716D01*
X013684Y006796D02*
X013904Y006796D01*
X013904Y006876D02*
X013684Y006876D01*
X014219Y006946D02*
X014219Y006476D01*
X013999Y006476D01*
X013999Y006946D01*
X014219Y006946D01*
X014219Y006556D02*
X013999Y006556D01*
X013999Y006636D02*
X014219Y006636D01*
X014219Y006716D02*
X013999Y006716D01*
X013999Y006796D02*
X014219Y006796D01*
X014219Y006876D02*
X013999Y006876D01*
X014534Y006946D02*
X014534Y006476D01*
X014314Y006476D01*
X014314Y006946D01*
X014534Y006946D01*
X014534Y006556D02*
X014314Y006556D01*
X014314Y006636D02*
X014534Y006636D01*
X014534Y006716D02*
X014314Y006716D01*
X014314Y006796D02*
X014534Y006796D01*
X014534Y006876D02*
X014314Y006876D01*
X014849Y006946D02*
X014849Y006476D01*
X014629Y006476D01*
X014629Y006946D01*
X014849Y006946D01*
X014849Y006556D02*
X014629Y006556D01*
X014629Y006636D02*
X014849Y006636D01*
X014849Y006716D02*
X014629Y006716D01*
X014629Y006796D02*
X014849Y006796D01*
X014849Y006876D02*
X014629Y006876D01*
X015164Y006946D02*
X015164Y006476D01*
X014944Y006476D01*
X014944Y006946D01*
X015164Y006946D01*
X015164Y006556D02*
X014944Y006556D01*
X014944Y006636D02*
X015164Y006636D01*
X015164Y006716D02*
X014944Y006716D01*
X014944Y006796D02*
X015164Y006796D01*
X015164Y006876D02*
X014944Y006876D01*
X015479Y006946D02*
X015479Y006476D01*
X015259Y006476D01*
X015259Y006946D01*
X015479Y006946D01*
X015479Y006556D02*
X015259Y006556D01*
X015259Y006636D02*
X015479Y006636D01*
X015479Y006716D02*
X015259Y006716D01*
X015259Y006796D02*
X015479Y006796D01*
X015479Y006876D02*
X015259Y006876D01*
X015794Y006946D02*
X015794Y006476D01*
X015574Y006476D01*
X015574Y006946D01*
X015794Y006946D01*
X015794Y006556D02*
X015574Y006556D01*
X015574Y006636D02*
X015794Y006636D01*
X015794Y006716D02*
X015574Y006716D01*
X015574Y006796D02*
X015794Y006796D01*
X015794Y006876D02*
X015574Y006876D01*
X016109Y006946D02*
X016109Y006476D01*
X015889Y006476D01*
X015889Y006946D01*
X016109Y006946D01*
X016109Y006556D02*
X015889Y006556D01*
X015889Y006636D02*
X016109Y006636D01*
X016109Y006716D02*
X015889Y006716D01*
X015889Y006796D02*
X016109Y006796D01*
X016109Y006876D02*
X015889Y006876D01*
X016424Y006946D02*
X016424Y006476D01*
X016204Y006476D01*
X016204Y006946D01*
X016424Y006946D01*
X016424Y006556D02*
X016204Y006556D01*
X016204Y006636D02*
X016424Y006636D01*
X016424Y006716D02*
X016204Y006716D01*
X016204Y006796D02*
X016424Y006796D01*
X016424Y006876D02*
X016204Y006876D01*
X016739Y006946D02*
X016739Y006476D01*
X016519Y006476D01*
X016519Y006946D01*
X016739Y006946D01*
X016739Y006556D02*
X016519Y006556D01*
X016519Y006636D02*
X016739Y006636D01*
X016739Y006716D02*
X016519Y006716D01*
X016519Y006796D02*
X016739Y006796D01*
X016739Y006876D02*
X016519Y006876D01*
X017054Y006946D02*
X017054Y006476D01*
X016834Y006476D01*
X016834Y006946D01*
X017054Y006946D01*
X017054Y006556D02*
X016834Y006556D01*
X016834Y006636D02*
X017054Y006636D01*
X017054Y006716D02*
X016834Y006716D01*
X016834Y006796D02*
X017054Y006796D01*
X017054Y006876D02*
X016834Y006876D01*
X017369Y006946D02*
X017369Y006476D01*
X017149Y006476D01*
X017149Y006946D01*
X017369Y006946D01*
X017369Y006556D02*
X017149Y006556D01*
X017149Y006636D02*
X017369Y006636D01*
X017369Y006716D02*
X017149Y006716D01*
X017149Y006796D02*
X017369Y006796D01*
X017369Y006876D02*
X017149Y006876D01*
D14*
X023847Y005876D03*
X025028Y005876D03*
X025028Y004695D03*
X023847Y004695D03*
D15*
X026799Y005285D03*
D16*
X027097Y009782D02*
X027097Y010382D01*
X026097Y010382D02*
X026097Y009782D01*
X026097Y012782D02*
X026697Y012782D01*
X026697Y013782D02*
X026097Y013782D01*
X026097Y014782D02*
X026697Y014782D01*
D17*
X027147Y002532D03*
D18*
X026147Y002532D03*
X026147Y001532D03*
X027147Y001532D03*
X025147Y001532D03*
X025147Y002532D03*
D19*
X004397Y012282D03*
D20*
X010397Y012282D03*
D21*
X004897Y001782D03*
X004897Y024282D03*
X026897Y024282D03*
D22*
X016078Y013748D02*
X015684Y013748D01*
X016078Y013748D02*
X016078Y013316D01*
X015684Y013316D01*
X015684Y013748D01*
X015684Y013396D02*
X016078Y013396D01*
X016078Y013476D02*
X015684Y013476D01*
X015684Y013556D02*
X016078Y013556D01*
X016078Y013636D02*
X015684Y013636D01*
X015684Y013716D02*
X016078Y013716D01*
X015409Y013748D02*
X015015Y013748D01*
X015409Y013748D02*
X015409Y013316D01*
X015015Y013316D01*
X015015Y013748D01*
X015015Y013396D02*
X015409Y013396D01*
X015409Y013476D02*
X015015Y013476D01*
X015015Y013556D02*
X015409Y013556D01*
X015409Y013636D02*
X015015Y013636D01*
X015015Y013716D02*
X015409Y013716D01*
X011681Y015751D02*
X011681Y016145D01*
X012113Y016145D01*
X012113Y015751D01*
X011681Y015751D01*
X011681Y015831D02*
X012113Y015831D01*
X012113Y015911D02*
X011681Y015911D01*
X011681Y015991D02*
X012113Y015991D01*
X012113Y016071D02*
X011681Y016071D01*
X011681Y016420D02*
X011681Y016814D01*
X012113Y016814D01*
X012113Y016420D01*
X011681Y016420D01*
X011681Y016500D02*
X012113Y016500D01*
X012113Y016580D02*
X011681Y016580D01*
X011681Y016660D02*
X012113Y016660D01*
X012113Y016740D02*
X011681Y016740D01*
X010681Y016814D02*
X010681Y016420D01*
X010681Y016814D02*
X011113Y016814D01*
X011113Y016420D01*
X010681Y016420D01*
X010681Y016500D02*
X011113Y016500D01*
X011113Y016580D02*
X010681Y016580D01*
X010681Y016660D02*
X011113Y016660D01*
X011113Y016740D02*
X010681Y016740D01*
X009681Y016645D02*
X009681Y016251D01*
X009681Y016645D02*
X010113Y016645D01*
X010113Y016251D01*
X009681Y016251D01*
X009681Y016331D02*
X010113Y016331D01*
X010113Y016411D02*
X009681Y016411D01*
X009681Y016491D02*
X010113Y016491D01*
X010113Y016571D02*
X009681Y016571D01*
X009681Y016920D02*
X009681Y017314D01*
X010113Y017314D01*
X010113Y016920D01*
X009681Y016920D01*
X009681Y017000D02*
X010113Y017000D01*
X010113Y017080D02*
X009681Y017080D01*
X009681Y017160D02*
X010113Y017160D01*
X010113Y017240D02*
X009681Y017240D01*
X008681Y016814D02*
X008681Y016420D01*
X008681Y016814D02*
X009113Y016814D01*
X009113Y016420D01*
X008681Y016420D01*
X008681Y016500D02*
X009113Y016500D01*
X009113Y016580D02*
X008681Y016580D01*
X008681Y016660D02*
X009113Y016660D01*
X009113Y016740D02*
X008681Y016740D01*
X007681Y016814D02*
X007681Y016420D01*
X007681Y016814D02*
X008113Y016814D01*
X008113Y016420D01*
X007681Y016420D01*
X007681Y016500D02*
X008113Y016500D01*
X008113Y016580D02*
X007681Y016580D01*
X007681Y016660D02*
X008113Y016660D01*
X008113Y016740D02*
X007681Y016740D01*
X007681Y016145D02*
X007681Y015751D01*
X007681Y016145D02*
X008113Y016145D01*
X008113Y015751D01*
X007681Y015751D01*
X007681Y015831D02*
X008113Y015831D01*
X008113Y015911D02*
X007681Y015911D01*
X007681Y015991D02*
X008113Y015991D01*
X008113Y016071D02*
X007681Y016071D01*
X008681Y016145D02*
X008681Y015751D01*
X008681Y016145D02*
X009113Y016145D01*
X009113Y015751D01*
X008681Y015751D01*
X008681Y015831D02*
X009113Y015831D01*
X009113Y015911D02*
X008681Y015911D01*
X008681Y015991D02*
X009113Y015991D01*
X009113Y016071D02*
X008681Y016071D01*
X008534Y014566D02*
X008928Y014566D01*
X008534Y014566D02*
X008534Y014998D01*
X008928Y014998D01*
X008928Y014566D01*
X008928Y014646D02*
X008534Y014646D01*
X008534Y014726D02*
X008928Y014726D01*
X008928Y014806D02*
X008534Y014806D01*
X008534Y014886D02*
X008928Y014886D01*
X008928Y014966D02*
X008534Y014966D01*
X008259Y014566D02*
X007865Y014566D01*
X007865Y014998D01*
X008259Y014998D01*
X008259Y014566D01*
X008259Y014646D02*
X007865Y014646D01*
X007865Y014726D02*
X008259Y014726D01*
X008259Y014806D02*
X007865Y014806D01*
X007865Y014886D02*
X008259Y014886D01*
X008259Y014966D02*
X007865Y014966D01*
X007865Y013566D02*
X008259Y013566D01*
X007865Y013566D02*
X007865Y013998D01*
X008259Y013998D01*
X008259Y013566D01*
X008259Y013646D02*
X007865Y013646D01*
X007865Y013726D02*
X008259Y013726D01*
X008259Y013806D02*
X007865Y013806D01*
X007865Y013886D02*
X008259Y013886D01*
X008259Y013966D02*
X007865Y013966D01*
X008534Y013566D02*
X008928Y013566D01*
X008534Y013566D02*
X008534Y013998D01*
X008928Y013998D01*
X008928Y013566D01*
X008928Y013646D02*
X008534Y013646D01*
X008534Y013726D02*
X008928Y013726D01*
X008928Y013806D02*
X008534Y013806D01*
X008534Y013886D02*
X008928Y013886D01*
X008928Y013966D02*
X008534Y013966D01*
X010181Y014145D02*
X010181Y013751D01*
X010181Y014145D02*
X010613Y014145D01*
X010613Y013751D01*
X010181Y013751D01*
X010181Y013831D02*
X010613Y013831D01*
X010613Y013911D02*
X010181Y013911D01*
X010181Y013991D02*
X010613Y013991D01*
X010613Y014071D02*
X010181Y014071D01*
X010181Y014420D02*
X010181Y014814D01*
X010613Y014814D01*
X010613Y014420D01*
X010181Y014420D01*
X010181Y014500D02*
X010613Y014500D01*
X010613Y014580D02*
X010181Y014580D01*
X010181Y014660D02*
X010613Y014660D01*
X010613Y014740D02*
X010181Y014740D01*
X010681Y015751D02*
X010681Y016145D01*
X011113Y016145D01*
X011113Y015751D01*
X010681Y015751D01*
X010681Y015831D02*
X011113Y015831D01*
X011113Y015911D02*
X010681Y015911D01*
X010681Y015991D02*
X011113Y015991D01*
X011113Y016071D02*
X010681Y016071D01*
X010759Y013066D02*
X010365Y013066D01*
X010365Y013498D01*
X010759Y013498D01*
X010759Y013066D01*
X010759Y013146D02*
X010365Y013146D01*
X010365Y013226D02*
X010759Y013226D01*
X010759Y013306D02*
X010365Y013306D01*
X010365Y013386D02*
X010759Y013386D01*
X010759Y013466D02*
X010365Y013466D01*
X011034Y013066D02*
X011428Y013066D01*
X011034Y013066D02*
X011034Y013498D01*
X011428Y013498D01*
X011428Y013066D01*
X011428Y013146D02*
X011034Y013146D01*
X011034Y013226D02*
X011428Y013226D01*
X011428Y013306D02*
X011034Y013306D01*
X011034Y013386D02*
X011428Y013386D01*
X011428Y013466D02*
X011034Y013466D01*
X009381Y019901D02*
X009381Y020295D01*
X009813Y020295D01*
X009813Y019901D01*
X009381Y019901D01*
X009381Y019981D02*
X009813Y019981D01*
X009813Y020061D02*
X009381Y020061D01*
X009381Y020141D02*
X009813Y020141D01*
X009813Y020221D02*
X009381Y020221D01*
X009381Y020570D02*
X009381Y020964D01*
X009813Y020964D01*
X009813Y020570D01*
X009381Y020570D01*
X009381Y020650D02*
X009813Y020650D01*
X009813Y020730D02*
X009381Y020730D01*
X009381Y020810D02*
X009813Y020810D01*
X009813Y020890D02*
X009381Y020890D01*
X009601Y021188D02*
X009601Y021582D01*
X009601Y021188D02*
X008971Y021188D01*
X008971Y021582D01*
X009601Y021582D01*
X009601Y021268D02*
X008971Y021268D01*
X008971Y021348D02*
X009601Y021348D01*
X009601Y021428D02*
X008971Y021428D01*
X008971Y021508D02*
X009601Y021508D01*
X009601Y022983D02*
X009601Y023377D01*
X009601Y022983D02*
X008971Y022983D01*
X008971Y023377D01*
X009601Y023377D01*
X009601Y023063D02*
X008971Y023063D01*
X008971Y023143D02*
X009601Y023143D01*
X009601Y023223D02*
X008971Y023223D01*
X008971Y023303D02*
X009601Y023303D01*
X027181Y008814D02*
X027181Y008420D01*
X027181Y008814D02*
X027613Y008814D01*
X027613Y008420D01*
X027181Y008420D01*
X027181Y008500D02*
X027613Y008500D01*
X027613Y008580D02*
X027181Y008580D01*
X027181Y008660D02*
X027613Y008660D01*
X027613Y008740D02*
X027181Y008740D01*
X027181Y008145D02*
X027181Y007751D01*
X027181Y008145D02*
X027613Y008145D01*
X027613Y007751D01*
X027181Y007751D01*
X027181Y007831D02*
X027613Y007831D01*
X027613Y007911D02*
X027181Y007911D01*
X027181Y007991D02*
X027613Y007991D01*
X027613Y008071D02*
X027181Y008071D01*
X021275Y004538D02*
X020881Y004538D01*
X021275Y004538D02*
X021275Y002728D01*
X020881Y002728D01*
X020881Y004538D01*
X020881Y002808D02*
X021275Y002808D01*
X021275Y002888D02*
X020881Y002888D01*
X020881Y002968D02*
X021275Y002968D01*
X021275Y003048D02*
X020881Y003048D01*
X020881Y003128D02*
X021275Y003128D01*
X021275Y003208D02*
X020881Y003208D01*
X020881Y003288D02*
X021275Y003288D01*
X021275Y003368D02*
X020881Y003368D01*
X020881Y003448D02*
X021275Y003448D01*
X021275Y003528D02*
X020881Y003528D01*
X020881Y003608D02*
X021275Y003608D01*
X021275Y003688D02*
X020881Y003688D01*
X020881Y003768D02*
X021275Y003768D01*
X021275Y003848D02*
X020881Y003848D01*
X020881Y003928D02*
X021275Y003928D01*
X021275Y004008D02*
X020881Y004008D01*
X020881Y004088D02*
X021275Y004088D01*
X021275Y004168D02*
X020881Y004168D01*
X020881Y004248D02*
X021275Y004248D01*
X021275Y004328D02*
X020881Y004328D01*
X020881Y004408D02*
X021275Y004408D01*
X021275Y004488D02*
X020881Y004488D01*
X020487Y004538D02*
X020093Y004538D01*
X020487Y004538D02*
X020487Y002728D01*
X020093Y002728D01*
X020093Y004538D01*
X020093Y002808D02*
X020487Y002808D01*
X020487Y002888D02*
X020093Y002888D01*
X020093Y002968D02*
X020487Y002968D01*
X020487Y003048D02*
X020093Y003048D01*
X020093Y003128D02*
X020487Y003128D01*
X020487Y003208D02*
X020093Y003208D01*
X020093Y003288D02*
X020487Y003288D01*
X020487Y003368D02*
X020093Y003368D01*
X020093Y003448D02*
X020487Y003448D01*
X020487Y003528D02*
X020093Y003528D01*
X020093Y003608D02*
X020487Y003608D01*
X020487Y003688D02*
X020093Y003688D01*
X020093Y003768D02*
X020487Y003768D01*
X020487Y003848D02*
X020093Y003848D01*
X020093Y003928D02*
X020487Y003928D01*
X020487Y004008D02*
X020093Y004008D01*
X020093Y004088D02*
X020487Y004088D01*
X020487Y004168D02*
X020093Y004168D01*
X020093Y004248D02*
X020487Y004248D01*
X020487Y004328D02*
X020093Y004328D01*
X020093Y004408D02*
X020487Y004408D01*
X020487Y004488D02*
X020093Y004488D01*
X019700Y004538D02*
X019306Y004538D01*
X019700Y004538D02*
X019700Y002728D01*
X019306Y002728D01*
X019306Y004538D01*
X019306Y002808D02*
X019700Y002808D01*
X019700Y002888D02*
X019306Y002888D01*
X019306Y002968D02*
X019700Y002968D01*
X019700Y003048D02*
X019306Y003048D01*
X019306Y003128D02*
X019700Y003128D01*
X019700Y003208D02*
X019306Y003208D01*
X019306Y003288D02*
X019700Y003288D01*
X019700Y003368D02*
X019306Y003368D01*
X019306Y003448D02*
X019700Y003448D01*
X019700Y003528D02*
X019306Y003528D01*
X019306Y003608D02*
X019700Y003608D01*
X019700Y003688D02*
X019306Y003688D01*
X019306Y003768D02*
X019700Y003768D01*
X019700Y003848D02*
X019306Y003848D01*
X019306Y003928D02*
X019700Y003928D01*
X019700Y004008D02*
X019306Y004008D01*
X019306Y004088D02*
X019700Y004088D01*
X019700Y004168D02*
X019306Y004168D01*
X019306Y004248D02*
X019700Y004248D01*
X019700Y004328D02*
X019306Y004328D01*
X019306Y004408D02*
X019700Y004408D01*
X019700Y004488D02*
X019306Y004488D01*
X018912Y004538D02*
X018518Y004538D01*
X018912Y004538D02*
X018912Y002728D01*
X018518Y002728D01*
X018518Y004538D01*
X018518Y002808D02*
X018912Y002808D01*
X018912Y002888D02*
X018518Y002888D01*
X018518Y002968D02*
X018912Y002968D01*
X018912Y003048D02*
X018518Y003048D01*
X018518Y003128D02*
X018912Y003128D01*
X018912Y003208D02*
X018518Y003208D01*
X018518Y003288D02*
X018912Y003288D01*
X018912Y003368D02*
X018518Y003368D01*
X018518Y003448D02*
X018912Y003448D01*
X018912Y003528D02*
X018518Y003528D01*
X018518Y003608D02*
X018912Y003608D01*
X018912Y003688D02*
X018518Y003688D01*
X018518Y003768D02*
X018912Y003768D01*
X018912Y003848D02*
X018518Y003848D01*
X018518Y003928D02*
X018912Y003928D01*
X018912Y004008D02*
X018518Y004008D01*
X018518Y004088D02*
X018912Y004088D01*
X018912Y004168D02*
X018518Y004168D01*
X018518Y004248D02*
X018912Y004248D01*
X018912Y004328D02*
X018518Y004328D01*
X018518Y004408D02*
X018912Y004408D01*
X018912Y004488D02*
X018518Y004488D01*
X017113Y003814D02*
X017113Y003420D01*
X016681Y003420D01*
X016681Y003814D01*
X017113Y003814D01*
X017113Y003500D02*
X016681Y003500D01*
X016681Y003580D02*
X017113Y003580D01*
X017113Y003660D02*
X016681Y003660D01*
X016681Y003740D02*
X017113Y003740D01*
X017113Y003145D02*
X017113Y002751D01*
X016681Y002751D01*
X016681Y003145D01*
X017113Y003145D01*
X017113Y002831D02*
X016681Y002831D01*
X016681Y002911D02*
X017113Y002911D01*
X017113Y002991D02*
X016681Y002991D01*
X016681Y003071D02*
X017113Y003071D01*
X016968Y002490D02*
X016574Y002490D01*
X016968Y002490D02*
X016968Y001940D01*
X016574Y001940D01*
X016574Y002490D01*
X016574Y002020D02*
X016968Y002020D01*
X016968Y002100D02*
X016574Y002100D01*
X016574Y002180D02*
X016968Y002180D01*
X016968Y002260D02*
X016574Y002260D01*
X016574Y002340D02*
X016968Y002340D01*
X016968Y002420D02*
X016574Y002420D01*
X016220Y002490D02*
X015826Y002490D01*
X016220Y002490D02*
X016220Y001940D01*
X015826Y001940D01*
X015826Y002490D01*
X015826Y002020D02*
X016220Y002020D01*
X016220Y002100D02*
X015826Y002100D01*
X015826Y002180D02*
X016220Y002180D01*
X016220Y002260D02*
X015826Y002260D01*
X015826Y002340D02*
X016220Y002340D01*
X016220Y002420D02*
X015826Y002420D01*
X016200Y001624D02*
X016594Y001624D01*
X016594Y001074D01*
X016200Y001074D01*
X016200Y001624D01*
X016200Y001154D02*
X016594Y001154D01*
X016594Y001234D02*
X016200Y001234D01*
X016200Y001314D02*
X016594Y001314D01*
X016594Y001394D02*
X016200Y001394D01*
X016200Y001474D02*
X016594Y001474D01*
X016594Y001554D02*
X016200Y001554D01*
X013737Y004544D02*
X013343Y004544D01*
X013737Y004544D02*
X013737Y002734D01*
X013343Y002734D01*
X013343Y004544D01*
X013343Y002814D02*
X013737Y002814D01*
X013737Y002894D02*
X013343Y002894D01*
X013343Y002974D02*
X013737Y002974D01*
X013737Y003054D02*
X013343Y003054D01*
X013343Y003134D02*
X013737Y003134D01*
X013737Y003214D02*
X013343Y003214D01*
X013343Y003294D02*
X013737Y003294D01*
X013737Y003374D02*
X013343Y003374D01*
X013343Y003454D02*
X013737Y003454D01*
X013737Y003534D02*
X013343Y003534D01*
X013343Y003614D02*
X013737Y003614D01*
X013737Y003694D02*
X013343Y003694D01*
X013343Y003774D02*
X013737Y003774D01*
X013737Y003854D02*
X013343Y003854D01*
X013343Y003934D02*
X013737Y003934D01*
X013737Y004014D02*
X013343Y004014D01*
X013343Y004094D02*
X013737Y004094D01*
X013737Y004174D02*
X013343Y004174D01*
X013343Y004254D02*
X013737Y004254D01*
X013737Y004334D02*
X013343Y004334D01*
X013343Y004414D02*
X013737Y004414D01*
X013737Y004494D02*
X013343Y004494D01*
X012950Y004544D02*
X012556Y004544D01*
X012950Y004544D02*
X012950Y002734D01*
X012556Y002734D01*
X012556Y004544D01*
X012556Y002814D02*
X012950Y002814D01*
X012950Y002894D02*
X012556Y002894D01*
X012556Y002974D02*
X012950Y002974D01*
X012950Y003054D02*
X012556Y003054D01*
X012556Y003134D02*
X012950Y003134D01*
X012950Y003214D02*
X012556Y003214D01*
X012556Y003294D02*
X012950Y003294D01*
X012950Y003374D02*
X012556Y003374D01*
X012556Y003454D02*
X012950Y003454D01*
X012950Y003534D02*
X012556Y003534D01*
X012556Y003614D02*
X012950Y003614D01*
X012950Y003694D02*
X012556Y003694D01*
X012556Y003774D02*
X012950Y003774D01*
X012950Y003854D02*
X012556Y003854D01*
X012556Y003934D02*
X012950Y003934D01*
X012950Y004014D02*
X012556Y004014D01*
X012556Y004094D02*
X012950Y004094D01*
X012950Y004174D02*
X012556Y004174D01*
X012556Y004254D02*
X012950Y004254D01*
X012950Y004334D02*
X012556Y004334D01*
X012556Y004414D02*
X012950Y004414D01*
X012950Y004494D02*
X012556Y004494D01*
X009431Y004544D02*
X009037Y004544D01*
X009431Y004544D02*
X009431Y002734D01*
X009037Y002734D01*
X009037Y004544D01*
X009037Y002814D02*
X009431Y002814D01*
X009431Y002894D02*
X009037Y002894D01*
X009037Y002974D02*
X009431Y002974D01*
X009431Y003054D02*
X009037Y003054D01*
X009037Y003134D02*
X009431Y003134D01*
X009431Y003214D02*
X009037Y003214D01*
X009037Y003294D02*
X009431Y003294D01*
X009431Y003374D02*
X009037Y003374D01*
X009037Y003454D02*
X009431Y003454D01*
X009431Y003534D02*
X009037Y003534D01*
X009037Y003614D02*
X009431Y003614D01*
X009431Y003694D02*
X009037Y003694D01*
X009037Y003774D02*
X009431Y003774D01*
X009431Y003854D02*
X009037Y003854D01*
X009037Y003934D02*
X009431Y003934D01*
X009431Y004014D02*
X009037Y004014D01*
X009037Y004094D02*
X009431Y004094D01*
X009431Y004174D02*
X009037Y004174D01*
X009037Y004254D02*
X009431Y004254D01*
X009431Y004334D02*
X009037Y004334D01*
X009037Y004414D02*
X009431Y004414D01*
X009431Y004494D02*
X009037Y004494D01*
X008644Y004544D02*
X008250Y004544D01*
X008644Y004544D02*
X008644Y002734D01*
X008250Y002734D01*
X008250Y004544D01*
X008250Y002814D02*
X008644Y002814D01*
X008644Y002894D02*
X008250Y002894D01*
X008250Y002974D02*
X008644Y002974D01*
X008644Y003054D02*
X008250Y003054D01*
X008250Y003134D02*
X008644Y003134D01*
X008644Y003214D02*
X008250Y003214D01*
X008250Y003294D02*
X008644Y003294D01*
X008644Y003374D02*
X008250Y003374D01*
X008250Y003454D02*
X008644Y003454D01*
X008644Y003534D02*
X008250Y003534D01*
X008250Y003614D02*
X008644Y003614D01*
X008644Y003694D02*
X008250Y003694D01*
X008250Y003774D02*
X008644Y003774D01*
X008644Y003854D02*
X008250Y003854D01*
X008250Y003934D02*
X008644Y003934D01*
X008644Y004014D02*
X008250Y004014D01*
X008250Y004094D02*
X008644Y004094D01*
X008644Y004174D02*
X008250Y004174D01*
X008250Y004254D02*
X008644Y004254D01*
X008644Y004334D02*
X008250Y004334D01*
X008250Y004414D02*
X008644Y004414D01*
X008644Y004494D02*
X008250Y004494D01*
X007856Y004544D02*
X007462Y004544D01*
X007856Y004544D02*
X007856Y002734D01*
X007462Y002734D01*
X007462Y004544D01*
X007462Y002814D02*
X007856Y002814D01*
X007856Y002894D02*
X007462Y002894D01*
X007462Y002974D02*
X007856Y002974D01*
X007856Y003054D02*
X007462Y003054D01*
X007462Y003134D02*
X007856Y003134D01*
X007856Y003214D02*
X007462Y003214D01*
X007462Y003294D02*
X007856Y003294D01*
X007856Y003374D02*
X007462Y003374D01*
X007462Y003454D02*
X007856Y003454D01*
X007856Y003534D02*
X007462Y003534D01*
X007462Y003614D02*
X007856Y003614D01*
X007856Y003694D02*
X007462Y003694D01*
X007462Y003774D02*
X007856Y003774D01*
X007856Y003854D02*
X007462Y003854D01*
X007462Y003934D02*
X007856Y003934D01*
X007856Y004014D02*
X007462Y004014D01*
X007462Y004094D02*
X007856Y004094D01*
X007856Y004174D02*
X007462Y004174D01*
X007462Y004254D02*
X007856Y004254D01*
X007856Y004334D02*
X007462Y004334D01*
X007462Y004414D02*
X007856Y004414D01*
X007856Y004494D02*
X007462Y004494D01*
D23*
X012960Y017320D02*
X013746Y017320D01*
X012960Y017320D02*
X012960Y017520D01*
X013746Y017520D01*
X013746Y017320D01*
X013746Y017400D02*
X012960Y017400D01*
X012960Y017480D02*
X013746Y017480D01*
X013746Y018107D02*
X012960Y018107D01*
X012960Y018307D01*
X013746Y018307D01*
X013746Y018107D01*
X013746Y018187D02*
X012960Y018187D01*
X012960Y018267D02*
X013746Y018267D01*
X013746Y018501D02*
X012960Y018501D01*
X012960Y018701D01*
X013746Y018701D01*
X013746Y018501D01*
X013746Y018581D02*
X012960Y018581D01*
X012960Y018661D02*
X013746Y018661D01*
X013746Y018895D02*
X012960Y018895D01*
X012960Y019095D01*
X013746Y019095D01*
X013746Y018895D01*
X013746Y018975D02*
X012960Y018975D01*
X012960Y019055D02*
X013746Y019055D01*
X013746Y019289D02*
X012960Y019289D01*
X012960Y019489D01*
X013746Y019489D01*
X013746Y019289D01*
X013746Y019369D02*
X012960Y019369D01*
X012960Y019449D02*
X013746Y019449D01*
X013746Y019682D02*
X012960Y019682D01*
X012960Y019882D01*
X013746Y019882D01*
X013746Y019682D01*
X013746Y019762D02*
X012960Y019762D01*
X012960Y019842D02*
X013746Y019842D01*
X013746Y020076D02*
X012960Y020076D01*
X012960Y020276D01*
X013746Y020276D01*
X013746Y020076D01*
X013746Y020156D02*
X012960Y020156D01*
X012960Y020236D02*
X013746Y020236D01*
X013746Y020470D02*
X012960Y020470D01*
X012960Y020670D01*
X013746Y020670D01*
X013746Y020470D01*
X013746Y020550D02*
X012960Y020550D01*
X012960Y020630D02*
X013746Y020630D01*
X013746Y020863D02*
X012960Y020863D01*
X012960Y021063D01*
X013746Y021063D01*
X013746Y020863D01*
X013746Y020943D02*
X012960Y020943D01*
X012960Y021023D02*
X013746Y021023D01*
X013746Y021257D02*
X012960Y021257D01*
X012960Y021457D01*
X013746Y021457D01*
X013746Y021257D01*
X013746Y021337D02*
X012960Y021337D01*
X012960Y021417D02*
X013746Y021417D01*
X013746Y022044D02*
X012960Y022044D01*
X012960Y022244D01*
X013746Y022244D01*
X013746Y022044D01*
X013746Y022124D02*
X012960Y022124D01*
X012960Y022204D02*
X013746Y022204D01*
X020047Y022044D02*
X020833Y022044D01*
X020047Y022044D02*
X020047Y022244D01*
X020833Y022244D01*
X020833Y022044D01*
X020833Y022124D02*
X020047Y022124D01*
X020047Y022204D02*
X020833Y022204D01*
X020833Y021651D02*
X020047Y021651D01*
X020047Y021851D01*
X020833Y021851D01*
X020833Y021651D01*
X020833Y021731D02*
X020047Y021731D01*
X020047Y021811D02*
X020833Y021811D01*
X020833Y021257D02*
X020047Y021257D01*
X020047Y021457D01*
X020833Y021457D01*
X020833Y021257D01*
X020833Y021337D02*
X020047Y021337D01*
X020047Y021417D02*
X020833Y021417D01*
X020833Y020863D02*
X020047Y020863D01*
X020047Y021063D01*
X020833Y021063D01*
X020833Y020863D01*
X020833Y020943D02*
X020047Y020943D01*
X020047Y021023D02*
X020833Y021023D01*
X020833Y020076D02*
X020047Y020076D01*
X020047Y020276D01*
X020833Y020276D01*
X020833Y020076D01*
X020833Y020156D02*
X020047Y020156D01*
X020047Y020236D02*
X020833Y020236D01*
X020833Y019289D02*
X020047Y019289D01*
X020047Y019489D01*
X020833Y019489D01*
X020833Y019289D01*
X020833Y019369D02*
X020047Y019369D01*
X020047Y019449D02*
X020833Y019449D01*
X020833Y018501D02*
X020047Y018501D01*
X020047Y018701D01*
X020833Y018701D01*
X020833Y018501D01*
X020833Y018581D02*
X020047Y018581D01*
X020047Y018661D02*
X020833Y018661D01*
X020833Y018107D02*
X020047Y018107D01*
X020047Y018307D01*
X020833Y018307D01*
X020833Y018107D01*
X020833Y018187D02*
X020047Y018187D01*
X020047Y018267D02*
X020833Y018267D01*
X020833Y017714D02*
X020047Y017714D01*
X020047Y017914D01*
X020833Y017914D01*
X020833Y017714D01*
X020833Y017794D02*
X020047Y017794D01*
X020047Y017874D02*
X020833Y017874D01*
X020833Y017320D02*
X020047Y017320D01*
X020047Y017520D01*
X020833Y017520D01*
X020833Y017320D01*
X020833Y017400D02*
X020047Y017400D01*
X020047Y017480D02*
X020833Y017480D01*
D24*
X020438Y017026D03*
X020438Y018995D03*
X020438Y019782D03*
X020438Y020570D03*
X020438Y022538D03*
X013355Y022538D03*
X013355Y021751D03*
X013355Y017814D03*
X013355Y017026D03*
D25*
X014731Y018207D03*
X015519Y018207D03*
X016306Y018207D03*
X016306Y018995D03*
X015519Y018995D03*
X014731Y018995D03*
X014731Y019782D03*
X014731Y020570D03*
X014731Y021357D03*
X015519Y021357D03*
X016306Y021357D03*
X016306Y020570D03*
X015519Y020570D03*
X015519Y019782D03*
X016306Y019782D03*
X017487Y020570D03*
X017487Y021357D03*
X017487Y022144D03*
X018274Y022144D03*
X018274Y021357D03*
X018274Y020570D03*
X019062Y020570D03*
X019062Y021357D03*
X019062Y022144D03*
X019062Y018995D03*
X018274Y018995D03*
X017487Y018995D03*
X017487Y018207D03*
X017487Y017420D03*
X018274Y017420D03*
X018274Y018207D03*
X019062Y018207D03*
X019062Y017420D03*
D26*
X007628Y021223D02*
X007628Y023341D01*
X007628Y021223D02*
X005196Y021223D01*
X005196Y023341D01*
X007628Y023341D01*
X007628Y021310D02*
X005196Y021310D01*
X005196Y021397D02*
X007628Y021397D01*
X007628Y021484D02*
X005196Y021484D01*
X005196Y021571D02*
X007628Y021571D01*
X007628Y021658D02*
X005196Y021658D01*
X005196Y021745D02*
X007628Y021745D01*
X007628Y021832D02*
X005196Y021832D01*
X005196Y021919D02*
X007628Y021919D01*
X007628Y022006D02*
X005196Y022006D01*
X005196Y022093D02*
X007628Y022093D01*
X007628Y022180D02*
X005196Y022180D01*
X005196Y022267D02*
X007628Y022267D01*
X007628Y022354D02*
X005196Y022354D01*
X005196Y022441D02*
X007628Y022441D01*
X007628Y022528D02*
X005196Y022528D01*
X005196Y022615D02*
X007628Y022615D01*
X007628Y022702D02*
X005196Y022702D01*
X005196Y022789D02*
X007628Y022789D01*
X007628Y022876D02*
X005196Y022876D01*
X005196Y022963D02*
X007628Y022963D01*
X007628Y023050D02*
X005196Y023050D01*
X005196Y023137D02*
X007628Y023137D01*
X007628Y023224D02*
X005196Y023224D01*
X005196Y023311D02*
X007628Y023311D01*
D27*
X010059Y022858D02*
X010059Y022612D01*
X009735Y022612D01*
X009735Y022858D01*
X010059Y022858D01*
X010059Y022693D02*
X009735Y022693D01*
X009735Y022774D02*
X010059Y022774D01*
X010059Y022855D02*
X009735Y022855D01*
X010059Y021952D02*
X010059Y021706D01*
X009735Y021706D01*
X009735Y021952D01*
X010059Y021952D01*
X010059Y021787D02*
X009735Y021787D01*
X009735Y021868D02*
X010059Y021868D01*
X010059Y021949D02*
X009735Y021949D01*
D28*
X009866Y002259D02*
X009866Y000925D01*
X009866Y002259D02*
X010492Y002259D01*
X010492Y000925D01*
X009866Y000925D01*
X009866Y001009D02*
X010492Y001009D01*
X010492Y001093D02*
X009866Y001093D01*
X009866Y001177D02*
X010492Y001177D01*
X010492Y001261D02*
X009866Y001261D01*
X009866Y001345D02*
X010492Y001345D01*
X010492Y001429D02*
X009866Y001429D01*
X009866Y001513D02*
X010492Y001513D01*
X010492Y001597D02*
X009866Y001597D01*
X009866Y001681D02*
X010492Y001681D01*
X010492Y001765D02*
X009866Y001765D01*
X009866Y001849D02*
X010492Y001849D01*
X010492Y001933D02*
X009866Y001933D01*
X009866Y002017D02*
X010492Y002017D01*
X010492Y002101D02*
X009866Y002101D01*
X009866Y002185D02*
X010492Y002185D01*
X011495Y002259D02*
X011495Y000925D01*
X011495Y002259D02*
X012121Y002259D01*
X012121Y000925D01*
X011495Y000925D01*
X011495Y001009D02*
X012121Y001009D01*
X012121Y001093D02*
X011495Y001093D01*
X011495Y001177D02*
X012121Y001177D01*
X012121Y001261D02*
X011495Y001261D01*
X011495Y001345D02*
X012121Y001345D01*
X012121Y001429D02*
X011495Y001429D01*
X011495Y001513D02*
X012121Y001513D01*
X012121Y001597D02*
X011495Y001597D01*
X011495Y001681D02*
X012121Y001681D01*
X012121Y001765D02*
X011495Y001765D01*
X011495Y001849D02*
X012121Y001849D01*
X012121Y001933D02*
X011495Y001933D01*
X011495Y002017D02*
X012121Y002017D01*
X012121Y002101D02*
X011495Y002101D01*
X011495Y002185D02*
X012121Y002185D01*
X014172Y002259D02*
X014172Y000925D01*
X014172Y002259D02*
X014798Y002259D01*
X014798Y000925D01*
X014172Y000925D01*
X014172Y001009D02*
X014798Y001009D01*
X014798Y001093D02*
X014172Y001093D01*
X014172Y001177D02*
X014798Y001177D01*
X014798Y001261D02*
X014172Y001261D01*
X014172Y001345D02*
X014798Y001345D01*
X014798Y001429D02*
X014172Y001429D01*
X014172Y001513D02*
X014798Y001513D01*
X014798Y001597D02*
X014172Y001597D01*
X014172Y001681D02*
X014798Y001681D01*
X014798Y001765D02*
X014172Y001765D01*
X014172Y001849D02*
X014798Y001849D01*
X014798Y001933D02*
X014172Y001933D01*
X014172Y002017D02*
X014798Y002017D01*
X014798Y002101D02*
X014172Y002101D01*
X014172Y002185D02*
X014798Y002185D01*
X017458Y002252D02*
X017458Y000918D01*
X017458Y002252D02*
X018084Y002252D01*
X018084Y000918D01*
X017458Y000918D01*
X017458Y001002D02*
X018084Y001002D01*
X018084Y001086D02*
X017458Y001086D01*
X017458Y001170D02*
X018084Y001170D01*
X018084Y001254D02*
X017458Y001254D01*
X017458Y001338D02*
X018084Y001338D01*
X018084Y001422D02*
X017458Y001422D01*
X017458Y001506D02*
X018084Y001506D01*
X018084Y001590D02*
X017458Y001590D01*
X017458Y001674D02*
X018084Y001674D01*
X018084Y001758D02*
X017458Y001758D01*
X017458Y001842D02*
X018084Y001842D01*
X018084Y001926D02*
X017458Y001926D01*
X017458Y002010D02*
X018084Y002010D01*
X018084Y002094D02*
X017458Y002094D01*
X017458Y002178D02*
X018084Y002178D01*
X021710Y002252D02*
X021710Y000918D01*
X021710Y002252D02*
X022336Y002252D01*
X022336Y000918D01*
X021710Y000918D01*
X021710Y001002D02*
X022336Y001002D01*
X022336Y001086D02*
X021710Y001086D01*
X021710Y001170D02*
X022336Y001170D01*
X022336Y001254D02*
X021710Y001254D01*
X021710Y001338D02*
X022336Y001338D01*
X022336Y001422D02*
X021710Y001422D01*
X021710Y001506D02*
X022336Y001506D01*
X022336Y001590D02*
X021710Y001590D01*
X021710Y001674D02*
X022336Y001674D01*
X022336Y001758D02*
X021710Y001758D01*
X021710Y001842D02*
X022336Y001842D01*
X022336Y001926D02*
X021710Y001926D01*
X021710Y002010D02*
X022336Y002010D01*
X022336Y002094D02*
X021710Y002094D01*
X021710Y002178D02*
X022336Y002178D01*
X006401Y002259D02*
X006401Y000925D01*
X006401Y002259D02*
X007027Y002259D01*
X007027Y000925D01*
X006401Y000925D01*
X006401Y001009D02*
X007027Y001009D01*
X007027Y001093D02*
X006401Y001093D01*
X006401Y001177D02*
X007027Y001177D01*
X007027Y001261D02*
X006401Y001261D01*
X006401Y001345D02*
X007027Y001345D01*
X007027Y001429D02*
X006401Y001429D01*
X006401Y001513D02*
X007027Y001513D01*
X007027Y001597D02*
X006401Y001597D01*
X006401Y001681D02*
X007027Y001681D01*
X007027Y001765D02*
X006401Y001765D01*
X006401Y001849D02*
X007027Y001849D01*
X007027Y001933D02*
X006401Y001933D01*
X006401Y002017D02*
X007027Y002017D01*
X007027Y002101D02*
X006401Y002101D01*
X006401Y002185D02*
X007027Y002185D01*
D29*
X007225Y010940D02*
X006749Y010940D01*
X007225Y010940D02*
X007225Y010064D01*
X006749Y010064D01*
X006749Y010940D01*
X006749Y010147D02*
X007225Y010147D01*
X007225Y010230D02*
X006749Y010230D01*
X006749Y010313D02*
X007225Y010313D01*
X007225Y010396D02*
X006749Y010396D01*
X006749Y010479D02*
X007225Y010479D01*
X007225Y010562D02*
X006749Y010562D01*
X006749Y010645D02*
X007225Y010645D01*
X007225Y010728D02*
X006749Y010728D01*
X006749Y010811D02*
X007225Y010811D01*
X007225Y010894D02*
X006749Y010894D01*
X007659Y010940D02*
X008135Y010940D01*
X008135Y010064D01*
X007659Y010064D01*
X007659Y010940D01*
X007659Y010147D02*
X008135Y010147D01*
X008135Y010230D02*
X007659Y010230D01*
X007659Y010313D02*
X008135Y010313D01*
X008135Y010396D02*
X007659Y010396D01*
X007659Y010479D02*
X008135Y010479D01*
X008135Y010562D02*
X007659Y010562D01*
X007659Y010645D02*
X008135Y010645D01*
X008135Y010728D02*
X007659Y010728D01*
X007659Y010811D02*
X008135Y010811D01*
X008135Y010894D02*
X007659Y010894D01*
X008568Y010940D02*
X009044Y010940D01*
X009044Y010064D01*
X008568Y010064D01*
X008568Y010940D01*
X008568Y010147D02*
X009044Y010147D01*
X009044Y010230D02*
X008568Y010230D01*
X008568Y010313D02*
X009044Y010313D01*
X009044Y010396D02*
X008568Y010396D01*
X008568Y010479D02*
X009044Y010479D01*
X009044Y010562D02*
X008568Y010562D01*
X008568Y010645D02*
X009044Y010645D01*
X009044Y010728D02*
X008568Y010728D01*
X008568Y010811D02*
X009044Y010811D01*
X009044Y010894D02*
X008568Y010894D01*
D30*
X008603Y008493D02*
X007191Y008493D01*
X008603Y008493D02*
X008603Y007631D01*
X007191Y007631D01*
X007191Y008493D01*
X007191Y007715D02*
X008603Y007715D01*
X008603Y007799D02*
X007191Y007799D01*
X007191Y007883D02*
X008603Y007883D01*
X008603Y007967D02*
X007191Y007967D01*
X007191Y008051D02*
X008603Y008051D01*
X008603Y008135D02*
X007191Y008135D01*
X007191Y008219D02*
X008603Y008219D01*
X008603Y008303D02*
X007191Y008303D01*
X007191Y008387D02*
X008603Y008387D01*
X008603Y008471D02*
X007191Y008471D01*
D31*
X022559Y008415D02*
X022559Y008649D01*
X023187Y008649D01*
X023187Y008415D01*
X022559Y008415D01*
X022559Y008496D02*
X023187Y008496D01*
X023187Y008577D02*
X022559Y008577D01*
X022559Y008915D02*
X022559Y009149D01*
X023187Y009149D01*
X023187Y008915D01*
X022559Y008915D01*
X022559Y008996D02*
X023187Y008996D01*
X023187Y009077D02*
X022559Y009077D01*
X022559Y008149D02*
X022559Y007915D01*
X022559Y008149D02*
X023187Y008149D01*
X023187Y007915D01*
X022559Y007915D01*
X022559Y007996D02*
X023187Y007996D01*
X023187Y008077D02*
X022559Y008077D01*
X022559Y007649D02*
X022559Y007415D01*
X022559Y007649D02*
X023187Y007649D01*
X023187Y007415D01*
X022559Y007415D01*
X022559Y007496D02*
X023187Y007496D01*
X023187Y007577D02*
X022559Y007577D01*
X024606Y007649D02*
X024606Y007415D01*
X024606Y007649D02*
X025234Y007649D01*
X025234Y007415D01*
X024606Y007415D01*
X024606Y007496D02*
X025234Y007496D01*
X025234Y007577D02*
X024606Y007577D01*
X024606Y007915D02*
X024606Y008149D01*
X025234Y008149D01*
X025234Y007915D01*
X024606Y007915D01*
X024606Y007996D02*
X025234Y007996D01*
X025234Y008077D02*
X024606Y008077D01*
X024606Y008415D02*
X024606Y008649D01*
X025234Y008649D01*
X025234Y008415D01*
X024606Y008415D01*
X024606Y008496D02*
X025234Y008496D01*
X025234Y008577D02*
X024606Y008577D01*
X024606Y008915D02*
X024606Y009149D01*
X025234Y009149D01*
X025234Y008915D01*
X024606Y008915D01*
X024606Y008996D02*
X025234Y008996D01*
X025234Y009077D02*
X024606Y009077D01*
D32*
X006230Y008828D02*
X006230Y008122D01*
X005564Y008122D01*
X005564Y008828D01*
X006230Y008828D01*
X006230Y008203D02*
X005564Y008203D01*
X005564Y008284D02*
X006230Y008284D01*
X006230Y008365D02*
X005564Y008365D01*
X005564Y008446D02*
X006230Y008446D01*
X006230Y008527D02*
X005564Y008527D01*
X005564Y008608D02*
X006230Y008608D01*
X006230Y008689D02*
X005564Y008689D01*
X005564Y008770D02*
X006230Y008770D01*
X006230Y009736D02*
X006230Y010442D01*
X006230Y009736D02*
X005564Y009736D01*
X005564Y010442D01*
X006230Y010442D01*
X006230Y009817D02*
X005564Y009817D01*
X005564Y009898D02*
X006230Y009898D01*
X006230Y009979D02*
X005564Y009979D01*
X005564Y010060D02*
X006230Y010060D01*
X006230Y010141D02*
X005564Y010141D01*
X005564Y010222D02*
X006230Y010222D01*
X006230Y010303D02*
X005564Y010303D01*
X005564Y010384D02*
X006230Y010384D01*
X004064Y013122D02*
X004064Y013828D01*
X004730Y013828D01*
X004730Y013122D01*
X004064Y013122D01*
X004064Y013203D02*
X004730Y013203D01*
X004730Y013284D02*
X004064Y013284D01*
X004064Y013365D02*
X004730Y013365D01*
X004730Y013446D02*
X004064Y013446D01*
X004064Y013527D02*
X004730Y013527D01*
X004730Y013608D02*
X004064Y013608D01*
X004064Y013689D02*
X004730Y013689D01*
X004730Y013770D02*
X004064Y013770D01*
X004064Y014736D02*
X004064Y015442D01*
X004730Y015442D01*
X004730Y014736D01*
X004064Y014736D01*
X004064Y014817D02*
X004730Y014817D01*
X004730Y014898D02*
X004064Y014898D01*
X004064Y014979D02*
X004730Y014979D01*
X004730Y015060D02*
X004064Y015060D01*
X004064Y015141D02*
X004730Y015141D01*
X004730Y015222D02*
X004064Y015222D01*
X004064Y015303D02*
X004730Y015303D01*
X004730Y015384D02*
X004064Y015384D01*
D33*
X009607Y009831D02*
X009607Y009423D01*
X009187Y009423D01*
X009187Y009831D01*
X009607Y009831D01*
X009607Y009506D02*
X009187Y009506D01*
X009187Y009589D02*
X009607Y009589D01*
X009607Y009672D02*
X009187Y009672D01*
X009187Y009755D02*
X009607Y009755D01*
X009607Y009142D02*
X009607Y008734D01*
X009187Y008734D01*
X009187Y009142D01*
X009607Y009142D01*
X009607Y008817D02*
X009187Y008817D01*
X009187Y008900D02*
X009607Y008900D01*
X009607Y008983D02*
X009187Y008983D01*
X009187Y009066D02*
X009607Y009066D01*
X010487Y008831D02*
X010487Y008423D01*
X010487Y008831D02*
X010907Y008831D01*
X010907Y008423D01*
X010487Y008423D01*
X010487Y008506D02*
X010907Y008506D01*
X010907Y008589D02*
X010487Y008589D01*
X010487Y008672D02*
X010907Y008672D01*
X010907Y008755D02*
X010487Y008755D01*
X010487Y008142D02*
X010487Y007734D01*
X010487Y008142D02*
X010907Y008142D01*
X010907Y007734D01*
X010487Y007734D01*
X010487Y007817D02*
X010907Y007817D01*
X010907Y007900D02*
X010487Y007900D01*
X010487Y007983D02*
X010907Y007983D01*
X010907Y008066D02*
X010487Y008066D01*
X010907Y007331D02*
X010907Y006923D01*
X010487Y006923D01*
X010487Y007331D01*
X010907Y007331D01*
X010907Y007006D02*
X010487Y007006D01*
X010487Y007089D02*
X010907Y007089D01*
X010907Y007172D02*
X010487Y007172D01*
X010487Y007255D02*
X010907Y007255D01*
X010907Y006642D02*
X010907Y006234D01*
X010487Y006234D01*
X010487Y006642D01*
X010907Y006642D01*
X010907Y006317D02*
X010487Y006317D01*
X010487Y006400D02*
X010907Y006400D01*
X010907Y006483D02*
X010487Y006483D01*
X010487Y006566D02*
X010907Y006566D01*
X011607Y013734D02*
X011607Y014142D01*
X011607Y013734D02*
X011187Y013734D01*
X011187Y014142D01*
X011607Y014142D01*
X011607Y013817D02*
X011187Y013817D01*
X011187Y013900D02*
X011607Y013900D01*
X011607Y013983D02*
X011187Y013983D01*
X011187Y014066D02*
X011607Y014066D01*
X011607Y014423D02*
X011607Y014831D01*
X011607Y014423D02*
X011187Y014423D01*
X011187Y014831D01*
X011607Y014831D01*
X011607Y014506D02*
X011187Y014506D01*
X011187Y014589D02*
X011607Y014589D01*
X011607Y014672D02*
X011187Y014672D01*
X011187Y014755D02*
X011607Y014755D01*
X020848Y006572D02*
X021256Y006572D01*
X020848Y006572D02*
X020848Y006992D01*
X021256Y006992D01*
X021256Y006572D01*
X021256Y006655D02*
X020848Y006655D01*
X020848Y006738D02*
X021256Y006738D01*
X021256Y006821D02*
X020848Y006821D01*
X020848Y006904D02*
X021256Y006904D01*
X021256Y006987D02*
X020848Y006987D01*
X021537Y006572D02*
X021945Y006572D01*
X021537Y006572D02*
X021537Y006992D01*
X021945Y006992D01*
X021945Y006572D01*
X021945Y006655D02*
X021537Y006655D01*
X021537Y006738D02*
X021945Y006738D01*
X021945Y006821D02*
X021537Y006821D01*
X021537Y006904D02*
X021945Y006904D01*
X021945Y006987D02*
X021537Y006987D01*
D34*
X005897Y017282D03*
X005897Y019282D03*
D35*
X025397Y018782D03*
D36*
X025397Y020751D03*
D37*
X016497Y013532D03*
X014647Y013532D03*
X012897Y013782D03*
X011997Y014232D03*
X011897Y013282D03*
X011197Y012782D03*
X011147Y011782D03*
X010397Y011282D03*
X008397Y011782D03*
X007397Y011782D03*
X007397Y013782D03*
X006397Y014282D03*
X005397Y015032D03*
X007897Y017282D03*
X008897Y017282D03*
X009897Y017982D03*
X010897Y017282D03*
X010397Y016782D03*
X010397Y015882D03*
X008797Y015482D03*
X009897Y013282D03*
X012897Y011782D03*
X013397Y010432D03*
X014547Y011682D03*
X015897Y011282D03*
X016397Y010282D03*
X015947Y009782D03*
X016897Y009782D03*
X015997Y008332D03*
X015697Y006182D03*
X013897Y005782D03*
X013397Y005982D03*
X012897Y005782D03*
X011897Y005782D03*
X013397Y008282D03*
X012897Y008782D03*
X008447Y005282D03*
X007897Y006282D03*
X007897Y007282D03*
X015897Y003782D03*
X017647Y006182D03*
X018597Y008132D03*
X020397Y007282D03*
X022147Y007532D03*
X022247Y006782D03*
X023497Y008532D03*
X022897Y009782D03*
X021897Y008782D03*
X025097Y009532D03*
X025697Y008032D03*
X026897Y007282D03*
X025397Y003282D03*
X023797Y003182D03*
X023897Y002624D03*
X011897Y017282D03*
X012497Y018632D03*
X012147Y019132D03*
X012247Y019682D03*
X012397Y020182D03*
X011897Y020582D03*
X011397Y020782D03*
D38*
X009297Y015232D03*
D39*
X009097Y022532D03*
X009897Y023282D03*
X010397Y023282D03*
X010397Y022782D03*
X010897Y022782D03*
X010397Y023782D03*
X009897Y023782D03*
X009397Y023782D03*
X008897Y023782D03*
X009147Y024232D03*
X009647Y024232D03*
X019747Y022032D03*
X019747Y021532D03*
X019747Y021032D03*
X021297Y021032D03*
X021297Y021532D03*
X021297Y022032D03*
X021847Y022032D03*
X021847Y021532D03*
X021847Y021032D03*
X021847Y018532D03*
X021847Y018032D03*
X021847Y017532D03*
X021297Y017532D03*
X021297Y018032D03*
X021297Y018532D03*
X019747Y018532D03*
X019747Y018032D03*
X019747Y017532D03*
M02*
