G75*
G70*
%OFA0B0*%
%FSLAX24Y24*%
%IPPOS*%
%LPD*%
%AMOC8*
5,1,8,0,0,1.08239X$1,22.5*
%
%ADD10R,0.0470X0.0220*%
%ADD11R,0.0220X0.0470*%
%ADD12R,0.0433X0.0394*%
%ADD13R,0.0787X0.0200*%
%ADD14R,0.0787X0.0197*%
%ADD15C,0.0236*%
%ADD16R,0.0394X0.0433*%
%ADD17R,0.2441X0.2126*%
%ADD18R,0.0630X0.0394*%
%ADD19R,0.0327X0.0248*%
%ADD20R,0.0394X0.0551*%
%ADD21R,0.0394X0.1811*%
%ADD22R,0.0630X0.1339*%
%ADD23R,0.0480X0.0880*%
%ADD24R,0.1417X0.0866*%
%ADD25R,0.0630X0.0236*%
%ADD26R,0.0669X0.0709*%
%ADD27R,0.0425X0.0413*%
%ADD28R,0.0413X0.0425*%
D10*
X011826Y007420D03*
X011826Y007735D03*
X011826Y008050D03*
X011826Y008365D03*
X011826Y008680D03*
X011826Y008995D03*
X011826Y009310D03*
X011826Y009625D03*
X011826Y009940D03*
X011826Y010255D03*
X011826Y010570D03*
X011826Y010885D03*
X011826Y011200D03*
X011826Y011514D03*
X011826Y011829D03*
X011826Y012144D03*
X017967Y012144D03*
X017967Y011829D03*
X017967Y011514D03*
X017967Y011200D03*
X017967Y010885D03*
X017967Y010570D03*
X017967Y010255D03*
X017967Y009940D03*
X017967Y009625D03*
X017967Y009310D03*
X017967Y008995D03*
X017967Y008680D03*
X017967Y008365D03*
X017967Y008050D03*
X017967Y007735D03*
X017967Y007420D03*
D11*
X017259Y006711D03*
X016944Y006711D03*
X016629Y006711D03*
X016314Y006711D03*
X015999Y006711D03*
X015684Y006711D03*
X015369Y006711D03*
X015054Y006711D03*
X014739Y006711D03*
X014424Y006711D03*
X014109Y006711D03*
X013794Y006711D03*
X013479Y006711D03*
X013164Y006711D03*
X012849Y006711D03*
X012534Y006711D03*
X012534Y012853D03*
X012849Y012853D03*
X013164Y012853D03*
X013479Y012853D03*
X013794Y012853D03*
X014109Y012853D03*
X014424Y012853D03*
X014739Y012853D03*
X015054Y012853D03*
X015369Y012853D03*
X015684Y012853D03*
X015999Y012853D03*
X016314Y012853D03*
X016629Y012853D03*
X016944Y012853D03*
X017259Y012853D03*
D12*
X011897Y015948D03*
X011897Y016617D03*
X010897Y016617D03*
X010897Y015948D03*
X009897Y016448D03*
X009897Y017117D03*
X008897Y016617D03*
X008897Y015948D03*
X007897Y015948D03*
X007897Y016617D03*
X010397Y014617D03*
X010397Y013948D03*
X009597Y020098D03*
X009597Y020767D03*
X027397Y008617D03*
X027397Y007948D03*
X016897Y003617D03*
X016897Y002948D03*
D13*
X020440Y017420D03*
X020440Y017814D03*
X020440Y018207D03*
X020440Y018601D03*
X020440Y019389D03*
X020440Y020176D03*
X020440Y020963D03*
X020440Y021357D03*
X020440Y021751D03*
X020440Y022144D03*
X013353Y022144D03*
X013353Y021357D03*
X013353Y020963D03*
X013353Y020570D03*
X013353Y020176D03*
X013353Y019782D03*
X013353Y019389D03*
X013353Y018995D03*
X013353Y018601D03*
X013353Y018207D03*
X013353Y017420D03*
D14*
X013355Y017026D03*
X013355Y017814D03*
X013355Y021751D03*
X013355Y022538D03*
X020438Y022538D03*
X020438Y020570D03*
X020438Y019782D03*
X020438Y018995D03*
X020438Y017026D03*
D15*
X019062Y017420D03*
X019062Y018207D03*
X018274Y018207D03*
X017487Y018207D03*
X017487Y017420D03*
X018274Y017420D03*
X018274Y018995D03*
X017487Y018995D03*
X016306Y018995D03*
X015519Y018995D03*
X015519Y018207D03*
X016306Y018207D03*
X014731Y018207D03*
X014731Y018995D03*
X014731Y019782D03*
X014731Y020570D03*
X014731Y021357D03*
X015519Y021357D03*
X016306Y021357D03*
X016306Y020570D03*
X015519Y020570D03*
X015519Y019782D03*
X016306Y019782D03*
X017487Y020570D03*
X017487Y021357D03*
X017487Y022144D03*
X018274Y022144D03*
X018274Y021357D03*
X018274Y020570D03*
X019062Y020570D03*
X019062Y021357D03*
X019062Y022144D03*
X019062Y018995D03*
D16*
X015881Y013532D03*
X015212Y013532D03*
X011231Y013282D03*
X010562Y013282D03*
X008731Y013782D03*
X008062Y013782D03*
X008062Y014782D03*
X008731Y014782D03*
D17*
X006412Y022282D03*
D18*
X009286Y021385D03*
X009286Y023180D03*
D19*
X009897Y022735D03*
X009897Y021829D03*
D20*
X016023Y002215D03*
X016771Y002215D03*
X016397Y001349D03*
D21*
X018715Y003633D03*
X019503Y003633D03*
X020290Y003633D03*
X021078Y003633D03*
X013540Y003639D03*
X012753Y003639D03*
X009234Y003639D03*
X008447Y003639D03*
X007659Y003639D03*
D22*
X006714Y001592D03*
X010179Y001592D03*
X011808Y001592D03*
X014485Y001592D03*
X017771Y001585D03*
X022023Y001585D03*
D23*
X008806Y010502D03*
X007897Y010502D03*
X006987Y010502D03*
D24*
X007897Y008062D03*
D25*
X022873Y008032D03*
X022873Y007532D03*
X022873Y008532D03*
X022873Y009032D03*
X024920Y009032D03*
X024920Y008532D03*
X024920Y008032D03*
X024920Y007532D03*
D26*
X005897Y008475D03*
X005897Y010089D03*
X004397Y013475D03*
X004397Y015089D03*
D27*
X009397Y009627D03*
X009397Y008938D03*
X010697Y008627D03*
X010697Y007938D03*
X010697Y007127D03*
X010697Y006438D03*
X011397Y013938D03*
X011397Y014627D03*
D28*
X021052Y006782D03*
X021741Y006782D03*
M02*
