G75*
G70*
%OFA0B0*%
%FSLAX24Y24*%
%IPPOS*%
%LPD*%
%AMOC8*
5,1,8,0,0,1.08239X$1,22.5*
%
%ADD10C,0.0000*%
%ADD11R,0.4098X0.4252*%
%ADD12R,0.0850X0.0420*%
%ADD13R,0.0394X0.0433*%
%ADD14C,0.0669*%
%ADD15C,0.0850*%
%ADD16OC8,0.0850*%
%ADD17OC8,0.0520*%
%ADD18C,0.1240*%
%ADD19OC8,0.1240*%
%ADD20C,0.0600*%
%ADD21OC8,0.1640*%
%ADD22OC8,0.0600*%
%ADD23C,0.0400*%
%ADD24R,0.0400X0.0400*%
D10*
X000191Y000655D02*
X000191Y013651D01*
X012691Y013651D01*
X012691Y000655D01*
X000191Y000655D01*
X001041Y002155D02*
X001043Y002205D01*
X001049Y002255D01*
X001059Y002305D01*
X001072Y002353D01*
X001089Y002401D01*
X001110Y002447D01*
X001134Y002491D01*
X001162Y002533D01*
X001193Y002573D01*
X001227Y002610D01*
X001264Y002645D01*
X001303Y002676D01*
X001344Y002705D01*
X001388Y002730D01*
X001434Y002752D01*
X001481Y002770D01*
X001529Y002784D01*
X001578Y002795D01*
X001628Y002802D01*
X001678Y002805D01*
X001729Y002804D01*
X001779Y002799D01*
X001829Y002790D01*
X001877Y002778D01*
X001925Y002761D01*
X001971Y002741D01*
X002016Y002718D01*
X002059Y002691D01*
X002099Y002661D01*
X002137Y002628D01*
X002172Y002592D01*
X002205Y002553D01*
X002234Y002512D01*
X002260Y002469D01*
X002283Y002424D01*
X002302Y002377D01*
X002317Y002329D01*
X002329Y002280D01*
X002337Y002230D01*
X002341Y002180D01*
X002341Y002130D01*
X002337Y002080D01*
X002329Y002030D01*
X002317Y001981D01*
X002302Y001933D01*
X002283Y001886D01*
X002260Y001841D01*
X002234Y001798D01*
X002205Y001757D01*
X002172Y001718D01*
X002137Y001682D01*
X002099Y001649D01*
X002059Y001619D01*
X002016Y001592D01*
X001971Y001569D01*
X001925Y001549D01*
X001877Y001532D01*
X001829Y001520D01*
X001779Y001511D01*
X001729Y001506D01*
X001678Y001505D01*
X001628Y001508D01*
X001578Y001515D01*
X001529Y001526D01*
X001481Y001540D01*
X001434Y001558D01*
X001388Y001580D01*
X001344Y001605D01*
X001303Y001634D01*
X001264Y001665D01*
X001227Y001700D01*
X001193Y001737D01*
X001162Y001777D01*
X001134Y001819D01*
X001110Y001863D01*
X001089Y001909D01*
X001072Y001957D01*
X001059Y002005D01*
X001049Y002055D01*
X001043Y002105D01*
X001041Y002155D01*
X001041Y012155D02*
X001043Y012205D01*
X001049Y012255D01*
X001059Y012305D01*
X001072Y012353D01*
X001089Y012401D01*
X001110Y012447D01*
X001134Y012491D01*
X001162Y012533D01*
X001193Y012573D01*
X001227Y012610D01*
X001264Y012645D01*
X001303Y012676D01*
X001344Y012705D01*
X001388Y012730D01*
X001434Y012752D01*
X001481Y012770D01*
X001529Y012784D01*
X001578Y012795D01*
X001628Y012802D01*
X001678Y012805D01*
X001729Y012804D01*
X001779Y012799D01*
X001829Y012790D01*
X001877Y012778D01*
X001925Y012761D01*
X001971Y012741D01*
X002016Y012718D01*
X002059Y012691D01*
X002099Y012661D01*
X002137Y012628D01*
X002172Y012592D01*
X002205Y012553D01*
X002234Y012512D01*
X002260Y012469D01*
X002283Y012424D01*
X002302Y012377D01*
X002317Y012329D01*
X002329Y012280D01*
X002337Y012230D01*
X002341Y012180D01*
X002341Y012130D01*
X002337Y012080D01*
X002329Y012030D01*
X002317Y011981D01*
X002302Y011933D01*
X002283Y011886D01*
X002260Y011841D01*
X002234Y011798D01*
X002205Y011757D01*
X002172Y011718D01*
X002137Y011682D01*
X002099Y011649D01*
X002059Y011619D01*
X002016Y011592D01*
X001971Y011569D01*
X001925Y011549D01*
X001877Y011532D01*
X001829Y011520D01*
X001779Y011511D01*
X001729Y011506D01*
X001678Y011505D01*
X001628Y011508D01*
X001578Y011515D01*
X001529Y011526D01*
X001481Y011540D01*
X001434Y011558D01*
X001388Y011580D01*
X001344Y011605D01*
X001303Y011634D01*
X001264Y011665D01*
X001227Y011700D01*
X001193Y011737D01*
X001162Y011777D01*
X001134Y011819D01*
X001110Y011863D01*
X001089Y011909D01*
X001072Y011957D01*
X001059Y012005D01*
X001049Y012055D01*
X001043Y012105D01*
X001041Y012155D01*
X010541Y012155D02*
X010543Y012205D01*
X010549Y012255D01*
X010559Y012305D01*
X010572Y012353D01*
X010589Y012401D01*
X010610Y012447D01*
X010634Y012491D01*
X010662Y012533D01*
X010693Y012573D01*
X010727Y012610D01*
X010764Y012645D01*
X010803Y012676D01*
X010844Y012705D01*
X010888Y012730D01*
X010934Y012752D01*
X010981Y012770D01*
X011029Y012784D01*
X011078Y012795D01*
X011128Y012802D01*
X011178Y012805D01*
X011229Y012804D01*
X011279Y012799D01*
X011329Y012790D01*
X011377Y012778D01*
X011425Y012761D01*
X011471Y012741D01*
X011516Y012718D01*
X011559Y012691D01*
X011599Y012661D01*
X011637Y012628D01*
X011672Y012592D01*
X011705Y012553D01*
X011734Y012512D01*
X011760Y012469D01*
X011783Y012424D01*
X011802Y012377D01*
X011817Y012329D01*
X011829Y012280D01*
X011837Y012230D01*
X011841Y012180D01*
X011841Y012130D01*
X011837Y012080D01*
X011829Y012030D01*
X011817Y011981D01*
X011802Y011933D01*
X011783Y011886D01*
X011760Y011841D01*
X011734Y011798D01*
X011705Y011757D01*
X011672Y011718D01*
X011637Y011682D01*
X011599Y011649D01*
X011559Y011619D01*
X011516Y011592D01*
X011471Y011569D01*
X011425Y011549D01*
X011377Y011532D01*
X011329Y011520D01*
X011279Y011511D01*
X011229Y011506D01*
X011178Y011505D01*
X011128Y011508D01*
X011078Y011515D01*
X011029Y011526D01*
X010981Y011540D01*
X010934Y011558D01*
X010888Y011580D01*
X010844Y011605D01*
X010803Y011634D01*
X010764Y011665D01*
X010727Y011700D01*
X010693Y011737D01*
X010662Y011777D01*
X010634Y011819D01*
X010610Y011863D01*
X010589Y011909D01*
X010572Y011957D01*
X010559Y012005D01*
X010549Y012055D01*
X010543Y012105D01*
X010541Y012155D01*
X010541Y002155D02*
X010543Y002205D01*
X010549Y002255D01*
X010559Y002305D01*
X010572Y002353D01*
X010589Y002401D01*
X010610Y002447D01*
X010634Y002491D01*
X010662Y002533D01*
X010693Y002573D01*
X010727Y002610D01*
X010764Y002645D01*
X010803Y002676D01*
X010844Y002705D01*
X010888Y002730D01*
X010934Y002752D01*
X010981Y002770D01*
X011029Y002784D01*
X011078Y002795D01*
X011128Y002802D01*
X011178Y002805D01*
X011229Y002804D01*
X011279Y002799D01*
X011329Y002790D01*
X011377Y002778D01*
X011425Y002761D01*
X011471Y002741D01*
X011516Y002718D01*
X011559Y002691D01*
X011599Y002661D01*
X011637Y002628D01*
X011672Y002592D01*
X011705Y002553D01*
X011734Y002512D01*
X011760Y002469D01*
X011783Y002424D01*
X011802Y002377D01*
X011817Y002329D01*
X011829Y002280D01*
X011837Y002230D01*
X011841Y002180D01*
X011841Y002130D01*
X011837Y002080D01*
X011829Y002030D01*
X011817Y001981D01*
X011802Y001933D01*
X011783Y001886D01*
X011760Y001841D01*
X011734Y001798D01*
X011705Y001757D01*
X011672Y001718D01*
X011637Y001682D01*
X011599Y001649D01*
X011559Y001619D01*
X011516Y001592D01*
X011471Y001569D01*
X011425Y001549D01*
X011377Y001532D01*
X011329Y001520D01*
X011279Y001511D01*
X011229Y001506D01*
X011178Y001505D01*
X011128Y001508D01*
X011078Y001515D01*
X011029Y001526D01*
X010981Y001540D01*
X010934Y001558D01*
X010888Y001580D01*
X010844Y001605D01*
X010803Y001634D01*
X010764Y001665D01*
X010727Y001700D01*
X010693Y001737D01*
X010662Y001777D01*
X010634Y001819D01*
X010610Y001863D01*
X010589Y001909D01*
X010572Y001957D01*
X010559Y002005D01*
X010549Y002055D01*
X010543Y002105D01*
X010541Y002155D01*
D11*
X007191Y007155D03*
D12*
X003911Y007155D03*
X003911Y007825D03*
X003911Y008495D03*
X003911Y006485D03*
X003911Y005815D03*
D13*
X004807Y004405D03*
X005476Y004405D03*
X004526Y003655D03*
X003857Y003655D03*
D14*
X009191Y004155D03*
X009191Y001155D03*
D15*
X007191Y010155D03*
D16*
X007191Y004155D03*
D17*
X008117Y012175D03*
X006117Y012175D03*
D18*
X004416Y011912D03*
D19*
X004416Y001912D03*
D20*
X007129Y001874D02*
X007129Y002474D01*
X008129Y002474D02*
X008129Y001874D01*
D21*
X011691Y006155D03*
X011691Y008155D03*
X001191Y008155D03*
X001191Y006155D03*
D22*
X011691Y010155D03*
D23*
X011691Y008155D01*
X010691Y008155D01*
X010191Y007655D01*
X010191Y003655D01*
X009691Y003155D01*
X006191Y003155D01*
X005691Y003655D01*
X004526Y003655D01*
X003857Y003655D02*
X003191Y003655D01*
X002691Y004155D01*
X002691Y004305D01*
X002791Y004405D01*
X004807Y004405D01*
X005476Y004405D02*
X006941Y004405D01*
X006941Y006905D01*
X007191Y007155D01*
X006941Y004405D02*
X007191Y004155D01*
X007129Y002174D02*
X006023Y002174D01*
X005141Y003055D01*
X003641Y005155D02*
X003641Y005545D01*
X003911Y005815D01*
X003911Y006485D02*
X003021Y006485D01*
X002691Y006155D01*
X002691Y004305D01*
X001191Y006155D02*
X002191Y007155D01*
X003911Y007155D01*
X003911Y007825D02*
X003021Y007825D01*
X002691Y008155D01*
X003191Y008655D02*
X003191Y009655D01*
X002691Y010155D01*
X007191Y010155D01*
X008191Y011155D02*
X005173Y011155D01*
X004416Y011912D01*
X002691Y010155D02*
X001691Y010155D01*
X001191Y009655D01*
X001191Y008155D01*
X003191Y008655D02*
X003351Y008495D01*
X003911Y008495D01*
X008191Y011155D02*
X008691Y010655D01*
X009191Y010655D01*
X010691Y009155D01*
X010691Y008655D01*
X011191Y008155D01*
X011691Y008155D01*
D24*
X005141Y003055D03*
X003641Y005155D03*
X002691Y008155D03*
M02*
