G75*
G70*
%OFA0B0*%
%FSLAX24Y24*%
%IPPOS*%
%LPD*%
%AMOC8*
5,1,8,0,0,1.08239X$1,22.5*
%
%ADD10C,0.0084*%
%ADD11C,0.0080*%
%ADD12C,0.0081*%
%ADD13C,0.0749*%
%ADD14C,0.0930*%
%ADD15OC8,0.0930*%
%ADD16OC8,0.0600*%
%ADD17C,0.1320*%
%ADD18OC8,0.1320*%
%ADD19C,0.0680*%
%ADD20OC8,0.1720*%
%ADD21OC8,0.0680*%
%ADD22C,0.1380*%
%ADD23R,0.0480X0.0480*%
D10*
X005144Y005031D02*
X005144Y009279D01*
X009238Y009279D01*
X009238Y005031D01*
X005144Y005031D01*
X005144Y005114D02*
X009238Y005114D01*
X009238Y005197D02*
X005144Y005197D01*
X005144Y005280D02*
X009238Y005280D01*
X009238Y005363D02*
X005144Y005363D01*
X005144Y005446D02*
X009238Y005446D01*
X009238Y005529D02*
X005144Y005529D01*
X005144Y005612D02*
X009238Y005612D01*
X009238Y005695D02*
X005144Y005695D01*
X005144Y005778D02*
X009238Y005778D01*
X009238Y005861D02*
X005144Y005861D01*
X005144Y005944D02*
X009238Y005944D01*
X009238Y006027D02*
X005144Y006027D01*
X005144Y006110D02*
X009238Y006110D01*
X009238Y006193D02*
X005144Y006193D01*
X005144Y006276D02*
X009238Y006276D01*
X009238Y006359D02*
X005144Y006359D01*
X005144Y006442D02*
X009238Y006442D01*
X009238Y006525D02*
X005144Y006525D01*
X005144Y006608D02*
X009238Y006608D01*
X009238Y006691D02*
X005144Y006691D01*
X005144Y006774D02*
X009238Y006774D01*
X009238Y006857D02*
X005144Y006857D01*
X005144Y006940D02*
X009238Y006940D01*
X009238Y007023D02*
X005144Y007023D01*
X005144Y007106D02*
X009238Y007106D01*
X009238Y007189D02*
X005144Y007189D01*
X005144Y007272D02*
X009238Y007272D01*
X009238Y007355D02*
X005144Y007355D01*
X005144Y007438D02*
X009238Y007438D01*
X009238Y007521D02*
X005144Y007521D01*
X005144Y007604D02*
X009238Y007604D01*
X009238Y007687D02*
X005144Y007687D01*
X005144Y007770D02*
X009238Y007770D01*
X009238Y007853D02*
X005144Y007853D01*
X005144Y007936D02*
X009238Y007936D01*
X009238Y008019D02*
X005144Y008019D01*
X005144Y008102D02*
X009238Y008102D01*
X009238Y008185D02*
X005144Y008185D01*
X005144Y008268D02*
X009238Y008268D01*
X009238Y008351D02*
X005144Y008351D01*
X005144Y008434D02*
X009238Y008434D01*
X009238Y008517D02*
X005144Y008517D01*
X005144Y008600D02*
X009238Y008600D01*
X009238Y008683D02*
X005144Y008683D01*
X005144Y008766D02*
X009238Y008766D01*
X009238Y008849D02*
X005144Y008849D01*
X005144Y008932D02*
X009238Y008932D01*
X009238Y009015D02*
X005144Y009015D01*
X005144Y009098D02*
X009238Y009098D01*
X009238Y009181D02*
X005144Y009181D01*
X005144Y009264D02*
X009238Y009264D01*
D11*
X003486Y008705D02*
X003486Y008285D01*
X003486Y008705D02*
X004336Y008705D01*
X004336Y008285D01*
X003486Y008285D01*
X003486Y008364D02*
X004336Y008364D01*
X004336Y008443D02*
X003486Y008443D01*
X003486Y008522D02*
X004336Y008522D01*
X004336Y008601D02*
X003486Y008601D01*
X003486Y008680D02*
X004336Y008680D01*
X003486Y008035D02*
X003486Y007615D01*
X003486Y008035D02*
X004336Y008035D01*
X004336Y007615D01*
X003486Y007615D01*
X003486Y007694D02*
X004336Y007694D01*
X004336Y007773D02*
X003486Y007773D01*
X003486Y007852D02*
X004336Y007852D01*
X004336Y007931D02*
X003486Y007931D01*
X003486Y008010D02*
X004336Y008010D01*
X003486Y007365D02*
X003486Y006945D01*
X003486Y007365D02*
X004336Y007365D01*
X004336Y006945D01*
X003486Y006945D01*
X003486Y007024D02*
X004336Y007024D01*
X004336Y007103D02*
X003486Y007103D01*
X003486Y007182D02*
X004336Y007182D01*
X004336Y007261D02*
X003486Y007261D01*
X003486Y007340D02*
X004336Y007340D01*
X003486Y006695D02*
X003486Y006275D01*
X003486Y006695D02*
X004336Y006695D01*
X004336Y006275D01*
X003486Y006275D01*
X003486Y006354D02*
X004336Y006354D01*
X004336Y006433D02*
X003486Y006433D01*
X003486Y006512D02*
X004336Y006512D01*
X004336Y006591D02*
X003486Y006591D01*
X003486Y006670D02*
X004336Y006670D01*
X003486Y006025D02*
X003486Y005605D01*
X003486Y006025D02*
X004336Y006025D01*
X004336Y005605D01*
X003486Y005605D01*
X003486Y005684D02*
X004336Y005684D01*
X004336Y005763D02*
X003486Y005763D01*
X003486Y005842D02*
X004336Y005842D01*
X004336Y005921D02*
X003486Y005921D01*
X003486Y006000D02*
X004336Y006000D01*
D12*
X004610Y004621D02*
X005004Y004621D01*
X005004Y004189D01*
X004610Y004189D01*
X004610Y004621D01*
X004610Y004269D02*
X005004Y004269D01*
X005004Y004349D02*
X004610Y004349D01*
X004610Y004429D02*
X005004Y004429D01*
X005004Y004509D02*
X004610Y004509D01*
X004610Y004589D02*
X005004Y004589D01*
X005279Y004621D02*
X005673Y004621D01*
X005673Y004189D01*
X005279Y004189D01*
X005279Y004621D01*
X005279Y004269D02*
X005673Y004269D01*
X005673Y004349D02*
X005279Y004349D01*
X005279Y004429D02*
X005673Y004429D01*
X005673Y004509D02*
X005279Y004509D01*
X005279Y004589D02*
X005673Y004589D01*
X004723Y003439D02*
X004329Y003439D01*
X004329Y003871D01*
X004723Y003871D01*
X004723Y003439D01*
X004723Y003519D02*
X004329Y003519D01*
X004329Y003599D02*
X004723Y003599D01*
X004723Y003679D02*
X004329Y003679D01*
X004329Y003759D02*
X004723Y003759D01*
X004723Y003839D02*
X004329Y003839D01*
X004054Y003439D02*
X003660Y003439D01*
X003660Y003871D01*
X004054Y003871D01*
X004054Y003439D01*
X004054Y003519D02*
X003660Y003519D01*
X003660Y003599D02*
X004054Y003599D01*
X004054Y003679D02*
X003660Y003679D01*
X003660Y003759D02*
X004054Y003759D01*
X004054Y003839D02*
X003660Y003839D01*
D13*
X009191Y004155D03*
X009191Y001155D03*
D14*
X007191Y010155D03*
D15*
X007191Y004155D03*
D16*
X008117Y012175D03*
X006117Y012175D03*
D17*
X004416Y011912D03*
D18*
X004416Y001912D03*
D19*
X007129Y001874D02*
X007129Y002474D01*
X008129Y002474D02*
X008129Y001874D01*
D20*
X011691Y006155D03*
X011691Y008155D03*
X001191Y008155D03*
X001191Y006155D03*
D21*
X011691Y010155D03*
D22*
X001691Y002155D03*
X001691Y012155D03*
X011191Y012155D03*
X011191Y002155D03*
D23*
X005141Y003055D03*
X003641Y005155D03*
X002691Y008155D03*
M02*
