G75*
G70*
%OFA0B0*%
%FSLAX24Y24*%
%IPPOS*%
%LPD*%
%AMOC8*
5,1,8,0,0,1.08239X$1,22.5*
%
%ADD10C,0.0060*%
%ADD11C,0.0080*%
%ADD12R,0.0660X0.0380*%
%ADD13R,0.0736X0.0200*%
%ADD14R,0.0335X0.0250*%
%ADD15R,0.1000X0.0200*%
%ADD16C,0.0120*%
%ADD17R,0.0200X0.0300*%
%ADD18C,0.0040*%
%ADD19C,0.0240*%
%ADD20R,0.1200X0.0200*%
%ADD21R,0.0300X0.0350*%
D10*
X002716Y002962D02*
X002766Y002912D01*
X006066Y002912D01*
X006066Y010062D01*
X006066Y010362D01*
X006066Y010912D01*
X002766Y010912D01*
X002716Y010862D01*
X002716Y010412D01*
X002766Y010362D01*
X002766Y010062D01*
X002716Y010012D01*
X002716Y002962D01*
X002666Y003012D01*
X002666Y009962D01*
X002686Y009962D01*
X002686Y003012D01*
X004416Y003112D02*
X004416Y008862D01*
X004416Y009412D02*
X003816Y009412D01*
X003816Y009212D01*
X005016Y009212D01*
X005016Y009412D01*
X004416Y009412D01*
X004416Y009862D01*
X004616Y009712D02*
X004916Y009712D01*
X004766Y009862D02*
X004766Y009562D01*
X005966Y010062D02*
X002816Y010062D01*
X002786Y010062D01*
X002786Y010362D01*
X002816Y010362D01*
X002816Y010062D01*
X002786Y010062D02*
X002766Y010062D01*
X002716Y010012D02*
X002666Y009962D01*
X002766Y010362D02*
X002786Y010362D01*
X002816Y010362D02*
X005966Y010362D01*
X005966Y010062D01*
X006066Y010062D01*
X006166Y009962D01*
X006166Y003012D01*
X006066Y002912D01*
X006629Y002424D02*
X006879Y002674D01*
X007379Y002674D01*
X007629Y002424D01*
X007879Y002674D01*
X008379Y002674D01*
X008629Y002424D01*
X008629Y001924D01*
X008379Y001674D01*
X007879Y001674D01*
X007629Y001924D01*
X007379Y001674D01*
X006879Y001674D01*
X006629Y001924D01*
X006629Y002424D01*
X007629Y002424D02*
X007629Y001924D01*
X008829Y001835D02*
X009554Y001835D01*
X009554Y003475D01*
X008829Y003475D01*
X008829Y001835D01*
X009191Y002055D02*
X009191Y002655D01*
X008941Y002655D01*
X009191Y002655D02*
X009191Y002905D01*
X009191Y002655D02*
X009441Y002655D01*
X009191Y002655D02*
X009441Y002255D01*
X008941Y002255D01*
X009191Y002655D01*
X008091Y004905D02*
X006291Y004905D01*
X006241Y004955D01*
X006191Y005005D01*
X006191Y008805D01*
X006211Y008805D01*
X006211Y005005D01*
X006241Y004955D02*
X006241Y008855D01*
X006191Y008805D01*
X006241Y008855D02*
X006291Y008905D01*
X006311Y008905D01*
X006311Y009055D01*
X006291Y009055D01*
X006241Y009105D01*
X006241Y009355D01*
X006191Y009305D01*
X006211Y009305D01*
X006211Y009155D01*
X006191Y009155D02*
X006191Y009305D01*
X006241Y009355D02*
X006291Y009405D01*
X008091Y009405D01*
X008091Y009055D01*
X008091Y008905D01*
X008091Y004905D01*
X008191Y005005D01*
X008191Y008805D01*
X008091Y008905D01*
X007991Y008905D01*
X006341Y008905D01*
X006341Y009055D01*
X006311Y009055D01*
X006291Y009055D02*
X006291Y008905D01*
X006311Y008905D02*
X006341Y008905D01*
X006341Y009055D02*
X007991Y009055D01*
X007991Y008905D01*
X007991Y009055D02*
X008091Y009055D01*
X008191Y009155D01*
X008191Y009305D01*
X008091Y009405D01*
X007541Y008755D02*
X007541Y008555D01*
X007641Y008655D02*
X007441Y008655D01*
X007191Y008755D02*
X007191Y008405D01*
X007691Y008405D01*
X007691Y008205D01*
X006691Y008205D01*
X006691Y008405D01*
X007191Y008405D01*
X007191Y007905D02*
X007191Y005105D01*
X006241Y009105D02*
X006191Y009155D01*
X006066Y010362D02*
X005966Y010362D01*
X006066Y010362D02*
X006166Y010462D01*
X006166Y010812D01*
X006066Y010912D01*
X002716Y010862D02*
X002666Y010812D01*
X002666Y010462D01*
X002686Y010462D01*
X002686Y010812D01*
X002666Y010462D02*
X002716Y010412D01*
X001011Y010215D02*
X000371Y010215D01*
X001011Y010642D01*
X000371Y010642D01*
X000371Y009999D02*
X000371Y009785D01*
X000371Y009892D02*
X001011Y009892D01*
X001011Y009785D02*
X001011Y009999D01*
X000585Y009519D02*
X000585Y009092D01*
X000371Y009305D02*
X000799Y009305D01*
X011191Y009905D02*
X011441Y009655D01*
X011941Y009655D01*
X012191Y009905D01*
X012191Y010405D01*
X011941Y010655D01*
X011441Y010655D01*
X011191Y010405D01*
X011191Y009905D01*
X012021Y009305D02*
X012449Y009305D01*
X012235Y009092D02*
X012235Y009519D01*
X011871Y004651D02*
X011871Y004224D01*
X011871Y004007D02*
X012405Y004007D01*
X012511Y003900D01*
X012511Y003686D01*
X012405Y003580D01*
X011871Y003580D01*
X011978Y003362D02*
X011871Y003255D01*
X011871Y003042D01*
X011978Y002935D01*
X012405Y002935D01*
X012511Y003042D01*
X012511Y003255D01*
X012405Y003362D01*
X011978Y003362D01*
X011871Y004438D02*
X012511Y004438D01*
D11*
X005058Y005150D02*
X005058Y009161D01*
D12*
X004761Y008495D03*
X004761Y007825D03*
X004761Y007155D03*
X004761Y006485D03*
X004761Y005815D03*
D13*
X009186Y003205D03*
D14*
X009191Y003600D03*
X009191Y001710D03*
D15*
X007191Y007955D03*
D16*
X008141Y008805D02*
X008141Y005005D01*
X006116Y003012D02*
X006116Y009962D01*
X006016Y010112D02*
X006016Y010312D01*
X006116Y010462D02*
X006116Y010812D01*
X008041Y009005D02*
X008041Y008955D01*
X008141Y009155D02*
X008141Y009305D01*
D17*
X007191Y009555D03*
X007191Y004755D03*
D18*
X007617Y012175D02*
X007619Y012219D01*
X007625Y012263D01*
X007635Y012306D01*
X007648Y012348D01*
X007665Y012389D01*
X007686Y012428D01*
X007710Y012465D01*
X007737Y012500D01*
X007767Y012532D01*
X007800Y012562D01*
X007836Y012588D01*
X007873Y012612D01*
X007913Y012631D01*
X007954Y012648D01*
X007997Y012660D01*
X008040Y012669D01*
X008084Y012674D01*
X008128Y012675D01*
X008172Y012672D01*
X008216Y012665D01*
X008259Y012654D01*
X008301Y012640D01*
X008341Y012622D01*
X008380Y012600D01*
X008416Y012576D01*
X008450Y012548D01*
X008482Y012517D01*
X008511Y012483D01*
X008537Y012447D01*
X008559Y012409D01*
X008578Y012369D01*
X008593Y012327D01*
X008605Y012285D01*
X008613Y012241D01*
X008617Y012197D01*
X008617Y012153D01*
X008613Y012109D01*
X008605Y012065D01*
X008593Y012023D01*
X008578Y011981D01*
X008559Y011941D01*
X008537Y011903D01*
X008511Y011867D01*
X008482Y011833D01*
X008450Y011802D01*
X008416Y011774D01*
X008380Y011750D01*
X008341Y011728D01*
X008301Y011710D01*
X008259Y011696D01*
X008216Y011685D01*
X008172Y011678D01*
X008128Y011675D01*
X008084Y011676D01*
X008040Y011681D01*
X007997Y011690D01*
X007954Y011702D01*
X007913Y011719D01*
X007873Y011738D01*
X007836Y011762D01*
X007800Y011788D01*
X007767Y011818D01*
X007737Y011850D01*
X007710Y011885D01*
X007686Y011922D01*
X007665Y011961D01*
X007648Y012002D01*
X007635Y012044D01*
X007625Y012087D01*
X007619Y012131D01*
X007617Y012175D01*
D19*
X007417Y012175D02*
X006817Y012175D01*
D20*
X004416Y008912D03*
D21*
X004416Y011087D03*
X004416Y002737D03*
M02*
