G75*
G70*
%OFA0B0*%
%FSLAX24Y24*%
%IPPOS*%
%LPD*%
%AMOC8*
5,1,8,0,0,1.08239X$1,22.5*
%
%ADD10C,0.0749*%
%ADD11C,0.0930*%
%ADD12OC8,0.0930*%
%ADD13OC8,0.0600*%
%ADD14C,0.1320*%
%ADD15OC8,0.1320*%
%ADD16C,0.0680*%
%ADD17C,0.0081*%
%ADD18OC8,0.1720*%
%ADD19OC8,0.0680*%
%ADD20C,0.1380*%
%ADD21R,0.0480X0.0480*%
D10*
X009191Y001155D03*
X009191Y004155D03*
D11*
X007191Y010155D03*
D12*
X007191Y004155D03*
D13*
X008117Y012175D03*
X006117Y012175D03*
D14*
X004416Y011912D03*
D15*
X004416Y001912D03*
D16*
X007129Y001874D02*
X007129Y002474D01*
X008129Y002474D02*
X008129Y001874D01*
D17*
X003120Y006198D02*
X003120Y006592D01*
X003120Y006198D02*
X002688Y006198D01*
X002688Y006592D01*
X003120Y006592D01*
X003120Y006278D02*
X002688Y006278D01*
X002688Y006358D02*
X003120Y006358D01*
X003120Y006438D02*
X002688Y006438D01*
X002688Y006518D02*
X003120Y006518D01*
X003120Y006868D02*
X003120Y007262D01*
X003120Y006868D02*
X002688Y006868D01*
X002688Y007262D01*
X003120Y007262D01*
X003120Y006948D02*
X002688Y006948D01*
X002688Y007028D02*
X003120Y007028D01*
X003120Y007108D02*
X002688Y007108D01*
X002688Y007188D02*
X003120Y007188D01*
D18*
X001191Y008155D03*
X001191Y006155D03*
X011691Y006155D03*
X011691Y008155D03*
D19*
X011691Y010155D03*
D20*
X001691Y002155D03*
X001691Y012155D03*
X011191Y012155D03*
X011191Y002155D03*
D21*
X005141Y003055D03*
X003641Y005155D03*
X002691Y008155D03*
M02*
