%
M48
M72
T01C0.0236
T02C0.0500
T03C0.0630
T04C0.0787
T05C0.0866
T06C0.1300
T07C0.1488
%
T01
X1601Y10320
X13101Y10320
T02
X9601Y22139
X6601Y23501
X18101Y23501
X21101Y22139
X36420Y13320
X37782Y16320
T03
X39601Y19320
X39601Y21820
X37601Y24320
X35101Y24320
X32601Y24320
X29601Y9320
X27101Y9320
X36101Y9320
X38601Y9320
X18101Y9320
X15601Y9320
X6601Y9320
X4101Y9320
T04
X6451Y11993
X6451Y15320
X9601Y15320
X14054Y15320
X17951Y15320
X21101Y15320
X25554Y15320
X29451Y15320
X32601Y15320
X29451Y11993
X29451Y18647
X17951Y18647
X17951Y11993
X6451Y18647
X2554Y15320
T05
X3498Y17879
X9010Y12761
X14998Y17879
X20510Y12761
X26498Y17879
X32010Y12761
T06
X1601Y5320
X4101Y5320
X6601Y5320
X15601Y5320
X18101Y5320
X27101Y5320
X29601Y5320
X34601Y5320
X37101Y5320
X39601Y5320
X25001Y20320
X13251Y20320
X1601Y20320
X1601Y24820
X39601Y24820
T07
X37101Y14820
X19601Y22820
X8101Y22820
M30
