G75*
G70*
%OFA0B0*%
%FSLAX24Y24*%
%IPPOS*%
%LPD*%
%AMOC8*
5,1,8,0,0,1.08239X$1,22.5*
%
%ADD10C,0.2620*%
%ADD11C,0.0946*%
%ADD12C,0.1380*%
%ADD13C,0.1568*%
%ADD14C,0.1080*%
%ADD15OC8,0.1720*%
%ADD16C,0.0085*%
%ADD17C,0.0083*%
%ADD18R,0.0476X0.0476*%
D10*
X006451Y011993D03*
X006451Y015320D03*
X009601Y015320D03*
X014054Y015320D03*
X017951Y015320D03*
X021101Y015320D03*
X025554Y015320D03*
X029451Y015320D03*
X032601Y015320D03*
X029451Y011993D03*
X029451Y018647D03*
X017951Y018647D03*
X017951Y011993D03*
X006451Y018647D03*
X002554Y015320D03*
D11*
X003498Y017879D03*
X009010Y012761D03*
X014998Y017879D03*
X020510Y012761D03*
X026498Y017879D03*
X032010Y012761D03*
D12*
X001601Y005320D03*
X004101Y005320D03*
X006601Y005320D03*
X015601Y005320D03*
X018101Y005320D03*
X027101Y005320D03*
X029601Y005320D03*
X034601Y005320D03*
X037101Y005320D03*
X039601Y005320D03*
X025001Y020320D03*
X013251Y020320D03*
X001601Y020320D03*
X001601Y024820D03*
X039601Y024820D03*
D13*
X037101Y014820D03*
X019601Y022820D03*
X008101Y022820D03*
D14*
X009247Y021785D02*
X009954Y022492D01*
X006954Y023854D02*
X006247Y023147D01*
X017747Y023147D02*
X018454Y023854D01*
X020747Y021785D02*
X021454Y022492D01*
X036066Y013673D02*
X036773Y012966D01*
X038135Y015966D02*
X037428Y016673D01*
D15*
X039601Y019320D03*
X039601Y021820D03*
X037601Y024320D03*
X035101Y024320D03*
X032601Y024320D03*
X029601Y009320D03*
X027101Y009320D03*
X036101Y009320D03*
X038601Y009320D03*
X018101Y009320D03*
X015601Y009320D03*
X006601Y009320D03*
X004101Y009320D03*
D16*
X002748Y010947D02*
X002748Y011573D01*
X003454Y011573D01*
X003454Y010947D01*
X002748Y010947D01*
X002748Y011031D02*
X003454Y011031D01*
X003454Y011115D02*
X002748Y011115D01*
X002748Y011199D02*
X003454Y011199D01*
X003454Y011283D02*
X002748Y011283D01*
X002748Y011367D02*
X003454Y011367D01*
X003454Y011451D02*
X002748Y011451D01*
X002748Y011535D02*
X003454Y011535D01*
X002748Y012067D02*
X002748Y012693D01*
X003454Y012693D01*
X003454Y012067D01*
X002748Y012067D01*
X002748Y012151D02*
X003454Y012151D01*
X003454Y012235D02*
X002748Y012235D01*
X002748Y012319D02*
X003454Y012319D01*
X003454Y012403D02*
X002748Y012403D01*
X002748Y012487D02*
X003454Y012487D01*
X003454Y012571D02*
X002748Y012571D01*
X002748Y012655D02*
X003454Y012655D01*
X014248Y012693D02*
X014248Y012067D01*
X014248Y012693D02*
X014954Y012693D01*
X014954Y012067D01*
X014248Y012067D01*
X014248Y012151D02*
X014954Y012151D01*
X014954Y012235D02*
X014248Y012235D01*
X014248Y012319D02*
X014954Y012319D01*
X014954Y012403D02*
X014248Y012403D01*
X014248Y012487D02*
X014954Y012487D01*
X014954Y012571D02*
X014248Y012571D01*
X014248Y012655D02*
X014954Y012655D01*
X014248Y011573D02*
X014248Y010947D01*
X014248Y011573D02*
X014954Y011573D01*
X014954Y010947D01*
X014248Y010947D01*
X014248Y011031D02*
X014954Y011031D01*
X014954Y011115D02*
X014248Y011115D01*
X014248Y011199D02*
X014954Y011199D01*
X014954Y011283D02*
X014248Y011283D01*
X014248Y011367D02*
X014954Y011367D01*
X014954Y011451D02*
X014248Y011451D01*
X014248Y011535D02*
X014954Y011535D01*
X025748Y011573D02*
X025748Y010947D01*
X025748Y011573D02*
X026454Y011573D01*
X026454Y010947D01*
X025748Y010947D01*
X025748Y011031D02*
X026454Y011031D01*
X026454Y011115D02*
X025748Y011115D01*
X025748Y011199D02*
X026454Y011199D01*
X026454Y011283D02*
X025748Y011283D01*
X025748Y011367D02*
X026454Y011367D01*
X026454Y011451D02*
X025748Y011451D01*
X025748Y011535D02*
X026454Y011535D01*
X025748Y012067D02*
X025748Y012693D01*
X026454Y012693D01*
X026454Y012067D01*
X025748Y012067D01*
X025748Y012151D02*
X026454Y012151D01*
X026454Y012235D02*
X025748Y012235D01*
X025748Y012319D02*
X026454Y012319D01*
X026454Y012403D02*
X025748Y012403D01*
X025748Y012487D02*
X026454Y012487D01*
X026454Y012571D02*
X025748Y012571D01*
X025748Y012655D02*
X026454Y012655D01*
X037748Y018947D02*
X037748Y019573D01*
X038454Y019573D01*
X038454Y018947D01*
X037748Y018947D01*
X037748Y019031D02*
X038454Y019031D01*
X038454Y019115D02*
X037748Y019115D01*
X037748Y019199D02*
X038454Y019199D01*
X038454Y019283D02*
X037748Y019283D01*
X037748Y019367D02*
X038454Y019367D01*
X038454Y019451D02*
X037748Y019451D01*
X037748Y019535D02*
X038454Y019535D01*
X037748Y020067D02*
X037748Y020693D01*
X038454Y020693D01*
X038454Y020067D01*
X037748Y020067D01*
X037748Y020151D02*
X038454Y020151D01*
X038454Y020235D02*
X037748Y020235D01*
X037748Y020319D02*
X038454Y020319D01*
X038454Y020403D02*
X037748Y020403D01*
X037748Y020487D02*
X038454Y020487D01*
X038454Y020571D02*
X037748Y020571D01*
X037748Y020655D02*
X038454Y020655D01*
X014748Y021947D02*
X014748Y022573D01*
X015454Y022573D01*
X015454Y021947D01*
X014748Y021947D01*
X014748Y022031D02*
X015454Y022031D01*
X015454Y022115D02*
X014748Y022115D01*
X014748Y022199D02*
X015454Y022199D01*
X015454Y022283D02*
X014748Y022283D01*
X014748Y022367D02*
X015454Y022367D01*
X015454Y022451D02*
X014748Y022451D01*
X014748Y022535D02*
X015454Y022535D01*
X014748Y023067D02*
X014748Y023693D01*
X015454Y023693D01*
X015454Y023067D01*
X014748Y023067D01*
X014748Y023151D02*
X015454Y023151D01*
X015454Y023235D02*
X014748Y023235D01*
X014748Y023319D02*
X015454Y023319D01*
X015454Y023403D02*
X014748Y023403D01*
X014748Y023487D02*
X015454Y023487D01*
X015454Y023571D02*
X014748Y023571D01*
X014748Y023655D02*
X015454Y023655D01*
X002248Y023693D02*
X002248Y023067D01*
X002248Y023693D02*
X002954Y023693D01*
X002954Y023067D01*
X002248Y023067D01*
X002248Y023151D02*
X002954Y023151D01*
X002954Y023235D02*
X002248Y023235D01*
X002248Y023319D02*
X002954Y023319D01*
X002954Y023403D02*
X002248Y023403D01*
X002248Y023487D02*
X002954Y023487D01*
X002954Y023571D02*
X002248Y023571D01*
X002248Y023655D02*
X002954Y023655D01*
X002248Y022573D02*
X002248Y021947D01*
X002248Y022573D02*
X002954Y022573D01*
X002954Y021947D01*
X002248Y021947D01*
X002248Y022031D02*
X002954Y022031D01*
X002954Y022115D02*
X002248Y022115D01*
X002248Y022199D02*
X002954Y022199D01*
X002954Y022283D02*
X002248Y022283D01*
X002248Y022367D02*
X002954Y022367D01*
X002954Y022451D02*
X002248Y022451D01*
X002248Y022535D02*
X002954Y022535D01*
D17*
X003287Y022701D02*
X003287Y022191D01*
X003287Y022701D02*
X003915Y022701D01*
X003915Y022191D01*
X003287Y022191D01*
X003287Y022273D02*
X003915Y022273D01*
X003915Y022355D02*
X003287Y022355D01*
X003287Y022437D02*
X003915Y022437D01*
X003915Y022519D02*
X003287Y022519D01*
X003287Y022601D02*
X003915Y022601D01*
X003915Y022683D02*
X003287Y022683D01*
X003287Y022939D02*
X003287Y023449D01*
X003915Y023449D01*
X003915Y022939D01*
X003287Y022939D01*
X003287Y023021D02*
X003915Y023021D01*
X003915Y023103D02*
X003287Y023103D01*
X003287Y023185D02*
X003915Y023185D01*
X003915Y023267D02*
X003287Y023267D01*
X003287Y023349D02*
X003915Y023349D01*
X003915Y023431D02*
X003287Y023431D01*
X013287Y023449D02*
X013287Y022939D01*
X013287Y023449D02*
X013915Y023449D01*
X013915Y022939D01*
X013287Y022939D01*
X013287Y023021D02*
X013915Y023021D01*
X013915Y023103D02*
X013287Y023103D01*
X013287Y023185D02*
X013915Y023185D01*
X013915Y023267D02*
X013287Y023267D01*
X013287Y023349D02*
X013915Y023349D01*
X013915Y023431D02*
X013287Y023431D01*
X013287Y022701D02*
X013287Y022191D01*
X013287Y022701D02*
X013915Y022701D01*
X013915Y022191D01*
X013287Y022191D01*
X013287Y022273D02*
X013915Y022273D01*
X013915Y022355D02*
X013287Y022355D01*
X013287Y022437D02*
X013915Y022437D01*
X013915Y022519D02*
X013287Y022519D01*
X013287Y022601D02*
X013915Y022601D01*
X013915Y022683D02*
X013287Y022683D01*
X013415Y012449D02*
X013415Y011939D01*
X012787Y011939D01*
X012787Y012449D01*
X013415Y012449D01*
X013415Y012021D02*
X012787Y012021D01*
X012787Y012103D02*
X013415Y012103D01*
X013415Y012185D02*
X012787Y012185D01*
X012787Y012267D02*
X013415Y012267D01*
X013415Y012349D02*
X012787Y012349D01*
X012787Y012431D02*
X013415Y012431D01*
X013415Y011701D02*
X013415Y011191D01*
X012787Y011191D01*
X012787Y011701D01*
X013415Y011701D01*
X013415Y011273D02*
X012787Y011273D01*
X012787Y011355D02*
X013415Y011355D01*
X013415Y011437D02*
X012787Y011437D01*
X012787Y011519D02*
X013415Y011519D01*
X013415Y011601D02*
X012787Y011601D01*
X012787Y011683D02*
X013415Y011683D01*
X024915Y011701D02*
X024915Y011191D01*
X024287Y011191D01*
X024287Y011701D01*
X024915Y011701D01*
X024915Y011273D02*
X024287Y011273D01*
X024287Y011355D02*
X024915Y011355D01*
X024915Y011437D02*
X024287Y011437D01*
X024287Y011519D02*
X024915Y011519D01*
X024915Y011601D02*
X024287Y011601D01*
X024287Y011683D02*
X024915Y011683D01*
X024915Y011939D02*
X024915Y012449D01*
X024915Y011939D02*
X024287Y011939D01*
X024287Y012449D01*
X024915Y012449D01*
X024915Y012021D02*
X024287Y012021D01*
X024287Y012103D02*
X024915Y012103D01*
X024915Y012185D02*
X024287Y012185D01*
X024287Y012267D02*
X024915Y012267D01*
X024915Y012349D02*
X024287Y012349D01*
X024287Y012431D02*
X024915Y012431D01*
X036915Y019191D02*
X036915Y019701D01*
X036915Y019191D02*
X036287Y019191D01*
X036287Y019701D01*
X036915Y019701D01*
X036915Y019273D02*
X036287Y019273D01*
X036287Y019355D02*
X036915Y019355D01*
X036915Y019437D02*
X036287Y019437D01*
X036287Y019519D02*
X036915Y019519D01*
X036915Y019601D02*
X036287Y019601D01*
X036287Y019683D02*
X036915Y019683D01*
X036915Y019939D02*
X036915Y020449D01*
X036915Y019939D02*
X036287Y019939D01*
X036287Y020449D01*
X036915Y020449D01*
X036915Y020021D02*
X036287Y020021D01*
X036287Y020103D02*
X036915Y020103D01*
X036915Y020185D02*
X036287Y020185D01*
X036287Y020267D02*
X036915Y020267D01*
X036915Y020349D02*
X036287Y020349D01*
X036287Y020431D02*
X036915Y020431D01*
X001915Y012449D02*
X001915Y011939D01*
X001287Y011939D01*
X001287Y012449D01*
X001915Y012449D01*
X001915Y012021D02*
X001287Y012021D01*
X001287Y012103D02*
X001915Y012103D01*
X001915Y012185D02*
X001287Y012185D01*
X001287Y012267D02*
X001915Y012267D01*
X001915Y012349D02*
X001287Y012349D01*
X001287Y012431D02*
X001915Y012431D01*
X001915Y011701D02*
X001915Y011191D01*
X001287Y011191D01*
X001287Y011701D01*
X001915Y011701D01*
X001915Y011273D02*
X001287Y011273D01*
X001287Y011355D02*
X001915Y011355D01*
X001915Y011437D02*
X001287Y011437D01*
X001287Y011519D02*
X001915Y011519D01*
X001915Y011601D02*
X001287Y011601D01*
X001287Y011683D02*
X001915Y011683D01*
D18*
X001601Y010320D03*
X013101Y010320D03*
M02*
