G75*
G70*
%OFA0B0*%
%FSLAX24Y24*%
%IPPOS*%
%LPD*%
%AMOC8*
5,1,8,0,0,1.08239X$1,22.5*
%
%ADD10C,0.0000*%
%ADD11C,0.2540*%
%ADD12C,0.1000*%
%ADD13OC8,0.1640*%
%ADD14R,0.0710X0.0630*%
%ADD15R,0.0630X0.0512*%
%ADD16C,0.0500*%
%ADD17C,0.0240*%
%ADD18R,0.0396X0.0396*%
D10*
X000101Y003820D02*
X000101Y026316D01*
X040971Y026316D01*
X040971Y003820D01*
X000101Y003820D01*
X000951Y005320D02*
X000953Y005370D01*
X000959Y005420D01*
X000969Y005470D01*
X000982Y005518D01*
X000999Y005566D01*
X001020Y005612D01*
X001044Y005656D01*
X001072Y005698D01*
X001103Y005738D01*
X001137Y005775D01*
X001174Y005810D01*
X001213Y005841D01*
X001254Y005870D01*
X001298Y005895D01*
X001344Y005917D01*
X001391Y005935D01*
X001439Y005949D01*
X001488Y005960D01*
X001538Y005967D01*
X001588Y005970D01*
X001639Y005969D01*
X001689Y005964D01*
X001739Y005955D01*
X001787Y005943D01*
X001835Y005926D01*
X001881Y005906D01*
X001926Y005883D01*
X001969Y005856D01*
X002009Y005826D01*
X002047Y005793D01*
X002082Y005757D01*
X002115Y005718D01*
X002144Y005677D01*
X002170Y005634D01*
X002193Y005589D01*
X002212Y005542D01*
X002227Y005494D01*
X002239Y005445D01*
X002247Y005395D01*
X002251Y005345D01*
X002251Y005295D01*
X002247Y005245D01*
X002239Y005195D01*
X002227Y005146D01*
X002212Y005098D01*
X002193Y005051D01*
X002170Y005006D01*
X002144Y004963D01*
X002115Y004922D01*
X002082Y004883D01*
X002047Y004847D01*
X002009Y004814D01*
X001969Y004784D01*
X001926Y004757D01*
X001881Y004734D01*
X001835Y004714D01*
X001787Y004697D01*
X001739Y004685D01*
X001689Y004676D01*
X001639Y004671D01*
X001588Y004670D01*
X001538Y004673D01*
X001488Y004680D01*
X001439Y004691D01*
X001391Y004705D01*
X001344Y004723D01*
X001298Y004745D01*
X001254Y004770D01*
X001213Y004799D01*
X001174Y004830D01*
X001137Y004865D01*
X001103Y004902D01*
X001072Y004942D01*
X001044Y004984D01*
X001020Y005028D01*
X000999Y005074D01*
X000982Y005122D01*
X000969Y005170D01*
X000959Y005220D01*
X000953Y005270D01*
X000951Y005320D01*
X003451Y005320D02*
X003453Y005370D01*
X003459Y005420D01*
X003469Y005470D01*
X003482Y005518D01*
X003499Y005566D01*
X003520Y005612D01*
X003544Y005656D01*
X003572Y005698D01*
X003603Y005738D01*
X003637Y005775D01*
X003674Y005810D01*
X003713Y005841D01*
X003754Y005870D01*
X003798Y005895D01*
X003844Y005917D01*
X003891Y005935D01*
X003939Y005949D01*
X003988Y005960D01*
X004038Y005967D01*
X004088Y005970D01*
X004139Y005969D01*
X004189Y005964D01*
X004239Y005955D01*
X004287Y005943D01*
X004335Y005926D01*
X004381Y005906D01*
X004426Y005883D01*
X004469Y005856D01*
X004509Y005826D01*
X004547Y005793D01*
X004582Y005757D01*
X004615Y005718D01*
X004644Y005677D01*
X004670Y005634D01*
X004693Y005589D01*
X004712Y005542D01*
X004727Y005494D01*
X004739Y005445D01*
X004747Y005395D01*
X004751Y005345D01*
X004751Y005295D01*
X004747Y005245D01*
X004739Y005195D01*
X004727Y005146D01*
X004712Y005098D01*
X004693Y005051D01*
X004670Y005006D01*
X004644Y004963D01*
X004615Y004922D01*
X004582Y004883D01*
X004547Y004847D01*
X004509Y004814D01*
X004469Y004784D01*
X004426Y004757D01*
X004381Y004734D01*
X004335Y004714D01*
X004287Y004697D01*
X004239Y004685D01*
X004189Y004676D01*
X004139Y004671D01*
X004088Y004670D01*
X004038Y004673D01*
X003988Y004680D01*
X003939Y004691D01*
X003891Y004705D01*
X003844Y004723D01*
X003798Y004745D01*
X003754Y004770D01*
X003713Y004799D01*
X003674Y004830D01*
X003637Y004865D01*
X003603Y004902D01*
X003572Y004942D01*
X003544Y004984D01*
X003520Y005028D01*
X003499Y005074D01*
X003482Y005122D01*
X003469Y005170D01*
X003459Y005220D01*
X003453Y005270D01*
X003451Y005320D01*
X005951Y005320D02*
X005953Y005370D01*
X005959Y005420D01*
X005969Y005470D01*
X005982Y005518D01*
X005999Y005566D01*
X006020Y005612D01*
X006044Y005656D01*
X006072Y005698D01*
X006103Y005738D01*
X006137Y005775D01*
X006174Y005810D01*
X006213Y005841D01*
X006254Y005870D01*
X006298Y005895D01*
X006344Y005917D01*
X006391Y005935D01*
X006439Y005949D01*
X006488Y005960D01*
X006538Y005967D01*
X006588Y005970D01*
X006639Y005969D01*
X006689Y005964D01*
X006739Y005955D01*
X006787Y005943D01*
X006835Y005926D01*
X006881Y005906D01*
X006926Y005883D01*
X006969Y005856D01*
X007009Y005826D01*
X007047Y005793D01*
X007082Y005757D01*
X007115Y005718D01*
X007144Y005677D01*
X007170Y005634D01*
X007193Y005589D01*
X007212Y005542D01*
X007227Y005494D01*
X007239Y005445D01*
X007247Y005395D01*
X007251Y005345D01*
X007251Y005295D01*
X007247Y005245D01*
X007239Y005195D01*
X007227Y005146D01*
X007212Y005098D01*
X007193Y005051D01*
X007170Y005006D01*
X007144Y004963D01*
X007115Y004922D01*
X007082Y004883D01*
X007047Y004847D01*
X007009Y004814D01*
X006969Y004784D01*
X006926Y004757D01*
X006881Y004734D01*
X006835Y004714D01*
X006787Y004697D01*
X006739Y004685D01*
X006689Y004676D01*
X006639Y004671D01*
X006588Y004670D01*
X006538Y004673D01*
X006488Y004680D01*
X006439Y004691D01*
X006391Y004705D01*
X006344Y004723D01*
X006298Y004745D01*
X006254Y004770D01*
X006213Y004799D01*
X006174Y004830D01*
X006137Y004865D01*
X006103Y004902D01*
X006072Y004942D01*
X006044Y004984D01*
X006020Y005028D01*
X005999Y005074D01*
X005982Y005122D01*
X005969Y005170D01*
X005959Y005220D01*
X005953Y005270D01*
X005951Y005320D01*
X014951Y005320D02*
X014953Y005370D01*
X014959Y005420D01*
X014969Y005470D01*
X014982Y005518D01*
X014999Y005566D01*
X015020Y005612D01*
X015044Y005656D01*
X015072Y005698D01*
X015103Y005738D01*
X015137Y005775D01*
X015174Y005810D01*
X015213Y005841D01*
X015254Y005870D01*
X015298Y005895D01*
X015344Y005917D01*
X015391Y005935D01*
X015439Y005949D01*
X015488Y005960D01*
X015538Y005967D01*
X015588Y005970D01*
X015639Y005969D01*
X015689Y005964D01*
X015739Y005955D01*
X015787Y005943D01*
X015835Y005926D01*
X015881Y005906D01*
X015926Y005883D01*
X015969Y005856D01*
X016009Y005826D01*
X016047Y005793D01*
X016082Y005757D01*
X016115Y005718D01*
X016144Y005677D01*
X016170Y005634D01*
X016193Y005589D01*
X016212Y005542D01*
X016227Y005494D01*
X016239Y005445D01*
X016247Y005395D01*
X016251Y005345D01*
X016251Y005295D01*
X016247Y005245D01*
X016239Y005195D01*
X016227Y005146D01*
X016212Y005098D01*
X016193Y005051D01*
X016170Y005006D01*
X016144Y004963D01*
X016115Y004922D01*
X016082Y004883D01*
X016047Y004847D01*
X016009Y004814D01*
X015969Y004784D01*
X015926Y004757D01*
X015881Y004734D01*
X015835Y004714D01*
X015787Y004697D01*
X015739Y004685D01*
X015689Y004676D01*
X015639Y004671D01*
X015588Y004670D01*
X015538Y004673D01*
X015488Y004680D01*
X015439Y004691D01*
X015391Y004705D01*
X015344Y004723D01*
X015298Y004745D01*
X015254Y004770D01*
X015213Y004799D01*
X015174Y004830D01*
X015137Y004865D01*
X015103Y004902D01*
X015072Y004942D01*
X015044Y004984D01*
X015020Y005028D01*
X014999Y005074D01*
X014982Y005122D01*
X014969Y005170D01*
X014959Y005220D01*
X014953Y005270D01*
X014951Y005320D01*
X017451Y005320D02*
X017453Y005370D01*
X017459Y005420D01*
X017469Y005470D01*
X017482Y005518D01*
X017499Y005566D01*
X017520Y005612D01*
X017544Y005656D01*
X017572Y005698D01*
X017603Y005738D01*
X017637Y005775D01*
X017674Y005810D01*
X017713Y005841D01*
X017754Y005870D01*
X017798Y005895D01*
X017844Y005917D01*
X017891Y005935D01*
X017939Y005949D01*
X017988Y005960D01*
X018038Y005967D01*
X018088Y005970D01*
X018139Y005969D01*
X018189Y005964D01*
X018239Y005955D01*
X018287Y005943D01*
X018335Y005926D01*
X018381Y005906D01*
X018426Y005883D01*
X018469Y005856D01*
X018509Y005826D01*
X018547Y005793D01*
X018582Y005757D01*
X018615Y005718D01*
X018644Y005677D01*
X018670Y005634D01*
X018693Y005589D01*
X018712Y005542D01*
X018727Y005494D01*
X018739Y005445D01*
X018747Y005395D01*
X018751Y005345D01*
X018751Y005295D01*
X018747Y005245D01*
X018739Y005195D01*
X018727Y005146D01*
X018712Y005098D01*
X018693Y005051D01*
X018670Y005006D01*
X018644Y004963D01*
X018615Y004922D01*
X018582Y004883D01*
X018547Y004847D01*
X018509Y004814D01*
X018469Y004784D01*
X018426Y004757D01*
X018381Y004734D01*
X018335Y004714D01*
X018287Y004697D01*
X018239Y004685D01*
X018189Y004676D01*
X018139Y004671D01*
X018088Y004670D01*
X018038Y004673D01*
X017988Y004680D01*
X017939Y004691D01*
X017891Y004705D01*
X017844Y004723D01*
X017798Y004745D01*
X017754Y004770D01*
X017713Y004799D01*
X017674Y004830D01*
X017637Y004865D01*
X017603Y004902D01*
X017572Y004942D01*
X017544Y004984D01*
X017520Y005028D01*
X017499Y005074D01*
X017482Y005122D01*
X017469Y005170D01*
X017459Y005220D01*
X017453Y005270D01*
X017451Y005320D01*
X026451Y005320D02*
X026453Y005370D01*
X026459Y005420D01*
X026469Y005470D01*
X026482Y005518D01*
X026499Y005566D01*
X026520Y005612D01*
X026544Y005656D01*
X026572Y005698D01*
X026603Y005738D01*
X026637Y005775D01*
X026674Y005810D01*
X026713Y005841D01*
X026754Y005870D01*
X026798Y005895D01*
X026844Y005917D01*
X026891Y005935D01*
X026939Y005949D01*
X026988Y005960D01*
X027038Y005967D01*
X027088Y005970D01*
X027139Y005969D01*
X027189Y005964D01*
X027239Y005955D01*
X027287Y005943D01*
X027335Y005926D01*
X027381Y005906D01*
X027426Y005883D01*
X027469Y005856D01*
X027509Y005826D01*
X027547Y005793D01*
X027582Y005757D01*
X027615Y005718D01*
X027644Y005677D01*
X027670Y005634D01*
X027693Y005589D01*
X027712Y005542D01*
X027727Y005494D01*
X027739Y005445D01*
X027747Y005395D01*
X027751Y005345D01*
X027751Y005295D01*
X027747Y005245D01*
X027739Y005195D01*
X027727Y005146D01*
X027712Y005098D01*
X027693Y005051D01*
X027670Y005006D01*
X027644Y004963D01*
X027615Y004922D01*
X027582Y004883D01*
X027547Y004847D01*
X027509Y004814D01*
X027469Y004784D01*
X027426Y004757D01*
X027381Y004734D01*
X027335Y004714D01*
X027287Y004697D01*
X027239Y004685D01*
X027189Y004676D01*
X027139Y004671D01*
X027088Y004670D01*
X027038Y004673D01*
X026988Y004680D01*
X026939Y004691D01*
X026891Y004705D01*
X026844Y004723D01*
X026798Y004745D01*
X026754Y004770D01*
X026713Y004799D01*
X026674Y004830D01*
X026637Y004865D01*
X026603Y004902D01*
X026572Y004942D01*
X026544Y004984D01*
X026520Y005028D01*
X026499Y005074D01*
X026482Y005122D01*
X026469Y005170D01*
X026459Y005220D01*
X026453Y005270D01*
X026451Y005320D01*
X028951Y005320D02*
X028953Y005370D01*
X028959Y005420D01*
X028969Y005470D01*
X028982Y005518D01*
X028999Y005566D01*
X029020Y005612D01*
X029044Y005656D01*
X029072Y005698D01*
X029103Y005738D01*
X029137Y005775D01*
X029174Y005810D01*
X029213Y005841D01*
X029254Y005870D01*
X029298Y005895D01*
X029344Y005917D01*
X029391Y005935D01*
X029439Y005949D01*
X029488Y005960D01*
X029538Y005967D01*
X029588Y005970D01*
X029639Y005969D01*
X029689Y005964D01*
X029739Y005955D01*
X029787Y005943D01*
X029835Y005926D01*
X029881Y005906D01*
X029926Y005883D01*
X029969Y005856D01*
X030009Y005826D01*
X030047Y005793D01*
X030082Y005757D01*
X030115Y005718D01*
X030144Y005677D01*
X030170Y005634D01*
X030193Y005589D01*
X030212Y005542D01*
X030227Y005494D01*
X030239Y005445D01*
X030247Y005395D01*
X030251Y005345D01*
X030251Y005295D01*
X030247Y005245D01*
X030239Y005195D01*
X030227Y005146D01*
X030212Y005098D01*
X030193Y005051D01*
X030170Y005006D01*
X030144Y004963D01*
X030115Y004922D01*
X030082Y004883D01*
X030047Y004847D01*
X030009Y004814D01*
X029969Y004784D01*
X029926Y004757D01*
X029881Y004734D01*
X029835Y004714D01*
X029787Y004697D01*
X029739Y004685D01*
X029689Y004676D01*
X029639Y004671D01*
X029588Y004670D01*
X029538Y004673D01*
X029488Y004680D01*
X029439Y004691D01*
X029391Y004705D01*
X029344Y004723D01*
X029298Y004745D01*
X029254Y004770D01*
X029213Y004799D01*
X029174Y004830D01*
X029137Y004865D01*
X029103Y004902D01*
X029072Y004942D01*
X029044Y004984D01*
X029020Y005028D01*
X028999Y005074D01*
X028982Y005122D01*
X028969Y005170D01*
X028959Y005220D01*
X028953Y005270D01*
X028951Y005320D01*
X033951Y005320D02*
X033953Y005370D01*
X033959Y005420D01*
X033969Y005470D01*
X033982Y005518D01*
X033999Y005566D01*
X034020Y005612D01*
X034044Y005656D01*
X034072Y005698D01*
X034103Y005738D01*
X034137Y005775D01*
X034174Y005810D01*
X034213Y005841D01*
X034254Y005870D01*
X034298Y005895D01*
X034344Y005917D01*
X034391Y005935D01*
X034439Y005949D01*
X034488Y005960D01*
X034538Y005967D01*
X034588Y005970D01*
X034639Y005969D01*
X034689Y005964D01*
X034739Y005955D01*
X034787Y005943D01*
X034835Y005926D01*
X034881Y005906D01*
X034926Y005883D01*
X034969Y005856D01*
X035009Y005826D01*
X035047Y005793D01*
X035082Y005757D01*
X035115Y005718D01*
X035144Y005677D01*
X035170Y005634D01*
X035193Y005589D01*
X035212Y005542D01*
X035227Y005494D01*
X035239Y005445D01*
X035247Y005395D01*
X035251Y005345D01*
X035251Y005295D01*
X035247Y005245D01*
X035239Y005195D01*
X035227Y005146D01*
X035212Y005098D01*
X035193Y005051D01*
X035170Y005006D01*
X035144Y004963D01*
X035115Y004922D01*
X035082Y004883D01*
X035047Y004847D01*
X035009Y004814D01*
X034969Y004784D01*
X034926Y004757D01*
X034881Y004734D01*
X034835Y004714D01*
X034787Y004697D01*
X034739Y004685D01*
X034689Y004676D01*
X034639Y004671D01*
X034588Y004670D01*
X034538Y004673D01*
X034488Y004680D01*
X034439Y004691D01*
X034391Y004705D01*
X034344Y004723D01*
X034298Y004745D01*
X034254Y004770D01*
X034213Y004799D01*
X034174Y004830D01*
X034137Y004865D01*
X034103Y004902D01*
X034072Y004942D01*
X034044Y004984D01*
X034020Y005028D01*
X033999Y005074D01*
X033982Y005122D01*
X033969Y005170D01*
X033959Y005220D01*
X033953Y005270D01*
X033951Y005320D01*
X036451Y005320D02*
X036453Y005370D01*
X036459Y005420D01*
X036469Y005470D01*
X036482Y005518D01*
X036499Y005566D01*
X036520Y005612D01*
X036544Y005656D01*
X036572Y005698D01*
X036603Y005738D01*
X036637Y005775D01*
X036674Y005810D01*
X036713Y005841D01*
X036754Y005870D01*
X036798Y005895D01*
X036844Y005917D01*
X036891Y005935D01*
X036939Y005949D01*
X036988Y005960D01*
X037038Y005967D01*
X037088Y005970D01*
X037139Y005969D01*
X037189Y005964D01*
X037239Y005955D01*
X037287Y005943D01*
X037335Y005926D01*
X037381Y005906D01*
X037426Y005883D01*
X037469Y005856D01*
X037509Y005826D01*
X037547Y005793D01*
X037582Y005757D01*
X037615Y005718D01*
X037644Y005677D01*
X037670Y005634D01*
X037693Y005589D01*
X037712Y005542D01*
X037727Y005494D01*
X037739Y005445D01*
X037747Y005395D01*
X037751Y005345D01*
X037751Y005295D01*
X037747Y005245D01*
X037739Y005195D01*
X037727Y005146D01*
X037712Y005098D01*
X037693Y005051D01*
X037670Y005006D01*
X037644Y004963D01*
X037615Y004922D01*
X037582Y004883D01*
X037547Y004847D01*
X037509Y004814D01*
X037469Y004784D01*
X037426Y004757D01*
X037381Y004734D01*
X037335Y004714D01*
X037287Y004697D01*
X037239Y004685D01*
X037189Y004676D01*
X037139Y004671D01*
X037088Y004670D01*
X037038Y004673D01*
X036988Y004680D01*
X036939Y004691D01*
X036891Y004705D01*
X036844Y004723D01*
X036798Y004745D01*
X036754Y004770D01*
X036713Y004799D01*
X036674Y004830D01*
X036637Y004865D01*
X036603Y004902D01*
X036572Y004942D01*
X036544Y004984D01*
X036520Y005028D01*
X036499Y005074D01*
X036482Y005122D01*
X036469Y005170D01*
X036459Y005220D01*
X036453Y005270D01*
X036451Y005320D01*
X038951Y005320D02*
X038953Y005370D01*
X038959Y005420D01*
X038969Y005470D01*
X038982Y005518D01*
X038999Y005566D01*
X039020Y005612D01*
X039044Y005656D01*
X039072Y005698D01*
X039103Y005738D01*
X039137Y005775D01*
X039174Y005810D01*
X039213Y005841D01*
X039254Y005870D01*
X039298Y005895D01*
X039344Y005917D01*
X039391Y005935D01*
X039439Y005949D01*
X039488Y005960D01*
X039538Y005967D01*
X039588Y005970D01*
X039639Y005969D01*
X039689Y005964D01*
X039739Y005955D01*
X039787Y005943D01*
X039835Y005926D01*
X039881Y005906D01*
X039926Y005883D01*
X039969Y005856D01*
X040009Y005826D01*
X040047Y005793D01*
X040082Y005757D01*
X040115Y005718D01*
X040144Y005677D01*
X040170Y005634D01*
X040193Y005589D01*
X040212Y005542D01*
X040227Y005494D01*
X040239Y005445D01*
X040247Y005395D01*
X040251Y005345D01*
X040251Y005295D01*
X040247Y005245D01*
X040239Y005195D01*
X040227Y005146D01*
X040212Y005098D01*
X040193Y005051D01*
X040170Y005006D01*
X040144Y004963D01*
X040115Y004922D01*
X040082Y004883D01*
X040047Y004847D01*
X040009Y004814D01*
X039969Y004784D01*
X039926Y004757D01*
X039881Y004734D01*
X039835Y004714D01*
X039787Y004697D01*
X039739Y004685D01*
X039689Y004676D01*
X039639Y004671D01*
X039588Y004670D01*
X039538Y004673D01*
X039488Y004680D01*
X039439Y004691D01*
X039391Y004705D01*
X039344Y004723D01*
X039298Y004745D01*
X039254Y004770D01*
X039213Y004799D01*
X039174Y004830D01*
X039137Y004865D01*
X039103Y004902D01*
X039072Y004942D01*
X039044Y004984D01*
X039020Y005028D01*
X038999Y005074D01*
X038982Y005122D01*
X038969Y005170D01*
X038959Y005220D01*
X038953Y005270D01*
X038951Y005320D01*
X031577Y012761D02*
X031579Y012802D01*
X031585Y012843D01*
X031595Y012883D01*
X031608Y012922D01*
X031625Y012959D01*
X031646Y012995D01*
X031670Y013029D01*
X031697Y013060D01*
X031726Y013088D01*
X031759Y013114D01*
X031793Y013136D01*
X031830Y013155D01*
X031868Y013170D01*
X031908Y013182D01*
X031948Y013190D01*
X031989Y013194D01*
X032031Y013194D01*
X032072Y013190D01*
X032112Y013182D01*
X032152Y013170D01*
X032190Y013155D01*
X032226Y013136D01*
X032261Y013114D01*
X032294Y013088D01*
X032323Y013060D01*
X032350Y013029D01*
X032374Y012995D01*
X032395Y012959D01*
X032412Y012922D01*
X032425Y012883D01*
X032435Y012843D01*
X032441Y012802D01*
X032443Y012761D01*
X032441Y012720D01*
X032435Y012679D01*
X032425Y012639D01*
X032412Y012600D01*
X032395Y012563D01*
X032374Y012527D01*
X032350Y012493D01*
X032323Y012462D01*
X032294Y012434D01*
X032261Y012408D01*
X032227Y012386D01*
X032190Y012367D01*
X032152Y012352D01*
X032112Y012340D01*
X032072Y012332D01*
X032031Y012328D01*
X031989Y012328D01*
X031948Y012332D01*
X031908Y012340D01*
X031868Y012352D01*
X031830Y012367D01*
X031794Y012386D01*
X031759Y012408D01*
X031726Y012434D01*
X031697Y012462D01*
X031670Y012493D01*
X031646Y012527D01*
X031625Y012563D01*
X031608Y012600D01*
X031595Y012639D01*
X031585Y012679D01*
X031579Y012720D01*
X031577Y012761D01*
X036357Y014820D02*
X036359Y014874D01*
X036365Y014928D01*
X036375Y014982D01*
X036389Y015034D01*
X036406Y015086D01*
X036427Y015136D01*
X036452Y015184D01*
X036481Y015231D01*
X036512Y015275D01*
X036547Y015316D01*
X036585Y015356D01*
X036625Y015392D01*
X036668Y015425D01*
X036713Y015455D01*
X036761Y015482D01*
X036810Y015505D01*
X036861Y015524D01*
X036913Y015540D01*
X036966Y015552D01*
X037020Y015560D01*
X037074Y015564D01*
X037128Y015564D01*
X037182Y015560D01*
X037236Y015552D01*
X037289Y015540D01*
X037341Y015524D01*
X037392Y015505D01*
X037441Y015482D01*
X037489Y015455D01*
X037534Y015425D01*
X037577Y015392D01*
X037617Y015356D01*
X037655Y015316D01*
X037690Y015275D01*
X037721Y015231D01*
X037750Y015184D01*
X037775Y015136D01*
X037796Y015086D01*
X037813Y015034D01*
X037827Y014982D01*
X037837Y014928D01*
X037843Y014874D01*
X037845Y014820D01*
X037843Y014766D01*
X037837Y014712D01*
X037827Y014658D01*
X037813Y014606D01*
X037796Y014554D01*
X037775Y014504D01*
X037750Y014456D01*
X037721Y014409D01*
X037690Y014365D01*
X037655Y014324D01*
X037617Y014284D01*
X037577Y014248D01*
X037534Y014215D01*
X037489Y014185D01*
X037441Y014158D01*
X037392Y014135D01*
X037341Y014116D01*
X037289Y014100D01*
X037236Y014088D01*
X037182Y014080D01*
X037128Y014076D01*
X037074Y014076D01*
X037020Y014080D01*
X036966Y014088D01*
X036913Y014100D01*
X036861Y014116D01*
X036810Y014135D01*
X036761Y014158D01*
X036713Y014185D01*
X036668Y014215D01*
X036625Y014248D01*
X036585Y014284D01*
X036547Y014324D01*
X036512Y014365D01*
X036481Y014409D01*
X036452Y014456D01*
X036427Y014504D01*
X036406Y014554D01*
X036389Y014606D01*
X036375Y014658D01*
X036365Y014712D01*
X036359Y014766D01*
X036357Y014820D01*
X026065Y017879D02*
X026067Y017920D01*
X026073Y017961D01*
X026083Y018001D01*
X026096Y018040D01*
X026113Y018077D01*
X026134Y018113D01*
X026158Y018147D01*
X026185Y018178D01*
X026214Y018206D01*
X026247Y018232D01*
X026281Y018254D01*
X026318Y018273D01*
X026356Y018288D01*
X026396Y018300D01*
X026436Y018308D01*
X026477Y018312D01*
X026519Y018312D01*
X026560Y018308D01*
X026600Y018300D01*
X026640Y018288D01*
X026678Y018273D01*
X026714Y018254D01*
X026749Y018232D01*
X026782Y018206D01*
X026811Y018178D01*
X026838Y018147D01*
X026862Y018113D01*
X026883Y018077D01*
X026900Y018040D01*
X026913Y018001D01*
X026923Y017961D01*
X026929Y017920D01*
X026931Y017879D01*
X026929Y017838D01*
X026923Y017797D01*
X026913Y017757D01*
X026900Y017718D01*
X026883Y017681D01*
X026862Y017645D01*
X026838Y017611D01*
X026811Y017580D01*
X026782Y017552D01*
X026749Y017526D01*
X026715Y017504D01*
X026678Y017485D01*
X026640Y017470D01*
X026600Y017458D01*
X026560Y017450D01*
X026519Y017446D01*
X026477Y017446D01*
X026436Y017450D01*
X026396Y017458D01*
X026356Y017470D01*
X026318Y017485D01*
X026282Y017504D01*
X026247Y017526D01*
X026214Y017552D01*
X026185Y017580D01*
X026158Y017611D01*
X026134Y017645D01*
X026113Y017681D01*
X026096Y017718D01*
X026083Y017757D01*
X026073Y017797D01*
X026067Y017838D01*
X026065Y017879D01*
X024351Y020320D02*
X024353Y020370D01*
X024359Y020420D01*
X024369Y020470D01*
X024382Y020518D01*
X024399Y020566D01*
X024420Y020612D01*
X024444Y020656D01*
X024472Y020698D01*
X024503Y020738D01*
X024537Y020775D01*
X024574Y020810D01*
X024613Y020841D01*
X024654Y020870D01*
X024698Y020895D01*
X024744Y020917D01*
X024791Y020935D01*
X024839Y020949D01*
X024888Y020960D01*
X024938Y020967D01*
X024988Y020970D01*
X025039Y020969D01*
X025089Y020964D01*
X025139Y020955D01*
X025187Y020943D01*
X025235Y020926D01*
X025281Y020906D01*
X025326Y020883D01*
X025369Y020856D01*
X025409Y020826D01*
X025447Y020793D01*
X025482Y020757D01*
X025515Y020718D01*
X025544Y020677D01*
X025570Y020634D01*
X025593Y020589D01*
X025612Y020542D01*
X025627Y020494D01*
X025639Y020445D01*
X025647Y020395D01*
X025651Y020345D01*
X025651Y020295D01*
X025647Y020245D01*
X025639Y020195D01*
X025627Y020146D01*
X025612Y020098D01*
X025593Y020051D01*
X025570Y020006D01*
X025544Y019963D01*
X025515Y019922D01*
X025482Y019883D01*
X025447Y019847D01*
X025409Y019814D01*
X025369Y019784D01*
X025326Y019757D01*
X025281Y019734D01*
X025235Y019714D01*
X025187Y019697D01*
X025139Y019685D01*
X025089Y019676D01*
X025039Y019671D01*
X024988Y019670D01*
X024938Y019673D01*
X024888Y019680D01*
X024839Y019691D01*
X024791Y019705D01*
X024744Y019723D01*
X024698Y019745D01*
X024654Y019770D01*
X024613Y019799D01*
X024574Y019830D01*
X024537Y019865D01*
X024503Y019902D01*
X024472Y019942D01*
X024444Y019984D01*
X024420Y020028D01*
X024399Y020074D01*
X024382Y020122D01*
X024369Y020170D01*
X024359Y020220D01*
X024353Y020270D01*
X024351Y020320D01*
X018857Y022820D02*
X018859Y022874D01*
X018865Y022928D01*
X018875Y022982D01*
X018889Y023034D01*
X018906Y023086D01*
X018927Y023136D01*
X018952Y023184D01*
X018981Y023231D01*
X019012Y023275D01*
X019047Y023316D01*
X019085Y023356D01*
X019125Y023392D01*
X019168Y023425D01*
X019213Y023455D01*
X019261Y023482D01*
X019310Y023505D01*
X019361Y023524D01*
X019413Y023540D01*
X019466Y023552D01*
X019520Y023560D01*
X019574Y023564D01*
X019628Y023564D01*
X019682Y023560D01*
X019736Y023552D01*
X019789Y023540D01*
X019841Y023524D01*
X019892Y023505D01*
X019941Y023482D01*
X019989Y023455D01*
X020034Y023425D01*
X020077Y023392D01*
X020117Y023356D01*
X020155Y023316D01*
X020190Y023275D01*
X020221Y023231D01*
X020250Y023184D01*
X020275Y023136D01*
X020296Y023086D01*
X020313Y023034D01*
X020327Y022982D01*
X020337Y022928D01*
X020343Y022874D01*
X020345Y022820D01*
X020343Y022766D01*
X020337Y022712D01*
X020327Y022658D01*
X020313Y022606D01*
X020296Y022554D01*
X020275Y022504D01*
X020250Y022456D01*
X020221Y022409D01*
X020190Y022365D01*
X020155Y022324D01*
X020117Y022284D01*
X020077Y022248D01*
X020034Y022215D01*
X019989Y022185D01*
X019941Y022158D01*
X019892Y022135D01*
X019841Y022116D01*
X019789Y022100D01*
X019736Y022088D01*
X019682Y022080D01*
X019628Y022076D01*
X019574Y022076D01*
X019520Y022080D01*
X019466Y022088D01*
X019413Y022100D01*
X019361Y022116D01*
X019310Y022135D01*
X019261Y022158D01*
X019213Y022185D01*
X019168Y022215D01*
X019125Y022248D01*
X019085Y022284D01*
X019047Y022324D01*
X019012Y022365D01*
X018981Y022409D01*
X018952Y022456D01*
X018927Y022504D01*
X018906Y022554D01*
X018889Y022606D01*
X018875Y022658D01*
X018865Y022712D01*
X018859Y022766D01*
X018857Y022820D01*
X012601Y020320D02*
X012603Y020370D01*
X012609Y020420D01*
X012619Y020470D01*
X012632Y020518D01*
X012649Y020566D01*
X012670Y020612D01*
X012694Y020656D01*
X012722Y020698D01*
X012753Y020738D01*
X012787Y020775D01*
X012824Y020810D01*
X012863Y020841D01*
X012904Y020870D01*
X012948Y020895D01*
X012994Y020917D01*
X013041Y020935D01*
X013089Y020949D01*
X013138Y020960D01*
X013188Y020967D01*
X013238Y020970D01*
X013289Y020969D01*
X013339Y020964D01*
X013389Y020955D01*
X013437Y020943D01*
X013485Y020926D01*
X013531Y020906D01*
X013576Y020883D01*
X013619Y020856D01*
X013659Y020826D01*
X013697Y020793D01*
X013732Y020757D01*
X013765Y020718D01*
X013794Y020677D01*
X013820Y020634D01*
X013843Y020589D01*
X013862Y020542D01*
X013877Y020494D01*
X013889Y020445D01*
X013897Y020395D01*
X013901Y020345D01*
X013901Y020295D01*
X013897Y020245D01*
X013889Y020195D01*
X013877Y020146D01*
X013862Y020098D01*
X013843Y020051D01*
X013820Y020006D01*
X013794Y019963D01*
X013765Y019922D01*
X013732Y019883D01*
X013697Y019847D01*
X013659Y019814D01*
X013619Y019784D01*
X013576Y019757D01*
X013531Y019734D01*
X013485Y019714D01*
X013437Y019697D01*
X013389Y019685D01*
X013339Y019676D01*
X013289Y019671D01*
X013238Y019670D01*
X013188Y019673D01*
X013138Y019680D01*
X013089Y019691D01*
X013041Y019705D01*
X012994Y019723D01*
X012948Y019745D01*
X012904Y019770D01*
X012863Y019799D01*
X012824Y019830D01*
X012787Y019865D01*
X012753Y019902D01*
X012722Y019942D01*
X012694Y019984D01*
X012670Y020028D01*
X012649Y020074D01*
X012632Y020122D01*
X012619Y020170D01*
X012609Y020220D01*
X012603Y020270D01*
X012601Y020320D01*
X014565Y017879D02*
X014567Y017920D01*
X014573Y017961D01*
X014583Y018001D01*
X014596Y018040D01*
X014613Y018077D01*
X014634Y018113D01*
X014658Y018147D01*
X014685Y018178D01*
X014714Y018206D01*
X014747Y018232D01*
X014781Y018254D01*
X014818Y018273D01*
X014856Y018288D01*
X014896Y018300D01*
X014936Y018308D01*
X014977Y018312D01*
X015019Y018312D01*
X015060Y018308D01*
X015100Y018300D01*
X015140Y018288D01*
X015178Y018273D01*
X015214Y018254D01*
X015249Y018232D01*
X015282Y018206D01*
X015311Y018178D01*
X015338Y018147D01*
X015362Y018113D01*
X015383Y018077D01*
X015400Y018040D01*
X015413Y018001D01*
X015423Y017961D01*
X015429Y017920D01*
X015431Y017879D01*
X015429Y017838D01*
X015423Y017797D01*
X015413Y017757D01*
X015400Y017718D01*
X015383Y017681D01*
X015362Y017645D01*
X015338Y017611D01*
X015311Y017580D01*
X015282Y017552D01*
X015249Y017526D01*
X015215Y017504D01*
X015178Y017485D01*
X015140Y017470D01*
X015100Y017458D01*
X015060Y017450D01*
X015019Y017446D01*
X014977Y017446D01*
X014936Y017450D01*
X014896Y017458D01*
X014856Y017470D01*
X014818Y017485D01*
X014782Y017504D01*
X014747Y017526D01*
X014714Y017552D01*
X014685Y017580D01*
X014658Y017611D01*
X014634Y017645D01*
X014613Y017681D01*
X014596Y017718D01*
X014583Y017757D01*
X014573Y017797D01*
X014567Y017838D01*
X014565Y017879D01*
X007357Y022820D02*
X007359Y022874D01*
X007365Y022928D01*
X007375Y022982D01*
X007389Y023034D01*
X007406Y023086D01*
X007427Y023136D01*
X007452Y023184D01*
X007481Y023231D01*
X007512Y023275D01*
X007547Y023316D01*
X007585Y023356D01*
X007625Y023392D01*
X007668Y023425D01*
X007713Y023455D01*
X007761Y023482D01*
X007810Y023505D01*
X007861Y023524D01*
X007913Y023540D01*
X007966Y023552D01*
X008020Y023560D01*
X008074Y023564D01*
X008128Y023564D01*
X008182Y023560D01*
X008236Y023552D01*
X008289Y023540D01*
X008341Y023524D01*
X008392Y023505D01*
X008441Y023482D01*
X008489Y023455D01*
X008534Y023425D01*
X008577Y023392D01*
X008617Y023356D01*
X008655Y023316D01*
X008690Y023275D01*
X008721Y023231D01*
X008750Y023184D01*
X008775Y023136D01*
X008796Y023086D01*
X008813Y023034D01*
X008827Y022982D01*
X008837Y022928D01*
X008843Y022874D01*
X008845Y022820D01*
X008843Y022766D01*
X008837Y022712D01*
X008827Y022658D01*
X008813Y022606D01*
X008796Y022554D01*
X008775Y022504D01*
X008750Y022456D01*
X008721Y022409D01*
X008690Y022365D01*
X008655Y022324D01*
X008617Y022284D01*
X008577Y022248D01*
X008534Y022215D01*
X008489Y022185D01*
X008441Y022158D01*
X008392Y022135D01*
X008341Y022116D01*
X008289Y022100D01*
X008236Y022088D01*
X008182Y022080D01*
X008128Y022076D01*
X008074Y022076D01*
X008020Y022080D01*
X007966Y022088D01*
X007913Y022100D01*
X007861Y022116D01*
X007810Y022135D01*
X007761Y022158D01*
X007713Y022185D01*
X007668Y022215D01*
X007625Y022248D01*
X007585Y022284D01*
X007547Y022324D01*
X007512Y022365D01*
X007481Y022409D01*
X007452Y022456D01*
X007427Y022504D01*
X007406Y022554D01*
X007389Y022606D01*
X007375Y022658D01*
X007365Y022712D01*
X007359Y022766D01*
X007357Y022820D01*
X000951Y024820D02*
X000953Y024870D01*
X000959Y024920D01*
X000969Y024970D01*
X000982Y025018D01*
X000999Y025066D01*
X001020Y025112D01*
X001044Y025156D01*
X001072Y025198D01*
X001103Y025238D01*
X001137Y025275D01*
X001174Y025310D01*
X001213Y025341D01*
X001254Y025370D01*
X001298Y025395D01*
X001344Y025417D01*
X001391Y025435D01*
X001439Y025449D01*
X001488Y025460D01*
X001538Y025467D01*
X001588Y025470D01*
X001639Y025469D01*
X001689Y025464D01*
X001739Y025455D01*
X001787Y025443D01*
X001835Y025426D01*
X001881Y025406D01*
X001926Y025383D01*
X001969Y025356D01*
X002009Y025326D01*
X002047Y025293D01*
X002082Y025257D01*
X002115Y025218D01*
X002144Y025177D01*
X002170Y025134D01*
X002193Y025089D01*
X002212Y025042D01*
X002227Y024994D01*
X002239Y024945D01*
X002247Y024895D01*
X002251Y024845D01*
X002251Y024795D01*
X002247Y024745D01*
X002239Y024695D01*
X002227Y024646D01*
X002212Y024598D01*
X002193Y024551D01*
X002170Y024506D01*
X002144Y024463D01*
X002115Y024422D01*
X002082Y024383D01*
X002047Y024347D01*
X002009Y024314D01*
X001969Y024284D01*
X001926Y024257D01*
X001881Y024234D01*
X001835Y024214D01*
X001787Y024197D01*
X001739Y024185D01*
X001689Y024176D01*
X001639Y024171D01*
X001588Y024170D01*
X001538Y024173D01*
X001488Y024180D01*
X001439Y024191D01*
X001391Y024205D01*
X001344Y024223D01*
X001298Y024245D01*
X001254Y024270D01*
X001213Y024299D01*
X001174Y024330D01*
X001137Y024365D01*
X001103Y024402D01*
X001072Y024442D01*
X001044Y024484D01*
X001020Y024528D01*
X000999Y024574D01*
X000982Y024622D01*
X000969Y024670D01*
X000959Y024720D01*
X000953Y024770D01*
X000951Y024820D01*
X000951Y020320D02*
X000953Y020370D01*
X000959Y020420D01*
X000969Y020470D01*
X000982Y020518D01*
X000999Y020566D01*
X001020Y020612D01*
X001044Y020656D01*
X001072Y020698D01*
X001103Y020738D01*
X001137Y020775D01*
X001174Y020810D01*
X001213Y020841D01*
X001254Y020870D01*
X001298Y020895D01*
X001344Y020917D01*
X001391Y020935D01*
X001439Y020949D01*
X001488Y020960D01*
X001538Y020967D01*
X001588Y020970D01*
X001639Y020969D01*
X001689Y020964D01*
X001739Y020955D01*
X001787Y020943D01*
X001835Y020926D01*
X001881Y020906D01*
X001926Y020883D01*
X001969Y020856D01*
X002009Y020826D01*
X002047Y020793D01*
X002082Y020757D01*
X002115Y020718D01*
X002144Y020677D01*
X002170Y020634D01*
X002193Y020589D01*
X002212Y020542D01*
X002227Y020494D01*
X002239Y020445D01*
X002247Y020395D01*
X002251Y020345D01*
X002251Y020295D01*
X002247Y020245D01*
X002239Y020195D01*
X002227Y020146D01*
X002212Y020098D01*
X002193Y020051D01*
X002170Y020006D01*
X002144Y019963D01*
X002115Y019922D01*
X002082Y019883D01*
X002047Y019847D01*
X002009Y019814D01*
X001969Y019784D01*
X001926Y019757D01*
X001881Y019734D01*
X001835Y019714D01*
X001787Y019697D01*
X001739Y019685D01*
X001689Y019676D01*
X001639Y019671D01*
X001588Y019670D01*
X001538Y019673D01*
X001488Y019680D01*
X001439Y019691D01*
X001391Y019705D01*
X001344Y019723D01*
X001298Y019745D01*
X001254Y019770D01*
X001213Y019799D01*
X001174Y019830D01*
X001137Y019865D01*
X001103Y019902D01*
X001072Y019942D01*
X001044Y019984D01*
X001020Y020028D01*
X000999Y020074D01*
X000982Y020122D01*
X000969Y020170D01*
X000959Y020220D01*
X000953Y020270D01*
X000951Y020320D01*
X003065Y017879D02*
X003067Y017920D01*
X003073Y017961D01*
X003083Y018001D01*
X003096Y018040D01*
X003113Y018077D01*
X003134Y018113D01*
X003158Y018147D01*
X003185Y018178D01*
X003214Y018206D01*
X003247Y018232D01*
X003281Y018254D01*
X003318Y018273D01*
X003356Y018288D01*
X003396Y018300D01*
X003436Y018308D01*
X003477Y018312D01*
X003519Y018312D01*
X003560Y018308D01*
X003600Y018300D01*
X003640Y018288D01*
X003678Y018273D01*
X003714Y018254D01*
X003749Y018232D01*
X003782Y018206D01*
X003811Y018178D01*
X003838Y018147D01*
X003862Y018113D01*
X003883Y018077D01*
X003900Y018040D01*
X003913Y018001D01*
X003923Y017961D01*
X003929Y017920D01*
X003931Y017879D01*
X003929Y017838D01*
X003923Y017797D01*
X003913Y017757D01*
X003900Y017718D01*
X003883Y017681D01*
X003862Y017645D01*
X003838Y017611D01*
X003811Y017580D01*
X003782Y017552D01*
X003749Y017526D01*
X003715Y017504D01*
X003678Y017485D01*
X003640Y017470D01*
X003600Y017458D01*
X003560Y017450D01*
X003519Y017446D01*
X003477Y017446D01*
X003436Y017450D01*
X003396Y017458D01*
X003356Y017470D01*
X003318Y017485D01*
X003282Y017504D01*
X003247Y017526D01*
X003214Y017552D01*
X003185Y017580D01*
X003158Y017611D01*
X003134Y017645D01*
X003113Y017681D01*
X003096Y017718D01*
X003083Y017757D01*
X003073Y017797D01*
X003067Y017838D01*
X003065Y017879D01*
X008577Y012761D02*
X008579Y012802D01*
X008585Y012843D01*
X008595Y012883D01*
X008608Y012922D01*
X008625Y012959D01*
X008646Y012995D01*
X008670Y013029D01*
X008697Y013060D01*
X008726Y013088D01*
X008759Y013114D01*
X008793Y013136D01*
X008830Y013155D01*
X008868Y013170D01*
X008908Y013182D01*
X008948Y013190D01*
X008989Y013194D01*
X009031Y013194D01*
X009072Y013190D01*
X009112Y013182D01*
X009152Y013170D01*
X009190Y013155D01*
X009226Y013136D01*
X009261Y013114D01*
X009294Y013088D01*
X009323Y013060D01*
X009350Y013029D01*
X009374Y012995D01*
X009395Y012959D01*
X009412Y012922D01*
X009425Y012883D01*
X009435Y012843D01*
X009441Y012802D01*
X009443Y012761D01*
X009441Y012720D01*
X009435Y012679D01*
X009425Y012639D01*
X009412Y012600D01*
X009395Y012563D01*
X009374Y012527D01*
X009350Y012493D01*
X009323Y012462D01*
X009294Y012434D01*
X009261Y012408D01*
X009227Y012386D01*
X009190Y012367D01*
X009152Y012352D01*
X009112Y012340D01*
X009072Y012332D01*
X009031Y012328D01*
X008989Y012328D01*
X008948Y012332D01*
X008908Y012340D01*
X008868Y012352D01*
X008830Y012367D01*
X008794Y012386D01*
X008759Y012408D01*
X008726Y012434D01*
X008697Y012462D01*
X008670Y012493D01*
X008646Y012527D01*
X008625Y012563D01*
X008608Y012600D01*
X008595Y012639D01*
X008585Y012679D01*
X008579Y012720D01*
X008577Y012761D01*
X020077Y012761D02*
X020079Y012802D01*
X020085Y012843D01*
X020095Y012883D01*
X020108Y012922D01*
X020125Y012959D01*
X020146Y012995D01*
X020170Y013029D01*
X020197Y013060D01*
X020226Y013088D01*
X020259Y013114D01*
X020293Y013136D01*
X020330Y013155D01*
X020368Y013170D01*
X020408Y013182D01*
X020448Y013190D01*
X020489Y013194D01*
X020531Y013194D01*
X020572Y013190D01*
X020612Y013182D01*
X020652Y013170D01*
X020690Y013155D01*
X020726Y013136D01*
X020761Y013114D01*
X020794Y013088D01*
X020823Y013060D01*
X020850Y013029D01*
X020874Y012995D01*
X020895Y012959D01*
X020912Y012922D01*
X020925Y012883D01*
X020935Y012843D01*
X020941Y012802D01*
X020943Y012761D01*
X020941Y012720D01*
X020935Y012679D01*
X020925Y012639D01*
X020912Y012600D01*
X020895Y012563D01*
X020874Y012527D01*
X020850Y012493D01*
X020823Y012462D01*
X020794Y012434D01*
X020761Y012408D01*
X020727Y012386D01*
X020690Y012367D01*
X020652Y012352D01*
X020612Y012340D01*
X020572Y012332D01*
X020531Y012328D01*
X020489Y012328D01*
X020448Y012332D01*
X020408Y012340D01*
X020368Y012352D01*
X020330Y012367D01*
X020294Y012386D01*
X020259Y012408D01*
X020226Y012434D01*
X020197Y012462D01*
X020170Y012493D01*
X020146Y012527D01*
X020125Y012563D01*
X020108Y012600D01*
X020095Y012639D01*
X020085Y012679D01*
X020079Y012720D01*
X020077Y012761D01*
X038951Y024820D02*
X038953Y024870D01*
X038959Y024920D01*
X038969Y024970D01*
X038982Y025018D01*
X038999Y025066D01*
X039020Y025112D01*
X039044Y025156D01*
X039072Y025198D01*
X039103Y025238D01*
X039137Y025275D01*
X039174Y025310D01*
X039213Y025341D01*
X039254Y025370D01*
X039298Y025395D01*
X039344Y025417D01*
X039391Y025435D01*
X039439Y025449D01*
X039488Y025460D01*
X039538Y025467D01*
X039588Y025470D01*
X039639Y025469D01*
X039689Y025464D01*
X039739Y025455D01*
X039787Y025443D01*
X039835Y025426D01*
X039881Y025406D01*
X039926Y025383D01*
X039969Y025356D01*
X040009Y025326D01*
X040047Y025293D01*
X040082Y025257D01*
X040115Y025218D01*
X040144Y025177D01*
X040170Y025134D01*
X040193Y025089D01*
X040212Y025042D01*
X040227Y024994D01*
X040239Y024945D01*
X040247Y024895D01*
X040251Y024845D01*
X040251Y024795D01*
X040247Y024745D01*
X040239Y024695D01*
X040227Y024646D01*
X040212Y024598D01*
X040193Y024551D01*
X040170Y024506D01*
X040144Y024463D01*
X040115Y024422D01*
X040082Y024383D01*
X040047Y024347D01*
X040009Y024314D01*
X039969Y024284D01*
X039926Y024257D01*
X039881Y024234D01*
X039835Y024214D01*
X039787Y024197D01*
X039739Y024185D01*
X039689Y024176D01*
X039639Y024171D01*
X039588Y024170D01*
X039538Y024173D01*
X039488Y024180D01*
X039439Y024191D01*
X039391Y024205D01*
X039344Y024223D01*
X039298Y024245D01*
X039254Y024270D01*
X039213Y024299D01*
X039174Y024330D01*
X039137Y024365D01*
X039103Y024402D01*
X039072Y024442D01*
X039044Y024484D01*
X039020Y024528D01*
X038999Y024574D01*
X038982Y024622D01*
X038969Y024670D01*
X038959Y024720D01*
X038953Y024770D01*
X038951Y024820D01*
D11*
X029451Y018647D03*
X029451Y015320D03*
X032601Y015320D03*
X029451Y011993D03*
X025554Y015320D03*
X021101Y015320D03*
X017951Y015320D03*
X014054Y015320D03*
X009601Y015320D03*
X006451Y015320D03*
X002554Y015320D03*
X006451Y011993D03*
X006451Y018647D03*
X017951Y018647D03*
X017951Y011993D03*
D12*
X020747Y021785D02*
X021454Y022492D01*
X018454Y023854D02*
X017747Y023147D01*
X009954Y022492D02*
X009247Y021785D01*
X006954Y023854D02*
X006247Y023147D01*
X036066Y013673D02*
X036773Y012966D01*
X038135Y015966D02*
X037428Y016673D01*
D13*
X039601Y019320D03*
X039601Y021820D03*
X037601Y024320D03*
X035101Y024320D03*
X032601Y024320D03*
X029601Y009320D03*
X027101Y009320D03*
X036101Y009320D03*
X038601Y009320D03*
X018101Y009320D03*
X015601Y009320D03*
X006601Y009320D03*
X004101Y009320D03*
D14*
X003101Y011260D03*
X003101Y012380D03*
X014601Y012380D03*
X014601Y011260D03*
X026101Y011260D03*
X026101Y012380D03*
X038101Y019260D03*
X038101Y020380D03*
X015101Y022260D03*
X015101Y023380D03*
X002601Y023380D03*
X002601Y022260D03*
D15*
X003601Y022446D03*
X003601Y023194D03*
X013601Y023194D03*
X013601Y022446D03*
X013101Y012194D03*
X013101Y011446D03*
X024601Y011446D03*
X024601Y012194D03*
X036601Y019446D03*
X036601Y020194D03*
X001601Y012194D03*
X001601Y011446D03*
D16*
X006451Y011993D02*
X007428Y011993D01*
X008101Y011320D01*
X010101Y011320D01*
X011601Y012820D01*
X011601Y024320D01*
X012601Y025320D01*
X023601Y025320D01*
X024601Y024320D01*
X032601Y024320D01*
X031601Y023320D02*
X032101Y022820D01*
X033601Y022820D01*
X035101Y024320D01*
X037601Y024320D02*
X037601Y022820D01*
X037101Y022320D01*
X035601Y022320D01*
X034601Y021320D01*
X034601Y012820D01*
X033101Y011320D01*
X031601Y011320D01*
X030928Y011993D01*
X029451Y011993D01*
X023101Y012820D02*
X021601Y011320D01*
X020101Y011320D01*
X019428Y011993D01*
X017951Y011993D01*
X023101Y012820D02*
X023101Y022820D01*
X023601Y023320D01*
X031601Y023320D01*
D17*
X036601Y020194D02*
X036787Y020380D01*
X038101Y020380D01*
X038101Y019260D02*
X039541Y019260D01*
X039601Y019320D01*
X036601Y019320D02*
X035601Y018320D01*
X035601Y014139D01*
X036420Y013320D01*
X029601Y009320D02*
X027601Y011320D01*
X026161Y011320D01*
X026101Y011260D01*
X025915Y012194D02*
X026101Y012380D01*
X025915Y012194D02*
X024601Y012194D01*
X024601Y011446D02*
X024601Y010820D01*
X026101Y009320D01*
X027101Y009320D01*
X018101Y009320D02*
X015851Y011570D01*
X016101Y011820D01*
X016101Y018820D01*
X015101Y019820D01*
X015101Y022260D01*
X015101Y023380D02*
X013601Y023380D01*
X013601Y023194D01*
X013116Y022446D02*
X012601Y022961D01*
X012601Y023613D01*
X013308Y024320D01*
X015308Y024320D01*
X017308Y022320D01*
X017308Y022113D01*
X018601Y020820D01*
X019782Y020820D01*
X021101Y022139D01*
X021101Y022320D01*
X013601Y022446D02*
X013116Y022446D01*
X009601Y022320D02*
X009601Y022139D01*
X008282Y020820D01*
X005101Y020820D01*
X003727Y022194D01*
X003727Y022320D01*
X003601Y022446D01*
X002601Y022260D02*
X002601Y021820D01*
X004101Y020320D01*
X004101Y019320D01*
X004601Y018820D01*
X004601Y011820D01*
X004101Y011320D01*
X006101Y009320D01*
X006601Y009320D01*
X004101Y011320D02*
X003161Y011320D01*
X003101Y011260D01*
X003101Y012380D02*
X001787Y012380D01*
X001601Y012194D01*
X001601Y011446D02*
X001601Y010320D01*
X013101Y010320D02*
X013101Y011446D01*
X013101Y012194D02*
X013287Y012380D01*
X014601Y012380D01*
X015601Y011320D02*
X015851Y011570D01*
X015601Y011320D02*
X014661Y011320D01*
X014601Y011260D01*
X003601Y023194D02*
X003415Y023380D01*
X002601Y023380D01*
X036601Y019446D02*
X036601Y019320D01*
D18*
X013101Y010320D03*
X001601Y010320D03*
M02*
